# Blender v3.4.1 OBJ File: 'Platformer_Pack_Export_FREE.blend'
# www.blender.org
mtllib barrier_1x1x1_green.mtl
o barrier_1x1x1_green
v 0.300000 0.300000 0.500000
v -0.441421 0.441421 0.300000
v -0.300000 0.441421 0.441421
v -0.415470 0.415470 0.415470
v -0.441421 0.300000 0.441421
v -0.300000 0.300000 0.500000
v -0.500000 0.300000 0.300000
v -0.500000 0.800000 0.300000
v -0.300000 0.800000 0.500000
v -0.300000 1.000000 0.300000
v -0.441422 0.800000 0.441421
v -0.415470 0.915470 0.415470
v -0.300000 0.941421 0.441421
v -0.441422 0.941421 0.300000
v 0.300000 0.800000 0.500000
v 0.500000 0.800000 0.300000
v 0.300000 1.000000 0.300000
v 0.441421 0.800000 0.441421
v 0.415470 0.915470 0.415470
v 0.441421 0.941422 0.300000
v 0.300000 0.941422 0.441421
v -0.500000 0.800000 -0.300000
v -0.300000 1.000000 -0.300000
v -0.300000 0.800000 -0.500000
v -0.441422 0.941421 -0.300000
v -0.415470 0.915470 -0.415470
v -0.300000 0.941421 -0.441421
v -0.441422 0.800000 -0.441421
v 0.500000 0.800000 -0.300000
v 0.300000 0.800000 -0.500000
v 0.300000 1.000000 -0.300000
v 0.441421 0.800000 -0.441422
v 0.415470 0.915470 -0.415470
v 0.299999 0.941422 -0.441422
v 0.441421 0.941422 -0.300000
v -0.500000 0.700000 0.300000
v -0.300000 0.500000 0.300000
v -0.300000 0.700000 0.500000
v -0.441421 0.558579 0.300000
v -0.415470 0.584530 0.415470
v -0.300000 0.558579 0.441421
v -0.441421 0.700000 0.441421
v 0.500000 0.700000 0.300000
v 0.300000 0.700000 0.500000
v 0.441421 0.700000 0.441421
v 0.415470 0.584530 0.415470
v 0.300000 0.558579 0.441421
v 0.441421 0.558579 0.300000
v -0.500000 0.700000 -0.300000
v -0.300000 0.700000 -0.500000
v -0.441422 0.700000 -0.441421
v -0.415470 0.584530 -0.415470
v -0.300000 0.558579 -0.441421
v -0.441421 0.558579 -0.300000
v 0.500000 0.700000 -0.300000
v 0.300000 0.500000 -0.300000
v 0.300000 0.700000 -0.500000
v 0.441421 0.558579 -0.300000
v 0.415470 0.584530 -0.415470
v 0.300000 0.558579 -0.441422
v 0.441421 0.700000 -0.441422
v 0.500000 0.300000 0.300000
v 0.300000 0.500000 0.300000
v 0.441422 0.300000 0.441421
v 0.415470 0.415470 0.415470
v 0.441421 0.441422 0.300000
v 0.300000 0.441422 0.441421
v -0.500000 0.300000 -0.300000
v -0.300000 0.500000 -0.300000
v -0.300000 0.300000 -0.500000
v -0.441421 0.441421 -0.300000
v -0.415470 0.415470 -0.415470
v -0.300000 0.441421 -0.441421
v -0.441421 0.300000 -0.441421
v 0.500000 0.300000 -0.300000
v 0.300000 0.300000 -0.500000
v 0.441421 0.300000 -0.441422
v 0.415470 0.415470 -0.415470
v 0.300000 0.441422 -0.441422
v 0.441421 0.441422 -0.300000
v -0.500000 0.200000 0.300000
v -0.300000 0.200000 0.500000
v -0.441421 0.058579 0.300000
v -0.415470 0.084530 0.415470
v -0.300000 0.058579 0.441421
v -0.441421 0.200000 0.441421
v 0.500000 0.200000 0.300000
v 0.300000 0.200000 0.500000
v 0.441422 0.200000 0.441421
v 0.415470 0.084530 0.415470
v 0.300000 0.058579 0.441421
v 0.441422 0.058579 0.300000
v -0.500000 0.200000 -0.300000
v -0.300000 0.200000 -0.500000
v -0.441421 0.200000 -0.441421
v -0.415470 0.084530 -0.415470
v -0.300000 0.058579 -0.441421
v -0.441421 0.058579 -0.300000
v 0.500000 0.200000 -0.300000
v 0.300000 0.200000 -0.500000
v 0.441422 0.058579 -0.300000
v 0.415470 0.084530 -0.415470
v 0.300000 0.058579 -0.441422
v 0.441422 0.200000 -0.441422
v -0.300000 0.000000 0.300000
v 0.300000 0.000000 0.300000
v -0.300000 0.000000 -0.300000
v 0.300000 0.000000 -0.300000
vt 0.403943 0.169997
vt 0.471057 0.169997
vt 0.471057 0.176870
vt 0.403943 0.176870
vt 0.403943 0.135630
vt 0.471057 0.135630
vt 0.471057 0.142503
vt 0.403943 0.142503
vt 0.474786 0.169997
vt 0.474786 0.176870
vt 0.474786 0.176870
vt 0.474786 0.169997
vt 0.403943 0.228918
vt 0.471057 0.228918
vt 0.471057 0.228918
vt 0.403943 0.228918
vt 0.403943 0.176870
vt 0.471057 0.176870
vt 0.471057 0.169997
vt 0.403943 0.169997
vt 0.400214 0.176870
vt 0.401307 0.176870
vt 0.401790 0.210341
vt 0.401307 0.212125
vt 0.403943 0.212125
vt 0.401307 0.224892
vt 0.401790 0.223108
vt 0.403943 0.224892
vt 0.473694 0.176870
vt 0.473210 0.210341
vt 0.471057 0.212125
vt 0.473694 0.212125
vt 0.471057 0.224892
vt 0.473210 0.223108
vt 0.473694 0.224892
vt 0.400214 0.176870
vt 0.401307 0.212125
vt 0.401790 0.210341
vt 0.401307 0.176870
vt 0.403943 0.224892
vt 0.401790 0.223108
vt 0.401307 0.224892
vt 0.403943 0.212125
vt 0.473694 0.176870
vt 0.473210 0.210341
vt 0.473694 0.212125
vt 0.471057 0.212125
vt 0.473694 0.224892
vt 0.473210 0.223108
vt 0.471057 0.224892
vt 0.400214 0.169997
vt 0.401307 0.134742
vt 0.401790 0.136526
vt 0.401307 0.169997
vt 0.403943 0.117949
vt 0.403943 0.121975
vt 0.401790 0.123759
vt 0.401307 0.121975
vt 0.403943 0.134742
vt 0.473694 0.169997
vt 0.473210 0.136526
vt 0.473694 0.134742
vt 0.471057 0.134742
vt 0.471057 0.117949
vt 0.473694 0.121975
vt 0.473210 0.123759
vt 0.471057 0.121975
vt 0.400214 0.169997
vt 0.401307 0.169997
vt 0.401790 0.136526
vt 0.401307 0.134742
vt 0.403943 0.134742
vt 0.403943 0.117949
vt 0.401307 0.121975
vt 0.401790 0.123759
vt 0.403943 0.121975
vt 0.473694 0.134742
vt 0.473210 0.136526
vt 0.473694 0.169997
vt 0.471057 0.117949
vt 0.471057 0.121975
vt 0.473210 0.123759
vt 0.473694 0.121975
vt 0.471057 0.134742
vt 0.474786 0.135630
vt 0.474786 0.142503
vt 0.474786 0.142503
vt 0.474786 0.135630
vt 0.403943 0.142503
vt 0.471057 0.142503
vt 0.471057 0.135630
vt 0.403943 0.135630
vt 0.400214 0.142503
vt 0.401307 0.142503
vt 0.401790 0.175974
vt 0.401307 0.177758
vt 0.403943 0.177758
vt 0.403943 0.194551
vt 0.401307 0.190525
vt 0.401790 0.188741
vt 0.403943 0.190525
vt 0.473694 0.142503
vt 0.473210 0.175974
vt 0.471057 0.177758
vt 0.473694 0.177758
vt 0.471057 0.194551
vt 0.471057 0.190525
vt 0.473210 0.188741
vt 0.473694 0.190525
vt 0.400214 0.142503
vt 0.401307 0.177758
vt 0.401790 0.175974
vt 0.401307 0.142503
vt 0.403943 0.194551
vt 0.403943 0.190525
vt 0.401790 0.188741
vt 0.401307 0.190525
vt 0.403943 0.177758
vt 0.473694 0.142503
vt 0.473210 0.175974
vt 0.473694 0.177758
vt 0.471057 0.177758
vt 0.471057 0.194551
vt 0.473694 0.190525
vt 0.473210 0.188741
vt 0.471057 0.190525
vt 0.400214 0.135630
vt 0.401307 0.100375
vt 0.401790 0.102159
vt 0.401307 0.135630
vt 0.403943 0.083582
vt 0.403943 0.087608
vt 0.401790 0.089392
vt 0.401307 0.087608
vt 0.403943 0.100375
vt 0.473694 0.135630
vt 0.473210 0.102159
vt 0.473694 0.100375
vt 0.471057 0.100375
vt 0.471057 0.083582
vt 0.473694 0.087608
vt 0.473210 0.089392
vt 0.471057 0.087608
vt 0.400214 0.135630
vt 0.401307 0.135630
vt 0.401790 0.102159
vt 0.401307 0.100375
vt 0.403943 0.100375
vt 0.403943 0.083582
vt 0.401307 0.087608
vt 0.401790 0.089392
vt 0.403943 0.087608
vt 0.473694 0.100375
vt 0.473210 0.102159
vt 0.473694 0.135630
vt 0.471057 0.083582
vt 0.471057 0.087608
vt 0.473210 0.089392
vt 0.473694 0.087608
vt 0.471057 0.100375
vn -0.1794 -0.1794 0.9673
vn 0.1794 -0.1794 0.9673
vn 0.1794 0.1794 0.9673
vn -0.1794 0.1794 0.9673
vn 0.9673 -0.1794 -0.1794
vn 0.9673 0.1794 -0.1794
vn 0.9673 0.1794 0.1794
vn 0.9673 -0.1794 0.1794
vn -0.1794 0.9673 0.1794
vn 0.1794 0.9673 0.1794
vn 0.1794 0.9673 -0.1794
vn -0.1794 0.9673 -0.1794
vn -0.1794 0.1794 -0.9673
vn 0.1794 0.1794 -0.9673
vn 0.1794 -0.1794 -0.9673
vn -0.1794 -0.1794 -0.9673
vn -0.9673 0.1794 0.1794
vn -0.6965 0.1726 0.6965
vn -0.8881 0.3251 0.3251
vn -0.9194 0.3600 0.1585
vn -0.1585 0.3600 0.9194
vn -0.3251 0.3251 0.8881
vn -0.3600 0.9194 0.1585
vn -0.3251 0.8881 0.3251
vn -0.1585 0.9194 0.3600
vn 0.3600 0.1585 0.9194
vn 0.3251 0.3251 0.8881
vn 0.1585 0.3600 0.9194
vn 0.6965 0.6965 0.1726
vn 0.8881 0.3251 0.3251
vn 0.9194 0.1585 0.3600
vn 0.1585 0.9194 0.3600
vn 0.3251 0.8881 0.3251
vn -0.9673 0.1794 -0.1794
vn -0.9194 0.3600 -0.1585
vn -0.8881 0.3251 -0.3251
vn -0.9194 0.1585 -0.3600
vn -0.1585 0.9194 -0.3600
vn -0.3251 0.8881 -0.3251
vn -0.3600 0.9194 -0.1585
vn -0.3600 0.1585 -0.9194
vn -0.3251 0.3251 -0.8881
vn -0.1585 0.3600 -0.9194
vn 0.9194 0.1585 -0.3600
vn 0.8881 0.3251 -0.3251
vn 0.6965 0.6965 -0.1726
vn 0.1585 0.3600 -0.9194
vn 0.3251 0.3251 -0.8881
vn 0.3600 0.1585 -0.9194
vn 0.3251 0.8881 -0.3251
vn 0.1585 0.9194 -0.3600
vn -0.9673 -0.1794 0.1794
vn -0.9194 -0.3600 0.1585
vn -0.8881 -0.3251 0.3251
vn -0.6965 -0.1726 0.6965
vn -0.2402 -0.9406 0.2402
vn -0.1585 -0.9194 0.3600
vn -0.3251 -0.8881 0.3251
vn -0.3600 -0.9194 0.1585
vn -0.3251 -0.3251 0.8881
vn -0.1585 -0.3600 0.9194
vn 0.9194 -0.1585 0.3600
vn 0.8881 -0.3251 0.3251
vn 0.6965 -0.6965 0.1726
vn 0.1585 -0.3600 0.9194
vn 0.3251 -0.3251 0.8881
vn 0.3600 -0.1585 0.9194
vn 0.2402 -0.9406 0.2402
vn 0.3251 -0.8881 0.3251
vn 0.1585 -0.9194 0.3600
vn -0.9673 -0.1794 -0.1794
vn -0.9194 -0.1585 -0.3600
vn -0.8881 -0.3251 -0.3251
vn -0.9194 -0.3600 -0.1585
vn -0.1585 -0.3600 -0.9194
vn -0.3251 -0.3251 -0.8881
vn -0.3600 -0.1585 -0.9194
vn -0.2402 -0.9406 -0.2402
vn -0.3600 -0.9194 -0.1585
vn -0.3251 -0.8881 -0.3251
vn -0.1585 -0.9194 -0.3600
vn 0.6965 -0.6965 -0.1726
vn 0.8881 -0.3251 -0.3251
vn 0.9194 -0.1585 -0.3600
vn 0.2402 -0.9406 -0.2402
vn 0.1585 -0.9194 -0.3600
vn 0.3251 -0.8881 -0.3251
vn 0.3600 -0.1585 -0.9194
vn 0.3251 -0.3251 -0.8881
vn 0.1585 -0.3600 -0.9194
vn -0.9194 0.1585 0.3600
vn -0.3600 0.1585 0.9194
vn -0.2402 0.9406 0.2402
vn 0.9194 0.3600 0.1585
vn 0.2402 0.9406 0.2402
vn 0.3600 0.9194 0.1585
vn -0.2402 0.9406 -0.2402
vn 0.6965 0.1726 -0.6965
vn 0.9194 0.3600 -0.1585
vn 0.2402 0.9406 -0.2402
vn 0.3600 0.9194 -0.1585
vn -0.6965 -0.6965 0.1726
vn -0.9194 -0.1585 0.3600
vn -0.1794 -0.9673 0.1794
vn -0.3600 -0.1585 0.9194
vn 0.1794 -0.9673 0.1794
vn -0.6965 -0.6965 -0.1726
vn -0.1794 -0.9673 -0.1794
vn 0.6965 -0.1726 -0.6965
vn 0.1794 -0.9673 -0.1794
usemtl platformer
s 1
f 38/1/1 44/2/2 15/3/3 9/4/4
f 82/5/1 88/6/2 1/7/3 6/8/4
f 55/9/5 29/10/6 16/11/7 43/12/8
f 10/13/9 17/14/10 31/15/11 23/16/12
f 24/17/13 30/18/14 57/19/15 50/20/16
f 8/21/17 11/22/18 12/23/19 14/24/20
f 9/4/4 13/25/21 12/23/22 11/22/18
f 10/13/9 14/26/23 12/27/24 13/28/25
f 15/3/3 18/29/26 19/30/27 21/31/28
f 16/11/7 20/32/29 19/30/30 18/29/31
f 17/14/10 21/33/32 19/34/33 20/35/29
f 22/36/34 25/37/35 26/38/36 28/39/37
f 23/16/12 27/40/38 26/41/39 25/42/40
f 24/17/13 28/39/41 26/38/42 27/43/43
f 29/10/6 32/44/44 33/45/45 35/46/46
f 30/18/14 34/47/47 33/45/48 32/44/49
f 31/15/11 35/48/46 33/49/50 34/50/51
f 36/51/52 39/52/53 40/53/54 42/54/55
f 37/55/56 41/56/57 40/57/58 39/58/59
f 38/1/1 42/54/55 40/53/60 41/59/61
f 43/12/8 45/60/62 46/61/63 48/62/64
f 44/2/2 47/63/65 46/61/66 45/60/67
f 63/64/68 48/65/64 46/66/69 47/67/70
f 49/68/71 51/69/72 52/70/73 54/71/74
f 50/20/16 53/72/75 52/70/76 51/69/77
f 69/73/78 54/74/79 52/75/80 53/76/81
f 55/9/5 58/77/82 59/78/83 61/79/84
f 56/80/85 60/81/86 59/82/87 58/83/82
f 57/19/15 61/79/88 59/78/89 60/84/90
f 22/36/34 8/21/17 14/24/20 25/37/35
f 25/42/40 14/26/23 10/13/9 23/16/12
f 9/4/4 15/3/3 21/31/28 13/25/21
f 13/28/25 21/33/32 17/14/10 10/13/9
f 16/11/7 29/10/6 35/46/46 20/32/29
f 20/35/29 35/48/46 31/15/11 17/14/10
f 30/18/14 24/17/13 27/43/43 34/47/47
f 34/50/51 27/40/38 23/16/12 31/15/11
f 49/68/71 22/36/34 28/39/37 51/69/72
f 51/69/77 28/39/41 24/17/13 50/20/16
f 29/10/6 55/9/5 61/79/84 32/44/44
f 32/44/49 61/79/88 57/19/15 30/18/14
f 56/80/85 69/73/78 53/76/81 60/81/86
f 60/84/90 53/72/75 50/20/16 57/19/15
f 36/51/52 49/68/71 54/71/74 39/52/53
f 39/58/59 54/74/79 69/73/78 37/55/56
f 55/9/5 43/12/8 48/62/64 58/77/82
f 58/83/82 48/65/64 63/64/68 56/80/85
f 44/2/2 38/1/1 41/59/61 47/63/65
f 47/67/70 41/56/57 37/55/56 63/64/68
f 8/21/17 36/51/52 42/54/55 11/22/18
f 11/22/18 42/54/55 38/1/1 9/4/4
f 43/12/8 16/11/7 18/29/31 45/60/62
f 45/60/67 18/29/26 15/3/3 44/2/2
f 22/36/34 49/68/71 36/51/52 8/21/17
f 99/85/5 75/86/6 62/87/7 87/88/8
f 70/89/13 76/90/14 100/91/15 94/92/16
f 7/93/17 5/94/91 4/95/19 2/96/20
f 6/8/4 3/97/21 4/95/22 5/94/92
f 37/98/93 2/99/23 4/100/24 3/101/25
f 1/7/3 64/102/26 65/103/27 67/104/28
f 62/87/7 66/105/94 65/103/30 64/102/31
f 63/106/95 67/107/32 65/108/33 66/109/96
f 68/110/34 71/111/35 72/112/36 74/113/37
f 69/114/97 73/115/38 72/116/39 71/117/40
f 70/89/13 74/113/41 72/112/42 73/118/43
f 75/86/6 77/119/98 78/120/45 80/121/99
f 76/90/14 79/122/47 78/120/48 77/119/98
f 56/123/100 80/124/101 78/125/50 79/126/51
f 81/127/52 83/128/102 84/129/54 86/130/103
f 105/131/104 85/132/57 84/133/58 83/134/102
f 82/5/1 86/130/105 84/129/60 85/135/61
f 87/88/8 89/136/62 90/137/63 92/138/64
f 88/6/2 91/139/65 90/137/66 89/136/67
f 106/140/106 92/141/64 90/142/69 91/143/70
f 93/144/71 95/145/72 96/146/73 98/147/107
f 94/92/16 97/148/75 96/146/76 95/145/77
f 107/149/108 98/150/107 96/151/80 97/152/81
f 99/85/5 101/153/82 102/154/83 104/155/109
f 108/156/110 103/157/86 102/158/87 101/159/82
f 100/91/15 104/155/109 102/154/89 103/160/90
f 68/110/34 7/93/17 2/96/20 71/111/35
f 71/117/40 2/99/23 37/98/93 69/114/97
f 6/8/4 1/7/3 67/104/28 3/97/21
f 3/101/25 67/107/32 63/106/95 37/98/93
f 62/87/7 75/86/6 80/121/99 66/105/94
f 66/109/96 80/124/101 56/123/100 63/106/95
f 76/90/14 70/89/13 73/118/43 79/122/47
f 79/126/51 73/115/38 69/114/97 56/123/100
f 93/144/71 68/110/34 74/113/37 95/145/72
f 95/145/77 74/113/41 70/89/13 94/92/16
f 75/86/6 99/85/5 104/155/109 77/119/98
f 77/119/98 104/155/109 100/91/15 76/90/14
f 108/156/110 107/149/108 97/152/81 103/157/86
f 103/160/90 97/148/75 94/92/16 100/91/15
f 81/127/52 93/144/71 98/147/107 83/128/102
f 83/134/102 98/150/107 107/149/108 105/131/104
f 99/85/5 87/88/8 92/138/64 101/153/82
f 101/159/82 92/141/64 106/140/106 108/156/110
f 88/6/2 82/5/1 85/135/61 91/139/65
f 91/143/70 85/132/57 105/131/104 106/140/106
f 7/93/17 81/127/52 86/130/103 5/94/91
f 5/94/92 86/130/105 82/5/1 6/8/4
f 87/88/8 62/87/7 64/102/31 89/136/62
f 89/136/67 64/102/26 1/7/3 88/6/2
f 68/110/34 93/144/71 81/127/52 7/93/17
f 105/131/104 107/149/108 108/156/110 106/140/106
