# Blender v3.4.1 OBJ File: 'Platformer_Pack_Export_FREE.blend'
# www.blender.org
mtllib bracing_large_green.mtl
o bracing_large_green
v -0.500000 -0.500000 0.050000
v -0.500000 0.500000 0.050000
v -0.500000 -0.500000 -0.100000
v -0.500000 0.500000 -0.100000
v 0.500000 -0.500000 0.050000
v 0.500000 0.500000 0.050000
v 0.500000 -0.500000 -0.100000
v 0.500000 0.500000 -0.100000
v -0.500000 -0.370000 0.050000
v -0.500000 0.370000 0.050000
v 0.500000 0.370000 0.050000
v 0.500000 -0.370000 0.050000
v -0.500000 -0.300000 0.100000
v -0.500000 0.300000 0.100000
v 0.500000 0.300000 0.100000
v 0.500000 -0.300000 0.100000
v 0.400000 0.472056 0.007935
v 0.400000 0.429999 0.077653
v 0.429739 0.459738 0.007935
v 0.442057 0.429999 0.007935
v 0.429739 0.400261 0.007935
v 0.400000 0.387942 0.007935
v 0.370262 0.400261 0.007935
v 0.357943 0.429999 0.007935
v 0.370262 0.459738 0.007935
v 0.400000 -0.472056 0.007935
v 0.400000 -0.429999 0.077653
v 0.370261 -0.459738 0.007935
v 0.357943 -0.429999 0.007935
v 0.370261 -0.400261 0.007935
v 0.400000 -0.387942 0.007935
v 0.429738 -0.400261 0.007935
v 0.442057 -0.429999 0.007935
v 0.429738 -0.459738 0.007935
v 0.366956 -0.463043 0.069059
v 0.400000 -0.476730 0.069059
v 0.353269 -0.429999 0.069059
v 0.366956 -0.396956 0.069059
v 0.400000 -0.383269 0.069059
v 0.433043 -0.396956 0.069059
v 0.446730 -0.429999 0.069059
v 0.433043 -0.463043 0.069059
v 0.433044 0.463043 0.069059
v 0.400000 0.476730 0.069059
v 0.446731 0.429999 0.069059
v 0.433044 0.396956 0.069059
v 0.400000 0.383269 0.069059
v 0.366957 0.396956 0.069059
v 0.353270 0.429999 0.069059
v 0.366957 0.463043 0.069059
v -0.400000 0.472056 0.007935
v -0.400000 0.429999 0.077653
v -0.370261 0.459738 0.007935
v -0.357943 0.429999 0.007935
v -0.370261 0.400261 0.007935
v -0.400000 0.387942 0.007935
v -0.429738 0.400261 0.007935
v -0.442057 0.429999 0.007935
v -0.429738 0.459738 0.007935
v -0.400000 -0.472056 0.007935
v -0.400000 -0.429999 0.077653
v -0.429739 -0.459738 0.007935
v -0.442057 -0.429999 0.007935
v -0.429739 -0.400261 0.007935
v -0.400000 -0.387942 0.007935
v -0.370262 -0.400261 0.007935
v -0.357943 -0.429999 0.007935
v -0.370262 -0.459738 0.007935
v -0.433044 -0.463043 0.069059
v -0.400000 -0.476730 0.069059
v -0.446731 -0.429999 0.069059
v -0.433044 -0.396956 0.069059
v -0.400000 -0.383269 0.069059
v -0.366957 -0.396956 0.069059
v -0.353270 -0.429999 0.069059
v -0.366957 -0.463043 0.069059
v -0.366956 0.463043 0.069059
v -0.400000 0.476730 0.069059
v -0.353269 0.429999 0.069059
v -0.366956 0.396956 0.069059
v -0.400000 0.383269 0.069059
v -0.433043 0.396956 0.069059
v -0.446730 0.429999 0.069059
v -0.433043 0.463043 0.069059
vt 0.418048 0.148469
vt 0.418048 0.160847
vt 0.418048 0.160847
vt 0.450054 0.160847
vt 0.450054 0.160847
vt 0.450054 0.148469
vt 0.450054 0.157766
vt 0.450054 0.170144
vt 0.418048 0.170144
vt 0.418048 0.157766
vt 0.418048 0.094420
vt 0.450054 0.094420
vt 0.450054 0.094420
vt 0.418048 0.094420
vt 0.450054 0.188738
vt 0.418048 0.188738
vt 0.418048 0.188738
vt 0.450054 0.188738
vt 0.450054 0.113014
vt 0.450054 0.125392
vt 0.418048 0.125392
vt 0.418048 0.113014
vt 0.450054 0.176359
vt 0.418048 0.176359
vt 0.418048 0.169694
vt 0.450054 0.169694
vt 0.450054 0.103717
vt 0.450054 0.116095
vt 0.450054 0.103717
vt 0.418048 0.113014
vt 0.418048 0.170144
vt 0.450054 0.170144
vt 0.450054 0.113014
vt 0.418048 0.103717
vt 0.418048 0.116095
vt 0.418048 0.103717
vt 0.450054 0.132057
vt 0.450054 0.151100
vt 0.418048 0.151100
vt 0.418048 0.132057
vt 0.450054 0.141803
vt 0.450054 0.122760
vt 0.418048 0.122760
vt 0.418048 0.141803
vt 0.418048 0.106798
vt 0.450054 0.106798
vt 0.450054 0.113463
vt 0.418048 0.113463
vt 0.311655 0.944401
vt 0.311655 0.945643
vt 0.320438 0.942005
vt 0.319560 0.941126
vt 0.324076 0.933222
vt 0.322834 0.933222
vt 0.320438 0.924438
vt 0.319560 0.925317
vt 0.311655 0.920800
vt 0.311655 0.922042
vt 0.302872 0.924438
vt 0.303750 0.925317
vt 0.299234 0.933222
vt 0.300476 0.933222
vt 0.302872 0.942005
vt 0.303750 0.941126
vt 0.310657 0.921563
vt 0.310657 0.920320
vt 0.301874 0.923959
vt 0.302752 0.924837
vt 0.298235 0.932742
vt 0.299478 0.932742
vt 0.301874 0.941525
vt 0.302752 0.940647
vt 0.310657 0.945163
vt 0.310657 0.943921
vt 0.319440 0.941525
vt 0.318561 0.940647
vt 0.323078 0.932742
vt 0.321836 0.932742
vt 0.319440 0.923959
vt 0.318561 0.924837
vt 0.310657 0.956782
vt 0.301874 0.947999
vt 0.310657 0.944361
vt 0.298235 0.956782
vt 0.301874 0.965565
vt 0.310657 0.969204
vt 0.319440 0.965565
vt 0.323078 0.956782
vt 0.319440 0.947999
vt 0.311655 0.957262
vt 0.320438 0.966045
vt 0.311655 0.969683
vt 0.324076 0.957262
vt 0.320438 0.948479
vt 0.311655 0.944841
vt 0.302872 0.948479
vt 0.299234 0.957262
vt 0.302872 0.966045
vt 0.311655 0.944401
vt 0.311655 0.945643
vt 0.320438 0.942005
vt 0.319560 0.941126
vt 0.324076 0.933222
vt 0.322834 0.933222
vt 0.320438 0.924438
vt 0.319560 0.925317
vt 0.311655 0.920800
vt 0.311655 0.922042
vt 0.302872 0.924438
vt 0.303750 0.925317
vt 0.299234 0.933222
vt 0.300476 0.933222
vt 0.302872 0.942005
vt 0.303750 0.941126
vt 0.310657 0.921563
vt 0.310657 0.920320
vt 0.301874 0.923959
vt 0.302752 0.924837
vt 0.298235 0.932742
vt 0.299478 0.932742
vt 0.301874 0.941525
vt 0.302752 0.940647
vt 0.310657 0.945163
vt 0.310657 0.943921
vt 0.319440 0.941525
vt 0.318561 0.940647
vt 0.323078 0.932742
vt 0.321836 0.932742
vt 0.319440 0.923959
vt 0.318561 0.924837
vt 0.310657 0.956782
vt 0.301874 0.947999
vt 0.310657 0.944361
vt 0.298235 0.956782
vt 0.301874 0.965565
vt 0.310657 0.969204
vt 0.319440 0.965565
vt 0.323078 0.956782
vt 0.319440 0.947999
vt 0.311655 0.957262
vt 0.320438 0.966045
vt 0.311655 0.969683
vt 0.324076 0.957262
vt 0.320438 0.948479
vt 0.311655 0.944841
vt 0.302872 0.948479
vt 0.299234 0.957262
vt 0.302872 0.966045
vn -1.0000 0.0000 0.0000
vn 1.0000 0.0000 0.0000
vn 0.0000 0.3052 0.9523
vn 0.0000 0.0000 1.0000
vn 0.0000 -1.0000 0.0000
vn 0.0000 1.0000 0.0000
vn 0.0000 -0.3052 0.9523
vn 0.0000 0.0000 -1.0000
vn -0.0000 0.9971 -0.0762
vn 0.7050 0.7050 -0.0762
vn 0.9971 0.0000 -0.0762
vn 0.7050 -0.7050 -0.0762
vn -0.0000 -0.9971 -0.0762
vn -0.7050 -0.7050 -0.0762
vn -0.9971 0.0000 -0.0762
vn -0.7050 0.7050 -0.0762
vn -0.1279 -0.1279 0.9835
vn -0.0000 -0.1809 0.9835
vn -0.1809 -0.0000 0.9835
vn -0.1279 0.1279 0.9835
vn -0.0000 0.1809 0.9835
vn 0.1279 0.1279 0.9835
vn 0.1809 -0.0000 0.9835
vn 0.1279 -0.1279 0.9835
usemtl platformer
s 1
f 10/1/1 2/2/1 4/3/1
f 8/4/2 6/5/2 11/6/2
f 11/7/3 6/8/4 2/9/4 10/10/3
f 3/11/5 7/12/5 5/13/5 1/14/5
f 8/15/6 4/16/6 2/17/6 6/18/6
f 5/19/4 12/20/7 9/21/7 1/22/4
f 11/23/3 10/24/3 14/25/3 15/26/3
f 7/27/2 12/28/2 5/29/2
f 7/27/2 8/4/2 11/6/2 12/28/2
f 3/30/8 4/31/8 8/32/8 7/33/8
f 1/34/1 9/35/1 3/36/1
f 9/35/1 10/1/1 4/3/1 3/36/1
f 16/37/7 15/38/3 14/39/3 13/40/7
f 12/28/2 11/6/2 15/41/2 16/42/2
f 10/1/1 9/35/1 13/43/1 14/44/1
f 9/45/7 12/46/7 16/47/7 13/48/7
f 17/49/9 44/50/9 43/51/10 19/52/10
f 19/52/10 43/51/10 45/53/11 20/54/11
f 20/54/11 45/53/11 46/55/12 21/56/12
f 21/56/12 46/55/12 47/57/13 22/58/13
f 22/58/13 47/57/13 48/59/14 23/60/14
f 23/60/14 48/59/14 49/61/15 24/62/15
f 24/62/15 49/61/15 50/63/16 25/64/16
f 25/64/16 50/63/16 44/50/9 17/49/9
f 26/65/13 36/66/13 35/67/14 28/68/14
f 28/68/14 35/67/14 37/69/15 29/70/15
f 29/70/15 37/69/15 38/71/16 30/72/16
f 30/72/16 38/71/16 39/73/9 31/74/9
f 31/74/9 39/73/9 40/75/10 32/76/10
f 32/76/10 40/75/10 41/77/11 33/78/11
f 33/78/11 41/77/11 42/79/12 34/80/12
f 34/80/12 42/79/12 36/66/13 26/65/13
f 27/81/4 35/82/17 36/83/18
f 27/81/4 37/84/19 35/82/17
f 27/81/4 38/85/20 37/84/19
f 27/81/4 39/86/21 38/85/20
f 27/81/4 40/87/22 39/86/21
f 27/81/4 41/88/23 40/87/22
f 27/81/4 42/89/24 41/88/23
f 27/81/4 36/83/18 42/89/24
f 18/90/4 43/91/22 44/92/21
f 18/90/4 45/93/23 43/91/22
f 18/90/4 46/94/24 45/93/23
f 18/90/4 47/95/18 46/94/24
f 18/90/4 48/96/17 47/95/18
f 18/90/4 49/97/19 48/96/17
f 18/90/4 50/98/20 49/97/19
f 18/90/4 44/92/21 50/98/20
f 51/99/9 78/100/9 77/101/10 53/102/10
f 53/102/10 77/101/10 79/103/11 54/104/11
f 54/104/11 79/103/11 80/105/12 55/106/12
f 55/106/12 80/105/12 81/107/13 56/108/13
f 56/108/13 81/107/13 82/109/14 57/110/14
f 57/110/14 82/109/14 83/111/15 58/112/15
f 58/112/15 83/111/15 84/113/16 59/114/16
f 59/114/16 84/113/16 78/100/9 51/99/9
f 60/115/13 70/116/13 69/117/14 62/118/14
f 62/118/14 69/117/14 71/119/15 63/120/15
f 63/120/15 71/119/15 72/121/16 64/122/16
f 64/122/16 72/121/16 73/123/9 65/124/9
f 65/124/9 73/123/9 74/125/10 66/126/10
f 66/126/10 74/125/10 75/127/11 67/128/11
f 67/128/11 75/127/11 76/129/12 68/130/12
f 68/130/12 76/129/12 70/116/13 60/115/13
f 61/131/4 69/132/17 70/133/18
f 61/131/4 71/134/19 69/132/17
f 61/131/4 72/135/20 71/134/19
f 61/131/4 73/136/21 72/135/20
f 61/131/4 74/137/22 73/136/21
f 61/131/4 75/138/23 74/137/22
f 61/131/4 76/139/24 75/138/23
f 61/131/4 70/133/18 76/139/24
f 52/140/4 77/141/22 78/142/21
f 52/140/4 79/143/23 77/141/22
f 52/140/4 80/144/24 79/143/23
f 52/140/4 81/145/18 80/144/24
f 52/140/4 82/146/17 81/145/18
f 52/140/4 83/147/19 82/146/17
f 52/140/4 84/148/20 83/147/19
f 52/140/4 78/142/21 84/148/20
