# Blender v3.4.1 OBJ File: 'Platformer_Pack_Export_FREE.blend'
# www.blender.org
mtllib heart_green.mtl
o heart_green
v -0.000000 0.184582 0.205815
v -0.000000 0.305370 0.098998
v -0.000000 0.305370 -0.098998
v -0.000000 0.184582 -0.205815
v -0.527989 0.118959 0.098720
v -0.476107 0.153644 0.174701
v -0.528026 0.188559 0.098551
v -0.528026 0.118729 -0.098551
v -0.527989 0.188329 -0.098721
v -0.476107 0.153644 -0.174701
v -0.217979 0.411771 -0.174701
v -0.252894 0.463691 -0.098551
v -0.183295 0.463653 -0.098720
v -0.183065 0.463691 0.098551
v -0.252664 0.463653 0.098720
v -0.217980 0.411771 0.174701
v 0.217979 0.411771 -0.174701
v 0.183064 0.463691 -0.098551
v 0.252664 0.463653 -0.098720
v 0.476107 0.153644 -0.174701
v 0.528026 0.188559 -0.098551
v 0.527989 0.118959 -0.098720
v 0.528026 0.118729 0.098551
v 0.527989 0.188329 0.098721
v 0.476107 0.153644 0.174701
v 0.183294 0.463653 0.098721
v 0.217979 0.411771 0.174701
v 0.252894 0.463691 0.098551
v -0.540033 0.195451 -0.000000
v -0.540032 0.111837 -0.000000
v -0.259786 0.475697 0.000000
v -0.176173 0.475697 0.000000
v 0.540032 0.111837 0.000000
v 0.540033 0.195451 0.000000
v 0.176173 0.475697 0.000000
v 0.259786 0.475697 0.000000
v -0.000000 0.321643 0.000000
v -0.480700 0.327273 -0.112043
v -0.391598 0.416403 -0.111979
v -0.410487 0.256942 -0.222173
v -0.321238 0.346176 -0.222155
v -0.480726 0.327299 0.111983
v -0.391573 0.416376 0.112039
v -0.321244 0.346173 0.222158
v -0.410491 0.256936 0.222170
v -0.403178 0.428100 -0.000000
v -0.492424 0.338877 -0.000000
v 0.480726 0.327299 -0.111983
v 0.391573 0.416377 -0.112039
v 0.321244 0.346173 -0.222158
v 0.410491 0.256936 -0.222170
v 0.410487 0.256942 0.222173
v 0.321238 0.346176 0.222155
v 0.391598 0.416403 0.111979
v 0.480700 0.327273 0.112043
v 0.403178 0.428100 0.000000
v 0.492424 0.338878 0.000000
v -0.479633 0.021812 0.098914
v -0.415080 -0.059125 0.099009
v -0.346604 0.009343 0.205829
v -0.419221 0.082597 0.194631
v -0.415080 -0.059126 -0.099009
v -0.479670 0.021786 -0.098859
v -0.419224 0.082600 -0.194630
v -0.346604 0.009343 -0.205829
v -0.074907 0.281419 -0.205826
v -0.146934 0.354887 -0.194630
v -0.086150 0.415299 -0.098915
v -0.086125 0.415336 0.098859
v -0.146938 0.354890 0.194629
v -0.074907 0.281419 0.205826
v 0.146938 0.354890 -0.194629
v 0.074907 0.281419 -0.205826
v 0.086124 0.415336 -0.098859
v 0.346604 0.009343 -0.205829
v 0.419221 0.082597 -0.194631
v 0.479633 0.021812 -0.098915
v 0.415080 -0.059125 -0.099009
v 0.415080 -0.059125 0.099009
v 0.479670 0.021786 0.098859
v 0.419224 0.082601 0.194630
v 0.346604 0.009343 0.205829
v 0.086150 0.415299 0.098915
v 0.074907 0.281419 0.205826
v 0.146934 0.354887 0.194630
v -0.489316 0.012315 -0.000000
v -0.424316 -0.068360 -0.000000
v -0.076653 0.424982 0.000000
v 0.489316 0.012315 0.000000
v 0.424316 -0.068360 0.000000
v 0.076653 0.424982 0.000000
v -0.255448 0.105639 -0.265237
v -0.330188 0.176671 -0.252753
v -0.240888 0.265968 -0.252719
v -0.167679 0.193455 -0.264957
v -0.167681 0.193453 0.264959
v -0.240892 0.265966 0.252721
v -0.330190 0.176667 0.252751
v -0.255450 0.105637 0.265236
v 0.167681 0.193453 -0.264959
v 0.240892 0.265966 -0.252721
v 0.330190 0.176667 -0.252751
v 0.255450 0.105637 -0.265236
v 0.255448 0.105639 0.265237
v 0.330188 0.176671 0.252753
v 0.240888 0.265968 0.252719
v 0.167679 0.193455 0.264957
v 0.053100 -0.231306 0.205817
v -0.053100 -0.231306 0.205817
v -0.052579 -0.354090 0.098999
v 0.052579 -0.354090 0.098999
v -0.053100 -0.231306 -0.205817
v 0.053100 -0.231306 -0.205817
v 0.052579 -0.354090 -0.098999
v -0.052579 -0.354090 -0.098999
v -0.052356 -0.370854 -0.000000
v 0.052356 -0.370854 -0.000000
v 0.053696 -0.076938 -0.259146
v -0.053696 -0.076938 -0.259146
v -0.000000 0.079551 -0.252400
v -0.053696 -0.076939 0.259146
v 0.053696 -0.076938 0.259146
v -0.000000 0.079551 0.252400
vt 0.469915 0.115766
vt 0.474313 0.129808
vt 0.478325 0.122953
vt 0.474586 0.103753
vt 0.454355 0.180823
vt 0.448861 0.169581
vt 0.456126 0.152007
vt 0.462339 0.167859
vt 0.454355 0.180823
vt 0.462339 0.167858
vt 0.456126 0.152007
vt 0.448862 0.169581
vt 0.430841 0.181527
vt 0.423345 0.222334
vt 0.420645 0.180823
vt 0.426138 0.169581
vt 0.423878 0.224707
vt 0.431573 0.183434
vt 0.400331 0.195373
vt 0.396675 0.136663
vt 0.395744 0.138070
vt 0.399425 0.197666
vt 0.469595 0.087757
vt 0.464300 0.101289
vt 0.441606 0.053728
vt 0.441566 0.029462
vt 0.396672 0.136708
vt 0.400329 0.195378
vt 0.426139 0.169581
vt 0.420645 0.180823
vt 0.423327 0.222327
vt 0.430839 0.181520
vt 0.417413 0.224707
vt 0.417946 0.222334
vt 0.407221 0.212988
vt 0.406326 0.215300
vt 0.396675 0.122953
vt 0.400687 0.129808
vt 0.395744 0.121545
vt 0.412661 0.167858
vt 0.418874 0.152007
vt 0.400687 0.129808
vt 0.405760 0.150223
vt 0.396672 0.122907
vt 0.478325 0.136663
vt 0.479256 0.138070
vt 0.475575 0.197667
vt 0.474669 0.195373
vt 0.457036 0.222327
vt 0.467777 0.212983
vt 0.417964 0.222327
vt 0.407223 0.212983
vt 0.441548 0.026149
vt 0.470309 0.085932
vt 0.464300 0.101289
vt 0.441606 0.053728
vt 0.441652 0.084237
vt 0.457252 0.120320
vt 0.437500 0.112919
vt 0.437500 0.089047
vt 0.431708 0.155061
vt 0.479256 0.121545
vt 0.475335 0.101876
vt 0.437500 0.115165
vt 0.450465 0.137676
vt 0.451122 0.224707
vt 0.451655 0.222334
vt 0.444159 0.181527
vt 0.443427 0.183434
vt 0.474313 0.129808
vt 0.469240 0.150223
vt 0.478328 0.136708
vt 0.474671 0.195378
vt 0.437500 0.089047
vt 0.437500 0.112919
vt 0.431708 0.155061
vt 0.469915 0.115767
vt 0.463031 0.134359
vt 0.437500 0.135922
vt 0.437500 0.159794
vt 0.443292 0.155061
vt 0.457054 0.222334
vt 0.467779 0.212988
vt 0.457587 0.224707
vt 0.437500 0.159794
vt 0.437500 0.135922
vt 0.443292 0.155061
vt 0.437500 0.115165
vt 0.468674 0.215300
vt 0.405405 0.087757
vt 0.410700 0.101289
vt 0.433394 0.053728
vt 0.433434 0.029462
vt 0.444161 0.181520
vt 0.451673 0.222327
vt 0.478328 0.122908
vt 0.410700 0.101289
vt 0.433394 0.053728
vt 0.433348 0.084237
vt 0.417748 0.120320
vt 0.400411 0.103748
vt 0.405085 0.115767
vt 0.433452 0.026149
vt 0.404691 0.085932
vt 0.469595 0.087757
vt 0.441566 0.029462
vt 0.437500 0.068290
vt 0.399665 0.101876
vt 0.469240 0.150222
vt 0.400414 0.103753
vt 0.424535 0.137676
vt 0.405760 0.150222
vt 0.405085 0.115766
vt 0.405405 0.087757
vt 0.433434 0.029462
vt 0.474589 0.103748
vt 0.412661 0.167859
vt 0.418874 0.152007
vt 0.417748 0.120320
vt 0.433348 0.084237
vt 0.411969 0.134359
vt 0.411969 0.134358
vt 0.437500 0.068290
vt 0.463031 0.134358
vt 0.441652 0.084237
vt 0.457252 0.120320
vt 0.450465 0.137676
vt 0.424535 0.137676
vt 0.437500 0.116135
vt 0.437500 0.163010
vn 0.5311 -0.2979 -0.7932
vn 0.6850 -0.0791 -0.7242
vn 0.8993 -0.2229 -0.3764
vn 0.7664 -0.4974 -0.4064
vn -0.0790 0.6851 0.7242
vn -0.3024 0.5308 0.7917
vn -0.0175 0.2768 0.9608
vn 0.2165 0.5060 0.8349
vn -0.0791 0.6850 -0.7242
vn 0.2165 0.5059 -0.8350
vn -0.0175 0.2768 -0.9608
vn -0.3024 0.5308 -0.7917
vn 0.5795 0.7195 0.3827
vn 0.2236 0.8994 0.3757
vn 0.0791 0.6850 0.7242
vn 0.3024 0.5308 0.7917
vn 0.2369 0.9715 -0.0002
vn 0.6400 0.7684 -0.0002
vn -0.7797 0.4736 -0.4095
vn -0.9220 0.1425 -0.3600
vn -0.9866 0.1634 -0.0001
vn -0.8490 0.5283 -0.0001
vn 0.6465 -0.6422 0.4117
vn 0.4282 -0.4063 0.8072
vn 0.2067 -0.5151 0.8318
vn 0.2926 -0.8447 0.4481
vn -0.9221 0.1431 0.3594
vn -0.7797 0.4738 0.4094
vn 0.3024 0.5308 -0.7917
vn 0.0790 0.6851 -0.7242
vn 0.2229 0.8993 -0.3764
vn 0.5794 0.7195 -0.3828
vn -0.1634 0.9866 0.0001
vn -0.1431 0.9221 -0.3594
vn -0.4736 0.7798 -0.4094
vn -0.5282 0.8491 0.0001
vn -0.8993 -0.2229 0.3764
vn -0.6850 -0.0791 0.7242
vn -0.9715 -0.2369 0.0002
vn -0.2165 0.5059 0.8350
vn 0.0175 0.2768 0.9608
vn -0.6850 -0.0791 -0.7242
vn -0.5058 0.2166 -0.8350
vn -0.8994 -0.2236 -0.3757
vn 0.9220 0.1425 0.3600
vn 0.9866 0.1634 0.0001
vn 0.8490 0.5283 0.0001
vn 0.7797 0.4736 0.4095
vn 0.1425 0.9220 -0.3600
vn 0.4735 0.7798 -0.4095
vn -0.1425 0.9220 0.3600
vn -0.4735 0.7798 0.4095
vn 0.3237 -0.9462 -0.0000
vn 0.7096 -0.7046 -0.0000
vn 0.4282 -0.4063 -0.8072
vn 0.2067 -0.5151 -0.8318
vn 0.0870 -0.1932 -0.9773
vn 0.1677 -0.1155 -0.9790
vn 0.7249 0.5601 -0.4010
vn 0.5230 0.4045 -0.7503
vn 0.4541 0.4500 -0.7690
vn 0.9715 -0.2369 -0.0002
vn 0.8402 -0.5422 -0.0002
vn 0.0000 0.1177 -0.9931
vn -0.1118 0.1845 -0.9764
vn -0.2369 0.9715 0.0002
vn -0.2236 0.8994 -0.3757
vn -0.5795 0.7195 -0.3827
vn -0.6400 0.7684 0.0002
vn 0.6850 -0.0791 0.7242
vn 0.5058 0.2166 0.8350
vn 0.9221 0.1431 -0.3594
vn 0.7797 0.4738 -0.4094
vn 0.5230 0.4045 0.7503
vn 0.7249 0.5601 0.4010
vn 0.4541 0.4500 0.7690
vn 0.5311 -0.2979 0.7932
vn 0.2761 -0.0177 0.9610
vn -0.5230 0.4045 -0.7503
vn -0.7249 0.5601 -0.4010
vn -0.4541 0.4500 -0.7690
vn 0.1431 0.9221 0.3594
vn 0.4736 0.7798 0.4094
vn 0.1634 0.9866 -0.0001
vn -0.7249 0.5601 0.4010
vn -0.5230 0.4045 0.7503
vn -0.4541 0.4500 0.7690
vn -0.0000 0.1177 0.9931
vn 0.5282 0.8491 -0.0001
vn -0.6465 -0.6422 -0.4117
vn -0.4282 -0.4063 -0.8072
vn -0.2067 -0.5151 -0.8318
vn -0.2926 -0.8447 -0.4481
vn -0.5794 0.7195 0.3828
vn -0.2229 0.8993 0.3764
vn 0.8994 -0.2236 0.3757
vn -0.4282 -0.4063 0.8072
vn -0.2067 -0.5151 0.8318
vn -0.0870 -0.1932 0.9773
vn -0.1677 -0.1155 0.9790
vn -0.7664 -0.4976 -0.4062
vn -0.5311 -0.2979 -0.7932
vn -0.3237 -0.9462 -0.0000
vn -0.7096 -0.7046 0.0000
vn 0.6466 -0.6422 -0.4117
vn 0.2926 -0.8447 -0.4481
vn -0.8402 -0.5422 0.0002
vn 0.5059 0.2165 -0.8350
vn -0.7664 -0.4974 0.4064
vn 0.1118 0.1845 0.9764
vn -0.5059 0.2165 0.8350
vn -0.5311 -0.2979 0.7932
vn -0.6466 -0.6422 0.4117
vn -0.2926 -0.8447 0.4481
vn 0.7664 -0.4976 0.4062
vn -0.2165 0.5060 -0.8349
vn 0.0175 0.2768 -0.9608
vn -0.1677 -0.1155 -0.9790
vn -0.0870 -0.1932 -0.9773
vn -0.2761 -0.0177 -0.9610
vn -0.2761 -0.0177 0.9610
vn 0.2761 -0.0177 -0.9610
vn 0.0870 -0.1932 0.9773
vn 0.1677 -0.1155 0.9790
vn -0.1118 0.1845 0.9764
vn 0.1118 0.1845 -0.9764
vn 0.7949 0.6068 -0.0001
vn -0.7949 0.6068 0.0001
usemtl platformer
s 1
f 76/1/1 20/2/2 22/3/3 77/4/4
f 27/5/5 85/6/6 106/7/7 53/8/8
f 17/9/9 50/10/10 101/11/11 72/12/12
f 69/13/13 14/14/14 16/15/15 70/16/16
f 32/17/17 14/14/14 69/13/13 88/18/18
f 38/19/19 9/20/20 29/21/21 47/22/22
f 79/23/23 82/24/24 108/25/25 111/26/26
f 7/27/27 42/28/28 47/22/22 29/21/21
f 67/29/29 11/30/30 13/31/31 68/32/32
f 13/31/31 32/17/17 88/18/18 68/32/32
f 31/33/33 12/34/34 39/35/35 46/36/36
f 5/37/37 6/38/38 7/27/27
f 7/27/27 29/21/21 30/39/39 5/37/37
f 70/16/16 16/15/15 44/40/40 97/41/41
f 10/42/42 9/20/20 38/19/19 40/43/43
f 29/21/21 9/20/20 8/44/44 30/39/39
f 24/45/45 34/46/46 57/47/47 55/48/48
f 9/20/20 10/42/42 8/44/44
f 17/9/9 19/49/49 49/50/50 50/10/10
f 15/51/51 31/33/33 46/36/36 43/52/52
f 117/53/53 90/54/54 79/23/23 111/26/26
f 75/55/55 113/56/56 118/57/57 103/58/58
f 3/59/59 4/60/60 66/61/61
f 11/30/30 12/34/34 13/31/31
f 12/34/34 31/33/33 32/17/17 13/31/31
f 77/4/4 22/3/3 33/62/62 89/63/63
f 103/58/58 118/57/57 120/64/64 100/65/65
f 35/66/66 18/67/67 74/68/68 91/69/69
f 31/33/33 15/51/51 14/14/14 32/17/17
f 15/51/51 16/15/15 14/14/14
f 25/70/70 24/45/45 55/48/48 52/71/71
f 34/46/46 21/72/72 48/73/73 57/47/47
f 1/74/74 2/75/75 71/76/76
f 81/77/77 25/70/70 52/71/71 105/78/78
f 4/79/79 3/80/80 73/81/81
f 28/82/82 27/5/5 53/8/8 54/83/83
f 17/9/9 18/67/67 19/49/49
f 18/67/67 35/66/66 36/84/84 19/49/49
f 16/15/15 15/51/51 43/52/52 44/40/40
f 2/85/85 1/86/86 84/87/87
f 1/86/86 123/88/88 84/87/87
f 36/84/84 28/82/82 54/83/83 56/89/89
f 62/90/90 65/91/91 112/92/92 115/93/93
f 20/2/2 21/72/72 22/3/3
f 33/62/62 22/3/3 21/72/72 34/46/46
f 83/94/94 26/95/95 35/66/66 91/69/69
f 23/96/96 33/62/62 34/46/46 24/45/45
f 24/45/45 25/70/70 23/96/96
f 60/97/97 109/98/98 121/99/99 99/100/100
f 63/101/101 8/44/44 10/42/42 64/102/102
f 4/79/79 73/81/81 120/64/64
f 62/90/90 115/93/93 116/103/103 87/104/104
f 75/55/55 78/105/105 114/106/106 113/56/56
f 26/95/95 27/5/5 28/82/82
f 35/66/66 26/95/95 28/82/82 36/84/84
f 4/60/60 120/107/64 66/61/61
f 30/39/39 8/44/44 63/101/101 86/108/107
f 21/72/72 20/2/2 51/109/108 48/73/73
f 85/6/6 27/5/5 26/95/95 83/94/94
f 86/108/107 58/110/109 5/37/37 30/39/39
f 74/68/68 18/67/67 17/9/9 72/12/12
f 99/100/100 121/99/99 123/88/88 96/111/110
f 7/27/27 6/38/38 45/112/111 42/28/28
f 58/110/109 61/113/112 6/38/38 5/37/37
f 59/114/113 87/104/104 116/103/103 110/115/114
f 78/105/105 90/54/54 117/53/53 114/106/106
f 80/116/115 23/96/96 25/70/70 81/77/77
f 12/34/34 11/30/30 41/117/116 39/35/35
f 41/117/116 11/30/30 67/29/29 94/118/117
f 92/119/118 119/120/119 112/92/92 65/91/91
f 64/102/102 10/42/42 40/43/43 93/121/120
f 33/62/62 23/96/96 80/116/115 89/63/63
f 45/112/111 6/38/38 61/113/112 98/122/121
f 49/50/50 19/49/49 36/84/84 56/89/89
f 1/74/74 71/76/76 123/123/88
f 41/117/116 94/118/117 93/121/120 40/43/43
f 51/109/108 102/124/122 101/11/11 50/10/10
f 105/78/78 52/71/71 53/8/8 106/7/7
f 43/52/52 46/36/36 47/22/22 42/28/28
f 122/125/123 104/126/124 107/127/125 123/88/88
f 45/112/111 98/122/121 97/41/41 44/40/40
f 44/40/40 43/52/52 42/28/28 45/112/111
f 40/43/43 38/19/19 39/35/35 41/117/116
f 38/19/19 47/22/22 46/36/36 39/35/35
f 49/50/50 56/89/89 57/47/47 48/73/73
f 55/48/48 57/47/47 56/89/89 54/83/83
f 119/120/119 92/119/118 95/128/126 120/64/64
f 54/83/83 53/8/8 52/71/71 55/48/48
f 50/10/10 49/50/50 48/73/73 51/109/108
f 51/109/108 20/2/2 76/1/1 102/124/122
f 59/114/113 60/97/97 61/113/112 58/110/109
f 65/91/91 62/90/90 63/101/101 64/102/102
f 66/61/61 67/29/29 68/32/32
f 71/76/76 2/75/75 69/13/13
f 73/81/81 3/80/80 74/68/68
f 78/105/105 75/55/55 76/1/1 77/4/4
f 82/24/24 79/23/23 80/116/115 81/77/77
f 84/87/87 85/6/6 83/94/94
f 87/104/104 59/114/113 58/110/109 86/108/107
f 37/129/127 3/59/59 68/32/32 88/18/18
f 90/54/54 78/105/105 77/4/4 89/63/63
f 37/130/128 2/85/85 83/94/94 91/69/69
f 62/90/90 87/104/104 86/108/107 63/101/101
f 2/75/75 37/129/127 88/18/18 69/13/13
f 79/23/23 90/54/54 89/63/63 80/116/115
f 3/80/80 37/130/128 91/69/69 74/68/68
f 101/11/11 102/124/122 103/58/58 100/65/65
f 93/121/120 94/118/117 95/128/126 92/119/118
f 97/41/41 98/122/121 99/100/100 96/111/110
f 105/78/78 106/7/7 107/127/125 104/126/124
f 102/124/122 76/1/1 75/55/55 103/58/58
f 94/118/117 67/29/29 66/61/61 95/128/126
f 64/102/102 93/121/120 92/119/118 65/91/91
f 72/12/12 101/11/11 100/65/65 73/81/81
f 70/16/16 97/41/41 96/111/110 71/76/76
f 98/122/121 61/113/112 60/97/97 99/100/100
f 106/7/7 85/6/6 84/87/87 107/127/125
f 81/77/77 105/78/78 104/126/124 82/24/24
f 82/24/24 104/126/124 122/125/123 108/25/25
f 71/76/76 96/111/110 123/88/88
f 123/88/88 107/127/125 84/87/87
f 73/81/81 100/65/65 120/64/64
f 120/64/64 95/128/126 66/61/61
f 112/92/92 113/56/56 114/106/106 115/93/93
f 110/115/114 116/103/103 117/53/53 111/26/26
f 117/53/53 116/103/103 115/93/93 114/106/106
f 120/64/64 118/57/57 119/120/119
f 119/120/119 118/57/57 113/56/56 112/92/92
f 110/115/114 111/26/26 108/25/25 109/98/98
f 122/125/123 121/99/99 109/98/98 108/25/25
f 109/98/98 60/97/97 59/114/113 110/115/114
f 123/88/88 121/99/99 122/125/123
f 70/16/16 71/76/76 69/13/13
f 2/85/85 84/87/87 83/94/94
f 3/59/59 66/61/61 68/32/32
f 72/12/12 73/81/81 74/68/68
