# Blender v3.4.1 OBJ File: 'Platformer_Pack_Export_FREE.blend'
# www.blender.org
mtllib lever_wall_base_B_green_lever_wall_B_green.mtl
o lever_wall_B_green
v 0.200000 0.071958 0.150000
v 0.199999 0.071958 0.850000
v 0.250882 0.050882 0.150000
v 0.250882 0.050882 0.850000
v 0.271959 -0.000000 0.150000
v 0.271958 -0.000000 0.850000
v 0.250882 -0.050882 0.150000
v 0.250882 -0.050883 0.850000
v 0.200000 -0.071959 0.150000
v 0.199999 -0.071959 0.850000
v 0.149118 -0.050882 0.150000
v 0.149117 -0.050883 0.850000
v 0.128041 -0.000000 0.150000
v 0.128041 -0.000000 0.850000
v 0.149118 0.050882 0.150000
v 0.149117 0.050882 0.850000
v -0.200000 0.071958 0.150000
v -0.200001 0.071958 0.850000
v -0.149118 0.050882 0.150000
v -0.149118 0.050882 0.850000
v -0.128041 -0.000000 0.150000
v -0.128042 -0.000000 0.850000
v -0.149118 -0.050882 0.150000
v -0.149118 -0.050883 0.850000
v -0.200000 -0.071959 0.150000
v -0.200001 -0.071959 0.850000
v -0.250882 -0.050882 0.150000
v -0.250883 -0.050883 0.850000
v -0.271959 -0.000000 0.150000
v -0.271959 -0.000000 0.850000
v -0.250882 0.050882 0.150000
v -0.250883 0.050882 0.850000
v -0.375000 -0.000000 0.734494
v -0.347721 -0.000000 0.700000
v 0.375000 -0.000000 0.734494
v 0.347720 -0.000000 0.700000
v -0.375000 -0.057753 0.749968
v -0.347721 -0.075000 0.720096
v 0.375000 -0.057753 0.749968
v 0.347720 -0.075000 0.720096
v -0.375000 -0.100031 0.792247
v -0.347721 -0.129904 0.774999
v 0.375000 -0.100031 0.792247
v 0.347720 -0.129904 0.774999
v -0.375000 -0.115506 0.850000
v -0.347721 -0.150000 0.850000
v 0.375000 -0.115506 0.850000
v 0.347720 -0.150000 0.850000
v -0.375000 -0.100031 0.907753
v -0.347721 -0.129904 0.925000
v 0.375000 -0.100031 0.907753
v 0.347720 -0.129904 0.925000
v -0.375000 -0.057753 0.950031
v -0.347721 -0.075000 0.979903
v 0.375000 -0.057753 0.950031
v 0.347720 -0.075000 0.979903
v -0.375000 -0.000000 0.965506
v -0.347721 -0.000000 1.000000
v 0.375000 -0.000000 0.965506
v 0.347720 -0.000000 1.000000
v -0.375000 0.057753 0.950031
v -0.347721 0.075000 0.979903
v 0.375000 0.057753 0.950031
v 0.347720 0.075000 0.979903
v -0.375000 0.100031 0.907753
v -0.347721 0.129904 0.925000
v 0.375000 0.100031 0.907753
v 0.347720 0.129904 0.925000
v -0.375000 0.115506 0.850000
v -0.347721 0.150000 0.850000
v 0.375000 0.115506 0.850000
v 0.347720 0.150000 0.850000
v -0.375000 0.100031 0.792247
v -0.347721 0.129904 0.775000
v 0.375000 0.100031 0.792247
v 0.347720 0.129904 0.775000
v -0.375000 0.057753 0.749968
v -0.347721 0.075000 0.720096
v 0.375000 0.057753 0.749968
v 0.347720 0.075000 0.720096
vt 0.329930 0.862277
vt 0.329930 0.975191
vt 0.331544 0.975191
vt 0.331544 0.862277
vt 0.332213 0.975191
vt 0.332213 0.862277
vt 0.331544 0.975191
vt 0.331544 0.862277
vt 0.329930 0.975191
vt 0.329930 0.862277
vt 0.328316 0.975191
vt 0.328316 0.862277
vt 0.327647 0.975191
vt 0.327647 0.862277
vt 0.328316 0.975191
vt 0.328316 0.862277
vt 0.329930 0.862277
vt 0.329930 0.975191
vt 0.331544 0.975191
vt 0.331544 0.862277
vt 0.332213 0.975191
vt 0.332213 0.862277
vt 0.331544 0.975191
vt 0.331544 0.862277
vt 0.329930 0.975191
vt 0.329930 0.862277
vt 0.328316 0.975191
vt 0.328316 0.862277
vt 0.327647 0.975191
vt 0.327647 0.862277
vt 0.328316 0.975191
vt 0.328316 0.862277
vt 0.073922 0.568452
vt 0.085938 0.568452
vt 0.085938 0.563387
vt 0.073922 0.563387
vt 0.073922 0.582292
vt 0.085938 0.582292
vt 0.085938 0.601196
vt 0.073922 0.601196
vt 0.085938 0.620101
vt 0.073922 0.620101
vt 0.085938 0.633940
vt 0.073922 0.633940
vt 0.085938 0.639005
vt 0.073922 0.639005
vt 0.085938 0.633940
vt 0.073922 0.633940
vt 0.085938 0.620101
vt 0.073922 0.620101
vt 0.085938 0.601196
vt 0.073922 0.601196
vt 0.085938 0.582292
vt 0.073922 0.582292
vt 0.073922 0.568452
vt 0.085938 0.568452
vt 0.087654 0.575982
vt 0.087654 0.572082
vt 0.087654 0.575982
vt 0.087654 0.586639
vt 0.087654 0.601196
vt 0.087654 0.615753
vt 0.087654 0.626410
vt 0.087654 0.630311
vt 0.087654 0.626410
vt 0.087654 0.615753
vt 0.087654 0.601196
vt 0.087654 0.586639
vt 0.073922 0.610262
vt 0.073922 0.615327
vt 0.072206 0.622857
vt 0.072206 0.618957
vt 0.085938 0.615327
vt 0.085938 0.610262
vt 0.087654 0.618957
vt 0.087654 0.622857
vt 0.073922 0.629167
vt 0.072206 0.633514
vt 0.085938 0.629167
vt 0.087654 0.633514
vt 0.073922 0.648071
vt 0.072206 0.648071
vt 0.085938 0.648071
vt 0.087654 0.648071
vt 0.073922 0.666976
vt 0.072206 0.662628
vt 0.085938 0.666976
vt 0.087654 0.662628
vt 0.073922 0.680815
vt 0.072206 0.673285
vt 0.085938 0.680815
vt 0.087654 0.673285
vt 0.073922 0.685880
vt 0.072206 0.677186
vt 0.085938 0.685880
vt 0.087654 0.677186
vt 0.073922 0.680815
vt 0.072206 0.673285
vt 0.085938 0.680815
vt 0.087654 0.673285
vt 0.073922 0.666976
vt 0.072206 0.662628
vt 0.085938 0.666976
vt 0.087654 0.662628
vt 0.073922 0.648071
vt 0.072206 0.648071
vt 0.085938 0.648071
vt 0.087654 0.648071
vt 0.073922 0.629167
vt 0.072206 0.633514
vt 0.085938 0.629167
vt 0.087654 0.633514
vt 0.073922 0.615327
vt 0.072206 0.622857
vt 0.085938 0.615327
vt 0.087654 0.622857
vt 0.072206 0.572082
vt 0.072206 0.575982
vt 0.072206 0.586639
vt 0.072206 0.601196
vt 0.072206 0.615753
vt 0.072206 0.626410
vt 0.072206 0.630311
vt 0.072206 0.626410
vt 0.072206 0.615753
vt 0.072206 0.601196
vt 0.072206 0.586639
vt 0.072206 0.575982
vn 0.3827 0.9239 0.0000
vn 0.7071 0.7071 0.0000
vn 1.0000 0.0000 0.0000
vn 0.9239 -0.3827 0.0000
vn 0.3827 -0.9239 0.0000
vn -0.3827 -0.9239 -0.0000
vn -0.7071 -0.7071 -0.0000
vn -1.0000 -0.0000 -0.0000
vn -0.9239 0.3827 -0.0000
vn -0.3827 0.9239 -0.0000
vn 0.7071 -0.7071 0.0000
vn -0.9239 -0.3827 -0.0000
vn 0.0000 0.5000 -0.8660
vn -0.0000 0.0000 -1.0000
vn -0.0000 -0.8660 -0.5000
vn -0.0000 -1.0000 0.0000
vn -0.0000 -0.8660 0.5000
vn -0.0000 -0.5000 0.8660
vn -0.0000 0.0000 1.0000
vn -0.0000 0.5000 0.8660
vn -0.0000 0.8660 0.5000
vn 0.0000 1.0000 0.0000
vn 0.0000 0.8660 -0.5000
vn -0.0000 -0.5000 -0.8660
vn -0.7844 0.0000 -0.6203
vn -0.7844 -0.3102 -0.5372
vn 0.7844 -0.3102 -0.5372
vn 0.7844 -0.0000 -0.6203
vn -0.7844 -0.5372 -0.3102
vn 0.7844 -0.5372 -0.3102
vn -0.7844 -0.6203 0.0000
vn 0.7844 -0.6203 -0.0000
vn -0.7844 -0.5372 0.3102
vn 0.7844 -0.5372 0.3102
vn -0.7844 -0.3102 0.5372
vn 0.7844 -0.3102 0.5372
vn -0.7844 -0.0000 0.6203
vn 0.7844 -0.0000 0.6203
vn -0.7844 0.3102 0.5372
vn 0.7844 0.3102 0.5372
vn -0.7844 0.5372 0.3102
vn 0.7844 0.5372 0.3102
vn -0.7844 0.6203 0.0000
vn 0.7844 0.6203 0.0000
vn -0.7844 0.5372 -0.3102
vn 0.7844 0.5372 -0.3102
vn -0.7844 0.3102 -0.5372
vn 0.7844 0.3102 -0.5372
usemtl platformer
s 1
f 1/1/1 2/2/1 4/3/2 3/4/2
f 3/4/2 4/3/2 6/5/3 5/6/3
f 5/6/3 6/5/3 8/7/4 7/8/4
f 7/8/5 8/7/5 10/9/5 9/10/5
f 9/10/6 10/9/6 12/11/7 11/12/7
f 11/12/7 12/11/7 14/13/8 13/14/8
f 13/14/8 14/13/8 16/15/9 15/16/9
f 15/16/10 16/15/10 2/2/10 1/1/10
f 17/17/1 18/18/1 20/19/2 19/20/2
f 19/20/2 20/19/2 22/21/3 21/22/3
f 21/22/3 22/21/3 24/23/11 23/24/11
f 23/24/11 24/23/11 26/25/5 25/26/5
f 25/26/6 26/25/6 28/27/7 27/28/7
f 27/28/7 28/27/7 30/29/12 29/30/12
f 29/30/9 30/29/9 32/31/9 31/32/9
f 31/32/10 32/31/10 18/18/10 17/17/10
f 78/33/13 80/34/13 36/35/14 34/36/14
f 42/37/15 44/38/15 48/39/16 46/40/16
f 46/40/16 48/39/16 52/41/17 50/42/17
f 50/42/17 52/41/17 56/43/18 54/44/18
f 54/44/18 56/43/18 60/45/19 58/46/19
f 58/46/19 60/45/19 64/47/20 62/48/20
f 62/48/20 64/47/20 68/49/21 66/50/21
f 66/50/21 68/49/21 72/51/22 70/52/22
f 70/52/22 72/51/22 76/53/23 74/54/23
f 74/54/23 76/53/23 80/34/13 78/33/13
f 38/55/24 40/56/24 44/38/15 42/37/15
f 39/57/3 35/58/3 79/59/3 75/60/3 71/61/3 67/62/3 63/63/3 59/64/3 55/65/3 51/66/3 47/67/3 43/68/3
f 34/36/14 36/35/14 40/56/24 38/55/24
f 34/69/25 38/70/26 37/71/26 33/72/25
f 40/73/27 36/74/28 35/75/28 39/76/27
f 38/70/26 42/77/29 41/78/29 37/71/26
f 44/79/30 40/73/27 39/76/27 43/80/30
f 42/77/29 46/81/31 45/82/31 41/78/29
f 48/83/32 44/79/30 43/80/30 47/84/32
f 46/81/31 50/85/33 49/86/33 45/82/31
f 52/87/34 48/83/32 47/84/32 51/88/34
f 50/85/33 54/89/35 53/90/35 49/86/33
f 56/91/36 52/87/34 51/88/34 55/92/36
f 54/89/35 58/93/37 57/94/37 53/90/35
f 60/95/38 56/91/36 55/92/36 59/96/38
f 58/93/37 62/97/39 61/98/39 57/94/37
f 64/99/40 60/95/38 59/96/38 63/100/40
f 62/97/39 66/101/41 65/102/41 61/98/39
f 68/103/42 64/99/40 63/100/40 67/104/42
f 66/101/41 70/105/43 69/106/43 65/102/41
f 72/107/44 68/103/42 67/104/42 71/108/44
f 70/105/43 74/109/45 73/110/45 69/106/43
f 76/111/46 72/107/44 71/108/44 75/112/46
f 74/109/45 78/113/47 77/114/47 73/110/45
f 80/115/48 76/111/46 75/112/46 79/116/48
f 78/113/47 34/69/25 33/72/25 77/114/47
f 36/74/28 80/115/48 79/116/48 35/75/28
f 33/117/8 37/118/8 41/119/8 45/120/8 49/121/8 53/122/8 57/123/8 61/124/8 65/125/8 69/126/8 73/127/8 77/128/8
