# Blender v3.4.1 OBJ File: 'Platformer_Pack_Export_FREE.blend'
# www.blender.org
mtllib lever_wall_base_B_green.mtl
o lever_wall_base_B_green
v -0.282798 -0.446782 0.400000
v -0.282798 0.446782 0.400000
v -0.117202 -0.446782 0.400000
v -0.117202 0.446782 0.400000
v -0.282798 -0.358056 0.300000
v -0.282798 0.358056 0.300000
v -0.117202 0.358056 0.300000
v -0.117202 -0.358056 0.300000
v -0.370570 -0.470569 -0.000000
v -0.370570 0.470569 0.000000
v 0.370570 -0.470569 -0.000000
v 0.370570 0.470569 0.000000
v -0.420299 -0.520299 0.400000
v -0.420299 0.520299 0.400000
v 0.420299 0.520299 0.400000
v 0.420299 -0.520299 0.400000
v -0.500000 -0.482535 0.338636
v -0.479081 -0.491199 0.382027
v -0.382535 -0.600000 0.338636
v -0.391199 -0.579081 0.382027
v -0.465595 -0.565595 0.338636
v -0.453283 -0.553283 0.382027
v -0.382535 0.600000 0.338636
v -0.391199 0.579081 0.382027
v -0.500000 0.482535 0.338636
v -0.479081 0.491199 0.382027
v -0.465595 0.565595 0.338636
v -0.453283 0.553283 0.382027
v 0.500000 0.482535 0.338636
v 0.479081 0.491199 0.382027
v 0.382535 0.600000 0.338636
v 0.391199 0.579081 0.382027
v 0.465595 0.565595 0.338636
v 0.453283 0.553283 0.382027
v 0.382535 -0.600000 0.338636
v 0.391199 -0.579081 0.382027
v 0.500000 -0.482535 0.338636
v 0.479081 -0.491199 0.382027
v 0.465595 -0.565595 0.338636
v 0.453283 -0.553283 0.382027
v -0.465595 -0.565595 -0.000000
v -0.382535 -0.600000 -0.000000
v -0.500000 -0.482535 -0.000000
v -0.382535 0.600000 0.000000
v -0.465595 0.565595 0.000000
v -0.500000 0.482535 0.000000
v 0.382535 -0.600000 -0.000000
v 0.465595 -0.565595 -0.000000
v 0.500000 -0.482535 -0.000000
v 0.465595 0.565595 0.000000
v 0.382535 0.600000 0.000000
v 0.500000 0.482535 0.000000
v 0.117202 -0.446782 0.400000
v 0.117202 0.446782 0.400000
v 0.282798 -0.446782 0.400000
v 0.282798 0.446782 0.400000
v 0.117202 -0.358056 0.300000
v 0.117202 0.358056 0.300000
v 0.282798 0.358056 0.300000
v 0.282798 -0.358056 0.300000
vt 0.437952 0.081872
vt 0.416798 0.081872
vt 0.416798 0.169126
vt 0.437952 0.169126
vt 0.416456 0.069872
vt 0.416456 0.069872
vt 0.414085 0.073062
vt 0.414085 0.073062
vt 0.419303 0.037202
vt 0.424029 0.037202
vt 0.424029 0.045428
vt 0.419303 0.045428
vt 0.419303 0.084077
vt 0.419303 0.166921
vt 0.415378 0.173737
vt 0.415378 0.077261
vt 0.414085 0.177936
vt 0.414085 0.177936
vt 0.413103 0.170236
vt 0.413103 0.170236
vt 0.438294 0.181126
vt 0.438294 0.181126
vt 0.440664 0.177936
vt 0.440664 0.177936
vt 0.424029 0.111820
vt 0.419303 0.111820
vt 0.419303 0.120046
vt 0.424029 0.120046
vt 0.413103 0.080763
vt 0.413103 0.080763
vt 0.438294 0.069872
vt 0.438294 0.069872
vt 0.416456 0.181126
vt 0.416456 0.181126
vt 0.441646 0.170236
vt 0.441646 0.170236
vt 0.440664 0.073062
vt 0.440664 0.073062
vt 0.441646 0.080763
vt 0.441646 0.080763
vt 0.413103 0.112013
vt 0.414085 0.104312
vt 0.414437 0.105453
vt 0.413700 0.111209
vt 0.413700 0.079959
vt 0.414437 0.074203
vt 0.416456 0.101122
vt 0.416209 0.103062
vt 0.416209 0.071812
vt 0.416456 0.212376
vt 0.414085 0.209186
vt 0.414437 0.208045
vt 0.416209 0.210437
vt 0.416209 0.179187
vt 0.414437 0.176795
vt 0.413103 0.201486
vt 0.413700 0.202289
vt 0.413700 0.171039
vt 0.441646 0.201486
vt 0.440664 0.209186
vt 0.440313 0.208045
vt 0.441049 0.202289
vt 0.441049 0.171039
vt 0.440313 0.176795
vt 0.439371 0.173737
vt 0.438294 0.212376
vt 0.438541 0.210437
vt 0.438541 0.179187
vt 0.438294 0.101122
vt 0.440664 0.104312
vt 0.440313 0.105453
vt 0.438541 0.103062
vt 0.438541 0.071812
vt 0.440313 0.074203
vt 0.439371 0.077261
vt 0.441646 0.112013
vt 0.441049 0.111209
vt 0.441049 0.079959
vt 0.430720 0.037202
vt 0.435447 0.037202
vt 0.435447 0.045428
vt 0.430720 0.045428
vt 0.430720 0.120046
vt 0.430720 0.111820
vt 0.435447 0.120046
vt 0.435447 0.111820
vt 0.424029 0.166921
vt 0.424029 0.084077
vt 0.430720 0.084077
vt 0.430720 0.166921
vt 0.435447 0.166921
vt 0.435447 0.084077
vn -0.0000 0.0000 -1.0000
vn -0.1951 -0.9808 0.0000
vn -0.7071 -0.7071 0.0000
vn 0.0000 0.7480 0.6637
vn 0.0000 0.0000 1.0000
vn -0.1526 0.1526 0.9764
vn -0.1526 -0.1526 0.9764
vn -0.7071 0.7071 0.0000
vn -0.9808 0.1951 0.0000
vn 0.1951 0.9808 0.0000
vn 0.7071 0.7071 0.0000
vn 1.0000 -0.0000 0.0000
vn 0.0000 -0.7480 0.6637
vn -1.0000 0.0000 0.0000
vn -0.9808 -0.1951 0.0000
vn 0.1951 -0.9808 0.0000
vn -0.1951 0.9808 0.0000
vn 0.9808 0.1951 0.0000
vn 0.7071 -0.7071 0.0000
vn 0.9808 -0.1951 0.0000
vn -0.9017 -0.1515 0.4049
vn -0.6565 -0.6565 0.3715
vn -0.8961 -0.2111 0.3904
vn -0.3104 -0.0405 0.9497
vn -0.2542 -0.2542 0.9331
vn -0.1515 -0.9017 0.4049
vn -0.2111 -0.8961 0.3904
vn -0.0405 -0.3104 0.9497
vn -0.1515 0.9017 0.4049
vn -0.6565 0.6565 0.3715
vn -0.2111 0.8961 0.3904
vn -0.0405 0.3104 0.9497
vn -0.2542 0.2542 0.9331
vn -0.9017 0.1515 0.4049
vn -0.8961 0.2111 0.3904
vn -0.3104 0.0405 0.9497
vn 0.9017 0.1515 0.4049
vn 0.6565 0.6565 0.3715
vn 0.8961 0.2111 0.3904
vn 0.3104 0.0405 0.9497
vn 0.2542 0.2542 0.9331
vn 0.1526 0.1526 0.9764
vn 0.1515 0.9017 0.4049
vn 0.2111 0.8961 0.3904
vn 0.0405 0.3104 0.9497
vn 0.1515 -0.9017 0.4049
vn 0.6565 -0.6565 0.3715
vn 0.2111 -0.8961 0.3904
vn 0.0405 -0.3104 0.9497
vn 0.2542 -0.2542 0.9331
vn 0.1526 -0.1526 0.9764
vn 0.9017 -0.1515 0.4049
vn 0.8961 -0.2111 0.3904
vn 0.3104 -0.0405 0.9497
usemtl platformer
s 1
f 11/1/1 9/2/1 10/3/1 12/4/1
f 42/5/2 19/6/2 21/7/3 41/8/3
f 1/9/4 3/10/4 8/11/4 5/12/4
f 1/13/5 2/14/5 14/15/6 13/16/7
f 27/17/8 45/18/8 46/19/9 25/20/9
f 51/21/10 31/22/10 33/23/11 50/24/11
f 8/11/5 7/25/5 6/26/5 5/12/5
f 2/27/12 1/9/12 5/12/12 6/26/12
f 4/28/13 2/27/13 6/26/13 7/25/13
f 3/10/14 4/28/14 7/25/14 8/11/14
f 41/8/3 21/7/3 17/29/15 43/30/15
f 42/5/2 47/31/16 35/32/16 19/6/2
f 23/33/17 44/34/17 45/18/8 27/17/8
f 50/24/11 33/23/11 29/35/18 52/36/18
f 35/32/16 47/31/16 48/37/19 39/38/19
f 17/29/15 25/20/9 46/19/9 43/30/15
f 51/21/10 44/34/17 23/33/17 31/22/10
f 39/38/19 48/37/19 49/39/20 37/40/20
f 49/39/20 52/36/18 29/35/18 37/40/20
f 17/41/21 21/42/22 22/43/22 18/44/23
f 18/45/24 22/46/25 13/16/7
f 21/42/22 19/47/26 20/48/27 22/43/22
f 22/46/25 20/49/28 13/16/7
f 23/50/29 27/51/30 28/52/30 24/53/31
f 24/54/32 28/55/33 14/15/6
f 27/51/30 25/56/34 26/57/35 28/52/30
f 28/55/33 26/58/36 14/15/6
f 29/59/37 33/60/38 34/61/38 30/62/39
f 30/63/40 34/64/41 15/65/42
f 33/60/38 31/66/43 32/67/44 34/61/38
f 34/64/41 32/68/45 15/65/42
f 35/69/46 39/70/47 40/71/47 36/72/48
f 36/73/49 40/74/50 16/75/51
f 39/70/47 37/76/52 38/77/53 40/71/47
f 40/74/50 38/78/54 16/75/51
f 16/75/51 13/16/7 20/49/28 36/73/49
f 36/72/48 20/48/27 19/47/26 35/69/46
f 13/16/7 14/15/6 26/58/36 18/45/24
f 18/44/23 26/57/35 25/56/34 17/41/21
f 14/15/6 15/65/42 32/68/45 24/54/32
f 24/53/31 32/67/44 31/66/43 23/50/29
f 15/65/42 16/75/51 38/78/54 30/63/40
f 30/62/39 38/77/53 37/76/52 29/59/37
f 9/2/1 42/5/1 41/8/1
f 9/2/1 41/8/1 43/30/1
f 10/3/1 45/18/1 44/34/1
f 10/3/1 46/19/1 45/18/1
f 11/1/1 48/37/1 47/31/1
f 11/1/1 49/39/1 48/37/1
f 12/4/1 51/21/1 50/24/1
f 12/4/1 50/24/1 52/36/1
f 9/2/1 11/1/1 47/31/1 42/5/1
f 10/3/1 9/2/1 43/30/1 46/19/1
f 12/4/1 10/3/1 44/34/1 51/21/1
f 11/1/1 12/4/1 52/36/1 49/39/1
f 53/79/4 55/80/4 60/81/4 57/82/4
f 54/83/12 53/79/12 57/82/12 58/84/12
f 56/85/13 54/83/13 58/84/13 59/86/13
f 55/80/14 56/85/14 59/86/14 60/81/14
f 4/87/5 3/88/5 53/89/5 54/90/5
f 16/75/51 15/65/42 56/91/5 55/92/5
f 1/13/5 13/16/7 3/88/5
f 55/92/5 53/89/5 16/75/51
f 16/75/51 53/89/5 3/88/5 13/16/7
f 56/91/5 15/65/42 54/90/5
f 2/14/5 4/87/5 14/15/6
f 15/65/42 14/15/6 4/87/5 54/90/5
f 57/82/5 60/81/5 59/86/5 58/84/5
