# Blender v3.4.1 OBJ File: 'Platformer_Pack_Export_FREE.blend'
# www.blender.org
mtllib platform_decorative_1x1x1_green.mtl
o platform_decorative_1x1x1_green
v -0.450000 0.050000 0.500000
v -0.500000 0.050000 0.450000
v -0.450000 0.950000 0.500000
v -0.450000 1.000000 0.450000
v -0.500000 0.950000 0.450000
v 0.500000 0.050000 0.450000
v 0.450000 0.050000 0.500000
v 0.450000 1.000000 0.450000
v 0.450000 0.950000 0.500000
v 0.500000 0.950000 0.450000
v -0.450000 0.000000 0.450000
v 0.450000 0.000000 0.450000
v -0.450000 0.500000 0.500000
v -0.500000 0.500000 0.450000
v 0.450000 0.500000 0.500000
v 0.500000 0.500000 0.450000
v 0.000000 0.050000 0.500000
v 0.000000 1.000000 0.450000
v 0.000000 0.950000 0.500000
v 0.000000 0.000000 0.450000
v -0.334062 0.500000 0.500000
v 0.000000 0.165938 0.500000
v 0.334062 0.500000 0.500000
v 0.000000 0.834062 0.500000
v -0.222014 0.277986 0.500000
v 0.222014 0.277986 0.500000
v 0.222014 0.722014 0.500000
v -0.222014 0.722014 0.500000
v -0.268316 0.500000 0.400000
v 0.000000 0.231684 0.400000
v 0.268316 0.500000 0.400000
v 0.000000 0.768316 0.400000
v -0.178320 0.321680 0.400000
v 0.178320 0.321680 0.400000
v 0.178320 0.678320 0.400000
v -0.178320 0.678320 0.400000
v -0.151277 0.459466 0.472748
v 0.151277 0.540535 0.472748
v -0.100537 0.473061 0.441839
v -0.088150 0.426831 0.472748
v 0.100537 0.526939 0.441839
v 0.112925 0.480708 0.472748
v 0.088150 0.573170 0.472748
v -0.112925 0.519292 0.472748
v -0.141245 0.641245 0.472748
v -0.212529 0.500000 0.472748
v -0.141245 0.358755 0.472748
v 0.000000 0.287471 0.472748
v 0.141245 0.358755 0.472748
v 0.212529 0.500000 0.472748
v 0.141245 0.641245 0.472748
v 0.000000 0.712529 0.472748
v 0.162277 0.337723 0.451876
v -0.162277 0.337723 0.451876
v 0.000000 0.257363 0.452172
v 0.000000 0.742637 0.452172
v -0.162277 0.662277 0.451876
v 0.242637 0.500000 0.452172
v -0.242637 0.500000 0.452172
v 0.162277 0.662277 0.451876
v -0.450000 0.050000 -0.500000
v -0.500000 0.050000 -0.450000
v -0.450000 0.950000 -0.500000
v -0.450000 1.000000 -0.450000
v -0.500000 0.950000 -0.450000
v 0.500000 0.050000 -0.450000
v 0.450000 0.050000 -0.500000
v 0.450000 1.000000 -0.450000
v 0.450000 0.950000 -0.500000
v 0.500000 0.950000 -0.450000
v -0.450000 0.000000 -0.450000
v 0.450000 0.000000 -0.450000
v -0.450000 0.500000 -0.500000
v -0.500000 0.500000 -0.450000
v 0.450000 0.500000 -0.500000
v 0.500000 0.500000 -0.450000
v 0.000000 0.050000 -0.500000
v 0.000000 1.000000 -0.450000
v 0.000000 0.950000 -0.500000
v 0.000000 0.000000 -0.450000
v -0.334062 0.500000 -0.500000
v 0.000000 0.165938 -0.500000
v 0.334062 0.500000 -0.500000
v 0.000000 0.834062 -0.500000
v -0.222014 0.277986 -0.500000
v 0.222014 0.277986 -0.500000
v 0.222014 0.722014 -0.500000
v -0.222014 0.722014 -0.500000
v -0.268316 0.500000 -0.400000
v 0.000000 0.231684 -0.400000
v 0.268316 0.500000 -0.400000
v 0.000000 0.768316 -0.400000
v -0.178320 0.321680 -0.400000
v 0.178320 0.321680 -0.400000
v 0.178320 0.678320 -0.400000
v -0.178320 0.678320 -0.400000
v -0.151277 0.459466 -0.472748
v 0.151277 0.540535 -0.472748
v -0.100537 0.473061 -0.441839
v -0.088150 0.426831 -0.472748
v 0.100537 0.526939 -0.441839
v 0.112925 0.480708 -0.472748
v 0.088150 0.573170 -0.472748
v -0.112925 0.519292 -0.472748
v -0.141245 0.641245 -0.472748
v -0.212529 0.500000 -0.472748
v -0.141245 0.358755 -0.472748
v 0.000000 0.287471 -0.472748
v 0.141245 0.358755 -0.472748
v 0.212529 0.500000 -0.472748
v 0.141245 0.641245 -0.472748
v 0.000000 0.712529 -0.472748
v 0.162277 0.337723 -0.451876
v -0.162277 0.337723 -0.451876
v 0.000000 0.257363 -0.452172
v 0.000000 0.742637 -0.452172
v -0.162277 0.662277 -0.451876
v 0.242637 0.500000 -0.452172
v -0.242637 0.500000 -0.452172
v 0.162277 0.662277 -0.451876
v -0.500000 0.050000 -0.050000
v -0.500000 0.050000 0.050000
v -0.450000 0.097500 0.000000
v -0.450000 1.000000 0.050000
v -0.450000 1.000000 -0.050000
v -0.402500 0.950000 0.000000
v -0.500000 0.950000 -0.050000
v -0.500000 0.950000 0.050000
v -0.450000 0.902500 0.000000
v 0.500000 0.050000 0.050000
v 0.500000 0.050000 -0.050000
v 0.450000 0.097500 0.000000
v 0.450000 1.000000 0.050000
v 0.450000 1.000000 -0.050000
v 0.402500 0.950000 0.000000
v 0.500000 0.950000 0.050000
v 0.500000 0.950000 -0.050000
v 0.450000 0.902500 0.000000
v 0.450000 0.000000 -0.050000
v 0.450000 0.000000 0.050000
v 0.402500 0.050000 0.000000
v -0.450000 0.000000 0.050000
v -0.450000 0.000000 -0.050000
v -0.402500 0.050000 0.000000
v -0.500000 0.500000 0.050000
v -0.500000 0.500000 -0.050000
v -0.450000 0.500000 0.000000
v 0.500000 0.500000 -0.050000
v 0.500000 0.500000 0.050000
v 0.450000 0.500000 0.000000
v 0.000000 0.000000 0.050000
v 0.000000 0.000000 -0.050000
v 0.000000 0.050000 0.000000
v 0.000000 1.000000 -0.050000
v 0.000000 1.000000 0.050000
v 0.000000 0.950000 0.000000
vt 0.476345 0.150978
vt 0.476345 0.150978
vt 0.476345 0.171760
vt 0.476345 0.171760
vt 0.398655 0.150978
vt 0.398655 0.171760
vt 0.398655 0.171760
vt 0.398655 0.150978
vt 0.400597 0.130196
vt 0.429643 0.146553
vt 0.425677 0.150978
vt 0.400597 0.150978
vt 0.400597 0.109375
vt 0.400597 0.114571
vt 0.398655 0.114571
vt 0.400597 0.218635
vt 0.400597 0.223831
vt 0.398655 0.218635
vt 0.474403 0.109375
vt 0.476345 0.114571
vt 0.474403 0.114571
vt 0.474403 0.223831
vt 0.474403 0.218635
vt 0.476345 0.218635
vt 0.400597 0.109375
vt 0.398655 0.114571
vt 0.398655 0.114571
vt 0.400597 0.109375
vt 0.400597 0.166603
vt 0.400597 0.187385
vt 0.398655 0.187385
vt 0.398655 0.166603
vt 0.476345 0.150978
vt 0.476345 0.171760
vt 0.476345 0.171760
vt 0.476345 0.150978
vt 0.474403 0.166603
vt 0.474403 0.145821
vt 0.476345 0.145821
vt 0.476345 0.166603
vt 0.437500 0.109375
vt 0.437500 0.114571
vt 0.437500 0.223831
vt 0.437500 0.218635
vt 0.474403 0.187385
vt 0.476345 0.187385
vt 0.400597 0.145821
vt 0.398655 0.145821
vt 0.474403 0.109375
vt 0.476345 0.114571
vt 0.476345 0.114571
vt 0.474403 0.109375
vt 0.474403 0.171760
vt 0.437500 0.171760
vt 0.437500 0.157636
vt 0.445357 0.155403
vt 0.429643 0.155403
vt 0.400597 0.171760
vt 0.474403 0.223831
vt 0.476345 0.218635
vt 0.476345 0.218635
vt 0.474403 0.223831
vt 0.474403 0.130196
vt 0.474403 0.150978
vt 0.449323 0.150978
vt 0.445357 0.146553
vt 0.449323 0.119728
vt 0.445357 0.124153
vt 0.445357 0.124153
vt 0.449323 0.119728
vt 0.429643 0.124153
vt 0.425677 0.119728
vt 0.425677 0.119728
vt 0.429643 0.124153
vt 0.445357 0.115303
vt 0.445357 0.115303
vt 0.437500 0.113070
vt 0.437500 0.113070
vt 0.312500 0.929988
vt 0.329235 0.939414
vt 0.329235 0.939414
vt 0.312500 0.929988
vt 0.295765 0.939415
vt 0.295765 0.939415
vt 0.312500 0.986194
vt 0.295765 0.976768
vt 0.295765 0.976768
vt 0.312500 0.986194
vt 0.429643 0.115303
vt 0.429643 0.115303
vt 0.437500 0.126386
vt 0.437500 0.126386
vt 0.337682 0.958091
vt 0.330250 0.942466
vt 0.324297 0.929301
vt 0.300703 0.929301
vt 0.324297 0.955631
vt 0.329235 0.976768
vt 0.330250 0.895591
vt 0.324297 0.908756
vt 0.324297 0.895591
vt 0.337682 0.958091
vt 0.287318 0.958091
vt 0.287318 0.958091
vt 0.329235 0.976768
vt 0.300703 0.908756
vt 0.300703 0.895591
vt 0.294750 0.895591
vt 0.324297 0.913676
vt 0.330250 0.926841
vt 0.324297 0.926841
vt 0.437500 0.130196
vt 0.437500 0.144320
vt 0.294750 0.942466
vt 0.300703 0.955631
vt 0.294750 0.926841
vt 0.300703 0.913676
vt 0.300703 0.926841
vt 0.474403 0.093750
vt 0.474403 0.093750
vt 0.437500 0.093750
vt 0.437500 0.093750
vt 0.398655 0.130196
vt 0.398655 0.130196
vt 0.398655 0.150978
vt 0.398655 0.150978
vt 0.400597 0.093750
vt 0.400597 0.093750
vt 0.476345 0.130196
vt 0.476345 0.130196
vt 0.437500 0.208206
vt 0.437500 0.208206
vt 0.400597 0.208206
vt 0.400597 0.208206
vt 0.398655 0.171760
vt 0.398655 0.171760
vt 0.329235 0.929893
vt 0.312500 0.939319
vt 0.312500 0.954944
vt 0.329235 0.945518
vt 0.287318 0.911216
vt 0.295765 0.892540
vt 0.295765 0.908165
vt 0.287318 0.926841
vt 0.337682 0.911216
vt 0.337682 0.926841
vt 0.295765 0.929893
vt 0.295765 0.945518
vt 0.329235 0.892539
vt 0.329235 0.908164
vt 0.312500 0.883113
vt 0.312500 0.898738
vt 0.474403 0.093750
vt 0.437500 0.093750
vt 0.437500 0.093750
vt 0.474403 0.093750
vt 0.400597 0.223831
vt 0.398655 0.218635
vt 0.398655 0.218635
vt 0.400597 0.223831
vt 0.400597 0.130196
vt 0.400597 0.150978
vt 0.425677 0.150978
vt 0.429643 0.146553
vt 0.400597 0.114571
vt 0.400597 0.218635
vt 0.474403 0.114571
vt 0.474403 0.218635
vt 0.400597 0.223831
vt 0.398655 0.218635
vt 0.400597 0.166603
vt 0.398655 0.166603
vt 0.398655 0.187385
vt 0.400597 0.187385
vt 0.474403 0.208206
vt 0.474403 0.208206
vt 0.474403 0.166603
vt 0.476345 0.166603
vt 0.476345 0.145821
vt 0.474403 0.145821
vt 0.437500 0.109375
vt 0.437500 0.114571
vt 0.437500 0.223831
vt 0.437500 0.218635
vt 0.474403 0.187385
vt 0.476345 0.187385
vt 0.400597 0.145821
vt 0.398655 0.145821
vt 0.474403 0.208206
vt 0.437500 0.208206
vt 0.437500 0.208206
vt 0.474403 0.208206
vt 0.474403 0.171760
vt 0.445357 0.155403
vt 0.437500 0.157636
vt 0.437500 0.171760
vt 0.429643 0.155403
vt 0.400597 0.171760
vt 0.474403 0.223831
vt 0.476345 0.218635
vt 0.474403 0.130196
vt 0.445357 0.146553
vt 0.449323 0.150978
vt 0.474403 0.150978
vt 0.449323 0.119728
vt 0.449323 0.119728
vt 0.445357 0.124153
vt 0.445357 0.124153
vt 0.429643 0.124153
vt 0.429643 0.124153
vt 0.425677 0.119728
vt 0.425677 0.119728
vt 0.445357 0.115303
vt 0.445357 0.115303
vt 0.437500 0.113070
vt 0.437500 0.113070
vt 0.312500 0.929988
vt 0.312500 0.929988
vt 0.329235 0.939414
vt 0.329235 0.939414
vt 0.295765 0.939415
vt 0.295765 0.939415
vt 0.312500 0.986194
vt 0.312500 0.986194
vt 0.295765 0.976768
vt 0.295765 0.976768
vt 0.429643 0.115303
vt 0.429643 0.115303
vt 0.437500 0.126386
vt 0.437500 0.126386
vt 0.337682 0.958091
vt 0.330250 0.942466
vt 0.324297 0.929301
vt 0.300703 0.929301
vt 0.324297 0.955631
vt 0.329235 0.976768
vt 0.330250 0.895591
vt 0.324297 0.895591
vt 0.324297 0.908756
vt 0.337682 0.958091
vt 0.287318 0.958091
vt 0.287318 0.958091
vt 0.329235 0.976768
vt 0.300703 0.895591
vt 0.300703 0.908756
vt 0.294750 0.895591
vt 0.324297 0.913676
vt 0.324297 0.926841
vt 0.330250 0.926841
vt 0.437500 0.130196
vt 0.437500 0.144320
vt 0.294750 0.942466
vt 0.300703 0.955631
vt 0.294750 0.926841
vt 0.300703 0.926841
vt 0.300703 0.913676
vt 0.400597 0.093750
vt 0.400597 0.093750
vt 0.400597 0.109375
vt 0.398655 0.114571
vt 0.476345 0.130196
vt 0.476345 0.130196
vt 0.400597 0.208206
vt 0.400597 0.208206
vt 0.474403 0.109375
vt 0.476345 0.114571
vt 0.329235 0.929893
vt 0.329235 0.945518
vt 0.312500 0.954944
vt 0.312500 0.939319
vt 0.287318 0.911216
vt 0.287318 0.926841
vt 0.295765 0.908165
vt 0.295765 0.892540
vt 0.337682 0.911216
vt 0.337682 0.926841
vt 0.295765 0.929893
vt 0.295765 0.945518
vt 0.329235 0.892539
vt 0.329235 0.908164
vt 0.312500 0.898738
vt 0.312500 0.883113
vt 0.437500 0.176956
vt 0.474403 0.176956
vt 0.474403 0.145706
vt 0.437500 0.145706
vt 0.437500 0.176956
vt 0.474403 0.176956
vt 0.474403 0.176956
vt 0.437500 0.176956
vt 0.437500 0.062500
vt 0.474403 0.062500
vt 0.474403 0.062500
vt 0.437500 0.062500
vt 0.437500 0.031250
vt 0.474403 0.031250
vt 0.474403 0.062500
vt 0.437500 0.062500
vt 0.476345 0.119728
vt 0.476345 0.098946
vt 0.476345 0.067696
vt 0.476345 0.088478
vt 0.476345 0.119728
vt 0.476345 0.098946
vt 0.476345 0.098946
vt 0.476345 0.119728
vt 0.398655 0.119728
vt 0.398655 0.098946
vt 0.398655 0.098946
vt 0.398655 0.119728
vt 0.398655 0.088478
vt 0.398655 0.067696
vt 0.398655 0.098946
vt 0.398655 0.119728
vt 0.400597 0.062500
vt 0.400597 0.062500
vt 0.400597 0.031250
vt 0.400597 0.062500
vt 0.474403 0.192581
vt 0.476345 0.187385
vt 0.476345 0.156135
vt 0.474403 0.161331
vt 0.474403 0.192581
vt 0.476345 0.187385
vt 0.476345 0.187385
vt 0.474403 0.192581
vt 0.474403 0.078125
vt 0.476345 0.083321
vt 0.476345 0.083321
vt 0.474403 0.078125
vt 0.474403 0.046875
vt 0.476345 0.052071
vt 0.476345 0.083321
vt 0.474403 0.078125
vt 0.400597 0.192581
vt 0.398655 0.187385
vt 0.398655 0.187385
vt 0.400597 0.192581
vt 0.400597 0.161331
vt 0.398655 0.156135
vt 0.398655 0.187385
vt 0.400597 0.192581
vt 0.400597 0.078125
vt 0.398655 0.083321
vt 0.398655 0.052071
vt 0.400597 0.046875
vt 0.400597 0.078125
vt 0.398655 0.083321
vt 0.398655 0.083321
vt 0.400597 0.078125
vt 0.398655 0.140510
vt 0.398655 0.140510
vt 0.398655 0.109260
vt 0.398655 0.140510
vt 0.400597 0.176956
vt 0.400597 0.145706
vt 0.400597 0.176956
vt 0.400597 0.176956
vt 0.476345 0.140510
vt 0.476345 0.109260
vt 0.476345 0.140510
vt 0.476345 0.140510
vt 0.398655 0.130196
vt 0.398655 0.130196
vn 1.0000 0.0000 0.0000
vn -1.0000 0.0000 0.0000
vn 0.0000 0.0000 1.0000
vn -0.4606 -0.7588 0.4606
vn -0.4606 -0.4606 0.7588
vn -0.7588 -0.4606 0.4606
vn -0.4606 0.4606 0.7588
vn -0.4606 0.7588 0.4606
vn -0.7588 0.4606 0.4606
vn 0.4606 -0.7588 0.4606
vn 0.7588 -0.4606 0.4606
vn 0.4606 -0.4606 0.7588
vn 0.4606 0.7588 0.4606
vn 0.4606 0.4606 0.7588
vn 0.7588 0.4606 0.4606
vn -0.7071 -0.7071 0.0000
vn -0.7588 -0.4606 -0.4606
vn -0.4606 -0.7588 -0.4606
vn -0.7071 0.0000 0.7071
vn 0.7071 0.0000 0.7071
vn 0.0000 -0.7071 0.7071
vn 0.0000 0.7071 0.7071
vn 0.4606 -0.7588 -0.4606
vn 0.7588 -0.4606 -0.4606
vn 0.7071 -0.7071 0.0000
vn 0.7071 0.7071 0.0000
vn 0.7588 0.4606 -0.4606
vn 0.4606 0.7588 -0.4606
vn -0.7699 -0.3886 0.5062
vn -0.6015 -0.6015 0.5257
vn 0.6015 -0.6015 0.5257
vn 0.7699 -0.3886 0.5062
vn -0.6015 0.6015 0.5257
vn -0.7699 0.3886 0.5062
vn -0.3886 0.7699 0.5062
vn 0.0000 -0.7854 0.6189
vn 0.5607 -0.5607 0.6093
vn 0.2536 -0.2536 0.9335
vn 0.0000 -0.3663 0.9305
vn -0.5607 -0.5607 0.6093
vn -0.2536 -0.2536 0.9335
vn -0.0000 0.7854 0.6189
vn -0.5607 0.5607 0.6093
vn -0.2536 0.2536 0.9335
vn -0.0000 0.3663 0.9305
vn 0.7699 0.3886 0.5062
vn 0.6015 0.6015 0.5257
vn -0.3886 -0.7699 0.5062
vn 0.3886 -0.7699 0.5062
vn 0.3886 0.7699 0.5062
vn 0.3663 0.0000 0.9305
vn -0.1244 0.1916 0.9736
vn 0.0119 0.2281 0.9736
vn -0.0119 -0.2281 0.9736
vn 0.2536 0.2536 0.9335
vn -0.3021 -0.5845 0.7531
vn -0.0609 -0.5660 0.8222
vn 0.7854 -0.0000 0.6189
vn -0.7854 -0.0000 0.6189
vn -0.3663 0.0000 0.9305
vn 0.5607 0.5607 0.6093
vn 0.1244 -0.1916 0.9736
vn 0.3357 -0.4597 0.8222
vn 0.5539 -0.3551 0.7531
vn -0.5539 0.3551 0.7531
vn -0.3357 0.4597 0.8222
vn 0.3021 0.5844 0.7531
vn 0.0609 0.5660 0.8222
vn 0.0000 -1.0000 0.0000
vn 0.0000 1.0000 0.0000
vn 0.6447 0.6447 0.4109
vn 0.4116 0.8222 0.3932
vn -0.8222 -0.4116 0.3932
vn -0.6447 -0.6447 0.4109
vn 0.8222 0.4116 0.3932
vn -0.6447 0.6447 0.4109
vn -0.8222 0.4116 0.3932
vn 0.6447 -0.6447 0.4109
vn 0.8222 -0.4116 0.3932
vn -0.4116 0.8222 0.3932
vn -0.4116 -0.8222 0.3932
vn 0.4116 -0.8222 0.3932
vn -0.4606 0.7588 -0.4606
vn -0.7588 0.4606 -0.4606
vn -0.7071 0.7071 0.0000
vn 0.0000 0.0000 -1.0000
vn -0.4606 -0.4606 -0.7588
vn -0.4606 0.4606 -0.7588
vn 0.4606 -0.4606 -0.7588
vn 0.4606 0.4606 -0.7588
vn -0.7071 0.0000 -0.7071
vn 0.7071 0.0000 -0.7071
vn 0.0000 -0.7071 -0.7071
vn 0.0000 0.7071 -0.7071
vn -0.7699 -0.3886 -0.5062
vn -0.6015 -0.6015 -0.5257
vn 0.6015 -0.6015 -0.5257
vn 0.7699 -0.3886 -0.5062
vn -0.6015 0.6015 -0.5257
vn -0.7699 0.3886 -0.5062
vn -0.3886 0.7699 -0.5062
vn 0.0000 -0.7854 -0.6189
vn 0.0000 -0.3663 -0.9305
vn 0.2536 -0.2536 -0.9335
vn 0.5607 -0.5607 -0.6093
vn -0.5607 -0.5607 -0.6093
vn -0.2536 -0.2536 -0.9335
vn -0.0000 0.7854 -0.6189
vn -0.0000 0.3663 -0.9305
vn -0.2536 0.2536 -0.9335
vn -0.5607 0.5607 -0.6093
vn 0.7699 0.3886 -0.5062
vn 0.6015 0.6015 -0.5257
vn -0.3886 -0.7699 -0.5062
vn 0.3886 -0.7699 -0.5062
vn 0.3886 0.7699 -0.5062
vn 0.3663 0.0000 -0.9305
vn -0.1244 0.1916 -0.9736
vn 0.0119 0.2281 -0.9736
vn -0.0119 -0.2281 -0.9736
vn 0.2536 0.2536 -0.9335
vn -0.3021 -0.5845 -0.7531
vn -0.0609 -0.5660 -0.8222
vn 0.7854 -0.0000 -0.6189
vn -0.3663 0.0000 -0.9305
vn -0.7854 -0.0000 -0.6189
vn 0.5607 0.5607 -0.6093
vn 0.3357 -0.4597 -0.8222
vn 0.1244 -0.1916 -0.9736
vn 0.5539 -0.3551 -0.7531
vn -0.3357 0.4597 -0.8222
vn -0.5539 0.3551 -0.7531
vn 0.3021 0.5844 -0.7531
vn 0.0609 0.5660 -0.8222
vn 0.6447 0.6447 -0.4109
vn 0.4116 0.8222 -0.3932
vn -0.8222 -0.4116 -0.3932
vn -0.6447 -0.6447 -0.4109
vn 0.8222 0.4116 -0.3932
vn -0.6447 0.6447 -0.4109
vn -0.8222 0.4116 -0.3932
vn 0.6447 -0.6447 -0.4109
vn 0.8222 -0.4116 -0.3932
vn -0.4116 0.8222 -0.3932
vn -0.4116 -0.8222 -0.3932
vn 0.4116 -0.8222 -0.3932
vn 0.2629 0.5458 -0.7956
vn 0.1821 0.6034 -0.7764
vn 0.1821 0.6034 0.7764
vn 0.2629 0.5458 0.7956
vn 0.2629 -0.5458 0.7956
vn 0.1821 -0.6034 0.7764
vn 0.1821 -0.6034 -0.7764
vn 0.2629 -0.5458 -0.7956
vn 0.5458 -0.2629 -0.7956
vn 0.6034 -0.1821 -0.7764
vn 0.6034 -0.1821 0.7764
vn 0.5458 -0.2629 0.7956
vn -0.5458 -0.2629 0.7956
vn -0.6034 -0.1821 0.7764
vn -0.6034 -0.1821 -0.7764
vn -0.5458 -0.2629 -0.7956
vn -0.2629 -0.5458 0.7956
vn -0.1821 -0.6034 0.7764
vn -0.1821 -0.6034 -0.7764
vn -0.2629 -0.5458 -0.7956
vn 0.5458 0.2629 -0.7956
vn 0.6034 0.1821 -0.7764
vn 0.6034 0.1821 0.7764
vn 0.5458 0.2629 0.7956
vn -0.2629 0.5458 0.7956
vn -0.5458 0.2629 0.7956
vn -0.6034 0.1821 0.7764
vn -0.1821 0.6034 0.7764
vn -0.1821 0.6034 -0.7764
vn -0.6034 0.1821 -0.7764
vn -0.5458 0.2629 -0.7956
vn -0.2629 0.5458 -0.7956
usemtl platformer
s 1
f 148/1/1 76/2/1 70/3/1 137/4/1
f 14/5/2 5/6/2 128/7/2 145/8/2
f 1/9/3 25/10/3 21/11/3 13/12/3
f 11/13/4 1/14/5 2/15/6
f 3/16/7 4/17/8 5/18/9
f 12/19/10 6/20/11 7/21/12
f 8/22/13 9/23/14 10/24/15
f 143/25/16 121/26/16 62/27/17 71/28/18
f 13/29/19 3/30/7 5/31/9 14/32/19
f 149/33/1 136/34/1 10/35/1 16/36/1
f 15/37/20 7/38/12 6/39/11 16/40/20
f 20/41/21 12/19/10 7/21/12 17/42/21
f 18/43/22 4/17/8 3/16/7 19/44/22
f 9/45/14 15/37/20 16/40/20 10/46/15
f 1/47/5 13/29/19 14/32/19 2/48/6
f 72/49/23 66/50/24 131/51/25 139/52/25
f 9/53/3 19/54/3 24/55/3 27/56/3
f 28/57/3 24/55/3 19/54/3 3/58/3
f 8/22/13 18/43/22 19/44/22 9/23/14
f 11/13/4 20/41/21 17/42/21 1/14/5
f 134/59/26 137/60/26 70/61/27 68/62/28
f 7/63/3 15/64/3 23/65/3 26/66/3
f 23/67/29 27/68/30 35/69/30 31/70/29
f 28/71/31 21/72/32 29/73/32 36/74/31
f 26/75/33 23/67/34 31/70/34 34/76/33
f 22/77/35 26/75/33 34/76/33 30/78/35
f 55/79/36 53/80/37 49/81/38 48/82/39
f 54/83/40 55/79/36 48/82/39 47/84/41
f 56/85/42 57/86/43 45/87/44 52/88/45
f 21/72/46 25/89/47 33/90/47 29/73/46
f 27/68/30 24/91/48 32/92/48 35/69/30
f 24/91/49 28/71/31 36/74/31 32/92/49
f 25/89/47 22/77/50 30/78/50 33/90/47
f 50/93/51 38/94/3 49/81/38
f 42/95/52 40/96/53 48/82/39
f 43/97/54 38/94/3 51/98/55
f 38/99/56 43/100/54 41/101/57
f 53/80/37 58/102/58 50/93/51 49/81/38
f 57/86/43 59/103/59 46/104/60 45/87/44
f 58/102/58 60/105/61 51/98/55 50/93/51
f 59/103/59 54/83/40 47/84/41 46/104/60
f 60/105/61 56/85/42 52/88/45 51/98/55
f 43/100/54 44/106/62 39/107/63 41/101/57
f 44/106/62 37/108/64 39/107/63
f 42/109/52 38/110/65 41/111/66
f 17/112/3 7/63/3 26/66/3 22/113/3
f 15/64/3 9/53/3 27/56/3 23/65/3
f 21/11/3 28/57/3 3/58/3 13/12/3
f 17/112/3 22/113/3 25/10/3 1/9/3
f 37/114/3 44/115/62 45/87/44
f 37/114/3 46/104/60 47/84/41
f 40/96/53 47/84/41 48/82/39
f 37/116/67 40/117/53 39/118/68
f 38/94/3 42/95/52 49/81/38
f 38/94/3 50/93/51 51/98/55
f 43/97/54 51/98/55 52/88/45
f 40/117/53 42/109/52 41/111/66 39/118/68
f 45/87/44 44/115/62 52/88/45
f 46/104/60 37/114/3 45/87/44
f 44/115/62 43/97/54 52/88/45
f 49/81/38 42/95/52 48/82/39
f 40/96/53 37/114/3 47/84/41
f 72/119/69 139/120/69 152/121/69 80/122/69
f 62/123/2 121/124/2 146/125/2 74/126/2
f 80/122/69 152/121/69 143/127/69 71/128/69
f 130/129/1 149/33/1 16/36/1 6/130/1
f 154/131/70 78/132/70 64/133/70 125/134/70
f 74/126/2 146/125/2 127/135/2 65/136/2
f 35/137/71 32/138/72 56/139/42 60/140/61
f 29/141/73 33/142/74 54/143/40 59/144/59
f 31/145/75 35/137/71 60/140/61 58/146/58
f 36/147/76 29/141/77 59/144/59 57/148/43
f 34/149/78 31/145/79 58/146/58 53/150/37
f 32/138/80 36/147/76 57/148/43 56/139/42
f 33/142/74 30/151/81 55/152/36 54/143/40
f 30/151/82 34/149/78 53/150/37 55/152/36
f 12/153/69 20/154/69 151/155/69 140/156/69
f 64/157/83 65/158/84 127/159/85 125/160/85
f 61/161/86 73/162/86 81/163/86 85/164/86
f 71/28/18 62/27/17 61/165/87
f 63/166/88 65/158/84 64/157/83
f 72/49/23 67/167/89 66/50/24
f 68/62/28 70/61/27 69/168/90
f 4/17/8 124/169/85 128/170/85 5/18/9
f 73/171/91 74/172/91 65/173/84 63/174/88
f 134/175/70 68/176/70 78/132/70 154/131/70
f 75/177/92 76/178/92 66/179/24 67/180/89
f 80/181/93 77/182/93 67/167/89 72/49/23
f 78/183/94 79/184/94 63/166/88 64/157/83
f 69/185/90 70/186/27 76/178/92 75/177/92
f 61/187/87 62/188/17 74/172/91 73/171/91
f 133/189/70 155/190/70 18/191/70 8/192/70
f 69/193/86 87/194/86 84/195/86 79/196/86
f 88/197/86 63/198/86 79/196/86 84/195/86
f 68/62/28 69/168/90 79/184/94 78/183/94
f 71/28/18 61/165/87 77/182/93 80/181/93
f 133/199/26 8/22/13 10/24/15 136/200/26
f 67/201/86 86/202/86 83/203/86 75/204/86
f 83/205/95 91/206/95 95/207/96 87/208/96
f 88/209/97 96/210/97 89/211/98 81/212/98
f 86/213/99 94/214/99 91/206/100 83/205/100
f 82/215/101 90/216/101 94/214/99 86/213/99
f 115/217/102 108/218/103 109/219/104 113/220/105
f 114/221/106 107/222/107 108/218/103 115/217/102
f 116/223/108 112/224/109 105/225/110 117/226/111
f 81/212/112 89/211/112 93/227/113 85/228/113
f 87/208/96 95/207/96 92/229/114 84/230/114
f 84/230/115 92/229/115 96/210/97 88/209/97
f 85/228/113 93/227/113 90/216/116 82/215/116
f 110/231/117 109/219/104 98/232/86
f 102/233/118 108/218/103 100/234/119
f 103/235/120 111/236/121 98/232/86
f 98/237/122 101/238/123 103/239/120
f 113/220/105 109/219/104 110/231/117 118/240/124
f 117/226/111 105/225/110 106/241/125 119/242/126
f 118/240/124 110/231/117 111/236/121 120/243/127
f 119/242/126 106/241/125 107/222/107 114/221/106
f 120/243/127 111/236/121 112/224/109 116/223/108
f 103/239/120 101/238/123 99/244/128 104/245/129
f 104/245/129 99/244/128 97/246/130
f 102/247/118 101/248/131 98/249/132
f 77/250/86 82/251/86 86/202/86 67/201/86
f 75/204/86 83/203/86 87/194/86 69/193/86
f 81/163/86 73/162/86 63/198/86 88/197/86
f 77/250/86 61/161/86 85/164/86 82/251/86
f 97/252/86 105/225/110 104/253/129
f 97/252/86 107/222/107 106/241/125
f 100/234/119 108/218/103 107/222/107
f 97/254/133 99/255/134 100/256/119
f 98/232/86 109/219/104 102/233/118
f 98/232/86 111/236/121 110/231/117
f 103/235/120 112/224/109 111/236/121
f 100/256/119 99/255/134 101/248/131 102/247/118
f 105/225/110 112/224/109 104/253/129
f 106/241/125 105/225/110 97/252/86
f 104/253/129 112/224/109 103/235/120
f 109/219/104 108/218/103 102/233/118
f 100/234/119 107/222/107 97/252/86
f 20/154/69 11/257/69 142/258/69 151/155/69
f 142/259/16 11/13/4 2/15/6 122/260/16
f 131/261/1 66/262/1 76/2/1 148/1/1
f 155/190/70 124/263/70 4/264/70 18/191/70
f 12/19/10 140/265/25 130/266/25 6/20/11
f 95/267/135 120/268/127 116/269/108 92/270/136
f 89/271/137 119/272/126 114/273/106 93/274/138
f 91/275/139 118/276/124 120/268/127 95/267/135
f 96/277/140 117/278/111 119/272/126 89/271/141
f 94/279/142 113/280/105 118/276/124 91/275/143
f 92/270/144 116/269/108 117/278/111 96/277/140
f 93/274/138 114/273/106 115/281/102 90/282/145
f 90/282/146 115/281/102 113/280/105 94/279/142
f 155/283/94 133/284/147 135/285/148 156/286/94
f 156/287/22 135/288/149 134/289/150 154/290/22
f 152/291/21 139/292/151 141/293/152 153/294/21
f 153/295/93 141/296/153 140/297/154 151/298/93
f 149/299/92 130/300/155 132/301/156 150/302/92
f 150/303/20 132/304/157 131/305/158 148/306/20
f 146/307/19 121/308/159 123/309/160 147/310/19
f 147/311/91 123/312/161 122/313/162 145/314/91
f 143/315/163 152/291/21 153/294/21 144/316/164
f 144/317/165 153/295/93 151/298/93 142/318/166
f 133/319/147 136/320/167 138/321/168 135/322/148
f 135/323/149 138/324/169 137/325/170 134/326/150
f 139/327/151 131/328/158 132/329/157 141/330/152
f 141/331/153 132/332/156 130/333/155 140/334/154
f 125/335/171 127/336/172 129/337/173 126/338/174
f 126/339/175 129/340/176 128/341/177 124/342/178
f 142/343/166 122/344/162 123/345/161 144/346/165
f 144/347/164 123/348/160 121/349/159 143/350/163
f 127/351/172 146/307/19 147/310/19 129/352/173
f 129/353/176 147/311/91 145/314/91 128/354/177
f 124/355/178 155/283/94 156/286/94 126/356/175
f 126/357/174 156/287/22 154/290/22 125/358/171
f 136/359/167 149/299/92 150/302/92 138/360/168
f 138/361/169 150/303/20 148/306/20 137/362/170
f 2/363/2 14/5/2 145/8/2 122/364/2
