# Blender v3.4.1 OBJ File: 'Platformer_Pack_Export_FREE.blend'
# www.blender.org
mtllib railing_corner_single_green.mtl
o railing_corner_single_green
v -0.899999 0.000000 -0.841421
v -0.899999 1.000000 -0.841421
v -0.841421 0.000000 -0.899999
v -0.841421 1.000000 -0.899999
v -0.758578 0.000000 -0.899999
v -0.758578 1.000000 -0.899999
v -0.699999 0.000000 -0.841421
v -0.699999 1.000000 -0.841421
v -0.699999 0.000000 -0.758578
v -0.699999 1.000000 -0.758578
v -0.758578 0.000000 -0.699999
v -0.758578 1.000000 -0.699999
v -0.841421 0.000000 -0.699999
v -0.841421 1.000000 -0.699999
v -0.899999 0.000000 -0.758578
v -0.899999 1.000000 -0.758578
v 0.699999 0.000000 -0.841421
v 0.699999 1.000000 -0.841421
v 0.758578 0.000000 -0.899999
v 0.758578 1.000000 -0.899999
v 0.841421 0.000000 -0.899999
v 0.841421 1.000000 -0.899999
v 0.899999 0.000000 -0.841421
v 0.899999 1.000000 -0.841421
v 0.899999 0.000000 -0.758578
v 0.899999 1.000000 -0.758578
v 0.841421 0.000000 -0.699999
v 0.841421 1.000000 -0.699999
v 0.758578 0.000000 -0.699999
v 0.758578 1.000000 -0.699999
v 0.699999 0.000000 -0.758578
v 0.699999 1.000000 -0.758578
v -0.899999 0.000000 0.758580
v -0.899999 1.000000 0.758580
v -0.841421 0.000000 0.700001
v -0.841421 1.000000 0.700001
v -0.758578 0.000000 0.700001
v -0.758578 1.000000 0.700001
v -0.699999 0.000000 0.758580
v -0.699999 1.000000 0.758580
v -0.699999 0.000000 0.841423
v -0.699999 1.000000 0.841423
v -0.758578 0.000000 0.900001
v -0.758578 1.000000 0.900001
v -0.841421 0.000000 0.900001
v -0.841421 1.000000 0.900001
v -0.899999 0.000000 0.841423
v -0.899999 1.000000 0.841423
v -0.649999 1.000000 -0.579289
v -0.579289 1.000000 -0.649999
v -0.549999 1.050000 -0.599999
v -0.599999 1.050000 -0.549999
v -0.599999 1.150000 -0.549999
v -0.549999 1.150000 -0.599999
v -0.579289 1.200000 -0.649999
v -0.649999 1.200000 -0.579289
v -0.949999 1.000000 -0.879288
v -0.999999 1.050000 -0.949999
v -0.949999 1.050000 -0.999999
v -0.879289 1.000000 -0.949999
v -0.879289 1.200000 -0.949999
v -0.949999 1.150000 -0.999999
v -0.999999 1.150000 -0.949999
v -0.949999 1.200000 -0.879288
v 1.000001 1.050000 -0.599999
v 1.000001 1.000000 -0.649999
v 1.000001 1.200000 -0.649999
v 1.000001 1.150000 -0.599999
v 1.000001 1.150000 -0.999999
v 1.000001 1.200000 -0.949999
v 1.000001 1.000000 -0.949999
v 1.000001 1.050000 -0.999999
v -0.999999 1.050000 1.000001
v -0.949999 1.000000 1.000001
v -0.649999 1.000000 1.000001
v -0.599999 1.050000 1.000001
v -0.599999 1.150000 1.000001
v -0.649999 1.200000 1.000001
v -0.949999 1.200000 1.000001
v -0.999999 1.150000 1.000001
vt 0.320240 0.898486
vt 0.320240 0.974724
vt 0.322445 0.974724
vt 0.322445 0.898486
vt 0.322445 0.974725
vt 0.322445 0.898486
vt 0.320240 0.974725
vt 0.320240 0.898486
vt 0.317121 0.974725
vt 0.317121 0.898486
vt 0.314916 0.974725
vt 0.314916 0.898486
vt 0.314916 0.974724
vt 0.314916 0.898486
vt 0.317121 0.974724
vt 0.317121 0.898486
vt 0.320240 0.898486
vt 0.320240 0.974725
vt 0.322445 0.974725
vt 0.322445 0.898486
vt 0.322445 0.974725
vt 0.322445 0.898486
vt 0.320240 0.974725
vt 0.320240 0.898486
vt 0.317121 0.974725
vt 0.317121 0.898486
vt 0.314916 0.974725
vt 0.314916 0.898486
vt 0.314916 0.974725
vt 0.314916 0.898486
vt 0.317121 0.974725
vt 0.317121 0.898486
vt 0.291257 0.898486
vt 0.291257 0.974724
vt 0.293462 0.974724
vt 0.293462 0.898486
vt 0.293462 0.974725
vt 0.293462 0.898486
vt 0.291257 0.974725
vt 0.291257 0.898486
vt 0.288138 0.974725
vt 0.288138 0.898486
vt 0.285933 0.974725
vt 0.285933 0.898486
vt 0.285933 0.974724
vt 0.285933 0.898486
vt 0.288138 0.974724
vt 0.288138 0.898486
vt 0.472703 0.164028
vt 0.472703 0.149997
vt 0.399295 0.149997
vt 0.399295 0.164028
vt 0.458748 0.202294
vt 0.470041 0.202294
vt 0.399295 0.202294
vt 0.399295 0.202294
vt 0.399295 0.195278
vt 0.399295 0.195278
vt 0.459527 0.195278
vt 0.474586 0.195278
vt 0.472703 0.202294
vt 0.461410 0.202294
vt 0.472703 0.202294
vt 0.461410 0.202294
vt 0.457645 0.149997
vt 0.457645 0.164028
vt 0.399295 0.164028
vt 0.399295 0.149997
vt 0.461410 0.111732
vt 0.472703 0.111732
vt 0.472703 0.111732
vt 0.461410 0.111732
vt 0.474586 0.149997
vt 0.474586 0.164028
vt 0.474586 0.164028
vt 0.474586 0.149997
vt 0.459527 0.164028
vt 0.459527 0.149997
vt 0.459527 0.149997
vt 0.459527 0.164028
vt 0.458748 0.111732
vt 0.459527 0.118747
vt 0.457645 0.118747
vt 0.457645 0.195278
vt 0.459527 0.195278
vt 0.470041 0.111732
vt 0.472703 0.118747
vt 0.474586 0.118747
vt 0.474586 0.195278
vt 0.472703 0.195278
vt 0.474586 0.118747
vt 0.459527 0.118747
vt 0.399295 0.118747
vt 0.399295 0.111732
vt 0.399295 0.118747
vt 0.399295 0.111732
vn -0.9239 0.0000 -0.3827
vn -0.3827 0.0000 -0.9239
vn 0.3827 0.0000 -0.9239
vn 0.9239 0.0000 -0.3827
vn 0.9239 0.0000 0.3827
vn 0.3827 0.0000 0.9239
vn -0.3827 0.0000 0.9239
vn -0.9239 0.0000 0.3827
vn 0.0000 -1.0000 0.0000
vn -0.8218 0.4349 -0.3681
vn -0.8218 -0.4349 -0.3681
vn -0.9239 -0.3827 0.0000
vn -0.9239 0.3827 0.0000
vn 0.2465 0.9631 0.1079
vn -0.3812 0.9202 -0.0892
vn -0.3827 0.9239 -0.0000
vn 0.3827 0.9239 -0.0000
vn 0.0000 0.0000 1.0000
vn 1.0000 0.0000 0.0000
vn -0.0892 0.9202 -0.3812
vn 0.1079 0.9631 0.2465
vn 0.0000 0.9239 0.3827
vn -0.0000 0.9239 -0.3827
vn 0.8272 -0.4566 0.3276
vn 0.8272 0.4566 0.3276
vn 0.9239 0.3827 -0.0000
vn 0.9239 -0.3827 -0.0000
vn 0.1079 -0.9631 0.2465
vn -0.0892 -0.9202 -0.3812
vn -0.0000 -0.9239 -0.3827
vn 0.0000 -0.9239 0.3827
vn -0.3681 -0.4349 -0.8218
vn -0.3681 0.4349 -0.8218
vn -0.0000 0.3827 -0.9239
vn -0.0000 -0.3827 -0.9239
vn 0.3276 0.4566 0.8272
vn 0.3276 -0.4566 0.8272
vn 0.0000 -0.3827 0.9239
vn 0.0000 0.3827 0.9239
vn 0.2465 -0.9631 0.1079
vn -0.3812 -0.9202 -0.0892
vn 0.3827 -0.9239 -0.0000
vn -0.3827 -0.9239 0.0000
usemtl platformer
s 1
f 1/1/1 2/2/1 4/3/2 3/4/2
f 3/4/2 4/3/2 6/5/3 5/6/3
f 5/6/3 6/5/3 8/7/4 7/8/4
f 7/8/4 8/7/4 10/9/5 9/10/5
f 9/10/5 10/9/5 12/11/6 11/12/6
f 11/12/6 12/11/6 14/13/7 13/14/7
f 13/14/7 14/13/7 16/15/8 15/16/8
f 15/16/8 16/15/8 2/2/1 1/1/1
f 1/1/9 3/4/9 5/6/9 7/8/9 9/10/9 11/12/9 13/14/9 15/16/9
f 17/17/1 18/18/1 20/19/2 19/20/2
f 19/20/2 20/19/2 22/21/3 21/22/3
f 21/22/3 22/21/3 24/23/4 23/24/4
f 23/24/4 24/23/4 26/25/5 25/26/5
f 25/26/5 26/25/5 28/27/6 27/28/6
f 27/28/6 28/27/6 30/29/7 29/30/7
f 29/30/7 30/29/7 32/31/8 31/32/8
f 31/32/8 32/31/8 18/18/1 17/17/1
f 17/17/9 19/20/9 21/22/9 23/24/9 25/26/9 27/28/9 29/30/9 31/32/9
f 33/33/1 34/34/1 36/35/2 35/36/2
f 35/36/2 36/35/2 38/37/3 37/38/3
f 37/38/3 38/37/3 40/39/4 39/40/4
f 39/40/4 40/39/4 42/41/5 41/42/5
f 41/42/5 42/41/5 44/43/6 43/44/6
f 43/44/6 44/43/6 46/45/7 45/46/7
f 45/46/7 46/45/7 48/47/8 47/48/8
f 47/48/8 48/47/8 34/34/1 33/33/1
f 33/33/9 35/36/9 37/38/9 39/40/9 41/42/9 43/44/9 45/46/9 47/48/9
f 63/49/10 58/50/11 73/51/12 80/52/13
f 56/53/14 64/54/15 79/55/16 78/56/17
f 80/57/18 77/58/18 78/56/18 79/55/18
f 68/59/19 69/60/19 70/61/19 67/62/19
f 61/63/20 55/64/21 67/62/22 70/61/23
f 52/65/24 53/66/25 77/67/26 76/68/27
f 50/69/28 60/70/29 71/71/30 66/72/31
f 59/73/32 62/74/33 69/75/34 72/76/35
f 54/77/36 51/78/37 65/79/38 68/80/39
f 49/81/40 50/69/28 51/82/37 52/83/24
f 53/84/25 54/85/36 55/64/21 56/53/14
f 57/86/41 58/87/11 59/88/32 60/70/29
f 61/63/20 62/89/33 63/90/10 64/54/15
f 60/70/29 50/69/28 49/81/40 57/86/41
f 51/78/37 54/77/36 53/66/25 52/65/24
f 55/64/21 61/63/20 64/54/15 56/53/14
f 62/74/33 59/73/32 58/50/11 63/49/10
f 54/85/36 68/59/39 67/62/22 55/64/21
f 71/71/30 60/70/29 59/88/32 72/91/35
f 50/69/28 66/72/31 65/92/38 51/82/37
f 63/90/10 80/57/13 79/55/16 64/54/15
f 77/58/26 53/84/25 56/53/14 78/56/17
f 52/83/24 76/93/27 75/94/42 49/81/40
f 73/95/12 58/87/11 57/86/41 74/96/43
f 69/60/34 62/89/33 61/63/20 70/61/23
f 57/86/41 49/81/40 75/94/42 74/96/43
f 72/76/19 69/75/19 68/80/19 65/79/19
f 71/71/19 72/91/19 65/92/19 66/72/19
f 76/68/18 77/67/18 80/52/18 73/51/18
f 75/94/18 76/93/18 73/95/18 74/96/18
