# Blender v3.4.1 OBJ File: 'Adventurers_2.0_Accessories_Export.blend'
# www.blender.org
mtllib shield_badge.mtl
o shield_badge
v 0.331527 0.192844 0.031487
v -0.331522 0.192844 0.031489
v 0.407681 0.192844 0.008478
v -0.407675 0.192844 0.008481
v 0.407681 0.192844 -0.095741
v -0.407675 0.192844 -0.095738
v 0.229279 0.192844 -0.046144
v 0.000009 0.192844 -0.018353
v -0.229273 0.192844 -0.046144
v 0.441306 0.192844 -0.046307
v -0.441301 0.192844 -0.046305
v 0.000009 0.321370 0.101112
v -0.441301 0.382621 -0.046305
v 0.441306 0.382621 -0.046307
v -0.407675 0.369456 0.008481
v 0.407681 0.369458 0.008478
v 0.331527 -0.000000 0.031487
v 0.307636 -0.229058 0.033468
v 0.233951 -0.332793 0.056465
v 0.130215 -0.406478 0.078397
v 0.000009 -0.430370 0.088263
v -0.130210 -0.406478 0.078397
v -0.233945 -0.332793 0.056467
v -0.307630 -0.229058 0.033469
v -0.331522 -0.000000 0.031489
v 0.407681 -0.000000 0.008478
v 0.378302 -0.258968 0.015478
v 0.287690 -0.386532 0.045338
v 0.160126 -0.477144 0.073629
v 0.000009 -0.506523 0.088263
v -0.160121 -0.477144 0.073629
v -0.287685 -0.386532 0.045340
v -0.378296 -0.258968 0.015480
v -0.407675 -0.000000 0.008481
v 0.407681 0.000000 -0.095741
v 0.378302 -0.258968 -0.087825
v 0.287690 -0.386532 -0.062632
v 0.160126 -0.477144 -0.032987
v 0.000009 -0.506523 -0.018353
v -0.160121 -0.477144 -0.032987
v -0.287685 -0.386532 -0.062630
v -0.378296 -0.258968 -0.087824
v -0.407675 0.000000 -0.095739
v 0.229279 0.000000 -0.046144
v 0.210750 -0.300822 -0.042247
v 0.000009 0.000000 -0.018353
v 0.000009 -0.316508 -0.018353
v -0.229273 0.000000 -0.046144
v -0.210744 -0.300822 -0.042247
v -0.311461 -0.410309 -0.006849
v -0.409273 -0.272049 -0.036676
v 0.441306 0.000000 -0.046307
v 0.409279 -0.272049 -0.036678
v 0.173206 -0.508121 0.026505
v 0.000009 -0.540148 0.043491
v 0.311467 -0.410309 -0.006852
v -0.173201 -0.508121 0.026505
v -0.441301 0.000000 -0.046306
v -0.162237 0.327192 0.085415
v 0.162238 0.327192 0.085415
v -0.331522 0.350368 0.031489
v 0.331527 0.350369 0.031487
v 0.296407 0.192844 0.017772
v 0.145052 0.192844 0.065988
v -0.145050 0.192844 0.065988
v -0.296401 0.192844 0.017774
v 0.145052 -0.000000 0.065988
v 0.000009 -0.000000 0.080021
v -0.296401 -0.000000 0.017774
v 0.296407 -0.000000 0.017772
v -0.145050 -0.000000 0.065988
v 0.145052 0.287228 0.065988
v 0.000009 0.282022 0.080021
v 0.000009 0.192844 0.080021
v 0.141344 -0.195583 0.067141
v 0.209168 -0.302841 0.040104
v 0.275047 -0.210095 0.019543
v -0.141340 -0.195583 0.067141
v -0.209162 -0.302841 0.040106
v -0.116416 -0.368721 0.059713
v 0.000009 -0.390081 0.068534
v 0.000009 -0.195583 0.077470
v 0.116421 -0.368721 0.059713
v -0.275041 -0.210095 0.019544
v -0.145050 0.287228 0.065988
v -0.296401 0.307948 0.017774
v 0.296407 0.307950 0.017772
v -0.407675 0.444032 -0.097963
v -0.441300 0.456376 -0.048854
v -0.229273 0.407780 -0.047343
v 0.229279 0.407780 -0.047343
v 0.000009 0.395924 -0.019211
v 0.407681 0.444036 -0.097966
v 0.162239 0.404625 0.084355
v 0.000009 0.399240 0.100207
v -0.407675 0.444736 0.006277
v 0.407681 0.444739 0.006274
v 0.441307 0.456376 -0.048855
v 0.331528 0.426296 0.029805
v -0.162237 0.404624 0.084355
v -0.331521 0.426294 0.029806
v -0.407675 0.481441 -0.040450
v 0.407681 0.481444 -0.040451
v 0.272602 0.453284 -0.000845
v -0.272596 0.453283 -0.000844
v 0.097583 0.437352 0.047058
v 0.000009 0.435066 0.056403
v -0.097574 0.437352 0.047058
v -0.046364 0.082715 0.003851
v 0.046371 0.082715 0.003851
v 0.046371 -0.082746 0.003851
v -0.046364 -0.082746 0.003851
v -0.046364 0.037791 -0.144768
v 0.046371 0.037791 -0.144768
v 0.046371 0.082715 -0.110452
v -0.046364 0.082715 -0.110452
v -0.139099 -0.082746 0.003851
v 0.046371 -0.037823 -0.144768
v -0.184023 -0.037823 0.003851
v -0.046364 -0.037823 -0.144768
v -0.139099 0.082715 0.003851
v -0.184023 0.037791 0.003851
v -0.139099 -0.082746 -0.073349
v -0.184023 -0.037823 -0.073349
v -0.139099 -0.037823 -0.107664
v -0.139099 0.082715 -0.073349
v -0.139099 0.037791 -0.107664
v -0.184023 0.037791 -0.073349
v 0.139106 -0.082746 0.003851
v 0.184029 -0.037823 0.003851
v -0.046364 -0.082746 -0.110452
v 0.139106 0.082715 0.003851
v 0.046371 -0.082746 -0.110452
v 0.184029 0.037791 0.003851
v 0.139106 -0.082746 -0.073349
v 0.139106 -0.037823 -0.107664
v 0.184029 -0.037823 -0.073349
v 0.139106 0.082715 -0.073349
v 0.184029 0.037791 -0.073349
v 0.139106 0.037791 -0.107664
vt 0.462135 0.666577
vt 0.464881 0.659548
vt 0.464881 0.637828
vt 0.462135 0.637828
vt 0.392800 0.665346
vt 0.395547 0.665346
vt 0.395547 0.685560
vt 0.392800 0.687066
vt 0.455916 0.637828
vt 0.462135 0.637828
vt 0.462135 0.658042
vt 0.455916 0.655857
vt 0.395547 0.639282
vt 0.410116 0.635133
vt 0.410116 0.610534
vt 0.395547 0.610534
vt 0.428841 0.633776
vt 0.428841 0.610534
vt 0.447565 0.635133
vt 0.447565 0.610534
vt 0.402550 0.642540
vt 0.394309 0.636505
vt 0.397953 0.635401
vt 0.405323 0.640797
vt 0.391636 0.615339
vt 0.391636 0.604119
vt 0.395564 0.604119
vt 0.395564 0.615339
vt 0.446867 0.588743
vt 0.465801 0.587395
vt 0.461874 0.589863
vt 0.444943 0.591068
vt 0.394309 0.628665
vt 0.397953 0.627562
vt 0.428718 0.589082
vt 0.428718 0.591371
vt 0.463129 0.636505
vt 0.454888 0.642540
vt 0.452115 0.640797
vt 0.459484 0.635401
vt 0.465801 0.604119
vt 0.465801 0.615339
vt 0.461874 0.615339
vt 0.461874 0.604119
vt 0.391636 0.594954
vt 0.395564 0.597422
vt 0.403717 0.589542
vt 0.401766 0.607852
vt 0.395547 0.614731
vt 0.397946 0.586119
vt 0.439475 0.569237
vt 0.428841 0.566502
vt 0.428841 0.557787
vt 0.441917 0.561149
vt 0.418207 0.569237
vt 0.415764 0.561149
vt 0.409735 0.577670
vt 0.405346 0.571519
vt 0.455916 0.607852
vt 0.453965 0.589542
vt 0.459735 0.586119
vt 0.462135 0.614731
vt 0.447947 0.577670
vt 0.452336 0.571519
vt 0.403404 0.568798
vt 0.395416 0.584622
vt 0.397946 0.586119
vt 0.405346 0.571519
vt 0.464881 0.614731
vt 0.462265 0.584622
vt 0.459735 0.586119
vt 0.462135 0.614731
vt 0.442986 0.557603
vt 0.428841 0.553938
vt 0.428841 0.557787
vt 0.441917 0.561149
vt 0.454278 0.568798
vt 0.452336 0.571519
vt 0.414696 0.557603
vt 0.415764 0.561149
vt 0.392800 0.614731
vt 0.395547 0.614731
vt 0.459735 0.558824
vt 0.446052 0.554034
vt 0.447565 0.587436
vt 0.462135 0.587436
vt 0.428841 0.552239
vt 0.428841 0.587436
vt 0.411629 0.554034
vt 0.410116 0.587436
vt 0.397946 0.558824
vt 0.395547 0.587436
vt 0.452336 0.544225
vt 0.441917 0.533854
vt 0.428841 0.530492
vt 0.415764 0.533854
vt 0.405346 0.544225
vt 0.397946 0.613637
vt 0.395547 0.642249
vt 0.392800 0.642249
vt 0.395416 0.612140
vt 0.415764 0.588667
vt 0.405346 0.599037
vt 0.403404 0.596316
vt 0.414696 0.585121
vt 0.452336 0.599037
vt 0.441917 0.588667
vt 0.442986 0.585121
vt 0.454278 0.596316
vt 0.428841 0.585304
vt 0.428841 0.581456
vt 0.459735 0.613637
vt 0.462265 0.612140
vt 0.462135 0.642249
vt 0.464881 0.642249
vt 0.462135 0.610534
vt 0.410572 0.588743
vt 0.412495 0.591068
vt 0.401766 0.637828
vt 0.395547 0.637828
vt 0.392800 0.637828
vt 0.395547 0.637828
vt 0.464881 0.665346
vt 0.462135 0.665346
vt 0.463129 0.628665
vt 0.459484 0.627562
vt 0.464881 0.687066
vt 0.462135 0.685560
vt 0.462135 0.639282
vt 0.415591 0.653205
vt 0.428841 0.652538
vt 0.428841 0.661450
vt 0.415591 0.662066
vt 0.465801 0.594954
vt 0.461874 0.597422
vt 0.462135 0.666658
vt 0.455916 0.664547
vt 0.464881 0.695507
vt 0.462135 0.694176
vt 0.442090 0.653205
vt 0.442090 0.662067
vt 0.395547 0.694175
vt 0.392800 0.695507
vt 0.395547 0.658041
vt 0.401766 0.655857
vt 0.401766 0.664547
vt 0.395547 0.666657
vt 0.392800 0.659548
vt 0.392800 0.667989
vt 0.395547 0.666577
vt 0.414155 0.646827
vt 0.415697 0.644630
vt 0.443284 0.646827
vt 0.441742 0.644630
vt 0.428718 0.648217
vt 0.428718 0.645873
vt 0.391636 0.587395
vt 0.395564 0.589863
vt 0.690687 0.630586
vt 0.678841 0.646211
vt 0.678841 0.615716
vt 0.690687 0.600091
vt 0.703047 0.679230
vt 0.690687 0.660474
vt 0.690687 0.646211
vt 0.703047 0.661836
vt 0.690384 0.587517
vt 0.695923 0.586934
vt 0.701303 0.600949
vt 0.688348 0.576979
vt 0.703047 0.622258
vt 0.690687 0.615716
vt 0.656379 0.585324
vt 0.661759 0.571309
vt 0.667298 0.571892
vt 0.669333 0.545729
vt 0.667298 0.587517
vt 0.669333 0.561354
vt 0.678841 0.573752
vt 0.678841 0.603142
vt 0.678841 0.587517
vt 0.678841 0.558127
vt 0.688348 0.545729
vt 0.690384 0.571892
vt 0.666995 0.600091
vt 0.654634 0.606633
vt 0.666995 0.646211
vt 0.666995 0.615716
vt 0.678841 0.631341
vt 0.678841 0.661836
vt 0.666995 0.630586
vt 0.654634 0.646211
vt 0.654634 0.663604
vt 0.666995 0.644849
vt 0.690687 0.644849
vt 0.678841 0.659687
vt 0.678841 0.675312
vt 0.666995 0.660474
vt 0.436810 0.693330
vt 0.428841 0.693069
vt 0.428841 0.688968
vt 0.442090 0.689585
vt 0.451103 0.695153
vt 0.395547 0.698376
vt 0.455916 0.692065
vt 0.464881 0.667989
vt 0.462135 0.670859
vt 0.406579 0.695153
vt 0.415591 0.689584
vt 0.420872 0.693330
vt 0.436810 0.665812
vt 0.428841 0.661071
vt 0.428841 0.665551
vt 0.420872 0.665812
vt 0.451103 0.667635
vt 0.447565 0.662428
vt 0.462135 0.698377
vt 0.410116 0.662428
vt 0.406579 0.667635
vt 0.395547 0.670858
vt 0.401766 0.692065
vt 0.815063 0.550608
vt 0.797751 0.550608
vt 0.797751 0.589795
vt 0.815063 0.589795
vt 0.840759 0.615109
vt 0.840759 0.632142
vt 0.840759 0.632142
vt 0.840759 0.615109
vt 0.815063 0.696643
vt 0.797751 0.696643
vt 0.797751 0.696643
vt 0.815063 0.696643
vt 0.780443 0.696643
vt 0.780443 0.696643
vt 0.772057 0.615109
vt 0.772057 0.632142
vt 0.772057 0.632142
vt 0.772057 0.615109
vt 0.815063 0.615109
vt 0.815063 0.632142
vt 0.832373 0.632142
vt 0.832373 0.615109
vt 0.797751 0.615109
vt 0.797751 0.632142
vt 0.832373 0.550608
vt 0.832373 0.589795
vt 0.780443 0.550608
vt 0.772057 0.589795
vt 0.780443 0.589795
vt 0.780443 0.657456
vt 0.772057 0.657456
vt 0.797751 0.657456
vt 0.797751 0.550608
vt 0.780443 0.550608
vt 0.840759 0.589795
vt 0.832373 0.696643
vt 0.840759 0.657456
vt 0.832373 0.657456
vt 0.772057 0.589795
vt 0.780443 0.615109
vt 0.780443 0.632142
vt 0.772057 0.657456
vt 0.815063 0.657456
vt 0.832373 0.550608
vt 0.840759 0.589795
vt 0.832373 0.696643
vt 0.840759 0.657456
vt 0.815063 0.550608
vn 0.8293 -0.0121 -0.5587
vn 0.8307 -0.0068 -0.5566
vn 0.8293 -0.0014 -0.5587
vn -0.8523 -0.0000 0.5231
vn -0.6106 -0.0000 0.7919
vn -0.6081 0.0115 0.7938
vn -0.8517 0.0095 0.5239
vn 0.2892 -0.0000 0.9573
vn 0.6106 -0.0000 0.7919
vn 0.6081 0.0115 0.7938
vn 0.2934 0.0128 0.9559
vn 0.2697 -0.0071 -0.9629
vn 0.2015 -0.0061 -0.9795
vn 0.1952 -0.0030 -0.9808
vn 0.2688 -0.0035 -0.9632
vn -0.0000 -0.0049 -1.0000
vn -0.0000 -0.0025 -1.0000
vn -0.2015 -0.0061 -0.9795
vn -0.1953 -0.0030 -0.9807
vn -0.1426 0.3810 0.9135
vn -0.2723 0.2173 0.9373
vn -0.2938 0.1806 0.9387
vn -0.1518 0.3741 0.9149
vn -0.3652 0.0222 0.9307
vn -0.3638 -0.0000 0.9315
vn -0.3653 0.0235 0.9306
vn -0.2385 -0.5056 0.8291
vn -0.3229 -0.5225 0.7891
vn -0.1895 -0.4940 0.8485
vn 0.0000 -0.4724 0.8814
vn 0.2723 0.2173 0.9373
vn 0.1426 0.3810 0.9135
vn 0.1518 0.3741 0.9149
vn 0.2938 0.1806 0.9387
vn 0.3638 -0.0000 0.9315
vn 0.3652 0.0222 0.9307
vn 0.3653 0.0235 0.9306
vn -0.2603 0.0144 0.9654
vn -0.2777 -0.0059 0.9607
vn -0.6151 -0.0260 0.7880
vn -0.6151 -0.1497 0.7741
vn 0.1453 -0.0014 0.9894
vn 0.0000 -0.0147 0.9999
vn 0.1461 -0.0012 0.9893
vn -0.1453 -0.0014 0.9894
vn -0.1461 -0.0012 0.9893
vn -0.2285 0.0262 0.9732
vn -0.2293 0.0267 0.9730
vn 0.2777 -0.0059 0.9607
vn 0.2603 0.0144 0.9654
vn 0.6151 -0.1497 0.7741
vn 0.6151 -0.0260 0.7880
vn 0.2285 0.0262 0.9732
vn 0.2294 0.0267 0.9730
vn -0.5252 -0.6790 -0.5130
vn -0.7509 -0.3651 -0.5503
vn -0.7636 -0.3349 -0.5521
vn -0.5470 -0.6594 -0.5157
vn 0.8293 -0.0564 -0.5559
vn 0.7509 -0.3651 -0.5503
vn 0.7636 -0.3349 -0.5521
vn 0.8294 -0.0578 -0.5557
vn 0.2580 -0.8317 -0.4917
vn 0.0000 -0.8774 -0.4797
vn 0.2827 -0.8227 -0.4932
vn 0.5251 -0.6790 -0.5130
vn 0.5470 -0.6594 -0.5157
vn -0.2580 -0.8317 -0.4917
vn -0.2827 -0.8227 -0.4932
vn -0.8293 -0.0564 -0.5559
vn -0.8294 -0.0578 -0.5557
vn -0.2644 0.0004 -0.9644
vn -0.1888 -0.0004 -0.9820
vn -0.1946 -0.0000 -0.9809
vn -0.2667 0.0011 -0.9638
vn -0.0000 -0.0071 -1.0000
vn -0.0000 -0.0014 -1.0000
vn 0.1888 -0.0004 -0.9820
vn 0.1946 -0.0000 -0.9809
vn 0.2644 0.0004 -0.9644
vn 0.2667 0.0011 -0.9638
vn -0.2495 0.0063 -0.9684
vn -0.1364 -0.0039 -0.9906
vn -0.0000 -0.0111 -0.9999
vn 0.1364 -0.0039 -0.9906
vn 0.2495 0.0063 -0.9684
vn -0.8512 -0.0397 0.5233
vn -0.8100 -0.2392 0.5354
vn -0.3780 -0.7226 0.5788
vn -0.6511 -0.5262 0.5470
vn -0.6689 -0.5051 0.5454
vn -0.4052 -0.7097 0.5763
vn 0.6511 -0.5262 0.5470
vn 0.3780 -0.7226 0.5788
vn 0.4052 -0.7097 0.5763
vn 0.6689 -0.5051 0.5454
vn 0.0000 -0.8042 0.5944
vn 0.8100 -0.2392 0.5354
vn 0.8512 -0.0397 0.5233
vn -0.2688 -0.0035 -0.9632
vn 0.2385 -0.5056 0.8291
vn 0.1896 -0.4940 0.8485
vn -0.2892 -0.0000 0.9573
vn -0.8293 -0.0014 -0.5588
vn -0.8293 -0.0014 -0.5587
vn 0.8523 0.0000 0.5231
vn 0.8517 0.0095 0.5240
vn -0.2697 -0.0071 -0.9629
vn -0.1950 0.0148 0.9807
vn 0.0000 0.0127 0.9999
vn -0.2059 0.0150 0.9785
vn 0.4797 0.4145 0.7733
vn 0.2939 0.0213 0.9556
vn 0.7817 0.3072 0.5427
vn 0.1950 0.0148 0.9807
vn 0.2059 0.0150 0.9785
vn -0.4797 0.4145 0.7733
vn -0.7817 0.3072 0.5427
vn -0.2934 0.0128 0.9559
vn -0.2939 0.0213 0.9556
vn -0.8307 -0.0068 -0.5567
vn -0.8272 -0.0194 -0.5615
vn -0.8293 -0.0121 -0.5587
vn -0.0536 0.4271 0.9026
vn -0.0591 0.4253 0.9031
vn 0.0536 0.4271 0.9026
vn 0.0591 0.4253 0.9031
vn -0.0000 0.4398 0.8981
vn 0.3229 -0.5225 0.7891
vn 0.2010 -0.0000 0.9796
vn 0.0000 -0.0000 1.0000
vn 0.0000 -0.0022 1.0000
vn 0.2027 -0.0043 0.9792
vn 0.3035 -0.0000 0.9528
vn 0.2064 -0.0000 0.9785
vn 0.2008 -0.0289 0.9792
vn 0.2917 -0.0562 0.9548
vn 0.3238 -0.0186 0.9459
vn 0.1341 -0.0587 0.9892
vn 0.3105 -0.0062 0.9505
vn -0.3238 -0.0186 0.9459
vn -0.2917 -0.0562 0.9548
vn -0.2008 -0.0289 0.9792
vn -0.1341 -0.0587 0.9892
vn 0.0000 -0.0498 0.9988
vn 0.0000 -0.0271 0.9996
vn -0.2027 -0.0043 0.9792
vn -0.3105 -0.0062 0.9505
vn -0.2010 -0.0000 0.9796
vn -0.3035 -0.0000 0.9528
vn -0.2064 -0.0000 0.9785
vn 0.0503 0.7888 0.6126
vn 0.0000 0.7784 0.6278
vn 0.0705 0.8068 0.5866
vn 0.0607 0.8057 0.5892
vn -0.3374 0.7403 0.5815
vn 0.0337 0.7813 0.6232
vn 0.4391 0.7532 -0.4899
vn -0.0832 0.8374 -0.5401
vn -0.0274 0.8380 -0.5450
vn -0.0607 0.8057 0.5892
vn -0.0705 0.8068 0.5866
vn -0.0503 0.7888 0.6126
vn -0.1091 0.8853 -0.4521
vn -0.0000 0.8968 -0.4424
vn -0.0000 0.8881 -0.4597
vn 0.1091 0.8853 -0.4521
vn -0.2804 0.8017 -0.5279
vn -0.2328 0.8206 -0.5219
vn 0.3374 0.7403 0.5815
vn 0.2328 0.8206 -0.5219
vn 0.2803 0.8017 -0.5279
vn 0.0832 0.8374 -0.5402
vn -0.4390 0.7532 -0.4899
vn 0.0274 0.8380 -0.5450
vn -0.0337 0.7813 0.6232
vn 0.8272 -0.0194 -0.5615
vn 0.1637 -0.5988 -0.7840
vn -0.1637 -0.5988 -0.7840
vn -0.1751 -0.3059 -0.9358
vn 0.1751 -0.3059 -0.9358
vn 0.8559 -0.3341 -0.3948
vn 0.8559 0.3341 -0.3948
vn 0.9239 0.3827 0.0000
vn 0.9239 -0.3827 -0.0000
vn 0.0000 1.0000 0.0000
vn -0.9239 -0.3827 -0.0000
vn -0.9239 0.3827 0.0000
vn -0.8559 0.3341 -0.3948
vn -0.8559 -0.3341 -0.3948
vn 0.1751 0.3059 -0.9358
vn 0.4642 0.2852 -0.8385
vn 0.4642 -0.2852 -0.8385
vn -0.1751 0.3059 -0.9358
vn 0.5691 -0.6732 -0.4723
vn -0.5691 -0.6732 -0.4723
vn -0.4642 -0.2852 -0.8385
vn -0.5691 0.6732 -0.4723
vn -0.4642 0.2852 -0.8385
vn -0.1637 0.5988 -0.7840
vn 0.0000 -1.0000 -0.0000
vn 0.5691 0.6732 -0.4723
vn -0.7071 -0.7071 -0.0000
vn -0.7071 0.7071 0.0000
vn 0.1637 0.5988 -0.7840
vn 0.7071 -0.7071 -0.0000
vn 0.7071 0.7071 0.0000
usemtl knight
s 1
f 93/1/1 14/2/2 10/3/3 5/4/3
f 11/5/4 4/6/5 15/7/6 13/8/7
f 1/9/8 3/10/9 16/11/10 62/12/11
f 88/13/12 90/14/13 9/15/14 6/16/15
f 90/14/13 92/17/16 8/18/17 9/15/14
f 92/17/16 91/19/18 7/20/19 8/18/17
f 19/21/20 18/22/21 77/23/22 76/24/23
f 17/25/24 1/26/25 63/27/25 70/28/26
f 59/29/27 61/30/28 86/31/28 85/32/29
f 18/33/21 17/25/24 70/28/26 77/34/22
f 12/35/30 59/29/27 85/32/29 73/36/30
f 24/37/31 23/38/32 79/39/33 84/40/34
f 2/41/35 25/42/36 69/43/37 66/44/35
f 1/26/25 62/45/25 87/46/25 63/27/25
f 24/47/38 25/48/39 34/49/40 33/50/41
f 20/51/42 21/52/43 30/53/43 29/54/44
f 21/52/43 22/55/45 31/56/46 30/53/43
f 23/57/47 24/47/38 33/50/41 32/58/48
f 22/55/45 23/57/47 32/58/48 31/56/46
f 17/59/49 18/60/50 27/61/51 26/62/52
f 18/60/50 19/63/53 28/64/54 27/61/51
f 19/63/53 20/51/42 29/54/44 28/64/54
f 50/65/55 51/66/56 42/67/57 41/68/58
f 52/69/59 53/70/60 36/71/61 35/72/62
f 54/73/63 55/74/64 39/75/64 38/76/65
f 53/70/60 56/77/66 37/78/67 36/71/61
f 55/74/64 57/79/68 40/80/69 39/75/64
f 56/77/66 54/73/63 38/76/65 37/78/67
f 57/79/68 50/65/55 41/68/58 40/80/69
f 51/66/56 58/81/70 43/82/71 42/67/57
f 36/83/72 45/84/73 44/85/74 35/86/75
f 45/84/73 47/87/76 46/88/77 44/85/74
f 47/87/76 49/89/78 48/90/79 46/88/77
f 49/89/78 42/91/80 43/92/81 48/90/79
f 37/93/82 38/94/83 45/84/73
f 38/94/83 39/95/84 47/87/76 45/84/73
f 39/95/84 40/96/85 49/89/78 47/87/76
f 41/97/86 42/91/80 49/89/78
f 40/96/85 41/97/86 49/89/78
f 36/83/72 37/93/82 45/84/73
f 33/98/41 34/99/40 58/100/87 51/101/88
f 31/102/89 32/103/90 50/104/91 57/105/92
f 28/106/93 29/107/94 54/108/95 56/109/96
f 30/110/97 31/102/89 57/105/92 55/111/97
f 27/112/51 28/106/93 56/109/96 53/113/98
f 29/107/94 30/110/97 55/111/97 54/108/95
f 26/114/52 27/112/51 53/113/98 52/115/99
f 32/103/90 33/98/41 51/101/88 50/104/91
f 7/20/19 5/116/100 35/86/75 44/85/74
f 5/4/3 10/3/3 52/69/59 35/72/62
f 8/18/17 7/20/19 44/85/74 46/88/77
f 60/117/101 12/35/30 73/36/30 72/118/102
f 2/119/103 4/120/5 34/49/40 25/48/39
f 9/15/14 8/18/17 46/88/77 48/90/79
f 11/121/104 6/122/105 43/82/71 58/81/70
f 3/10/9 1/9/8 17/59/49 26/62/52
f 10/123/106 3/124/9 26/114/52 52/115/99
f 6/16/15 9/15/14 48/90/79 43/92/81
f 25/42/36 24/125/31 84/126/34 69/43/37
f 4/6/5 11/5/4 58/100/87 34/99/40
f 3/124/9 10/123/106 14/127/107 16/128/10
f 91/19/18 93/129/108 5/116/100 7/20/19
f 59/130/109 12/131/110 95/132/110 100/133/111
f 61/134/35 2/41/35 66/44/35 86/135/35
f 62/12/11 16/11/10 97/136/112 99/137/113
f 16/128/10 14/127/107 98/138/114 97/139/112
f 60/140/115 62/12/11 99/137/113 94/141/116
f 13/8/7 15/7/6 96/142/117 89/143/118
f 15/144/6 61/145/119 101/146/120 96/147/117
f 12/131/110 60/140/115 94/141/116 95/132/110
f 61/145/119 59/130/109 100/133/111 101/146/120
f 13/148/121 89/149/122 88/150/123
f 20/151/124 19/21/20 76/24/23 83/152/125
f 23/38/32 22/153/126 80/154/127 79/39/33
f 22/153/126 21/155/128 81/156/128 80/154/127
f 62/157/129 60/117/101 72/118/102 87/158/129
f 4/120/5 2/119/103 61/145/119 15/144/6
f 21/155/128 20/151/124 83/152/125 81/156/128
f 64/159/130 74/160/131 68/161/132 67/162/133
f 87/163/134 72/164/135 64/165/130 63/166/134
f 75/167/136 76/168/137 77/169/138
f 83/170/139 76/168/137 75/167/136
f 75/167/136 77/169/138 70/171/140 67/172/133
f 84/173/141 79/174/142 78/175/143
f 64/165/130 67/172/133 70/171/140 63/166/134
f 78/175/143 79/174/142 80/176/144
f 78/177/143 80/178/144 81/179/145 82/180/146
f 82/181/146 81/182/145 83/183/139 75/184/136
f 71/185/147 69/186/148 84/173/141 78/175/143
f 65/187/149 71/188/147 68/189/132 74/190/131
f 68/189/132 71/188/147 78/177/143 82/180/146
f 65/191/149 66/192/150 69/186/148 71/185/147
f 86/193/150 66/192/150 65/191/149 85/194/151
f 75/184/136 67/162/133 68/161/132 82/181/146
f 64/159/130 72/195/135 73/196/131 74/160/131
f 65/187/149 74/190/131 73/197/131 85/198/151
f 106/199/152 107/200/153 95/201/153 94/202/154
f 104/203/155 106/199/152 94/202/154
f 89/143/118 96/142/117 102/204/156
f 99/205/157 97/139/112 104/203/155
f 98/206/158 93/1/159 103/207/160
f 105/208/161 102/204/156 96/142/117
f 100/209/162 108/210/163 105/208/161
f 106/211/164 92/212/165 107/213/166
f 108/214/167 107/213/166 92/212/165
f 103/207/160 93/1/159 104/215/168
f 91/216/169 92/212/165 106/211/164
f 95/201/153 107/200/153 108/210/163 100/209/162
f 97/139/112 98/138/114 103/217/170
f 93/1/159 91/216/169 104/215/168
f 90/218/171 105/219/172 108/214/167
f 88/150/173 89/149/174 102/220/175
f 104/215/168 91/216/169 106/211/164
f 92/212/165 90/218/171 108/214/167
f 90/218/171 88/150/173 105/219/172
f 99/205/157 104/203/155 94/202/154
f 101/221/176 100/209/162 105/208/161
f 88/150/173 102/220/175 105/219/172
f 101/221/176 105/208/161 96/142/117
f 98/206/177 14/2/2 93/1/1
f 13/148/121 88/150/123 6/122/105 11/121/104
f 97/139/112 103/217/170 104/203/155
f 133/222/178 131/223/179 120/224/180 118/225/181
f 137/226/182 139/227/183 134/228/184 130/229/185
f 115/230/186 116/231/186 109/232/186 110/233/186
f 116/231/186 126/234/186 121/235/186 109/232/186
f 119/236/187 122/237/188 128/238/189 124/239/190
f 118/240/181 114/241/191 140/242/192 136/243/193
f 120/244/180 113/245/194 114/241/191 118/240/181
f 135/246/195 133/222/178 118/225/181 136/247/193
f 123/248/196 124/249/190 125/250/197
f 126/234/198 127/251/199 128/252/189
f 126/234/198 116/231/200 113/253/194 127/251/199
f 123/248/201 131/223/201 112/254/201 117/255/201
f 135/246/195 136/247/193 137/256/182
f 138/257/202 139/258/183 140/259/192
f 123/248/196 117/255/203 119/260/187 124/249/190
f 125/261/197 127/262/199 113/245/194 120/244/180
f 121/235/204 126/234/198 128/252/189 122/263/188
f 127/262/199 125/261/197 124/239/190 128/238/189
f 131/223/179 123/248/196 125/250/197 120/224/180
f 115/230/205 138/257/202 140/259/192 114/264/191
f 139/227/183 137/226/182 136/243/193 140/242/192
f 129/265/206 135/246/195 137/256/182 130/266/185
f 138/257/202 132/267/207 134/268/184 139/258/183
f 131/223/201 133/222/201 111/269/201 112/254/201
f 138/257/186 115/230/186 110/233/186 132/267/186
f 116/231/200 115/230/205 114/264/191 113/253/194
f 133/222/201 135/246/201 129/265/201 111/269/201
