# Blender v3.4.1 OBJ File: 'Adventurers_2.0_Accessories_Export.blend'
# www.blender.org
mtllib smokebomb.mtl
o smokebomb
v -0.026377 0.209669 -0.036340
v -0.042698 0.209669 0.013890
v 0.000030 0.209669 0.044934
v 0.042759 0.209669 0.013890
v 0.026438 0.209669 -0.036340
v 0.000029 0.251734 0.000006
v 0.029487 0.238298 -0.040540
v -0.029430 0.238298 -0.040540
v -0.047636 0.238298 0.015493
v 0.000029 0.238298 0.050124
v 0.047694 0.238298 0.015493
v -0.082929 0.202361 0.000005
v -0.067086 0.202361 -0.048755
v -0.025609 0.202361 -0.078890
v 0.082981 0.202361 0.000005
v 0.067138 0.202361 -0.048755
v 0.025660 0.202361 -0.078890
v 0.067138 0.202361 0.048765
v 0.025660 0.202361 0.078900
v -0.067086 0.202361 0.048765
v -0.025609 0.202361 0.078900
v 0.091913 0.143080 -0.066781
v 0.084084 -0.146083 -0.061092
v 0.113612 0.143079 -0.000003
v 0.103933 -0.146083 -0.000002
v 0.091914 0.143079 0.066777
v 0.084084 -0.146083 0.061087
v 0.035108 0.143080 0.108047
v 0.032118 -0.146083 0.098842
v -0.035106 0.143082 0.108044
v -0.032115 -0.146083 0.098842
v -0.091907 0.143084 0.066773
v -0.084081 -0.146083 0.061087
v -0.113602 0.143085 -0.000003
v -0.103930 -0.146083 -0.000002
v -0.091906 0.143085 -0.066777
v -0.084081 -0.146083 -0.061092
v -0.035105 0.143084 -0.108047
v -0.032115 -0.146083 -0.098847
v 0.035107 0.143082 -0.108050
v 0.032118 -0.146083 -0.098847
v 0.147663 0.038885 -0.107285
v 0.147663 -0.038878 -0.107285
v 0.182521 0.038885 -0.000002
v 0.182521 -0.038878 -0.000002
v 0.147663 0.038885 0.107280
v 0.147663 -0.038878 0.107280
v 0.056403 0.038885 0.173584
v 0.056403 -0.038878 0.173584
v -0.056400 0.038885 0.173584
v -0.056400 -0.038878 0.173584
v -0.147660 0.038885 0.107280
v -0.147660 -0.038878 0.107280
v -0.182518 0.038885 -0.000002
v -0.182518 -0.038878 -0.000002
v -0.147660 0.038885 -0.107285
v -0.147660 -0.038878 -0.107285
v -0.056400 0.038885 -0.173589
v -0.056400 -0.038878 -0.173589
v 0.056403 0.038885 -0.173589
v 0.056403 -0.038878 -0.173589
v 0.154761 0.000004 -0.112442
v 0.191295 0.000004 -0.000003
v 0.154761 0.000004 0.112437
v 0.059114 0.000004 0.181929
v -0.059112 0.000004 0.181929
v -0.154759 0.000004 0.112437
v -0.191293 0.000004 -0.000003
v -0.154759 0.000004 -0.112442
v -0.059112 0.000004 -0.181934
v 0.059114 0.000004 -0.181934
v 0.132148 0.052303 -0.096012
v 0.132148 -0.052295 -0.096012
v 0.163343 0.052303 -0.000002
v 0.163343 -0.052295 -0.000002
v 0.132148 0.052303 0.096007
v 0.132148 -0.052295 0.096007
v 0.050477 0.052303 0.155345
v 0.050477 -0.052295 0.155345
v -0.050473 0.052303 0.155345
v -0.050473 -0.052295 0.155345
v -0.132144 0.052303 0.096007
v -0.132144 -0.052295 0.096007
v -0.163339 0.052303 -0.000002
v -0.163339 -0.052295 -0.000002
v -0.132144 0.052303 -0.096012
v -0.132144 -0.052295 -0.096012
v -0.050473 0.052303 -0.155349
v -0.050473 -0.052295 -0.155349
v 0.050477 0.052303 -0.155349
v 0.050477 -0.052295 -0.155349
v 0.140094 0.066700 -0.101785
v 0.123831 0.106695 -0.089970
v 0.123840 -0.106717 -0.089977
v 0.140079 -0.066648 -0.101774
v 0.153063 0.106695 -0.000003
v 0.173165 0.066700 -0.000002
v 0.173147 -0.066648 -0.000002
v 0.153075 -0.106717 -0.000002
v 0.123831 0.106695 0.089965
v 0.140094 0.066700 0.101781
v 0.140079 -0.066648 0.101770
v 0.123840 -0.106717 0.089972
v 0.047300 0.106695 0.145568
v 0.053512 0.066700 0.164686
v 0.053506 -0.066648 0.164668
v 0.047304 -0.106717 0.145579
v -0.047298 0.106695 0.145568
v -0.053509 0.066700 0.164686
v -0.053503 -0.066648 0.164668
v -0.047301 -0.106717 0.145579
v -0.123829 0.106695 0.089965
v -0.140091 0.066700 0.101781
v -0.140076 -0.066648 0.101770
v -0.123838 -0.106717 0.089972
v -0.153061 0.106695 -0.000003
v -0.173162 0.066700 -0.000002
v -0.173143 -0.066648 -0.000002
v -0.153073 -0.106717 -0.000002
v -0.123829 0.106695 -0.089970
v -0.140091 0.066700 -0.101785
v -0.140076 -0.066648 -0.101774
v -0.123838 -0.106717 -0.089977
v -0.047298 0.106695 -0.145573
v -0.053509 0.066700 -0.164690
v -0.053503 -0.066648 -0.164673
v -0.047301 -0.106717 -0.145584
v 0.047300 0.106695 -0.145573
v 0.053512 0.066700 -0.164691
v 0.053506 -0.066648 -0.164673
v 0.047303 -0.106717 -0.145584
v -0.088792 0.179476 0.000005
v -0.027421 0.179476 0.084476
v -0.071829 0.179476 0.052211
v 0.027472 0.179476 0.084476
v 0.071880 0.179476 0.052211
v 0.027472 0.179476 -0.084465
v 0.071880 0.179476 -0.052201
v 0.088843 0.179476 0.000005
v -0.027421 0.179476 -0.084465
v -0.071829 0.179476 -0.052201
v 0.024971 0.157437 -0.076770
v 0.065334 0.157437 -0.047445
v 0.080752 0.157437 0.000005
v 0.065334 0.157437 0.047455
v -0.080701 0.157437 0.000005
v -0.065283 0.157437 -0.047445
v -0.024920 0.157437 0.076780
v -0.065283 0.157437 0.047455
v 0.024971 0.157437 0.076780
v -0.024920 0.157437 -0.076770
v 0.035941 -0.164451 -0.049469
v 0.058152 -0.164451 0.018892
v 0.000001 -0.164451 0.061141
v -0.058150 -0.164451 0.018892
v 0.000001 -0.171348 -0.000002
v -0.035938 -0.164451 -0.049469
vt 0.799550 0.367513
vt 0.815899 0.367513
vt 0.811279 0.320203
vt 0.799545 0.320203
vt 0.822366 0.339015
vt 0.813649 0.339015
vt 0.818531 0.320203
vt 0.813649 0.339253
vt 0.799545 0.339253
vt 0.799545 0.339015
vt 0.785441 0.339015
vt 0.787810 0.320203
vt 0.783208 0.367513
vt 0.773102 0.367513
vt 0.780558 0.320203
vt 0.787810 0.320203
vt 0.799550 0.367513
vt 0.799545 0.320203
vt 0.799545 0.345358
vt 0.785441 0.345358
vt 0.825998 0.367513
vt 0.825998 0.367513
vt 0.818531 0.320203
vt 0.672933 0.528271
vt 0.672933 0.528271
vt 0.670622 0.600717
vt 0.670622 0.600717
vt 0.776723 0.339015
vt 0.776723 0.345358
vt 0.776723 0.339015
vt 0.776723 0.345358
vt 0.813649 0.345597
vt 0.799545 0.345597
vt 0.822366 0.345358
vt 0.813649 0.345358
vt 0.813649 0.339015
vt 0.799545 0.339015
vt 0.799545 0.345358
vt 0.813649 0.345358
vt 0.822366 0.339015
vt 0.822366 0.345358
vt 0.785441 0.339015
vt 0.785441 0.345358
vt 0.792731 0.379972
vt 0.785441 0.370452
vt 0.776723 0.370452
vt 0.788518 0.379972
vt 0.776723 0.370452
vt 0.788518 0.379972
vt 0.785441 0.370452
vt 0.792731 0.379972
vt 0.799545 0.370452
vt 0.799545 0.379972
vt 0.799545 0.380210
vt 0.799545 0.370690
vt 0.813649 0.370690
vt 0.806361 0.379972
vt 0.813649 0.370452
vt 0.822366 0.370452
vt 0.810571 0.379972
vt 0.822366 0.370452
vt 0.813649 0.370452
vt 0.806361 0.379972
vt 0.799545 0.370452
vt 0.692842 0.528271
vt 0.697540 0.528271
vt 0.699855 0.600717
vt 0.694270 0.600717
vt 0.685237 0.528271
vt 0.677634 0.528271
vt 0.676204 0.600717
vt 0.685237 0.600717
vt 0.677634 0.528271
vt 0.685237 0.528271
vt 0.685237 0.600717
vt 0.676204 0.600717
vt 0.692842 0.528271
vt 0.694270 0.600717
vt 0.685237 0.725706
vt 0.685237 0.689313
vt 0.676204 0.689313
vt 0.670622 0.689313
vt 0.670622 0.689313
vt 0.676204 0.689313
vt 0.685237 0.689313
vt 0.694270 0.689313
vt 0.699855 0.689313
vt 0.694270 0.689313
vt 0.799545 0.379972
vt 0.842347 0.309583
vt 0.842347 0.309583
vt 0.842060 0.309060
vt 0.842060 0.309060
vt 0.798591 0.473707
vt 0.813793 0.473707
vt 0.815699 0.473449
vt 0.798591 0.473449
vt 0.815899 0.279838
vt 0.799550 0.279838
vt 0.815899 0.279739
vt 0.773102 0.333097
vt 0.799550 0.333097
vt 0.799550 0.333680
vt 0.773287 0.333680
vt 0.823188 0.395168
vt 0.813793 0.395168
vt 0.815699 0.395427
vt 0.826272 0.395427
vt 0.823188 0.473707
vt 0.826272 0.473449
vt 0.773102 0.279838
vt 0.783208 0.279838
vt 0.773102 0.279739
vt 0.825998 0.309583
vt 0.825821 0.309060
vt 0.823188 0.473707
vt 0.826272 0.473449
vt 0.783208 0.279838
vt 0.783208 0.279739
vt 0.799550 0.279739
vt 0.773102 0.333097
vt 0.756760 0.333097
vt 0.757060 0.333680
vt 0.773287 0.333680
vt 0.813793 0.395168
vt 0.823188 0.395168
vt 0.826272 0.395427
vt 0.815699 0.395427
vt 0.813793 0.473707
vt 0.815699 0.473449
vt 0.825998 0.279838
vt 0.825998 0.279838
vt 0.825998 0.279739
vt 0.825998 0.333097
vt 0.842347 0.333097
vt 0.842047 0.333680
vt 0.825813 0.333680
vt 0.798591 0.395168
vt 0.798591 0.395427
vt 0.798591 0.473707
vt 0.798591 0.473449
vt 0.773102 0.279838
vt 0.773102 0.309583
vt 0.756760 0.309583
vt 0.757047 0.309060
vt 0.773279 0.309060
vt 0.783389 0.395168
vt 0.781483 0.395427
vt 0.783389 0.473707
vt 0.781483 0.473449
vt 0.799550 0.279838
vt 0.799550 0.279739
vt 0.783208 0.279739
vt 0.825998 0.309583
vt 0.825821 0.309060
vt 0.756760 0.309583
vt 0.757047 0.309060
vt 0.773993 0.473707
vt 0.770909 0.473449
vt 0.825998 0.309821
vt 0.799550 0.309821
vt 0.799550 0.308982
vt 0.825821 0.308982
vt 0.815899 0.367513
vt 0.811279 0.320203
vt 0.773102 0.309583
vt 0.773279 0.309060
vt 0.773993 0.473707
vt 0.770909 0.473449
vt 0.773102 0.279739
vt 0.799550 0.333097
vt 0.799550 0.333680
vt 0.799550 0.309583
vt 0.799550 0.309060
vt 0.783389 0.473707
vt 0.781483 0.473449
vt 0.815899 0.279838
vt 0.799550 0.309583
vt 0.799550 0.309060
vt 0.798591 0.395168
vt 0.783389 0.395168
vt 0.781483 0.395427
vt 0.798591 0.395427
vt 0.815899 0.279739
vt 0.798591 0.435891
vt 0.798591 0.441950
vt 0.815699 0.441950
vt 0.816521 0.435891
vt 0.826272 0.441950
vt 0.827604 0.435891
vt 0.826272 0.441950
vt 0.827604 0.435891
vt 0.815699 0.441950
vt 0.816521 0.435891
vt 0.798591 0.441950
vt 0.798591 0.435891
vt 0.781483 0.441950
vt 0.780660 0.435891
vt 0.770909 0.441950
vt 0.769578 0.435891
vt 0.770909 0.441950
vt 0.769578 0.435891
vt 0.781483 0.441950
vt 0.780660 0.435891
vt 0.756760 0.333097
vt 0.757060 0.333680
vt 0.773993 0.395168
vt 0.770909 0.395427
vt 0.785045 0.333097
vt 0.798669 0.333097
vt 0.798479 0.333680
vt 0.785089 0.333680
vt 0.842347 0.333097
vt 0.842047 0.333680
vt 0.773993 0.395168
vt 0.770909 0.395427
vt 0.822092 0.345644
vt 0.836024 0.345644
vt 0.781483 0.418342
vt 0.798591 0.418342
vt 0.770909 0.418342
vt 0.770909 0.418342
vt 0.781483 0.418342
vt 0.798591 0.418342
vt 0.815699 0.418342
vt 0.826272 0.418342
vt 0.826272 0.418342
vt 0.815699 0.418342
vt 0.822307 0.298042
vt 0.836372 0.298042
vt 0.799550 0.345644
vt 0.836372 0.298042
vt 0.836024 0.345644
vt 0.822307 0.298042
vt 0.822092 0.345644
vt 0.799550 0.298042
vt 0.799550 0.345644
vt 0.776795 0.298042
vt 0.783208 0.367513
vt 0.777010 0.345644
vt 0.762733 0.298042
vt 0.773102 0.367513
vt 0.763080 0.345644
vt 0.762733 0.298042
vt 0.763080 0.345644
vt 0.776795 0.298042
vt 0.777010 0.345644
vt 0.799550 0.298042
vt 0.825998 0.333097
vt 0.825813 0.333680
vt 0.797343 0.345644
vt 0.785971 0.345644
vt 0.780558 0.320203
vt 0.799550 0.262026
vn -0.1758 0.8224 0.5411
vn 0.1758 0.8223 0.5412
vn 0.1238 0.9164 0.3807
vn -0.1236 0.9165 0.3805
vn 0.8081 -0.0478 0.5871
vn 0.3087 -0.0478 0.9500
vn 0.2901 -0.3446 0.8928
vn 0.7595 -0.3446 0.5518
vn -0.3087 -0.0478 0.9500
vn -0.2901 -0.3446 0.8928
vn -0.8081 -0.0478 0.5871
vn -0.7595 -0.3446 0.5518
vn -0.1758 0.8224 -0.5410
vn -0.4602 0.8225 -0.3343
vn -0.3234 0.9166 -0.2350
vn -0.1235 0.9165 -0.3804
vn 0.1758 0.8224 -0.5411
vn 0.1237 0.9165 -0.3805
vn -0.2994 0.2482 0.9213
vn -0.7837 0.2482 0.5694
vn 0.4604 0.8223 0.3345
vn 0.3239 0.9163 0.2353
vn 0.5690 0.8223 -0.0000
vn 0.4004 0.9163 0.0000
vn -0.9410 -0.1452 -0.3057
vn -0.9989 -0.0478 -0.0000
vn -0.9687 0.2482 -0.0000
vn -0.8081 -0.0478 -0.5871
vn -0.7837 0.2482 -0.5694
vn 0.2994 0.2482 0.9213
vn 0.7837 0.2482 0.5694
vn 0.8081 -0.0478 -0.5871
vn 0.3087 -0.0478 -0.9500
vn 0.2994 0.2482 -0.9213
vn 0.7837 0.2482 -0.5694
vn 0.9989 -0.0478 0.0000
vn 0.9687 0.2482 0.0000
vn -0.3087 -0.0478 -0.9500
vn -0.2994 0.2482 -0.9213
vn -0.0934 0.9873 -0.1286
vn -0.0459 0.9844 -0.1699
vn -0.1474 0.9844 -0.0961
vn -0.1758 0.9844 -0.0089
vn -0.1511 0.9873 0.0491
vn -0.1370 0.9844 0.1105
vn -0.0627 0.9844 0.1644
vn 0.0000 0.9873 0.1589
vn 0.0627 0.9844 0.1645
vn 0.1370 0.9844 0.1105
vn 0.1512 0.9873 0.0491
vn 0.1758 0.9844 -0.0089
vn 0.1474 0.9844 -0.0962
vn 0.0934 0.9873 -0.1286
vn 0.0459 0.9844 -0.1699
vn 0.5816 -0.1451 0.8005
vn -0.0000 -0.1451 -0.9894
vn -0.5816 -0.1451 0.8005
vn 0.9410 -0.1451 -0.3057
vn 0.0000 1.0000 0.0000
vn 0.1522 0.9659 -0.2095
vn -0.1522 0.9659 -0.2095
vn -0.2463 0.9659 0.0800
vn 0.0000 0.9659 0.2590
vn 0.2463 0.9659 0.0800
vn 0.8258 0.5640 0.0000
vn 0.6681 0.5640 0.4854
vn 0.1771 0.8194 -0.5452
vn 0.4638 0.8194 -0.3369
vn 0.6878 0.5266 -0.4997
vn 0.2627 0.5266 -0.8085
vn 0.1698 -0.8526 0.4942
vn -0.1698 -0.8526 0.4942
vn -0.0000 -0.9634 0.2679
vn -0.6683 -0.5636 0.4856
vn -0.2553 -0.5636 0.7856
vn -0.6683 -0.5636 0.4855
vn 0.5732 -0.8194 0.0000
vn 0.4638 -0.8194 -0.3369
vn 0.6878 -0.5266 -0.4997
vn 0.8501 -0.5266 -0.0000
vn 0.5733 0.8194 0.0000
vn 0.8501 0.5266 0.0000
vn -0.4279 -0.8526 -0.3000
vn -0.1531 -0.8526 -0.4997
vn -0.1575 -0.9634 -0.2167
vn 0.2552 0.5640 0.7854
vn 0.4638 0.8194 0.3370
vn 0.6878 0.5266 0.4997
vn -0.4176 -0.8526 0.3142
vn -0.2548 -0.9634 0.0828
vn -0.2553 -0.5636 -0.7856
vn -0.6683 -0.5636 -0.4855
vn 0.1771 -0.8194 0.5452
vn 0.4638 -0.8194 0.3369
vn 0.6878 -0.5266 0.4997
vn 0.2627 -0.5266 0.8085
vn 0.1771 0.8194 0.5452
vn 0.2627 0.5266 0.8085
vn 0.5225 -0.8526 -0.0088
vn 0.4176 -0.8526 0.3142
vn 0.2548 -0.9634 0.0828
vn 0.2553 -0.5636 0.7856
vn 0.6683 -0.5635 0.4856
vn -0.1771 -0.8194 0.5452
vn -0.2627 -0.5266 0.8085
vn -0.1771 0.8194 0.5452
vn -0.2627 0.5266 0.8085
vn -0.5225 -0.8526 -0.0088
vn -0.6680 0.5640 0.4854
vn -0.8258 0.5640 0.0000
vn -0.6681 0.5640 0.4854
vn -0.4637 -0.8194 0.3369
vn -0.6877 -0.5266 0.4997
vn -0.4638 0.8194 0.3369
vn -0.6878 0.5266 0.4997
vn 0.1531 -0.8526 -0.4997
vn 0.1575 -0.9634 -0.2167
vn 0.6681 0.5640 -0.4854
vn -0.6680 0.5640 -0.4854
vn -0.5732 0.8194 0.0000
vn -0.8501 0.5266 0.0000
vn -0.2552 0.5640 0.7854
vn -0.2552 0.5640 0.7853
vn 0.4603 0.8223 -0.3345
vn 0.3239 0.9164 -0.2352
vn -0.2552 0.5640 -0.7853
vn -0.4638 0.8194 -0.3369
vn -0.6877 0.5266 -0.4997
vn 0.2553 -0.5636 -0.7856
vn 0.2552 0.5640 -0.7853
vn -0.1771 0.8194 -0.5452
vn -0.2627 0.5266 -0.8085
vn 0.4279 -0.8526 -0.3000
vn 0.1771 -0.8194 -0.5452
vn -0.1771 -0.8194 -0.5452
vn -0.2627 -0.5266 -0.8085
vn 0.2627 -0.5266 -0.8085
vn 0.3090 0.0000 -0.9511
vn 0.8090 0.0000 -0.5878
vn 1.0000 0.0000 -0.0000
vn 0.8090 0.0000 0.5878
vn 0.3090 0.0000 0.9511
vn -0.3090 0.0000 0.9511
vn -0.8090 0.0000 0.5878
vn -1.0000 0.0000 -0.0000
vn -0.8090 0.0000 -0.5878
vn -0.3090 0.0000 -0.9511
vn -0.8261 -0.5636 0.0000
vn -0.4637 -0.8194 -0.3369
vn -0.6877 -0.5266 -0.4997
vn 0.8261 -0.5635 0.0000
vn -0.5732 -0.8194 0.0000
vn -0.8501 -0.5266 -0.0000
vn 0.6559 0.5854 -0.4766
vn 0.8108 0.5854 -0.0000
vn 0.6418 -0.6088 -0.4663
vn 0.7933 -0.6088 -0.0000
vn 0.2505 0.5853 -0.7711
vn 0.6418 -0.6088 0.4663
vn 0.6559 0.5854 0.4766
vn 0.2452 -0.6088 0.7545
vn 0.2505 0.5854 0.7711
vn -0.2452 -0.6088 0.7545
vn -0.2505 0.5853 0.7711
vn -0.6418 -0.6088 0.4663
vn -0.4602 0.8224 0.3344
vn -0.6559 0.5853 0.4766
vn -0.7933 -0.6088 -0.0000
vn -0.5688 0.8225 -0.0000
vn -0.8108 0.5853 -0.0000
vn -0.6418 -0.6088 -0.4663
vn -0.6559 0.5853 -0.4766
vn -0.2452 -0.6088 -0.7545
vn -0.2505 0.5853 -0.7711
vn 0.2452 -0.6088 -0.7545
vn 0.6683 -0.5636 -0.4856
vn 0.7233 -0.4479 -0.5255
vn 0.8941 -0.4479 0.0000
vn 0.8935 0.4491 0.0000
vn 0.7229 0.4491 -0.5252
vn 0.7233 -0.4479 0.5255
vn 0.7228 0.4491 0.5252
vn 0.2763 -0.4479 0.8503
vn 0.2761 0.4491 0.8498
vn -0.2763 -0.4479 0.8503
vn -0.2761 0.4491 0.8498
vn -0.7233 -0.4479 0.5255
vn -0.7229 0.4491 0.5252
vn -0.8941 -0.4479 0.0000
vn -0.8935 0.4491 0.0000
vn -0.7233 -0.4479 -0.5255
vn -0.7229 0.4491 -0.5252
vn -0.2763 -0.4479 -0.8503
vn -0.2761 0.4491 -0.8498
vn 0.2763 -0.4479 -0.8503
vn 0.2761 0.4491 -0.8498
vn -0.7595 -0.3446 -0.5518
vn -0.9387 -0.3446 0.0000
vn -0.2901 -0.3446 -0.8928
vn 0.9387 -0.3446 0.0000
vn 0.7595 -0.3446 -0.5518
vn 0.2901 -0.3446 -0.8928
vn -0.3998 0.9166 0.0000
vn -0.3235 0.9165 0.2351
vn 0.0000 -1.0000 -0.0000
usemtl rogue
s 1
f 30/1/1 28/2/2 150/3/3 148/4/4
f 136/5/5 135/6/6 150/3/7 145/7/8
f 135/8/6 133/9/9 148/4/10 150/3/7
f 148/4/10 133/10/9 134/11/11 149/12/12
f 38/13/13 36/14/14 147/15/15 151/16/16
f 40/17/17 38/13/13 151/16/16 142/18/18
f 134/11/11 133/10/9 21/19/19 20/20/20
f 28/2/2 26/21/21 145/7/22 150/3/3
f 26/21/21 24/22/23 144/23/24 145/7/22
f 1/24/25 2/25/25 9/26/25 8/27/25
f 132/28/26 134/11/11 20/20/20 12/29/27
f 141/30/28 132/28/26 12/29/27 13/31/29
f 133/9/9 135/8/6 19/32/30 21/33/19
f 135/6/6 136/5/5 18/34/31 19/35/30
f 138/36/32 137/37/33 17/38/34 16/39/35
f 136/5/5 139/40/36 15/41/37 18/34/31
f 139/40/36 138/36/32 16/39/35 15/41/37
f 137/37/33 140/42/38 14/43/39 17/38/34
f 140/42/38 141/30/28 13/31/29 14/43/39
f 1/44/40 14/45/41 13/46/42
f 1/47/40 13/46/42 12/48/43 2/49/44
f 2/49/44 12/48/43 20/50/45
f 2/51/44 20/50/45 21/52/46 3/53/47
f 3/54/47 21/55/46 19/56/48
f 3/57/47 19/58/48 18/59/49 4/60/50
f 4/60/50 18/59/49 15/61/51
f 4/60/50 15/61/51 16/62/52 5/63/53
f 5/63/53 16/62/52 17/64/54
f 3/65/55 4/66/55 11/67/55 10/68/55
f 5/69/56 1/70/56 8/71/56 7/72/56
f 2/73/57 3/74/57 10/75/57 9/76/57
f 4/66/58 5/77/58 7/78/58 11/67/58
f 6/79/59 7/80/60 8/81/61
f 6/79/59 8/82/61 9/83/62
f 6/79/59 9/84/62 10/85/63
f 6/79/59 10/86/63 11/87/64
f 6/79/59 11/87/64 7/88/60
f 5/89/53 17/64/54 14/45/41 1/44/40
f 75/90/65 77/91/66 102/92/66 98/93/65
f 90/94/67 72/95/68 42/96/69 60/97/70
f 29/98/71 31/99/72 154/100/73
f 82/101/74 80/102/75 109/103/75 113/104/76
f 75/105/77 73/106/78 43/107/79 45/108/80
f 72/95/68 74/109/81 44/110/82 42/96/69
f 37/111/83 39/112/84 157/113/85
f 77/91/66 79/114/86 106/115/86 102/92/66
f 74/109/81 76/116/87 46/117/88 44/110/82
f 31/99/72 33/118/89 155/119/90 154/120/73
f 88/121/91 86/122/92 121/123/92 125/124/91
f 79/125/93 77/126/94 47/127/95 49/128/96
f 76/116/87 78/129/97 48/130/98 46/117/88
f 25/131/99 27/132/100 153/133/101
f 78/134/102 76/135/103 101/136/103 105/137/102
f 81/138/104 79/125/93 49/128/96 51/139/105
f 78/129/97 80/140/106 50/141/107 48/130/98
f 33/118/89 35/142/108 155/119/90
f 83/143/109 85/144/110 118/145/110 114/146/111
f 83/147/112 81/138/104 51/139/105 53/148/113
f 80/140/106 82/149/114 52/150/115 50/141/107
f 39/112/84 41/151/116 152/152/117 157/153/85
f 73/154/118 75/90/65 98/93/65 95/155/118
f 85/144/110 87/156/119 122/157/119 118/145/110
f 82/149/114 84/158/120 54/159/121 52/150/115
f 27/132/100 29/98/71 154/100/73 153/133/101
f 79/160/86 81/161/122 110/162/123 106/163/86
f 24/22/23 22/164/124 143/165/125 144/23/24
f 87/156/119 89/166/126 126/167/126 122/157/119
f 84/158/120 86/168/127 56/169/128 54/159/121
f 35/142/108 37/111/83 157/113/85 155/170/90
f 90/171/129 88/121/91 125/124/91 129/172/129
f 89/166/126 91/173/130 130/174/130 126/167/126
f 86/168/127 88/175/131 58/176/132 56/169/128
f 41/151/116 23/177/133 152/152/117
f 81/178/122 83/143/109 114/146/111 110/179/123
f 91/180/134 89/181/135 59/182/136 61/183/137
f 88/175/131 90/94/67 60/97/70 58/176/132
f 23/177/133 25/131/99 153/133/101 152/184/117
f 71/185/138 60/186/70 42/187/69 62/188/139
f 62/188/139 42/187/69 44/189/82 63/190/140
f 63/190/140 44/189/82 46/191/88 64/192/141
f 64/192/141 46/191/88 48/193/98 65/194/142
f 65/194/142 48/193/98 50/195/107 66/196/143
f 66/196/143 50/195/107 52/197/115 67/198/144
f 67/198/144 52/197/115 54/199/121 68/200/145
f 68/200/145 54/199/121 56/201/128 69/202/146
f 69/202/146 56/201/128 58/203/132 70/204/147
f 70/204/147 58/203/132 60/186/70 71/185/138
f 73/106/78 91/180/134 61/183/137 43/107/79
f 86/122/92 84/205/148 117/206/148 121/123/92
f 89/181/135 87/207/149 57/208/150 59/182/136
f 80/209/75 78/210/102 105/211/102 109/212/75
f 76/135/103 74/213/151 97/214/151 101/136/103
f 84/205/148 82/101/74 113/104/76 117/206/148
f 87/207/149 85/215/152 55/216/153 57/208/150
f 77/126/94 75/105/77 45/108/80 47/127/95
f 93/217/154 22/164/124 24/22/23 96/218/155
f 85/215/152 83/147/112 53/148/113 55/216/153
f 59/219/136 70/204/147 71/185/138 61/220/137
f 57/221/150 69/202/146 70/204/147 59/219/136
f 55/222/153 68/200/145 69/202/146 57/221/150
f 53/223/113 67/198/144 68/200/145 55/222/153
f 51/224/105 66/196/143 67/198/144 53/223/113
f 49/225/96 65/194/142 66/196/143 51/224/105
f 47/226/95 64/192/141 65/194/142 49/225/96
f 45/227/80 63/190/140 64/192/141 47/226/95
f 43/228/79 62/188/139 63/190/140 45/227/80
f 61/220/137 71/185/138 62/188/139 43/228/79
f 23/177/133 94/229/156 99/230/157 25/131/99
f 128/231/158 40/17/17 22/164/124 93/217/154
f 25/131/99 99/230/157 103/232/159 27/132/100
f 96/218/155 24/22/23 26/21/21 100/233/160
f 27/132/100 103/232/159 107/234/161 29/98/71
f 100/233/160 26/21/21 28/2/2 104/235/162
f 29/98/71 107/234/161 111/236/163 31/99/72
f 104/235/162 28/2/2 30/1/1 108/237/164
f 31/99/72 111/236/163 115/238/165 33/118/89
f 108/237/164 30/1/1 32/239/166 112/240/167
f 33/118/89 115/238/165 119/241/168 35/142/108
f 112/240/167 32/239/166 34/242/169 116/243/170
f 35/142/108 119/241/168 123/244/171 37/111/83
f 116/243/170 34/242/169 36/14/14 120/245/172
f 37/111/83 123/244/171 127/246/173 39/112/84
f 120/245/172 36/14/14 38/13/13 124/247/174
f 39/112/84 127/246/173 131/248/175 41/151/116
f 124/247/174 38/13/13 40/17/17 128/231/158
f 41/151/116 131/248/175 94/229/156 23/177/133
f 74/213/151 72/249/176 92/250/176 97/214/151
f 91/173/130 73/154/118 95/155/118 130/174/130
f 99/230/157 94/229/156 95/155/177 98/93/178
f 93/217/154 96/218/155 97/214/179 92/250/180
f 103/232/159 99/230/157 98/93/178 102/92/181
f 96/218/155 100/233/160 101/136/182 97/214/179
f 107/234/161 103/232/159 102/92/181 106/115/183
f 100/233/160 104/235/162 105/137/184 101/136/182
f 111/236/163 107/234/161 106/163/183 110/162/185
f 104/251/162 108/252/164 109/212/186 105/211/184
f 115/238/165 111/236/163 110/179/185 114/146/187
f 108/237/164 112/240/167 113/104/188 109/103/186
f 119/241/168 115/238/165 114/146/187 118/145/189
f 112/240/167 116/243/170 117/206/190 113/104/188
f 123/244/171 119/241/168 118/145/189 122/157/191
f 116/243/170 120/245/172 121/123/192 117/206/190
f 127/246/173 123/244/171 122/157/191 126/167/193
f 120/245/172 124/247/174 125/124/194 121/123/192
f 131/248/175 127/246/173 126/167/193 130/174/195
f 124/247/174 128/231/158 129/172/196 125/124/194
f 94/229/156 131/248/175 130/174/195 95/155/177
f 128/231/158 93/217/154 92/250/180 129/172/196
f 72/249/176 90/171/129 129/172/129 92/250/176
f 132/28/26 141/30/28 147/15/197 146/253/198
f 141/30/28 140/42/38 151/16/199 147/15/197
f 138/36/32 139/40/36 144/23/200 143/165/201
f 140/42/38 137/37/33 142/18/202 151/16/199
f 40/17/17 142/18/18 143/165/125 22/164/124
f 134/11/11 132/28/26 146/253/198 149/12/12
f 36/14/14 34/242/169 146/253/203 147/15/15
f 34/242/169 32/239/166 149/12/204 146/253/203
f 32/239/166 30/1/1 148/4/4 149/12/204
f 139/40/36 136/5/5 145/7/8 144/23/200
f 142/18/202 137/37/33 138/36/32 143/165/201
f 156/254/205 152/184/117 153/133/101
f 156/254/205 153/133/101 154/100/73
f 156/254/205 154/120/73 155/119/90
f 156/254/205 155/170/90 157/113/85
f 156/254/205 157/153/85 152/152/117
