# Blender v3.4.1 OBJ File: 'Platformer_Pack_Export_FREE.blend'
# www.blender.org
mtllib diamond_blue.mtl
o diamond_blue
v 0.252439 0.342884 0.285071
v 0.212926 0.360142 0.293071
v 0.193108 0.342884 0.328178
v 0.233168 0.329381 0.320932
v 0.344524 0.360142 -0.111940
v 0.371788 0.342884 -0.082244
v 0.377277 0.329380 -0.122583
v 0.349126 0.342884 -0.151992
v 0.000000 0.329381 -0.396696
v -0.036668 0.342885 -0.379010
v 0.000000 0.360142 -0.362257
v 0.036668 0.342885 -0.379010
v -0.344524 0.360142 -0.111940
v -0.349126 0.342884 -0.151992
v -0.377277 0.329381 -0.122583
v -0.371788 0.342884 -0.082244
v -0.233168 0.329381 0.320932
v -0.193108 0.342884 0.328178
v -0.212926 0.360142 0.293071
v -0.252439 0.342884 0.285071
v 0.531082 0.044391 0.172556
v 0.514774 0.027714 0.207221
v 0.522278 -0.009770 0.190277
v 0.534375 -0.009770 0.153044
v 0.538264 0.027714 0.134926
v 0.328224 0.044391 -0.451767
v 0.356153 0.027714 -0.425545
v 0.342357 -0.009770 -0.437918
v 0.310685 -0.009770 -0.460928
v 0.294655 0.027714 -0.470226
v -0.310685 -0.009770 -0.460928
v -0.342357 -0.009770 -0.437918
v -0.356153 0.027714 -0.425545
v -0.328224 0.044391 -0.451767
v -0.294655 0.027714 -0.470226
v -0.514774 0.027714 0.207221
v -0.531082 0.044391 0.172556
v -0.538264 0.027714 0.134926
v -0.534375 -0.009770 0.153044
v -0.522278 -0.009770 0.190277
v 0.000000 0.044391 0.558417
v -0.038008 0.027714 0.553620
v -0.019574 -0.009770 0.555520
v 0.019574 -0.009770 0.555520
v 0.038008 0.027714 0.553620
v -0.000000 -0.492088 -0.033302
v 0.031671 -0.492088 -0.010291
v 0.019574 -0.492089 0.026941
v -0.019574 -0.492089 0.026941
v -0.031671 -0.492088 -0.010291
vt 0.085658 0.173474
vt 0.095540 0.150354
vt 0.084362 0.150354
vt 0.074353 0.184933
vt 0.050646 0.184933
vt 0.062500 0.162055
vt 0.076812 0.173474
vt 0.064833 0.150354
vt 0.094098 0.150354
vt 0.064750 0.184933
vt 0.083930 0.184933
vt 0.082647 0.162055
vt 0.041069 0.184933
vt 0.060249 0.184933
vt 0.042352 0.162055
vt 0.047004 0.184933
vt 0.039678 0.184933
vt 0.029900 0.162055
vt 0.062499 0.173474
vt 0.080587 0.150354
vt 0.044412 0.150354
vt 0.039341 0.173474
vt 0.040637 0.150354
vt 0.029459 0.150354
vt 0.048187 0.173474
vt 0.030901 0.150354
vt 0.060166 0.150354
vt 0.083515 0.137057
vt 0.095301 0.137057
vt 0.064444 0.100091
vt 0.043428 0.137057
vt 0.081571 0.137057
vt 0.062499 0.100091
vt 0.094559 0.137057
vt 0.063701 0.137057
vt 0.063701 0.100091
vt 0.029697 0.137057
vt 0.041484 0.137057
vt 0.060555 0.100091
vt 0.061298 0.137057
vt 0.030440 0.137057
vt 0.061298 0.100091
vt 0.083647 0.201880
vt 0.062499 0.201880
vt 0.041351 0.201880
vt 0.049429 0.201880
vt 0.075570 0.201880
vt 0.077995 0.221405
vt 0.075570 0.222728
vt 0.074353 0.221405
vt 0.076812 0.220370
vt 0.083647 0.222727
vt 0.085321 0.221405
vt 0.085658 0.220370
vt 0.083930 0.221405
vt 0.062499 0.220370
vt 0.060249 0.221405
vt 0.062499 0.222728
vt 0.064750 0.221405
vt 0.041351 0.222728
vt 0.041069 0.221405
vt 0.039341 0.220370
vt 0.039678 0.221405
vt 0.048187 0.220370
vt 0.050646 0.221405
vt 0.049429 0.222728
vt 0.047004 0.221405
vt 0.095099 0.182903
vt 0.094098 0.181625
vt 0.094559 0.178752
vt 0.095301 0.178752
vt 0.095540 0.181625
vt 0.082647 0.182903
vt 0.084362 0.181625
vt 0.083515 0.178752
vt 0.081571 0.178752
vt 0.080587 0.181625
vt 0.043428 0.178752
vt 0.041484 0.178752
vt 0.040637 0.181625
vt 0.042352 0.182903
vt 0.044412 0.181625
vt 0.030901 0.181625
vt 0.029900 0.182903
vt 0.029459 0.181625
vt 0.029697 0.178752
vt 0.030440 0.178752
vt 0.062500 0.182903
vt 0.060166 0.181625
vt 0.061298 0.178752
vt 0.063701 0.178752
vt 0.064833 0.181625
vt 0.062499 0.131362
vt 0.064444 0.131362
vt 0.063701 0.131362
vt 0.061298 0.131362
vt 0.060555 0.131362
vt 0.062499 0.204745
vt 0.064750 0.205780
vt 0.085658 0.204745
vt 0.085321 0.205780
vt 0.048187 0.204745
vt 0.047004 0.205780
vt 0.076812 0.204745
vt 0.074353 0.205780
vt 0.039341 0.204745
vt 0.041069 0.205780
vt 0.060249 0.205780
vt 0.083515 0.168328
vt 0.081571 0.168328
vt 0.095301 0.168328
vt 0.094559 0.168328
vt 0.083930 0.205780
vt 0.039678 0.205780
vt 0.077995 0.205780
vt 0.061298 0.168328
vt 0.063701 0.168328
vt 0.029697 0.168328
vt 0.030440 0.168328
vt 0.043428 0.168328
vt 0.041484 0.168328
vt 0.050646 0.205780
vt 0.085321 0.184933
vt 0.077995 0.184933
vt 0.095099 0.162055
vn 0.8139 0.5173 -0.2645
vn 0.9937 0.0848 -0.0738
vn 0.8472 0.0848 -0.5244
vn 0.1727 0.7165 0.6758
vn -0.1727 0.7165 0.6758
vn 0.0000 0.3126 0.9499
vn 0.5030 0.5173 0.6924
vn 0.3772 0.0848 0.9222
vn 0.7605 0.0848 0.6437
vn 0.2575 0.7165 -0.6483
vn 0.5370 0.7165 -0.4453
vn 0.5583 0.3126 -0.7685
vn -0.5370 0.7165 -0.4453
vn -0.2575 0.7165 -0.6483
vn -0.5583 0.3126 -0.7685
vn -0.5894 0.7165 0.3731
vn -0.6961 0.7165 0.0446
vn -0.9034 0.3126 0.2935
vn 0.0000 0.5173 -0.8558
vn 0.2369 0.0848 -0.9678
vn -0.2369 0.0848 -0.9678
vn -0.8139 0.5173 -0.2645
vn -0.8472 0.0848 -0.5244
vn -0.9937 0.0848 -0.0738
vn -0.5030 0.5173 0.6924
vn -0.7605 0.0848 0.6437
vn -0.3772 0.0848 0.9222
vn 0.6945 -0.4207 -0.5837
vn 0.9049 -0.4207 0.0640
vn 0.4231 -0.8956 -0.1375
vn -0.3405 -0.4207 -0.8408
vn 0.3405 -0.4207 -0.8408
vn -0.0000 -0.8956 -0.4449
vn 0.7697 -0.4207 0.4801
vn 0.2187 -0.4207 0.8804
vn 0.2615 -0.8956 0.3599
vn -0.9049 -0.4207 0.0640
vn -0.6945 -0.4207 -0.5837
vn -0.4231 -0.8956 -0.1375
vn -0.2187 -0.4207 0.8804
vn -0.7697 -0.4207 0.4801
vn -0.2615 -0.8956 0.3599
vn 0.3489 0.9303 -0.1134
vn 0.0000 0.9303 -0.3669
vn -0.3489 0.9303 -0.1134
vn -0.2156 0.9303 0.2968
vn 0.2156 0.9303 0.2968
vn 0.5894 0.7165 0.3731
vn 0.6961 0.7165 0.0446
vn 0.9034 0.3126 0.2935
usemtl platformer
s 1
f 7/1/1 25/2/2 27/3/3
f 3/4/4 18/5/5 41/6/6
f 4/7/7 45/8/8 22/9/9
f 12/10/10 8/11/11 26/12/12
f 14/13/13 10/14/14 34/15/15
f 20/16/16 16/17/17 37/18/18
f 9/19/19 30/20/20 35/21/21
f 15/22/22 33/23/23 38/24/24
f 17/25/25 36/26/26 42/27/27
f 28/28/28 24/29/29 47/30/30
f 31/31/31 29/32/32 46/33/33
f 23/34/34 44/35/35 48/36/36
f 39/37/37 32/38/38 50/39/39
f 43/40/40 40/41/41 49/42/42
f 5/43/43 11/44/44 13/45/45 19/46/46 2/47/47
f 1/48/48 2/49/47 3/50/4 4/51/7
f 5/52/43 6/53/49 7/54/1 8/55/11
f 9/56/19 10/57/14 11/58/44 12/59/10
f 13/60/45 14/61/13 15/62/22 16/63/17
f 17/64/25 18/65/5 19/66/46 20/67/16
f 21/68/50 22/69/9 23/70/34 24/71/29 25/72/2
f 26/73/12 27/74/3 28/75/28 29/76/32 30/77/20
f 31/78/31 32/79/38 33/80/23 34/81/15 35/82/21
f 36/83/26 37/84/18 38/85/24 39/86/37 40/87/41
f 41/88/6 42/89/27 43/90/40 44/91/35 45/92/8
f 46/93/33 47/94/30 48/95/36 49/96/42 50/97/39
f 30/77/20 9/98/19 12/99/10 26/73/12
f 10/57/14 14/61/13 13/60/45 11/58/44
f 1/48/48 6/53/49 5/52/43 2/49/47
f 25/72/2 7/100/1 6/101/49 21/68/50
f 36/83/26 17/102/25 20/103/16 37/84/18
f 45/92/8 4/104/7 3/105/4 41/88/6
f 35/82/21 30/77/20 29/76/32 31/78/31
f 18/65/5 3/50/4 2/49/47 19/66/46
f 11/58/44 5/52/43 8/55/11 12/59/10
f 33/80/23 15/106/22 14/107/13 34/81/15
f 19/66/46 13/60/45 16/63/17 20/67/16
f 34/81/15 10/108/14 9/98/19 35/82/21
f 28/109/28 47/94/30 46/93/33 29/110/32
f 47/94/30 24/111/29 23/112/34 48/95/36
f 22/69/9 45/92/8 44/91/35 23/70/34
f 27/74/3 25/72/2 24/71/29 28/75/28
f 26/73/12 8/113/11 7/100/1 27/74/3
f 32/79/38 39/86/37 38/85/24 33/80/23
f 37/84/18 16/114/17 15/106/22 38/85/24
f 4/104/7 22/69/9 21/68/50 1/115/48
f 43/116/40 49/96/42 48/95/36 44/117/35
f 39/118/37 50/97/39 49/96/42 40/119/41
f 31/120/31 46/93/33 50/97/39 32/121/38
f 17/102/25 42/89/27 41/88/6 18/122/5
f 42/89/27 36/83/26 40/87/41 43/90/40
f 6/123/49 1/124/48 21/125/50
