# Blender v3.4.1 OBJ File: 'Platformer_Pack_Export_FREE.blend'
# www.blender.org
mtllib platform_arrow_4x4x1_blue.mtl
o platform_arrow_4x4x1_blue
v -1.950000 0.550000 2.000000
v -2.000000 0.550000 1.950000
v -1.950000 0.950000 2.000000
v -1.950000 1.000000 1.950000
v -2.000000 0.950000 1.950000
v -1.950000 0.500000 -1.950000
v -2.000000 0.550000 -1.950000
v -1.950000 0.550000 -2.000000
v -1.950000 1.000000 -1.950000
v -1.950000 0.950000 -2.000000
v -2.000000 0.950000 -1.950000
v 2.000000 0.550000 1.950000
v 1.950000 0.550000 2.000000
v 1.950000 1.000000 1.950000
v 1.950000 0.950000 2.000000
v 2.000000 0.950000 1.950000
v 1.950000 0.550000 -2.000000
v 2.000000 0.550000 -1.950000
v 1.950000 1.000000 -1.950000
v 2.000000 0.950000 -1.950000
v 1.950000 0.950000 -2.000000
v -1.950000 0.000000 1.950000
v -1.950000 0.050000 2.000000
v -2.000000 0.050000 1.950000
v -1.950000 0.450000 2.000000
v -1.950000 0.500000 1.950000
v -2.000000 0.450000 1.950000
v -1.950000 0.000000 -1.950000
v -2.000000 0.050000 -1.950000
v -1.950000 0.050000 -2.000000
v -1.950000 0.450000 -2.000000
v -2.000000 0.450000 -1.950000
v 1.950000 0.000000 1.950000
v 2.000000 0.050000 1.950000
v 1.950000 0.050000 2.000000
v 1.950000 0.500000 1.950000
v 1.950000 0.450000 2.000000
v 2.000000 0.450000 1.950000
v 1.950000 0.000000 -1.950000
v 1.950000 0.050000 -2.000000
v 2.000000 0.050000 -1.950000
v 1.950000 0.500000 -1.950000
v 2.000000 0.450000 -1.950000
v 1.950000 0.450000 -2.000000
v -2.000000 0.550000 1.050000
v -2.000000 0.550000 -0.250000
v -1.950000 1.000000 1.050000
v -1.950000 1.000000 -0.250000
v -2.000000 0.950000 -0.250000
v -2.000000 0.950000 1.050000
v 2.000000 0.550000 -0.250000
v 2.000000 0.550000 1.050000
v 1.950000 1.000000 -0.250000
v 1.950000 1.000000 1.050000
v 2.000000 0.950000 1.050000
v 2.000000 0.950000 -0.250000
v -1.950000 0.000000 -0.250000
v -1.950000 0.000000 1.050000
v -2.000000 0.050000 1.050000
v -2.000000 0.050000 -0.250000
v -2.000000 0.450000 -0.250000
v -2.000000 0.450000 1.050000
v 1.950000 0.000000 1.050000
v 1.950000 0.000000 -0.250000
v 2.000000 0.050000 -0.250000
v 2.000000 0.050000 1.050000
v 1.950000 0.500000 -0.250000
v 1.950000 0.500000 1.050000
v 2.000000 0.450000 1.050000
v 2.000000 0.450000 -0.250000
v -1.950000 0.500000 -0.250000
v -1.950000 0.500000 1.050000
v 0.000000 0.550000 -2.000000
v 0.000000 1.000000 -1.950000
v 0.000000 0.950000 -2.000000
v 0.000000 0.550000 2.000000
v 0.000000 1.000000 1.950000
v 0.000000 0.950000 2.000000
v 0.000000 0.000000 -1.950000
v 0.000000 0.050000 -2.000000
v 0.000000 0.450000 -2.000000
v 0.000000 0.000000 1.950000
v 0.000000 0.050000 2.000000
v 0.000000 0.500000 1.950000
v 0.000000 0.450000 2.000000
v 0.000000 0.500000 -1.950000
v 0.000000 0.000000 -1.050000
v 0.000000 0.000000 0.250000
v 0.000000 1.000000 -1.050000
v 0.000000 1.000000 0.250000
vt 0.062500 0.130196
vt 0.062500 0.171760
vt 0.025597 0.171760
vt 0.025597 0.130196
vt 0.101345 0.130196
vt 0.101345 0.171760
vt 0.101345 0.171760
vt 0.101345 0.130196
vt 0.062500 0.208206
vt 0.025597 0.208206
vt 0.025597 0.208206
vt 0.062500 0.208206
vt 0.023655 0.130196
vt 0.023655 0.171760
vt 0.023655 0.171760
vt 0.023655 0.130196
vt 0.062500 0.130196
vt 0.062500 0.171760
vt 0.099403 0.171760
vt 0.099403 0.130196
vt 0.025597 0.109375
vt 0.025597 0.114571
vt 0.023655 0.114571
vt 0.025597 0.218635
vt 0.025597 0.223831
vt 0.023655 0.218635
vt 0.025597 0.109375
vt 0.023655 0.114571
vt 0.025597 0.114571
vt 0.025597 0.223831
vt 0.025597 0.218635
vt 0.023655 0.218635
vt 0.099403 0.109375
vt 0.101345 0.114571
vt 0.099403 0.114571
vt 0.099403 0.223831
vt 0.099403 0.218635
vt 0.101345 0.218635
vt 0.099403 0.109375
vt 0.099403 0.114571
vt 0.101345 0.114571
vt 0.099403 0.223831
vt 0.101345 0.218635
vt 0.099403 0.218635
vt 0.025597 0.109375
vt 0.023655 0.114571
vt 0.025597 0.145821
vt 0.025597 0.187385
vt 0.023655 0.187385
vt 0.023655 0.145821
vt 0.025597 0.223831
vt 0.023655 0.218635
vt 0.025597 0.187385
vt 0.025597 0.145821
vt 0.023655 0.145821
vt 0.023655 0.187385
vt 0.062500 0.109375
vt 0.062500 0.114571
vt 0.062500 0.223831
vt 0.062500 0.218635
vt 0.101345 0.187385
vt 0.101345 0.145821
vt 0.099403 0.145821
vt 0.099403 0.187385
vt 0.099403 0.109375
vt 0.101345 0.114571
vt 0.099403 0.223831
vt 0.101345 0.218635
vt 0.099403 0.187385
vt 0.099403 0.145821
vt 0.101345 0.145821
vt 0.101345 0.187385
vt 0.062500 0.109375
vt 0.062500 0.114571
vt 0.062500 0.223831
vt 0.062500 0.218635
vt 0.312500 0.890740
vt 0.312500 0.932304
vt 0.275597 0.932304
vt 0.275597 0.890740
vt 0.351345 0.890740
vt 0.351345 0.932304
vt 0.351345 0.932304
vt 0.351345 0.890740
vt 0.273655 0.890740
vt 0.273655 0.932304
vt 0.273655 0.932304
vt 0.273655 0.890740
vt 0.312500 0.890740
vt 0.312500 0.932304
vt 0.349403 0.932304
vt 0.349403 0.890740
vt 0.275597 0.869919
vt 0.275597 0.875115
vt 0.273655 0.875115
vt 0.275597 0.979179
vt 0.275597 0.984375
vt 0.273655 0.979179
vt 0.275597 0.869919
vt 0.273655 0.875115
vt 0.275597 0.875115
vt 0.275597 0.984375
vt 0.275597 0.979179
vt 0.273655 0.979179
vt 0.349403 0.869919
vt 0.351345 0.875115
vt 0.349403 0.875115
vt 0.349403 0.984375
vt 0.349403 0.979179
vt 0.351345 0.979179
vt 0.349403 0.869919
vt 0.349403 0.875115
vt 0.351345 0.875115
vt 0.349403 0.984375
vt 0.351345 0.979179
vt 0.349403 0.979179
vt 0.275597 0.869919
vt 0.273655 0.875115
vt 0.275597 0.906365
vt 0.275597 0.947929
vt 0.273655 0.947929
vt 0.273655 0.906365
vt 0.275597 0.984375
vt 0.273655 0.979179
vt 0.275597 0.947929
vt 0.275597 0.906365
vt 0.273655 0.906365
vt 0.273655 0.947929
vt 0.312500 0.869919
vt 0.312500 0.875115
vt 0.312500 0.984375
vt 0.312500 0.979179
vt 0.351345 0.947929
vt 0.351345 0.906365
vt 0.349403 0.906365
vt 0.349403 0.947929
vt 0.349403 0.869919
vt 0.351345 0.875115
vt 0.349403 0.984375
vt 0.351345 0.979179
vt 0.349403 0.947929
vt 0.349403 0.906365
vt 0.351345 0.906365
vt 0.351345 0.947929
vt 0.312500 0.869919
vt 0.312500 0.875115
vt 0.312500 0.984375
vt 0.312500 0.979179
vt 0.312500 0.854294
vt 0.349403 0.854294
vt 0.349403 0.854294
vt 0.312500 0.854294
vt 0.312500 0.854294
vt 0.349403 0.854294
vt 0.349403 0.854294
vt 0.312500 0.854294
vt 0.349403 0.984375
vt 0.351345 0.979179
vt 0.349403 0.869919
vt 0.351345 0.875115
vt 0.275597 0.984375
vt 0.273655 0.979179
vt 0.275597 0.869919
vt 0.273655 0.875115
vt 0.273655 0.890740
vt 0.273655 0.932304
vt 0.273655 0.932304
vt 0.273655 0.890740
vt 0.351345 0.890740
vt 0.351345 0.932304
vt 0.351345 0.932304
vt 0.351345 0.890740
vt 0.099403 0.223831
vt 0.101345 0.218635
vt 0.224403 0.973831
vt 0.224403 0.973831
vt 0.226345 0.968635
vt 0.226345 0.968635
vt 0.099403 0.109375
vt 0.101345 0.114571
vt 0.224403 0.859375
vt 0.224403 0.859375
vt 0.226345 0.864571
vt 0.226345 0.864571
vt 0.025597 0.223831
vt 0.023655 0.218635
vt 0.150597 0.973831
vt 0.150597 0.973831
vt 0.148655 0.968635
vt 0.148655 0.968635
vt 0.025597 0.109375
vt 0.023655 0.114571
vt 0.150597 0.859375
vt 0.150597 0.859375
vt 0.148655 0.864571
vt 0.148655 0.864571
vt 0.023655 0.130196
vt 0.023655 0.171760
vt 0.023655 0.171760
vt 0.023655 0.130196
vt 0.148655 0.880196
vt 0.148655 0.921760
vt 0.148655 0.921760
vt 0.148655 0.880196
vt 0.062500 0.208206
vt 0.025597 0.208206
vt 0.025597 0.208206
vt 0.062500 0.208206
vt 0.187500 0.958206
vt 0.150597 0.958206
vt 0.150597 0.958206
vt 0.187500 0.958206
vt 0.101345 0.130196
vt 0.101345 0.171760
vt 0.101345 0.171760
vt 0.101345 0.130196
vt 0.226345 0.880196
vt 0.226345 0.921760
vt 0.226345 0.921760
vt 0.226345 0.880196
vt 0.224403 0.958206
vt 0.224403 0.958206
vt 0.099403 0.208206
vt 0.099403 0.208206
vt 0.275597 0.854294
vt 0.275597 0.854294
vt 0.275597 0.854294
vt 0.275597 0.854294
vt 0.275597 0.890740
vt 0.275597 0.932304
vt 0.349403 0.890740
vt 0.349403 0.932304
vt 0.025597 0.130196
vt 0.025597 0.171760
vt 0.099403 0.208206
vt 0.099403 0.208206
vt 0.099403 0.130196
vt 0.099403 0.171760
vn 0.0000 0.0000 1.0000
vn 1.0000 0.0000 0.0000
vn 0.0000 1.0000 0.0000
vn -1.0000 0.0000 0.0000
vn 0.0000 0.0000 -1.0000
vn -0.4606 -0.7588 0.4606
vn -0.4606 -0.4606 0.7588
vn -0.7588 -0.4606 0.4606
vn -0.4606 0.4606 0.7588
vn -0.4606 0.7588 0.4606
vn -0.7588 0.4606 0.4606
vn -0.4606 -0.7588 -0.4606
vn -0.7588 -0.4606 -0.4606
vn -0.4606 -0.4606 -0.7588
vn -0.4606 0.7588 -0.4606
vn -0.4606 0.4606 -0.7588
vn -0.7588 0.4606 -0.4606
vn 0.4606 -0.7588 0.4606
vn 0.7588 -0.4606 0.4606
vn 0.4606 -0.4606 0.7588
vn 0.4606 0.7588 0.4606
vn 0.4606 0.4606 0.7588
vn 0.7588 0.4606 0.4606
vn 0.4606 -0.7588 -0.4606
vn 0.4606 -0.4606 -0.7588
vn 0.7588 -0.4606 -0.4606
vn 0.4606 0.7588 -0.4606
vn 0.7588 0.4606 -0.4606
vn 0.4606 0.4606 -0.7588
vn -0.7071 -0.7071 0.0000
vn -0.7071 0.7071 0.0000
vn 0.0000 -0.7071 -0.7071
vn 0.0000 0.7071 -0.7071
vn 0.7071 -0.7071 0.0000
vn 0.7071 0.7071 0.0000
vn 0.0000 -0.7071 0.7071
vn 0.0000 0.7071 0.7071
vn 0.0000 -1.0000 0.0000
usemtl platformer
s 1
f 76/1/1 78/2/1 3/3/1 1/4/1
f 52/5/2 55/6/2 16/7/2 12/8/2
f 90/9/3 47/10/3 4/11/3 77/12/3
f 46/13/4 49/14/4 11/15/4 7/16/4
f 73/17/5 75/18/5 21/19/5 17/20/5
f 26/21/6 1/22/7 2/23/8
f 3/24/9 4/25/10 5/26/11
f 6/27/12 7/28/13 8/29/14
f 9/30/15 10/31/16 11/32/17
f 36/33/18 12/34/19 13/35/20
f 14/36/21 15/37/22 16/38/23
f 42/39/24 17/40/25 18/41/26
f 19/42/27 20/43/28 21/44/29
f 72/45/30 26/21/6 2/23/8 45/46/30
f 1/47/7 3/48/9 5/49/11 2/50/8
f 48/51/31 9/30/15 11/32/17 49/52/31
f 10/53/16 8/54/14 7/55/13 11/56/17
f 86/57/32 6/27/12 8/29/14 73/58/32
f 74/59/33 19/42/27 21/44/29 75/60/33
f 20/61/28 18/62/26 17/63/25 21/64/29
f 67/65/34 42/39/24 18/41/26 51/66/34
f 54/67/35 14/36/21 16/38/23 55/68/35
f 15/69/22 13/70/20 12/71/19 16/72/23
f 84/73/36 36/33/18 13/35/20 76/74/36
f 77/75/37 4/25/10 3/24/9 78/76/37
f 83/77/1 85/78/1 25/79/1 23/80/1
f 66/81/2 69/82/2 38/83/2 34/84/2
f 60/85/4 61/86/4 32/87/4 29/88/4
f 80/89/5 81/90/5 44/91/5 40/92/5
f 22/93/6 23/94/7 24/95/8
f 25/96/9 26/97/10 27/98/11
f 28/99/12 29/100/13 30/101/14
f 6/102/15 31/103/16 32/104/17
f 33/105/18 34/106/19 35/107/20
f 36/108/21 37/109/22 38/110/23
f 39/111/24 40/112/25 41/113/26
f 42/114/27 43/115/28 44/116/29
f 58/117/30 22/93/6 24/95/8 59/118/30
f 23/119/7 25/120/9 27/121/11 24/122/8
f 71/123/31 6/102/15 32/104/17 61/124/31
f 31/125/16 30/126/14 29/127/13 32/128/17
f 79/129/32 28/99/12 30/101/14 80/130/32
f 86/131/33 42/114/27 44/116/29 81/132/33
f 43/133/28 41/134/26 40/135/25 44/136/29
f 64/137/34 39/111/24 41/113/26 65/138/34
f 68/139/35 36/108/21 38/110/23 69/140/35
f 37/141/22 35/142/20 34/143/19 38/144/23
f 82/145/36 33/105/18 35/107/20 83/146/36
f 84/147/37 26/97/10 25/96/9 85/148/37
f 88/149/38 63/150/38 33/151/38 82/152/38
f 79/153/38 39/154/38 64/155/38 87/156/38
f 87/156/38 64/155/38 63/150/38 88/149/38
f 42/114/27 67/157/35 70/158/35 43/115/28
f 67/157/35 68/139/35 69/140/35 70/158/35
f 33/105/18 63/159/34 66/160/34 34/106/19
f 63/159/34 64/137/34 65/138/34 66/160/34
f 26/97/10 72/161/31 62/162/31 27/98/11
f 72/161/31 71/123/31 61/124/31 62/162/31
f 28/99/12 57/163/30 60/164/30 29/100/13
f 57/163/30 58/117/30 59/118/30 60/164/30
f 24/165/4 27/166/4 62/167/4 59/168/4
f 59/168/4 62/167/4 61/86/4 60/85/4
f 41/169/2 43/170/2 70/171/2 65/172/2
f 65/172/2 70/171/2 69/82/2 66/81/2
f 19/42/27 53/173/35 56/174/35 20/43/28
f 53/175/35 54/176/35 55/177/35 56/178/35
f 36/33/18 68/179/34 52/180/34 12/34/19
f 68/181/34 67/182/34 51/183/34 52/184/34
f 4/25/10 47/185/31 50/186/31 5/26/11
f 47/187/31 48/188/31 49/189/31 50/190/31
f 6/27/12 71/191/30 46/192/30 7/28/13
f 71/193/30 72/194/30 45/195/30 46/196/30
f 2/197/4 5/198/4 50/199/4 45/200/4
f 45/201/4 50/202/4 49/203/4 46/204/4
f 74/205/3 9/206/3 48/207/3 89/208/3
f 89/209/3 48/210/3 47/211/3 90/212/3
f 18/213/2 20/214/2 56/215/2 51/216/2
f 51/217/2 56/218/2 55/219/2 52/220/2
f 53/221/3 89/209/3 90/212/3 54/222/3
f 19/223/3 74/205/3 89/208/3 53/224/3
f 57/225/38 87/156/38 88/149/38 58/226/38
f 28/227/38 79/153/38 87/156/38 57/225/38
f 58/226/38 88/149/38 82/152/38 22/228/38
f 36/108/21 84/147/37 85/148/37 37/109/22
f 22/93/6 82/145/36 83/146/36 23/94/7
f 6/102/15 86/131/33 81/132/33 31/103/16
f 39/111/24 79/129/32 80/130/32 40/112/25
f 30/229/5 31/230/5 81/90/5 80/89/5
f 35/231/1 37/232/1 85/78/1 83/77/1
f 14/36/21 77/75/37 78/76/37 15/37/22
f 26/21/6 84/73/36 76/74/36 1/22/7
f 9/30/15 74/59/33 75/60/33 10/31/16
f 42/39/24 86/57/32 73/58/32 17/40/25
f 8/233/5 10/234/5 75/18/5 73/17/5
f 54/235/3 90/9/3 77/12/3 14/236/3
f 13/237/1 15/238/1 78/2/1 76/1/1
