# Blender v3.4.1 OBJ File: 'Platformer_Pack_Export_FREE.blend'
# www.blender.org
mtllib railing_straight_padded_blue.mtl
o railing_straight_padded_blue
v 0.841421 0.000000 -0.899999
v 0.841421 1.000000 -0.899999
v 0.899999 0.000000 -0.841421
v 0.899999 1.000000 -0.841421
v 0.899999 0.000000 -0.758578
v 0.899999 1.000000 -0.758578
v 0.841421 0.000000 -0.699999
v 0.841421 1.000000 -0.699999
v 0.758578 0.000000 -0.699999
v 0.758578 1.000000 -0.699999
v 0.699999 0.000000 -0.758578
v 0.699999 1.000000 -0.758578
v 0.699999 0.000000 -0.841421
v 0.699999 1.000000 -0.841421
v 0.758578 0.000000 -0.899999
v 0.758578 1.000000 -0.899999
v -0.758580 0.000000 -0.899999
v -0.758580 1.000000 -0.899999
v -0.700001 0.000000 -0.841421
v -0.700001 1.000000 -0.841421
v -0.700001 0.000000 -0.758578
v -0.700001 1.000000 -0.758578
v -0.758580 0.000000 -0.699999
v -0.758580 1.000000 -0.699999
v -0.841423 0.000000 -0.699999
v -0.841423 1.000000 -0.699999
v -0.900001 0.000000 -0.758578
v -0.900001 1.000000 -0.758578
v -0.900001 0.000000 -0.841421
v -0.900001 1.000000 -0.841421
v -0.841423 0.000000 -0.899999
v -0.841423 1.000000 -0.899999
v 0.999999 1.050000 -0.599999
v 0.999999 1.000000 -0.649999
v 0.999999 1.200000 -0.649999
v 0.999999 1.150000 -0.599999
v 0.999999 1.000000 -0.949999
v 0.999999 1.050000 -0.999999
v 0.999999 1.150000 -0.999999
v 0.999999 1.200000 -0.949999
v -1.000001 1.050000 -0.999999
v -1.000001 1.000000 -0.949999
v -1.000001 1.000000 -0.649999
v -1.000001 1.050000 -0.599999
v -1.000001 1.150000 -0.599999
v -1.000001 1.200000 -0.649999
v -1.000001 1.200000 -0.949999
v -1.000001 1.150000 -0.999999
v 0.699999 0.000000 -0.658578
v 0.699999 1.000000 -0.658578
v 0.699999 0.000000 -0.941421
v 0.699999 1.000000 -0.941421
v -0.700001 0.000000 -0.941421
v -0.700001 1.000000 -0.941421
v -0.700001 0.000000 -0.658578
v -0.700001 1.000000 -0.658578
v 0.652999 0.953000 -0.583378
v 0.499999 0.800000 -0.498578
v 0.499999 0.200000 -0.498578
v 0.652999 0.047000 -0.583378
v -0.500001 0.800000 -0.498578
v -0.653001 0.953000 -0.583378
v -0.653001 0.047000 -0.583378
v -0.500001 0.200000 -0.498578
v 0.499999 0.800000 -1.101421
v 0.652999 0.953000 -1.016621
v 0.652999 0.047000 -1.016621
v 0.499999 0.200000 -1.101421
v -0.653001 0.953000 -1.016621
v -0.500001 0.800000 -1.101421
v -0.500001 0.200000 -1.101421
v -0.653001 0.047000 -1.016621
vt 0.320240 0.898486
vt 0.320240 0.974724
vt 0.322445 0.974724
vt 0.322445 0.898486
vt 0.322445 0.974725
vt 0.322445 0.898486
vt 0.320240 0.974725
vt 0.320240 0.898486
vt 0.317121 0.974725
vt 0.317121 0.898486
vt 0.314916 0.974725
vt 0.314916 0.898486
vt 0.314916 0.974724
vt 0.314916 0.898486
vt 0.317121 0.974724
vt 0.317121 0.898486
vt 0.291257 0.898486
vt 0.291257 0.974724
vt 0.293462 0.974724
vt 0.293462 0.898486
vt 0.293462 0.974725
vt 0.293462 0.898486
vt 0.291257 0.974725
vt 0.291257 0.898486
vt 0.288138 0.974725
vt 0.288138 0.898486
vt 0.285933 0.974725
vt 0.285933 0.898486
vt 0.285933 0.974724
vt 0.285933 0.898486
vt 0.288138 0.974724
vt 0.288138 0.898486
vt 0.099586 0.164028
vt 0.099586 0.149997
vt 0.024295 0.149997
vt 0.024295 0.164028
vt 0.099586 0.202294
vt 0.099586 0.202294
vt 0.024295 0.202294
vt 0.024295 0.202294
vt 0.024295 0.195278
vt 0.024295 0.195278
vt 0.099586 0.111732
vt 0.099586 0.111732
vt 0.024295 0.111732
vt 0.024295 0.111732
vt 0.099586 0.149997
vt 0.099586 0.164028
vt 0.024295 0.164028
vt 0.024295 0.149997
vt 0.099586 0.195278
vt 0.099586 0.195278
vt 0.099586 0.118747
vt 0.024295 0.118747
vt 0.024295 0.118747
vt 0.099586 0.118747
vt 0.225803 0.793048
vt 0.225803 0.793048
vt 0.225803 0.925702
vt 0.225803 0.925702
vt 0.149197 0.793048
vt 0.149197 0.793048
vt 0.149197 0.925702
vt 0.149197 0.925702
vt 0.151768 0.799283
vt 0.223232 0.799283
vt 0.223232 0.919467
vt 0.151768 0.919467
vt 0.223232 0.919467
vt 0.223232 0.799283
vt 0.151768 0.799283
vt 0.160140 0.819579
vt 0.214859 0.819579
vt 0.214859 0.899171
vt 0.160140 0.899171
vt 0.151768 0.919467
vt 0.160140 0.899171
vt 0.214859 0.899171
vt 0.214859 0.819579
vt 0.160140 0.819579
vn 0.3827 0.0000 -0.9239
vn 0.9239 0.0000 -0.3827
vn 0.9239 0.0000 0.3827
vn 0.3827 0.0000 0.9239
vn -0.3827 0.0000 0.9239
vn -0.9239 0.0000 0.3827
vn -0.9239 0.0000 -0.3827
vn -0.3827 0.0000 -0.9239
vn 0.0000 -1.0000 0.0000
vn 0.0000 0.3827 -0.9239
vn 0.0000 -0.3827 -0.9239
vn 0.0000 0.9239 0.3827
vn 0.0000 0.9239 -0.3827
vn -1.0000 0.0000 0.0000
vn 0.0000 -0.9239 -0.3827
vn 0.0000 -0.9239 0.3827
vn 0.0000 -0.3827 0.9239
vn 0.0000 0.3827 0.9239
vn 1.0000 0.0000 0.0000
vn 0.9744 0.0000 0.2248
vn 0.9744 0.0000 -0.2248
vn -0.9744 0.0000 -0.2248
vn -0.9744 0.0000 0.2248
vn 0.0000 0.9744 0.2248
vn 0.0000 0.9744 -0.2248
vn 0.0000 -0.9744 -0.2248
vn -0.4520 -0.4520 -0.7690
vn 0.4520 -0.4520 -0.7690
vn 0.0000 -0.9744 0.2248
vn 0.4520 0.4520 -0.7690
vn -0.4520 0.4520 0.7690
vn 0.4520 0.4520 0.7690
vn 0.4520 -0.4520 0.7690
vn -0.4520 -0.4520 0.7690
vn -0.1916 -0.1916 0.9626
vn 0.1916 -0.1916 0.9626
vn 0.1916 0.1916 0.9626
vn -0.1916 0.1916 0.9626
vn -0.4520 0.4520 -0.7690
vn -0.1916 0.1916 -0.9626
vn 0.1916 0.1916 -0.9626
vn 0.1916 -0.1916 -0.9626
vn -0.1916 -0.1916 -0.9626
usemtl platformer
s 1
f 1/1/1 2/2/1 4/3/2 3/4/2
f 3/4/2 4/3/2 6/5/3 5/6/3
f 5/6/3 6/5/3 8/7/4 7/8/4
f 7/8/4 8/7/4 10/9/5 9/10/5
f 9/10/5 10/9/5 12/11/6 11/12/6
f 11/12/6 12/11/6 14/13/7 13/14/7
f 13/14/7 14/13/7 16/15/8 15/16/8
f 15/16/8 16/15/8 2/2/1 1/1/1
f 1/1/9 3/4/9 5/6/9 7/8/9 9/10/9 11/12/9 13/14/9 15/16/9
f 17/17/1 18/18/1 20/19/2 19/20/2
f 19/20/2 20/19/2 22/21/3 21/22/3
f 21/22/3 22/21/3 24/23/4 23/24/4
f 23/24/4 24/23/4 26/25/5 25/26/5
f 25/26/5 26/25/5 28/27/6 27/28/6
f 27/28/6 28/27/6 30/29/7 29/30/7
f 29/30/7 30/29/7 32/31/8 31/32/8
f 31/32/8 32/31/8 18/18/1 17/17/1
f 17/17/9 19/20/9 21/22/9 23/24/9 25/26/9 27/28/9 29/30/9 31/32/9
f 39/33/10 38/34/11 41/35/11 48/36/10
f 35/37/12 40/38/13 47/39/13 46/40/12
f 48/41/14 45/42/14 46/40/14 47/39/14
f 37/43/15 34/44/16 43/45/16 42/46/15
f 33/47/17 36/48/18 45/49/18 44/50/17
f 39/51/10 48/41/10 47/39/13 40/38/13
f 45/42/18 36/52/18 35/37/12 46/40/12
f 33/53/17 44/54/17 43/45/16 34/44/16
f 41/55/11 38/56/11 37/43/15 42/46/15
f 36/52/19 39/51/19 40/38/19 35/37/19
f 38/34/19 39/33/19 36/48/19 33/47/19
f 37/43/19 38/56/19 33/53/19 34/44/19
f 44/50/14 45/49/14 48/36/14 41/35/14
f 43/45/14 44/54/14 41/55/14 42/46/14
f 49/57/20 51/58/21 52/59/21 50/60/20
f 53/61/22 55/62/23 56/63/23 54/64/22
f 56/63/24 50/60/24 52/59/25 54/64/25
f 51/58/26 53/61/26 72/65/27 67/66/28
f 53/61/26 51/58/26 49/57/29 55/62/29
f 52/59/21 51/58/21 67/66/28 66/67/30
f 50/60/24 56/63/24 62/68/31 57/69/32
f 55/62/29 49/57/29 60/70/33 63/71/34
f 64/72/35 59/73/36 58/74/37 61/75/38
f 56/63/23 55/62/23 63/71/34 62/68/31
f 54/64/25 52/59/25 66/67/30 69/76/39
f 70/77/40 65/78/41 68/79/42 71/80/43
f 53/61/22 54/64/22 69/76/39 72/65/27
f 58/74/37 59/73/36 60/70/33 57/69/32
f 62/68/31 63/71/34 64/72/35 61/75/38
f 57/69/32 62/68/31 61/75/38 58/74/37
f 63/71/34 60/70/33 59/73/36 64/72/35
f 66/67/30 67/66/28 68/79/42 65/78/41
f 70/77/40 71/80/43 72/65/27 69/76/39
f 69/76/39 66/67/30 65/78/41 70/77/40
f 71/80/43 68/79/42 67/66/28 72/65/27
f 49/57/20 50/60/20 57/69/32 60/70/33
