# Blender v3.4.1 OBJ File: 'Platformer_Pack_Export_FREE.blend'
# www.blender.org
mtllib signage_arrow_stand_blue.mtl
o signage_arrow_stand_blue
v 0.031066 0.000000 -0.075000
v 0.031066 1.800000 -0.075000
v 0.075000 0.000000 -0.031066
v 0.075000 1.800000 -0.031066
v 0.075000 0.000000 0.031066
v 0.075000 1.800000 0.031066
v 0.031066 0.000000 0.075000
v 0.031066 1.800000 0.075000
v -0.031066 0.000000 0.075000
v -0.031066 1.800000 0.075000
v -0.075000 0.000000 0.031066
v -0.075000 1.800000 0.031066
v -0.075000 0.000000 -0.031066
v -0.075000 1.800000 -0.031066
v -0.031066 0.000000 -0.075000
v -0.031066 1.800000 -0.075000
v 0.400000 1.500000 0.275005
v 0.400000 1.500000 0.075005
v 0.000000 1.500000 0.075005
v 0.000000 1.500000 0.275005
v -0.300000 1.400000 -0.074994
v 0.300000 1.400000 -0.074994
v -0.300000 1.400000 0.075006
v 0.300000 1.400000 0.075006
v -0.300000 1.600000 -0.074994
v 0.300000 1.600000 -0.074994
v -0.300000 1.600000 0.075006
v 0.300000 1.600000 0.075006
v -0.170000 1.400000 -0.074994
v 0.170000 1.400000 -0.074994
v 0.170000 1.600000 -0.074994
v -0.170000 1.600000 -0.074994
v -0.100000 1.400000 -0.124994
v 0.100000 1.400000 -0.124994
v 0.100000 1.600000 -0.124994
v -0.100000 1.600000 -0.124994
v 0.272056 1.500000 -0.032929
v 0.229999 1.500000 -0.102647
v 0.259738 1.529739 -0.032929
v 0.229999 1.542057 -0.032929
v 0.200261 1.529739 -0.032929
v 0.187942 1.500000 -0.032929
v 0.200261 1.470262 -0.032929
v 0.229999 1.457943 -0.032929
v 0.259738 1.470262 -0.032929
v -0.272056 1.500000 -0.032929
v -0.229999 1.500000 -0.102647
v -0.259738 1.470261 -0.032929
v -0.229999 1.457943 -0.032929
v -0.200261 1.470261 -0.032929
v -0.187942 1.500000 -0.032929
v -0.200261 1.529738 -0.032929
v -0.229999 1.542057 -0.032929
v -0.259738 1.529738 -0.032929
v -0.263043 1.466956 -0.094053
v -0.276730 1.500000 -0.094053
v -0.229999 1.453269 -0.094053
v -0.196956 1.466956 -0.094053
v -0.183269 1.500000 -0.094053
v -0.196956 1.533043 -0.094053
v -0.229999 1.546730 -0.094053
v -0.263043 1.533043 -0.094053
v 0.263043 1.533044 -0.094053
v 0.276730 1.500000 -0.094053
v 0.229999 1.546731 -0.094053
v 0.196956 1.533044 -0.094053
v 0.183269 1.500000 -0.094053
v 0.196956 1.466957 -0.094053
v 0.229999 1.453270 -0.094053
v 0.263043 1.466957 -0.094053
v -0.450000 1.000000 0.225005
v -0.450000 1.050000 0.275005
v -0.500000 1.050000 0.225005
v -0.450000 1.014645 0.260360
v -0.478868 1.021132 0.253872
v -0.485355 1.050000 0.260360
v -0.485355 1.014645 0.225005
v -0.450000 1.950000 0.275005
v -0.450000 2.000000 0.225005
v -0.500000 1.950000 0.225005
v -0.450000 1.985355 0.260360
v -0.478868 1.978868 0.253872
v -0.485355 1.985355 0.225005
v -0.485355 1.950000 0.260360
v -0.450000 1.000000 0.125005
v -0.500000 1.050000 0.125005
v -0.450000 1.050000 0.075005
v -0.485355 1.014645 0.125005
v -0.478868 1.021132 0.096137
v -0.485355 1.050000 0.089649
v -0.450000 1.014645 0.089649
v -0.450000 2.000000 0.125005
v -0.450000 1.950000 0.075005
v -0.500000 1.950000 0.125005
v -0.450000 1.985355 0.089649
v -0.478868 1.978868 0.096137
v -0.485355 1.950000 0.089649
v -0.485355 1.985355 0.125005
v 0.450000 1.000000 0.225005
v 0.500000 1.050000 0.225005
v 0.450000 1.050000 0.275005
v 0.485355 1.014645 0.225005
v 0.478868 1.021132 0.253872
v 0.485355 1.050000 0.260360
v 0.450000 1.014645 0.260360
v 0.450000 2.000000 0.225005
v 0.450000 1.950000 0.275005
v 0.500000 1.950000 0.225005
v 0.450000 1.985355 0.260360
v 0.478868 1.978868 0.253872
v 0.485355 1.950000 0.260360
v 0.485355 1.985355 0.225005
v 0.450000 1.050000 0.075005
v 0.500000 1.050000 0.125005
v 0.450000 1.000000 0.125005
v 0.485355 1.050000 0.089649
v 0.478868 1.021132 0.096137
v 0.485355 1.014645 0.125005
v 0.450000 1.014645 0.089649
v 0.450000 2.000000 0.125005
v 0.500000 1.950000 0.125005
v 0.450000 1.950000 0.075005
v 0.485355 1.985355 0.125005
v 0.478868 1.978868 0.096137
v 0.485355 1.950000 0.089649
v 0.450000 1.985355 0.089649
v -0.500000 1.500000 0.225005
v -0.450000 1.500000 0.275005
v -0.485355 1.500000 0.260360
v -0.500000 1.500000 0.125005
v -0.450000 1.500000 0.075005
v -0.485355 1.500000 0.089649
v 0.450000 1.500000 0.075005
v 0.500000 1.500000 0.125005
v 0.485355 1.500000 0.089649
v 0.500000 1.500000 0.225005
v 0.450000 1.500000 0.275005
v 0.485355 1.500000 0.260360
v 0.100000 2.000000 0.125005
v 0.130000 1.950000 0.075005
v 0.108787 1.985355 0.089649
v 0.100000 1.000000 0.225005
v 0.130000 1.050000 0.275005
v 0.108787 1.014645 0.260360
v 0.100000 1.000000 0.125005
v 0.130000 1.050000 0.075005
v 0.108787 1.014645 0.089649
v 0.100000 2.000000 0.225005
v 0.130000 1.950000 0.275005
v 0.108787 1.985355 0.260360
v -0.300000 1.000000 0.125005
v -0.270000 1.050000 0.075005
v -0.291213 1.014645 0.089649
v -0.300000 2.000000 0.225005
v -0.270000 1.950000 0.275005
v -0.291213 1.985355 0.260360
v -0.270000 1.950000 0.075005
v -0.300000 2.000000 0.125005
v -0.291213 1.985355 0.089649
v -0.270000 1.050000 0.275005
v -0.300000 1.000000 0.225005
v -0.291213 1.014645 0.260360
vt 0.315300 0.793892
vt 0.315300 0.956108
vt 0.319259 0.956108
vt 0.319259 0.793892
vt 0.319259 0.956108
vt 0.319259 0.793892
vt 0.315300 0.956108
vt 0.315300 0.793892
vt 0.309700 0.956108
vt 0.309700 0.793892
vt 0.305741 0.956108
vt 0.305741 0.793892
vt 0.305741 0.956108
vt 0.305741 0.793892
vt 0.319259 0.987358
vt 0.315300 0.987358
vt 0.309700 0.987358
vt 0.305741 0.987358
vt 0.305741 0.987358
vt 0.309700 0.987358
vt 0.315300 0.987358
vt 0.319259 0.987358
vt 0.309700 0.956108
vt 0.309700 0.793892
vt 0.315300 0.762642
vt 0.319259 0.762642
vt 0.319259 0.762642
vt 0.315300 0.762642
vt 0.309700 0.762642
vt 0.305741 0.762642
vt 0.305741 0.762642
vt 0.309700 0.762642
vt 0.040919 0.237057
vt 0.030130 0.237057
vt 0.030130 0.237057
vt 0.040919 0.237057
vt 0.094868 0.156250
vt 0.094868 0.214913
vt 0.071849 0.214913
vt 0.091271 0.156250
vt 0.165919 0.762943
vt 0.194691 0.762943
vt 0.194691 0.762943
vt 0.165919 0.762943
vt 0.216271 0.875000
vt 0.196849 0.933663
vt 0.168077 0.933663
vt 0.187499 0.875000
vt 0.094868 0.097586
vt 0.071849 0.097586
vt 0.043077 0.097586
vt 0.062499 0.156250
vt 0.030130 0.156250
vt 0.030130 0.097586
vt 0.091271 0.156250
vt 0.071849 0.214913
vt 0.094868 0.214913
vt 0.094868 0.156250
vt 0.094868 0.237057
vt 0.069691 0.237057
vt 0.069691 0.237057
vt 0.094868 0.237057
vt 0.071849 0.097586
vt 0.094868 0.097586
vt 0.098464 0.125000
vt 0.098464 0.183663
vt 0.098464 0.183663
vt 0.098464 0.125000
vt 0.187499 0.875000
vt 0.216271 0.875000
vt 0.196849 0.816336
vt 0.168077 0.816336
vt 0.098464 0.066336
vt 0.098464 0.066336
vt 0.168077 0.933663
vt 0.196849 0.933663
vt 0.043077 0.214913
vt 0.030130 0.214913
vt 0.030130 0.156250
vt 0.030130 0.214913
vt 0.043077 0.214913
vt 0.062499 0.156250
vt 0.069691 0.028568
vt 0.094868 0.028568
vt 0.094868 0.028568
vt 0.069691 0.028568
vt 0.026533 0.066336
vt 0.026533 0.125000
vt 0.026533 0.125000
vt 0.026533 0.066336
vt 0.168077 0.816336
vt 0.196849 0.816336
vt 0.030130 0.097586
vt 0.043077 0.097586
vt 0.194691 0.987057
vt 0.165919 0.987057
vt 0.165919 0.987057
vt 0.194691 0.987057
vt 0.026533 0.183663
vt 0.026533 0.183663
vt 0.293048 0.637533
vt 0.293048 0.658337
vt 0.293048 0.658337
vt 0.325054 0.658337
vt 0.325054 0.658337
vt 0.325054 0.637533
vt 0.325054 0.653158
vt 0.325054 0.673962
vt 0.293048 0.673962
vt 0.293048 0.653158
vt 0.293048 0.546695
vt 0.325054 0.546695
vt 0.325054 0.546695
vt 0.293048 0.546695
vt 0.325054 0.705212
vt 0.293048 0.705212
vt 0.293048 0.705212
vt 0.325054 0.705212
vt 0.325054 0.577945
vt 0.325054 0.598749
vt 0.293048 0.598749
vt 0.293048 0.577945
vt 0.325054 0.684408
vt 0.293048 0.684408
vt 0.293048 0.673206
vt 0.325054 0.673206
vt 0.325054 0.562320
vt 0.325054 0.583124
vt 0.325054 0.562320
vt 0.293048 0.577945
vt 0.293048 0.673962
vt 0.325054 0.673962
vt 0.325054 0.577945
vt 0.293048 0.562320
vt 0.293048 0.583124
vt 0.293048 0.562320
vt 0.325054 0.609951
vt 0.325054 0.641956
vt 0.293048 0.641956
vt 0.293048 0.609951
vt 0.325054 0.626331
vt 0.325054 0.594326
vt 0.293048 0.594326
vt 0.293048 0.626331
vt 0.293048 0.567499
vt 0.325054 0.567499
vt 0.325054 0.578701
vt 0.293048 0.578701
vt 0.311655 0.944401
vt 0.311655 0.945643
vt 0.320438 0.942005
vt 0.319560 0.941126
vt 0.324076 0.933222
vt 0.322834 0.933222
vt 0.320438 0.924438
vt 0.319560 0.925317
vt 0.311655 0.920800
vt 0.311655 0.922042
vt 0.302872 0.924438
vt 0.303750 0.925317
vt 0.299234 0.933222
vt 0.300476 0.933222
vt 0.302872 0.942005
vt 0.303750 0.941126
vt 0.310657 0.921563
vt 0.310657 0.920320
vt 0.301874 0.923959
vt 0.302752 0.924837
vt 0.298235 0.932742
vt 0.299478 0.932742
vt 0.301874 0.941525
vt 0.302752 0.940647
vt 0.310657 0.945163
vt 0.310657 0.943921
vt 0.319440 0.941525
vt 0.318561 0.940647
vt 0.323078 0.932742
vt 0.321836 0.932742
vt 0.319440 0.923959
vt 0.318561 0.924837
vt 0.310657 0.956782
vt 0.301874 0.947999
vt 0.310657 0.944361
vt 0.298235 0.956782
vt 0.301874 0.965565
vt 0.310657 0.969204
vt 0.319440 0.965565
vt 0.323078 0.956782
vt 0.319440 0.947999
vt 0.311655 0.957262
vt 0.320438 0.966045
vt 0.311655 0.969683
vt 0.324076 0.957262
vt 0.320438 0.948479
vt 0.311655 0.944841
vt 0.302872 0.948479
vt 0.299234 0.957262
vt 0.302872 0.966045
vt 0.030130 0.028568
vt 0.030130 0.028568
vt 0.028053 0.028568
vt 0.026533 0.028568
vt 0.026533 0.097586
vt 0.026533 0.093823
vt 0.030130 0.091068
vt 0.026533 0.059818
vt 0.026533 0.059818
vt 0.026533 0.066336
vt 0.030130 0.221432
vt 0.028053 0.221432
vt 0.026533 0.214913
vt 0.026533 0.237057
vt 0.026533 0.237057
vt 0.030130 0.237057
vt 0.026533 0.183663
vt 0.026533 0.187427
vt 0.026533 0.190182
vt 0.030130 0.028568
vt 0.026533 0.028568
vt 0.026533 0.028568
vt 0.030130 0.028568
vt 0.026533 0.066336
vt 0.026533 0.062573
vt 0.026533 0.059818
vt 0.030130 0.091068
vt 0.028053 0.091068
vt 0.026533 0.097586
vt 0.030130 0.237057
vt 0.028053 0.237057
vt 0.026533 0.237057
vt 0.026533 0.214913
vt 0.026533 0.218677
vt 0.030130 0.221432
vt 0.026533 0.190182
vt 0.026533 0.190182
vt 0.026533 0.183663
vt 0.098464 0.028568
vt 0.098464 0.028568
vt 0.094868 0.028568
vt 0.098464 0.066336
vt 0.098464 0.062573
vt 0.098464 0.059818
vt 0.094868 0.091068
vt 0.096944 0.091068
vt 0.098464 0.097586
vt 0.094868 0.237057
vt 0.096944 0.237057
vt 0.098464 0.237057
vt 0.098464 0.214913
vt 0.098464 0.218677
vt 0.094868 0.221432
vt 0.098464 0.190182
vt 0.098464 0.190182
vt 0.098464 0.183663
vt 0.098464 0.097586
vt 0.098464 0.093823
vt 0.094868 0.091068
vt 0.098464 0.059818
vt 0.098464 0.059818
vt 0.098464 0.066336
vt 0.094868 0.028568
vt 0.096944 0.028568
vt 0.098464 0.028568
vt 0.098464 0.237057
vt 0.098464 0.237057
vt 0.094868 0.237057
vt 0.098464 0.183663
vt 0.098464 0.187427
vt 0.098464 0.190182
vt 0.094868 0.221432
vt 0.096944 0.221432
vt 0.098464 0.214913
vt 0.026533 0.156250
vt 0.026533 0.125000
vt 0.026533 0.156250
vt 0.026533 0.125000
vt 0.098464 0.125000
vt 0.098464 0.156250
vt 0.098464 0.156250
vt 0.098464 0.125000
vt 0.194691 0.987057
vt 0.166551 0.987057
vt 0.166551 0.940182
vt 0.194691 0.940182
vt 0.070324 0.237057
vt 0.070324 0.221432
vt 0.194691 0.762943
vt 0.166551 0.762943
vt 0.166551 0.809818
vt 0.194691 0.809818
vt 0.070324 0.028568
vt 0.070324 0.091068
vt 0.070324 0.028568
vt 0.070324 0.091068
vt 0.070324 0.237057
vt 0.070324 0.221432
vt 0.166551 0.762943
vt 0.194691 0.762943
vt 0.194691 0.809818
vt 0.166551 0.809818
vt 0.040919 0.028568
vt 0.040919 0.028568
vt 0.040919 0.091068
vt 0.166551 0.987057
vt 0.194691 0.987057
vt 0.194691 0.940182
vt 0.166551 0.940182
vt 0.040919 0.237057
vt 0.040919 0.221432
vt 0.040919 0.237057
vt 0.040919 0.221432
vt 0.040919 0.028568
vt 0.040919 0.028568
vt 0.040919 0.091068
vn 0.7071 0.0000 -0.7071
vn 0.9239 0.0000 -0.3827
vn 1.0000 0.0000 0.0000
vn 0.7071 0.0000 0.7071
vn -0.0000 0.0000 1.0000
vn -0.3827 0.0000 0.9239
vn -0.9239 0.0000 0.3827
vn -0.9239 0.0000 -0.3827
vn 0.0000 1.0000 -0.0000
vn -0.7071 0.0000 -0.7071
vn 0.0000 0.0000 -1.0000
vn 0.0000 -1.0000 0.0000
vn 0.0000 0.9808 -0.1951
vn -0.1794 0.9673 -0.1794
vn -0.1794 0.9673 0.1794
vn 0.0000 0.9808 0.1951
vn 0.1951 -0.0000 0.9808
vn 0.1794 0.1794 0.9673
vn -0.0000 0.1951 0.9808
vn 0.0000 -0.9808 -0.1951
vn -0.0000 -0.9808 0.1951
vn 0.1794 -0.1794 0.9673
vn -0.0000 -0.1951 0.9808
vn -0.1951 -0.0000 0.9808
vn -0.1794 -0.1794 0.9673
vn 0.0000 0.1951 -0.9808
vn 0.1794 0.1794 -0.9673
vn 0.1951 0.0000 -0.9808
vn 0.1794 0.9673 -0.1794
vn 0.1794 0.9673 0.1794
vn 0.0000 -0.1951 -0.9808
vn 0.1794 -0.1794 -0.9673
vn 0.9808 0.0000 -0.1951
vn 0.9673 0.1794 -0.1794
vn 0.9673 0.1794 0.1794
vn 0.9808 0.0000 0.1951
vn 0.9673 -0.1794 -0.1794
vn 0.9673 -0.1794 0.1794
vn -0.1794 0.1794 0.9673
vn -0.1951 0.0000 -0.9808
vn -0.1794 0.1794 -0.9673
vn 0.1794 -0.9673 -0.1794
vn 0.1794 -0.9673 0.1794
vn -0.9673 -0.1794 0.1794
vn -0.9808 0.0000 0.1951
vn -0.9808 0.0000 -0.1951
vn -0.9673 -0.1794 -0.1794
vn -0.1794 -0.1794 -0.9673
vn -0.9673 0.1794 0.1794
vn -0.9673 0.1794 -0.1794
vn 0.3052 -0.0000 -0.9523
vn -1.0000 0.0000 0.0000
vn -0.3052 0.0000 -0.9523
vn 0.9971 -0.0000 0.0762
vn 0.7050 0.7050 0.0762
vn 0.0000 0.9971 0.0762
vn -0.7050 0.7050 0.0762
vn -0.9971 0.0000 0.0762
vn -0.7050 -0.7050 0.0762
vn 0.0000 -0.9971 0.0762
vn 0.7050 -0.7050 0.0762
vn -0.1279 -0.1279 -0.9835
vn -0.1809 0.0000 -0.9835
vn -0.0000 -0.1809 -0.9835
vn 0.1279 -0.1279 -0.9835
vn 0.1809 0.0000 -0.9835
vn 0.1279 0.1279 -0.9835
vn -0.0000 0.1809 -0.9835
vn -0.1279 0.1279 -0.9835
vn -0.1794 -0.9673 0.1794
vn -0.1585 -0.9194 0.3600
vn -0.3251 -0.8881 0.3251
vn -0.3600 -0.9194 0.1585
vn -0.6965 -0.1726 0.6965
vn -0.3251 -0.3251 0.8881
vn -0.1585 -0.3600 0.9194
vn -0.9194 -0.3600 0.1585
vn -0.8881 -0.3251 0.3251
vn -0.1726 0.6965 0.6965
vn -0.3251 0.3251 0.8881
vn -0.6965 0.1726 0.6965
vn -0.3600 0.9194 0.1585
vn -0.3251 0.8881 0.3251
vn -0.8881 0.3251 0.3251
vn -0.9194 0.3600 0.1585
vn -0.1794 -0.9673 -0.1794
vn -0.3600 -0.9194 -0.1585
vn -0.3251 -0.8881 -0.3251
vn -0.1585 -0.9194 -0.3600
vn -0.9194 -0.1585 -0.3600
vn -0.8881 -0.3251 -0.3251
vn -0.9194 -0.3600 -0.1585
vn -0.1585 -0.3600 -0.9194
vn -0.3251 -0.3251 -0.8881
vn -0.3600 -0.1585 -0.9194
vn -0.1726 0.6965 -0.6965
vn -0.3251 0.8881 -0.3251
vn -0.3600 0.9194 -0.1585
vn -0.3600 0.1585 -0.9194
vn -0.3251 0.3251 -0.8881
vn -0.9194 0.3600 -0.1585
vn -0.8881 0.3251 -0.3251
vn -0.9194 0.1585 -0.3600
vn 0.3600 -0.9194 0.1585
vn 0.3251 -0.8881 0.3251
vn 0.1585 -0.9194 0.3600
vn 0.6965 -0.1726 0.6965
vn 0.8881 -0.3251 0.3251
vn 0.9194 -0.3600 0.1585
vn 0.1585 -0.3600 0.9194
vn 0.3251 -0.3251 0.8881
vn 0.1726 0.6965 0.6965
vn 0.3251 0.8881 0.3251
vn 0.3600 0.9194 0.1585
vn 0.6965 0.1726 0.6965
vn 0.3251 0.3251 0.8881
vn 0.9194 0.3600 0.1585
vn 0.8881 0.3251 0.3251
vn 0.3600 -0.1585 -0.9194
vn 0.3251 -0.3251 -0.8881
vn 0.1585 -0.3600 -0.9194
vn 0.9194 -0.3600 -0.1585
vn 0.8881 -0.3251 -0.3251
vn 0.9194 -0.1585 -0.3600
vn 0.1585 -0.9194 -0.3600
vn 0.3251 -0.8881 -0.3251
vn 0.3600 -0.9194 -0.1585
vn 0.3600 0.9194 -0.1585
vn 0.3251 0.8881 -0.3251
vn 0.1585 0.9194 -0.3600
vn 0.9194 0.1585 -0.3600
vn 0.8881 0.3251 -0.3251
vn 0.9194 0.3600 -0.1585
vn 0.1585 0.3600 -0.9194
vn 0.3251 0.3251 -0.8881
vn 0.3600 0.1585 -0.9194
vn -0.7071 -0.0000 0.7071
vn -0.3827 0.0000 -0.9239
vn 0.3827 0.0000 -0.9239
vn 0.0000 0.9239 -0.3827
vn 0.0000 0.7071 -0.7071
vn 0.0000 0.3827 -0.9239
vn -0.0000 -0.9239 0.3827
vn 0.0000 -0.3827 0.9239
vn 0.0000 -0.9239 -0.3827
vn 0.0000 -0.3827 -0.9239
vn -0.0000 0.7071 0.7071
usemtl platformer
s 1
f 1/1/1 2/2/1 4/3/2 3/4/2
f 3/4/2 4/3/2 6/5/3 5/6/3
f 5/6/4 6/5/4 8/7/4 7/8/4
f 7/8/5 8/7/5 10/9/6 9/10/6
f 9/10/6 10/9/6 12/11/7 11/12/7
f 11/12/7 12/11/7 14/13/8 13/14/8
f 4/15/9 2/16/9 16/17/9 14/18/9 12/19/9 10/20/9 8/21/9 6/22/9
f 13/14/8 14/13/8 16/23/10 15/24/10
f 15/24/11 16/23/11 2/2/11 1/1/11
f 1/25/12 3/26/12 5/27/12 7/28/12 9/29/12 11/30/12 13/31/12 15/32/12
f 158/33/13 92/34/14 79/35/15 154/36/16
f 137/37/17 107/38/18 149/39/19 17/40/5
f 151/41/20 145/42/20 142/43/21 161/44/21
f 17/45/5 149/46/19 155/47/19 20/48/5
f 101/49/22 137/37/17 17/40/5 143/50/23
f 160/51/23 20/52/5 128/53/24 72/54/25
f 18/55/11 140/56/26 122/57/27 133/58/28
f 120/59/29 139/60/13 148/61/16 106/62/30
f 146/63/31 18/55/11 133/58/28 113/64/32
f 134/65/33 121/66/34 108/67/35 136/68/36
f 19/69/11 18/70/11 146/71/31 152/72/31
f 114/73/37 134/65/33 136/68/36 100/74/38
f 19/69/11 157/75/26 140/76/26 18/70/11
f 20/52/5 155/77/19 78/78/39 128/53/24
f 131/79/40 93/80/41 157/81/26 19/82/11
f 145/83/20 115/84/42 99/85/43 142/86/21
f 73/87/44 127/88/45 130/89/46 86/90/47
f 17/45/5 20/48/5 160/91/23 143/92/23
f 87/93/48 131/79/40 19/82/11 152/94/31
f 139/95/13 158/96/13 154/97/16 148/98/16
f 127/88/45 80/99/49 94/100/50 130/89/46
f 30/101/12 22/102/12 24/103/12
f 28/104/9 26/105/9 31/106/9
f 31/107/51 26/108/11 22/109/11 30/110/51
f 23/111/52 27/112/52 25/113/52 21/114/52
f 28/115/3 24/116/3 22/117/3 26/118/3
f 25/119/11 32/120/53 29/121/53 21/122/11
f 31/123/51 30/124/51 34/125/51 35/126/51
f 27/127/9 32/128/9 25/129/9
f 27/127/9 28/104/9 31/106/9 32/128/9
f 23/130/5 24/131/5 28/132/5 27/133/5
f 21/134/12 29/135/12 23/136/12
f 29/135/12 30/101/12 24/103/12 23/136/12
f 36/137/53 35/138/51 34/139/51 33/140/53
f 32/128/9 31/106/9 35/141/9 36/142/9
f 30/101/12 29/135/12 33/143/12 34/144/12
f 29/145/53 32/146/53 36/147/53 33/148/53
f 37/149/54 64/150/54 63/151/55 39/152/55
f 39/152/55 63/151/55 65/153/56 40/154/56
f 40/154/56 65/153/56 66/155/57 41/156/57
f 41/156/57 66/155/57 67/157/58 42/158/58
f 42/158/58 67/157/58 68/159/59 43/160/59
f 43/160/59 68/159/59 69/161/60 44/162/60
f 44/162/60 69/161/60 70/163/61 45/164/61
f 45/164/61 70/163/61 64/150/54 37/149/54
f 46/165/58 56/166/58 55/167/59 48/168/59
f 48/168/59 55/167/59 57/169/60 49/170/60
f 49/170/60 57/169/60 58/171/61 50/172/61
f 50/172/61 58/171/61 59/173/54 51/174/54
f 51/174/54 59/173/54 60/175/55 52/176/55
f 52/176/55 60/175/55 61/177/56 53/178/56
f 53/178/56 61/177/56 62/179/57 54/180/57
f 54/180/57 62/179/57 56/166/58 46/165/58
f 47/181/11 55/182/62 56/183/63
f 47/181/11 57/184/64 55/182/62
f 47/181/11 58/185/65 57/184/64
f 47/181/11 59/186/66 58/185/65
f 47/181/11 60/187/67 59/186/66
f 47/181/11 61/188/68 60/187/67
f 47/181/11 62/189/69 61/188/68
f 47/181/11 56/183/63 62/189/69
f 38/190/11 63/191/67 64/192/66
f 38/190/11 65/193/68 63/191/67
f 38/190/11 66/194/69 65/193/68
f 38/190/11 67/195/63 66/194/69
f 38/190/11 68/196/62 67/195/63
f 38/190/11 69/197/64 68/196/62
f 38/190/11 70/198/65 69/197/64
f 38/190/11 64/192/66 70/198/65
f 71/199/70 74/200/71 75/201/72 77/202/73
f 72/54/25 76/203/74 75/204/75 74/205/76
f 73/87/44 77/206/77 75/207/78 76/208/74
f 78/78/39 81/209/79 82/210/80 84/211/81
f 79/35/15 83/212/82 82/213/83 81/214/79
f 80/99/49 84/215/81 82/216/84 83/217/85
f 85/218/86 88/219/87 89/220/88 91/221/89
f 86/90/47 90/222/90 89/223/91 88/224/92
f 87/93/48 91/225/93 89/226/94 90/227/95
f 92/34/14 95/228/96 96/229/97 98/230/98
f 93/80/41 97/231/99 96/232/100 95/233/96
f 94/100/50 98/234/101 96/235/102 97/236/103
f 99/85/43 102/237/104 103/238/105 105/239/106
f 100/74/38 104/240/107 103/241/108 102/242/109
f 101/49/22 105/243/110 103/244/111 104/245/107
f 106/62/30 109/246/112 110/247/113 112/248/114
f 107/38/18 111/249/115 110/250/116 109/251/112
f 108/67/35 112/252/117 110/253/118 111/254/115
f 113/64/32 116/255/119 117/256/120 119/257/121
f 114/73/37 118/258/122 117/259/123 116/260/124
f 115/84/42 119/261/125 117/262/126 118/263/127
f 120/59/29 123/264/128 124/265/129 126/266/130
f 121/66/34 125/267/131 124/268/132 123/269/133
f 122/57/27 126/270/134 124/271/135 125/272/136
f 85/218/86 71/199/70 77/202/73 88/219/87
f 88/224/92 77/206/77 73/87/44 86/90/47
f 128/53/24 78/78/39 84/211/81 129/273/137
f 129/274/137 84/215/81 80/99/49 127/88/45
f 79/35/15 92/34/14 98/230/98 83/212/82
f 83/217/85 98/234/101 94/100/50 80/99/49
f 131/79/40 87/93/48 90/227/95 132/275/138
f 132/276/8 90/222/90 86/90/47 130/89/46
f 134/65/33 114/73/37 116/260/124 135/277/2
f 135/278/139 116/255/119 113/64/32 133/58/28
f 99/85/43 115/84/42 118/263/127 102/237/104
f 102/242/109 118/258/122 114/73/37 100/74/38
f 120/59/29 106/62/30 112/248/114 123/264/128
f 123/269/133 112/252/117 108/67/35 121/66/34
f 137/37/17 101/49/22 104/245/107 138/279/4
f 138/280/4 104/240/107 100/74/38 136/68/36
f 72/54/25 128/53/24 129/273/137 76/203/74
f 76/208/74 129/274/137 127/88/45 73/87/44
f 93/80/41 131/79/40 132/275/138 97/231/99
f 97/236/103 132/276/8 130/89/46 94/100/50
f 121/66/34 134/65/33 135/277/2 125/267/131
f 125/272/136 135/278/139 133/58/28 122/57/27
f 107/38/18 137/37/17 138/279/4 111/249/115
f 111/254/115 138/280/4 136/68/36 108/67/35
f 158/96/13 139/95/13 141/281/140 159/282/141
f 159/283/141 141/284/142 140/76/26 157/75/26
f 139/60/13 120/59/29 126/266/130 141/285/140
f 141/286/142 126/270/134 122/57/27 140/56/26
f 161/44/21 142/43/21 144/287/143 162/288/143
f 162/289/144 144/290/144 143/92/23 160/91/23
f 142/86/21 99/85/43 105/239/106 144/291/143
f 144/292/144 105/243/110 101/49/22 143/50/23
f 115/84/42 145/83/20 147/293/145 119/261/125
f 119/257/121 147/294/146 146/63/31 113/64/32
f 106/62/30 148/61/16 150/295/147 109/246/112
f 109/251/112 150/296/147 149/39/19 107/38/18
f 145/42/20 151/41/20 153/297/145 147/298/145
f 147/299/146 153/300/146 152/72/31 146/71/31
f 151/301/20 85/218/86 91/221/89 153/302/145
f 153/303/146 91/225/93 87/93/48 152/94/31
f 148/98/16 154/97/16 156/304/147 150/305/147
f 150/306/147 156/307/147 155/47/19 149/46/19
f 154/36/16 79/35/15 81/214/79 156/308/147
f 156/309/147 81/209/79 78/78/39 155/77/19
f 92/34/14 158/33/13 159/310/141 95/228/96
f 95/233/96 159/311/141 157/81/26 93/80/41
f 71/199/70 161/312/21 162/313/143 74/200/71
f 74/205/76 162/314/144 160/51/23 72/54/25
f 85/218/86 151/301/20 161/312/21 71/199/70
