# Blender v3.4.1 OBJ File: 'Forest_Nature_Pack_Export.blend'
# www.blender.org
mtllib Bush_2_B_Color1.mtl
o Bush_2_B_Color1
v -0.260208 -0.000000 0.260208
v -0.260208 0.168792 0.429000
v -0.429000 0.168792 0.260208
v -0.259321 0.054657 0.374343
v -0.350236 0.078764 0.350236
v -0.374343 0.169679 0.374343
v -0.374343 0.054657 0.259321
v -0.260208 0.689208 0.429000
v -0.260208 0.858000 0.260208
v -0.429000 0.689208 0.260208
v -0.259321 0.803343 0.374343
v -0.350236 0.779236 0.350236
v -0.374343 0.803343 0.259321
v -0.374343 0.688321 0.374343
v -0.260208 -0.000000 -0.260208
v -0.429000 0.168792 -0.260208
v -0.260208 0.168792 -0.429000
v -0.374343 0.054657 -0.259321
v -0.350236 0.078764 -0.350236
v -0.374343 0.169679 -0.374343
v -0.259321 0.054657 -0.374343
v -0.260208 0.858000 -0.260208
v -0.260208 0.689208 -0.429000
v -0.429000 0.689208 -0.260208
v -0.259321 0.803343 -0.374343
v -0.350236 0.779236 -0.350236
v -0.374343 0.688321 -0.374343
v -0.374343 0.803343 -0.259321
v 0.260208 -0.000000 0.260208
v 0.429000 0.168792 0.260208
v 0.260208 0.168792 0.429000
v 0.374343 0.054657 0.259321
v 0.350236 0.078764 0.350236
v 0.374343 0.169679 0.374343
v 0.259321 0.054657 0.374343
v 0.260208 0.858000 0.260208
v 0.260208 0.689208 0.429000
v 0.429000 0.689208 0.260208
v 0.259321 0.803343 0.374343
v 0.350236 0.779236 0.350236
v 0.374343 0.688321 0.374343
v 0.374343 0.803343 0.259321
v 0.260208 -0.000000 -0.260208
v 0.260208 0.168792 -0.429000
v 0.429000 0.168792 -0.260208
v 0.259321 0.054657 -0.374343
v 0.350236 0.078764 -0.350236
v 0.374343 0.169679 -0.374343
v 0.374343 0.054657 -0.259321
v 0.260208 0.858000 -0.260208
v 0.429000 0.689208 -0.260208
v 0.260208 0.689208 -0.429000
v 0.374343 0.803343 -0.259321
v 0.350236 0.779236 -0.350236
v 0.374343 0.688321 -0.374343
v 0.259321 0.803343 -0.374343
vt 0.091662 0.829310
vt 0.091662 0.920690
vt 0.037676 0.920690
vt 0.037676 0.829310
vt 0.109174 0.829310
vt 0.109174 0.920690
vt 0.109174 0.920690
vt 0.109174 0.829310
vt 0.091664 0.950328
vt 0.037676 0.950328
vt 0.037676 0.950328
vt 0.091664 0.950328
vt 0.020165 0.829310
vt 0.020165 0.920690
vt 0.020165 0.920690
vt 0.020165 0.829310
vt 0.037676 0.829310
vt 0.037676 0.920690
vt 0.091662 0.920690
vt 0.091662 0.829310
vt 0.037676 0.799671
vt 0.037767 0.809268
vt 0.028336 0.813501
vt 0.025835 0.809268
vt 0.025835 0.829465
vt 0.037767 0.940731
vt 0.028336 0.936498
vt 0.025835 0.920534
vt 0.025835 0.940731
vt 0.037676 0.799671
vt 0.025835 0.809268
vt 0.028336 0.813501
vt 0.037767 0.809268
vt 0.025835 0.829465
vt 0.037767 0.940731
vt 0.028336 0.936498
vt 0.025835 0.940731
vt 0.025835 0.920534
vt 0.091662 0.799671
vt 0.103503 0.809268
vt 0.101002 0.813501
vt 0.091572 0.809268
vt 0.103503 0.829465
vt 0.091572 0.940731
vt 0.101002 0.936498
vt 0.103503 0.940731
vt 0.103503 0.920534
vt 0.091662 0.799671
vt 0.091572 0.809268
vt 0.101002 0.813501
vt 0.103503 0.809268
vt 0.103503 0.829465
vt 0.103503 0.940731
vt 0.101002 0.936498
vt 0.091572 0.940731
vt 0.103503 0.920534
vn 0.2050 -0.2050 0.9571
vn 0.2050 0.2050 0.9571
vn -0.2050 0.2050 0.9571
vn -0.2050 -0.2050 0.9571
vn 0.9571 -0.2050 -0.2050
vn 0.9571 0.2050 -0.2050
vn 0.9571 0.2050 0.2050
vn 0.9571 -0.2050 0.2050
vn 0.2050 0.9571 -0.2050
vn -0.2050 0.9571 -0.2050
vn -0.2050 0.9571 0.2050
vn 0.2050 0.9571 0.2050
vn -0.9571 -0.2050 0.2050
vn -0.9571 0.2050 0.2050
vn -0.9571 0.2050 -0.2050
vn -0.9571 -0.2050 -0.2050
vn -0.2050 -0.2050 -0.9571
vn -0.2050 0.2050 -0.9571
vn 0.2050 0.2050 -0.9571
vn 0.2050 -0.2050 -0.9571
vn -0.2050 -0.9571 0.2050
vn -0.1929 -0.6938 0.6938
vn -0.5774 -0.5774 0.5774
vn -0.6938 -0.6938 0.1929
vn -0.6938 -0.1929 0.6938
vn -0.1929 0.6938 0.6938
vn -0.5774 0.5773 0.5774
vn -0.6938 0.1929 0.6938
vn -0.6938 0.6938 0.1929
vn -0.2050 -0.9571 -0.2050
vn -0.6938 -0.6938 -0.1929
vn -0.5774 -0.5774 -0.5774
vn -0.1929 -0.6938 -0.6938
vn -0.6938 -0.1929 -0.6938
vn -0.1929 0.6938 -0.6938
vn -0.5774 0.5773 -0.5774
vn -0.6938 0.6938 -0.1929
vn -0.6938 0.1929 -0.6938
vn 0.2050 -0.9571 0.2050
vn 0.6938 -0.6938 0.1929
vn 0.5774 -0.5774 0.5774
vn 0.1929 -0.6938 0.6938
vn 0.6938 -0.1929 0.6938
vn 0.1929 0.6938 0.6938
vn 0.5774 0.5774 0.5774
vn 0.6938 0.6938 0.1929
vn 0.6938 0.1929 0.6938
vn 0.2050 -0.9571 -0.2050
vn 0.1929 -0.6938 -0.6938
vn 0.5774 -0.5774 -0.5774
vn 0.6938 -0.6938 -0.1929
vn 0.6938 -0.1929 -0.6938
vn 0.6938 0.6938 -0.1929
vn 0.5774 0.5774 -0.5774
vn 0.1929 0.6938 -0.6938
vn 0.6938 0.1929 -0.6938
usemtl forest
s 1
f 31/1/1 37/2/2 8/3/3 2/4/4
f 45/5/5 51/6/6 38/7/7 30/8/8
f 50/9/9 22/10/10 9/11/11 36/12/12
f 3/13/13 10/14/14 24/15/15 16/16/16
f 17/17/17 23/18/18 52/19/19 44/20/20
f 1/21/21 4/22/22 5/23/23 7/24/24
f 2/4/4 6/25/25 5/23/23 4/22/22
f 3/13/13 7/24/24 5/23/23 6/25/25
f 8/3/3 11/26/26 12/27/27 14/28/28
f 9/11/11 13/29/29 12/27/27 11/26/26
f 10/14/14 14/28/28 12/27/27 13/29/29
f 15/30/30 18/31/31 19/32/32 21/33/33
f 16/16/16 20/34/34 19/32/32 18/31/31
f 17/17/17 21/33/33 19/32/32 20/34/34
f 22/10/10 25/35/35 26/36/36 28/37/37
f 23/18/18 27/38/38 26/36/36 25/35/35
f 24/15/15 28/37/37 26/36/36 27/38/38
f 29/39/39 32/40/40 33/41/41 35/42/42
f 30/8/8 34/43/43 33/41/41 32/40/40
f 31/1/1 35/42/42 33/41/41 34/43/43
f 36/12/12 39/44/44 40/45/45 42/46/46
f 37/2/2 41/47/47 40/45/45 39/44/44
f 38/7/7 42/46/46 40/45/45 41/47/47
f 43/48/48 46/49/49 47/50/50 49/51/51
f 44/20/20 48/52/52 47/50/50 46/49/49
f 45/5/5 49/51/51 47/50/50 48/52/52
f 50/9/9 53/53/53 54/54/54 56/55/55
f 51/6/6 55/56/56 54/54/54 53/53/53
f 52/19/19 56/55/55 54/54/54 55/56/56
f 15/30/30 1/21/21 7/24/24 18/31/31
f 18/31/31 7/24/24 3/13/13 16/16/16
f 2/4/4 8/3/3 14/28/28 6/25/25
f 6/25/25 14/28/28 10/14/14 3/13/13
f 9/11/11 22/10/10 28/37/37 13/29/29
f 13/29/29 28/37/37 24/15/15 10/14/14
f 23/18/18 17/17/17 20/34/34 27/38/38
f 27/38/38 20/34/34 16/16/16 24/15/15
f 43/48/48 15/30/30 21/33/33 46/49/49
f 46/49/49 21/33/33 17/17/17 44/20/20
f 22/10/10 50/9/9 56/55/55 25/35/35
f 25/35/35 56/55/55 52/19/19 23/18/18
f 51/6/6 45/5/5 48/52/52 55/56/56
f 55/56/56 48/52/52 44/20/20 52/19/19
f 29/39/39 43/48/48 49/51/51 32/40/40
f 32/40/40 49/51/51 45/5/5 30/8/8
f 50/9/9 36/12/12 42/46/46 53/53/53
f 53/53/53 42/46/46 38/7/7 51/6/6
f 37/2/2 31/1/1 34/43/43 41/47/47
f 41/47/47 34/43/43 30/8/8 38/7/7
f 1/21/21 29/39/39 35/42/42 4/22/22
f 4/22/22 35/42/42 31/1/1 2/4/4
f 36/12/12 9/11/11 11/26/26 39/44/44
f 39/44/44 11/26/26 8/3/3 37/2/2
f 15/30/30 43/48/48 29/39/39 1/21/21
