# Blender v3.4.1 OBJ File: 'Forest_Nature_Pack_Export.blend'
# www.blender.org
mtllib Bush_2_A_Color1.mtl
o Bush_2_A_Color1
v -0.163339 0.000000 0.163340
v -0.163339 0.100661 0.264000
v -0.264000 0.100660 0.163340
v -0.163339 0.427339 0.264000
v -0.163339 0.528000 0.163340
v -0.264000 0.427340 0.163340
v -0.163339 0.000000 -0.163340
v -0.264000 0.100661 -0.163340
v -0.163339 0.100660 -0.264000
v -0.163339 0.528000 -0.163340
v -0.163339 0.427339 -0.264000
v -0.264000 0.427340 -0.163340
v 0.163340 0.000000 0.163340
v 0.264000 0.100661 0.163340
v 0.163340 0.100661 0.264000
v 0.163340 0.528000 0.163340
v 0.163340 0.427339 0.264000
v 0.264000 0.427339 0.163340
v 0.163340 0.000000 -0.163340
v 0.163340 0.100661 -0.264000
v 0.264000 0.100661 -0.163340
v 0.163340 0.528000 -0.163340
v 0.264000 0.427339 -0.163340
v 0.163340 0.427339 -0.264000
vt 0.092205 0.828394
vt 0.092205 0.921607
vt 0.037135 0.921607
vt 0.037135 0.828394
vt 0.109174 0.828394
vt 0.109174 0.921607
vt 0.109174 0.921607
vt 0.109174 0.828394
vt 0.092205 0.950328
vt 0.037135 0.950328
vt 0.037135 0.950328
vt 0.092205 0.950328
vt 0.020165 0.828394
vt 0.020165 0.921607
vt 0.020165 0.921607
vt 0.020165 0.828394
vt 0.037135 0.828394
vt 0.037135 0.921607
vt 0.092205 0.921607
vt 0.092205 0.828394
vt 0.037135 0.799671
vt 0.037135 0.799671
vt 0.092205 0.799671
vt 0.092205 0.799671
vn 0.3416 -0.3416 0.8756
vn 0.3416 0.3416 0.8756
vn -0.3416 0.3416 0.8756
vn -0.3416 -0.3416 0.8756
vn 0.8756 -0.3416 -0.3416
vn 0.8756 0.3416 -0.3416
vn 0.8756 0.3416 0.3416
vn 0.8756 -0.3416 0.3416
vn 0.3416 0.8756 -0.3416
vn -0.3416 0.8756 -0.3416
vn -0.3416 0.8756 0.3416
vn 0.3416 0.8756 0.3416
vn -0.8756 -0.3416 0.3416
vn -0.8756 0.3416 0.3416
vn -0.8756 0.3416 -0.3416
vn -0.8756 -0.3416 -0.3416
vn -0.3416 -0.3416 -0.8756
vn -0.3416 0.3416 -0.8756
vn 0.3416 0.3416 -0.8756
vn 0.3416 -0.3416 -0.8756
vn -0.3416 -0.8756 0.3416
vn -0.3416 -0.8756 -0.3416
vn 0.3416 -0.8756 0.3416
vn 0.3416 -0.8756 -0.3416
usemtl forest
s 1
f 15/1/1 17/2/2 4/3/3 2/4/4
f 21/5/5 23/6/6 18/7/7 14/8/8
f 22/9/9 10/10/10 5/11/11 16/12/12
f 3/13/13 6/14/14 12/15/15 8/16/16
f 9/17/17 11/18/18 24/19/19 20/20/20
f 1/21/21 2/4/4 3/13/13
f 4/3/3 5/11/11 6/14/14
f 7/22/22 8/16/16 9/17/17
f 10/10/10 11/18/18 12/15/15
f 13/23/23 14/8/8 15/1/1
f 16/12/12 17/2/2 18/7/7
f 19/24/24 20/20/20 21/5/5
f 22/9/9 23/6/6 24/19/19
f 7/22/22 1/21/21 3/13/13 8/16/16
f 2/4/4 4/3/3 6/14/14 3/13/13
f 5/11/11 10/10/10 12/15/15 6/14/14
f 11/18/18 9/17/17 8/16/16 12/15/15
f 19/24/24 7/22/22 9/17/17 20/20/20
f 10/10/10 22/9/9 24/19/19 11/18/18
f 23/6/6 21/5/5 20/20/20 24/19/19
f 13/23/23 19/24/24 21/5/5 14/8/8
f 22/9/9 16/12/12 18/7/7 23/6/6
f 17/2/2 15/1/1 14/8/8 18/7/7
f 1/21/21 13/23/23 15/1/1 2/4/4
f 16/12/12 5/11/11 4/3/3 17/2/2
f 7/22/22 19/24/24 13/23/23 1/21/21
