# Blender v3.4.1 OBJ File: 'Forest_Nature_Pack_Export.blend'
# www.blender.org
mtllib Bush_3_B_Color1.mtl
o Bush_3_B_Color1
v 0.000000 0.777420 0.000000
v -0.489596 0.520760 0.327244
v -0.000000 -0.026114 0.000000
v -0.327244 0.520760 0.489596
v -0.114800 0.520760 0.577593
v 0.114800 0.520760 0.577593
v 0.327244 0.520760 0.489596
v 0.489596 0.520760 0.327244
v 0.577593 0.520760 0.114800
v 0.577593 0.520760 -0.114800
v 0.489596 0.520760 -0.327244
v 0.327244 0.520760 -0.489596
v 0.114800 0.520760 -0.577593
v -0.114800 0.520760 -0.577593
v -0.327244 0.520760 -0.489596
v -0.577593 0.520760 0.114800
v -0.489596 0.520760 -0.327244
v -0.577593 0.520760 -0.114800
v -0.426811 0.669622 -0.091563
v -0.245434 0.751015 -0.101662
v -0.366546 0.669622 -0.237056
v -0.101662 0.751015 -0.245434
v -0.237056 0.669622 -0.366546
v -0.091563 0.669622 -0.426811
v 0.101662 0.751015 -0.245434
v 0.091563 0.669622 -0.426811
v 0.237056 0.669622 -0.366546
v 0.245434 0.751015 -0.101662
v 0.366546 0.669622 -0.237056
v 0.426811 0.669622 -0.091563
v 0.245434 0.751015 0.101662
v 0.426811 0.669622 0.091564
v 0.366546 0.669622 0.237056
v 0.101662 0.751015 0.245434
v 0.237056 0.669622 0.366546
v 0.091564 0.669622 0.426811
v -0.101662 0.751015 0.245434
v -0.091563 0.669622 0.426811
v -0.237056 0.669622 0.366546
v -0.245434 0.751015 0.101662
v -0.366546 0.669622 0.237056
v -0.426811 0.669622 0.091564
v -0.718559 0.080105 -0.142930
v -0.560778 -0.001560 -0.111546
v -0.560778 -0.001560 0.111546
v -0.718559 0.080105 0.142930
v -0.142930 0.080105 -0.718559
v -0.111546 -0.001560 -0.560778
v -0.317655 -0.001560 -0.475405
v -0.407031 0.080105 -0.609165
v 0.142930 0.080105 -0.718559
v 0.111546 -0.001560 -0.560778
v 0.407031 0.080105 -0.609165
v 0.317655 -0.001560 -0.475405
v 0.609165 0.080105 -0.407031
v 0.475405 -0.001560 -0.317655
v 0.718559 0.080105 -0.142930
v 0.560778 -0.001560 -0.111546
v 0.718559 0.080105 0.142930
v 0.560778 -0.001560 0.111546
v 0.609165 0.080105 0.407031
v 0.475405 -0.001560 0.317655
v 0.407031 0.080105 0.609165
v 0.317655 -0.001560 0.475405
v 0.142930 0.080105 0.718559
v 0.111546 -0.001560 0.560778
v -0.142930 0.080105 0.718559
v -0.111546 -0.001560 0.560778
v -0.407031 0.080105 0.609165
v -0.317655 -0.001560 0.475405
v -0.609165 0.080105 0.407031
v -0.475405 -0.001560 0.317655
v -0.475405 -0.001560 -0.317655
v -0.609165 0.080105 -0.407031
v 0.841668 0.181629 -0.167418
v 0.713532 0.181629 -0.476767
v 0.476767 0.181629 -0.713532
v 0.167418 0.181629 -0.841668
v -0.167418 0.181629 -0.841668
v -0.476767 0.181629 -0.713532
v -0.841668 0.181629 -0.167418
v -0.841668 0.181629 0.167418
v 0.841668 0.181629 0.167418
v 0.713532 0.181629 0.476767
v 0.476767 0.181629 0.713532
v 0.167418 0.181629 0.841668
v -0.167418 0.181629 0.841668
v -0.476767 0.181629 0.713532
v -0.713532 0.181629 0.476767
v -0.713532 0.181629 -0.476767
v 0.780637 0.403643 -0.155260
v 0.835501 0.313581 -0.166191
v 0.661779 0.403643 -0.442208
v 0.708304 0.313581 -0.473273
v 0.442208 0.403643 -0.661779
v 0.473273 0.313581 -0.708304
v 0.155260 0.403643 -0.780637
v 0.166191 0.313581 -0.835501
v -0.155260 0.403643 -0.780637
v -0.166192 0.313581 -0.835501
v -0.473273 0.313581 -0.708303
v -0.442208 0.403643 -0.661779
v -0.835501 0.313581 -0.166191
v -0.780637 0.403643 -0.155260
v -0.835501 0.313581 0.166192
v -0.780637 0.403643 0.155260
v 0.780637 0.403643 0.155260
v 0.835501 0.313581 0.166192
v 0.661779 0.403643 0.442209
v 0.708304 0.313581 0.473274
v 0.442208 0.403643 0.661779
v 0.473273 0.313581 0.708304
v 0.155260 0.403643 0.780637
v 0.166192 0.313581 0.835501
v -0.155260 0.403643 0.780637
v -0.166192 0.313581 0.835501
v -0.442208 0.403643 0.661779
v -0.473274 0.313581 0.708304
v -0.661779 0.403643 0.442209
v -0.708304 0.313581 0.473274
v -0.661779 0.403643 -0.442208
v -0.708304 0.313581 -0.473273
vt 0.060935 0.800114
vt 0.031094 0.809316
vt 0.038096 0.809316
vt 0.030202 0.928207
vt 0.038014 0.954059
vt 0.043761 0.954059
vt 0.037408 0.928207
vt 0.060935 0.972780
vt 0.063863 0.968194
vt 0.052598 0.968194
vt 0.051158 0.954059
vt 0.048209 0.928207
vt 0.061304 0.954059
vt 0.060930 0.928207
vt 0.073413 0.968194
vt 0.070029 0.954059
vt 0.073670 0.928207
vt 0.078631 0.954059
vt 0.084455 0.928207
vt 0.075654 0.968194
vt 0.083573 0.954059
vt 0.091672 0.928207
vt 0.085592 0.954059
vt 0.094202 0.928207
vt 0.069273 0.968194
vt 0.083856 0.954059
vt 0.091668 0.928207
vt 0.078109 0.954059
vt 0.084462 0.928207
vt 0.058007 0.968194
vt 0.070712 0.954059
vt 0.073661 0.928207
vt 0.060566 0.954059
vt 0.060940 0.928207
vt 0.048457 0.968194
vt 0.051841 0.954059
vt 0.048200 0.928207
vt 0.043239 0.954059
vt 0.037415 0.928207
vt 0.038297 0.954059
vt 0.030198 0.928207
vt 0.046216 0.968194
vt 0.036278 0.954059
vt 0.027668 0.928207
vt 0.083774 0.809316
vt 0.073295 0.809316
vt 0.102475 0.897394
vt 0.092728 0.897394
vt 0.042383 0.838062
vt 0.026656 0.838062
vt 0.026907 0.873411
vt 0.042519 0.873411
vt 0.060935 0.838062
vt 0.042383 0.838062
vt 0.045097 0.820431
vt 0.060935 0.820431
vt 0.045097 0.820431
vt 0.031670 0.820431
vt 0.019395 0.897394
vt 0.029142 0.897394
vt 0.090776 0.809316
vt 0.093235 0.809316
vt 0.079487 0.838062
vt 0.095214 0.838062
vt 0.090200 0.820431
vt 0.076773 0.820431
vt 0.048575 0.809316
vt 0.038096 0.809316
vt 0.016147 0.838062
vt 0.022698 0.820431
vt 0.016147 0.838062
vt 0.012457 0.838062
vt 0.019548 0.820431
vt 0.022698 0.820431
vt 0.079487 0.838062
vt 0.076773 0.820431
vt 0.048575 0.809316
vt 0.109413 0.838062
vt 0.105723 0.838062
vt 0.099172 0.820431
vt 0.102322 0.820431
vt 0.073295 0.809316
vt 0.083774 0.809316
vt 0.060935 0.838062
vt 0.060935 0.820431
vt 0.095214 0.838062
vt 0.105395 0.873411
vt 0.094963 0.873411
vt 0.090776 0.809316
vt 0.090200 0.820431
vt 0.043728 0.897394
vt 0.026656 0.838062
vt 0.031670 0.820431
vt 0.109058 0.873411
vt 0.019396 0.897394
vt 0.015973 0.897394
vt 0.060935 0.873411
vt 0.026907 0.873411
vt 0.016475 0.873411
vt 0.060935 0.809316
vt 0.031094 0.809316
vt 0.079351 0.873411
vt 0.060935 0.873411
vt 0.060935 0.809316
vt 0.079351 0.873411
vt 0.028636 0.809316
vt 0.012812 0.873411
vt 0.016475 0.873411
vt 0.060936 0.897394
vt 0.105723 0.838062
vt 0.105395 0.873411
vt 0.099172 0.820431
vt 0.060934 0.897394
vt 0.043730 0.897394
vt 0.078142 0.897394
vt 0.029141 0.897394
vt 0.105897 0.897394
vt 0.094963 0.873411
vt 0.102475 0.897394
vt 0.078140 0.897394
vt 0.092729 0.897394
vt 0.042519 0.873411
vn 0.0000 -1.0000 0.0000
vn -0.2311 -0.9606 -0.1544
vn -0.1544 -0.9606 -0.2311
vn -0.4900 0.8074 -0.3287
vn -0.4812 0.8141 -0.3250
vn -0.3250 0.8141 -0.4812
vn -0.3287 0.8074 -0.4900
vn -0.0000 1.0000 0.0000
vn 0.1094 0.9582 -0.2642
vn -0.1094 0.9582 -0.2642
vn -0.1104 0.8141 -0.5701
vn -0.1140 0.8074 -0.5789
vn 0.1104 0.8141 -0.5701
vn 0.1140 0.8074 -0.5789
vn 0.2642 0.9582 -0.1094
vn 0.3250 0.8141 -0.4812
vn 0.3287 0.8074 -0.4900
vn 0.4812 0.8141 -0.3250
vn 0.4900 0.8074 -0.3287
vn 0.2642 0.9582 0.1094
vn 0.5701 0.8141 -0.1104
vn 0.5789 0.8074 -0.1140
vn 0.5701 0.8141 0.1104
vn 0.5789 0.8074 0.1140
vn 0.1094 0.9582 0.2642
vn 0.4812 0.8141 0.3250
vn 0.4900 0.8074 0.3287
vn 0.3250 0.8141 0.4812
vn 0.3287 0.8074 0.4900
vn -0.1094 0.9582 0.2642
vn 0.1104 0.8141 0.5701
vn 0.1140 0.8074 0.5789
vn -0.1104 0.8141 0.5701
vn -0.1140 0.8074 0.5789
vn -0.2642 0.9582 0.1094
vn -0.3250 0.8141 0.4812
vn -0.3287 0.8074 0.4900
vn -0.4812 0.8141 0.3250
vn -0.4900 0.8074 0.3287
vn -0.5701 0.8141 0.1104
vn -0.5789 0.8074 0.1140
vn -0.2642 0.9582 -0.1094
vn -0.5701 0.8141 -0.1104
vn -0.5789 0.8074 -0.1140
vn 0.1544 -0.9606 0.2311
vn 0.0542 -0.9606 0.2726
vn 0.6942 0.7064 -0.1381
vn 0.5886 0.7064 -0.3933
vn -0.1797 -0.3896 -0.9033
vn -0.5117 -0.3896 -0.7658
vn -0.5319 0.2887 -0.7961
vn -0.1868 0.2887 -0.9390
vn -0.1797 -0.3896 0.9033
vn -0.5117 -0.3896 0.7658
vn -0.3072 -0.8333 0.4597
vn -0.1079 -0.8333 0.5422
vn -0.1079 -0.8333 -0.5422
vn -0.3072 -0.8333 -0.4597
vn -0.6943 0.7064 0.1381
vn -0.5886 0.7064 0.3933
vn 0.2726 -0.9606 -0.0542
vn 0.2726 -0.9606 0.0542
vn 0.5117 -0.3896 -0.7658
vn 0.7658 -0.3896 -0.5117
vn 0.4597 -0.8333 -0.3072
vn 0.3072 -0.8333 -0.4597
vn -0.1544 -0.9606 0.2311
vn -0.2311 -0.9606 0.1544
vn -0.7658 -0.3896 -0.5117
vn -0.4597 -0.8333 -0.3072
vn -0.9033 -0.3896 0.1797
vn -0.9033 -0.3896 -0.1797
vn -0.5422 -0.8333 -0.1079
vn -0.5422 -0.8333 0.1079
vn 0.1797 -0.3896 0.9033
vn 0.1079 -0.8333 0.5422
vn -0.0542 -0.9606 -0.2726
vn 0.9033 -0.3896 0.1797
vn 0.7658 -0.3896 0.5117
vn 0.4597 -0.8333 0.3072
vn 0.5422 -0.8333 0.1079
vn 0.1544 -0.9606 -0.2311
vn 0.2311 -0.9606 -0.1544
vn 0.1797 -0.3896 -0.9033
vn 0.1079 -0.8333 -0.5422
vn 0.5117 -0.3896 0.7658
vn 0.7961 0.2887 0.5319
vn 0.5319 0.2887 0.7961
vn 0.2311 -0.9606 0.1544
vn 0.3072 -0.8333 0.4597
vn -0.3933 0.7064 0.5886
vn -0.7658 -0.3896 0.5117
vn -0.4597 -0.8333 0.3072
vn 0.9390 0.2887 0.1868
vn -0.5886 0.7064 -0.3933
vn -0.6943 0.7064 -0.1381
vn 0.1868 0.2887 -0.9390
vn -0.7961 0.2887 0.5319
vn -0.9390 0.2887 0.1868
vn 0.0542 -0.9606 -0.2726
vn -0.2726 -0.9606 0.0542
vn 0.1868 0.2887 0.9390
vn -0.1868 0.2887 0.9390
vn -0.0542 -0.9606 0.2726
vn 0.5319 0.2887 -0.7961
vn -0.2726 -0.9606 -0.0542
vn -0.9390 0.2887 -0.1868
vn -0.7961 0.2887 -0.5319
vn -0.1381 0.7064 0.6942
vn 0.9033 -0.3896 -0.1797
vn 0.9390 0.2887 -0.1868
vn 0.5422 -0.8333 -0.1079
vn 0.1381 0.7064 -0.6942
vn -0.1381 0.7064 -0.6942
vn 0.3933 0.7064 -0.5886
vn -0.3933 0.7064 -0.5886
vn 0.6942 0.7064 0.1381
vn 0.7961 0.2887 -0.5319
vn 0.5886 0.7064 0.3933
vn 0.1381 0.7064 0.6943
vn 0.3933 0.7064 0.5886
vn -0.5319 0.2887 0.7961
usemtl forest
s 1
f 3/1/1 73/2/2 49/3/3
f 17/4/4 21/5/5 23/6/6 15/7/7
f 1/8/8 25/9/9 22/10/10
f 15/7/7 23/6/6 24/11/11 14/12/12
f 14/12/12 24/11/11 26/13/13 13/14/14
f 1/8/8 28/15/15 25/9/9
f 13/14/14 26/13/13 27/16/16 12/17/17
f 12/17/17 27/16/16 29/18/18 11/19/19
f 1/8/8 31/20/20 28/15/15
f 11/19/19 29/18/18 30/21/21 10/22/22
f 10/22/22 30/21/21 32/23/23 9/24/24
f 1/8/8 34/25/25 31/20/20
f 9/24/24 32/23/23 33/26/26 8/27/27
f 8/27/27 33/26/26 35/28/28 7/29/29
f 1/8/8 37/30/30 34/25/25
f 7/29/29 35/28/28 36/31/31 6/32/32
f 6/32/32 36/31/31 38/33/33 5/34/34
f 1/8/8 40/35/35 37/30/30
f 5/34/34 38/33/33 39/36/36 4/37/37
f 4/37/37 39/36/36 41/38/38 2/39/39
f 2/39/39 41/38/38 42/40/40 16/41/41
f 1/8/8 22/10/10 20/42/42
f 16/41/41 42/40/40 19/43/43 18/44/44
f 3/1/1 64/45/45 66/46/46
f 91/47/47 93/48/48 11/19/19 10/22/22
f 79/49/49 80/50/50 101/51/51 100/52/52
f 87/53/53 88/54/54 69/55/55 67/56/56
f 80/50/50 79/49/49 47/57/57 50/58/58
f 106/59/59 119/60/60 2/39/39 16/41/41
f 3/1/1 58/61/61 60/62/62
f 77/63/63 76/64/64 55/65/65 53/66/66
f 3/1/1 70/67/67 72/68/68
f 90/69/69 80/50/50 50/58/58 74/70/70
f 82/71/71 81/72/72 43/73/73 46/74/74
f 86/75/75 87/53/53 67/56/56 65/76/76
f 3/1/1 49/3/3 48/77/77
f 83/78/78 84/79/79 61/80/80 59/81/81
f 3/1/1 54/82/82 56/83/83
f 79/49/49 78/84/84 51/85/85 47/57/57
f 78/84/84 77/63/63 53/66/66 51/85/85
f 85/86/86 84/79/79 110/87/87 112/88/88
f 3/1/1 62/89/89 64/45/45
f 3/1/1 60/62/62 62/89/89
f 84/79/79 85/86/86 63/90/90 61/80/80
f 85/86/86 86/75/75 65/76/76 63/90/90
f 119/60/60 117/91/91 4/37/37 2/39/39
f 88/54/54 89/92/92 71/93/93 69/55/55
f 89/92/92 82/71/71 46/74/74 71/93/93
f 84/79/79 83/78/78 108/94/94 110/87/87
f 1/8/8 20/42/42 40/35/35
f 121/95/95 104/96/96 18/44/44 17/4/4
f 78/84/84 79/49/49 100/52/52 98/97/97
f 82/71/71 89/92/92 120/98/98 105/99/99
f 3/1/1 52/100/100 54/82/82
f 3/1/1 72/68/68 45/101/101
f 87/53/53 86/75/75 114/102/102 116/103/103
f 3/1/1 66/46/46 68/104/104
f 77/63/63 78/84/84 98/97/97 96/105/105
f 3/1/1 56/83/83 58/61/61
f 3/1/1 44/106/106 73/2/2
f 90/69/69 81/72/72 103/107/107 122/108/108
f 117/91/91 115/109/109 5/34/34 4/37/37
f 86/75/75 85/86/86 112/88/88 114/102/102
f 3/1/1 68/104/104 70/67/67
f 83/78/78 75/110/110 92/111/111 108/94/94
f 80/50/50 90/69/69 122/108/108 101/51/51
f 75/110/110 83/78/78 59/81/81 57/112/112
f 3/1/1 48/77/77 52/100/100
f 19/43/43 21/5/5 17/4/4 18/44/44
f 20/42/42 21/5/5 19/43/43
f 20/42/42 22/10/10 23/6/6 21/5/5
f 22/10/10 24/11/11 23/6/6
f 22/10/10 25/9/9 26/13/13 24/11/11
f 25/9/9 27/16/16 26/13/13
f 25/9/9 28/15/15 29/18/18 27/16/16
f 28/15/15 30/21/21 29/18/18
f 28/15/15 31/20/20 32/23/23 30/21/21
f 31/20/20 33/26/26 32/23/23
f 31/20/20 34/25/25 35/28/28 33/26/26
f 34/25/25 36/31/31 35/28/28
f 34/25/25 37/30/30 38/33/33 36/31/31
f 37/30/30 39/36/36 38/33/33
f 37/30/30 40/35/35 41/38/38 39/36/36
f 40/35/35 42/40/40 41/38/38
f 40/35/35 20/42/42 19/43/43 42/40/40
f 97/113/113 99/114/114 14/12/12 13/14/14
f 95/115/115 97/113/113 13/14/14 12/17/17
f 102/116/116 121/95/95 17/4/4 15/7/7
f 93/48/48 95/115/115 12/17/17 11/19/19
f 107/117/117 91/47/47 10/22/22 9/24/24
f 76/64/64 77/63/63 96/105/105 94/118/118
f 109/119/119 107/117/117 9/24/24 8/27/27
f 113/120/120 111/121/121 7/29/29 6/32/32
f 115/109/109 113/120/120 6/32/32 5/34/34
f 88/54/54 87/53/53 116/103/103 118/122/122
f 89/92/92 88/54/54 118/122/122 120/98/98
f 104/96/96 106/59/59 16/41/41 18/44/44
f 111/121/121 109/119/119 8/27/27 7/29/29
f 81/72/72 90/69/69 74/70/70 43/73/73
f 81/72/72 82/71/71 105/99/99 103/107/107
f 44/106/106 45/101/101 46/74/74 43/73/73
f 48/77/77 49/3/3 50/58/58 47/57/57
f 52/100/100 48/77/77 47/57/57 51/85/85
f 54/82/82 52/100/100 51/85/85 53/66/66
f 56/83/83 54/82/82 53/66/66 55/65/65
f 58/61/61 56/83/83 55/65/65 57/112/112
f 60/62/62 58/61/61 57/112/112 59/81/81
f 62/89/89 60/62/62 59/81/81 61/80/80
f 64/45/45 62/89/89 61/80/80 63/90/90
f 66/46/46 64/45/45 63/90/90 65/76/76
f 68/104/104 66/46/46 65/76/76 67/56/56
f 70/67/67 68/104/104 67/56/56 69/55/55
f 72/68/68 70/67/67 69/55/55 71/93/93
f 45/101/101 72/68/68 71/93/93 46/74/74
f 49/3/3 73/2/2 74/70/70 50/58/58
f 73/2/2 44/106/106 43/73/73 74/70/70
f 3/1/1 45/101/101 44/106/106
f 76/64/64 75/110/110 57/112/112 55/65/65
f 99/114/114 102/116/116 15/7/7 14/12/12
f 122/108/108 103/107/107 104/96/96 121/95/95
f 103/107/107 105/99/99 106/59/59 104/96/96
f 100/52/52 101/51/51 102/116/116 99/114/114
f 98/97/97 100/52/52 99/114/114 97/113/113
f 96/105/105 98/97/97 97/113/113 95/115/115
f 94/118/118 96/105/105 95/115/115 93/48/48
f 92/111/111 94/118/118 93/48/48 91/47/47
f 108/94/94 92/111/111 91/47/47 107/117/117
f 110/87/87 108/94/94 107/117/117 109/119/119
f 112/88/88 110/87/87 109/119/119 111/121/121
f 114/102/102 112/88/88 111/121/121 113/120/120
f 116/103/103 114/102/102 113/120/120 115/109/109
f 118/122/122 116/103/103 115/109/109 117/91/91
f 120/98/98 118/122/122 117/91/91 119/60/60
f 105/99/99 120/98/98 119/60/60 106/59/59
f 101/51/51 122/108/108 121/95/95 102/116/116
f 75/110/110 76/64/64 94/118/118 92/111/111
