# Blender v3.4.1 OBJ File: 'Forest_Nature_Pack_Export.blend'
# www.blender.org
mtllib Bush_4_A_Color1.mtl
o Bush_4_A_Color1
v -0.251488 -0.000219 0.251488
v -0.236720 0.056534 0.288410
v -0.288410 0.056534 0.236720
v -0.063379 0.397670 0.110250
v -0.055944 0.434181 0.055944
v -0.110250 0.397670 0.063379
v -0.251488 -0.000219 -0.251488
v -0.288410 0.056534 -0.236720
v -0.236720 0.056534 -0.288410
v -0.055944 0.434181 -0.055944
v -0.063379 0.397670 -0.110250
v -0.110250 0.397670 -0.063379
v 0.251487 -0.000219 0.251488
v 0.288410 0.056534 0.236720
v 0.236720 0.056534 0.288410
v 0.055944 0.434181 0.055944
v 0.063379 0.397670 0.110250
v 0.110250 0.397670 0.063379
v 0.251487 -0.000219 -0.251488
v 0.236720 0.056534 -0.288410
v 0.288410 0.056534 -0.236720
v 0.055944 0.434181 -0.055944
v 0.110250 0.397670 -0.063379
v 0.063379 0.397670 -0.110250
vt 0.101163 0.839168
vt 0.072851 0.934202
vt 0.052145 0.934202
vt 0.023833 0.839168
vt 0.109605 0.839168
vt 0.080504 0.934202
vt 0.080504 0.934202
vt 0.109605 0.839168
vt 0.071635 0.944374
vt 0.053360 0.944374
vt 0.053360 0.944374
vt 0.071635 0.944374
vt 0.015390 0.839168
vt 0.044491 0.934202
vt 0.044491 0.934202
vt 0.015390 0.839168
vt 0.023833 0.839168
vt 0.052145 0.934202
vt 0.072851 0.934202
vt 0.101163 0.839168
vt 0.021421 0.823359
vt 0.021421 0.823359
vt 0.103574 0.823359
vt 0.103574 0.823359
vn 0.3603 0.0472 0.9317
vn 0.2414 0.6779 0.6943
vn -0.2414 0.6779 0.6943
vn -0.3603 0.0472 0.9317
vn 0.9317 0.0472 -0.3603
vn 0.6943 0.6779 -0.2414
vn 0.6943 0.6779 0.2414
vn 0.9317 0.0472 0.3603
vn 0.2555 0.9324 -0.2555
vn -0.2555 0.9324 -0.2555
vn -0.2555 0.9324 0.2555
vn 0.2555 0.9324 0.2555
vn -0.9317 0.0472 0.3603
vn -0.6943 0.6779 0.2414
vn -0.6943 0.6779 -0.2414
vn -0.9317 0.0472 -0.3603
vn -0.3603 0.0472 -0.9317
vn -0.2414 0.6779 -0.6943
vn 0.2414 0.6779 -0.6943
vn 0.3603 0.0472 -0.9317
vn -0.4420 -0.7806 0.4420
vn -0.4420 -0.7806 -0.4420
vn 0.4420 -0.7806 0.4420
vn 0.4420 -0.7806 -0.4420
usemtl forest
s 1
f 15/1/1 17/2/2 4/3/3 2/4/4
f 21/5/5 23/6/6 18/7/7 14/8/8
f 22/9/9 10/10/10 5/11/11 16/12/12
f 3/13/13 6/14/14 12/15/15 8/16/16
f 9/17/17 11/18/18 24/19/19 20/20/20
f 1/21/21 2/4/4 3/13/13
f 4/3/3 5/11/11 6/14/14
f 7/22/22 8/16/16 9/17/17
f 10/10/10 11/18/18 12/15/15
f 13/23/23 14/8/8 15/1/1
f 16/12/12 17/2/2 18/7/7
f 19/24/24 20/20/20 21/5/5
f 22/9/9 23/6/6 24/19/19
f 7/22/22 1/21/21 3/13/13 8/16/16
f 2/4/4 4/3/3 6/14/14 3/13/13
f 5/11/11 10/10/10 12/15/15 6/14/14
f 11/18/18 9/17/17 8/16/16 12/15/15
f 19/24/24 7/22/22 9/17/17 20/20/20
f 10/10/10 22/9/9 24/19/19 11/18/18
f 23/6/6 21/5/5 20/20/20 24/19/19
f 13/23/23 19/24/24 21/5/5 14/8/8
f 22/9/9 16/12/12 18/7/7 23/6/6
f 17/2/2 15/1/1 14/8/8 18/7/7
f 1/21/21 13/23/23 15/1/1 2/4/4
f 16/12/12 5/11/11 4/3/3 17/2/2
f 7/22/22 19/24/24 13/23/23 1/21/21
