# Blender v3.4.1 OBJ File: 'Forest_Nature_Pack_Export.blend'
# www.blender.org
mtllib Bush_1_B_Color1.mtl
o Bush_1_B_Color1
v -0.058674 0.469971 -0.058674
v -0.140552 0.450062 -0.000000
v -0.000000 0.471756 0.000000
v -0.105950 0.446872 -0.105950
v 0.000000 0.450062 -0.140552
v -0.058674 0.469971 0.058674
v -0.000000 0.450062 0.140552
v -0.105950 0.446872 0.105950
v -0.089792 0.417776 0.186411
v -0.186411 0.417776 0.089792
v -0.224969 0.411920 -0.000000
v -0.268669 0.343374 0.132887
v -0.132887 0.343374 0.268669
v -0.310234 0.243023 0.155215
v -0.310862 0.343267 -0.000000
v -0.359600 0.243023 -0.000000
v -0.268669 0.343375 -0.132887
v -0.310234 0.243023 -0.155215
v -0.132887 0.343375 -0.268669
v -0.186411 0.417776 -0.089792
v -0.089792 0.417776 -0.186411
v 0.000000 0.411920 -0.224969
v 0.089792 0.417776 -0.186411
v 0.000000 0.343268 -0.310862
v 0.000000 0.243023 -0.359600
v 0.132887 0.343374 -0.268669
v 0.155215 0.243023 -0.310234
v 0.268669 0.343374 -0.132887
v 0.310234 0.243023 -0.155215
v 0.310862 0.343267 0.000000
v 0.186411 0.417776 -0.089792
v 0.140552 0.450062 0.000000
v 0.224969 0.411920 0.000000
v 0.105950 0.446872 -0.105950
v 0.058674 0.469971 -0.058674
v 0.058674 0.469971 0.058674
v 0.105950 0.446872 0.105950
v 0.186411 0.417776 0.089792
v 0.089792 0.417776 0.186411
v -0.000000 0.411920 0.224969
v 0.132887 0.343375 0.268669
v 0.155215 0.243023 0.310234
v 0.268669 0.343375 0.132887
v -0.000000 0.343268 0.310862
v -0.000000 0.243023 0.359600
v -0.155215 0.243023 0.310234
v -0.000000 0.113559 0.361213
v -0.000000 0.041186 0.308443
v 0.155856 0.113559 0.311655
v -0.155856 0.113559 0.311654
v -0.133113 0.041186 0.266073
v -0.311655 0.113559 0.155856
v -0.266073 0.041186 0.133113
v -0.171009 -0.000850 0.086071
v -0.308443 0.041186 -0.000000
v -0.361212 0.113559 -0.000000
v -0.311654 0.113559 -0.155856
v -0.266073 0.041186 -0.133113
v -0.171009 -0.000850 -0.086071
v -0.133113 0.041186 -0.266073
v -0.155856 0.113559 -0.311655
v -0.000000 0.113559 -0.361213
v -0.155215 0.243023 -0.310234
v 0.000000 0.041186 -0.308443
v 0.000000 -0.000851 -0.198553
v 0.133113 0.041185 -0.266073
v 0.155856 0.113559 -0.311655
v 0.311655 0.113559 -0.155856
v 0.266073 0.041185 -0.133113
v 0.171009 -0.000851 -0.086071
v 0.308443 0.041186 0.000000
v 0.361213 0.113559 0.000000
v 0.311655 0.113559 0.155856
v 0.359600 0.243023 0.000000
v 0.266073 0.041186 0.133113
v 0.171009 -0.000850 0.086071
v 0.133113 0.041186 0.266073
v 0.086071 -0.000850 0.171009
v -0.000000 -0.000850 0.198553
v -0.000000 -0.012356 0.000000
v -0.086071 -0.000850 -0.171009
v 0.086071 -0.000851 -0.171009
v 0.198553 -0.000851 0.000000
v -0.086071 -0.000850 0.171009
v -0.198553 -0.000850 -0.000000
v 0.310234 0.243023 0.155215
vt 0.046459 0.966758
vt 0.054724 0.974790
vt 0.049952 0.965471
vt 0.054724 0.974790
vt 0.060647 0.978735
vt 0.066570 0.974790
vt 0.066570 0.974790
vt 0.074836 0.966758
vt 0.060647 0.966758
vt 0.060647 0.966758
vt 0.049952 0.965471
vt 0.051583 0.953732
vt 0.049952 0.949846
vt 0.041830 0.938107
vt 0.051583 0.938107
vt 0.041830 0.953732
vt 0.046459 0.951133
vt 0.037937 0.935744
vt 0.033525 0.916299
vt 0.047232 0.916299
vt 0.029265 0.916274
vt 0.026527 0.879007
vt 0.043576 0.879007
vt 0.021098 0.879007
vt 0.026527 0.879007
vt 0.033525 0.916299
vt 0.041830 0.938107
vt 0.043576 0.879007
vt 0.047232 0.916299
vt 0.051583 0.938107
vt 0.041830 0.953732
vt 0.049952 0.949846
vt 0.060647 0.951133
vt 0.060647 0.935744
vt 0.051583 0.953732
vt 0.060647 0.916274
vt 0.069712 0.938107
vt 0.074061 0.916299
vt 0.060647 0.879007
vt 0.077718 0.879007
vt 0.094767 0.879007
vt 0.087769 0.916299
vt 0.079465 0.938107
vt 0.100196 0.879007
vt 0.092028 0.916274
vt 0.083357 0.935744
vt 0.074836 0.951133
vt 0.071343 0.965471
vt 0.079465 0.953732
vt 0.071343 0.949846
vt 0.069712 0.953732
vt 0.071343 0.965471
vt 0.079465 0.953732
vt 0.069712 0.953732
vt 0.071343 0.949846
vt 0.069712 0.938107
vt 0.079465 0.938107
vt 0.060647 0.951133
vt 0.060647 0.935744
vt 0.074061 0.916299
vt 0.087769 0.916299
vt 0.060647 0.916274
vt 0.060647 0.879007
vt 0.077718 0.879007
vt 0.094767 0.879007
vt 0.077789 0.845379
vt 0.060647 0.845379
vt 0.043506 0.845379
vt 0.060647 0.826581
vt 0.046007 0.795331
vt 0.043506 0.814129
vt 0.031383 0.795331
vt 0.060647 0.795331
vt 0.026371 0.845379
vt 0.031383 0.826581
vt 0.020920 0.845379
vt 0.041839 0.784412
vt 0.026724 0.795331
vt 0.038810 0.784412
vt 0.051181 0.784412
vt 0.020920 0.814129
vt 0.031384 0.795331
vt 0.026371 0.845379
vt 0.031384 0.826581
vt 0.043506 0.845379
vt 0.041839 0.784412
vt 0.046007 0.795331
vt 0.051181 0.784412
vt 0.043506 0.814129
vt 0.060647 0.795331
vt 0.060647 0.845379
vt 0.060647 0.826581
vt 0.077789 0.845379
vt 0.060647 0.784412
vt 0.075287 0.795331
vt 0.070113 0.784412
vt 0.077789 0.814129
vt 0.089910 0.795331
vt 0.094923 0.845379
vt 0.089910 0.826581
vt 0.100374 0.845379
vt 0.079455 0.784412
vt 0.094570 0.795331
vt 0.082484 0.784412
vt 0.100374 0.814129
vt 0.089910 0.795331
vt 0.094923 0.845379
vt 0.089910 0.826581
vt 0.075287 0.795331
vt 0.070113 0.784412
vt 0.079455 0.784412
vt 0.077789 0.814129
vt 0.060647 0.784412
vt 0.060647 0.781423
vn -0.3480 0.9375 0.0000
vn -0.1427 0.9794 -0.1427
vn -0.2853 0.9150 -0.2853
vn -0.1427 0.9794 0.1427
vn 0.0000 1.0000 -0.0000
vn 0.1427 0.9794 -0.1427
vn 0.1427 0.9794 0.1427
vn 0.3480 0.9375 0.0000
vn 0.0000 0.9375 -0.3480
vn -0.0000 0.9375 0.3480
vn -0.2853 0.9150 0.2853
vn -0.2742 0.8403 0.4677
vn -0.4677 0.8403 0.2742
vn -0.5423 0.8402 0.0000
vn -0.6823 0.6009 0.4164
vn -0.4164 0.6009 0.6823
vn -0.7945 0.6073 0.0000
vn -0.8346 0.2170 0.5063
vn -0.5063 0.2170 0.8346
vn -0.9752 0.2213 -0.0000
vn -0.8346 0.2170 -0.5063
vn -0.6823 0.6009 -0.4164
vn -0.4677 0.8403 -0.2742
vn -0.5063 0.2170 -0.8346
vn -0.4164 0.6009 -0.6823
vn -0.2742 0.8403 -0.4677
vn 0.0000 0.8402 -0.5423
vn 0.0000 0.6073 -0.7945
vn 0.2742 0.8403 -0.4677
vn 0.4164 0.6009 -0.6823
vn 0.0000 0.2213 -0.9752
vn 0.5063 0.2170 -0.8346
vn 0.8346 0.2170 -0.5063
vn 0.6823 0.6009 -0.4164
vn 0.4677 0.8403 -0.2742
vn 0.9752 0.2213 0.0000
vn 0.7945 0.6073 -0.0000
vn 0.5423 0.8402 -0.0000
vn 0.2853 0.9150 -0.2853
vn 0.2853 0.9150 0.2853
vn 0.4677 0.8403 0.2742
vn 0.2742 0.8403 0.4677
vn -0.0000 0.8402 0.5423
vn 0.4164 0.6009 0.6823
vn 0.6823 0.6009 0.4164
vn -0.0000 0.6073 0.7945
vn -0.0000 0.2213 0.9752
vn 0.5063 0.2170 0.8346
vn 0.8346 0.2170 0.5063
vn 0.4962 -0.2832 0.8207
vn -0.0000 -0.2876 0.9578
vn -0.4962 -0.2832 0.8207
vn -0.0000 -0.7683 0.6401
vn -0.3375 -0.7638 0.5502
vn -0.5503 -0.7637 0.3375
vn -0.8207 -0.2832 0.4962
vn -0.9577 -0.2876 -0.0000
vn -0.2039 -0.9706 0.1278
vn -0.6402 -0.7682 0.0000
vn -0.2383 -0.9712 0.0000
vn -0.1278 -0.9706 0.2039
vn -0.5503 -0.7637 -0.3375
vn -0.8207 -0.2832 -0.4962
vn -0.4962 -0.2832 -0.8207
vn -0.2039 -0.9706 -0.1278
vn -0.3375 -0.7638 -0.5502
vn -0.1278 -0.9706 -0.2039
vn -0.0000 -0.7683 -0.6401
vn -0.0000 -0.2876 -0.9578
vn 0.4962 -0.2832 -0.8207
vn -0.0000 -0.9712 -0.2383
vn 0.3375 -0.7638 -0.5502
vn 0.1278 -0.9706 -0.2039
vn 0.5503 -0.7637 -0.3375
vn 0.8207 -0.2832 -0.4962
vn 0.9577 -0.2876 0.0000
vn 0.2039 -0.9706 -0.1278
vn 0.6402 -0.7682 0.0000
vn 0.2383 -0.9712 0.0000
vn 0.5503 -0.7637 0.3375
vn 0.8207 -0.2832 0.4962
vn 0.3375 -0.7638 0.5502
vn 0.1278 -0.9706 0.2039
vn 0.2039 -0.9706 0.1278
vn -0.0000 -0.9712 0.2383
vn -0.0000 -1.0000 0.0000
usemtl forest
s 1
f 2/1/1 1/2/2 4/3/3
f 6/4/4 3/5/5 1/2/2
f 35/6/6 36/7/7 32/8/8
f 1/2/2 35/6/6 5/9/9
f 4/3/3 1/2/2 5/9/9
f 7/10/10 6/4/4 8/11/11
f 36/7/7 3/5/5 6/4/4
f 3/5/5 35/6/6 1/2/2
f 8/11/11 6/4/4 2/1/1
f 9/12/12 7/10/10 8/11/11
f 8/13/11 10/14/13 9/15/12
f 8/11/11 2/1/1 10/16/13
f 10/14/13 2/17/1 11/18/14
f 10/14/13 12/19/15 13/20/16 9/15/12
f 12/19/15 10/14/13 11/18/14 15/21/17
f 13/20/16 12/19/15 14/22/18 46/23/19
f 12/19/15 15/21/17 16/24/20 14/22/18
f 18/25/21 16/24/20 15/21/17 17/26/22
f 11/18/14 20/27/23 17/26/22 15/21/17
f 63/28/24 18/25/21 17/26/22 19/29/25
f 17/26/22 20/27/23 21/30/26 19/29/25
f 20/31/23 2/1/1 4/3/3
f 11/18/14 2/17/1 20/27/23
f 4/32/3 21/30/26 20/27/23
f 21/30/26 5/33/9 22/34/27
f 4/3/3 5/9/9 21/35/26
f 19/29/25 21/30/26 22/34/27 24/36/28
f 24/36/28 22/34/27 23/37/29 26/38/30
f 22/34/27 5/33/9 23/37/29
f 19/29/25 24/36/28 25/39/31 63/28/24
f 24/36/28 26/38/30 27/40/32 25/39/31
f 29/41/33 27/40/32 26/38/30 28/42/34
f 23/37/29 31/43/35 28/42/34 26/38/30
f 74/44/36 29/41/33 28/42/34 30/45/37
f 28/42/34 31/43/35 33/46/38 30/45/37
f 31/43/35 32/47/8 33/46/38
f 34/48/39 32/8/8 31/49/35
f 34/50/39 31/43/35 23/37/29
f 34/48/39 35/6/6 32/8/8
f 23/51/29 5/9/9 34/48/39
f 5/9/9 35/6/6 34/48/39
f 3/5/5 36/7/7 35/6/6
f 7/10/10 36/7/7 6/4/4
f 32/8/8 36/7/7 37/52/40
f 37/52/40 36/7/7 7/10/10
f 38/53/41 32/8/8 37/52/40
f 37/52/40 7/10/10 39/54/42
f 37/55/40 39/56/42 38/57/41
f 39/56/42 7/58/10 40/59/43
f 38/57/41 39/56/42 41/60/44 43/61/45
f 39/56/42 40/59/43 44/62/46 41/60/44
f 45/63/47 42/64/48 41/60/44 44/62/46
f 42/64/48 86/65/49 43/61/45 41/60/44
f 46/23/19 45/63/47 44/62/46 13/20/16
f 44/62/46 40/59/43 9/15/12 13/20/16
f 49/66/50 42/64/48 45/63/47 47/67/51
f 47/67/51 45/63/47 46/23/19 50/68/52
f 48/69/53 47/67/51 50/68/52
f 49/66/50 47/67/51 48/69/53
f 51/70/54 50/71/52 53/72/55
f 51/70/54 48/73/53 50/71/52
f 50/68/52 52/74/56 53/75/55
f 46/23/19 14/22/18 52/74/56 50/68/52
f 53/75/55 52/74/56 56/76/57
f 54/77/58 53/72/55 55/78/59 85/79/60
f 51/70/54 53/72/55 54/77/58 84/80/61
f 55/78/59 53/72/55 56/81/57
f 55/78/59 56/81/57 58/82/62
f 52/74/56 14/22/18 16/24/20 56/76/57
f 56/76/57 57/83/63 58/84/62
f 56/76/57 16/24/20 18/25/21 57/83/63
f 58/84/62 57/83/63 61/85/64
f 85/79/60 55/78/59 58/82/62 59/86/65
f 59/86/65 58/82/62 60/87/66 81/88/67
f 60/87/66 58/82/62 61/89/64
f 60/87/66 61/89/64 64/90/68
f 61/85/64 62/91/69 64/92/68
f 61/85/64 63/28/24 25/39/31 62/91/69
f 57/83/63 18/25/21 63/28/24 61/85/64
f 64/92/68 62/91/69 67/93/70
f 65/94/71 64/90/68 66/95/72 82/96/73
f 81/88/67 60/87/66 64/90/68 65/94/71
f 66/95/72 64/90/68 67/97/70
f 66/95/72 67/97/70 69/98/74
f 62/91/69 25/39/31 27/40/32 67/93/70
f 67/93/70 68/99/75 69/100/74
f 27/40/32 29/41/33 68/99/75 67/93/70
f 69/100/74 68/99/75 72/101/76
f 70/102/77 69/98/74 71/103/78 83/104/79
f 66/95/72 69/98/74 70/102/77 82/96/73
f 71/103/78 69/98/74 72/105/76
f 71/103/78 72/105/76 75/106/80
f 68/99/75 29/41/33 74/44/36 72/101/76
f 72/101/76 73/107/81 75/108/80
f 72/101/76 74/44/36 86/65/49 73/107/81
f 73/107/81 49/66/50 75/108/80
f 75/106/80 77/109/82 78/110/83 76/111/84
f 83/104/79 71/103/78 75/106/80 76/111/84
f 49/112/50 77/109/82 75/106/80
f 77/109/82 49/112/50 48/73/53
f 78/110/83 77/109/82 48/73/53 79/113/85
f 76/111/84 78/110/83 80/114/86
f 80/114/86 78/110/83 79/113/85
f 81/88/67 80/114/86 59/86/65
f 81/88/67 65/94/71 80/114/86
f 80/114/86 65/94/71 82/96/73
f 82/96/73 70/102/77 80/114/86
f 80/114/86 70/102/77 83/104/79
f 83/104/79 76/111/84 80/114/86
f 80/114/86 79/113/85 84/80/61
f 84/80/61 54/77/58 80/114/86
f 80/114/86 54/77/58 85/79/60
f 80/114/86 85/79/60 59/86/65
f 79/113/85 48/73/53 51/70/54 84/80/61
f 86/65/49 74/44/36 30/45/37 43/61/45
f 86/65/49 42/64/48 49/66/50 73/107/81
f 30/45/37 33/46/38 38/57/41 43/61/45
f 40/59/43 7/58/10 9/15/12
f 33/46/38 32/47/8 38/57/41
f 2/1/1 6/4/4 1/2/2
