# Blender v3.4.1 OBJ File: 'Forest_Nature_Pack_Export.blend'
# www.blender.org
mtllib Bush_4_C_Color1.mtl
o Bush_4_C_Color1
v -0.687003 -0.006419 0.687003
v -0.632358 0.147219 0.790597
v -0.790597 0.147219 0.632358
v -0.670075 0.040975 0.783446
v -0.753234 0.062115 0.753234
v -0.741085 0.149541 0.741085
v -0.783446 0.040975 0.670075
v -0.124000 1.162404 0.279992
v -0.086178 1.295569 0.086178
v -0.279992 1.162404 0.124000
v -0.104849 1.255782 0.202486
v -0.187803 1.242170 0.187803
v -0.202486 1.255782 0.104849
v -0.226400 1.180804 0.226400
v -0.687003 -0.006419 -0.687003
v -0.790597 0.147219 -0.632358
v -0.632358 0.147219 -0.790597
v -0.783446 0.040975 -0.670075
v -0.753234 0.062115 -0.753234
v -0.741085 0.149541 -0.741085
v -0.670075 0.040975 -0.783446
v -0.086178 1.295569 -0.086178
v -0.124000 1.162404 -0.279992
v -0.279992 1.162404 -0.124000
v -0.104849 1.255782 -0.202486
v -0.187803 1.242170 -0.187803
v -0.226400 1.180804 -0.226400
v -0.202486 1.255782 -0.104849
v 0.687003 -0.006419 0.687003
v 0.790597 0.147219 0.632358
v 0.632358 0.147219 0.790597
v 0.783446 0.040975 0.670075
v 0.753234 0.062115 0.753234
v 0.741085 0.149541 0.741085
v 0.670075 0.040975 0.783446
v 0.086178 1.295569 0.086178
v 0.124000 1.162404 0.279992
v 0.279992 1.162404 0.124000
v 0.104849 1.255782 0.202486
v 0.187803 1.242170 0.187803
v 0.226400 1.180804 0.226400
v 0.202486 1.255782 0.104849
v 0.687003 -0.006419 -0.687003
v 0.632358 0.147219 -0.790597
v 0.790597 0.147219 -0.632358
v 0.670075 0.040975 -0.783446
v 0.753234 0.062115 -0.753234
v 0.741085 0.149541 -0.741085
v 0.783446 0.040975 -0.670075
v 0.086178 1.295569 -0.086178
v 0.279992 1.162404 -0.124000
v 0.124000 1.162404 -0.279992
v 0.202486 1.255782 -0.104849
v 0.187803 1.242170 -0.187803
v 0.226400 1.180804 -0.226400
v 0.104849 1.255782 -0.202486
vt 0.100176 0.837639
vt 0.069885 0.931996
vt 0.055109 0.931996
vt 0.024819 0.837639
vt 0.109605 0.837639
vt 0.079180 0.931996
vt 0.079180 0.931996
vt 0.109605 0.837639
vt 0.067631 0.944374
vt 0.057362 0.944374
vt 0.057362 0.944374
vt 0.067631 0.944374
vt 0.015390 0.837639
vt 0.045814 0.931996
vt 0.045814 0.931996
vt 0.015390 0.837639
vt 0.024819 0.837639
vt 0.055109 0.931996
vt 0.069885 0.931996
vt 0.100176 0.837639
vt 0.021563 0.823359
vt 0.022571 0.827764
vt 0.017617 0.829729
vt 0.015815 0.827764
vt 0.018340 0.837855
vt 0.056249 0.940676
vt 0.051306 0.939410
vt 0.049007 0.933707
vt 0.050431 0.940676
vt 0.021563 0.823359
vt 0.015815 0.827764
vt 0.017617 0.829729
vt 0.022571 0.827764
vt 0.018340 0.837855
vt 0.056249 0.940676
vt 0.051306 0.939410
vt 0.050431 0.940676
vt 0.049007 0.933707
vt 0.103431 0.823359
vt 0.109179 0.827764
vt 0.107379 0.829729
vt 0.102423 0.827764
vt 0.106654 0.837855
vt 0.068745 0.940676
vt 0.073687 0.939410
vt 0.074562 0.940676
vt 0.075987 0.933707
vt 0.103431 0.823359
vt 0.102423 0.827764
vt 0.107379 0.829729
vt 0.109179 0.827764
vt 0.106654 0.837855
vt 0.074562 0.940676
vt 0.073687 0.939410
vt 0.068745 0.940676
vt 0.075987 0.933707
vn 0.1793 0.2613 0.9485
vn 0.1337 0.5652 0.8140
vn -0.1337 0.5652 0.8140
vn -0.1793 0.2613 0.9485
vn 0.9485 0.2613 -0.1793
vn 0.8140 0.5652 -0.1337
vn 0.8140 0.5652 0.1337
vn 0.9485 0.2613 0.1793
vn 0.1400 0.9802 -0.1400
vn -0.1400 0.9802 -0.1400
vn -0.1400 0.9802 0.1400
vn 0.1400 0.9802 0.1400
vn -0.9485 0.2613 0.1793
vn -0.8140 0.5652 0.1337
vn -0.8140 0.5652 -0.1337
vn -0.9485 0.2613 -0.1793
vn -0.1793 0.2613 -0.9485
vn -0.1337 0.5652 -0.8140
vn 0.1337 0.5652 -0.8140
vn 0.1793 0.2613 -0.9485
vn -0.2286 -0.9463 0.2286
vn -0.2331 -0.4996 0.8343
vn -0.4175 -0.8070 0.4175
vn -0.8343 -0.4996 0.2331
vn -0.6625 0.3494 0.6625
vn -0.7012 0.1290 0.7012
vn -0.1277 0.8274 0.5468
vn -0.4414 0.7812 0.4414
vn -0.5506 0.6275 0.5506
vn -0.5468 0.8274 0.1277
vn -0.2286 -0.9463 -0.2286
vn -0.8343 -0.4996 -0.2331
vn -0.4175 -0.8070 -0.4175
vn -0.2331 -0.4996 -0.8343
vn -0.6625 0.3494 -0.6625
vn -0.7012 0.1290 -0.7012
vn -0.1277 0.8274 -0.5468
vn -0.4414 0.7812 -0.4414
vn -0.5468 0.8274 -0.1277
vn -0.5506 0.6275 -0.5506
vn 0.2286 -0.9463 0.2286
vn 0.8343 -0.4996 0.2331
vn 0.4175 -0.8070 0.4175
vn 0.2331 -0.4996 0.8343
vn 0.6625 0.3494 0.6625
vn 0.7012 0.1290 0.7012
vn 0.1277 0.8274 0.5468
vn 0.4414 0.7812 0.4414
vn 0.5468 0.8274 0.1277
vn 0.5506 0.6275 0.5506
vn 0.2286 -0.9463 -0.2286
vn 0.2331 -0.4996 -0.8343
vn 0.4175 -0.8070 -0.4175
vn 0.8343 -0.4996 -0.2331
vn 0.6625 0.3494 -0.6625
vn 0.7012 0.1290 -0.7012
vn 0.5468 0.8274 -0.1277
vn 0.4414 0.7812 -0.4414
vn 0.1277 0.8274 -0.5468
vn 0.5506 0.6275 -0.5506
usemtl forest
s 1
f 31/1/1 37/2/2 8/3/3 2/4/4
f 45/5/5 51/6/6 38/7/7 30/8/8
f 50/9/9 22/10/10 9/11/11 36/12/12
f 3/13/13 10/14/14 24/15/15 16/16/16
f 17/17/17 23/18/18 52/19/19 44/20/20
f 1/21/21 4/22/22 5/23/23 7/24/24
f 2/4/4 6/25/25 5/23/26 4/22/22
f 3/13/13 7/24/24 5/23/26 6/25/25
f 8/3/3 11/26/27 12/27/28 14/28/29
f 9/11/11 13/29/30 12/27/28 11/26/27
f 10/14/14 14/28/29 12/27/28 13/29/30
f 15/30/31 18/31/32 19/32/33 21/33/34
f 16/16/16 20/34/35 19/32/36 18/31/32
f 17/17/17 21/33/34 19/32/36 20/34/35
f 22/10/10 25/35/37 26/36/38 28/37/39
f 23/18/18 27/38/40 26/36/38 25/35/37
f 24/15/15 28/37/39 26/36/38 27/38/40
f 29/39/41 32/40/42 33/41/43 35/42/44
f 30/8/8 34/43/45 33/41/46 32/40/42
f 31/1/1 35/42/44 33/41/46 34/43/45
f 36/12/12 39/44/47 40/45/48 42/46/49
f 37/2/2 41/47/50 40/45/48 39/44/47
f 38/7/7 42/46/49 40/45/48 41/47/50
f 43/48/51 46/49/52 47/50/53 49/51/54
f 44/20/20 48/52/55 47/50/56 46/49/52
f 45/5/5 49/51/54 47/50/56 48/52/55
f 50/9/9 53/53/57 54/54/58 56/55/59
f 51/6/6 55/56/60 54/54/58 53/53/57
f 52/19/19 56/55/59 54/54/58 55/56/60
f 15/30/31 1/21/21 7/24/24 18/31/32
f 18/31/32 7/24/24 3/13/13 16/16/16
f 2/4/4 8/3/3 14/28/29 6/25/25
f 6/25/25 14/28/29 10/14/14 3/13/13
f 9/11/11 22/10/10 28/37/39 13/29/30
f 13/29/30 28/37/39 24/15/15 10/14/14
f 23/18/18 17/17/17 20/34/35 27/38/40
f 27/38/40 20/34/35 16/16/16 24/15/15
f 43/48/51 15/30/31 21/33/34 46/49/52
f 46/49/52 21/33/34 17/17/17 44/20/20
f 22/10/10 50/9/9 56/55/59 25/35/37
f 25/35/37 56/55/59 52/19/19 23/18/18
f 51/6/6 45/5/5 48/52/55 55/56/60
f 55/56/60 48/52/55 44/20/20 52/19/19
f 29/39/41 43/48/51 49/51/54 32/40/42
f 32/40/42 49/51/54 45/5/5 30/8/8
f 50/9/9 36/12/12 42/46/49 53/53/57
f 53/53/57 42/46/49 38/7/7 51/6/6
f 37/2/2 31/1/1 34/43/45 41/47/50
f 41/47/50 34/43/45 30/8/8 38/7/7
f 1/21/21 29/39/41 35/42/44 4/22/22
f 4/22/22 35/42/44 31/1/1 2/4/4
f 36/12/12 9/11/11 11/26/27 39/44/47
f 39/44/47 11/26/27 8/3/3 37/2/2
f 15/30/31 43/48/51 29/39/41 1/21/21
