# Blender v3.4.1 OBJ File: 'Forest_Nature_Pack_Export.blend'
# www.blender.org
mtllib Grass_2_Mesh.mtl
o Grass_2_Mesh
v -0.056864 -0.031076 0.079605
v 0.056864 -0.031076 0.079605
v -0.047395 0.672371 -0.036448
v 0.047406 0.672370 -0.036447
v -0.000000 -0.031267 0.055947
v 0.000006 0.887490 -0.147737
v 0.000006 0.667531 -0.059425
v -0.072799 0.440003 0.027823
v -0.077506 0.205654 0.066416
v 0.077519 0.205654 0.066416
v 0.072811 0.440001 0.027823
v 0.000006 0.205406 0.043025
v 0.000006 0.439265 0.004415
v -0.056864 -0.031076 0.053294
v 0.056864 -0.031076 0.053294
v -0.047395 0.672371 -0.062758
v 0.047406 0.672370 -0.062758
v -0.000000 -0.031267 0.029636
v 0.000006 0.887490 -0.174047
v 0.000006 0.667531 -0.085736
v -0.072799 0.440003 0.001513
v -0.077506 0.205654 0.040106
v 0.077519 0.205654 0.040106
v 0.072811 0.440001 0.001513
v 0.000006 0.205406 0.016715
v 0.000006 0.439265 -0.021895
vt 0.500000 0.760597
vt 0.805757 0.765858
vt 0.500000 1.000000
vt 0.194243 0.765858
vt 0.500000 0.512137
vt 0.969611 0.512943
vt 0.030389 0.512943
vt 0.133198 0.000208
vt 0.499947 0.000000
vt 0.500000 0.257598
vt 0.000000 0.257876
vt 0.866749 0.000208
vt 1.000000 0.257865
vt 0.500000 0.760597
vt 0.500000 1.000000
vt 0.805757 0.765858
vt 0.194243 0.765858
vt 0.500000 0.512137
vt 0.969611 0.512943
vt 0.030389 0.512943
vt 0.133198 0.000208
vt 0.000000 0.257876
vt 0.500000 0.257598
vt 0.499947 0.000000
vt 1.000000 0.257865
vt 0.866749 0.000208
vn -0.4014 0.2857 0.8702
vn -0.3946 0.2768 0.8762
vn -0.4385 0.3349 0.8340
vn 0.3946 0.2768 0.8762
vn 0.4014 0.2857 0.8702
vn 0.4385 0.3349 0.8340
vn -0.3288 0.1938 0.9243
vn -0.3251 0.1893 0.9265
vn 0.3251 0.1893 0.9265
vn 0.3288 0.1938 0.9243
vn 0.3299 0.0663 0.9417
vn 0.3123 0.1103 0.9435
vn 0.3126 0.1097 0.9435
vn -0.3299 0.0663 0.9417
vn -0.3126 0.1097 0.9435
vn -0.3123 0.1104 0.9435
vn 0.4014 -0.2857 -0.8702
vn 0.4385 -0.3349 -0.8340
vn 0.3946 -0.2768 -0.8762
vn -0.3946 -0.2768 -0.8762
vn -0.4385 -0.3349 -0.8340
vn -0.4014 -0.2857 -0.8702
vn 0.3288 -0.1938 -0.9243
vn 0.3251 -0.1893 -0.9265
vn -0.3251 -0.1893 -0.9265
vn -0.3288 -0.1938 -0.9243
vn -0.3299 -0.0663 -0.9417
vn -0.3126 -0.1097 -0.9435
vn -0.3123 -0.1103 -0.9435
vn 0.3299 -0.0663 -0.9417
vn 0.3123 -0.1104 -0.9435
vn 0.3126 -0.1097 -0.9435
vn 0.9993 -0.0373 0.0000
vn 0.9996 -0.0299 0.0000
vn 0.9975 0.0703 0.0000
vn 0.9983 0.0581 0.0000
vn -0.9766 0.2152 0.0000
vn -0.9848 0.1739 0.0000
vn -0.9889 0.1488 0.0000
vn -0.9975 0.0703 0.0000
vn -0.9983 0.0581 0.0000
vn -0.9993 -0.0373 0.0000
vn -0.9996 -0.0298 0.0000
vn -0.9962 -0.0869 0.0000
vn 0.9889 0.1488 0.0000
vn 0.9848 0.1739 0.0000
vn 0.9766 0.2152 0.0000
vn 0.9962 -0.0869 0.0000
usemtl None
s 1
f 7/1/1 4/2/2 6/3/3
f 3/4/4 7/1/5 6/3/6
f 13/5/7 11/6/8 4/2/2 7/1/1
f 8/7/9 13/5/10 7/1/5 3/4/4
f 1/8/11 5/9/11 12/10/12 9/11/13
f 9/11/13 12/10/12 13/5/10 8/7/9
f 5/9/14 2/12/14 10/13/15 12/10/16
f 12/10/16 10/13/15 11/6/8 13/5/7
f 20/14/17 19/15/18 17/16/19
f 16/17/20 19/15/21 20/14/22
f 26/18/23 20/14/17 17/16/19 24/19/24
f 21/20/25 16/17/20 20/14/22 26/18/26
f 14/21/27 22/22/28 25/23/29 18/24/27
f 22/22/28 21/20/25 26/18/26 25/23/29
f 18/24/30 25/23/31 23/25/32 15/26/30
f 25/23/31 26/18/23 24/19/24 23/25/32
f 10/13/33 23/25/34 24/19/35 11/6/36
f 6/3/37 19/15/37 16/17/38 3/4/39
f 3/4/39 16/17/38 21/20/40 8/7/41
f 9/11/42 22/22/43 14/21/44 1/8/44
f 8/7/41 21/20/40 22/22/43 9/11/42
f 4/2/45 17/16/46 19/15/47 6/3/47
f 2/12/48 15/26/48 23/25/34 10/13/33
f 11/6/36 24/19/35 17/16/46 4/2/45
