# Blender v3.4.1 OBJ File: 'Forest_Nature_Pack_Export.blend'
# www.blender.org
mtllib Grass_1_B_Color1.mtl
o Grass_1_B_Color1
v -0.041675 -0.041666 0.153814
v -0.154035 -0.041666 -0.040799
v -0.172370 0.352828 0.207647
v -0.266016 0.352828 0.045448
v -0.126922 -0.050659 0.073289
v -0.264879 0.420192 0.152925
v -0.240517 0.340743 0.138859
v -0.088997 0.232061 0.218885
v -0.042181 0.097574 0.200632
v -0.194846 0.097574 -0.063791
v -0.234061 0.232061 -0.032374
v -0.159538 0.080487 0.092106
v -0.200831 0.210068 0.115946
v -0.011570 -0.030668 0.123869
v -0.113049 -0.030668 -0.051899
v -0.146812 0.370317 0.174881
v -0.224860 0.370317 0.039699
v -0.076675 -0.035112 0.044279
v -0.247871 0.433087 0.143106
v -0.199419 0.363861 0.115132
v -0.062673 0.252378 0.177120
v -0.009155 0.123914 0.154256
v -0.138169 0.123914 -0.069204
v -0.184730 0.252378 -0.034288
v -0.089772 0.119518 0.051827
v -0.139144 0.246292 0.080332
v -0.124853 -0.046297 -0.122554
v 0.124836 -0.046297 -0.122554
v -0.104046 0.392030 -0.278222
v 0.104056 0.392030 -0.278222
v -0.000009 -0.056290 -0.159846
v 0.000005 0.466878 -0.336838
v 0.000005 0.378601 -0.305580
v -0.161178 0.257844 -0.204239
v -0.169622 0.108414 -0.149050
v 0.169633 0.108414 -0.149050
v 0.161188 0.257844 -0.204239
v 0.000005 0.089428 -0.201685
v 0.000005 0.233408 -0.254663
v -0.112764 -0.034077 -0.076948
v 0.112747 -0.034077 -0.076948
v -0.086715 0.411462 -0.235425
v 0.086723 0.411462 -0.235425
v -0.000009 -0.039016 -0.095379
v 0.000004 0.481205 -0.315017
v 0.000004 0.404288 -0.252853
v -0.135614 0.280418 -0.155707
v -0.143345 0.137680 -0.091506
v 0.143354 0.137681 -0.091506
v 0.135623 0.280418 -0.155707
v 0.000005 0.132796 -0.112175
v 0.000004 0.273655 -0.175520
v 0.139533 -0.037041 -0.034776
v 0.039657 -0.037041 0.138214
v 0.239060 0.313621 0.041907
v 0.155819 0.313621 0.186084
v 0.115432 -0.045035 0.066636
v 0.238050 0.373499 0.137442
v 0.216394 0.302878 0.124939
v 0.210656 0.206272 -0.027268
v 0.175798 0.086728 -0.055194
v 0.040096 0.086728 0.179849
v 0.081709 0.206272 0.196073
v 0.144413 0.071540 0.083381
v 0.181118 0.186723 0.104572
v 0.103101 -0.027265 -0.044642
v 0.012896 -0.027265 0.111596
v 0.202477 0.329167 0.036796
v 0.133102 0.329167 0.156957
v 0.070768 -0.031216 0.040849
v 0.222932 0.384961 0.128713
v 0.179864 0.323428 0.103847
v 0.166806 0.224331 -0.028970
v 0.125419 0.110141 -0.060006
v 0.010739 0.110141 0.138624
v 0.058311 0.224331 0.158949
v 0.082399 0.106234 0.047577
v 0.126285 0.218921 0.072914
vt 0.062964 0.935701
vt 0.062964 0.945182
vt 0.071675 0.967550
vt 0.054254 0.967550
vt 0.062964 0.976432
vt 0.062964 0.966951
vt 0.062964 0.920120
vt 0.076457 0.952442
vt 0.049471 0.952442
vt 0.062964 0.951370
vt 0.052511 0.919901
vt 0.048763 0.936332
vt 0.062964 0.935854
vt 0.062963 0.919901
vt 0.062964 0.904604
vt 0.077164 0.936332
vt 0.073414 0.919901
vt 0.062964 0.968085
vt 0.070224 0.968330
vt 0.062964 0.977264
vt 0.055705 0.968330
vt 0.062964 0.936835
vt 0.062964 0.946014
vt 0.062964 0.953238
vt 0.074318 0.953380
vt 0.051611 0.953380
vt 0.062964 0.921988
vt 0.053522 0.919901
vt 0.062963 0.919901
vt 0.062964 0.906505
vt 0.050962 0.937690
vt 0.072402 0.919901
vt 0.074964 0.937690
vt 0.062964 0.937755
vt 0.062964 0.935701
vt 0.062964 0.945182
vt 0.071675 0.967550
vt 0.054254 0.967550
vt 0.062964 0.976432
vt 0.062964 0.966951
vt 0.062964 0.920120
vt 0.076457 0.952442
vt 0.049471 0.952442
vt 0.062964 0.951370
vt 0.052511 0.919901
vt 0.048763 0.936332
vt 0.062964 0.935854
vt 0.062963 0.919901
vt 0.062964 0.904604
vt 0.077164 0.936332
vt 0.073414 0.919901
vt 0.062964 0.968085
vt 0.070224 0.968330
vt 0.062964 0.977264
vt 0.055705 0.968330
vt 0.062964 0.936835
vt 0.062964 0.946014
vt 0.062964 0.953238
vt 0.074318 0.953380
vt 0.051611 0.953380
vt 0.062964 0.921988
vt 0.053522 0.919901
vt 0.062963 0.919901
vt 0.062964 0.906505
vt 0.050962 0.937690
vt 0.072402 0.919901
vt 0.074964 0.937690
vt 0.062964 0.937755
vt 0.062964 0.935701
vt 0.062964 0.945182
vt 0.071675 0.967550
vt 0.054254 0.967550
vt 0.062964 0.976432
vt 0.062964 0.966951
vt 0.062964 0.920120
vt 0.076457 0.952442
vt 0.049471 0.952442
vt 0.062964 0.951370
vt 0.052511 0.919901
vt 0.048763 0.936332
vt 0.062964 0.935854
vt 0.062963 0.919901
vt 0.062964 0.904604
vt 0.077164 0.936332
vt 0.073414 0.919901
vt 0.062964 0.968085
vt 0.070224 0.968330
vt 0.062964 0.977264
vt 0.055705 0.968330
vt 0.062964 0.936835
vt 0.062964 0.946014
vt 0.062964 0.953238
vt 0.074318 0.953380
vt 0.051611 0.953380
vt 0.062964 0.921988
vt 0.053522 0.919901
vt 0.062963 0.919901
vt 0.062964 0.906505
vt 0.050962 0.937690
vt 0.072402 0.919901
vt 0.074964 0.937690
vt 0.062964 0.937755
vn -0.9246 -0.3279 0.1938
vn -0.9235 -0.3205 0.2106
vn -0.9250 -0.3309 0.1867
vn -0.6242 -0.3309 0.7077
vn -0.6442 -0.3205 0.6945
vn -0.6302 -0.3279 0.7038
vn -0.9290 -0.3271 0.1732
vn -0.9294 -0.3262 0.1727
vn -0.6143 -0.3262 0.7185
vn -0.6145 -0.3271 0.7179
vn -0.6421 -0.2542 0.7232
vn -0.6263 -0.2902 0.7235
vn -0.6278 -0.2869 0.7236
vn -0.9474 -0.2543 0.1945
vn -0.9405 -0.2869 0.1819
vn -0.9397 -0.2903 0.1806
vn 0.7977 0.5528 -0.2411
vn 0.8122 0.5236 -0.2571
vn 0.7614 0.6154 -0.2041
vn 0.6288 0.5236 -0.5748
vn 0.6076 0.5528 -0.5703
vn 0.5574 0.6154 -0.5573
vn 0.8442 0.4436 -0.3011
vn 0.8462 0.4373 -0.3046
vn 0.6868 0.4373 -0.5805
vn 0.6828 0.4436 -0.5805
vn 0.7740 0.1034 -0.6247
vn 0.7502 0.2563 -0.6095
vn 0.7489 0.2622 -0.6086
vn 0.9280 0.1034 -0.3580
vn 0.9015 0.2622 -0.3442
vn 0.9030 0.2563 -0.3449
vn 0.1738 0.7112 0.6811
vn 0.4121 0.5977 0.6877
vn 0.4067 0.6010 0.6881
vn 0.6959 0.3231 0.6413
vn 0.6893 0.3341 0.6428
vn 0.7943 0.0022 0.6075
vn 0.7975 -0.1582 0.5823
vn 0.7905 0.0396 0.6111
vn -0.3895 0.5977 -0.7007
vn -0.5030 0.7112 -0.4911
vn -0.3926 0.6010 -0.6962
vn -0.1055 -0.1583 -0.9817
vn -0.1289 0.0021 -0.9916
vn -0.1339 0.0395 -0.9902
vn -0.2074 0.3231 -0.9234
vn -0.2120 0.3341 -0.9184
vn 0.2945 -0.3279 -0.8977
vn 0.2793 -0.3205 -0.9051
vn 0.3008 -0.3309 -0.8944
vn -0.3008 -0.3309 -0.8944
vn -0.2793 -0.3205 -0.9051
vn -0.2945 -0.3279 -0.8977
vn 0.3145 -0.3271 -0.8911
vn 0.3151 -0.3262 -0.8912
vn -0.3151 -0.3262 -0.8912
vn -0.3145 -0.3271 -0.8911
vn -0.3053 -0.2542 -0.9177
vn -0.3134 -0.2902 -0.9042
vn -0.3127 -0.2869 -0.9055
vn 0.3053 -0.2543 -0.9177
vn 0.3127 -0.2869 -0.9055
vn 0.3134 -0.2903 -0.9042
vn -0.1901 0.5528 0.8113
vn -0.1834 0.5236 0.8320
vn -0.2039 0.6154 0.7614
vn 0.1834 0.5236 0.8320
vn 0.1901 0.5528 0.8113
vn 0.2039 0.6154 0.7614
vn -0.1613 0.4436 0.8816
vn -0.1593 0.4373 0.8851
vn 0.1593 0.4373 0.8851
vn 0.1613 0.4436 0.8816
vn 0.1540 0.1034 0.9826
vn 0.1528 0.2563 0.9544
vn 0.1527 0.2622 0.9529
vn -0.1540 0.1034 0.9826
vn -0.1527 0.2622 0.9529
vn -0.1528 0.2563 0.9544
vn -0.6768 0.7112 -0.1901
vn -0.8016 0.5977 0.0130
vn -0.7992 0.6010 0.0081
vn -0.9034 0.3231 0.2820
vn -0.9014 0.3341 0.2755
vn -0.9233 0.0022 0.3841
vn -0.9030 -0.1582 0.3995
vn -0.9245 0.0396 0.3791
vn 0.8016 0.5977 0.0131
vn 0.6768 0.7112 -0.1901
vn 0.7992 0.6010 0.0082
vn 0.9029 -0.1583 0.3995
vn 0.9233 0.0021 0.3842
vn 0.9245 0.0395 0.3791
vn 0.9034 0.3231 0.2820
vn 0.9014 0.3341 0.2756
vn 0.6302 -0.3279 0.7038
vn 0.6442 -0.3205 0.6945
vn 0.6242 -0.3309 0.7077
vn 0.9250 -0.3309 0.1867
vn 0.9235 -0.3205 0.2106
vn 0.9246 -0.3279 0.1938
vn 0.6145 -0.3271 0.7179
vn 0.6143 -0.3262 0.7185
vn 0.9294 -0.3262 0.1727
vn 0.9290 -0.3271 0.1732
vn 0.9474 -0.2542 0.1945
vn 0.9398 -0.2902 0.1806
vn 0.9405 -0.2869 0.1819
vn 0.6421 -0.2543 0.7232
vn 0.6278 -0.2869 0.7235
vn 0.6263 -0.2903 0.7235
vn -0.6076 0.5528 -0.5703
vn -0.6288 0.5236 -0.5748
vn -0.5574 0.6154 -0.5573
vn -0.8122 0.5236 -0.2571
vn -0.7977 0.5528 -0.2411
vn -0.7614 0.6154 -0.2041
vn -0.6828 0.4436 -0.5805
vn -0.6868 0.4373 -0.5805
vn -0.8462 0.4373 -0.3046
vn -0.8442 0.4436 -0.3011
vn -0.9280 0.1034 -0.3580
vn -0.9030 0.2563 -0.3449
vn -0.9015 0.2622 -0.3442
vn -0.7740 0.1034 -0.6247
vn -0.7489 0.2622 -0.6086
vn -0.7502 0.2563 -0.6095
vn 0.5030 0.7112 -0.4911
vn 0.3895 0.5977 -0.7007
vn 0.3926 0.6010 -0.6962
vn 0.2074 0.3231 -0.9234
vn 0.2121 0.3341 -0.9184
vn 0.1290 0.0022 -0.9916
vn 0.1055 -0.1582 -0.9818
vn 0.1340 0.0396 -0.9902
vn -0.4121 0.5977 0.6877
vn -0.1738 0.7112 0.6811
vn -0.4067 0.6010 0.6881
vn -0.7975 -0.1583 0.5822
vn -0.7943 0.0021 0.6075
vn -0.7906 0.0395 0.6111
vn -0.6959 0.3231 0.6413
vn -0.6893 0.3341 0.6428
usemtl forest
s 1
f 7/1/1 6/2/2 4/3/3
f 3/4/4 6/5/5 7/6/6
f 13/7/7 7/1/1 4/3/3 11/8/8
f 8/9/9 3/4/4 7/6/6 13/10/10
f 1/11/11 9/12/12 12/13/13 5/14/11
f 9/12/12 8/9/9 13/10/10 12/13/13
f 5/14/14 12/15/15 10/16/16 2/17/14
f 12/15/15 13/7/7 11/8/8 10/16/16
f 20/18/17 17/19/18 19/20/19
f 16/21/20 20/22/21 19/23/22
f 26/24/23 24/25/24 17/19/18 20/18/17
f 21/26/25 26/27/26 20/22/21 16/21/20
f 14/28/27 18/29/27 25/30/28 22/31/29
f 22/31/29 25/30/28 26/27/26 21/26/25
f 18/29/30 15/32/30 23/33/31 25/34/32
f 25/34/32 23/33/31 24/25/24 26/24/23
f 6/5/33 3/4/34 16/21/35 19/20/33
f 3/4/34 8/9/36 21/26/37 16/21/35
f 9/12/38 1/11/39 14/28/39 22/31/40
f 8/9/36 9/12/38 22/31/40 21/26/37
f 4/3/41 6/5/42 19/20/42 17/19/43
f 2/17/44 10/16/45 23/33/46 15/32/44
f 11/8/47 4/3/41 17/19/43 24/25/48
f 10/16/45 11/8/47 24/25/48 23/33/46
f 33/35/49 32/36/50 30/37/51
f 29/38/52 32/39/53 33/40/54
f 39/41/55 33/35/49 30/37/51 37/42/56
f 34/43/57 29/38/52 33/40/54 39/44/58
f 27/45/59 35/46/60 38/47/61 31/48/59
f 35/46/60 34/43/57 39/44/58 38/47/61
f 31/48/62 38/49/63 36/50/64 28/51/62
f 38/49/63 39/41/55 37/42/56 36/50/64
f 46/52/65 43/53/66 45/54/67
f 42/55/68 46/56/69 45/57/70
f 52/58/71 50/59/72 43/53/66 46/52/65
f 47/60/73 52/61/74 46/56/69 42/55/68
f 40/62/75 44/63/75 51/64/76 48/65/77
f 48/65/77 51/64/76 52/61/74 47/60/73
f 44/63/78 41/66/78 49/67/79 51/68/80
f 51/68/80 49/67/79 50/59/72 52/58/71
f 32/39/81 29/38/82 42/55/83 45/54/81
f 29/38/82 34/43/84 47/60/85 42/55/83
f 35/46/86 27/45/87 40/62/87 48/65/88
f 34/43/84 35/46/86 48/65/88 47/60/85
f 30/37/89 32/39/90 45/54/90 43/53/91
f 28/51/92 36/50/93 49/67/94 41/66/92
f 37/42/95 30/37/89 43/53/91 50/59/96
f 36/50/93 37/42/95 50/59/96 49/67/94
f 59/69/97 58/70/98 56/71/99
f 55/72/100 58/73/101 59/74/102
f 65/75/103 59/69/97 56/71/99 63/76/104
f 60/77/105 55/72/100 59/74/102 65/78/106
f 53/79/107 61/80/108 64/81/109 57/82/107
f 61/80/108 60/77/105 65/78/106 64/81/109
f 57/82/110 64/83/111 62/84/112 54/85/110
f 64/83/111 65/75/103 63/76/104 62/84/112
f 72/86/113 69/87/114 71/88/115
f 68/89/116 72/90/117 71/91/118
f 78/92/119 76/93/120 69/87/114 72/86/113
f 73/94/121 78/95/122 72/90/117 68/89/116
f 66/96/123 70/97/123 77/98/124 74/99/125
f 74/99/125 77/98/124 78/95/122 73/94/121
f 70/97/126 67/100/126 75/101/127 77/102/128
f 77/102/128 75/101/127 76/93/120 78/92/119
f 58/73/129 55/72/130 68/89/131 71/88/129
f 55/72/130 60/77/132 73/94/133 68/89/131
f 61/80/134 53/79/135 66/96/135 74/99/136
f 60/77/132 61/80/134 74/99/136 73/94/133
f 56/71/137 58/73/138 71/88/138 69/87/139
f 54/85/140 62/84/141 75/101/142 67/100/140
f 63/76/143 56/71/137 69/87/139 76/93/144
f 62/84/141 63/76/143 76/93/144 75/101/142
