# Blender v3.4.1 OBJ File: 'Forest_Nature_Pack_Export.blend'
# www.blender.org
mtllib Grass_2_B_Singlesided_Color1.mtl
o Grass_2_B_Singlesided_Color1
v -0.000562 -0.027968 0.059419
v -0.051739 -0.027968 -0.029223
v -0.095276 0.605134 0.104262
v -0.137937 0.605133 0.030372
v -0.044590 -0.028140 0.025744
v -0.203348 0.798741 0.117397
v -0.134516 0.600778 0.077657
v -0.033750 0.396002 0.095140
v -0.001552 0.185089 0.081443
v -0.071313 0.185088 -0.039387
v -0.099275 0.396001 -0.018351
v -0.054664 0.184865 0.031554
v -0.084757 0.395338 0.048928
v -0.056864 -0.031076 -0.033551
v 0.056864 -0.031076 -0.033551
v -0.047395 0.672371 -0.149603
v 0.047406 0.672370 -0.149603
v 0.000000 -0.031267 -0.057209
v 0.000006 0.887490 -0.260892
v 0.000006 0.667531 -0.172581
v -0.072799 0.440003 -0.085332
v -0.077506 0.205654 -0.046739
v 0.077519 0.205654 -0.046739
v 0.072811 0.440001 -0.085332
v 0.000006 0.205406 -0.070130
v 0.000006 0.439265 -0.108740
v 0.045990 -0.024861 -0.025976
v 0.000499 -0.024861 0.052817
v 0.122606 0.537897 0.027005
v 0.084685 0.537896 0.092685
v 0.039635 -0.025013 0.022883
v 0.180749 0.709992 0.104361
v 0.119565 0.534025 0.069036
v 0.088239 0.352002 -0.016304
v 0.063384 0.164524 -0.035002
v 0.001374 0.164523 0.072402
v 0.029995 0.352001 0.084578
v 0.048585 0.164325 0.028056
v 0.075335 0.351412 0.043500
vt 0.062964 0.963665
vt 0.071648 0.964141
vt 0.062964 0.977264
vt 0.054281 0.964141
vt 0.062964 0.932415
vt 0.062964 0.946014
vt 0.062964 0.949552
vt 0.076302 0.949872
vt 0.049626 0.949872
vt 0.062964 0.918302
vt 0.052545 0.919901
vt 0.062962 0.919901
vt 0.062964 0.903843
vt 0.048763 0.935255
vt 0.073380 0.919901
vt 0.077164 0.935255
vt 0.062964 0.935093
vt 0.062964 0.963665
vt 0.071648 0.964141
vt 0.062964 0.977264
vt 0.054281 0.964141
vt 0.062964 0.932415
vt 0.062964 0.946014
vt 0.062964 0.949552
vt 0.076302 0.949872
vt 0.049626 0.949872
vt 0.062964 0.918302
vt 0.052545 0.919901
vt 0.062962 0.919901
vt 0.062964 0.903843
vt 0.048763 0.935255
vt 0.073380 0.919901
vt 0.077164 0.935255
vt 0.062964 0.935093
vt 0.062964 0.963665
vt 0.071648 0.964141
vt 0.062964 0.977264
vt 0.054281 0.964141
vt 0.062964 0.932415
vt 0.062964 0.946014
vt 0.062964 0.949552
vt 0.076302 0.949872
vt 0.049626 0.949872
vt 0.062964 0.918302
vt 0.052545 0.919901
vt 0.062962 0.919901
vt 0.062964 0.903843
vt 0.048763 0.935255
vt 0.073380 0.919901
vt 0.077164 0.935255
vt 0.062964 0.935093
vn 0.9543 0.2857 -0.0874
vn 0.9561 0.2768 -0.0964
vn 0.9415 0.3349 -0.0373
vn 0.5615 0.2768 -0.7798
vn 0.5529 0.2857 -0.7827
vn 0.5030 0.3349 -0.7968
vn 0.9649 0.1938 -0.1774
vn 0.9650 0.1893 -0.1817
vn 0.6398 0.1893 -0.7448
vn 0.6361 0.1938 -0.7469
vn 0.6506 0.0663 -0.7566
vn 0.6610 0.1103 -0.7423
vn 0.6608 0.1097 -0.7425
vn 0.9805 0.0663 -0.1851
vn 0.9734 0.1097 -0.2010
vn 0.9733 0.1104 -0.2013
vn -0.4014 0.2857 0.8702
vn -0.3946 0.2768 0.8762
vn -0.4385 0.3349 0.8340
vn 0.3946 0.2768 0.8762
vn 0.4014 0.2857 0.8702
vn 0.4385 0.3349 0.8340
vn -0.3288 0.1938 0.9243
vn -0.3251 0.1893 0.9265
vn 0.3251 0.1893 0.9265
vn 0.3288 0.1938 0.9243
vn 0.3299 0.0663 0.9417
vn 0.3123 0.1103 0.9435
vn 0.3126 0.1097 0.9435
vn -0.3299 0.0663 0.9417
vn -0.3126 0.1097 0.9435
vn -0.3123 0.1104 0.9435
vn -0.5529 0.2857 -0.7827
vn -0.5615 0.2768 -0.7798
vn -0.5030 0.3349 -0.7968
vn -0.9561 0.2768 -0.0964
vn -0.9543 0.2857 -0.0874
vn -0.9415 0.3349 -0.0373
vn -0.6361 0.1938 -0.7469
vn -0.6398 0.1893 -0.7448
vn -0.9650 0.1893 -0.1817
vn -0.9649 0.1938 -0.1774
vn -0.9805 0.0663 -0.1851
vn -0.9733 0.1103 -0.2013
vn -0.9734 0.1097 -0.2010
vn -0.6506 0.0663 -0.7566
vn -0.6608 0.1097 -0.7425
vn -0.6610 0.1104 -0.7423
usemtl forest
s 1
f 7/1/1 4/2/2 6/3/3
f 3/4/4 7/5/5 6/6/6
f 13/7/7 11/8/8 4/2/2 7/1/1
f 8/9/9 13/10/10 7/5/5 3/4/4
f 1/11/11 5/12/11 12/13/12 9/14/13
f 9/14/13 12/13/12 13/10/10 8/9/9
f 5/12/14 2/15/14 10/16/15 12/17/16
f 12/17/16 10/16/15 11/8/8 13/7/7
f 20/18/17 17/19/18 19/20/19
f 16/21/20 20/22/21 19/23/22
f 26/24/23 24/25/24 17/19/18 20/18/17
f 21/26/25 26/27/26 20/22/21 16/21/20
f 14/28/27 18/29/27 25/30/28 22/31/29
f 22/31/29 25/30/28 26/27/26 21/26/25
f 18/29/30 15/32/30 23/33/31 25/34/32
f 25/34/32 23/33/31 24/25/24 26/24/23
f 33/35/33 30/36/34 32/37/35
f 29/38/36 33/39/37 32/40/38
f 39/41/39 37/42/40 30/36/34 33/35/33
f 34/43/41 39/44/42 33/39/37 29/38/36
f 27/45/43 31/46/43 38/47/44 35/48/45
f 35/48/45 38/47/44 39/44/42 34/43/41
f 31/46/46 28/49/46 36/50/47 38/51/48
f 38/51/48 36/50/47 37/42/40 39/41/39
