# Blender v3.4.1 OBJ File: 'Forest_Nature_Pack_Export.blend'
# www.blender.org
mtllib Grass_2_D_Singlesided_Color1.mtl
o Grass_2_D_Singlesided_Color1
v 0.257687 -0.042863 -0.057473
v 0.198526 -0.042863 0.039655
v 0.427571 0.640079 0.057091
v 0.378255 0.640077 0.138055
v 0.248126 -0.046065 0.003285
v 0.520580 0.839275 0.169245
v 0.421851 0.632352 0.109108
v 0.361072 0.417787 -0.013159
v 0.305343 0.190261 -0.052617
v 0.224698 0.190260 0.079781
v 0.285325 0.417785 0.111197
v 0.284808 0.187035 0.025635
v 0.342948 0.414074 0.061048
v -0.155426 -0.031074 -0.044765
v -0.059981 -0.031074 -0.106604
v -0.210583 0.672373 -0.147310
v -0.131021 0.672372 -0.198858
v -0.120567 -0.031265 -0.095539
v -0.231316 0.887492 -0.266483
v -0.183296 0.667533 -0.192368
v -0.196956 0.440005 -0.079557
v -0.179921 0.205656 -0.044608
v -0.049817 0.205656 -0.128904
v -0.074753 0.440003 -0.158733
v -0.127588 0.205408 -0.106387
v -0.148583 0.439267 -0.138790
v 0.102336 -0.024858 -0.119265
v 0.164712 -0.024858 -0.053031
v 0.175117 0.537899 -0.177401
v 0.227113 0.537898 -0.122190
v 0.147302 -0.025011 -0.099124
v 0.265929 0.709994 -0.210835
v 0.214497 0.534027 -0.162398
v 0.123753 0.352004 -0.156946
v 0.098695 0.164526 -0.138520
v 0.183721 0.164525 -0.048235
v 0.203615 0.352003 -0.072144
v 0.154831 0.164327 -0.106207
v 0.177317 0.351414 -0.127384
v -0.095617 -0.027966 0.151688
v -0.146795 -0.027966 0.063046
v -0.190332 0.605136 0.196531
v -0.232992 0.605134 0.122641
v -0.139645 -0.028138 0.118013
v -0.298404 0.798742 0.209666
v -0.229572 0.600779 0.169926
v -0.128806 0.396004 0.187410
v -0.096607 0.185091 0.173712
v -0.166369 0.185090 0.052882
v -0.194330 0.396003 0.073918
v -0.149719 0.184867 0.123823
v -0.179813 0.395340 0.141198
v 0.347231 -0.034034 -0.392853
v 0.460663 -0.034034 -0.384662
v 0.369668 0.655722 -0.572097
v 0.464223 0.655721 -0.565270
v 0.405643 -0.036405 -0.412236
v 0.426354 0.859668 -0.698987
v 0.418561 0.648784 -0.591059
v 0.338178 0.430267 -0.488734
v 0.329160 0.200473 -0.429200
v 0.483782 0.200472 -0.418036
v 0.483409 0.430265 -0.478247
v 0.408146 0.198070 -0.446826
v 0.412468 0.427374 -0.506671
v 0.083205 -0.027227 0.115620
v 0.014900 -0.027227 0.175721
v 0.172850 0.524578 0.228970
v 0.115912 0.524577 0.279069
v 0.061492 -0.029124 0.159808
v 0.213422 0.687734 0.332484
v 0.156237 0.519028 0.267493
v 0.142969 0.344213 0.164244
v 0.114074 0.160379 0.125703
v 0.020965 0.160378 0.207628
v 0.055516 0.344212 0.241194
v 0.079816 0.158456 0.180641
v 0.111524 0.341900 0.216677
v -0.335983 -0.030631 0.059946
v -0.270685 -0.030631 -0.018875
v -0.455571 0.590149 -0.050193
v -0.401140 0.590147 -0.115896
v -0.319648 -0.032765 0.007020
v -0.518900 0.773700 -0.158055
v -0.443904 0.583905 -0.095925
v -0.410960 0.387239 0.016455
v -0.372059 0.180425 0.054184
v -0.283049 0.180424 -0.053258
v -0.327356 0.387238 -0.084461
v -0.343681 0.178262 -0.012897
v -0.385265 0.384636 -0.047347
v -0.298289 -0.035843 0.391118
v -0.386231 -0.035843 0.367796
v -0.347586 0.510511 0.547453
v -0.420893 0.510510 0.528012
v -0.347067 -0.038405 0.397583
v -0.412493 0.669867 0.644271
v -0.388786 0.504329 0.554879
v -0.308801 0.332677 0.480487
v -0.291191 0.150656 0.428776
v -0.411067 0.150655 0.396986
v -0.421396 0.332676 0.450627
v -0.355880 0.148076 0.430797
v -0.369841 0.329707 0.483438
v -0.330335 -0.039352 -0.297372
v -0.275374 -0.039352 -0.383719
v -0.481165 0.575295 -0.403478
v -0.435351 0.575294 -0.475456
v -0.320652 -0.042234 -0.351874
v -0.562864 0.754572 -0.506050
v -0.475094 0.568341 -0.450183
v -0.422575 0.375232 -0.339084
v -0.373130 0.170459 -0.302589
v -0.298212 0.170458 -0.420291
v -0.352207 0.375231 -0.449637
v -0.353262 0.167556 -0.372637
v -0.404948 0.371891 -0.405535
v -0.051564 -0.033915 -0.374480
v 0.016821 -0.033915 -0.283609
v 0.044105 0.513439 -0.434624
v 0.101109 0.513438 -0.358876
v 0.001504 -0.033922 -0.343250
v 0.160597 0.681276 -0.462967
v 0.090957 0.509815 -0.410560
v -0.021584 0.332477 -0.416984
v -0.054334 0.150131 -0.398230
v 0.038882 0.150130 -0.274362
v 0.065971 0.332476 -0.300639
v 0.010937 0.150078 -0.350341
v 0.040872 0.332044 -0.372868
v 0.348491 -0.029126 0.327111
v 0.336778 -0.029126 0.417335
v 0.436851 0.408756 0.346220
v 0.427087 0.408756 0.421430
v 0.361376 -0.029132 0.374656
v 0.519334 0.543027 0.395167
v 0.450189 0.405857 0.386191
v 0.389412 0.263987 0.319568
v 0.360190 0.118110 0.311977
v 0.344224 0.118110 0.434964
v 0.374415 0.263986 0.435086
v 0.370737 0.118067 0.375876
v 0.400460 0.263641 0.379735
v 0.065021 -0.031521 0.385407
v -0.005147 -0.031521 0.310890
v -0.014604 0.461097 0.448679
v -0.073095 0.461096 0.386563
v 0.014459 -0.031527 0.362724
v -0.116005 0.612151 0.485565
v -0.058897 0.457836 0.431791
v 0.042411 0.298232 0.426397
v 0.069851 0.134120 0.406378
v -0.025797 0.134120 0.304801
v -0.047428 0.298231 0.330989
v 0.006723 0.134072 0.370001
v -0.017825 0.297842 0.393116
vt 0.062964 0.963665
vt 0.071648 0.964141
vt 0.062964 0.977264
vt 0.054281 0.964141
vt 0.062964 0.932415
vt 0.062964 0.946014
vt 0.062964 0.949552
vt 0.076302 0.949872
vt 0.049626 0.949872
vt 0.062964 0.918302
vt 0.052545 0.919901
vt 0.062962 0.919901
vt 0.062964 0.903843
vt 0.048763 0.935255
vt 0.073380 0.919901
vt 0.077164 0.935255
vt 0.062964 0.935093
vt 0.062964 0.963665
vt 0.071648 0.964141
vt 0.062964 0.977264
vt 0.054281 0.964141
vt 0.062964 0.932415
vt 0.062964 0.946014
vt 0.062964 0.949552
vt 0.076302 0.949872
vt 0.049626 0.949872
vt 0.062964 0.918302
vt 0.052545 0.919901
vt 0.062962 0.919901
vt 0.062964 0.903843
vt 0.048763 0.935255
vt 0.073380 0.919901
vt 0.077164 0.935255
vt 0.062964 0.935093
vt 0.062964 0.963665
vt 0.071648 0.964141
vt 0.062964 0.977264
vt 0.054281 0.964141
vt 0.062964 0.932415
vt 0.062964 0.946014
vt 0.062964 0.949552
vt 0.076302 0.949872
vt 0.049626 0.949872
vt 0.062964 0.918302
vt 0.052545 0.919901
vt 0.062962 0.919901
vt 0.062964 0.903843
vt 0.048763 0.935255
vt 0.073380 0.919901
vt 0.077164 0.935255
vt 0.062964 0.935093
vt 0.062964 0.963665
vt 0.071648 0.964141
vt 0.062964 0.977264
vt 0.054281 0.964141
vt 0.062964 0.932415
vt 0.062964 0.946014
vt 0.062964 0.949552
vt 0.076302 0.949872
vt 0.049626 0.949872
vt 0.062964 0.918302
vt 0.052545 0.919901
vt 0.062962 0.919901
vt 0.062964 0.903843
vt 0.048763 0.935255
vt 0.073380 0.919901
vt 0.077164 0.935255
vt 0.062964 0.935093
vt 0.062964 0.963665
vt 0.071648 0.964141
vt 0.062964 0.977264
vt 0.054281 0.964141
vt 0.062964 0.932415
vt 0.062964 0.946014
vt 0.062964 0.949552
vt 0.076302 0.949872
vt 0.049626 0.949872
vt 0.062964 0.918302
vt 0.052545 0.919901
vt 0.062962 0.919901
vt 0.062964 0.903843
vt 0.048763 0.935255
vt 0.073380 0.919901
vt 0.077164 0.935255
vt 0.062964 0.935093
vt 0.062964 0.963665
vt 0.071648 0.964141
vt 0.062964 0.977264
vt 0.054281 0.964141
vt 0.062964 0.932415
vt 0.062964 0.946014
vt 0.062964 0.949552
vt 0.076302 0.949872
vt 0.049626 0.949872
vt 0.062964 0.918302
vt 0.052545 0.919901
vt 0.062962 0.919901
vt 0.062964 0.903843
vt 0.048763 0.935255
vt 0.073380 0.919901
vt 0.077164 0.935255
vt 0.062964 0.935093
vt 0.062964 0.963665
vt 0.071648 0.964141
vt 0.062964 0.977264
vt 0.054281 0.964141
vt 0.062964 0.932415
vt 0.062964 0.946014
vt 0.062964 0.949552
vt 0.076302 0.949872
vt 0.049626 0.949872
vt 0.062964 0.918302
vt 0.052545 0.919901
vt 0.062962 0.919901
vt 0.062964 0.903843
vt 0.048763 0.935255
vt 0.073380 0.919901
vt 0.077164 0.935255
vt 0.062964 0.935093
vt 0.062964 0.963665
vt 0.071648 0.964141
vt 0.062964 0.977264
vt 0.054281 0.964141
vt 0.062964 0.932415
vt 0.062964 0.946014
vt 0.062964 0.949552
vt 0.076302 0.949872
vt 0.049626 0.949872
vt 0.062964 0.918302
vt 0.052545 0.919901
vt 0.062962 0.919901
vt 0.062964 0.903843
vt 0.048763 0.935255
vt 0.073380 0.919901
vt 0.077164 0.935255
vt 0.062964 0.935093
vt 0.062964 0.963665
vt 0.071648 0.964141
vt 0.062964 0.977264
vt 0.054281 0.964141
vt 0.062964 0.932415
vt 0.062964 0.946014
vt 0.062964 0.949552
vt 0.076302 0.949872
vt 0.049626 0.949872
vt 0.062964 0.918302
vt 0.052545 0.919901
vt 0.062962 0.919901
vt 0.062964 0.903843
vt 0.048763 0.935255
vt 0.073380 0.919901
vt 0.077164 0.935255
vt 0.062964 0.935093
vt 0.062964 0.963665
vt 0.071648 0.964141
vt 0.062964 0.977264
vt 0.054281 0.964141
vt 0.062964 0.932415
vt 0.062964 0.946014
vt 0.062964 0.949552
vt 0.076302 0.949872
vt 0.049626 0.949872
vt 0.062964 0.918302
vt 0.052545 0.919901
vt 0.062962 0.919901
vt 0.062964 0.903843
vt 0.048763 0.935255
vt 0.073380 0.919901
vt 0.077164 0.935255
vt 0.062964 0.935093
vt 0.062964 0.963665
vt 0.071648 0.964141
vt 0.062964 0.977264
vt 0.054281 0.964141
vt 0.062964 0.932415
vt 0.062964 0.946014
vt 0.062964 0.949552
vt 0.076302 0.949872
vt 0.049626 0.949872
vt 0.062964 0.918302
vt 0.052545 0.919901
vt 0.062962 0.919901
vt 0.062964 0.903843
vt 0.048763 0.935255
vt 0.073380 0.919901
vt 0.077164 0.935255
vt 0.062964 0.935093
vt 0.062964 0.963665
vt 0.071648 0.964141
vt 0.062964 0.977264
vt 0.054281 0.964141
vt 0.062964 0.932415
vt 0.062964 0.946014
vt 0.062964 0.949552
vt 0.076302 0.949872
vt 0.049626 0.949872
vt 0.062964 0.918302
vt 0.052545 0.919901
vt 0.062962 0.919901
vt 0.062964 0.903843
vt 0.048763 0.935255
vt 0.073380 0.919901
vt 0.077164 0.935255
vt 0.062964 0.935093
vn -0.4972 0.3942 -0.7729
vn -0.5069 0.3861 -0.7707
vn -0.4420 0.4383 -0.7826
vn -0.9174 0.3861 -0.0968
vn -0.9149 0.3942 -0.0872
vn -0.8982 0.4383 -0.0337
vn -0.5909 0.3099 -0.7449
vn -0.5951 0.3058 -0.7432
vn -0.9334 0.3058 -0.1878
vn -0.9329 0.3099 -0.1833
vn -0.9621 0.1857 -0.1997
vn -0.9497 0.2296 -0.2128
vn -0.9499 0.2289 -0.2126
vn -0.6188 0.1857 -0.7632
vn -0.6247 0.2289 -0.7465
vn -0.6248 0.2296 -0.7463
vn 0.1363 0.2857 0.9486
vn 0.1453 0.2768 0.9499
vn 0.0855 0.3349 0.9384
vn 0.8076 0.2768 0.5208
vn 0.8101 0.2857 0.5120
vn 0.8215 0.3349 0.4615
vn 0.2267 0.1938 0.9545
vn 0.2309 0.1893 0.9544
vn 0.7767 0.1893 0.6008
vn 0.7785 0.1938 0.5969
vn 0.7889 0.0663 0.6109
vn 0.7752 0.1103 0.6220
vn 0.7754 0.1097 0.6219
vn 0.2351 0.0663 0.9697
vn 0.2507 0.1097 0.9618
vn 0.2509 0.1104 0.9617
vn -0.9087 0.2857 0.3044
vn -0.9084 0.2768 0.3135
vn -0.9078 0.3349 0.2526
vn -0.3673 0.2768 0.8880
vn -0.3583 0.2857 0.8888
vn -0.3065 0.3349 0.8910
vn -0.8983 0.1938 0.3943
vn -0.8974 0.1893 0.3985
vn -0.4516 0.1893 0.8719
vn -0.4475 0.1938 0.8730
vn -0.4593 0.0663 0.8858
vn -0.4728 0.1103 0.8743
vn -0.4726 0.1097 0.8744
vn -0.9117 0.0663 0.4054
vn -0.9012 0.1097 0.4193
vn -0.9010 0.1104 0.4195
vn 0.9543 0.2857 -0.0874
vn 0.9561 0.2768 -0.0964
vn 0.9415 0.3349 -0.0373
vn 0.5615 0.2768 -0.7798
vn 0.5529 0.2857 -0.7827
vn 0.5030 0.3349 -0.7968
vn 0.9649 0.1938 -0.1774
vn 0.9650 0.1893 -0.1817
vn 0.6398 0.1893 -0.7448
vn 0.6361 0.1938 -0.7469
vn 0.6506 0.0663 -0.7566
vn 0.6610 0.1103 -0.7423
vn 0.6608 0.1097 -0.7425
vn 0.9805 0.0663 -0.1851
vn 0.9734 0.1097 -0.2010
vn 0.9733 0.1104 -0.2013
vn -0.4609 0.3647 0.8091
vn -0.4546 0.3563 0.8163
vn -0.4949 0.4103 0.7660
vn 0.3326 0.3563 0.8732
vn 0.3399 0.3647 0.8669
vn 0.3798 0.4103 0.8291
vn -0.3929 0.2782 0.8765
vn -0.3895 0.2739 0.8794
vn 0.2591 0.2739 0.9262
vn 0.2629 0.2781 0.9239
vn 0.2620 0.1528 0.9529
vn 0.2446 0.1968 0.9494
vn 0.2449 0.1962 0.9495
vn -0.3962 0.1528 0.9054
vn -0.3787 0.1962 0.9045
vn -0.3785 0.1968 0.9044
vn -0.2536 0.3647 -0.8959
vn -0.2633 0.3563 -0.8965
vn -0.1990 0.4103 -0.8900
vn -0.8557 0.3563 -0.3752
vn -0.8564 0.3647 -0.3656
vn -0.8574 0.4103 -0.3107
vn -0.3494 0.2782 -0.8948
vn -0.3538 0.2739 -0.8943
vn -0.8420 0.2739 -0.4647
vn -0.8430 0.2781 -0.4604
vn -0.8631 0.1528 -0.4814
vn -0.8484 0.1968 -0.4914
vn -0.8486 0.1962 -0.4913
vn -0.3677 0.1528 -0.9173
vn -0.3793 0.1962 -0.9043
vn -0.3794 0.1968 -0.9040
vn 0.3909 0.3647 0.8451
vn 0.4005 0.3563 0.8442
vn 0.3360 0.4103 0.8478
vn 0.9039 0.3563 0.2365
vn 0.9031 0.3647 0.2268
vn 0.8955 0.4103 0.1724
vn 0.4853 0.2782 0.8290
vn 0.4896 0.2739 0.8278
vn 0.9044 0.2739 0.3271
vn 0.9048 0.2781 0.3226
vn 0.9278 0.1528 0.3402
vn 0.9149 0.1968 0.3524
vn 0.9151 0.1962 0.3522
vn 0.5069 0.1528 0.8484
vn 0.5163 0.1962 0.8336
vn 0.5164 0.1968 0.8334
vn 0.5999 0.3942 -0.6962
vn 0.5951 0.3861 -0.7048
vn 0.6250 0.4383 -0.6460
vn -0.1677 0.3861 -0.9071
vn -0.1761 0.3942 -0.9020
vn -0.2227 0.4383 -0.8708
vn 0.5465 0.3099 -0.7780
vn 0.5437 0.3058 -0.7816
vn -0.0849 0.3058 -0.9483
vn -0.0891 0.3099 -0.9466
vn -0.0816 0.1857 -0.9792
vn -0.0656 0.2296 -0.9711
vn -0.0659 0.2289 -0.9712
vn 0.5562 0.1857 -0.8101
vn 0.5385 0.2289 -0.8109
vn 0.5382 0.2296 -0.8109
vn 0.4819 0.3942 0.7826
vn 0.4915 0.3861 0.7806
vn 0.4264 0.4383 0.7912
vn 0.9153 0.3861 0.1149
vn 0.9130 0.3942 0.1053
vn 0.8973 0.4383 0.0514
vn 0.5760 0.3099 0.7564
vn 0.5803 0.3058 0.7548
vn 0.9295 0.3058 0.2062
vn 0.9291 0.3099 0.2017
vn 0.9580 0.1857 0.2187
vn 0.9454 0.2296 0.2315
vn 0.9456 0.2289 0.2313
vn 0.6037 0.1857 0.7753
vn 0.6098 0.2289 0.7587
vn 0.6099 0.2296 0.7585
vn -0.9140 0.3543 0.1978
vn -0.9171 0.3377 0.2119
vn -0.8997 0.4106 0.1479
vn -0.4575 0.3377 0.8226
vn -0.4431 0.3543 0.8235
vn -0.3913 0.4106 0.8236
vn -0.9260 0.2409 0.2906
vn -0.9261 0.2336 0.2963
vn -0.5411 0.2336 0.8078
vn -0.5356 0.2409 0.8094
vn -0.5540 0.0795 0.8287
vn -0.5649 0.1358 0.8139
vn -0.5647 0.1346 0.8142
vn -0.9497 0.0795 0.3029
vn -0.9388 0.1346 0.3172
vn -0.9385 0.1358 0.3175
vn -0.7917 0.3543 -0.4976
vn -0.8038 0.3377 -0.4897
vn -0.7467 0.4106 -0.5233
vn -0.9022 0.3377 0.2682
vn -0.8925 0.3543 0.2790
vn -0.8556 0.4106 0.3153
vn -0.8652 0.2409 -0.4397
vn -0.8693 0.2336 -0.4356
vn -0.9517 0.2336 0.1992
vn -0.9488 0.2409 0.2042
vn -0.9755 0.0795 0.2051
vn -0.9729 0.1358 0.1869
vn -0.9730 0.1346 0.1873
vn -0.8908 0.0795 -0.4474
vn -0.8929 0.1346 -0.4296
vn -0.8930 0.1358 -0.4292
vn 0.8867 0.3543 -0.2971
vn 0.8882 0.3377 -0.3115
vn 0.8780 0.4106 -0.2460
vn 0.3643 0.3377 -0.8679
vn 0.3498 0.3543 -0.8672
vn 0.2983 0.4106 -0.8616
vn 0.8884 0.2409 -0.3907
vn 0.8879 0.2336 -0.3964
vn 0.4490 0.2336 -0.8625
vn 0.4433 0.2409 -0.8634
vn 0.4595 0.0795 -0.8846
vn 0.4720 0.1358 -0.8711
vn 0.4717 0.1346 -0.8714
vn 0.9106 0.0795 -0.4055
vn 0.8982 0.1346 -0.4185
vn 0.8979 0.1358 -0.4188
usemtl forest
s 1
f 7/1/1 4/2/2 6/3/3
f 3/4/4 7/5/5 6/6/6
f 13/7/7 11/8/8 4/2/2 7/1/1
f 8/9/9 13/10/10 7/5/5 3/4/4
f 1/11/11 5/12/11 12/13/12 9/14/13
f 9/14/13 12/13/12 13/10/10 8/9/9
f 5/12/14 2/15/14 10/16/15 12/17/16
f 12/17/16 10/16/15 11/8/8 13/7/7
f 20/18/17 17/19/18 19/20/19
f 16/21/20 20/22/21 19/23/22
f 26/24/23 24/25/24 17/19/18 20/18/17
f 21/26/25 26/27/26 20/22/21 16/21/20
f 14/28/27 18/29/27 25/30/28 22/31/29
f 22/31/29 25/30/28 26/27/26 21/26/25
f 18/29/30 15/32/30 23/33/31 25/34/32
f 25/34/32 23/33/31 24/25/24 26/24/23
f 33/35/33 30/36/34 32/37/35
f 29/38/36 33/39/37 32/40/38
f 39/41/39 37/42/40 30/36/34 33/35/33
f 34/43/41 39/44/42 33/39/37 29/38/36
f 27/45/43 31/46/43 38/47/44 35/48/45
f 35/48/45 38/47/44 39/44/42 34/43/41
f 31/46/46 28/49/46 36/50/47 38/51/48
f 38/51/48 36/50/47 37/42/40 39/41/39
f 46/52/49 43/53/50 45/54/51
f 42/55/52 46/56/53 45/57/54
f 52/58/55 50/59/56 43/53/50 46/52/49
f 47/60/57 52/61/58 46/56/53 42/55/52
f 40/62/59 44/63/59 51/64/60 48/65/61
f 48/65/61 51/64/60 52/61/58 47/60/57
f 44/63/62 41/66/62 49/67/63 51/68/64
f 51/68/64 49/67/63 50/59/56 52/58/55
f 59/69/65 56/70/66 58/71/67
f 55/72/68 59/73/69 58/74/70
f 65/75/71 63/76/72 56/70/66 59/69/65
f 60/77/73 65/78/74 59/73/69 55/72/68
f 53/79/75 57/80/75 64/81/76 61/82/77
f 61/82/77 64/81/76 65/78/74 60/77/73
f 57/80/78 54/83/78 62/84/79 64/85/80
f 64/85/80 62/84/79 63/76/72 65/75/71
f 72/86/81 69/87/82 71/88/83
f 68/89/84 72/90/85 71/91/86
f 78/92/87 76/93/88 69/87/82 72/86/81
f 73/94/89 78/95/90 72/90/85 68/89/84
f 66/96/91 70/97/91 77/98/92 74/99/93
f 74/99/93 77/98/92 78/95/90 73/94/89
f 70/97/94 67/100/94 75/101/95 77/102/96
f 77/102/96 75/101/95 76/93/88 78/92/87
f 85/103/97 82/104/98 84/105/99
f 81/106/100 85/107/101 84/108/102
f 91/109/103 89/110/104 82/104/98 85/103/97
f 86/111/105 91/112/106 85/107/101 81/106/100
f 79/113/107 83/114/107 90/115/108 87/116/109
f 87/116/109 90/115/108 91/112/106 86/111/105
f 83/114/110 80/117/110 88/118/111 90/119/112
f 90/119/112 88/118/111 89/110/104 91/109/103
f 98/120/113 95/121/114 97/122/115
f 94/123/116 98/124/117 97/125/118
f 104/126/119 102/127/120 95/121/114 98/120/113
f 99/128/121 104/129/122 98/124/117 94/123/116
f 92/130/123 96/131/123 103/132/124 100/133/125
f 100/133/125 103/132/124 104/129/122 99/128/121
f 96/131/126 93/134/126 101/135/127 103/136/128
f 103/136/128 101/135/127 102/127/120 104/126/119
f 111/137/129 108/138/130 110/139/131
f 107/140/132 111/141/133 110/142/134
f 117/143/135 115/144/136 108/138/130 111/137/129
f 112/145/137 117/146/138 111/141/133 107/140/132
f 105/147/139 109/148/139 116/149/140 113/150/141
f 113/150/141 116/149/140 117/146/138 112/145/137
f 109/148/142 106/151/142 114/152/143 116/153/144
f 116/153/144 114/152/143 115/144/136 117/143/135
f 124/154/145 121/155/146 123/156/147
f 120/157/148 124/158/149 123/159/150
f 130/160/151 128/161/152 121/155/146 124/154/145
f 125/162/153 130/163/154 124/158/149 120/157/148
f 118/164/155 122/165/155 129/166/156 126/167/157
f 126/167/157 129/166/156 130/163/154 125/162/153
f 122/165/158 119/168/158 127/169/159 129/170/160
f 129/170/160 127/169/159 128/161/152 130/160/151
f 137/171/161 134/172/162 136/173/163
f 133/174/164 137/175/165 136/176/166
f 143/177/167 141/178/168 134/172/162 137/171/161
f 138/179/169 143/180/170 137/175/165 133/174/164
f 131/181/171 135/182/171 142/183/172 139/184/173
f 139/184/173 142/183/172 143/180/170 138/179/169
f 135/182/174 132/185/174 140/186/175 142/187/176
f 142/187/176 140/186/175 141/178/168 143/177/167
f 150/188/177 147/189/178 149/190/179
f 146/191/180 150/192/181 149/193/182
f 156/194/183 154/195/184 147/189/178 150/188/177
f 151/196/185 156/197/186 150/192/181 146/191/180
f 144/198/187 148/199/187 155/200/188 152/201/189
f 152/201/189 155/200/188 156/197/186 151/196/185
f 148/199/190 145/202/190 153/203/191 155/204/192
f 155/204/192 153/203/191 154/195/184 156/194/183
