# Blender v3.4.1 OBJ File: 'Forest_Nature_Pack_Export.blend'
# www.blender.org
mtllib Grass_1_A_Singlesided_Color1.mtl
o Grass_1_A_Singlesided_Color1
v -0.112755 -0.020000 0.014048
v 0.112756 -0.020000 0.014048
v -0.086706 0.451375 -0.023715
v 0.086732 0.451375 -0.023715
v -0.000000 -0.020000 -0.005033
v 0.000013 0.539341 -0.082543
v 0.000013 0.448956 -0.042405
v -0.135605 0.304163 0.019371
v -0.143336 0.149673 0.044441
v 0.143363 0.149673 0.044441
v 0.135632 0.304163 0.019371
v 0.000013 0.150305 0.023211
v 0.000013 0.302759 -0.001518
vt 0.062964 0.968085
vt 0.070224 0.968330
vt 0.062964 0.977264
vt 0.055705 0.968330
vt 0.062964 0.936835
vt 0.062964 0.946014
vt 0.062964 0.953238
vt 0.074318 0.953380
vt 0.051611 0.953380
vt 0.062964 0.921988
vt 0.053522 0.919901
vt 0.062963 0.919901
vt 0.062964 0.906505
vt 0.050962 0.937690
vt 0.072402 0.919901
vt 0.074964 0.937690
vt 0.062964 0.937755
vn -0.1901 0.3240 0.9268
vn -0.1834 0.2905 0.9391
vn -0.2039 0.3973 0.8947
vn 0.1834 0.2905 0.9391
vn 0.1901 0.3240 0.9268
vn 0.2039 0.3973 0.8947
vn -0.1613 0.2003 0.9664
vn -0.1593 0.1934 0.9681
vn 0.1593 0.1934 0.9681
vn 0.1613 0.2003 0.9664
vn 0.1540 -0.1545 0.9759
vn 0.1528 0.0005 0.9883
vn 0.1527 0.0066 0.9883
vn -0.1540 -0.1545 0.9759
vn -0.1527 0.0066 0.9883
vn -0.1528 0.0005 0.9883
usemtl forest
s 1
f 7/1/1 4/2/2 6/3/3
f 3/4/4 7/5/5 6/6/6
f 13/7/7 11/8/8 4/2/2 7/1/1
f 8/9/9 13/10/10 7/5/5 3/4/4
f 1/11/11 5/12/11 12/13/12 9/14/13
f 9/14/13 12/13/12 13/10/10 8/9/9
f 5/12/14 2/15/14 10/16/15 12/17/16
f 12/17/16 10/16/15 11/8/8 13/7/7
