# Blender v3.4.1 OBJ File: 'Forest_Nature_Pack_Export.blend'
# www.blender.org
mtllib Grass_1_B_Singlesided_Color1.mtl
o Grass_1_B_Singlesided_Color1
v -0.033363 -0.037407 0.136449
v -0.134843 -0.037407 -0.039319
v -0.168606 0.363578 0.187461
v -0.246653 0.363578 0.052279
v -0.098469 -0.041852 0.056859
v -0.269665 0.426348 0.155686
v -0.221213 0.357122 0.127712
v -0.084467 0.245639 0.189700
v -0.030948 0.117175 0.166835
v -0.159963 0.117175 -0.056624
v -0.206524 0.245639 -0.021708
v -0.111566 0.112779 0.064407
v -0.160938 0.239552 0.092912
v -0.112736 -0.041564 -0.104901
v 0.112775 -0.041564 -0.104901
v -0.086687 0.403975 -0.263378
v 0.086751 0.403975 -0.263378
v 0.000019 -0.046502 -0.123332
v 0.000032 0.473719 -0.342969
v 0.000032 0.396802 -0.280805
v -0.135586 0.272931 -0.183659
v -0.143317 0.130194 -0.119458
v 0.143382 0.130194 -0.119458
v 0.135651 0.272931 -0.183659
v 0.000032 0.125310 -0.140128
v 0.000032 0.266169 -0.203472
v 0.122490 -0.033253 -0.033447
v 0.032285 -0.033253 0.122792
v 0.221867 0.323179 0.047991
v 0.152491 0.323179 0.168153
v 0.090157 -0.037204 0.052045
v 0.242321 0.378973 0.139909
v 0.199253 0.317440 0.115043
v 0.186195 0.218343 -0.017775
v 0.144808 0.104153 -0.048811
v 0.030128 0.104153 0.149820
v 0.077700 0.218343 0.170144
v 0.101789 0.100246 0.058772
v 0.145675 0.212933 0.084110
vt 0.062964 0.968085
vt 0.070224 0.968330
vt 0.062964 0.977264
vt 0.055705 0.968330
vt 0.062964 0.936835
vt 0.062964 0.946014
vt 0.062964 0.953238
vt 0.074318 0.953380
vt 0.051611 0.953380
vt 0.062964 0.921988
vt 0.053522 0.919901
vt 0.062963 0.919901
vt 0.062964 0.906505
vt 0.050962 0.937690
vt 0.072402 0.919901
vt 0.074964 0.937690
vt 0.062964 0.937755
vt 0.062964 0.968085
vt 0.070224 0.968330
vt 0.062964 0.977264
vt 0.055705 0.968330
vt 0.062964 0.936835
vt 0.062964 0.946014
vt 0.062964 0.953238
vt 0.074318 0.953380
vt 0.051611 0.953380
vt 0.062964 0.921988
vt 0.053522 0.919901
vt 0.062963 0.919901
vt 0.062964 0.906505
vt 0.050962 0.937690
vt 0.072402 0.919901
vt 0.074964 0.937690
vt 0.062964 0.937755
vt 0.062964 0.968085
vt 0.070224 0.968330
vt 0.062964 0.977264
vt 0.055705 0.968330
vt 0.062964 0.936835
vt 0.062964 0.946014
vt 0.062964 0.953238
vt 0.074318 0.953380
vt 0.051611 0.953380
vt 0.062964 0.921988
vt 0.053522 0.919901
vt 0.062963 0.919901
vt 0.062964 0.906505
vt 0.050962 0.937690
vt 0.072402 0.919901
vt 0.074964 0.937690
vt 0.062964 0.937755
vn 0.7977 0.5528 -0.2411
vn 0.8122 0.5236 -0.2571
vn 0.7614 0.6154 -0.2041
vn 0.6288 0.5236 -0.5748
vn 0.6076 0.5528 -0.5703
vn 0.5574 0.6154 -0.5573
vn 0.8442 0.4436 -0.3011
vn 0.8462 0.4373 -0.3046
vn 0.6868 0.4373 -0.5805
vn 0.6828 0.4436 -0.5805
vn 0.7740 0.1034 -0.6247
vn 0.7502 0.2563 -0.6095
vn 0.7489 0.2622 -0.6086
vn 0.9280 0.1034 -0.3580
vn 0.9015 0.2622 -0.3442
vn 0.9030 0.2563 -0.3449
vn -0.1901 0.5528 0.8113
vn -0.1834 0.5236 0.8320
vn -0.2039 0.6154 0.7614
vn 0.1834 0.5236 0.8320
vn 0.1901 0.5528 0.8113
vn 0.2039 0.6154 0.7614
vn -0.1613 0.4436 0.8816
vn -0.1593 0.4373 0.8851
vn 0.1593 0.4373 0.8851
vn 0.1613 0.4436 0.8816
vn 0.1540 0.1034 0.9826
vn 0.1528 0.2563 0.9544
vn 0.1527 0.2622 0.9529
vn -0.1540 0.1034 0.9826
vn -0.1527 0.2622 0.9529
vn -0.1528 0.2563 0.9544
vn -0.6076 0.5528 -0.5703
vn -0.6288 0.5236 -0.5748
vn -0.5574 0.6154 -0.5573
vn -0.8122 0.5236 -0.2571
vn -0.7977 0.5528 -0.2411
vn -0.7614 0.6154 -0.2041
vn -0.6828 0.4436 -0.5805
vn -0.6868 0.4373 -0.5805
vn -0.8462 0.4373 -0.3046
vn -0.8442 0.4436 -0.3011
vn -0.9280 0.1034 -0.3580
vn -0.9030 0.2563 -0.3449
vn -0.9015 0.2622 -0.3442
vn -0.7740 0.1034 -0.6247
vn -0.7489 0.2622 -0.6086
vn -0.7502 0.2563 -0.6095
usemtl forest
s 1
f 7/1/1 4/2/2 6/3/3
f 3/4/4 7/5/5 6/6/6
f 13/7/7 11/8/8 4/2/2 7/1/1
f 8/9/9 13/10/10 7/5/5 3/4/4
f 1/11/11 5/12/11 12/13/12 9/14/13
f 9/14/13 12/13/12 13/10/10 8/9/9
f 5/12/14 2/15/14 10/16/15 12/17/16
f 12/17/16 10/16/15 11/8/8 13/7/7
f 20/18/17 17/19/18 19/20/19
f 16/21/20 20/22/21 19/23/22
f 26/24/23 24/25/24 17/19/18 20/18/17
f 21/26/25 26/27/26 20/22/21 16/21/20
f 14/28/27 18/29/27 25/30/28 22/31/29
f 22/31/29 25/30/28 26/27/26 21/26/25
f 18/29/30 15/32/30 23/33/31 25/34/32
f 25/34/32 23/33/31 24/25/24 26/24/23
f 33/35/33 30/36/34 32/37/35
f 29/38/36 33/39/37 32/40/38
f 39/41/39 37/42/40 30/36/34 33/35/33
f 34/43/41 39/44/42 33/39/37 29/38/36
f 27/45/43 31/46/43 38/47/44 35/48/45
f 35/48/45 38/47/44 39/44/42 34/43/41
f 31/46/46 28/49/46 36/50/47 38/51/48
f 38/51/48 36/50/47 37/42/40 39/41/39
