# Blender v3.4.1 OBJ File: 'Forest_Nature_Pack_Export.blend'
# www.blender.org
mtllib Grass_2_SingleSided_Mesh.mtl
o Grass_2_SingleSided_Mesh
v -0.056864 -0.031076 0.066449
v 0.056864 -0.031076 0.066449
v -0.047395 0.672371 -0.049603
v 0.047406 0.672370 -0.049603
v -0.000000 -0.031267 0.042791
v 0.000006 0.887490 -0.160892
v 0.000006 0.667531 -0.072581
v -0.072799 0.440003 0.014668
v -0.077506 0.205654 0.053261
v 0.077519 0.205654 0.053261
v 0.072811 0.440001 0.014668
v 0.000006 0.205406 0.029870
v 0.000006 0.439265 -0.008740
vt 0.500000 0.760597
vt 0.805757 0.765858
vt 0.500000 1.000000
vt 0.194243 0.765858
vt 0.500000 0.512137
vt 0.969611 0.512943
vt 0.030389 0.512943
vt 0.133198 0.000208
vt 0.499947 0.000000
vt 0.500000 0.257598
vt 0.000000 0.257876
vt 0.866749 0.000208
vt 1.000000 0.257865
vn -0.4014 0.2857 0.8702
vn -0.3946 0.2768 0.8762
vn -0.4385 0.3349 0.8340
vn 0.3946 0.2768 0.8762
vn 0.4014 0.2857 0.8702
vn 0.4385 0.3349 0.8340
vn -0.3288 0.1938 0.9243
vn -0.3251 0.1893 0.9265
vn 0.3251 0.1893 0.9265
vn 0.3288 0.1938 0.9243
vn 0.3299 0.0663 0.9417
vn 0.3123 0.1103 0.9435
vn 0.3126 0.1097 0.9435
vn -0.3299 0.0663 0.9417
vn -0.3126 0.1097 0.9435
vn -0.3123 0.1104 0.9435
usemtl None
s 1
f 7/1/1 4/2/2 6/3/3
f 3/4/4 7/1/5 6/3/6
f 13/5/7 11/6/8 4/2/2 7/1/1
f 8/7/9 13/5/10 7/1/5 3/4/4
f 1/8/11 5/9/11 12/10/12 9/11/13
f 9/11/13 12/10/12 13/5/10 8/7/9
f 5/9/14 2/12/14 10/13/15 12/10/16
f 12/10/16 10/13/15 11/6/8 13/5/7
