# Blender v3.4.1 OBJ File: 'Forest_Nature_Pack_Export.blend'
# www.blender.org
mtllib Rock_1_D_Color1.mtl
o Rock_1_D_Color1
v 0.025991 0.000000 -0.036239
v -0.386794 0.538756 -0.384933
v 0.131709 0.538756 -0.624749
v 0.383616 0.538756 -0.172527
v -0.380886 0.538756 0.179887
v -0.045221 0.538756 0.366927
v 0.211179 0.538756 0.241686
v -0.258689 0.885039 -0.303980
v 0.077987 0.885039 -0.459698
v 0.383616 0.885039 -0.172527
v -0.254414 0.885039 0.104687
v 0.211179 0.885039 0.241686
v -0.045221 0.885039 0.366927
v -0.258689 1.104973 -0.303980
v 0.022403 1.129973 -0.043992
v 0.077987 1.104973 -0.459698
v 0.383616 1.104973 -0.172527
v -0.254414 1.104973 0.104687
v 0.211179 1.104973 0.241686
v -0.045221 1.104973 0.366927
v 0.510871 0.538756 -0.196609
v 0.540267 0.513756 -0.202172
v 0.295390 0.538756 0.321000
v 0.314843 0.513756 0.339321
v -0.079349 0.513756 0.531868
v -0.072945 0.538756 0.500916
v -0.386794 0.860039 -0.384933
v -0.361627 0.885039 -0.369029
v 0.131709 0.860039 -0.624749
v 0.121155 0.885039 -0.592323
v -0.356039 0.885039 0.165113
v -0.380886 0.860039 0.179887
v -0.386794 0.000000 -0.384933
v 0.131709 0.000000 -0.624749
v 0.540267 0.000000 -0.202172
v -0.380886 0.000000 0.179887
v 0.314843 0.000000 0.339321
v -0.079349 0.000000 0.531868
v -0.233521 1.129973 -0.288076
v 0.073166 1.129973 -0.429924
v 0.353885 1.129973 -0.166158
v -0.229505 1.129973 0.095822
v 0.191726 1.129973 0.223365
v -0.038180 1.129973 0.335665
vt 0.066984 0.322592
vt 0.074694 0.322592
vt 0.074694 0.339254
vt 0.066984 0.339254
vt 0.066984 0.359487
vt 0.056892 0.359487
vt 0.066151 0.359487
vt 0.084590 0.296669
vt 0.072305 0.296669
vt 0.072305 0.322592
vt 0.084590 0.321389
vt 0.074694 0.359487
vt 0.077226 0.359487
vt 0.056892 0.296669
vt 0.065959 0.296669
vt 0.065959 0.321389
vt 0.056892 0.322592
vt 0.056714 0.296669
vt 0.056714 0.322592
vt 0.077810 0.296669
vt 0.077810 0.321389
vt 0.072305 0.359487
vt 0.079879 0.359487
vt 0.083705 0.359487
vt 0.060567 0.376149
vt 0.070690 0.376149
vt 0.071987 0.376149
vt 0.057470 0.376149
vt 0.074694 0.349837
vt 0.066984 0.349837
vt 0.079879 0.322592
vt 0.072305 0.338051
vt 0.079879 0.339254
vt 0.060695 0.376149
vt 0.057639 0.376149
vt 0.066984 0.376149
vt 0.079879 0.376149
vt 0.056714 0.338051
vt 0.056892 0.338051
vt 0.060567 0.339254
vt 0.060695 0.339254
vt 0.060695 0.349837
vt 0.060567 0.349837
vt 0.079879 0.349837
vt 0.070690 0.339254
vt 0.070690 0.349837
vt 0.061323 0.351039
vt 0.070544 0.351039
vt 0.078984 0.351039
vt 0.061443 0.351039
vt 0.074109 0.351039
vt 0.067195 0.351039
vt 0.083705 0.322592
vt 0.066151 0.322592
vt 0.071987 0.339254
vt 0.057639 0.339254
vt 0.077226 0.322592
vt 0.057470 0.339254
vt 0.069126 0.296669
vt 0.069017 0.387935
vt 0.070544 0.387935
vt 0.061323 0.387935
vt 0.078984 0.387935
vt 0.061443 0.387935
vt 0.074109 0.387935
vt 0.067195 0.387935
vn 0.4389 0.0000 0.8985
vn 0.0000 1.0000 0.0000
vn 0.7189 0.0000 -0.6951
vn -0.9361 0.0000 0.3517
vn -0.7594 0.0000 0.6506
vn -0.9729 0.0000 0.2311
vn -0.9999 0.0000 0.0105
vn -0.4198 0.0000 -0.9076
vn 0.9232 0.0000 0.3843
vn 0.8736 0.0000 -0.4866
vn -0.4868 0.0000 0.8735
vn -0.9421 -0.0000 0.3353
vn -0.7817 -0.0000 0.6236
vn 0.6848 0.0000 -0.7288
vn -0.2968 0.7071 -0.6418
vn 0.4842 0.7071 -0.5153
vn -0.6473 0.7266 0.2304
vn -0.7071 0.7071 0.0074
vn 0.6528 0.7071 0.2718
vn 0.4973 0.7302 0.4684
vn 0.3103 0.7071 0.6354
vn -0.5528 0.7071 0.4410
vn 0.5221 0.7167 -0.4623
vn -0.4997 0.7215 0.4793
vn 0.5861 0.7227 -0.3664
vn -0.5772 0.7560 0.3087
vn -0.5784 0.7560 0.3065
vn -0.3780 0.7198 0.5822
vn 0.0000 -1.0000 0.0000
usemtl forest
s 1
f 6/1/1 7/2/1 12/3/1 13/4/1
f 6/5/2 5/6/2 26/7/2
f 35/8/3 34/9/3 3/10/3 22/11/3
f 7/12/2 6/5/2 26/7/2 23/13/2
f 36/14/4 38/15/5 25/16/5 5/17/6
f 33/18/7 36/14/4 5/17/6 2/19/7
f 34/9/8 33/18/8 2/19/8 3/10/8
f 37/20/9 35/8/9 22/11/9 24/21/9
f 3/22/2 4/23/2 21/24/2
f 38/15/1 37/20/1 24/21/1 25/16/1
f 8/25/2 9/26/2 30/27/2 28/28/2
f 13/4/1 12/3/1 19/29/1 20/30/1
f 4/31/10 3/10/10 29/32/10 10/33/10
f 11/34/2 8/25/2 28/28/2 31/35/2
f 13/36/2 11/34/2 31/35/2
f 7/2/9 4/31/9 10/33/9 12/3/9
f 9/26/2 10/37/2 30/27/2
f 3/10/8 2/19/8 27/38/8 29/32/8
f 5/17/11 6/1/11 13/4/11 32/39/11
f 2/19/7 5/17/6 32/39/7 27/38/7
f 8/40/7 11/41/12 18/42/12 14/43/7
f 11/41/12 13/4/13 20/30/13 18/42/12
f 12/3/9 10/33/9 17/44/9 19/29/9
f 10/33/14 9/45/14 16/46/14 17/44/14
f 39/47/15 40/48/15 16/46/15 14/43/15
f 40/48/16 41/49/16 17/44/16 16/46/16
f 42/50/17 39/47/18 14/43/18 18/42/17
f 41/49/19 43/51/20 19/29/20 17/44/19
f 43/51/20 44/52/21 20/30/21 19/29/20
f 44/52/22 42/50/17 18/42/17 20/30/22
f 9/45/8 8/40/8 14/43/8 16/46/8
f 21/53/23 22/11/23 3/10/23
f 25/16/24 26/54/24 5/17/24
f 29/32/25 30/55/25 10/33/25
f 31/56/26 32/39/27 13/4/28
f 21/53/19 23/57/20 24/21/20 22/11/19
f 23/57/20 26/54/21 25/16/21 24/21/20
f 28/58/15 30/55/15 29/32/15 27/38/15
f 31/56/26 28/58/18 27/38/18 32/39/27
f 4/23/2 7/12/2 23/13/2 21/24/2
f 1/59/29 33/18/29 34/9/29
f 1/59/29 34/9/29 35/8/29
f 1/59/29 36/14/29 33/18/29
f 1/59/29 35/8/29 37/20/29
f 1/59/29 37/20/29 38/15/29
f 1/59/29 38/15/29 36/14/29
f 15/60/2 40/61/2 39/62/2
f 15/60/2 41/63/2 40/61/2
f 15/60/2 39/62/2 42/64/2
f 15/60/2 43/65/2 41/63/2
f 15/60/2 44/66/2 43/65/2
f 15/60/2 42/64/2 44/66/2
