# Blender v3.4.1 OBJ File: 'Forest_Nature_Pack_Export.blend'
# www.blender.org
mtllib Rock_1_O_Color1.mtl
o Rock_1_O_Color1
v 0.437014 1.218872 -1.055044
v 1.055044 1.218872 -0.437014
v 1.055044 1.218872 0.437014
v 0.437014 1.218872 1.055044
v -0.326989 1.218872 0.789421
v -0.789421 1.218872 0.326989
v -0.789421 1.218872 -0.326989
v -0.437014 1.218872 -1.055044
v 0.817228 1.977428 -0.338507
v 0.338507 1.977428 -0.817228
v 0.817228 1.977428 0.338507
v 0.437014 1.977428 1.055044
v -0.326989 1.977428 0.789421
v -0.789421 1.977428 0.326989
v -0.789421 1.977428 -0.326989
v -0.437014 1.977428 -1.055044
v 0.010716 2.572656 -0.004439
v 0.817228 2.503786 -0.338507
v 0.338507 2.503786 -0.817228
v 0.817228 2.503786 0.338507
v 0.437014 2.503786 1.055044
v -0.326989 2.503786 0.789421
v -0.789421 2.503786 0.326989
v -0.789421 2.503786 -0.326989
v -0.437014 2.503786 -1.055044
v -0.408487 1.218872 0.986174
v -0.437014 1.150002 1.055044
v -0.986174 1.218872 0.408487
v -1.055044 1.150002 0.437014
v -1.055044 1.150002 -0.437014
v -0.986174 1.218872 -0.408487
v 0.986174 1.977428 -0.408487
v 1.055044 1.908558 -0.437014
v 0.408487 1.977428 -0.986174
v 0.437014 1.908558 -1.055044
v 1.055044 1.908558 0.437014
v 0.986174 1.977428 0.408487
v 1.055044 0.000000 -0.437014
v 0.437014 0.000000 -1.055044
v 1.055044 0.000000 0.437014
v 0.437014 0.000000 1.055044
v -0.437014 0.000000 1.055044
v -1.055044 0.000000 0.437014
v -1.055044 0.000000 -0.437014
v -0.437014 0.000000 -1.055044
v 0.301928 2.572656 -0.756409
v 0.748358 2.572656 -0.309980
v 0.748358 2.572656 0.321367
v 0.403856 2.572656 0.970602
v -0.289457 2.572656 0.729556
v -0.720551 2.572656 0.298462
v -0.720551 2.572656 -0.311198
v -0.400750 2.572656 -0.971888
v 0.000000 3.266455 -0.688704
v 0.596435 3.266455 -0.344352
v 0.596435 3.266455 0.344352
v -0.000000 3.266455 0.476808
v -0.412928 3.266455 0.238404
v -0.412928 3.266455 -0.238404
v 0.034144 3.743428 -0.466598
v 0.421158 3.743428 -0.243155
v 0.421158 3.743428 0.203730
v -0.000000 3.743428 0.476808
v -0.412928 3.743428 0.238404
v -0.412928 3.743428 -0.238404
v 0.034144 4.046367 -0.466598
v 0.006592 4.080802 -0.003806
v 0.421158 4.046367 -0.243155
v 0.421158 4.046367 0.203730
v -0.000000 4.046367 0.476808
v -0.412928 4.046367 0.238404
v -0.412928 4.046367 -0.238404
v -0.000000 3.266455 0.648942
v -0.000000 3.232020 0.688704
v -0.562000 3.266455 0.324471
v -0.596435 3.232020 0.344352
v -0.596435 3.232020 -0.344352
v -0.562000 3.266455 -0.324471
v 0.006708 3.743428 -0.645069
v 0.000000 3.708993 -0.688704
v 0.562000 3.743428 -0.324471
v 0.596435 3.708993 -0.344352
v 0.596435 3.708993 0.344352
v 0.562000 3.743428 0.316725
v 0.000000 2.524369 -0.688704
v 0.596435 2.524369 -0.344352
v 0.596435 2.524369 0.344352
v -0.000000 2.524369 0.688704
v -0.596435 2.524369 0.344352
v -0.596435 2.524369 -0.344352
v 0.033132 4.080802 -0.427420
v 0.386723 4.080802 -0.223274
v 0.386722 4.080802 0.185017
v -0.001043 4.080802 0.436444
v -0.378492 4.080802 0.218523
v -0.378493 4.080802 -0.217319
v 0.000000 4.317508 -0.340314
v 0.323658 4.317508 -0.105163
v 0.200032 4.317508 0.275320
v -0.126894 4.317508 0.174654
v -0.205318 4.317508 -0.066712
v 0.000000 4.550052 -0.340314
v 0.043818 4.576678 -0.014237
v 0.323658 4.550052 -0.105163
v 0.200032 4.550052 0.275320
v -0.126894 4.550052 0.174654
v -0.205318 4.550052 -0.066712
v -0.180686 4.317508 0.248693
v -0.200032 4.290882 0.275320
v -0.323658 4.290882 -0.105163
v -0.292357 4.317508 -0.094992
v 0.005560 4.576678 -0.303362
v 0.292357 4.576678 -0.094992
v 0.182810 4.576678 0.242157
v -0.105843 4.576678 0.153276
v -0.175722 4.576678 -0.061790
v 0.000000 4.001263 -0.340314
v 0.323658 4.001263 -0.105163
v 0.200032 4.001263 0.275320
v -0.200032 4.001263 0.275320
v -0.323658 4.001263 -0.105163
vt 0.071667 0.396019
vt 0.066652 0.396019
vt 0.073896 0.396019
vt 0.050473 0.379216
vt 0.055122 0.379216
vt 0.047878 0.379216
vt 0.055122 0.297099
vt 0.066652 0.297099
vt 0.066652 0.324100
vt 0.055122 0.322574
vt 0.074805 0.297099
vt 0.074805 0.324100
vt 0.074805 0.297099
vt 0.066652 0.297099
vt 0.066652 0.324100
vt 0.074805 0.324100
vt 0.055122 0.297099
vt 0.055122 0.324100
vt 0.046969 0.297099
vt 0.046969 0.322574
vt 0.050473 0.379216
vt 0.047878 0.379216
vt 0.046969 0.297099
vt 0.046969 0.322574
vt 0.066652 0.379216
vt 0.056574 0.379216
vt 0.055498 0.379216
vt 0.065353 0.396019
vt 0.071667 0.396019
vt 0.073896 0.396019
vt 0.066276 0.396019
vt 0.050473 0.340903
vt 0.056574 0.340903
vt 0.056574 0.352562
vt 0.050473 0.352562
vt 0.055122 0.396019
vt 0.050473 0.324100
vt 0.050473 0.324100
vt 0.050473 0.340903
vt 0.056574 0.324100
vt 0.066652 0.340903
vt 0.066652 0.339377
vt 0.074805 0.339377
vt 0.055122 0.340903
vt 0.074805 0.339377
vt 0.071667 0.340903
vt 0.071667 0.340903
vt 0.071667 0.352562
vt 0.071667 0.352562
vt 0.065353 0.340903
vt 0.055122 0.352562
vt 0.065353 0.352562
vt 0.050473 0.352562
vt 0.066652 0.352562
vt 0.064870 0.354088
vt 0.070759 0.354088
vt 0.070759 0.354088
vt 0.066215 0.354088
vt 0.057069 0.354088
vt 0.051381 0.354088
vt 0.051381 0.354088
vt 0.055600 0.354088
vt 0.055498 0.324100
vt 0.047878 0.324100
vt 0.066276 0.340903
vt 0.073896 0.340903
vt 0.047878 0.324100
vt 0.073896 0.340903
vt 0.061029 0.409205
vt 0.070759 0.409205
vt 0.064870 0.409205
vt 0.070759 0.409205
vt 0.066215 0.409205
vt 0.057069 0.409205
vt 0.051381 0.409205
vt 0.051381 0.409205
vt 0.055600 0.409205
vt 0.055440 0.369457
vt 0.060887 0.369457
vt 0.060887 0.380022
vt 0.055440 0.380022
vt 0.055440 0.424573
vt 0.060887 0.424573
vt 0.053473 0.424573
vt 0.060887 0.353018
vt 0.068755 0.353018
vt 0.068755 0.369457
vt 0.060887 0.368694
vt 0.068755 0.353018
vt 0.068755 0.369457
vt 0.060887 0.353018
vt 0.053019 0.353018
vt 0.053019 0.368694
vt 0.060887 0.369457
vt 0.055440 0.424573
vt 0.053473 0.424573
vt 0.053019 0.353018
vt 0.053019 0.368694
vt 0.068755 0.424573
vt 0.060887 0.424573
vt 0.060887 0.424573
vt 0.061337 0.435139
vt 0.066442 0.435139
vt 0.068301 0.435139
vt 0.060976 0.435139
vt 0.055440 0.380022
vt 0.055440 0.386733
vt 0.055440 0.386733
vt 0.068755 0.379260
vt 0.055440 0.369457
vt 0.066442 0.435139
vt 0.060887 0.435139
vt 0.068301 0.435139
vt 0.060887 0.379260
vt 0.055440 0.435139
vt 0.068755 0.379260
vt 0.061337 0.380022
vt 0.061337 0.386733
vt 0.066442 0.380022
vt 0.066442 0.386733
vt 0.060887 0.386733
vt 0.066442 0.380022
vt 0.066442 0.386733
vt 0.061324 0.387496
vt 0.065989 0.387496
vt 0.065989 0.387496
vt 0.060873 0.387496
vt 0.055894 0.387496
vt 0.055894 0.387496
vt 0.060887 0.369457
vt 0.053473 0.369457
vt 0.060976 0.380022
vt 0.068301 0.380022
vt 0.053473 0.369457
vt 0.068301 0.380022
vt 0.060974 0.442612
vt 0.065989 0.442612
vt 0.061324 0.442612
vt 0.065989 0.442612
vt 0.060873 0.442612
vt 0.055894 0.442612
vt 0.055894 0.442612
vt 0.058178 0.447856
vt 0.060887 0.447856
vt 0.057030 0.447856
vt 0.060887 0.385734
vt 0.056617 0.385734
vt 0.056617 0.392149
vt 0.060887 0.392739
vt 0.065157 0.385734
vt 0.065157 0.392739
vt 0.058249 0.385734
vt 0.063526 0.385734
vt 0.063526 0.392739
vt 0.058249 0.392149
vt 0.063526 0.447856
vt 0.059213 0.447856
vt 0.058503 0.447856
vt 0.058178 0.392739
vt 0.058178 0.397890
vt 0.060887 0.397890
vt 0.059213 0.392739
vt 0.063526 0.397890
vt 0.059213 0.397890
vt 0.065157 0.397890
vt 0.060960 0.398480
vt 0.064744 0.398480
vt 0.063298 0.398480
vt 0.059491 0.398480
vt 0.058569 0.398480
vt 0.058503 0.392739
vt 0.057030 0.392739
vt 0.061465 0.453597
vt 0.064744 0.453597
vt 0.060960 0.453597
vt 0.063298 0.453597
vt 0.059491 0.453597
vt 0.058569 0.453597
vn 0.0000 1.0000 -0.0000
vn -0.0000 0.0000 1.0000
vn 0.7071 0.0000 0.7071
vn 0.7071 0.0000 -0.7071
vn 0.0000 0.0000 -1.0000
vn -0.7071 0.0000 -0.7071
vn 1.0000 0.0000 0.0000
vn -0.7071 0.0000 0.7071
vn -1.0000 0.0000 0.0000
vn -0.5312 0.0000 0.8473
vn -0.9747 0.0000 -0.2235
vn -0.3284 0.0000 0.9445
vn -0.9001 0.0000 -0.4357
vn 0.9704 -0.0000 0.2415
vn 0.5154 -0.0000 -0.8569
vn 0.2932 -0.0000 -0.9561
vn 0.8833 -0.0000 0.4687
vn 0.6269 0.7345 -0.2597
vn 0.3589 0.7177 -0.5968
vn 0.6758 0.7177 0.1682
vn 0.6246 0.7071 0.3314
vn -0.3708 0.7161 0.5914
vn -0.2322 0.7071 0.6679
vn -0.6269 0.7345 0.2597
vn -0.6803 0.7161 -0.1560
vn -0.6365 0.7071 -0.3081
vn 0.2073 0.7071 -0.6760
vn -0.2904 0.7341 0.6138
vn -0.2918 0.7341 0.6132
vn -0.0565 0.7176 0.6942
vn -0.6399 0.7341 -0.2273
vn -0.6394 0.7341 -0.2287
vn -0.5308 0.7176 -0.4509
vn 0.2904 0.7341 -0.6138
vn 0.2918 0.7341 -0.6132
vn 0.0565 0.7176 -0.6942
vn 0.6399 0.7341 0.2273
vn 0.6394 0.7341 0.2287
vn 0.5308 0.7176 0.4509
vn -0.5000 0.0000 0.8660
vn 0.5000 0.0000 0.8660
vn -0.5000 0.0000 -0.8660
vn 0.5000 0.0000 -0.8660
vn 0.2168 -0.0000 0.9762
vn -0.7370 0.0000 -0.6759
vn -0.4546 0.0000 -0.8907
vn 0.5440 0.0000 0.8391
vn 0.0170 0.7512 -0.6598
vn 0.3536 0.7071 -0.6124
vn 0.7071 0.7071 -0.0000
vn 0.5800 0.7512 0.3152
vn 0.3847 0.7071 0.5933
vn -0.3536 0.7071 0.6124
vn -0.7071 0.7071 -0.0000
vn -0.3215 0.7071 -0.6298
vn -0.0227 0.7557 0.6545
vn -0.0247 0.7557 0.6545
vn 0.3171 0.7169 0.6209
vn -0.5791 0.7557 -0.3058
vn -0.5782 0.7557 -0.3076
vn -0.3792 0.7169 -0.5850
vn -0.4810 0.7227 -0.4964
vn 0.1893 0.7227 0.6647
vn -0.5878 0.0000 -0.8090
vn 0.5878 0.0000 -0.8090
vn 0.9511 0.0000 0.3090
vn -0.9511 0.0000 0.3090
vn -0.7998 0.0000 -0.6002
vn -0.2943 0.0000 0.9557
vn 0.4156 0.7071 -0.5721
vn 0.6725 0.7071 0.2185
vn -0.2081 0.7071 0.6758
vn -0.4657 0.7479 0.4730
vn -0.6548 0.7479 -0.1089
vn -0.5656 0.7071 -0.4244
vn -0.0482 0.7235 0.6886
vn -0.4437 0.7236 -0.5288
vn -0.6725 0.7071 0.2185
vn 0.0000 -1.0000 0.0000
usemtl forest
s 1
f 11/1/1 12/2/1 37/3/1
f 7/4/1 8/5/1 31/6/1
f 42/7/2 41/8/2 4/9/2 27/10/2
f 41/8/3 40/11/3 3/12/3 4/9/3
f 38/13/4 39/14/4 1/15/4 2/16/4
f 39/14/5 45/17/5 8/18/5 1/15/5
f 45/17/6 44/19/6 30/20/6 8/18/6
f 6/21/1 7/4/1 31/6/1 28/22/1
f 40/11/7 38/13/7 2/16/7 3/12/7
f 43/23/8 42/7/8 27/10/8 29/24/8
f 4/25/1 5/26/1 26/27/1
f 44/19/9 43/23/9 29/24/9 30/20/9
f 10/28/1 9/29/1 32/30/1 34/31/1
f 14/32/8 13/33/10 22/34/10 23/35/8
f 9/29/1 11/1/1 37/3/1 32/30/1
f 16/36/1 10/28/1 34/31/1
f 7/37/11 6/38/9 14/32/9 15/39/11
f 5/40/10 4/9/12 12/41/12 13/33/10
f 2/16/4 1/15/4 35/42/4 33/43/4
f 8/18/13 7/37/11 15/39/11 16/44/13
f 6/38/8 5/40/10 13/33/10 14/32/8
f 3/12/7 2/16/7 33/43/7 36/45/7
f 1/15/5 8/18/5 16/44/5 35/42/5
f 4/9/3 3/12/3 36/45/3 12/41/3
f 11/46/14 9/47/7 18/48/7 20/49/14
f 10/50/15 16/44/16 25/51/16 19/52/15
f 15/39/11 14/32/9 23/35/9 24/53/11
f 13/33/10 12/41/12 21/54/12 22/34/10
f 12/41/17 11/46/14 20/49/14 21/54/17
f 16/44/13 15/39/11 24/53/11 25/51/13
f 18/48/18 19/52/19 46/55/19 47/56/18
f 20/49/20 18/48/18 47/56/18 48/57/20
f 21/54/21 20/49/20 48/57/20 49/58/21
f 22/34/22 21/54/23 49/58/23 50/59/22
f 23/35/24 22/34/22 50/59/22 51/60/24
f 24/53/25 23/35/24 51/60/24 52/61/25
f 25/51/26 24/53/25 52/61/25 53/62/26
f 19/52/19 25/51/27 53/62/27 46/55/19
f 9/47/4 10/50/15 19/52/15 18/48/4
f 26/63/28 27/10/29 4/9/30
f 30/20/31 31/64/32 8/18/33
f 34/65/34 35/42/35 16/44/36
f 36/45/37 37/66/38 12/41/39
f 29/24/24 27/10/29 26/63/28 28/67/24
f 30/20/31 29/24/24 28/67/24 31/64/32
f 33/43/18 35/42/35 34/65/34 32/68/18
f 36/45/37 33/43/18 32/68/18 37/66/38
f 5/26/1 6/21/1 28/22/1 26/27/1
f 17/69/1 47/70/1 46/71/1
f 17/69/1 48/72/1 47/70/1
f 17/69/1 49/73/1 48/72/1
f 17/69/1 50/74/1 49/73/1
f 17/69/1 51/75/1 50/74/1
f 17/69/1 52/76/1 51/75/1
f 17/69/1 53/77/1 52/76/1
f 17/69/1 46/71/1 53/77/1
f 58/78/40 57/79/40 63/80/40 64/81/40
f 59/82/1 54/83/1 78/84/1
f 88/85/41 87/86/41 56/87/41 74/88/41
f 87/86/7 86/89/7 55/90/7 56/87/7
f 85/91/42 90/92/42 77/93/42 54/94/42
f 58/95/1 59/82/1 78/84/1 75/96/1
f 86/89/43 85/91/43 54/94/43 55/90/43
f 89/97/40 88/85/40 74/88/40 76/98/40
f 56/99/1 57/100/1 73/101/1
f 90/92/9 89/97/9 76/98/9 77/93/9
f 60/102/1 61/103/1 81/104/1 79/105/1
f 65/106/9 64/81/9 71/107/9 72/108/9
f 57/79/44 56/87/44 83/109/44 63/80/44
f 59/110/9 58/78/9 64/81/9 65/106/9
f 62/111/1 63/112/1 84/113/1
f 54/94/45 59/110/45 65/106/45 80/114/45
f 61/103/1 62/111/1 84/113/1 81/104/1
f 65/115/1 60/102/1 79/105/1
f 56/87/7 55/90/7 82/116/7 83/109/7
f 55/90/43 54/94/43 80/114/43 82/116/43
f 60/117/46 65/106/46 72/108/46 66/118/46
f 63/80/47 62/119/47 69/120/47 70/121/47
f 64/81/40 63/80/40 70/121/40 71/107/40
f 62/119/7 61/122/7 68/123/7 69/120/7
f 91/124/48 92/125/49 68/123/49 66/118/48
f 92/125/50 93/126/51 69/120/51 68/123/50
f 93/126/51 94/127/52 70/121/52 69/120/51
f 94/127/53 95/128/53 71/107/53 70/121/53
f 95/128/54 96/129/54 72/108/54 71/107/54
f 96/129/55 91/124/48 66/118/48 72/108/55
f 61/122/43 60/117/43 66/118/43 68/123/43
f 73/130/56 74/88/57 56/87/58
f 77/93/59 78/131/60 54/94/61
f 79/132/62 80/114/62 65/106/62
f 83/109/63 84/133/63 63/80/63
f 73/130/56 75/134/53 76/98/53 74/88/57
f 75/134/54 78/131/60 77/93/59 76/98/54
f 79/132/49 81/135/49 82/116/49 80/114/49
f 81/135/50 84/133/50 83/109/50 82/116/50
f 57/100/1 58/95/1 75/96/1 73/101/1
f 67/136/1 92/137/1 91/138/1
f 67/136/1 93/139/1 92/137/1
f 67/136/1 94/140/1 93/139/1
f 67/136/1 95/141/1 94/140/1
f 67/136/1 96/142/1 95/141/1
f 67/136/1 91/138/1 96/142/1
f 101/143/1 97/144/1 111/145/1
f 117/146/64 121/147/64 110/148/64 97/149/64
f 118/150/65 117/146/65 97/149/65 98/151/65
f 120/152/2 119/153/2 99/154/2 109/155/2
f 119/153/66 118/150/66 98/151/66 99/154/66
f 121/147/67 120/152/67 109/155/67 110/148/67
f 99/156/1 100/157/1 108/158/1
f 97/149/68 101/159/68 107/160/68 102/161/68
f 100/162/69 99/154/69 105/163/69 106/164/69
f 99/154/66 98/151/66 104/165/66 105/163/66
f 101/159/67 100/162/67 106/164/67 107/160/67
f 112/166/70 113/167/70 104/165/70 102/161/70
f 113/167/71 114/168/71 105/163/71 104/165/71
f 114/168/72 115/169/73 106/164/73 105/163/72
f 115/169/73 116/170/74 107/160/74 106/164/73
f 116/170/74 112/166/75 102/161/75 107/160/74
f 98/151/65 97/149/65 102/161/65 104/165/65
f 108/171/76 109/155/76 99/154/76
f 110/148/77 111/172/77 97/149/77
f 108/171/78 111/172/78 110/148/78 109/155/78
f 100/157/1 101/143/1 111/145/1 108/158/1
f 103/173/1 113/174/1 112/175/1
f 103/173/1 114/176/1 113/174/1
f 103/173/1 115/177/1 114/176/1
f 103/173/1 116/178/1 115/177/1
f 103/173/1 112/175/1 116/178/1
f 38/13/79 40/11/79 41/8/79 42/7/79 43/23/79 44/19/79 45/17/79 39/14/79
