# Blender v3.4.1 OBJ File: 'Forest_Nature_Pack_Export.blend'
# www.blender.org
mtllib Rock_1_C_Color1.mtl
o Rock_1_C_Color1
v 0.025864 0.000000 -0.017621
v -0.225352 0.296928 0.053814
v -0.144482 0.296928 -0.338868
v 0.258503 0.296928 -0.236246
v 0.192496 0.296928 0.102439
v -0.030687 0.296928 0.158974
v -0.225352 0.515268 0.053814
v 0.010267 0.540268 -0.062141
v -0.144482 0.515268 -0.338868
v 0.258503 0.515268 -0.236246
v 0.192496 0.515268 0.102439
v -0.030687 0.515268 0.158974
v 0.266771 0.296928 0.155336
v 0.293482 0.271928 0.174360
v -0.069141 0.271928 0.266218
v -0.058970 0.296928 0.237852
v -0.225352 0.000000 0.053814
v -0.144482 0.000000 -0.338868
v 0.258503 0.000000 -0.236246
v 0.293482 0.000000 0.174360
v -0.069141 0.000000 0.266218
v -0.197117 0.540268 0.040653
v -0.125277 0.540268 -0.308179
v 0.229447 0.540268 -0.217848
v 0.170990 0.540268 0.082097
v -0.027379 0.540268 0.132347
vt 0.077167 0.293926
vt 0.076116 0.293926
vt 0.076116 0.308213
vt 0.077167 0.307010
vt 0.064000 0.293926
vt 0.064000 0.308213
vt 0.067421 0.345108
vt 0.061569 0.345108
vt 0.066571 0.345108
vt 0.061569 0.293926
vt 0.066264 0.293926
vt 0.066264 0.307010
vt 0.061569 0.308213
vt 0.076116 0.345108
vt 0.074132 0.345108
vt 0.076365 0.345108
vt 0.067421 0.308213
vt 0.067421 0.318719
vt 0.061569 0.318719
vt 0.074132 0.308213
vt 0.076116 0.318719
vt 0.074132 0.318719
vt 0.064000 0.318719
vt 0.062416 0.319921
vt 0.064576 0.319921
vt 0.075243 0.319921
vt 0.073485 0.319921
vt 0.067520 0.319921
vt 0.076365 0.308213
vt 0.066571 0.308213
vt 0.069123 0.293926
vt 0.068652 0.356816
vt 0.064576 0.356816
vt 0.062416 0.356816
vt 0.075243 0.356816
vt 0.073485 0.356816
vt 0.067520 0.356816
vn 0.9964 0.0000 -0.0849
vn 0.2468 0.0000 -0.9691
vn 0.0000 1.0000 0.0000
vn -0.8056 0.0000 0.5925
vn -0.9794 0.0000 -0.2017
vn 0.2456 0.0000 0.9694
vn -0.4753 0.0000 0.8798
vn 0.9815 0.0000 0.1913
vn -0.6926 0.7071 -0.1426
vn 0.1745 0.7071 -0.6852
vn 0.6940 0.7071 0.1353
vn 0.1736 0.7071 0.6855
vn -0.0840 0.7316 0.6765
vn -0.3361 0.7071 0.6221
vn 0.6888 0.7248 -0.0145
vn -0.5083 0.7283 0.4596
vn 0.0000 -1.0000 0.0000
usemtl forest
s 1
f 20/1/1 19/2/1 4/3/1 14/4/1
f 19/2/2 18/5/2 3/6/2 4/3/2
f 6/7/3 2/8/3 16/9/3
f 17/10/4 21/11/4 15/12/4 2/13/4
f 18/5/5 17/10/5 2/13/5 3/6/5
f 21/11/6 20/1/6 14/4/6 15/12/6
f 4/14/3 5/15/3 13/16/3
f 2/13/7 6/17/7 12/18/7 7/19/7
f 5/20/8 4/3/8 10/21/8 11/22/8
f 4/3/2 3/6/2 9/23/2 10/21/2
f 6/17/6 5/20/6 11/22/6 12/18/6
f 22/24/9 23/25/9 9/23/9 7/19/9
f 23/25/10 24/26/10 10/21/10 9/23/10
f 24/26/11 25/27/11 11/22/11 10/21/11
f 25/27/12 26/28/13 12/18/13 11/22/12
f 26/28/13 22/24/14 7/19/14 12/18/13
f 3/6/5 2/13/5 7/19/5 9/23/5
f 13/29/15 14/4/15 4/3/15
f 15/12/16 16/30/16 2/13/16
f 13/29/12 16/30/12 15/12/12 14/4/12
f 5/15/3 6/7/3 16/9/3 13/16/3
f 1/31/17 17/10/17 18/5/17
f 1/31/17 18/5/17 19/2/17
f 1/31/17 19/2/17 20/1/17
f 1/31/17 20/1/17 21/11/17
f 1/31/17 21/11/17 17/10/17
f 8/32/3 23/33/3 22/34/3
f 8/32/3 24/35/3 23/33/3
f 8/32/3 25/36/3 24/35/3
f 8/32/3 26/37/3 25/36/3
f 8/32/3 22/34/3 26/37/3
