# Blender v3.4.1 OBJ File: 'Forest_Nature_Pack_Export.blend'
# www.blender.org
mtllib Rock_3_G_Color1.mtl
o Rock_3_G_Color1
v 0.120537 -0.505057 -0.814878
v 0.889351 -0.309671 -0.321633
v -0.172824 -0.621839 0.752851
v 0.111312 0.280710 0.718818
v -0.625483 0.544467 0.302812
v -0.078196 -0.561837 -0.679402
v -0.710207 -0.711535 -0.101324
v -0.386045 -0.699318 0.676745
v -0.594160 -0.802510 0.503255
v -0.786910 -0.786609 0.247238
v 0.078134 -0.849930 0.032232
v -0.116626 -0.785878 0.522149
v 0.767598 -0.420386 -0.533497
v 0.572766 -0.647804 -0.399290
v 0.360966 -0.769070 -0.275580
v 0.508107 -0.534028 -0.759338
v 0.692618 -0.538208 0.297818
v 0.495469 -0.717415 0.007481
v 0.794609 -0.344554 0.399773
v 0.449980 -0.532028 0.658669
v 0.090497 -0.591258 0.738322
v -0.955731 -0.270042 0.280239
v -0.947390 -0.552151 0.125448
v -0.349170 -0.532730 0.768891
v -0.584679 -0.522210 0.723563
v -0.681235 -0.103615 0.550835
v -0.411589 0.102502 -0.672577
v -0.818665 -0.507631 -0.184512
v -0.836540 -0.200135 -0.178503
v -0.703132 0.123173 -0.507184
v 0.539651 0.103894 -0.660202
v -0.065349 -0.299782 -0.839884
v -0.103198 0.182252 -0.774495
v 0.325915 0.091181 -0.812102
v 0.771779 0.228329 0.266134
v 0.841867 -0.107058 -0.401751
v 0.773986 0.219576 -0.153035
v 0.687661 -0.181638 0.577087
v 0.443108 0.095421 0.708870
v -0.760327 0.470110 0.027757
v -0.782629 0.513639 -0.327588
v 0.698637 0.495432 -0.006435
v 0.357858 0.493175 0.534140
v -0.356095 1.127332 -0.156724
v -0.500023 0.979133 -0.306177
v -0.554105 0.608964 -0.478037
v -0.383957 0.895481 0.297661
v -0.271250 1.064139 0.090118
v -0.108663 1.099995 -0.153045
v 0.038910 0.941947 -0.359788
v 0.184072 0.562689 -0.547011
v 0.077583 0.945994 0.173803
v 0.211151 0.887517 -0.080970
v 0.460998 0.664623 -0.053803
v 0.015807 0.834008 0.449910
v 0.083773 0.625405 0.627303
v -0.400849 0.538191 0.498591
v -0.127050 0.617500 0.603394
v 0.523593 0.588279 0.248851
v 0.424109 0.613804 -0.296837
v -0.188611 0.869106 -0.458166
v -0.384807 0.758855 -0.524878
v -0.508044 1.035024 -0.033467
v -0.640661 0.832355 -0.090587
v -0.293330 0.126633 0.665937
v -0.112927 -0.322957 0.800152
v 0.597099 0.303295 0.454728
v 0.682712 0.121557 -0.416117
v 0.468730 0.356569 -0.458299
v -0.854418 0.201187 -0.223928
v -0.845456 0.111484 0.138792
v 0.215459 -0.067400 0.843599
v 0.241365 -0.328890 0.841839
v 0.906600 -0.045040 0.180430
v 0.898841 -0.244396 -0.005555
v 0.635483 -0.243466 -0.776551
v 0.309526 -0.286570 -0.890500
v -0.381216 -0.308125 -0.698270
v -0.498945 -0.478257 -0.447282
v -0.875181 -0.592137 0.479516
v 0.347484 -0.698195 0.440265
v 0.789900 -0.521954 -0.154035
v 0.431990 -0.750701 -0.424937
v 0.269166 -0.718606 -0.559085
v -0.348094 -0.872804 0.085966
v -0.082987 -0.769497 -0.344725
vt 0.067288 0.300013
vt 0.051157 0.300224
vt 0.053166 0.300946
vt 0.087368 0.311301
vt 0.095097 0.307843
vt 0.096858 0.316388
vt 0.050872 0.309639
vt 0.055481 0.308565
vt 0.050265 0.314722
vt 0.033126 0.318001
vt 0.033935 0.314820
vt 0.033181 0.340690
vt 0.081186 0.311003
vt 0.075231 0.309522
vt 0.078989 0.317192
vt 0.083791 0.317464
vt 0.086027 0.316088
vt 0.066607 0.334859
vt 0.053800 0.336847
vt 0.063504 0.343914
vt 0.076789 0.347244
vt 0.073050 0.346823
vt 0.068022 0.354359
vt 0.061522 0.350340
vt 0.062472 0.357188
vt 0.069543 0.344189
vt 0.076243 0.332240
vt 0.055110 0.352766
vt 0.049296 0.344216
vt 0.047890 0.349658
vt 0.044014 0.340581
vt 0.045060 0.360984
vt 0.042284 0.359174
vt 0.044014 0.349627
vt 0.054007 0.363661
vt 0.053402 0.383070
vt 0.062622 0.366332
vt 0.047889 0.359275
vt 0.049260 0.379506
vt 0.041601 0.363913
vt 0.045253 0.353320
vt 0.039412 0.341007
vt 0.059355 0.385275
vt 0.054570 0.361916
vt 0.062798 0.365295
vt 0.054522 0.352753
vt 0.057819 0.347753
vt 0.062798 0.356249
vt 0.063466 0.347321
vt 0.068084 0.368687
vt 0.064423 0.356482
vt 0.070353 0.362828
vt 0.068084 0.359641
vt 0.071167 0.353482
vt 0.071744 0.372245
vt 0.078512 0.352415
vt 0.078512 0.343369
vt 0.091010 0.325724
vt 0.089240 0.322429
vt 0.059503 0.325450
vt 0.051202 0.316234
vt 0.041685 0.325282
vt 0.049425 0.328981
vt 0.045787 0.337657
vt 0.051334 0.345701
vt 0.041257 0.336524
vt 0.035666 0.331297
vt 0.039443 0.352799
vt 0.031111 0.313682
vt 0.034497 0.322864
vt 0.035666 0.322251
vt 0.039412 0.331961
vt 0.044507 0.341308
vt 0.035658 0.319797
vt 0.049574 0.326043
vt 0.061478 0.331863
vt 0.070427 0.361931
vt 0.080900 0.334784
vt 0.077341 0.362409
vt 0.082074 0.357946
vt 0.080900 0.325738
vt 0.096858 0.325434
vt 0.092626 0.351337
vt 0.085849 0.332435
vt 0.067699 0.322438
vt 0.078077 0.326262
vt 0.072178 0.343344
vt 0.067699 0.331484
vt 0.063436 0.315456
vt 0.075231 0.318568
vt 0.065620 0.334503
vt 0.056980 0.308258
vt 0.048243 0.310568
vt 0.038642 0.318138
vt 0.038268 0.331611
vt 0.036136 0.325650
vt 0.038005 0.311282
vt 0.032214 0.311096
vt 0.039721 0.312270
vt 0.032214 0.320141
vt 0.039461 0.333175
vt 0.039721 0.321316
vt 0.045763 0.317097
vt 0.061478 0.340909
vt 0.054482 0.324506
vt 0.061476 0.343073
vt 0.068766 0.322524
vt 0.068766 0.313478
vt 0.055481 0.317611
vt 0.093491 0.331653
vt 0.098550 0.323854
vt 0.095268 0.341632
vt 0.098550 0.314808
vt 0.094338 0.306428
vt 0.094338 0.315474
vt 0.086303 0.318712
vt 0.086027 0.325134
vt 0.086303 0.309666
vt 0.077776 0.305624
vt 0.061787 0.302746
vt 0.061769 0.311792
vt 0.050772 0.304741
vt 0.040898 0.303297
vt 0.033126 0.308955
vt 0.043458 0.302934
vt 0.034211 0.305692
vt 0.051157 0.309270
vt 0.049208 0.329315
vt 0.043458 0.311980
vt 0.052134 0.330992
vt 0.076328 0.301548
vt 0.061430 0.311865
vt 0.062802 0.302849
vn 0.1473 -0.9891 0.0004
vn 0.2463 -0.9659 -0.0804
vn 0.4474 -0.8913 0.0736
vn -0.4866 -0.7461 -0.4545
vn -0.7106 -0.6392 -0.2940
vn -0.7233 -0.6065 -0.3302
vn -0.1618 -0.3656 -0.9166
vn -0.3351 -0.6881 -0.6436
vn -0.2876 -0.1593 -0.9444
vn 0.8659 0.0051 -0.5003
vn 0.8344 -0.1088 -0.5404
vn 0.8206 0.2678 -0.5049
vn -0.0080 -0.2425 0.9701
vn -0.0257 -0.2429 0.9697
vn -0.1433 0.0100 0.9896
vn -0.6244 -0.5560 -0.5486
vn -0.1453 -0.2031 0.9683
vn 0.3100 0.3735 0.8743
vn 0.5071 0.5181 0.6887
vn 0.4221 0.2640 0.8672
vn -0.7565 0.3855 0.5283
vn -0.5000 0.3530 0.7908
vn -0.4483 0.6487 0.6150
vn 0.1884 0.7617 0.6200
vn -0.0546 0.9121 0.4063
vn -0.2481 0.4228 0.8716
vn -0.1178 0.4206 0.8996
vn -0.3086 0.2255 0.9241
vn -0.2089 0.2122 0.9546
vn 0.4308 0.8537 0.2926
vn 0.6468 0.6808 0.3436
vn 0.6202 0.7818 -0.0639
vn 0.6348 0.7665 -0.0977
vn 0.5061 0.6485 0.5686
vn 0.7423 0.6617 -0.1058
vn 0.3617 0.9254 0.1133
vn 0.5003 0.6824 -0.5329
vn 0.6492 0.5988 -0.4690
vn 0.4066 0.5391 -0.7376
vn 0.6538 0.5375 -0.5326
vn -0.0864 0.9576 0.2749
vn 0.0063 0.7966 -0.6045
vn 0.0464 0.6196 -0.7836
vn 0.0655 0.7874 -0.6130
vn 0.0192 0.7646 -0.6443
vn -0.0840 0.7175 -0.6915
vn -0.0165 0.5390 -0.8422
vn -0.4999 0.3121 -0.8079
vn -0.4943 0.2539 -0.8314
vn -0.5642 0.4141 -0.7143
vn -0.8130 0.5212 -0.2595
vn -0.7239 0.6714 -0.1589
vn -0.6115 0.7714 -0.1761
vn -0.8795 0.3000 -0.3695
vn -0.8592 0.4403 -0.2607
vn -0.3105 0.8665 0.3909
vn -0.7959 0.3904 0.4628
vn -0.8460 0.4186 0.3302
vn -0.5921 0.6338 -0.4977
vn -0.9507 0.2951 0.0958
vn -0.9220 0.3220 0.2150
vn -0.6288 0.2735 0.7279
vn -0.4523 0.1782 0.8739
vn 0.4965 0.2857 0.8197
vn 0.7131 0.0179 0.7008
vn 0.7704 0.3795 0.5124
vn 0.6958 0.3978 0.5980
vn 0.7242 0.5191 -0.4539
vn 0.7263 0.4942 -0.4778
vn 0.6204 0.4861 -0.6154
vn 0.2472 0.3718 -0.8948
vn -0.1712 0.2601 -0.9503
vn -0.4209 0.1268 -0.8982
vn -0.5090 0.1541 -0.8469
vn -0.6003 0.2301 -0.7660
vn -0.7568 -0.1721 -0.6306
vn -0.8845 -0.0238 -0.4659
vn -0.8351 -0.1550 -0.5278
vn -0.8764 0.0422 -0.4797
vn -0.9872 0.1470 0.0624
vn -0.9778 0.0548 -0.2021
vn -0.9482 0.2369 0.2116
vn -0.9202 -0.0459 -0.3887
vn -0.9550 0.0480 -0.2927
vn -0.9629 0.1440 -0.2282
vn -0.2439 0.1505 0.9581
vn 0.4082 0.1713 0.8967
vn -0.1180 -0.1406 0.9830
vn 0.4443 -0.2035 0.8725
vn 0.2645 -0.4817 0.8355
vn 0.4868 -0.5648 0.6664
vn 0.8493 -0.3261 0.4152
vn 0.9270 0.3750 -0.0030
vn 0.9564 0.2865 -0.0574
vn 0.9646 0.2637 -0.0004
vn 0.9165 0.0152 0.3998
vn 0.9442 0.2990 -0.1382
vn 0.9685 0.2090 -0.1356
vn 0.9721 0.2264 -0.0613
vn 0.9168 -0.3740 0.1397
vn 0.9770 0.2010 -0.0708
vn 0.6360 0.0414 -0.7706
vn 0.1076 -0.0706 -0.9917
vn 0.6976 -0.3431 -0.6290
vn 0.2447 -0.2935 -0.9241
vn -0.4326 0.0244 -0.9012
vn -0.5734 -0.4778 -0.6655
vn -0.5568 -0.5152 -0.6516
vn -0.6336 -0.0217 -0.7734
vn -0.7558 0.3017 0.5812
vn -0.9376 -0.3108 0.1561
vn -0.9289 -0.3379 0.1513
vn -0.9743 -0.1298 0.1840
vn -0.7014 0.1777 0.6903
vn -0.8464 -0.5202 0.1139
vn -0.5734 -0.7222 0.3868
vn -0.4728 -0.6215 0.6246
vn -0.5275 -0.6418 0.5567
vn -0.3437 -0.5288 0.7761
vn -0.2404 -0.5039 0.8296
vn 0.1216 -0.9151 0.3845
vn 0.2103 -0.8175 0.5362
vn 0.1038 -0.7985 0.5930
vn 0.3483 -0.8782 0.3279
vn 0.6836 -0.6860 0.2493
vn 0.7658 -0.6430 -0.0067
vn 0.8729 -0.4796 -0.0895
vn 0.5542 -0.8146 -0.1714
vn 0.6930 -0.6712 -0.2631
vn 0.5617 -0.8102 0.1675
vn 0.4941 -0.7995 -0.3414
vn 0.4923 -0.4950 -0.7160
vn 0.3796 -0.8604 -0.3401
vn -0.0573 -0.8986 -0.4350
vn -0.0795 -0.7875 -0.6112
vn 0.0370 -0.7564 -0.6530
vn -0.0678 -0.9858 -0.1535
vn 0.0363 -0.8436 0.5357
vn -0.0559 -0.9746 0.2169
vn -0.2217 -0.9715 -0.0841
vn -0.0926 -0.9915 -0.0918
vn -0.1621 -0.9049 -0.3935
usemtl forest
s 1
f 11/1/1 15/2/2 18/3/3
f 7/4/4 10/5/5 23/6/6
f 1/7/7 6/8/8 32/9/9
f 2/10/10 13/11/11 36/12/12
f 3/13/13 21/14/14 66/15/15
f 7/4/4 23/6/6 28/16/16
f 3/13/13 66/15/15 24/17/17
f 4/18/18 43/19/19 56/20/20
f 5/21/21 57/22/22 47/23/23
f 47/23/23 55/24/24 48/25/25
f 57/22/22 58/26/26 47/23/23
f 47/23/23 58/26/26 55/24/24
f 58/26/26 56/20/27 55/24/24
f 57/22/22 65/27/28 58/26/26
f 58/26/26 4/18/29 56/20/27
f 55/24/24 52/28/30 48/25/25
f 55/24/24 59/29/31 52/28/30
f 52/28/30 59/29/31 53/30/32
f 59/29/31 54/31/33 53/30/32
f 56/20/34 43/19/19 55/24/24
f 55/24/24 43/19/19 59/29/31
f 59/32/31 42/33/35 54/34/33
f 52/35/30 49/36/36 48/37/25
f 52/35/30 53/38/32 49/36/36
f 53/38/32 50/39/37 49/36/36
f 54/34/33 60/40/38 53/38/32
f 53/38/32 60/40/38 50/39/37
f 60/40/38 51/41/39 50/39/37
f 42/33/35 60/40/38 54/34/33
f 60/40/38 69/42/40 51/41/39
f 49/36/36 44/43/41 48/37/25
f 50/39/42 61/44/43 49/36/44
f 51/41/39 61/44/43 50/39/37
f 49/36/44 61/44/43 44/43/45
f 61/44/43 45/45/46 44/43/45
f 61/46/43 62/47/47 45/48/46
f 62/47/48 46/49/49 45/48/50
f 45/45/51 63/50/52 44/43/53
f 46/51/54 64/52/55 45/45/51
f 44/43/41 63/50/56 48/37/25
f 63/53/56 47/23/23 48/25/25
f 45/45/51 64/52/55 63/50/52
f 63/53/57 64/54/58 47/23/23
f 64/54/58 5/21/21 47/23/23
f 46/51/59 41/55/59 64/52/59
f 41/55/60 40/56/61 64/52/58
f 64/54/58 40/57/61 5/21/21
f 26/58/62 57/22/22 5/21/21
f 25/59/63 65/27/28 26/58/62
f 24/17/17 66/15/15 25/59/63
f 26/58/62 65/27/28 57/22/22
f 25/59/63 66/15/15 65/27/28
f 66/15/15 4/18/29 65/27/28
f 65/27/28 4/18/29 58/26/26
f 39/60/64 43/19/19 4/18/18
f 38/61/65 35/62/66 39/60/64
f 39/60/64 67/63/67 43/19/19
f 39/60/64 35/62/66 67/63/67
f 67/64/67 59/32/31 43/65/19
f 67/64/67 35/66/66 59/32/31
f 35/66/66 42/33/35 59/32/31
f 36/12/12 68/67/68 37/68/69
f 37/68/69 60/40/38 42/33/35
f 68/67/68 69/42/40 37/68/69
f 37/68/69 69/42/40 60/40/38
f 36/69/12 31/70/70 68/71/68
f 68/71/68 31/70/70 69/72/40
f 31/70/70 51/73/39 69/72/40
f 34/74/71 61/46/43 51/73/39
f 34/74/71 33/75/72 61/46/43
f 33/75/72 62/47/47 61/46/43
f 33/75/72 46/49/49 62/47/48
f 32/9/9 27/76/73 33/75/72
f 33/75/72 27/76/73 46/49/49
f 30/77/74 41/55/75 46/51/49
f 29/78/76 70/79/77 30/77/78
f 30/77/78 70/79/77 41/55/79
f 70/79/80 40/56/61 41/55/60
f 29/78/81 71/80/82 70/79/80
f 70/79/80 71/80/82 40/56/61
f 28/16/83 23/6/84 29/81/81
f 23/82/84 22/83/85 29/78/81
f 29/78/81 22/83/85 71/80/82
f 71/84/82 5/21/21 40/57/61
f 66/15/15 72/85/86 4/18/29
f 4/18/18 72/85/87 39/60/64
f 66/86/15 73/87/88 72/88/86
f 72/85/87 73/89/89 39/60/64
f 73/89/89 38/61/65 39/60/64
f 66/86/15 21/90/14 73/87/88
f 21/90/90 20/91/91 73/87/89
f 73/89/89 20/92/91 38/61/65
f 20/92/91 19/93/92 38/61/65
f 35/66/93 37/68/94 42/33/95
f 38/61/65 74/94/96 35/62/66
f 35/66/93 74/95/97 37/68/94
f 74/95/97 75/96/98 37/68/94
f 75/96/98 36/12/99 37/68/94
f 38/61/65 19/93/92 74/94/96
f 19/93/92 75/97/100 74/94/96
f 75/96/98 2/10/101 36/12/99
f 31/70/70 34/74/71 51/73/39
f 36/69/12 76/98/102 31/70/70
f 31/70/70 76/98/102 34/74/71
f 76/98/102 77/99/103 34/74/71
f 34/74/71 77/99/103 33/75/72
f 77/99/103 32/9/9 33/75/72
f 36/12/12 13/11/11 76/100/102
f 13/11/11 16/101/104 76/100/102
f 76/100/102 16/101/105 77/102/103
f 16/101/105 1/103/7 77/102/103
f 77/99/103 1/7/7 32/9/9
f 27/104/73 30/77/74 46/51/49
f 32/105/9 78/106/106 27/104/73
f 27/104/73 78/106/106 30/77/74
f 78/106/107 79/107/108 30/77/78
f 30/77/78 79/107/108 29/78/76
f 79/108/108 28/16/109 29/81/76
f 32/105/9 6/109/8 78/106/107
f 6/109/8 79/107/108 78/106/107
f 79/108/108 7/4/4 28/16/16
f 71/84/82 26/58/62 5/21/21
f 22/83/110 26/110/62 71/80/82
f 23/82/111 80/111/112 22/83/113
f 22/83/110 80/111/114 26/110/62
f 80/111/114 25/112/63 26/110/62
f 23/6/111 10/5/115 80/113/112
f 10/5/116 9/114/117 80/113/118
f 80/111/118 9/115/117 25/112/119
f 9/115/117 8/116/120 25/112/119
f 25/112/119 8/116/120 24/117/17
f 8/118/120 3/13/13 24/17/17
f 12/119/121 21/14/122 3/13/123
f 11/1/1 81/120/124 12/119/121
f 18/3/3 81/120/124 11/1/1
f 12/119/121 81/120/124 21/14/122
f 81/121/124 20/91/91 21/90/122
f 18/3/3 17/122/125 81/120/124
f 81/120/124 17/122/125 20/92/91
f 17/122/125 19/93/92 20/92/91
f 17/122/125 75/97/100 19/93/92
f 18/3/3 82/123/126 17/122/125
f 17/122/125 82/123/126 75/97/100
f 82/123/126 2/124/127 75/97/100
f 15/2/2 14/125/128 18/3/3
f 18/3/3 14/125/128 82/123/126
f 14/125/128 13/126/129 82/123/126
f 82/123/126 13/126/129 2/124/127
f 15/127/2 83/128/130 14/129/128
f 14/129/128 16/101/131 13/11/129
f 83/128/132 84/130/132 14/129/132
f 14/129/128 84/130/133 16/101/131
f 84/130/134 1/103/135 16/101/136
f 15/127/2 84/130/134 83/128/137
f 84/130/134 6/109/8 1/103/135
f 8/118/138 12/119/121 3/13/123
f 9/114/139 12/119/121 8/118/138
f 10/5/140 85/131/141 9/114/139
f 9/114/139 85/131/141 12/119/121
f 85/131/141 11/1/1 12/119/121
f 10/5/140 7/4/4 85/131/141
f 84/130/134 86/132/142 6/109/8
f 15/127/2 86/132/142 84/130/134
f 86/132/142 79/107/108 6/109/8
f 86/133/142 7/4/4 79/108/108
f 15/2/2 11/1/1 86/133/142
f 11/1/1 85/131/141 86/133/142
f 85/131/141 7/4/4 86/133/142
