# Blender v3.4.1 OBJ File: 'Forest_Nature_Pack_Export.blend'
# www.blender.org
mtllib Rock_1_A_Color1.mtl
o Rock_1_A_Color1
v -0.000000 0.000000 0.000000
v -0.319527 0.296928 0.000000
v -0.098739 0.296928 -0.303888
v 0.258503 0.296928 -0.187813
v 0.163986 0.296928 0.119143
v -0.062637 0.296928 0.192777
v -0.319527 0.515268 0.000000
v -0.013368 0.540268 -0.041141
v -0.098739 0.515268 -0.303888
v 0.258503 0.515268 -0.187813
v 0.163986 0.515268 0.119143
v -0.062637 0.515268 0.192777
v 0.233503 0.296928 0.169650
v 0.258503 0.271928 0.187813
v -0.098739 0.271928 0.303888
v -0.089190 0.296928 0.274499
v -0.284832 0.540268 -0.005221
v -0.089190 0.540268 -0.274499
v 0.227366 0.540268 -0.171644
v 0.143913 0.540268 0.099378
v -0.058015 0.540268 0.164989
v -0.319527 0.000000 0.000000
v -0.098739 0.000000 -0.303888
v 0.258503 0.000000 -0.187813
v 0.258503 0.000000 0.187813
v -0.098739 0.000000 0.303888
vt 0.066461 0.345108
vt 0.058736 0.345108
vt 0.065663 0.345108
vt 0.058736 0.293926
vt 0.065375 0.293926
vt 0.065375 0.307010
vt 0.058736 0.308213
vt 0.065375 0.293926
vt 0.065375 0.308213
vt 0.076116 0.293926
vt 0.076116 0.293926
vt 0.076116 0.308213
vt 0.076116 0.307010
vt 0.076116 0.345108
vt 0.073276 0.345108
vt 0.075365 0.345108
vt 0.066461 0.308213
vt 0.066461 0.318719
vt 0.058736 0.318719
vt 0.073276 0.308213
vt 0.076116 0.318719
vt 0.073276 0.318719
vt 0.065375 0.318719
vt 0.059779 0.319921
vt 0.065663 0.319921
vt 0.075181 0.319921
vt 0.072672 0.319921
vt 0.066598 0.319921
vt 0.075365 0.308213
vt 0.065663 0.308213
vt 0.067943 0.356816
vt 0.065663 0.356816
vt 0.059779 0.356816
vt 0.075181 0.356816
vt 0.072672 0.356816
vt 0.066598 0.356816
vt 0.068344 0.293926
vn 0.0000 1.0000 0.0000
vn -0.8090 0.0000 0.5878
vn -0.8090 0.0000 -0.5878
vn 1.0000 0.0000 0.0000
vn 0.3090 0.0000 -0.9511
vn 0.3090 0.0000 0.9511
vn -0.6002 0.0000 0.7998
vn 0.9557 0.0000 0.2943
vn -0.5721 0.7071 -0.4156
vn 0.2185 0.7071 -0.6725
vn 0.6758 0.7071 0.2081
vn 0.4730 0.7479 0.4657
vn -0.1089 0.7479 0.6548
vn -0.4244 0.7071 0.5656
vn 0.6886 0.7236 0.0482
vn -0.5288 0.7236 0.4437
vn 0.2185 0.7071 0.6725
vn 0.0000 -1.0000 0.0000
usemtl forest
s 1
f 6/1/1 2/2/1 16/3/1
f 22/4/2 26/5/2 15/6/2 2/7/2
f 23/8/3 22/4/3 2/7/3 3/9/3
f 25/10/4 24/11/4 4/12/4 14/13/4
f 24/11/5 23/8/5 3/9/5 4/12/5
f 26/5/6 25/10/6 14/13/6 15/6/6
f 4/14/1 5/15/1 13/16/1
f 2/7/7 6/17/7 12/18/7 7/19/7
f 5/20/8 4/12/8 10/21/8 11/22/8
f 4/12/5 3/9/5 9/23/5 10/21/5
f 6/17/6 5/20/6 11/22/6 12/18/6
f 17/24/9 18/25/9 9/23/9 7/19/9
f 18/25/10 19/26/10 10/21/10 9/23/10
f 19/26/11 20/27/12 11/22/12 10/21/11
f 20/27/12 21/28/13 12/18/13 11/22/12
f 21/28/13 17/24/14 7/19/14 12/18/13
f 3/9/3 2/7/3 7/19/3 9/23/3
f 13/29/15 14/13/15 4/12/15
f 15/6/16 16/30/16 2/7/16
f 13/29/17 16/30/17 15/6/17 14/13/17
f 5/15/1 6/1/1 16/3/1 13/16/1
f 8/31/1 18/32/1 17/33/1
f 8/31/1 19/34/1 18/32/1
f 8/31/1 20/35/1 19/34/1
f 8/31/1 21/36/1 20/35/1
f 8/31/1 17/33/1 21/36/1
f 1/37/18 22/4/18 23/8/18
f 1/37/18 23/8/18 24/11/18
f 1/37/18 24/11/18 25/10/18
f 1/37/18 25/10/18 26/5/18
f 1/37/18 26/5/18 22/4/18
