# Blender v3.4.1 OBJ File: 'Forest_Nature_Pack_Export.blend'
# www.blender.org
mtllib Rock_3_I_Color1.mtl
o Rock_3_I_Color1
v -0.537368 0.855809 0.651848
v -0.637319 -0.331035 0.538476
v 0.192164 -0.502703 0.503319
v 0.801463 0.338136 -0.368362
v 0.775379 -0.674721 -0.438816
v 0.010270 0.492333 0.854146
v 0.296056 0.697026 0.509945
v 0.365675 -0.413132 0.608502
v 0.523247 -0.308680 0.551152
v 0.069332 0.193880 0.873863
v -0.133577 -0.005795 0.822526
v 0.253674 -0.211104 0.763859
v -0.429040 0.701181 0.847887
v -0.592097 0.107199 0.727937
v -0.397151 0.145370 0.850866
v -0.182319 0.327248 0.938688
v -0.727640 0.094480 0.516210
v -0.398868 -0.411081 0.626296
v -0.084180 -0.484032 0.570695
v 0.844857 -0.661850 -0.204337
v 0.758063 -0.472433 0.147445
v 0.707655 -0.201420 0.358980
v 0.487258 -0.538863 0.272735
v 0.501617 -0.770106 -0.208361
v 0.624451 0.596916 -0.131388
v 0.437852 0.745054 0.252348
v 0.844162 -0.022271 0.218861
v 0.897937 0.122775 -0.165974
v -0.613105 0.972223 -0.061422
v -0.004764 1.085475 -0.094758
v -0.020205 0.927179 -0.482587
v -0.830055 0.001642 -0.418001
v -0.940374 -0.165878 -0.082091
v -0.712843 0.866838 0.267592
v -0.144334 -0.976592 0.082773
v -0.823620 -0.408968 0.261771
v -0.670826 -0.860490 0.087715
v -0.398262 -1.023193 -0.177662
v 0.568375 0.526951 -0.438930
v 0.272132 0.754275 -0.559477
v -0.354834 0.815392 -0.438085
v -0.672810 0.312961 -0.505338
v -0.577217 -0.806962 -0.236027
v -0.062891 -0.994062 -0.435768
v 0.606604 -0.007894 -0.699515
v 0.844451 0.095796 -0.500392
v 0.301385 -0.561079 -0.619587
v 0.283739 -0.374078 -0.675544
v 0.196895 -0.042117 -0.703873
v -0.302319 0.480669 -0.567715
v -0.006013 0.724454 -0.616822
v -0.163577 -0.225426 -0.674263
v -0.618158 -0.066551 -0.596021
v 0.035079 -0.812286 -0.607996
v -0.243120 -0.849849 -0.523477
v 0.344090 -0.842475 -0.480328
v -0.153312 -0.540406 -0.629170
v -0.463176 -0.439926 -0.547923
v -0.394605 0.151070 -0.646995
v 0.407238 0.352614 -0.630589
v 0.568950 -0.327062 -0.695809
v 0.851049 -0.253512 -0.582298
v 0.673435 -0.567089 -0.580100
v 0.059618 -0.760997 0.190604
v -0.085237 -1.016547 -0.146190
v -0.855045 -0.600657 -0.026143
v -0.787304 -0.382163 -0.343509
v -0.603220 0.733672 -0.354574
v 0.236712 0.940394 -0.330015
v 0.276021 0.977220 -0.019254
v 0.981499 -0.139529 -0.333896
v 0.936568 -0.381594 -0.188781
v -0.349635 -0.931260 0.180430
v -0.584323 -0.709607 0.367560
v -0.810311 0.604045 -0.129032
v -0.831754 0.318997 0.244073
v -0.313318 1.045403 -0.047864
v -0.497080 1.043301 0.311943
v 0.003182 1.028442 0.255782
v 0.705109 0.380953 0.235350
v 0.724201 -0.634924 0.008896
v -0.418832 0.476910 0.893131
v -0.638430 0.564175 0.668456
v -0.241193 0.880202 0.676818
v 0.431062 0.028473 0.680066
v 0.607150 0.205263 0.525514
vt 0.082655 0.377723
vt 0.076190 0.354791
vt 0.079762 0.359060
vt 0.087727 0.361511
vt 0.093855 0.319815
vt 0.092441 0.339070
vt 0.092486 0.319376
vt 0.074908 0.304232
vt 0.081212 0.308137
vt 0.076692 0.294207
vt 0.058727 0.348761
vt 0.048533 0.345365
vt 0.061037 0.362812
vt 0.079116 0.332762
vt 0.073591 0.340570
vt 0.073387 0.331185
vt 0.078857 0.333694
vt 0.080275 0.342957
vt 0.066663 0.332238
vt 0.042858 0.292226
vt 0.050546 0.291559
vt 0.042618 0.293636
vt 0.044731 0.305011
vt 0.053772 0.322269
vt 0.053097 0.324116
vt 0.061205 0.331815
vt 0.065910 0.329273
vt 0.058560 0.299383
vt 0.062905 0.323086
vt 0.054284 0.310241
vt 0.066177 0.320877
vt 0.066177 0.308447
vt 0.072775 0.357302
vt 0.067285 0.339682
vt 0.073387 0.343615
vt 0.081341 0.344849
vt 0.079151 0.345280
vt 0.050083 0.318682
vt 0.066903 0.336259
vt 0.064601 0.341646
vt 0.061903 0.350647
vt 0.053186 0.342837
vt 0.051684 0.347788
vt 0.044406 0.331707
vt 0.042392 0.319288
vt 0.036864 0.317544
vt 0.045800 0.342582
vt 0.040722 0.333819
vt 0.037455 0.328200
vt 0.043320 0.302003
vt 0.037912 0.306807
vt 0.047289 0.327242
vt 0.043320 0.314434
vt 0.052024 0.333100
vt 0.048400 0.293812
vt 0.052392 0.291154
vt 0.073414 0.319315
vt 0.073794 0.313664
vt 0.057586 0.308560
vt 0.057392 0.303463
vt 0.073686 0.328863
vt 0.077631 0.328745
vt 0.089200 0.319852
vt 0.088937 0.319151
vt 0.089200 0.307422
vt 0.088937 0.331581
vt 0.086573 0.326313
vt 0.083273 0.321326
vt 0.077825 0.355713
vt 0.068972 0.353550
vt 0.083248 0.368063
vt 0.073087 0.366215
vt 0.058151 0.362073
vt 0.048304 0.349907
vt 0.048316 0.352524
vt 0.038789 0.336939
vt 0.037081 0.322422
vt 0.045494 0.311221
vt 0.039535 0.294436
vt 0.035956 0.307806
vt 0.054176 0.305199
vt 0.049477 0.296472
vt 0.044173 0.291900
vt 0.084733 0.333393
vt 0.090699 0.320399
vt 0.090699 0.307968
vt 0.084978 0.300325
vt 0.088830 0.310695
vt 0.088859 0.345818
vt 0.090685 0.355550
vt 0.086400 0.368140
vt 0.067443 0.367667
vt 0.079380 0.374621
vt 0.079145 0.365876
vt 0.044332 0.329827
vt 0.047871 0.353280
vt 0.056889 0.359836
vt 0.046448 0.340858
vt 0.054342 0.358892
vt 0.045494 0.323651
vt 0.052862 0.324912
vt 0.050832 0.291839
vt 0.057586 0.296130
vt 0.061572 0.305768
vt 0.070151 0.307835
vt 0.070151 0.320265
vt 0.071779 0.314374
vt 0.077439 0.322032
vt 0.083145 0.362418
vt 0.090533 0.336227
vt 0.081590 0.330165
vt 0.090003 0.373941
vt 0.093151 0.360631
vt 0.093855 0.332245
vt 0.092757 0.347710
vt 0.087727 0.349081
vt 0.092298 0.341445
vt 0.087204 0.359015
vt 0.077087 0.345836
vt 0.060894 0.319681
vt 0.072820 0.337438
vt 0.075346 0.336155
vt 0.064613 0.357115
vt 0.061825 0.332067
vt 0.058693 0.329830
vn 0.1652 0.2900 0.9427
vn 0.4604 0.1149 0.8802
vn 0.3698 0.3600 0.8566
vn 0.0783 0.2571 0.9632
vn -0.6320 -0.2967 0.7159
vn -0.8833 -0.0428 0.4668
vn -0.8748 -0.2295 0.4266
vn 0.1488 -0.7803 0.6074
vn 0.0601 -0.6366 0.7688
vn 0.3317 -0.7776 0.5341
vn 0.5589 0.5924 0.5802
vn 0.6813 0.6532 0.3305
vn 0.2595 0.9157 0.3068
vn -0.8352 0.0196 -0.5495
vn -0.5833 0.2738 -0.7647
vn -0.4599 -0.0869 -0.8837
vn -0.5683 -0.6692 -0.4787
vn -0.6576 -0.5588 -0.5052
vn -0.3883 -0.5135 -0.7652
vn 0.4485 -0.5248 -0.7235
vn 0.2307 -0.5105 -0.8283
vn 0.3592 -0.4346 -0.8259
vn 0.0703 -0.3123 -0.9474
vn 0.1468 -0.6299 -0.7627
vn -0.1340 -0.7314 -0.6686
vn -0.1341 -0.1040 -0.9855
vn -0.0569 -0.2104 -0.9760
vn -0.1033 -0.1482 -0.9835
vn -0.1684 -0.1685 -0.9712
vn -0.4365 -0.3017 -0.8476
vn -0.7476 -0.3247 -0.5794
vn -0.0350 0.0597 -0.9976
vn -0.1911 0.1519 -0.9697
vn -0.2312 0.2409 -0.9426
vn -0.3651 0.3293 -0.8708
vn -0.0925 0.2944 -0.9512
vn -0.0490 0.7711 -0.6348
vn -0.0098 0.1585 -0.9873
vn 0.2987 0.1713 -0.9389
vn 0.5055 0.3816 -0.7738
vn 0.7568 0.3295 -0.5644
vn 0.3805 0.5535 -0.7409
vn 0.5588 0.3232 -0.7638
vn 0.5283 0.3850 -0.7567
vn 0.5801 0.4666 -0.6676
vn 0.1802 -0.1882 -0.9655
vn 0.5965 -0.0266 -0.8022
vn 0.3320 -0.9205 0.2061
vn 0.3719 -0.9282 0.0145
vn 0.3239 -0.9461 -0.0067
vn 0.2747 -0.8496 0.4503
vn 0.4851 -0.7844 0.3865
vn 0.1111 -0.9931 0.0381
vn 0.2459 -0.9677 -0.0562
vn 0.6199 -0.7302 0.2874
vn -0.0806 -0.9807 0.1781
vn -0.7006 -0.6433 -0.3089
vn -0.8944 -0.3211 0.3114
vn -0.7931 -0.4334 0.4280
vn -0.7896 -0.4630 -0.4027
vn -0.9975 -0.0494 -0.0509
vn -0.9195 0.3212 -0.2264
vn -0.6578 0.5310 -0.5342
vn -0.3507 0.3233 -0.8789
vn -0.8469 0.5030 0.1726
vn -0.5626 0.7784 -0.2787
vn -0.3315 0.7995 -0.5009
vn 0.0852 0.9903 -0.1100
vn 0.4709 0.8086 -0.3526
vn 0.5585 0.8272 0.0612
vn 0.6794 0.6686 -0.3023
vn 0.7826 0.6212 -0.0403
vn 0.6540 0.7030 -0.2792
vn 0.9500 0.3020 0.0793
vn 0.9145 0.4045 -0.0055
vn 0.9096 0.0236 0.4149
vn 0.9640 0.0622 0.2584
vn 0.8944 0.2671 -0.3586
vn 0.9250 0.0538 0.3762
vn 0.8863 -0.3478 -0.3058
vn 0.9116 -0.2958 -0.2856
vn 0.9074 -0.2995 -0.2947
vn 0.9221 -0.2736 -0.2737
vn 0.7903 -0.1889 0.5829
vn 0.8728 -0.2709 0.4060
vn 0.7260 -0.4381 0.5301
vn 0.8313 -0.3773 0.4082
vn 0.9225 -0.2876 -0.2576
vn -0.1538 -0.9793 0.1312
vn -0.0567 -0.8465 0.5294
vn 0.2311 -0.6012 0.7649
vn -0.3081 -0.8571 0.4130
vn -0.1171 -0.7101 0.6942
vn -0.6938 -0.4223 0.5833
vn -0.1921 -0.4835 0.8540
vn -0.9633 0.1156 0.2421
vn -0.8305 0.1537 0.5355
vn -0.8085 0.3087 0.5010
vn -0.1593 0.9657 -0.2050
vn -0.6446 0.7384 0.1980
vn -0.0442 0.9807 0.1904
vn -0.6391 0.7030 0.3120
vn 0.1612 0.7688 0.6188
vn 0.8341 0.4436 0.3277
vn 0.7241 0.2010 0.6598
vn 0.2977 -0.9480 0.1129
vn 0.6282 -0.5765 0.5226
vn 0.1926 -0.9094 0.3686
vn 0.4675 -0.6925 0.5495
vn 0.6703 -0.1821 0.7194
vn 0.5471 -0.6785 0.4902
vn 0.6007 -0.6526 0.4619
vn 0.2106 -0.8880 0.4088
vn -0.0421 -0.5119 0.8580
vn -0.0429 -0.3629 0.9309
vn 0.0437 -0.2902 0.9560
vn -0.1174 -0.2576 0.9591
vn -0.3181 -0.2640 0.9106
vn -0.6730 -0.1608 0.7220
vn -0.5827 -0.0162 0.8125
vn -0.7087 0.1952 0.6780
vn -0.1167 0.7474 0.6540
vn -0.1146 0.8252 0.5531
vn 0.1699 0.3847 0.9073
vn -0.1225 -0.6468 0.7528
vn 0.5221 -0.1387 0.8415
vn 0.5083 -0.3300 0.7955
vn 0.5911 0.0015 0.8066
usemtl forest
s 1
f 16/1/1 10/2/2 6/3/3
f 16/1/1 6/3/3 82/4/4
f 2/5/5 17/6/6 36/7/7
f 3/8/8 19/9/9 64/10/10
f 7/11/11 26/12/12 79/13/13
f 32/14/14 42/15/15 53/16/16
f 38/17/17 43/18/18 55/19/19
f 5/20/20 56/21/21 63/22/22
f 63/23/22 56/24/21 47/25/23
f 56/24/21 54/26/24 47/25/23
f 56/24/21 44/27/25 54/26/24
f 54/26/24 44/27/25 55/19/19
f 44/27/25 38/17/17 55/19/19
f 47/28/23 52/29/26 48/30/27
f 54/26/28 57/31/29 47/25/23
f 47/28/23 57/32/29 52/29/26
f 54/26/28 55/19/19 57/31/29
f 55/19/19 58/33/30 57/31/29
f 57/31/29 58/33/30 52/34/26
f 58/33/30 53/35/16 52/34/26
f 43/18/18 58/33/30 55/19/19
f 58/33/30 67/36/31 53/35/16
f 67/36/31 32/37/14 53/35/16
f 52/29/26 49/38/32 48/30/27
f 53/16/16 59/39/33 52/29/26
f 52/29/26 59/39/33 49/38/32
f 59/39/33 50/40/34 49/38/32
f 53/16/16 42/15/15 59/39/33
f 42/15/15 50/40/34 59/39/33
f 50/40/34 41/41/35 51/42/36
f 41/41/35 31/43/37 51/42/36
f 50/40/34 60/44/38 49/38/32
f 60/44/38 45/45/39 49/38/32
f 50/40/34 51/42/36 60/44/38
f 60/44/40 46/46/41 45/45/39
f 31/43/37 40/47/42 51/42/36
f 51/42/36 40/47/42 60/44/38
f 40/47/43 39/48/44 60/44/40
f 60/44/40 39/48/44 46/46/41
f 39/48/44 4/49/45 46/46/41
f 45/45/39 61/50/46 49/38/32
f 46/46/41 62/51/47 45/45/39
f 49/52/32 61/53/46 48/54/27
f 61/53/46 47/25/23 48/54/27
f 45/45/39 62/51/47 61/50/46
f 62/51/47 63/22/22 61/50/46
f 61/50/46 63/22/22 47/55/23
f 62/51/47 5/20/20 63/22/22
f 24/56/48 56/21/49 5/20/50
f 3/57/8 64/58/10 23/59/51
f 23/59/51 64/58/10 24/60/48
f 64/58/10 65/61/52 24/60/48
f 24/60/48 65/61/53 56/24/49
f 65/61/53 44/27/54 56/24/49
f 64/58/10 35/62/55 65/61/52
f 65/61/53 38/17/56 44/27/54
f 37/63/57 43/18/18 38/17/17
f 36/7/7 66/64/58 37/65/59
f 37/63/57 66/66/60 43/18/18
f 66/66/60 67/36/31 43/18/18
f 43/18/18 67/36/31 58/33/30
f 36/7/7 33/67/61 66/64/58
f 66/64/60 33/67/61 67/68/31
f 33/67/61 32/14/14 67/68/31
f 75/69/62 42/15/15 32/14/14
f 75/69/62 68/70/63 42/15/15
f 42/15/15 68/70/64 50/40/34
f 68/70/64 41/41/35 50/40/34
f 34/71/65 29/72/66 75/69/62
f 75/69/62 29/72/66 68/70/63
f 29/72/66 41/41/67 68/70/63
f 30/73/68 69/74/69 31/43/37
f 79/13/13 70/75/70 30/73/68
f 69/74/69 40/47/42 31/43/37
f 30/73/68 70/75/70 69/74/69
f 69/74/69 39/48/71 40/47/42
f 79/13/13 26/12/12 70/75/70
f 26/12/12 25/76/72 70/75/70
f 70/75/70 25/76/72 69/74/69
f 69/74/69 25/76/72 39/48/71
f 25/76/72 4/49/73 39/48/71
f 28/77/74 46/46/41 4/49/75
f 27/78/76 72/79/77 28/77/74
f 28/77/74 71/80/78 46/46/41
f 71/80/78 62/51/47 46/46/41
f 28/77/74 72/79/77 71/80/79
f 71/80/80 72/79/81 62/51/82
f 72/79/81 5/20/83 62/51/82
f 27/78/76 22/81/84 72/79/85
f 22/81/84 21/82/86 72/79/85
f 21/82/86 20/83/87 72/79/85
f 72/79/81 20/83/88 5/20/83
f 35/62/89 73/84/90 65/61/53
f 64/58/10 73/84/90 35/62/91
f 65/61/53 73/84/90 38/17/56
f 73/84/90 37/63/92 38/17/56
f 73/84/90 74/85/93 37/63/92
f 74/86/94 36/7/7 37/65/59
f 64/10/10 19/9/9 73/87/90
f 19/9/9 18/88/95 73/87/90
f 73/87/90 18/88/95 74/86/93
f 18/88/95 2/5/5 74/86/94
f 74/86/94 2/5/5 36/7/7
f 33/67/61 75/69/62 32/14/14
f 36/7/7 76/89/96 33/67/61
f 33/67/61 76/89/96 75/69/62
f 76/89/96 34/71/65 75/69/62
f 36/7/7 17/6/6 76/89/96
f 17/6/6 83/90/97 76/89/96
f 76/89/96 83/90/97 34/71/65
f 83/90/97 1/91/98 34/71/65
f 29/72/66 77/92/99 41/41/67
f 34/71/65 78/93/100 29/72/66
f 41/41/67 77/92/99 31/43/37
f 77/92/99 30/73/68 31/43/37
f 29/72/66 78/93/101 77/92/99
f 78/93/101 79/13/13 77/92/99
f 77/92/99 79/13/13 30/73/68
f 34/71/65 1/91/102 78/93/100
f 78/93/101 84/94/103 79/13/13
f 84/94/103 7/11/11 79/13/13
f 25/76/72 28/77/74 4/49/75
f 25/76/72 80/95/104 28/77/74
f 25/76/72 26/12/12 80/95/104
f 80/95/104 27/78/76 28/77/74
f 26/96/12 7/97/11 80/98/104
f 7/97/11 86/99/105 80/98/104
f 80/98/104 86/99/105 27/100/76
f 86/99/105 22/101/84 27/100/76
f 20/83/106 24/56/48 5/20/50
f 21/82/86 81/102/107 20/83/87
f 20/83/106 81/102/108 24/56/48
f 81/102/108 23/103/51 24/56/48
f 21/82/86 23/103/109 81/102/107
f 22/81/84 9/104/110 21/82/86
f 21/82/86 9/104/111 23/103/109
f 9/104/111 8/105/112 23/103/109
f 23/59/51 8/106/113 3/57/8
f 12/107/114 19/9/9 3/8/8
f 11/108/115 19/9/9 12/107/114
f 11/109/115 18/110/95 19/111/9
f 10/2/116 16/1/117 11/109/115
f 16/1/117 15/112/118 11/109/115
f 11/109/115 15/112/118 18/110/95
f 15/112/118 14/113/119 18/110/95
f 18/110/95 14/113/119 2/114/5
f 14/113/119 17/115/6 2/114/5
f 16/1/117 82/4/120 15/112/118
f 15/112/118 82/4/120 14/113/119
f 82/116/120 83/90/97 14/117/119
f 14/117/119 83/90/97 17/6/6
f 82/116/120 13/118/121 83/90/97
f 13/118/121 1/91/98 83/90/97
f 13/118/122 84/94/103 1/91/123
f 1/91/123 84/94/103 78/93/101
f 82/116/4 6/119/3 13/118/124
f 13/118/124 6/119/3 84/94/103
f 6/119/3 7/11/11 84/94/103
f 8/105/125 12/107/114 3/8/8
f 9/104/110 12/107/126 8/105/127
f 22/81/84 85/120/128 9/104/110
f 9/104/110 85/120/128 12/107/126
f 12/121/114 10/2/116 11/109/115
f 85/120/128 10/122/2 12/107/126
f 6/123/3 86/99/105 7/97/11
f 10/122/2 85/120/128 6/119/3
f 6/119/3 85/120/128 86/124/105
f 85/125/128 22/101/84 86/99/105
