# Blender v3.4.1 OBJ File: 'Forest_Nature_Pack_Export.blend'
# www.blender.org
mtllib Rock_3_J_Color1.mtl
o Rock_3_J_Color1
v 0.184706 0.907618 0.296880
v -0.774282 0.830388 0.465860
v -0.739130 -0.185851 0.537187
v 0.204989 -0.652209 0.568853
v 0.722709 0.373616 -0.443752
v 0.148575 -0.510127 -0.828861
v 0.117530 0.538732 0.731618
v 0.043188 0.290962 0.879501
v 0.397295 0.134614 0.810534
v 0.401263 -0.388056 0.712040
v 0.125594 -0.082684 0.838513
v 0.179318 -0.419171 0.745959
v -0.041582 0.859833 0.520124
v -0.433872 0.078943 0.878214
v -0.203154 0.334768 0.907334
v -0.780273 0.314242 0.407161
v -0.872119 -0.019099 0.419953
v -0.034210 -0.470443 0.619744
v 0.889416 -0.631662 0.009799
v 0.383616 -0.709525 0.318901
v 0.381024 -0.825204 -0.085526
v 0.681488 -0.762696 -0.378606
v 0.876427 0.481788 -0.014335
v 0.582527 0.805937 0.183869
v 0.897746 -0.314485 0.316148
v 1.058562 -0.228293 -0.037127
v 0.996538 0.120882 -0.291141
v -0.707190 0.856750 0.182021
v -0.150862 0.688525 -0.585072
v -0.801808 0.074191 -0.420941
v -0.862371 -0.068778 -0.066653
v -0.905835 -0.267390 0.183263
v -0.806722 0.632563 0.188318
v -0.735919 0.381505 -0.376692
v -0.107812 -0.917388 -0.161827
v 0.072881 -0.823058 0.276995
v -0.656267 -0.472765 0.321519
v -0.575874 -0.689767 -0.049305
v -0.256248 -0.866389 -0.334086
v 0.957823 -0.397283 -0.564036
v 0.364655 0.524525 -0.665064
v 0.138789 0.672377 -0.591941
v -0.303071 0.576634 -0.676521
v 0.374203 -0.215105 -0.744580
v 0.766162 -0.176530 -0.650256
v 0.414958 -0.690688 -0.678481
v -0.010689 0.408907 -0.703762
v 0.072966 -0.064378 -0.749025
v -0.212086 0.069844 -0.724695
v 0.033380 -0.807198 -0.643481
v 0.240908 -0.747948 -0.789415
v 0.208394 -0.825634 -0.736842
v -0.172371 -0.379740 -0.746295
v -0.416759 -0.617008 -0.505330
v -0.590399 -0.007213 -0.597499
v -0.408543 0.372550 -0.648014
v 0.394157 0.202907 -0.687747
v 0.797626 -0.579397 -0.613605
v 0.395026 -0.835572 -0.405042
v 0.166914 -0.907789 -0.393320
v -0.776533 -0.449125 -0.113428
v -0.747256 -0.284287 -0.405457
v -0.747095 0.675687 -0.199768
v -0.524324 0.692819 -0.414285
v 0.424410 0.839021 -0.152589
v 0.574611 0.634718 -0.429366
v 1.067073 -0.219757 -0.367489
v 1.014020 -0.525468 -0.337293
v -0.464879 -0.747710 0.149635
v -0.324877 -0.643793 0.393592
v -0.862220 0.152145 -0.233778
v -0.852606 0.314104 0.047101
v -0.124943 0.885997 -0.181127
v -0.399501 0.978321 0.260827
v 0.561790 0.680837 0.376901
v 0.834558 0.185080 0.323673
v 0.734147 -0.540349 0.345052
v -0.371273 -0.266936 0.665623
v -0.690759 0.233759 0.725515
v -0.510190 0.607068 0.871947
v -0.707316 0.702675 0.659103
v -0.529798 0.915973 0.643538
v -0.247871 0.716982 0.765593
v 0.606926 -0.178960 0.700760
v 0.379637 0.517043 0.566379
v 0.572364 0.147081 0.607907
vt 0.060164 0.375179
vt 0.054016 0.369194
vt 0.049324 0.373322
vt 0.088229 0.384010
vt 0.085359 0.382010
vt 0.083109 0.368123
vt 0.094353 0.337060
vt 0.092757 0.362059
vt 0.091740 0.354431
vt 0.074908 0.339465
vt 0.081398 0.327646
vt 0.076692 0.332169
vt 0.086849 0.360878
vt 0.092988 0.329741
vt 0.067004 0.313502
vt 0.058173 0.356472
vt 0.051377 0.353035
vt 0.052804 0.349178
vt 0.073612 0.304527
vt 0.073627 0.310304
vt 0.064876 0.304893
vt 0.050434 0.314489
vt 0.055327 0.332547
vt 0.058280 0.336455
vt 0.064876 0.313939
vt 0.060311 0.331253
vt 0.066177 0.324441
vt 0.056704 0.335557
vt 0.066177 0.315395
vt 0.062507 0.331723
vt 0.056704 0.326511
vt 0.076090 0.333422
vt 0.054083 0.339406
vt 0.065717 0.340206
vt 0.065717 0.349252
vt 0.061643 0.372800
vt 0.047289 0.329072
vt 0.044142 0.331217
vt 0.047289 0.320027
vt 0.045800 0.367373
vt 0.043452 0.342202
vt 0.039290 0.343215
vt 0.039111 0.333945
vt 0.038190 0.316888
vt 0.050423 0.305441
vt 0.041759 0.304536
vt 0.036288 0.308162
vt 0.048577 0.302877
vt 0.064079 0.302703
vt 0.057392 0.302722
vt 0.066388 0.302647
vt 0.067700 0.311853
vt 0.077631 0.312075
vt 0.075308 0.303191
vt 0.089200 0.314649
vt 0.093380 0.321886
vt 0.088937 0.323184
vt 0.083273 0.324767
vt 0.088937 0.332230
vt 0.087712 0.339469
vt 0.087712 0.330423
vt 0.080886 0.337130
vt 0.077403 0.377689
vt 0.076971 0.352792
vt 0.076971 0.343747
vt 0.069052 0.375183
vt 0.063677 0.356841
vt 0.051377 0.343989
vt 0.057605 0.348598
vt 0.048316 0.374608
vt 0.058151 0.363466
vt 0.041730 0.366635
vt 0.040699 0.361637
vt 0.036139 0.326466
vt 0.040879 0.311017
vt 0.035956 0.314928
vt 0.039639 0.304973
vt 0.050990 0.313008
vt 0.048473 0.303859
vt 0.084978 0.318530
vt 0.089920 0.313977
vt 0.087454 0.313831
vt 0.084896 0.336754
vt 0.088589 0.344063
vt 0.086849 0.351832
vt 0.091709 0.353102
vt 0.091709 0.344056
vt 0.073087 0.357434
vt 0.083109 0.359077
vt 0.078190 0.363058
vt 0.059961 0.354422
vt 0.082454 0.362249
vt 0.071242 0.357090
vt 0.036139 0.335512
vt 0.040163 0.331663
vt 0.046905 0.339368
vt 0.049783 0.328577
vt 0.054333 0.308942
vt 0.067004 0.304456
vt 0.070151 0.314949
vt 0.071642 0.345573
vt 0.076892 0.345357
vt 0.076711 0.336064
vt 0.090533 0.335611
vt 0.081398 0.318600
vt 0.090533 0.326565
vt 0.079046 0.336341
vt 0.085351 0.340855
vt 0.076711 0.327018
vt 0.085351 0.349901
vt 0.090003 0.363057
vt 0.094353 0.328014
vt 0.092298 0.366546
vt 0.088268 0.379482
vt 0.088807 0.383379
vt 0.081031 0.363506
vt 0.070529 0.364621
vt 0.081031 0.354461
vt 0.073431 0.346008
vt 0.067778 0.349729
vt 0.056619 0.323028
vt 0.064566 0.347883
vt 0.061572 0.322491
vt 0.060986 0.338770
vt 0.067229 0.357133
vt 0.075346 0.344604
vt 0.064613 0.341766
vt 0.064613 0.350812
vt 0.070011 0.347006
vn 0.2355 0.9444 0.2292
vn 0.5766 0.5253 0.6258
vn 0.3487 0.7690 0.5358
vn -0.3357 0.9419 0.0081
vn -0.3565 0.9341 0.0172
vn -0.3310 0.9254 -0.1848
vn -0.6294 -0.4411 0.6398
vn -0.8014 -0.2606 0.5384
vn -0.7350 -0.5933 0.3282
vn -0.3696 -0.6673 0.6466
vn -0.2615 -0.5651 0.7824
vn -0.2414 -0.7131 0.6582
vn -0.9015 0.3953 -0.1764
vn -0.9065 0.3985 -0.1394
vn -0.9358 0.3178 -0.1528
vn -0.6087 -0.6431 0.4647
vn 0.3918 -0.7348 0.5537
vn 0.2427 -0.9345 0.2605
vn 0.3595 -0.8498 0.3854
vn 0.0996 0.4307 -0.8970
vn -0.0169 0.3988 -0.9169
vn -0.0023 0.2090 -0.9779
vn -0.5659 -0.6822 -0.4630
vn -0.5814 -0.5248 -0.6218
vn -0.4425 -0.4392 -0.7819
vn 0.3663 -0.0519 -0.9291
vn 0.5220 0.0616 -0.8507
vn 0.4704 -0.0402 -0.8815
vn -0.4775 -0.3316 -0.8137
vn -0.4115 -0.3623 -0.8363
vn 0.5582 -0.6124 -0.5597
vn -0.4692 -0.3518 -0.8100
vn 0.2750 -0.7041 0.6546
vn -0.3483 -0.1573 -0.9241
vn -0.0573 0.1666 -0.9844
vn 0.0010 0.1137 -0.9935
vn -0.1852 0.0642 -0.9806
vn -0.5270 -0.0265 -0.8495
vn -0.4394 0.1530 -0.8852
vn -0.1322 -0.0698 -0.9888
vn 0.1833 0.4605 -0.8685
vn 0.2085 0.0552 -0.9765
vn 0.2719 0.1612 -0.9487
vn 0.0344 0.2149 -0.9760
vn 0.5773 0.2141 -0.7880
vn 0.6679 0.3949 -0.6308
vn 0.4473 0.1512 -0.8815
vn 0.2426 -0.0691 -0.9677
vn 0.3540 -0.0573 -0.9335
vn 0.4008 -0.8986 -0.1785
vn 0.2646 -0.8496 -0.4563
vn 0.5364 -0.7330 -0.4182
vn 0.2678 -0.9483 0.1701
vn 0.2730 -0.9610 0.0431
vn 0.2546 -0.8621 -0.4382
vn 0.2182 -0.9699 0.1084
vn 0.2325 -0.8607 -0.4530
vn 0.2198 -0.8588 -0.4627
vn 0.1612 -0.9760 0.1464
vn -0.1973 -0.9415 -0.2732
vn -0.1111 -0.9612 -0.2525
vn -0.1439 -0.9547 -0.2606
vn -0.0565 -0.9695 -0.2384
vn -0.6731 -0.6569 -0.3397
vn -0.7372 -0.6544 0.1683
vn -0.6534 -0.7471 0.1221
vn -0.6922 -0.6197 -0.3700
vn -0.7075 -0.5827 -0.3999
vn -0.5677 -0.2270 -0.7913
vn -0.9373 -0.1744 -0.3016
vn -0.9912 -0.0501 -0.1223
vn -0.9517 -0.1846 -0.2453
vn -0.9608 -0.1742 -0.2156
vn -0.9591 -0.1643 -0.2303
vn -0.6181 0.0888 -0.7811
vn -0.9817 0.1334 -0.1360
vn -0.9396 0.2430 -0.2410
vn -0.6173 0.2840 -0.7337
vn -0.6593 0.3690 -0.6552
vn -0.6406 0.3246 -0.6959
vn -0.6802 0.2555 -0.6871
vn -0.2596 0.8775 -0.4032
vn -0.4076 0.8408 -0.3562
vn -0.1123 0.8740 -0.4728
vn -0.2464 0.7919 -0.5588
vn -0.0320 0.9520 -0.3045
vn 0.1571 0.8629 -0.4804
vn 0.1714 0.9510 -0.2573
vn 0.2647 0.8110 -0.5218
vn 0.2897 0.7418 -0.6049
vn 0.6920 0.5488 -0.4690
vn 0.2426 0.9699 -0.0186
vn 0.6458 0.7274 -0.2320
vn 0.7109 0.6286 -0.3154
vn 0.6451 0.7339 -0.2128
vn 0.7012 0.3901 -0.5968
vn 0.9736 -0.0404 0.2245
vn 0.9970 -0.0419 -0.0657
vn 0.9701 0.2296 0.0787
vn 0.6753 0.3031 -0.6723
vn 0.6722 0.3236 -0.6659
vn 0.8481 -0.5119 -0.1367
vn 0.8262 -0.3774 -0.4182
vn 0.7663 -0.4062 0.4977
vn 0.8664 -0.3822 0.3213
vn -0.3097 -0.8954 0.3200
vn -0.1881 -0.9082 0.3739
vn -0.2192 -0.9065 0.3609
vn -0.3855 -0.9208 0.0596
vn -0.5819 -0.7716 0.2570
vn -0.4109 -0.9105 0.0461
vn -0.0625 -0.9048 0.4213
vn -0.3263 -0.6473 0.6888
vn -0.9735 0.1067 -0.2022
vn -0.8876 0.2463 -0.3891
vn -0.9931 0.1170 0.0116
vn -0.9849 0.1690 -0.0370
vn -0.9676 0.2460 0.0566
vn -0.9720 0.1127 0.2063
vn -0.9789 0.0154 0.2036
vn -0.1049 0.9935 -0.0452
vn 0.1646 0.9631 0.2129
vn 0.2658 0.8162 0.5130
vn 0.7880 0.4746 0.3922
vn 0.8799 0.3327 0.3392
vn 0.8095 0.2349 0.5381
vn 0.8437 0.1295 0.5210
vn 0.5309 -0.6619 0.5292
vn 0.3913 -0.9006 0.1892
vn 0.3408 -0.4599 0.8200
vn -0.3821 -0.4266 0.8197
vn -0.2064 -0.4428 0.8725
vn -0.2768 -0.5491 0.7886
vn 0.1168 -0.0828 0.9897
vn -0.0203 -0.0729 0.9971
vn 0.1646 -0.1427 0.9760
vn -0.0357 -0.0811 0.9961
vn -0.4136 -0.3666 0.8334
vn -0.6304 -0.1301 0.7653
vn -0.1193 -0.0055 0.9928
vn -0.9481 0.1164 0.2960
vn -0.6613 0.0258 0.7497
vn -0.7151 0.0732 0.6952
vn -0.9723 -0.0287 0.2320
vn -0.9606 -0.1606 0.2268
vn -0.5649 0.5171 0.6430
vn -0.5653 0.5174 0.6424
vn -0.6087 0.5484 0.5734
vn -0.5219 0.4855 0.7014
vn 0.1821 0.3605 0.9148
vn 0.2326 0.5702 0.7879
vn 0.1497 0.4795 0.8647
vn 0.1574 0.6688 0.7266
vn 0.2843 0.3994 0.8716
vn 0.4061 0.5173 0.7534
vn 0.1935 -0.4070 0.8927
vn 0.5746 -0.4624 0.6753
vn 0.2375 -0.1787 0.9548
vn 0.6944 0.3240 0.6425
vn 0.7875 0.2446 0.5658
vn 0.6122 0.4409 0.6564
vn 0.2059 -0.1326 0.9695
vn 0.4968 0.4290 0.7544
usemtl forest
s 1
f 1/1/1 75/2/2 24/3/3
f 2/4/4 82/5/5 28/6/6
f 3/7/7 17/8/8 32/9/9
f 4/10/10 18/11/11 36/12/12
f 2/4/13 28/6/14 33/13/15
f 3/7/7 32/9/9 37/14/16
f 4/10/17 36/12/18 20/15/19
f 29/16/20 42/17/21 47/18/22
f 39/19/23 54/20/24 50/21/25
f 46/22/26 51/23/27 6/24/28
f 51/23/29 50/25/25 6/24/30
f 46/22/31 52/26/31 51/23/31
f 51/23/29 52/26/32 50/25/25
f 46/22/33 50/25/33 52/26/33
f 50/25/25 53/27/34 6/24/30
f 6/24/35 53/27/34 48/28/36
f 53/29/34 49/30/37 48/31/36
f 50/21/25 54/20/24 53/29/34
f 54/20/24 55/32/38 53/29/34
f 53/29/34 55/32/38 49/30/37
f 49/30/37 47/33/22 48/31/36
f 55/32/38 56/34/39 49/30/37
f 49/30/37 56/34/39 47/33/22
f 56/35/39 43/36/40 47/18/22
f 43/36/41 29/16/20 47/18/22
f 48/28/36 44/37/42 6/24/35
f 47/33/22 57/38/43 48/31/36
f 48/31/36 57/38/43 44/39/42
f 42/17/21 41/40/44 47/18/22
f 47/18/22 41/40/44 57/41/43
f 41/40/45 5/42/46 57/41/43
f 57/38/43 5/43/46 45/44/47
f 44/37/42 46/22/26 6/24/28
f 57/38/43 45/44/47 44/39/42
f 44/39/42 45/44/47 46/45/26
f 45/44/47 58/46/48 46/45/26
f 45/44/47 40/47/49 58/46/48
f 22/48/50 46/45/51 58/46/52
f 21/49/53 59/50/54 22/48/50
f 22/48/50 59/50/55 46/45/51
f 21/49/53 60/51/56 59/50/54
f 59/50/55 60/51/57 46/45/51
f 60/51/57 50/21/58 46/45/51
f 20/15/19 36/12/18 21/52/53
f 36/12/18 35/53/59 21/52/53
f 21/49/53 35/54/59 60/51/56
f 60/51/60 35/54/61 50/21/62
f 35/54/61 39/19/63 50/21/62
f 38/55/64 54/20/24 39/19/23
f 37/56/16 61/57/65 38/55/66
f 38/55/64 61/57/67 54/20/24
f 61/57/67 62/58/68 54/20/24
f 62/58/69 55/32/38 54/20/24
f 37/14/16 32/9/9 61/59/65
f 32/9/70 31/60/71 61/59/72
f 61/57/72 31/61/71 62/58/73
f 31/61/71 30/62/74 62/58/73
f 62/58/69 30/62/75 55/32/38
f 33/13/15 63/63/76 34/64/77
f 30/62/75 34/65/78 55/32/38
f 34/65/78 56/34/39 55/32/38
f 63/63/79 64/66/80 34/64/78
f 34/64/78 64/66/80 56/35/39
f 64/66/80 43/36/81 56/35/39
f 33/13/15 28/6/14 63/63/76
f 28/6/6 64/66/82 63/63/83
f 64/66/82 29/16/84 43/36/85
f 73/67/86 42/68/87 29/69/84
f 1/1/1 65/70/88 73/71/86
f 73/71/86 65/70/88 42/17/87
f 65/70/88 66/72/89 42/17/87
f 42/17/87 66/72/89 41/40/90
f 66/72/91 5/42/46 41/40/45
f 1/1/1 24/3/92 65/70/88
f 24/3/93 23/73/94 65/70/95
f 65/70/95 23/73/94 66/72/91
f 23/73/94 5/42/46 66/72/91
f 27/74/96 45/44/47 5/43/46
f 26/75/97 67/76/98 27/74/99
f 27/74/96 67/76/100 45/44/47
f 67/76/100 40/47/101 45/44/47
f 26/75/97 68/77/102 67/76/98
f 67/76/98 68/77/102 40/47/103
f 68/77/102 58/46/52 40/47/103
f 25/78/104 19/79/105 26/75/97
f 26/75/97 19/79/105 68/77/102
f 36/12/106 70/80/107 35/53/108
f 35/54/109 69/81/110 39/19/111
f 69/81/110 38/55/66 39/19/111
f 35/54/108 70/82/107 69/81/112
f 69/81/110 37/56/16 38/55/66
f 36/12/12 18/11/11 70/80/113
f 70/82/113 37/56/16 69/81/110
f 31/61/71 71/83/114 30/62/74
f 71/83/114 34/65/77 30/62/115
f 31/61/71 72/84/116 71/83/114
f 71/83/114 72/84/116 34/65/77
f 72/84/116 33/85/15 34/65/77
f 32/9/117 17/8/118 31/60/71
f 17/8/118 16/86/119 31/60/71
f 31/61/71 16/87/119 72/84/116
f 16/87/119 33/85/120 72/84/116
f 64/88/82 73/67/86 29/69/84
f 28/89/6 74/90/121 64/88/82
f 64/88/82 74/90/121 73/67/86
f 74/90/121 1/91/1 73/67/86
f 28/89/6 82/92/5 74/90/121
f 82/92/122 13/93/123 74/90/121
f 74/90/121 13/93/123 1/91/1
f 24/3/124 75/2/2 23/73/125
f 5/42/46 23/73/94 27/94/96
f 23/73/125 26/95/97 27/94/99
f 75/2/2 76/96/126 23/73/125
f 23/73/125 76/96/126 26/95/97
f 76/97/126 25/78/127 26/75/97
f 68/77/102 22/48/50 58/46/52
f 25/78/104 77/98/128 19/79/105
f 68/77/102 19/79/129 22/48/50
f 19/79/129 21/49/53 22/48/50
f 19/79/129 77/98/128 21/49/53
f 77/98/128 20/99/19 21/49/53
f 77/98/128 10/100/130 20/99/19
f 10/101/130 4/10/17 20/15/19
f 12/102/131 18/11/11 4/10/10
f 11/103/132 18/11/11 12/102/131
f 11/103/132 78/104/133 18/11/11
f 18/105/11 78/106/133 70/82/113
f 78/106/133 37/56/16 70/82/113
f 8/107/134 15/108/135 11/109/136
f 15/110/135 14/111/137 11/103/136
f 11/103/132 14/111/138 78/104/133
f 14/111/138 3/7/7 78/104/133
f 78/106/133 3/112/7 37/56/16
f 14/111/138 79/113/139 3/7/7
f 15/110/135 80/114/140 14/111/137
f 3/7/7 79/113/139 17/8/8
f 79/113/141 16/86/119 17/8/118
f 14/111/138 80/114/142 79/113/139
f 80/114/142 81/115/143 79/113/139
f 79/113/141 81/115/144 16/86/119
f 81/115/144 33/13/120 16/86/119
f 81/115/144 2/4/145 33/13/120
f 81/115/146 82/5/147 2/4/148
f 80/114/149 82/5/147 81/115/146
f 15/110/150 83/116/151 80/114/152
f 80/114/152 83/116/151 82/5/153
f 83/116/151 13/117/123 82/5/153
f 15/108/150 8/107/154 83/118/151
f 8/107/154 7/119/155 83/118/151
f 7/119/155 13/120/123 83/118/151
f 10/101/130 12/102/156 4/10/17
f 25/121/104 84/122/157 77/123/128
f 10/101/130 11/103/136 12/102/156
f 77/123/128 84/122/157 10/101/130
f 84/122/158 11/103/136 10/101/130
f 25/121/127 86/124/159 84/122/160
f 86/124/159 9/125/161 84/122/160
f 84/122/158 9/125/162 11/103/136
f 9/125/162 8/126/134 11/103/136
f 13/117/123 75/2/2 1/1/1
f 7/119/155 85/127/163 13/120/123
f 13/117/123 85/128/163 75/2/2
f 85/128/163 76/96/126 75/2/2
f 7/129/155 86/124/159 85/128/163
f 85/128/163 86/124/159 76/96/126
f 8/126/154 9/125/161 7/129/155
f 7/129/155 9/125/161 86/124/159
f 86/124/159 25/78/127 76/97/126
