# Blender v3.4.1 OBJ File: 'Forest_Nature_Pack_Export.blend'
# www.blender.org
mtllib Rock_1_G_Color1.mtl
o Rock_1_G_Color1
v -0.143726 0.000000 0.052391
v -1.144816 0.884903 -0.483021
v -0.396200 0.884903 -0.726500
v 0.214667 0.884903 -0.702822
v 0.410789 0.884903 -0.309380
v 0.399057 0.884903 0.303884
v 0.293873 0.884903 0.674036
v -0.205825 0.884903 0.724344
v -0.852784 0.884903 0.475128
v -0.372100 1.435616 -0.552781
v -0.930253 1.435616 -0.371248
v 0.105775 1.435616 -0.534258
v 0.410789 1.435616 -0.309380
v 0.399057 1.435616 0.303884
v 0.293873 1.435616 0.674036
v -0.205825 1.435616 0.724344
v -0.852784 1.435616 0.475128
v -0.151024 1.867752 0.054499
v -0.372100 1.817752 -0.552781
v -0.930253 1.817752 -0.371248
v 0.105775 1.817752 -0.534258
v 0.410789 1.817752 -0.309380
v 0.399057 1.817752 0.303884
v 0.293873 1.817752 0.674036
v -0.205825 1.817752 0.724344
v -0.852784 1.817752 0.475128
v 0.548060 0.884903 0.302108
v 0.600216 0.834903 0.301487
v 0.404747 0.884903 0.806439
v 0.443557 0.834903 0.852784
v -0.262023 0.834903 0.923819
v -0.247452 0.884903 0.872099
v -0.389221 1.435616 -0.676192
v -0.396200 1.385616 -0.726500
v -1.082680 1.435616 -0.450652
v -1.144816 1.385616 -0.483021
v 0.214667 1.385616 -0.702822
v 0.183132 1.435616 -0.654006
v -0.396200 0.000000 -0.726500
v -1.144816 0.000000 -0.483021
v 0.214667 0.000000 -0.702822
v 0.410789 0.000000 -0.309380
v 0.600216 0.000000 0.301487
v 0.443557 0.000000 0.852784
v -0.262023 0.000000 0.923819
v -0.852784 0.000000 0.475128
v -0.876822 1.867752 -0.336048
v -0.365120 1.867752 -0.502473
v 0.088478 1.867752 -0.484891
v 0.360304 1.867752 -0.284481
v 0.349190 1.867752 0.296449
v 0.255063 1.867752 0.627691
v -0.198974 1.867752 0.673401
v -0.805824 1.867752 0.439636
vt 0.042703 0.372584
vt 0.040374 0.372584
vt 0.035788 0.372584
vt 0.086392 0.296669
vt 0.080695 0.296669
vt 0.080695 0.325523
vt 0.086392 0.323737
vt 0.074798 0.296669
vt 0.074798 0.325523
vt 0.056432 0.296669
vt 0.033921 0.296669
vt 0.033921 0.325523
vt 0.056432 0.325523
vt 0.042703 0.296669
vt 0.042703 0.325523
vt 0.060465 0.296669
vt 0.060465 0.323737
vt 0.077180 0.352912
vt 0.062156 0.352912
vt 0.060904 0.352912
vt 0.080514 0.352912
vt 0.042703 0.352912
vt 0.081680 0.296669
vt 0.081680 0.323737
vt 0.080695 0.352912
vt 0.080342 0.352912
vt 0.084822 0.352912
vt 0.057157 0.372584
vt 0.056641 0.372584
vt 0.080695 0.345194
vt 0.071524 0.345194
vt 0.071524 0.358844
vt 0.080695 0.358844
vt 0.062156 0.325523
vt 0.077180 0.325523
vt 0.077180 0.345194
vt 0.062156 0.345194
vt 0.080342 0.325523
vt 0.080342 0.345194
vt 0.033921 0.343408
vt 0.056432 0.343408
vt 0.042703 0.345194
vt 0.071524 0.372584
vt 0.080695 0.372584
vt 0.073850 0.372584
vt 0.074798 0.343408
vt 0.057157 0.345194
vt 0.057157 0.358844
vt 0.062156 0.358844
vt 0.042703 0.358844
vt 0.080342 0.358844
vt 0.077180 0.358844
vt 0.040374 0.345194
vt 0.040374 0.358844
vt 0.041979 0.360630
vt 0.057366 0.360630
vt 0.071006 0.360630
vt 0.079177 0.360630
vt 0.078843 0.360630
vt 0.076014 0.360630
vt 0.062362 0.360630
vt 0.044113 0.360630
vt 0.084822 0.325523
vt 0.060904 0.325523
vt 0.035788 0.345194
vt 0.073850 0.345194
vt 0.080514 0.325523
vt 0.056641 0.345194
vt 0.064022 0.296669
vt 0.063803 0.388020
vt 0.057366 0.388020
vt 0.041979 0.388020
vt 0.071006 0.388020
vt 0.079177 0.388020
vt 0.078843 0.388020
vt 0.076014 0.388020
vt 0.062362 0.388020
vt 0.044113 0.388020
vn 0.0000 1.0000 -0.0000
vn 0.9999 0.0000 -0.0119
vn 0.9281 0.0000 -0.3724
vn 0.9545 0.0000 -0.2981
vn 0.9998 0.0000 -0.0191
vn 0.8950 0.0000 -0.4461
vn -0.1374 0.0000 -0.9905
vn -0.3093 0.0000 -0.9510
vn -0.9566 0.0000 0.2915
vn -0.8205 0.0000 0.5717
vn -0.8800 0.0000 0.4750
vn -0.6048 0.0000 0.7963
vn 0.0387 0.0000 -0.9992
vn 0.9619 0.0000 0.2733
vn 0.1002 0.0000 0.9950
vn 0.5934 0.0000 -0.8049
vn 0.3307 0.0000 -0.9437
vn -0.1333 0.0000 0.9911
vn 0.9891 0.0000 0.1475
vn 0.9913 0.0000 -0.1316
vn -0.3595 0.0000 0.9332
vn -0.9958 0.0000 0.0911
vn 0.9998 0.0000 0.0191
vn -0.0964 0.7126 -0.6949
vn -0.2187 0.7071 -0.6724
vn 0.2285 0.7229 -0.6521
vn 0.5956 0.7477 -0.2937
vn 0.6965 0.7100 0.1038
vn 0.6802 0.7071 0.1933
vn -0.0929 0.7168 0.6911
vn 0.0708 0.7071 0.7036
vn -0.2542 0.7071 0.6598
vn -0.7042 0.7071 0.0645
vn 0.6920 0.7215 0.0232
vn 0.6920 0.7215 0.0239
vn 0.6829 0.7142 -0.1533
vn -0.1562 0.7318 0.6634
vn -0.1574 0.7318 0.6631
vn -0.3830 0.7157 0.5840
vn -0.6693 0.7242 0.1662
vn 0.3058 0.7568 -0.5777
vn 0.3092 0.7570 -0.5756
vn 0.5713 0.7288 -0.3774
vn 0.0000 -1.0000 0.0000
usemtl forest
s 1
f 17/1/1 11/2/1 35/3/1
f 43/4/2 42/5/3 5/6/4 28/7/5
f 42/5/3 41/8/6 4/9/6 5/6/4
f 39/10/7 40/11/8 2/12/8 3/13/7
f 40/11/9 46/14/10 9/15/11 2/12/9
f 46/14/10 45/16/12 31/17/12 9/15/11
f 7/18/1 8/19/1 32/20/1 29/21/1
f 41/8/13 39/10/7 3/13/7 4/9/13
f 8/19/1 9/22/1 32/20/1
f 44/23/14 43/4/2 28/7/5 30/24/14
f 5/25/1 6/26/1 27/27/1
f 45/16/15 44/23/15 30/24/15 31/17/15
f 11/2/1 10/28/1 33/29/1 35/3/1
f 13/30/16 12/31/17 21/32/17 22/33/16
f 8/34/18 7/35/15 15/36/15 16/37/18
f 6/38/19 5/6/4 13/30/20 14/39/19
f 3/13/7 2/12/8 36/40/8 34/41/7
f 9/15/21 8/34/18 16/37/18 17/42/21
f 7/35/14 6/38/19 14/39/19 15/36/14
f 12/43/1 13/44/1 38/45/1
f 10/28/1 12/43/1 38/45/1 33/29/1
f 4/9/13 3/13/7 34/41/7 37/46/13
f 2/12/9 9/15/11 17/42/9 36/40/9
f 5/6/4 4/9/6 37/46/6 13/30/20
f 12/31/17 10/47/7 19/48/7 21/32/17
f 17/42/21 16/37/18 25/49/18 26/50/21
f 15/36/14 14/39/19 23/51/19 24/52/14
f 11/53/22 17/42/22 26/50/22 20/54/22
f 16/37/18 15/36/15 24/52/15 25/49/18
f 14/39/19 13/30/20 22/33/23 23/51/19
f 19/48/24 20/54/25 47/55/25 48/56/24
f 21/32/26 19/48/24 48/56/24 49/57/26
f 22/33/27 21/32/26 49/57/26 50/58/27
f 23/51/28 22/33/27 50/58/27 51/59/28
f 24/52/29 23/51/28 51/59/28 52/60/29
f 25/49/30 24/52/31 52/60/31 53/61/30
f 26/50/32 25/49/30 53/61/30 54/62/32
f 20/54/33 26/50/33 54/62/33 47/55/33
f 10/47/7 11/53/8 20/54/8 19/48/7
f 27/63/34 28/7/35 5/6/36
f 31/17/37 32/64/38 9/15/39
f 35/65/40 36/40/40 17/42/40
f 37/46/41 38/66/42 13/30/43
f 30/24/29 28/7/35 27/63/34 29/67/29
f 31/17/37 30/24/31 29/67/31 32/64/38
f 34/41/24 36/40/25 35/65/25 33/68/24
f 37/46/41 34/41/24 33/68/24 38/66/42
f 6/26/1 7/18/1 29/21/1 27/27/1
f 1/69/44 40/11/44 39/10/44
f 1/69/44 39/10/44 41/8/44
f 1/69/44 41/8/44 42/5/44
f 1/69/44 42/5/44 43/4/44
f 1/69/44 43/4/44 44/23/44
f 1/69/44 44/23/44 45/16/44
f 1/69/44 45/16/44 46/14/44
f 1/69/44 46/14/44 40/11/44
f 18/70/1 48/71/1 47/72/1
f 18/70/1 49/73/1 48/71/1
f 18/70/1 50/74/1 49/73/1
f 18/70/1 51/75/1 50/74/1
f 18/70/1 52/76/1 51/75/1
f 18/70/1 53/77/1 52/76/1
f 18/70/1 54/78/1 53/77/1
f 18/70/1 47/72/1 54/78/1
