# Blender v3.4.1 OBJ File: 'Forest_Nature_Pack_Export.blend'
# www.blender.org
mtllib Rock_3_B_Color1.mtl
o Rock_3_B_Color1
v -0.209329 0.143125 -0.366475
v -0.239249 0.501471 -0.161809
v 0.115918 0.412049 0.133218
v -0.037698 -0.346633 0.305161
v 0.028525 0.149306 -0.369262
v 0.382465 0.082513 -0.078444
v 0.277800 0.189087 -0.217774
v 0.121072 0.314856 -0.280856
v 0.378383 -0.295433 -0.068836
v 0.291813 -0.382949 0.175352
v -0.052121 -0.300558 -0.334982
v -0.119810 -0.087854 -0.418534
v 0.257685 -0.342455 -0.221229
v 0.089972 -0.496609 -0.146201
v -0.412753 -0.093876 -0.054640
v -0.172181 0.294466 0.263140
v 0.030420 0.379487 0.256643
v -0.319588 0.408658 -0.056347
v -0.288827 0.179347 0.279561
v 0.235622 -0.081344 0.388596
v 0.399667 -0.040871 0.109807
v 0.060635 0.196285 0.396207
v 0.145094 -0.422643 0.295264
v -0.380266 -0.061203 0.154373
v 0.109012 -0.321862 0.403036
v -0.111939 -0.178689 0.372282
v -0.065329 0.064654 0.428225
v -0.241518 0.024484 0.346327
v -0.288194 -0.297484 -0.008562
v 0.095964 -0.526201 0.063585
v 0.239984 -0.291694 0.353640
v -0.419498 0.212723 0.055227
v -0.287122 -0.124978 -0.298308
v -0.232164 -0.327135 -0.175062
v 0.250817 -0.511867 -0.019881
v 0.251358 0.199808 0.255615
v -0.367214 0.203942 -0.205223
v 0.116130 -0.175792 -0.355169
v 0.159362 0.394397 -0.085909
v -0.039774 0.476905 -0.015902
v -0.077640 0.451347 -0.260213
v -0.253047 0.429317 -0.261979
v 0.345622 -0.053125 -0.249239
v 0.231939 0.053026 -0.324420
vt 0.088359 0.377367
vt 0.085359 0.375759
vt 0.083882 0.362437
vt 0.094353 0.336839
vt 0.092049 0.353886
vt 0.092988 0.330502
vt 0.074450 0.308099
vt 0.081078 0.323346
vt 0.064876 0.308987
vt 0.050434 0.317297
vt 0.058822 0.330946
vt 0.058081 0.336200
vt 0.066177 0.325913
vt 0.065983 0.318826
vt 0.076090 0.333689
vt 0.065070 0.339525
vt 0.049613 0.323477
vt 0.044142 0.331780
vt 0.055271 0.352376
vt 0.045750 0.362622
vt 0.061205 0.366381
vt 0.039111 0.334142
vt 0.037710 0.311830
vt 0.050423 0.309462
vt 0.051295 0.307216
vt 0.066399 0.307043
vt 0.074417 0.334314
vt 0.077631 0.315206
vt 0.067700 0.315014
vt 0.088998 0.323102
vt 0.088937 0.332657
vt 0.087712 0.338925
vt 0.086112 0.336965
vt 0.080138 0.337995
vt 0.076269 0.371723
vt 0.076971 0.350461
vt 0.062333 0.367932
vt 0.048316 0.369350
vt 0.058151 0.359703
vt 0.041469 0.360282
vt 0.050846 0.367077
vt 0.040699 0.358119
vt 0.036007 0.320476
vt 0.045331 0.315049
vt 0.039639 0.309057
vt 0.050724 0.309783
vt 0.084978 0.320795
vt 0.089951 0.317671
vt 0.075769 0.343321
vt 0.086849 0.349629
vt 0.092195 0.360330
vt 0.091709 0.342896
vt 0.073087 0.354480
vt 0.073453 0.357593
vt 0.054946 0.345125
vt 0.083109 0.355902
vt 0.082454 0.358649
vt 0.062322 0.352355
vt 0.036139 0.335499
vt 0.040163 0.332167
vt 0.046905 0.338838
vt 0.067004 0.308610
vt 0.070151 0.317695
vt 0.076711 0.335977
vt 0.090036 0.357848
vt 0.081398 0.320855
vt 0.090533 0.327752
vt 0.085351 0.347958
vt 0.094353 0.329007
vt 0.087301 0.371721
vt 0.082950 0.338637
vt 0.070576 0.343398
vt 0.081031 0.351905
vt 0.067778 0.347809
vt 0.056619 0.324690
vt 0.064566 0.346210
vt 0.061572 0.324224
vt 0.066468 0.352281
vt 0.075346 0.343371
vt 0.068263 0.346518
vt 0.049783 0.329495
vn -0.8490 0.4772 -0.2268
vn -0.8725 0.4258 -0.2396
vn -0.8914 0.3943 -0.2236
vn 0.5323 0.6515 0.5406
vn 0.5097 0.6234 0.5929
vn 0.7358 0.4773 0.4803
vn 0.1893 -0.0175 0.9818
vn -0.1912 0.1381 0.9718
vn -0.0991 -0.3955 0.9131
vn -0.3069 -0.8043 0.5087
vn -0.4899 -0.6775 0.5486
vn -0.4940 -0.3498 0.7960
vn -0.4360 0.0860 0.8958
vn -0.8637 -0.2701 0.4256
vn -0.7537 -0.1895 0.6294
vn -0.7210 -0.6816 0.1245
vn -0.9551 -0.2735 -0.1138
vn -0.4956 -0.8675 -0.0423
vn -0.4735 -0.8649 0.1667
vn 0.4711 -0.7835 0.4053
vn 0.4973 -0.7216 0.4816
vn 0.3852 -0.8343 0.3943
vn 0.4980 -0.6276 0.5983
vn 0.3997 -0.5990 0.6939
vn 0.9653 0.0730 0.2506
vn 0.8301 0.0773 0.5523
vn 0.9175 -0.2755 0.2867
vn 0.9558 -0.0288 0.2926
vn 0.3781 -0.1441 0.9145
vn 0.1676 0.0787 0.9827
vn 0.5183 0.4694 0.7149
vn -0.2135 0.5695 0.7938
vn -0.2783 0.4947 0.8233
vn -0.2543 0.5103 0.8215
vn -0.3721 0.3753 0.8489
vn -0.3968 0.7809 0.4825
vn -0.6506 0.5982 0.4679
vn -0.6010 0.6334 0.4874
vn -0.8368 0.0337 0.5464
vn -0.9914 0.1170 0.0585
vn -0.6702 0.0506 -0.7405
vn -0.7132 -0.2845 -0.6406
vn -0.8765 0.1564 -0.4553
vn -0.8237 -0.4929 -0.2805
vn -0.5255 -0.2575 -0.8109
vn -0.4336 -0.6342 -0.6402
vn -0.4499 -0.6483 -0.6142
vn -0.4548 -0.8836 -0.1116
vn 0.5385 -0.4803 -0.6923
vn 0.5523 -0.6471 -0.5256
vn 0.2997 -0.6609 -0.6881
vn 0.0161 -0.9900 -0.1401
vn 0.7715 -0.4135 -0.4835
vn 0.9398 0.3240 -0.1083
vn -0.4411 0.7714 0.4587
vn -0.3450 0.8522 0.3934
vn -0.2924 0.8483 0.4415
vn -0.6744 0.1601 -0.7208
vn -0.3572 -0.7692 -0.5299
vn 0.1872 -0.4474 -0.8745
vn 0.1514 -0.0157 -0.9883
vn 0.3325 -0.2283 -0.9150
vn 0.3296 -0.8182 0.4711
vn 0.8667 -0.4802 0.1351
vn 0.9693 -0.2337 0.0771
vn 0.7515 0.4646 -0.4683
vn 0.6230 0.7712 -0.1312
vn 0.5791 0.7087 -0.4029
vn 0.8067 0.5801 0.1132
vn 0.2933 0.9552 -0.0394
vn 0.2056 0.9576 0.2018
vn 0.3340 0.9164 -0.2206
vn 0.0931 0.9449 0.3138
vn 0.2177 0.9667 -0.1349
vn -0.2727 0.8157 0.5101
vn -0.0964 0.8139 -0.5730
vn 0.0268 0.3518 -0.9357
vn -0.0210 0.2844 -0.9585
vn -0.0330 0.3383 -0.9404
vn 0.3072 0.3626 -0.8798
vn 0.1638 0.2303 -0.9592
vn 0.7915 -0.2925 -0.5366
vn 0.9121 0.1453 -0.3834
vn 0.4908 0.1284 -0.8618
vn 0.3975 -0.2074 -0.8939
usemtl forest
s 1
f 2/1/1 42/2/2 18/3/3
f 3/4/4 17/5/5 36/6/6
f 20/7/7 27/8/8 25/9/9
f 23/10/10 25/11/9 4/12/11
f 25/11/9 26/13/12 4/12/11
f 25/9/9 27/8/8 26/14/12
f 27/8/8 28/15/13 26/14/12
f 26/14/12 24/16/14 4/17/11
f 28/15/15 24/16/14 26/14/12
f 24/16/14 29/18/16 4/17/11
f 15/19/17 29/20/16 24/21/14
f 29/18/16 34/22/18 30/23/19
f 29/18/16 30/23/19 4/17/11
f 4/17/11 30/23/19 23/24/10
f 10/25/20 23/24/21 30/23/22
f 10/25/20 31/26/23 23/24/21
f 31/26/23 25/9/24 23/24/21
f 21/27/25 20/28/26 10/29/27
f 10/25/27 20/7/26 31/26/28
f 31/26/29 20/7/7 25/9/9
f 22/30/30 27/8/8 20/7/7
f 36/6/6 17/5/5 22/31/31
f 17/5/32 16/32/33 22/31/34
f 22/30/34 16/33/33 27/8/8
f 16/33/33 19/34/35 27/8/8
f 27/8/8 19/34/35 28/15/13
f 18/3/36 32/35/37 19/36/38
f 19/34/39 24/16/14 28/15/15
f 19/36/39 32/35/40 24/21/14
f 32/35/40 15/19/17 24/21/14
f 1/37/41 33/38/42 37/39/43
f 37/39/43 33/38/42 15/19/17
f 33/38/42 34/40/44 15/19/17
f 15/19/17 34/40/44 29/20/16
f 1/37/41 12/41/45 33/38/42
f 12/41/45 11/42/46 33/38/42
f 33/38/42 11/42/46 34/40/47
f 14/43/48 30/23/19 34/22/18
f 13/44/49 35/45/50 14/43/51
f 14/43/52 35/45/52 30/23/52
f 13/44/49 9/46/53 35/45/50
f 21/27/25 36/47/6 20/28/26
f 36/48/6 22/30/31 20/7/26
f 21/27/25 6/49/54 36/47/6
f 16/33/55 18/50/36 19/34/38
f 17/5/56 40/51/57 16/32/55
f 40/52/57 18/50/36 16/33/55
f 32/53/40 37/54/43 15/55/17
f 18/56/3 37/54/43 32/53/40
f 18/56/3 42/57/2 37/54/43
f 42/57/58 1/58/41 37/54/43
f 34/40/47 11/42/46 14/59/59
f 11/42/60 13/60/49 14/59/51
f 12/41/61 38/61/62 11/42/60
f 11/42/60 38/61/62 13/60/49
f 35/45/63 10/25/20 30/23/22
f 35/45/64 9/46/65 10/25/27
f 9/46/65 21/62/25 10/25/27
f 9/46/65 6/63/54 21/62/25
f 7/64/66 39/65/67 6/49/54
f 6/66/54 39/67/67 36/48/6
f 8/68/68 39/65/67 7/64/66
f 39/67/67 3/69/69 36/48/6
f 39/65/67 40/51/70 3/4/71
f 8/68/68 41/70/72 39/65/67
f 3/4/71 40/51/70 17/5/73
f 39/65/67 41/70/72 40/51/70
f 41/70/72 2/1/74 40/51/70
f 2/1/75 18/3/36 40/51/57
f 41/70/76 42/2/76 2/1/76
f 41/70/77 1/37/78 42/2/79
f 8/71/80 5/72/81 41/73/77
f 5/72/81 1/74/78 41/73/77
f 13/75/49 43/76/82 9/77/53
f 9/77/65 43/76/83 6/49/54
f 43/76/83 7/64/66 6/49/54
f 13/75/49 44/78/84 43/76/85
f 43/76/83 44/78/84 7/64/66
f 44/78/84 8/79/80 7/64/66
f 1/37/78 5/80/81 12/41/61
f 5/80/81 38/61/62 12/41/61
f 5/80/81 44/78/84 38/61/62
f 8/79/80 44/78/84 5/80/81
f 44/78/84 13/44/49 38/81/62
