# Blender v3.4.1 OBJ File: 'Forest_Nature_Pack_Export.blend'
# www.blender.org
mtllib Rock_2_C_Color1.mtl
o Rock_2_C_Color1
v 0.543121 0.000040 0.543101
v 0.647651 0.119039 0.526638
v 0.526658 0.119039 0.647631
v 0.623649 0.034894 0.538073
v 0.605655 0.050335 0.605635
v 0.612008 0.119039 0.611987
v 0.538094 0.034894 0.623628
v 0.506185 1.207244 0.385171
v 0.370715 1.326242 0.370695
v 0.385192 1.207244 0.506165
v 0.460304 1.291389 0.374729
v 0.446325 1.275948 0.446305
v 0.374749 1.291389 0.460284
v 0.470541 1.207244 0.470521
v -0.543081 0.000040 0.543101
v -0.526618 0.119039 0.647631
v -0.647611 0.119039 0.526638
v -0.538053 0.034894 0.623628
v -0.605615 0.050335 0.605635
v -0.611967 0.119039 0.611987
v -0.623608 0.034894 0.538073
v -0.370674 1.326242 0.370695
v -0.506144 1.207244 0.385172
v -0.385151 1.207244 0.506165
v -0.460264 1.291389 0.374729
v -0.446285 1.275948 0.446305
v -0.470501 1.207244 0.470521
v -0.374709 1.291389 0.460284
v 0.543121 0.000040 -0.543101
v 0.526658 0.119039 -0.647631
v 0.647651 0.119039 -0.526638
v 0.538094 0.034894 -0.623628
v 0.605655 0.050335 -0.605635
v 0.612008 0.119039 -0.611987
v 0.623649 0.034894 -0.538073
v 0.370715 1.326242 -0.370695
v 0.506185 1.207244 -0.385172
v 0.385192 1.207244 -0.506165
v 0.460304 1.291389 -0.374729
v 0.446325 1.275948 -0.446305
v 0.470541 1.207244 -0.470521
v 0.374749 1.291389 -0.460284
v -0.543081 0.000040 -0.543101
v -0.647611 0.119039 -0.526638
v -0.526618 0.119039 -0.647631
v -0.623608 0.034894 -0.538073
v -0.605615 0.050335 -0.605635
v -0.611967 0.119039 -0.611987
v -0.538053 0.034894 -0.623628
v -0.370674 1.326242 -0.370695
v -0.385151 1.207244 -0.506165
v -0.506144 1.207244 -0.385171
v -0.374709 1.291389 -0.460284
v -0.446285 1.275948 -0.446305
v -0.470501 1.207244 -0.470521
v -0.460264 1.291389 -0.374729
vt 0.079489 0.304473
vt 0.074328 0.399143
vt 0.046228 0.399143
vt 0.041067 0.304473
vt 0.083902 0.304473
vt 0.078743 0.399143
vt 0.078743 0.399143
vt 0.083902 0.304473
vt 0.073800 0.421703
vt 0.046756 0.421703
vt 0.046756 0.421703
vt 0.073800 0.421703
vt 0.036654 0.304473
vt 0.041813 0.399143
vt 0.041813 0.399143
vt 0.036654 0.304473
vt 0.041067 0.304473
vt 0.046228 0.399143
vt 0.074328 0.399143
vt 0.079489 0.304473
vt 0.040468 0.297538
vt 0.040650 0.299570
vt 0.038185 0.300470
vt 0.037529 0.299570
vt 0.037954 0.304473
vt 0.046228 0.414768
vt 0.046609 0.419671
vt 0.043997 0.418772
vt 0.043115 0.414768
vt 0.043488 0.419671
vt 0.041813 0.414768
vt 0.040468 0.297538
vt 0.037529 0.299570
vt 0.038185 0.300470
vt 0.040650 0.299570
vt 0.037954 0.304473
vt 0.046609 0.419671
vt 0.043997 0.418772
vt 0.043488 0.419671
vt 0.046228 0.414768
vt 0.043115 0.414768
vt 0.041813 0.414768
vt 0.080088 0.297538
vt 0.083027 0.299570
vt 0.082371 0.300470
vt 0.079906 0.299570
vt 0.082602 0.304473
vt 0.073947 0.419671
vt 0.076559 0.418772
vt 0.077068 0.419671
vt 0.074328 0.414768
vt 0.077441 0.414768
vt 0.078743 0.414768
vt 0.080088 0.297538
vt 0.079906 0.299570
vt 0.082371 0.300470
vt 0.083027 0.299570
vt 0.082602 0.304473
vt 0.077068 0.419671
vt 0.076559 0.418772
vt 0.073947 0.419671
vt 0.078743 0.414768
vt 0.077441 0.414768
vt 0.074328 0.414768
vt 0.043115 0.399143
vt 0.043115 0.399143
vt 0.077441 0.399143
vt 0.077441 0.399143
vn 0.9822 -0.0402 -0.1832
vn 0.9351 0.3093 -0.1727
vn 0.9351 0.3093 0.1727
vn 0.9822 -0.0402 0.1832
vn -0.1832 -0.0402 -0.9822
vn -0.1727 0.3093 -0.9351
vn 0.1727 0.3093 -0.9351
vn 0.1832 -0.0402 -0.9822
vn -0.1664 0.9719 -0.1664
vn -0.1664 0.9719 0.1664
vn 0.1664 0.9719 0.1664
vn 0.1664 0.9719 -0.1664
vn 0.1832 -0.0402 0.9822
vn 0.1727 0.3093 0.9351
vn -0.1727 0.3093 0.9351
vn -0.1832 -0.0402 0.9822
vn -0.9822 -0.0402 0.1832
vn -0.9351 0.3093 0.1727
vn -0.9351 0.3093 -0.1727
vn -0.9822 -0.0402 -0.1832
vn 0.1922 -0.9624 0.1922
vn 0.3815 -0.9100 0.1624
vn 0.3496 -0.8693 0.3496
vn 0.1624 -0.9100 0.3815
vn 0.7071 -0.0037 0.7071
vn 0.9240 -0.1721 0.3415
vn 0.9576 -0.2249 0.1802
vn 0.1802 -0.2249 0.9576
vn 0.3415 -0.1721 0.9240
vn 0.6444 0.7486 0.1560
vn 0.5334 0.6565 0.5334
vn 0.6682 0.3271 0.6682
vn 0.1560 0.7486 0.6444
vn -0.1922 -0.9624 0.1922
vn -0.1624 -0.9100 0.3815
vn -0.3496 -0.8693 0.3496
vn -0.3815 -0.9100 0.1624
vn -0.7071 -0.0037 0.7071
vn -0.3415 -0.1721 0.9240
vn -0.1802 -0.2249 0.9576
vn -0.9576 -0.2249 0.1802
vn -0.9240 -0.1721 0.3415
vn -0.6444 0.7486 0.1560
vn -0.5334 0.6565 0.5334
vn -0.1560 0.7486 0.6444
vn -0.6682 0.3271 0.6682
vn 0.1922 -0.9624 -0.1922
vn 0.1624 -0.9100 -0.3815
vn 0.3496 -0.8693 -0.3496
vn 0.3815 -0.9100 -0.1624
vn 0.7071 -0.0037 -0.7071
vn 0.3415 -0.1721 -0.9240
vn 0.1802 -0.2249 -0.9576
vn 0.9576 -0.2249 -0.1802
vn 0.9240 -0.1721 -0.3415
vn 0.6444 0.7486 -0.1560
vn 0.5334 0.6565 -0.5334
vn 0.1560 0.7486 -0.6444
vn 0.6682 0.3271 -0.6682
vn -0.1922 -0.9624 -0.1922
vn -0.3815 -0.9100 -0.1624
vn -0.3496 -0.8693 -0.3496
vn -0.1624 -0.9100 -0.3815
vn -0.7071 -0.0037 -0.7071
vn -0.9240 -0.1721 -0.3415
vn -0.9576 -0.2249 -0.1802
vn -0.1802 -0.2249 -0.9576
vn -0.3415 -0.1721 -0.9240
vn -0.1560 0.7486 -0.6444
vn -0.5334 0.6565 -0.5334
vn -0.6444 0.7486 -0.1560
vn -0.6682 0.3271 -0.6682
usemtl forest
s 1
f 31/1/1 37/2/2 8/3/3 2/4/4
f 45/5/5 51/6/6 38/7/7 30/8/8
f 50/9/9 22/10/10 9/11/11 36/12/12
f 3/13/13 10/14/14 24/15/15 16/16/16
f 17/17/17 23/18/18 52/19/19 44/20/20
f 1/21/21 4/22/22 5/23/23 7/24/24
f 2/4/4 6/25/25 5/23/26 4/22/27
f 3/13/13 7/24/28 5/23/29 6/25/25
f 8/26/3 11/27/30 12/28/31 14/29/32
f 9/11/11 13/30/33 12/28/31 11/27/30
f 10/31/14 14/29/32 12/28/31 13/30/33
f 15/32/34 18/33/35 19/34/36 21/35/37
f 16/16/16 20/36/38 19/34/39 18/33/40
f 17/17/17 21/35/41 19/34/42 20/36/38
f 22/10/10 25/37/43 26/38/44 28/39/45
f 23/40/18 27/41/46 26/38/44 25/37/43
f 24/42/15 28/39/45 26/38/44 27/41/46
f 29/43/47 32/44/48 33/45/49 35/46/50
f 30/8/8 34/47/51 33/45/52 32/44/53
f 31/1/1 35/46/54 33/45/55 34/47/51
f 36/12/12 39/48/56 40/49/57 42/50/58
f 37/51/2 41/52/59 40/49/57 39/48/56
f 38/53/7 42/50/58 40/49/57 41/52/59
f 43/54/60 46/55/61 47/56/62 49/57/63
f 44/20/20 48/58/64 47/56/65 46/55/66
f 45/5/5 49/57/67 47/56/68 48/58/64
f 50/9/9 53/59/69 54/60/70 56/61/71
f 51/62/6 55/63/72 54/60/70 53/59/69
f 52/64/19 56/61/71 54/60/70 55/63/72
f 15/32/34 1/21/21 7/24/24 18/33/35
f 18/33/40 7/24/28 3/13/13 16/16/16
f 2/4/4 8/3/3 14/65/32 6/25/25
f 6/25/25 14/65/32 10/14/14 3/13/13
f 9/11/11 22/10/10 28/39/45 13/30/33
f 13/30/33 28/39/45 24/42/15 10/31/14
f 23/18/18 17/17/17 20/36/38 27/66/46
f 27/66/46 20/36/38 16/16/16 24/15/15
f 43/54/60 15/32/34 21/35/37 46/55/61
f 46/55/66 21/35/41 17/17/17 44/20/20
f 22/10/10 50/9/9 56/61/71 25/37/43
f 25/37/43 56/61/71 52/64/19 23/40/18
f 51/6/6 45/5/5 48/58/64 55/67/72
f 55/67/72 48/58/64 44/20/20 52/19/19
f 29/43/47 43/54/60 49/57/63 32/44/48
f 32/44/53 49/57/67 45/5/5 30/8/8
f 50/9/9 36/12/12 42/50/58 53/59/69
f 53/59/69 42/50/58 38/53/7 51/62/6
f 37/2/2 31/1/1 34/47/51 41/68/59
f 41/68/59 34/47/51 30/8/8 38/7/7
f 1/21/21 29/43/47 35/46/50 4/22/22
f 4/22/27 35/46/54 31/1/1 2/4/4
f 36/12/12 9/11/11 11/27/30 39/48/56
f 39/48/56 11/27/30 8/26/3 37/51/2
f 15/32/34 43/54/60 29/43/47 1/21/21
