# Blender v3.4.1 OBJ File: 'Forest_Nature_Pack_Export.blend'
# www.blender.org
mtllib Rock_2_A_Color1.mtl
o Rock_2_A_Color1
v 0.107784 0.000007 0.107781
v 0.075450 0.215568 0.075447
v -0.107777 0.000007 0.107781
v -0.075443 0.215568 0.075447
v 0.107784 0.000007 -0.107781
v 0.075450 0.215568 -0.075447
v -0.107777 0.000007 -0.107781
v -0.075443 0.215568 -0.075447
vt 0.056346 0.349766
vt 0.057526 0.362329
vt 0.057526 0.362329
vt 0.056346 0.349766
vt 0.063030 0.362329
vt 0.064212 0.349766
vt 0.063030 0.362329
vt 0.064212 0.349766
vt 0.063030 0.377954
vt 0.057526 0.377954
vt 0.057526 0.377954
vt 0.063030 0.377954
vn 0.0000 0.1483 0.9889
vn -0.9889 0.1483 0.0000
vn -0.0000 0.1483 -0.9889
vn 0.9889 0.1483 -0.0000
vn 0.0000 1.0000 0.0000
vn 0.0000 -1.0000 0.0000
usemtl forest
s 1
f 1/1/1 2/2/1 4/3/1 3/4/1
f 3/4/2 4/3/2 8/5/2 7/6/2
f 7/6/3 8/5/3 6/7/3 5/8/3
f 5/8/4 6/7/4 2/2/4 1/1/4
f 8/9/5 4/10/5 2/11/5 6/12/5
f 3/4/6 7/6/6 5/8/6 1/1/6
