# Blender v3.4.1 OBJ File: 'Forest_Nature_Pack_Export.blend'
# www.blender.org
mtllib Tree_Bare_1_A_Color1.mtl
o Tree_Bare_1_A_Color1
v -0.031284 2.216312 -0.069727
v -0.066721 2.216312 -0.028944
v -0.066721 2.216312 0.028944
v -0.031284 2.216312 0.069727
v 0.017965 2.216312 0.069756
v 0.052467 2.216312 0.028972
v 0.052467 2.216312 -0.028972
v 0.017965 2.216312 -0.069755
v 0.000001 -0.261318 -0.000000
v 0.245454 1.623407 -0.053372
v 0.381210 1.079023 -0.088746
v 0.345677 1.354498 -0.072916
v 0.150881 1.626309 0.115229
v 0.230041 1.073732 0.198913
v 0.215177 1.352348 0.158173
v 0.046700 1.625146 0.099256
v 0.049134 1.071823 0.177014
v 0.068822 1.349397 0.135702
v -0.011046 1.623500 0.037745
v -0.057432 1.070678 0.068173
v -0.012194 1.347130 0.051236
v -0.011046 1.623500 -0.037744
v -0.057432 1.070678 -0.068173
v -0.012194 1.347130 -0.051235
v 0.230041 1.073732 -0.198913
v 0.150881 1.626309 -0.115228
v 0.215177 1.352348 -0.158173
v 0.046700 1.625146 -0.099255
v 0.049134 1.071823 -0.177013
v 0.068822 1.349397 -0.135702
v -0.153191 0.411070 -0.380313
v -0.020027 0.831284 -0.236217
v -0.093869 0.625724 -0.309257
v -0.340475 0.479863 -0.145466
v -0.130232 0.891495 -0.085623
v -0.237207 0.690715 -0.114257
v -0.340475 0.479863 0.145466
v -0.130232 0.891495 0.085623
v -0.237207 0.690715 0.114257
v 0.166444 0.315270 0.413733
v 0.193589 0.743524 0.280668
v 0.172537 0.533486 0.353761
v 0.419359 0.248919 0.178554
v 0.384718 0.678958 0.128868
v 0.397521 0.467936 0.157444
v 0.419359 0.248919 -0.178553
v 0.384718 0.678958 -0.128868
v 0.397521 0.467936 -0.157444
v -0.027756 0.971040 0.127800
v -0.029650 0.918383 0.065899
v -0.003875 0.918383 -0.010785
v 0.035092 0.971040 -0.059180
v 0.064830 1.046890 -0.049781
v 0.067246 1.100226 0.012297
v 0.041214 1.100226 0.089748
v 0.001722 1.046890 0.137974
v -0.471420 1.701105 -0.081305
v -0.443065 1.709239 -0.095944
v -0.432533 1.709239 -0.127277
v -0.446362 1.701105 -0.155858
v -0.475415 1.690034 -0.164554
v -0.502237 1.682564 -0.149407
v -0.512219 1.682564 -0.119710
v -0.499925 1.690034 -0.091635
v -0.459050 1.339227 -0.044028
v -0.481787 1.325973 -0.095802
v -0.463426 1.325973 -0.150429
v -0.413912 1.339227 -0.178321
v -0.359964 1.358710 -0.162319
v -0.334058 1.372990 -0.109498
v -0.353526 1.372990 -0.051577
v -0.406209 1.358710 -0.024732
v -0.238191 1.174392 0.048674
v -0.190072 1.216526 0.010014
v -0.166028 1.216526 -0.061521
v -0.181134 1.174392 -0.121080
v -0.224983 1.117510 -0.133400
v -0.271092 1.078966 -0.094104
v -0.293839 1.078966 -0.026430
v -0.280725 1.117510 0.032441
v 0.141642 -0.197671 -0.343064
v 0.341959 -0.197664 -0.142104
v 0.341959 -0.197664 0.142104
v 0.141642 -0.197671 0.343064
v -0.141640 -0.197671 0.343064
v -0.341957 -0.197664 0.142104
v -0.341957 -0.197664 -0.142104
v -0.141640 -0.197671 -0.343064
v 0.330623 1.162407 -0.069278
v 0.446207 1.137160 -0.255206
v 0.282619 1.218705 -0.094197
v 0.410476 1.091408 -0.283421
v 0.219629 1.218705 -0.139669
v 0.358982 1.091408 -0.320595
v 0.180866 1.162407 -0.177387
v 0.320953 1.137160 -0.345627
v 0.189541 1.085104 -0.186335
v 0.318954 1.203104 -0.344306
v 0.238248 1.031835 -0.162456
v 0.407709 1.250384 -0.278308
v 0.298386 1.031835 -0.119043
v 0.445583 1.203104 -0.252893
v 0.336384 1.085104 -0.080330
v 0.355000 1.250384 -0.316358
v 0.535339 1.327430 -0.572748
v 0.551402 1.310535 -0.593018
v 0.578382 1.299281 -0.594376
v 0.601269 1.299281 -0.577854
v 0.594290 1.327430 -0.530191
v 0.565972 1.339411 -0.527148
v 0.541366 1.339411 -0.544911
v 0.608473 1.310535 -0.551819
v 0.481305 1.155925 -0.530494
v 0.443693 1.124870 -0.487765
v 0.516385 1.126718 -0.522998
v 0.482176 1.092700 -0.479309
v 0.524498 1.232240 -0.453083
v 0.491931 1.210207 -0.403051
v 0.428006 1.172848 -0.470654
v 0.467319 1.199217 -0.514560
v 0.484122 1.232240 -0.482230
v 0.446886 1.210207 -0.435569
v 0.553037 1.126717 -0.496540
v 0.522338 1.092700 -0.450316
v 0.531176 1.172848 -0.396176
v 0.560474 1.199217 -0.447312
v 0.571195 1.155925 -0.465603
v 0.542478 1.124869 -0.416452
v 0.232868 1.632131 0.047982
v 0.371898 1.069875 0.084991
v 0.315528 1.354001 0.092613
v 0.345677 1.354498 0.037392
v 0.316681 1.348762 0.057405
v -0.175600 0.419301 0.352213
v -0.119120 0.400858 0.383876
v -0.139985 0.404133 0.352635
v -0.013972 0.839001 0.226946
v -0.115285 0.635435 0.280122
v -0.060389 0.614133 0.314850
v -0.081640 0.615711 0.282587
v 0.191996 0.753756 -0.269307
v 0.192078 0.308546 -0.389897
v 0.131211 0.325830 -0.410049
v 0.155701 0.312424 -0.383820
v 0.198760 0.525846 -0.330879
v 0.137494 0.545619 -0.347907
v 0.161929 0.528705 -0.324022
v 0.401564 -0.096361 -0.166874
v 0.438224 0.073197 -0.183567
v 0.438223 0.073201 0.183567
v 0.401573 -0.096346 0.166878
v 0.180354 0.073014 0.439712
v 0.166335 -0.096353 0.402874
v -0.401565 -0.096359 0.166875
v -0.428695 0.071644 0.178862
v -0.428694 0.071649 -0.178862
v -0.401574 -0.096344 -0.166878
v -0.178766 0.072365 -0.434927
v -0.166335 -0.096351 -0.402875
v 0.162675 -0.104298 -0.393823
v 0.172157 0.064812 -0.424947
v -0.162646 -0.104303 0.393812
v -0.169618 0.064573 0.422835
v -0.502954 1.951109 -0.123211
v -0.098993 2.472459 -0.018234
v -0.098993 2.472459 0.018235
v -0.117497 2.461095 0.043903
v -0.143909 2.444872 0.043885
v -0.162914 2.433200 0.018217
v -0.162914 2.433200 -0.018216
v -0.143909 2.444872 -0.043884
v -0.117497 2.461095 -0.043902
v -0.254761 2.595616 0.000000
v 0.616397 1.467820 -0.561508
vt 0.055837 0.613192
vt 0.055837 0.613192
vt 0.059409 0.621983
vt 0.059409 0.621983
vt 0.081101 0.618390
vt 0.081101 0.618390
vt 0.080929 0.638017
vt 0.080944 0.636287
vt 0.070019 0.606633
vt 0.061244 0.610238
vt 0.064637 0.622039
vt 0.073512 0.622133
vt 0.061244 0.625863
vt 0.055837 0.628817
vt 0.059409 0.637608
vt 0.064637 0.637664
vt 0.068972 0.596223
vt 0.057621 0.600153
vt 0.070691 0.611253
vt 0.059264 0.615209
vt 0.056382 0.604746
vt 0.070392 0.600547
vt 0.069577 0.572939
vt 0.053456 0.573005
vt 0.054711 0.589622
vt 0.068664 0.585440
vt 0.061712 0.611865
vt 0.064637 0.622039
vt 0.070387 0.580352
vt 0.054306 0.579368
vt 0.055277 0.575382
vt 0.069175 0.575382
vt 0.042525 0.564727
vt 0.042525 0.564728
vt 0.045450 0.559757
vt 0.045450 0.559757
vt 0.041194 0.572969
vt 0.052543 0.572962
vt 0.053611 0.590026
vt 0.045522 0.592997
vt 0.055061 0.588555
vt 0.071075 0.588662
vt 0.081928 0.564728
vt 0.070387 0.564727
vt 0.069175 0.559757
vt 0.079003 0.559757
vt 0.041194 0.572970
vt 0.045522 0.592997
vt 0.071978 0.595253
vt 0.081729 0.592412
vt 0.082801 0.581667
vt 0.071650 0.584592
vt 0.074268 0.649100
vt 0.069629 0.649243
vt 0.063108 0.678189
vt 0.064801 0.678189
vt 0.064518 0.649186
vt 0.060692 0.678189
vt 0.061684 0.649105
vt 0.064518 0.649186
vt 0.060692 0.678189
vt 0.058953 0.678189
vt 0.064518 0.664811
vt 0.069629 0.664868
vt 0.063108 0.693814
vt 0.060692 0.693814
vt 0.064518 0.664811
vt 0.061684 0.664730
vt 0.058953 0.693814
vt 0.060692 0.693814
vt 0.061684 0.649105
vt 0.058953 0.678189
vt 0.077706 0.635883
vt 0.072783 0.635802
vt 0.073512 0.622133
vt 0.079504 0.622342
vt 0.071000 0.564536
vt 0.081928 0.564727
vt 0.079003 0.559757
vt 0.069175 0.559757
vt 0.083726 0.588671
vt 0.083726 0.588671
vt 0.082801 0.597292
vt 0.082801 0.597292
vt 0.053456 0.588630
vt 0.041194 0.588595
vt 0.045522 0.608622
vt 0.054711 0.605247
vt 0.054066 0.564727
vt 0.070147 0.563743
vt 0.055277 0.559757
vt 0.074268 0.664725
vt 0.074268 0.664725
vt 0.064801 0.693814
vt 0.064801 0.693814
vt 0.071075 0.573037
vt 0.083726 0.573046
vt 0.082801 0.581667
vt 0.070392 0.584922
vt 0.053452 0.564535
vt 0.055277 0.559757
vt 0.070394 0.553746
vt 0.069697 0.541695
vt 0.068664 0.554190
vt 0.079186 0.635907
vt 0.072783 0.635802
vt 0.080929 0.622392
vt 0.072774 0.649146
vt 0.069629 0.649243
vt 0.071724 0.605932
vt 0.081101 0.602765
vt 0.073731 0.650753
vt 0.064801 0.678189
vt 0.063108 0.678189
vt 0.079186 0.651532
vt 0.079186 0.651532
vt 0.080929 0.638017
vt 0.065603 0.651282
vt 0.072783 0.651427
vt 0.064637 0.637664
vt 0.073512 0.637758
vt 0.061628 0.635546
vt 0.065603 0.635657
vt 0.061628 0.635546
vt 0.065603 0.651282
vt 0.061628 0.651171
vt 0.065603 0.635657
vt 0.073044 0.605487
vt 0.081101 0.602765
vt 0.057621 0.615778
vt 0.050589 0.618967
vt 0.050589 0.603342
vt 0.050589 0.603342
vt 0.062849 0.625204
vt 0.071724 0.621557
vt 0.060196 0.610810
vt 0.056570 0.600630
vt 0.070691 0.595628
vt 0.081729 0.592412
vt 0.081729 0.608037
vt 0.081729 0.608037
vt 0.071909 0.607611
vt 0.042525 0.580353
vt 0.054066 0.580352
vt 0.055277 0.575382
vt 0.045450 0.575382
vt 0.039705 0.635158
vt 0.037700 0.652369
vt 0.037096 0.652003
vt 0.038589 0.634508
vt 0.045837 0.636815
vt 0.041006 0.653311
vt 0.040489 0.653311
vt 0.044882 0.636815
vt 0.037586 0.652003
vt 0.039490 0.634508
vt 0.047810 0.622390
vt 0.048926 0.622390
vt 0.039098 0.652912
vt 0.042297 0.636114
vt 0.041920 0.635158
vt 0.051188 0.624281
vt 0.062311 0.620816
vt 0.050541 0.627071
vt 0.048454 0.624281
vt 0.060865 0.617095
vt 0.063948 0.617095
vt 0.053340 0.627071
vt 0.065407 0.620816
vt 0.054081 0.629138
vt 0.052901 0.629138
vt 0.062036 0.614511
vt 0.038902 0.652369
vt 0.040327 0.652912
vt 0.044566 0.636114
vt 0.060772 0.614511
vt 0.065526 0.623433
vt 0.064248 0.623433
vt 0.062226 0.556634
vt 0.078730 0.622691
vt 0.084118 0.625245
vt 0.084087 0.628480
vt 0.078447 0.626483
vt 0.071525 0.622691
vt 0.077973 0.625245
vt 0.079838 0.623000
vt 0.073915 0.620077
vt 0.076092 0.629245
vt 0.082229 0.630799
vt 0.079643 0.630799
vt 0.073002 0.629245
vt 0.076865 0.620077
vt 0.082365 0.623000
vt 0.071100 0.626483
vt 0.077875 0.628480
vt 0.085840 0.626165
vt 0.089279 0.633751
vt 0.090602 0.633198
vt 0.087561 0.624732
vt 0.090250 0.626165
vt 0.092079 0.633751
vt 0.091383 0.634579
vt 0.089724 0.628289
vt 0.085153 0.628289
vt 0.088491 0.634579
vt 0.089359 0.624732
vt 0.091725 0.633198
vt 0.089994 0.635167
vt 0.087959 0.629909
vt 0.085978 0.629909
vt 0.088786 0.635167
vt 0.087853 0.623063
vt 0.088841 0.624642
vt 0.084151 0.628828
vt 0.083225 0.626996
vt 0.085882 0.623063
vt 0.088286 0.626996
vt 0.086361 0.628828
vt 0.083994 0.624642
vt 0.072774 0.617896
vt 0.077706 0.604633
vt 0.079130 0.604807
vt 0.074268 0.633475
vt 0.079130 0.620432
vt 0.079186 0.620282
vt 0.080922 0.591192
vt 0.079186 0.604657
vt 0.079186 0.620282
vt 0.080929 0.606767
vt 0.073044 0.574237
vt 0.071978 0.564003
vt 0.070700 0.564464
vt 0.071724 0.574682
vt 0.068972 0.564973
vt 0.071650 0.553342
vt 0.059264 0.583959
vt 0.061244 0.594613
vt 0.057666 0.584652
vt 0.057666 0.569027
vt 0.060196 0.579560
vt 0.056570 0.569380
vt 0.056382 0.573496
vt 0.057621 0.584528
vt 0.054742 0.574110
vt 0.054742 0.558485
vt 0.057621 0.568903
vt 0.053611 0.558776
vt 0.055002 0.557320
vt 0.054711 0.573997
vt 0.071030 0.541736
vt 0.053526 0.541774
vt 0.054711 0.558372
vt 0.083726 0.573046
vt 0.072013 0.572938
vt 0.081928 0.580353
vt 0.081928 0.580352
vt 0.079003 0.575382
vt 0.079003 0.575382
vt 0.040489 0.653311
vt 0.040327 0.652912
vt 0.037096 0.652003
vt 0.037586 0.652003
vt 0.038902 0.652369
vt 0.039098 0.652912
vt 0.041006 0.653311
vt 0.037700 0.652369
vt 0.064801 0.693814
vt 0.064801 0.693814
vt 0.063108 0.693814
vt 0.060692 0.693814
vt 0.058953 0.678189
vt 0.058953 0.678189
vt 0.060692 0.678189
vt 0.063108 0.678189
vt 0.064801 0.678189
vt 0.064801 0.678189
vt 0.063108 0.678189
vt 0.060692 0.678189
vt 0.058953 0.693814
vt 0.060692 0.693814
vt 0.060692 0.693814
vt 0.058953 0.678189
vt 0.063108 0.678189
vt 0.064801 0.678189
vt 0.064801 0.693814
vt 0.090602 0.633198
vt 0.092079 0.633751
vt 0.088786 0.635167
vt 0.091725 0.633198
vt 0.089279 0.633751
vt 0.091383 0.634579
vt 0.088491 0.634579
vt 0.089994 0.635167
vn -0.8332 0.4357 -0.3405
vn -0.8294 0.4354 0.3499
vn -0.8850 0.2828 0.3698
vn -0.8860 0.2876 -0.3637
vn 0.9049 0.1006 0.4135
vn 0.9037 0.1031 -0.4156
vn 0.8983 0.1009 -0.4276
vn 0.8951 0.0972 0.4351
vn 0.3079 0.2340 -0.9222
vn -0.3796 0.3718 -0.8472
vn -0.4146 0.2379 -0.8783
vn 0.2720 0.1610 -0.9488
vn -0.0292 0.3207 -0.9467
vn -0.3692 0.3989 -0.8394
vn 0.3325 0.2602 0.9065
vn -0.0451 0.3255 0.9445
vn -0.0456 0.2097 0.9767
vn 0.3338 0.1749 0.9263
vn 0.3665 -0.0593 -0.9285
vn -0.3908 -0.0127 -0.9204
vn -0.4013 0.2672 -0.8761
vn -0.0209 0.1867 -0.9822
vn -0.3896 0.3642 0.8459
vn -0.4215 0.2337 0.8762
vn 0.3461 -0.3651 0.8642
vn -0.3647 -0.3488 0.8633
vn -0.2391 -0.7819 0.5758
vn 0.2346 -0.7853 0.5729
vn -0.8653 -0.3411 0.3672
vn -0.8665 -0.3500 -0.3558
vn -0.5693 -0.7878 -0.2351
vn -0.5713 -0.7851 0.2393
vn -0.9226 0.0180 0.3853
vn -0.3968 -0.0243 0.9176
vn -0.6918 0.2652 0.6716
vn -0.8758 0.3306 0.3518
vn 0.3595 -0.0461 0.9320
vn 0.8570 -0.3745 0.3539
vn 0.5693 -0.7878 0.2351
vn -0.9279 0.0171 -0.3725
vn -0.8771 0.3338 -0.3455
vn 0.6683 0.1678 -0.7247
vn 0.9065 0.1355 -0.3999
vn 0.9090 0.1135 -0.4010
vn 0.6826 0.1117 -0.7222
vn 0.8495 0.3228 -0.4173
vn 0.2400 0.1720 -0.9554
vn 0.3433 0.2291 -0.9109
vn 0.8495 0.3886 -0.3569
vn -0.4559 0.0368 -0.8893
vn -0.3949 -0.0313 -0.9182
vn -0.9299 -0.0312 0.3664
vn -0.4559 0.0368 0.8893
vn -0.3949 -0.0313 0.9182
vn -0.9014 -0.2312 0.3661
vn 0.2626 0.1803 0.9479
vn 0.3578 0.2309 0.9048
vn -0.9299 -0.0312 -0.3664
vn -0.9014 -0.2312 -0.3661
vn 0.5786 0.1907 0.7930
vn 0.2529 0.1807 0.9505
vn 0.2833 0.1675 0.9443
vn 0.3574 -0.3567 -0.8632
vn 0.8561 -0.3651 -0.3658
vn 0.5713 -0.7851 -0.2393
vn 0.2391 -0.7819 -0.5757
vn 0.9219 -0.0548 0.3836
vn 0.9158 -0.0592 -0.3972
vn 0.9111 0.1258 0.3924
vn -0.3528 -0.3526 -0.8667
vn -0.2346 -0.7853 -0.5729
vn 0.8430 0.3133 0.4373
vn 0.8468 0.3816 0.3705
vn 0.7570 0.1561 -0.6345
vn 0.7604 0.1553 -0.6306
vn 0.7557 0.1565 -0.6359
vn 0.8707 0.2403 -0.4292
vn 0.2345 0.1773 -0.9558
vn 0.3091 0.2448 0.9190
vn 0.9716 0.2333 0.0386
vn -0.4439 0.1223 0.8877
vn -0.9213 0.0983 0.3761
vn -0.9213 0.0983 -0.3761
vn -0.4439 0.1223 -0.8877
vn -0.8191 0.4666 -0.3336
vn -0.8157 0.4700 0.3373
vn -0.6436 0.4248 0.6366
vn 0.9079 0.1318 0.3978
vn -0.6946 -0.1405 0.7055
vn -0.7028 0.0468 0.7099
vn -0.9989 -0.0271 0.0393
vn -0.9360 -0.3468 0.0605
vn 0.8475 0.5065 -0.1590
vn 0.9552 0.2779 -0.1015
vn 0.7124 0.2624 0.6509
vn 0.5819 0.5048 0.6376
vn -0.7710 -0.0161 -0.6366
vn -0.7113 -0.3462 -0.6117
vn -0.6906 -0.7081 0.1473
vn -0.4641 -0.7070 -0.5337
vn 0.0068 0.1666 0.9860
vn -0.0853 0.2060 0.9748
vn -0.1347 -0.1399 -0.9810
vn -0.0058 -0.3130 -0.9497
vn -0.1680 0.3345 0.9273
vn -0.1432 0.3010 0.9428
vn -0.5717 -0.3140 0.7580
vn -0.5020 -0.3532 0.7895
vn 0.0687 -0.3515 -0.9337
vn 0.4473 0.3021 -0.8418
vn 0.4177 0.3346 -0.8447
vn 0.6008 0.7692 -0.2176
vn 0.3508 0.7677 0.5362
vn -0.3282 -0.8044 -0.4952
vn -0.1431 0.0752 -0.9868
vn 0.5806 0.1995 -0.7894
vn 0.5136 0.2070 -0.8327
vn -0.5580 -0.8063 0.1965
vn 0.4932 0.8343 -0.2463
vn 0.2488 0.8339 0.4926
vn 0.0000 -1.0000 0.0000
vn 0.8302 -0.3825 0.4056
vn 0.8154 -0.3520 0.4595
vn 0.7793 0.4091 0.4746
vn 0.7570 0.3516 0.5507
vn -0.6463 -0.3825 -0.6603
vn -0.6928 -0.3520 -0.6293
vn -0.2316 -0.9078 -0.3497
vn -0.1432 -0.8859 -0.4412
vn 0.2545 0.9088 0.3307
vn 0.3348 0.9273 0.1672
vn -0.2641 0.9273 -0.2651
vn -0.3940 0.9088 -0.1375
vn 0.4639 -0.8859 -0.0030
vn 0.4048 -0.9078 0.1098
vn -0.7610 0.3516 -0.5451
vn -0.6958 0.4091 -0.5903
vn -0.4806 -0.2712 -0.8340
vn -0.3593 0.0509 -0.9318
vn 0.2656 -0.1897 -0.9452
vn 0.1089 -0.6446 -0.7567
vn 0.9429 -0.2712 0.1936
vn 0.9895 -0.1006 0.1039
vn 0.6272 0.1848 0.7566
vn 0.7341 0.2777 0.6196
vn -0.8192 0.2777 -0.5018
vn -0.8104 0.3717 -0.4528
vn 0.6839 -0.6446 -0.3416
vn 0.7921 -0.2428 -0.5600
vn -0.1555 0.4641 0.8720
vn 0.0573 0.7354 0.6752
vn -0.6589 0.7354 0.1582
vn -0.7687 0.5523 0.3226
vn 0.4543 -0.8908 -0.0077
vn 0.8170 -0.4211 0.3939
vn -0.3493 0.9035 -0.2482
vn -0.7467 0.2959 -0.5957
vn -0.1357 -0.8908 -0.4337
vn 0.8005 0.2959 0.5212
vn 0.3456 0.9035 0.2534
vn -0.6311 -0.4211 -0.6515
vn 0.9590 0.2833 -0.0108
vn 0.9703 0.2418 -0.0042
vn 0.9716 0.2367 -0.0034
vn 0.5331 0.1851 0.8255
vn 0.5329 0.1861 0.8255
vn 0.9809 0.1945 0.0032
vn 0.5326 0.1871 0.8254
vn -0.1580 0.2532 -0.9544
vn -0.1505 0.2598 -0.9539
vn -0.1512 0.2592 -0.9539
vn 0.7219 0.0709 -0.6883
vn 0.7403 0.1203 -0.6614
vn 0.7368 0.1102 -0.6671
vn -0.1458 0.2064 -0.9675
vn -0.1456 0.2152 -0.9657
vn -0.7622 0.3742 0.5282
vn -0.7696 0.3640 0.5247
vn -0.7635 0.3724 0.5276
vn 0.0863 0.2610 0.9615
vn 0.0601 0.2242 0.9727
vn 0.0800 0.2522 0.9644
vn -0.7887 0.2764 0.5491
vn -0.7829 0.2982 0.5460
vn 0.0864 0.2358 0.9680
vn 0.0917 0.2505 0.9638
vn -0.8079 0.1861 0.5591
vn -0.1470 0.1526 -0.9773
vn 0.0719 0.1959 0.9780
vn -0.1235 0.9923 -0.0031
vn 0.7044 0.6337 -0.3198
vn 0.7044 0.6337 0.3198
vn 0.2952 0.3904 0.8720
vn -0.4062 -0.0691 0.9112
vn -0.8480 -0.3960 0.3522
vn -0.8480 -0.3960 -0.3522
vn -0.4062 -0.0691 -0.9112
vn 0.2952 0.3904 -0.8720
vn -0.6505 0.7595 -0.0000
vn 0.2920 0.9561 -0.0251
usemtl forest
s 1
f 35/1/1 38/2/2 20/3/3 23/4/4
f 44/5/5 47/6/6 11/7/7 130/8/8
f 141/9/9 32/10/10 29/11/11 25/12/12
f 32/13/10 35/14/1 23/15/4 29/16/11
f 32/10/10 141/9/9 146/17/13 33/18/14
f 42/19/15 139/20/16 135/21/17 40/22/18
f 161/23/19 158/24/20 31/25/21 143/26/22
f 38/2/2 137/27/23 17/28/24 20/3/3
f 153/29/25 162/30/26 85/31/27 84/32/28
f 154/33/29 157/34/30 87/35/31 86/36/32
f 155/37/33 163/38/34 134/39/35 37/40/36
f 163/41/34 152/42/37 40/22/18 135/21/17
f 151/43/38 153/44/25 84/45/28 83/46/39
f 156/47/40 155/37/33 37/40/36 34/48/41
f 145/49/42 48/50/43 46/51/44 142/52/45
f 10/53/46 26/54/47 8/55/48 7/56/49
f 26/54/47 28/57/50 1/58/51 8/55/48
f 19/59/52 16/60/53 4/61/54 3/62/55
f 16/63/53 13/64/56 5/65/57 4/66/54
f 28/67/50 22/68/58 2/69/59 1/70/51
f 22/71/58 19/59/52 3/62/55 2/72/59
f 131/73/60 15/74/61 14/75/62 130/76/8
f 160/77/63 148/78/64 82/79/65 81/80/66
f 150/81/67 149/82/68 46/83/44 43/84/69
f 158/85/20 156/86/40 34/87/41 31/88/21
f 159/89/70 160/90/63 81/80/66 88/91/71
f 129/92/72 10/93/46 7/94/49 6/95/73
f 152/96/37 150/97/67 43/98/69 40/99/18
f 162/100/26 154/33/29 86/36/32 85/101/27
f 144/102/74 161/103/75 143/104/76
f 26/54/47 10/53/46 12/105/77 27/106/78
f 27/106/78 12/105/77 11/107/7 25/12/12
f 129/108/72 13/109/56 15/74/61 131/73/60
f 41/110/79 44/111/5 130/76/8 14/75/62
f 13/109/56 129/112/72 6/113/73 5/114/57
f 12/115/77 132/116/80 130/117/8 11/7/7
f 13/64/56 16/63/53 18/118/81 15/119/61
f 15/119/61 18/118/81 17/120/24 14/121/62
f 16/60/53 19/59/52 21/122/82 18/123/81
f 18/123/81 21/122/82 20/3/3 17/28/24
f 19/59/52 22/71/58 24/124/83 21/122/82
f 21/122/82 24/124/83 23/4/4 20/3/3
f 22/68/58 28/67/50 30/125/84 24/126/83
f 24/126/83 30/125/84 29/16/11 23/15/4
f 28/57/50 26/54/47 27/106/78 30/127/84
f 30/127/84 27/106/78 25/12/12 29/11/11
f 10/93/46 129/92/72 132/116/80 12/115/77
f 141/128/9 47/129/6 48/50/43 145/49/42
f 35/14/1 32/13/10 33/130/14 36/131/85
f 36/131/85 33/130/14 31/88/21 34/87/41
f 38/2/2 35/1/1 36/132/85 39/133/86
f 39/133/86 36/132/85 34/48/41 37/40/36
f 137/134/23 41/135/79 14/121/62 17/120/24
f 41/135/79 137/134/23 139/20/16 42/19/15
f 137/136/23 38/2/2 39/133/86 138/137/87
f 138/137/87 39/133/86 37/40/36 134/39/35
f 44/111/5 41/110/79 42/138/15 45/139/88
f 45/139/88 42/138/15 40/99/18 43/98/69
f 47/6/6 44/5/5 45/140/88 48/141/43
f 48/141/43 45/140/88 43/84/69 46/83/44
f 47/129/6 141/142/9 25/12/12 11/107/7
f 33/18/14 146/17/13 143/26/22 31/25/21
f 157/143/30 159/144/70 88/145/71 87/146/31
f 65/147/89 64/148/90 63/149/91 66/150/92
f 70/151/93 59/152/94 58/153/95 71/154/96
f 66/150/92 63/149/91 62/155/97 67/156/98
f 79/157/99 66/150/92 67/156/98 78/158/100
f 71/154/96 58/153/95 57/159/101 72/160/102
f 72/160/102 57/159/101 64/148/90 65/147/89
f 78/158/100 67/156/98 68/161/103 77/162/104
f 56/163/105 73/164/106 80/165/107 49/166/108
f 52/167/109 77/162/104 76/168/110 53/169/111
f 75/170/112 70/151/93 71/154/96 74/171/113
f 80/165/107 65/147/89 66/150/92 79/157/99
f 51/172/114 78/158/100 77/162/104 52/167/109
f 73/164/106 72/160/102 65/147/89 80/165/107
f 68/161/103 61/173/115 60/174/116 69/175/117
f 69/175/117 60/174/116 59/152/94 70/151/93
f 67/156/98 62/155/97 61/173/115 68/161/103
f 74/171/113 71/154/96 72/160/102 73/164/106
f 50/176/118 79/157/99 78/158/100 51/172/114
f 54/177/119 75/170/112 74/171/113 55/178/120
f 77/162/104 68/161/103 69/175/117 76/168/110
f 76/168/110 69/175/117 70/151/93 75/170/112
f 49/166/108 80/165/107 79/157/99 50/176/118
f 55/178/120 74/171/113 73/164/106 56/163/105
f 53/169/111 76/168/110 75/170/112 54/177/119
f 9/179/121 81/80/66 82/79/65
f 9/179/121 82/79/65 83/46/39
f 9/179/121 83/46/39 84/45/28
f 9/179/121 84/45/28 85/101/27
f 9/179/121 85/101/27 86/36/32
f 9/179/121 86/36/32 87/35/31
f 9/179/121 87/35/31 88/91/71
f 9/179/121 88/91/71 81/80/66
f 103/180/122 90/181/123 102/182/124 89/183/125
f 97/184/126 96/185/127 94/186/128 99/187/129
f 91/188/130 100/189/131 104/190/132 93/191/133
f 101/192/134 92/193/135 90/181/123 103/180/122
f 95/194/136 98/195/137 96/185/127 97/184/126
f 113/196/138 106/197/139 107/198/140 115/199/141
f 99/187/129 94/186/128 92/193/135 101/192/134
f 93/191/133 104/190/132 98/195/137 95/194/136
f 127/200/142 112/201/143 109/202/144 126/203/145
f 120/204/146 105/205/147 106/197/139 113/196/138
f 123/206/148 108/207/149 112/201/143 127/200/142
f 126/203/145 109/202/144 110/208/150 117/209/151
f 115/199/141 107/198/140 108/207/149 123/206/148
f 121/210/152 111/211/153 105/205/147 120/204/146
f 117/209/151 110/208/150 111/211/153 121/210/152
f 89/183/125 102/182/124 100/189/131 91/188/130
f 92/193/135 124/212/154 128/213/155 90/181/123
f 104/190/132 122/214/156 119/215/157 98/195/137
f 94/186/128 116/216/158 124/212/154 92/193/135
f 90/181/123 128/213/155 125/217/159 102/182/124
f 102/182/124 125/217/159 118/218/160 100/189/131
f 100/189/131 118/218/160 122/214/156 104/190/132
f 96/185/127 114/219/161 116/216/158 94/186/128
f 120/204/146 113/196/138 114/219/161 119/215/157
f 113/196/138 115/199/141 116/216/158 114/219/161
f 115/199/141 123/206/148 124/212/154 116/216/158
f 126/203/145 117/209/151 118/218/160 125/217/159
f 117/209/151 121/210/152 122/214/156 118/218/160
f 121/210/152 120/204/146 119/215/157 122/214/156
f 123/206/148 127/200/142 128/213/155 124/212/154
f 127/200/142 126/203/145 125/217/159 128/213/155
f 98/195/137 119/215/157 114/219/161 96/185/127
f 129/220/162 131/221/163 133/222/164
f 129/223/165 133/224/166 132/225/166
f 131/221/163 130/226/167 133/227/164
f 133/228/166 130/229/168 132/225/166
f 141/230/169 145/231/170 147/232/171
f 141/233/172 147/232/173 146/234/174
f 145/231/170 142/235/175 144/102/176 147/232/171
f 147/232/173 144/102/74 143/104/76 146/234/174
f 139/236/177 137/237/178 140/238/179
f 140/239/180 137/240/181 138/241/182
f 135/242/183 139/236/177 140/243/179 136/244/184
f 136/245/185 140/246/180 138/241/182 134/247/186
f 163/248/187 135/242/183 136/249/184
f 142/235/175 161/250/188 144/102/176
f 163/251/189 136/252/185 134/247/186
f 149/253/68 161/254/19 142/52/45 46/51/44
f 149/82/68 150/81/67 151/255/38 148/256/64
f 150/97/67 152/96/37 153/44/25 151/43/38
f 155/37/33 156/47/40 157/34/30 154/33/29
f 156/86/40 158/85/20 159/144/70 157/143/30
f 161/254/19 149/253/68 148/78/64 160/77/63
f 154/33/29 162/100/26 163/38/34 155/37/33
f 160/90/63 159/89/70 158/24/20 161/23/19
f 152/42/37 163/41/34 162/30/26 153/29/25
f 148/256/64 151/255/38 83/257/39 82/258/65
f 58/153/95 59/152/94 164/259/190
f 60/174/116 61/173/115 164/260/190
f 63/149/91 64/148/90 164/261/190
f 62/155/97 63/149/91 164/262/190
f 61/173/115 62/155/97 164/263/190
f 57/159/101 58/153/95 164/264/190
f 59/152/94 60/174/116 164/265/190
f 64/148/90 57/159/101 164/266/190
f 6/95/73 7/94/49 165/267/191 166/268/192
f 4/66/54 5/65/57 167/269/193 168/270/194
f 2/72/59 3/62/55 169/271/195 170/272/196
f 8/55/48 1/58/51 171/273/197 172/274/198
f 7/56/49 8/55/48 172/274/198 165/275/191
f 5/114/57 6/113/73 166/276/192 167/277/193
f 3/62/55 4/61/54 168/278/194 169/271/195
f 1/70/51 2/69/59 170/279/196 171/280/197
f 171/280/197 170/279/196 173/281/199
f 169/271/195 168/278/194 173/282/199
f 167/277/193 166/276/192 173/283/199
f 165/275/191 172/274/198 173/284/199
f 172/274/198 171/273/197 173/283/199
f 170/272/196 169/271/195 173/282/199
f 168/270/194 167/269/193 173/281/199
f 166/268/192 165/267/191 173/285/199
f 107/198/140 106/197/139 174/286/200
f 112/201/143 108/207/149 174/287/200
f 111/211/153 110/208/150 174/288/200
f 108/207/149 107/198/140 174/289/200
f 106/197/139 105/205/147 174/290/200
f 109/202/144 112/201/143 174/291/200
f 105/205/147 111/211/153 174/292/200
f 110/208/150 109/202/144 174/293/200
