# Blender v3.4.1 OBJ File: 'Forest_Nature_Pack_Export.blend'
# www.blender.org
mtllib Tree_2_A_Color1.mtl
o Tree_2_A_Color1
v 0.084464 0.000000 -0.205731
v 0.208798 0.000000 -0.085210
v 0.208798 0.000000 0.085210
v 0.084464 0.000000 0.205731
v -0.091401 0.000000 0.205738
v -0.215788 0.000000 0.085234
v -0.215788 0.000000 -0.085233
v -0.091401 0.000000 -0.205738
v 0.103244 1.184218 -0.044225
v 0.037950 1.187916 -0.106980
v 0.103244 1.184218 0.044225
v 0.037950 1.187916 0.106980
v -0.054807 1.193261 0.107272
v -0.120705 1.197127 0.044532
v -0.120705 1.197127 -0.044532
v -0.054807 1.193261 -0.107272
v -0.102092 2.325073 -0.032339
v -0.147813 2.313303 -0.078072
v -0.102092 2.325073 0.032339
v -0.147813 2.313303 0.078072
v -0.212473 2.296655 0.078072
v -0.258194 2.284884 0.032339
v -0.258194 2.284884 -0.032339
v -0.212473 2.296655 -0.078072
v 0.007067 -0.373518 -0.000000
v -0.832093 1.968687 -0.531591
v -0.546283 2.261626 -0.670088
v -0.838879 1.976651 -0.495913
v -0.546344 2.263843 -0.664113
v -0.854204 2.005595 -0.477538
v -0.548940 2.268746 -0.661000
v -0.869459 2.039262 -0.486785
v -0.552768 2.273874 -0.662312
v -0.875715 2.057902 -0.519082
v -0.555900 2.276418 -0.667707
v -0.869097 2.050074 -0.555099
v -0.556329 2.274404 -0.674371
v -0.853619 2.020840 -0.573658
v -0.553381 2.268835 -0.677906
v -0.838194 1.987033 -0.564074
v -0.549061 2.263502 -0.675907
v -0.630585 2.171653 -0.630693
v -0.646461 2.181833 -0.632689
v -0.654201 2.196452 -0.623407
v -0.649002 2.206438 -0.608609
v -0.634419 2.205935 -0.597405
v -0.619301 2.195788 -0.596053
v -0.611965 2.181932 -0.604849
v -0.616406 2.171913 -0.619005
v -0.661768 2.090730 -0.554752
v -0.656799 2.103784 -0.532130
v -0.667716 2.124403 -0.519039
v -0.688605 2.141419 -0.522571
v -0.708061 2.144936 -0.541471
v -0.714186 2.132015 -0.565197
v -0.702611 2.110152 -0.579077
v -0.680566 2.093004 -0.574442
v -0.740378 2.036947 -0.553193
v -0.760279 2.064143 -0.562227
v -0.774575 2.091144 -0.545085
v -0.774302 2.101020 -0.512514
v -0.760068 2.088645 -0.484805
v -0.740728 2.062270 -0.477409
v -0.727204 2.036726 -0.493626
v -0.726926 2.026049 -0.524546
v -0.137948 1.680325 0.055604
v -1.227164 2.234231 -0.779837
v -0.116110 1.636089 0.018793
v -1.225499 2.227071 -0.789080
v -0.089616 1.635583 -0.034744
v -1.218583 2.227071 -0.798000
v -0.073347 1.679092 -0.074937
v -1.209887 2.234231 -0.802121
v -0.076987 1.742310 -0.077535
v -1.203819 2.245212 -0.798653
v -0.098518 1.787145 -0.040585
v -1.204376 2.253635 -0.788602
v -0.125277 1.787656 0.013488
v -1.212231 2.253635 -0.778470
v -0.141856 1.743547 0.053548
v -1.222039 2.245212 -0.775155
v -0.909977 2.068116 -0.516792
v -0.867167 2.080571 -0.514318
v -0.846545 2.080571 -0.540915
v -0.860911 2.068116 -0.580076
v -0.900476 2.051152 -0.607802
v -0.941258 2.039682 -0.608798
v -0.960803 2.039682 -0.583589
v -0.948467 2.051152 -0.545904
v -0.743901 1.858529 -0.373222
v -0.755706 1.836859 -0.424615
v -0.726621 1.836859 -0.462127
v -0.672401 1.858529 -0.465441
v -0.622649 1.890469 -0.430983
v -0.607844 1.913924 -0.377405
v -0.638683 1.913924 -0.337631
v -0.695903 1.890469 -0.336501
v -0.477409 1.791520 -0.160117
v -0.433396 1.832833 -0.180831
v -0.395310 1.832833 -0.229954
v -0.387029 1.791520 -0.276687
v -0.412865 1.735677 -0.293398
v -0.456249 1.697787 -0.272255
v -0.492280 1.697787 -0.225783
v -0.501162 1.735677 -0.179515
v -0.904953 2.344293 0.530653
v -0.880053 2.605223 0.785560
v -1.141901 2.630036 0.530653
v -0.897660 2.420718 0.710900
v -1.045607 2.468901 0.677824
v -1.065208 2.622769 0.710900
v -1.082815 2.438263 0.530653
v -0.743103 4.040338 0.785560
v -0.718203 4.301268 0.530653
v -1.004951 4.065151 0.530653
v -0.725496 4.224844 0.710900
v -0.879905 4.205312 0.677824
v -0.910650 4.242389 0.530653
v -0.928257 4.057883 0.710900
v -0.904953 2.344293 -0.871335
v -1.141901 2.630036 -0.871335
v -0.880053 2.605223 -1.126242
v -1.082815 2.438263 -0.871335
v -1.045607 2.468901 -1.018505
v -1.065208 2.622769 -1.051581
v -0.897660 2.420718 -1.051581
v -0.718203 4.301268 -0.871335
v -0.743103 4.040338 -1.126242
v -1.004951 4.065151 -0.871335
v -0.725496 4.224844 -1.051581
v -0.879905 4.205312 -1.018505
v -0.928257 4.057883 -1.051581
v -0.910650 4.242389 -0.871335
v 0.535209 2.207823 0.530653
v 0.821957 2.443940 0.530653
v 0.560109 2.468753 0.785560
v 0.727657 2.266702 0.530653
v 0.696911 2.303779 0.677824
v 0.745264 2.451207 0.710900
v 0.542502 2.284247 0.710900
v 0.721960 4.164797 0.530653
v 0.697060 3.903867 0.785560
v 0.958908 3.879055 0.530653
v 0.714667 4.088373 0.710900
v 0.862614 4.040190 0.677824
v 0.882214 3.886322 0.710900
v 0.899821 4.070827 0.530653
v 0.535209 2.207823 -0.871335
v 0.560109 2.468753 -1.126242
v 0.821957 2.443940 -0.871335
v 0.542502 2.284247 -1.051581
v 0.696911 2.303779 -1.018505
v 0.745264 2.451207 -1.051581
v 0.727657 2.266702 -0.871335
v 0.721960 4.164797 -0.871335
v 0.958908 3.879055 -0.871335
v 0.697060 3.903867 -1.126242
v 0.899821 4.070827 -0.871335
v 0.862614 4.040190 -1.018505
v 0.882214 3.886322 -1.051581
v 0.714667 4.088373 -1.051581
v -1.436989 2.116639 -0.201745
v -1.465370 2.277215 -0.047731
v -1.603517 2.270345 -0.223502
v -1.502945 3.160385 -0.052640
v -1.488228 3.320961 -0.208439
v -1.641092 3.153515 -0.228411
v -1.318468 2.116639 -1.053731
v -1.484996 2.270345 -1.075488
v -1.303750 2.277215 -1.209530
v -1.369707 3.320961 -1.060426
v -1.341325 3.160385 -1.214440
v -1.522571 3.153515 -1.080398
v -0.558659 2.154421 -0.086988
v -0.405794 2.321867 -0.067016
v -0.587040 2.314997 0.067026
v -0.609898 3.358743 -0.093683
v -0.624615 3.198167 0.062117
v -0.443370 3.205036 -0.071925
v -0.440138 2.154421 -0.938975
v -0.425420 2.314997 -1.094774
v -0.287273 2.321867 -0.919003
v -0.491377 3.358743 -0.945669
v -0.324848 3.205036 -0.923912
v -0.462995 3.198167 -1.099683
v 0.063024 -0.298656 -0.130953
v 0.142180 -0.298625 -0.054244
v 0.142180 -0.298625 0.054244
v 0.063024 -0.298656 0.130953
v -0.048912 -0.298700 0.130951
v -0.128072 -0.298731 0.054248
v -0.128072 -0.298731 -0.054249
v -0.048912 -0.298700 -0.130951
vt 0.068471 0.539464
vt 0.066162 0.565445
vt 0.066162 0.565445
vt 0.068471 0.539464
vt 0.064795 0.565147
vt 0.065811 0.539464
vt 0.062852 0.564726
vt 0.062048 0.539464
vt 0.061472 0.564428
vt 0.059387 0.539464
vt 0.061472 0.564428
vt 0.059387 0.539464
vt 0.062852 0.564726
vt 0.062048 0.539464
vt 0.064795 0.565147
vt 0.065811 0.539464
vt 0.060146 0.593067
vt 0.060146 0.593067
vt 0.057709 0.593162
vt 0.059137 0.593107
vt 0.056700 0.593202
vt 0.057709 0.593162
vt 0.056700 0.593202
vt 0.059137 0.593107
vt 0.062957 0.533073
vt 0.065352 0.533074
vt 0.062957 0.533073
vt 0.061264 0.533073
vt 0.061264 0.533073
vt 0.067045 0.533075
vt 0.067045 0.533075
vt 0.065352 0.533074
vt 0.049846 0.584193
vt 0.050816 0.585930
vt 0.050911 0.586144
vt 0.049952 0.584472
vt 0.048724 0.585076
vt 0.050007 0.586455
vt 0.050173 0.586142
vt 0.048972 0.584609
vt 0.050513 0.585924
vt 0.052257 0.587889
vt 0.052316 0.587849
vt 0.052315 0.587897
vt 0.050754 0.586441
vt 0.049718 0.584913
vt 0.052259 0.588002
vt 0.052178 0.588111
vt 0.050431 0.586658
vt 0.048446 0.583038
vt 0.048156 0.583584
vt 0.049443 0.584242
vt 0.049271 0.585277
vt 0.047743 0.584148
vt 0.046071 0.581975
vt 0.048164 0.583042
vt 0.048452 0.582809
vt 0.046202 0.581582
vt 0.045402 0.583092
vt 0.047438 0.584413
vt 0.045268 0.583491
vt 0.047432 0.584202
vt 0.047738 0.583624
vt 0.045729 0.582372
vt 0.052164 0.588003
vt 0.050119 0.586669
vt 0.048855 0.585353
vt 0.052111 0.588166
vt 0.052101 0.588123
vt 0.046057 0.581752
vt 0.045410 0.583323
vt 0.045741 0.582698
vt 0.048088 0.579225
vt 0.043712 0.583346
vt 0.043448 0.583101
vt 0.047836 0.578762
vt 0.050999 0.580410
vt 0.045892 0.583976
vt 0.045451 0.583976
vt 0.050339 0.580410
vt 0.044535 0.583709
vt 0.037859 0.587498
vt 0.037749 0.587263
vt 0.037785 0.587110
vt 0.043866 0.583101
vt 0.048458 0.578762
vt 0.037933 0.587110
vt 0.038119 0.587263
vt 0.044739 0.583346
vt 0.053472 0.575786
vt 0.054242 0.575786
vt 0.049115 0.579909
vt 0.049618 0.579225
vt 0.055171 0.576597
vt 0.060594 0.576830
vt 0.053790 0.577792
vt 0.053282 0.576597
vt 0.060677 0.575321
vt 0.062807 0.575321
vt 0.055723 0.577792
vt 0.062733 0.576830
vt 0.055546 0.578676
vt 0.054731 0.578676
vt 0.062237 0.574274
vt 0.038069 0.587678
vt 0.045585 0.583709
vt 0.050682 0.579909
vt 0.038249 0.587498
vt 0.038237 0.587678
vt 0.061364 0.574274
vt 0.062053 0.577892
vt 0.061171 0.577892
vt 0.096882 0.815999
vt 0.103288 0.923755
vt 0.035928 0.934001
vt 0.029522 0.826246
vt 0.109130 0.814136
vt 0.115535 0.921891
vt 0.115535 0.921891
vt 0.109130 0.814136
vt 0.104452 0.943346
vt 0.037092 0.953593
vt 0.037092 0.953593
vt 0.104452 0.943346
vt 0.017274 0.828109
vt 0.023680 0.935864
vt 0.023680 0.935864
vt 0.017274 0.828109
vt 0.029522 0.826246
vt 0.035928 0.934001
vt 0.103288 0.923755
vt 0.096882 0.815999
vt 0.028357 0.806654
vt 0.028699 0.812392
vt 0.021779 0.816010
vt 0.020038 0.813709
vt 0.020862 0.827563
vt 0.036751 0.947855
vt 0.029529 0.946388
vt 0.027267 0.935319
vt 0.028091 0.949172
vt 0.028357 0.806654
vt 0.020038 0.813709
vt 0.021779 0.816010
vt 0.028699 0.812392
vt 0.020862 0.827563
vt 0.036751 0.947855
vt 0.029529 0.946388
vt 0.028091 0.949172
vt 0.027267 0.935319
vt 0.095718 0.796407
vt 0.104719 0.800828
vt 0.103281 0.803612
vt 0.096059 0.802145
vt 0.105542 0.814681
vt 0.104111 0.937608
vt 0.111031 0.933990
vt 0.112771 0.936291
vt 0.111948 0.922437
vt 0.095718 0.796407
vt 0.096059 0.802145
vt 0.103281 0.803612
vt 0.104719 0.800828
vt 0.105542 0.814681
vt 0.112771 0.936291
vt 0.111031 0.933990
vt 0.104111 0.937608
vt 0.111948 0.922437
vt 0.093778 0.821509
vt 0.091051 0.933273
vt 0.027300 0.928491
vt 0.030028 0.816728
vt 0.115535 0.822378
vt 0.112808 0.934142
vt 0.104206 0.934142
vt 0.106933 0.822378
vt 0.100722 0.953593
vt 0.036971 0.948812
vt 0.028369 0.948812
vt 0.092119 0.953593
vt 0.020002 0.815858
vt 0.017274 0.927622
vt 0.025876 0.927622
vt 0.028604 0.815858
vt 0.041758 0.816728
vt 0.039031 0.928491
vt 0.102782 0.933273
vt 0.105509 0.821509
vt 0.032088 0.796407
vt 0.040690 0.796407
vt 0.095838 0.801188
vt 0.104440 0.801188
vt 0.064154 0.532173
vn 0.9184 -0.0700 -0.3895
vn 0.9152 0.1303 -0.3814
vn 0.9152 0.1303 0.3814
vn 0.9184 -0.0700 0.3895
vn 0.3881 0.0914 0.9171
vn 0.3729 -0.0779 0.9246
vn -0.3574 0.0328 0.9334
vn -0.3754 -0.0913 0.9224
vn -0.9170 -0.0136 0.3986
vn -0.9163 -0.1026 0.3872
vn -0.9170 -0.0136 -0.3986
vn -0.9163 -0.1026 -0.3872
vn -0.3574 0.0328 -0.9334
vn -0.3754 -0.0913 -0.9224
vn 0.3881 0.0914 -0.9171
vn 0.3729 -0.0779 -0.9246
vn 0.9104 0.1680 -0.3782
vn 0.9104 0.1680 0.3782
vn -0.3534 -0.0259 -0.9351
vn 0.3912 0.0881 -0.9161
vn -0.9106 -0.1108 -0.3982
vn -0.3534 -0.0259 0.9351
vn -0.9106 -0.1108 0.3982
vn 0.3912 0.0881 0.9161
vn -0.2989 -0.5879 0.7517
vn 0.3111 -0.5775 0.7548
vn -0.2989 -0.5879 -0.7517
vn -0.7362 -0.5993 -0.3143
vn -0.7362 -0.5993 0.3143
vn 0.7551 -0.5737 0.3174
vn 0.7551 -0.5737 -0.3174
vn 0.3111 -0.5775 -0.7548
vn 0.7178 -0.6743 -0.1732
vn 0.7134 -0.6512 -0.2587
vn 0.8764 -0.2769 0.3940
vn 0.8271 -0.3219 0.4608
vn -0.7093 0.4843 -0.5122
vn -0.7546 0.4178 -0.5061
vn -0.4455 -0.1577 -0.8813
vn -0.3748 -0.1379 -0.9168
vn 0.1573 -0.5963 -0.7872
vn 0.1598 -0.5464 -0.8221
vn 0.6833 -0.6828 -0.2585
vn 0.8273 -0.3437 0.4443
vn 0.5676 0.2924 0.7696
vn 0.5353 0.2198 0.8155
vn 0.5112 0.2392 0.8255
vn -0.0655 0.7284 0.6820
vn -0.0262 0.7409 0.6711
vn 0.5461 -0.5719 0.6121
vn 0.2542 -0.0229 0.9669
vn 0.2295 -0.6149 -0.7545
vn -0.0028 0.6835 0.7300
vn -0.1423 0.5574 0.8180
vn 0.3466 -0.5031 -0.7917
vn 0.3197 -0.5644 -0.7611
vn 0.5799 -0.8101 -0.0867
vn 0.4823 -0.8690 -0.1104
vn -0.2519 0.5272 0.8115
vn -0.4390 0.8772 0.1945
vn -0.3935 0.9082 0.1426
vn -0.4290 0.6825 -0.5918
vn -0.0996 0.0577 -0.9934
vn 0.0600 -0.1258 0.9902
vn -0.3812 -0.0695 -0.9219
vn -0.5822 0.8009 0.1401
vn -0.5313 0.8228 0.2019
vn -0.5635 0.8217 0.0851
vn -0.6723 0.4748 -0.5680
vn 0.3577 -0.6921 0.6270
vn -0.2607 0.7474 -0.6110
vn 0.0423 0.1672 -0.9850
vn -0.7127 -0.3190 0.6247
vn -0.7357 -0.2395 0.6336
vn -0.6510 -0.7581 0.0375
vn -0.6246 -0.7800 0.0385
vn 0.5189 0.8452 -0.1280
vn 0.5597 0.8239 -0.0889
vn 0.0736 0.8175 0.5712
vn 0.0275 0.8382 0.5447
vn -0.4464 0.3624 0.8181
vn -0.4822 0.3333 0.8102
vn -0.7225 -0.3112 0.6174
vn -0.6009 -0.7979 0.0481
vn -0.1475 -0.7491 -0.6458
vn -0.1379 -0.7734 -0.6187
vn -0.1320 -0.7950 -0.5921
vn 0.3677 -0.3095 -0.8769
vn 0.3818 -0.2340 -0.8942
vn -0.4236 -0.8906 0.1655
vn 0.0070 -0.8909 -0.4542
vn -0.4691 0.3077 0.8278
vn 0.3803 -0.3142 -0.8699
vn 0.4236 -0.3859 -0.8195
vn -0.4808 0.3062 0.8216
vn -0.4794 0.3287 0.8137
vn -0.6134 -0.3930 0.6851
vn -0.5361 -0.4320 0.7253
vn 0.4352 -0.4342 -0.7887
vn 0.5805 0.3488 -0.7358
vn 0.5448 0.3439 -0.7648
vn 0.3756 0.9010 -0.2171
vn -0.0772 0.8905 0.4484
vn 0.0703 -0.9339 -0.3506
vn 0.0124 0.8443 0.5358
vn 0.6421 0.3667 -0.6732
vn 0.6442 0.3124 -0.6982
vn 0.6237 0.3404 -0.7036
vn 0.5024 0.8548 -0.1299
vn -0.3144 -0.9145 0.2546
vn 0.3065 0.9157 -0.2600
vn -0.1338 0.8975 0.4202
vn 0.1573 -0.1910 0.9689
vn 0.1904 0.1578 0.9689
vn -0.1573 0.1910 0.9689
vn -0.1904 -0.1578 0.9689
vn 0.9449 -0.2706 -0.1843
vn 0.9790 0.0872 -0.1844
vn 0.9790 0.0872 0.1844
vn 0.9449 -0.2706 0.1843
vn 0.2691 0.9454 -0.1839
vn -0.0866 0.9791 -0.1838
vn -0.0866 0.9791 0.1838
vn 0.2691 0.9454 0.1839
vn -0.9790 -0.0872 0.1844
vn -0.9449 0.2706 0.1843
vn -0.9449 0.2706 -0.1843
vn -0.9790 -0.0872 -0.1844
vn -0.1904 -0.1578 -0.9689
vn -0.1573 0.1910 -0.9689
vn 0.1904 0.1578 -0.9689
vn 0.1573 -0.1910 -0.9689
vn -0.2691 -0.9454 0.1839
vn -0.2344 -0.6715 0.7029
vn -0.6237 -0.5168 0.5864
vn -0.7580 -0.6277 0.1771
vn -0.7029 -0.1045 0.7036
vn -0.1040 0.7037 0.7028
vn -0.5152 0.6252 0.5863
vn -0.6706 0.2354 0.7035
vn -0.6261 0.7594 0.1770
vn -0.2691 -0.9454 -0.1839
vn -0.7580 -0.6277 -0.1771
vn -0.6237 -0.5168 -0.5864
vn -0.2344 -0.6715 -0.7029
vn -0.7029 -0.1045 -0.7036
vn -0.1040 0.7037 -0.7028
vn -0.5152 0.6252 -0.5863
vn -0.6261 0.7594 -0.1770
vn -0.6706 0.2354 -0.7035
vn 0.0866 -0.9791 0.1838
vn 0.6261 -0.7594 0.1770
vn 0.5152 -0.6252 0.5863
vn 0.1040 -0.7037 0.7028
vn 0.6706 -0.2354 0.7035
vn 0.2344 0.6715 0.7029
vn 0.6237 0.5168 0.5864
vn 0.7580 0.6277 0.1771
vn 0.7029 0.1045 0.7036
vn 0.0866 -0.9791 -0.1838
vn 0.1040 -0.7037 -0.7028
vn 0.5152 -0.6252 -0.5863
vn 0.6261 -0.7594 -0.1770
vn 0.6706 -0.2354 -0.7035
vn 0.7580 0.6277 -0.1771
vn 0.6237 0.5168 -0.5864
vn 0.2344 0.6715 -0.7029
vn 0.7029 0.1045 -0.7036
vn 0.2313 -0.3219 0.9181
vn 0.2028 0.3507 0.9143
vn -0.4631 0.3225 0.8256
vn -0.4346 -0.3512 0.8293
vn 0.9259 -0.3039 -0.2243
vn 0.8969 0.3787 -0.2282
vn 0.8030 0.3781 0.4606
vn 0.8319 -0.3034 0.4646
vn 0.3457 0.8880 -0.3032
vn -0.3279 0.8581 -0.3952
vn -0.4196 0.8591 0.2931
vn 0.2540 0.8872 0.3851
vn -0.8969 -0.3787 0.2282
vn -0.9259 0.3039 0.2243
vn -0.8319 0.3034 -0.4646
vn -0.8030 -0.3781 -0.4606
vn -0.2028 -0.3507 -0.9143
vn -0.2313 0.3219 -0.9181
vn 0.4346 0.3512 -0.8293
vn 0.4631 -0.3225 -0.8256
vn -0.3457 -0.8880 0.3032
vn -0.2540 -0.8872 -0.3851
vn 0.3279 -0.8581 0.3952
vn 0.4196 -0.8591 -0.2931
vn 0.0003 -1.0000 0.0000
usemtl forest
s 1
f 2/1/1 9/2/2 11/3/3 3/4/4
f 3/4/4 11/3/3 12/5/5 4/6/6
f 4/6/6 12/5/5 13/7/7 5/8/8
f 5/8/8 13/7/7 14/9/9 6/10/10
f 6/10/10 14/9/9 15/11/11 7/12/12
f 7/12/12 15/11/11 16/13/13 8/14/14
f 8/14/14 16/13/13 10/15/15 1/16/16
f 9/2/2 17/17/17 19/18/18 11/3/3
f 16/13/13 24/19/19 18/20/20 10/15/15
f 16/13/13 15/11/11 23/21/21 24/19/19
f 13/7/7 21/22/22 22/23/23 14/9/9
f 11/3/3 19/18/18 20/24/24 12/5/5
f 14/9/9 22/23/23 23/21/21 15/11/11
f 12/5/5 20/24/24 21/22/22 13/7/7
f 10/15/15 18/20/20 17/17/17 9/2/2
f 4/6/6 5/8/8 190/25/25 189/26/26
f 7/12/12 8/14/14 193/27/27 192/28/28
f 5/8/8 6/10/10 191/29/29 190/25/25
f 3/4/4 4/6/6 189/26/26 188/30/30
f 6/10/10 7/12/12 192/28/28 191/29/29
f 1/16/16 2/1/1 187/31/31 186/32/32
f 2/1/1 3/4/4 188/30/30 187/31/31
f 8/14/14 1/16/16 186/32/32 193/27/27
f 1/16/16 10/15/15 9/2/2 2/1/1
f 50/33/33 49/34/34 48/35/35 51/36/36
f 55/37/37 44/38/38 43/39/39 56/40/40
f 42/41/41 41/42/42 27/43/43 49/34/34
f 49/34/34 27/43/43 29/44/44 48/35/35
f 51/36/36 48/35/35 47/45/45 52/46/46
f 47/45/45 31/47/47 33/48/48 46/49/49
f 64/50/50 51/36/36 52/46/46 63/51/51
f 56/40/40 43/39/39 42/41/41 57/52/52
f 57/52/52 42/41/41 49/34/34 50/33/33
f 63/51/51 52/46/46 53/53/53 62/54/54
f 40/55/55 58/56/56 65/57/57 26/58/58
f 32/59/59 62/54/54 61/60/60 34/61/61
f 60/62/62 55/37/37 56/40/40 59/63/63
f 65/57/57 50/33/33 51/36/36 64/50/50
f 30/64/64 63/51/51 62/54/54 32/59/59
f 58/56/56 57/52/52 50/33/33 65/57/57
f 43/39/39 39/65/65 41/42/42 42/41/41
f 53/53/53 46/49/49 45/66/66 54/67/67
f 54/67/67 45/66/66 44/38/38 55/37/37
f 48/35/35 29/44/44 31/47/47 47/45/45
f 46/49/49 33/48/48 35/68/68 45/66/66
f 52/46/46 47/45/45 46/49/49 53/53/53
f 45/66/66 35/68/68 37/69/69 44/38/38
f 44/38/38 37/69/69 39/65/65 43/39/39
f 59/63/63 56/40/40 57/52/52 58/56/56
f 28/70/70 64/50/50 63/51/51 30/64/64
f 36/71/71 60/62/62 59/63/63 38/72/72
f 62/54/54 53/53/53 54/67/67 61/60/60
f 61/60/60 54/67/67 55/37/37 60/62/62
f 26/58/58 65/57/57 64/50/50 28/70/70
f 38/72/72 59/63/63 58/56/56 40/55/55
f 34/61/61 61/60/60 60/62/62 36/71/71
f 90/73/73 89/74/74 88/75/75 91/76/76
f 95/77/77 84/78/78 83/79/79 96/80/80
f 82/81/81 81/82/82 67/83/83 89/74/74
f 89/74/74 67/83/83 69/84/84 88/75/75
f 91/76/76 88/75/75 87/85/85 92/86/86
f 87/85/85 71/87/87 73/88/88 86/89/89
f 104/90/90 91/76/76 92/86/86 103/91/91
f 96/80/80 83/79/79 82/81/81 97/92/92
f 97/92/92 82/81/81 89/74/74 90/73/73
f 103/91/91 92/86/86 93/93/93 102/94/94
f 80/95/95 98/96/96 105/97/97 66/98/98
f 72/99/99 102/94/94 101/100/100 74/101/101
f 100/102/102 95/77/77 96/80/80 99/103/103
f 105/97/97 90/73/73 91/76/76 104/90/90
f 70/104/104 103/91/91 102/94/94 72/99/99
f 98/96/96 97/92/92 90/73/73 105/97/97
f 83/79/79 79/105/105 81/82/82 82/81/81
f 93/93/93 86/89/89 85/106/106 94/107/107
f 94/107/107 85/106/106 84/78/78 95/77/77
f 88/75/75 69/84/84 71/87/87 87/85/85
f 86/89/89 73/88/88 75/108/108 85/106/106
f 92/86/86 87/85/85 86/89/89 93/93/93
f 85/106/106 75/108/108 77/109/109 84/78/78
f 84/78/78 77/109/109 79/105/105 83/79/79
f 99/103/103 96/80/80 97/92/92 98/96/96
f 68/110/110 104/90/90 103/91/91 70/104/104
f 76/111/111 100/102/102 99/103/103 78/112/112
f 102/94/94 93/93/93 94/107/107 101/100/100
f 101/100/100 94/107/107 95/77/77 100/102/102
f 66/98/98 105/97/97 104/90/90 68/110/110
f 78/112/112 99/103/103 98/96/96 80/95/95
f 74/101/101 101/100/100 100/102/102 76/111/111
f 136/113/113 142/114/114 113/115/115 107/116/116
f 150/117/117 156/118/118 143/119/119 135/120/120
f 155/121/121 127/122/122 114/123/123 141/124/124
f 108/125/125 115/126/126 129/127/127 121/128/128
f 122/129/129 128/130/130 157/131/131 149/132/132
f 106/133/133 109/134/134 110/135/135 112/136/136
f 107/116/116 111/137/137 110/135/135 109/134/134
f 108/125/125 112/136/136 110/135/135 111/137/137
f 113/115/115 116/138/138 117/139/139 119/140/140
f 114/123/123 118/141/141 117/139/139 116/138/138
f 115/126/126 119/140/140 117/139/139 118/141/141
f 120/142/142 123/143/143 124/144/144 126/145/145
f 121/128/128 125/146/146 124/144/144 123/143/143
f 122/129/129 126/145/145 124/144/144 125/146/146
f 127/122/122 130/147/147 131/148/148 133/149/149
f 128/130/130 132/150/150 131/148/148 130/147/147
f 129/127/127 133/149/149 131/148/148 132/150/150
f 134/151/151 137/152/152 138/153/153 140/154/154
f 135/120/120 139/155/155 138/153/153 137/152/152
f 136/113/113 140/154/154 138/153/153 139/155/155
f 141/124/124 144/156/156 145/157/157 147/158/158
f 142/114/114 146/159/159 145/157/157 144/156/156
f 143/119/119 147/158/158 145/157/157 146/159/159
f 148/160/160 151/161/161 152/162/162 154/163/163
f 149/132/132 153/164/164 152/162/162 151/161/161
f 150/117/117 154/163/163 152/162/162 153/164/164
f 155/121/121 158/165/165 159/166/166 161/167/167
f 156/118/118 160/168/168 159/166/166 158/165/165
f 157/131/131 161/167/167 159/166/166 160/168/168
f 120/142/142 106/133/133 112/136/136 123/143/143
f 123/143/143 112/136/136 108/125/125 121/128/128
f 107/116/116 113/115/115 119/140/140 111/137/137
f 111/137/137 119/140/140 115/126/126 108/125/125
f 114/123/123 127/122/122 133/149/149 118/141/141
f 118/141/141 133/149/149 129/127/127 115/126/126
f 128/130/130 122/129/129 125/146/146 132/150/150
f 132/150/150 125/146/146 121/128/128 129/127/127
f 148/160/160 120/142/142 126/145/145 151/161/161
f 151/161/161 126/145/145 122/129/129 149/132/132
f 127/122/122 155/121/121 161/167/167 130/147/147
f 130/147/147 161/167/167 157/131/131 128/130/130
f 156/118/118 150/117/117 153/164/164 160/168/168
f 160/168/168 153/164/164 149/132/132 157/131/131
f 134/151/151 148/160/160 154/163/163 137/152/152
f 137/152/152 154/163/163 150/117/117 135/120/120
f 155/121/121 141/124/124 147/158/158 158/165/165
f 158/165/165 147/158/158 143/119/119 156/118/118
f 142/114/114 136/113/113 139/155/155 146/159/159
f 146/159/159 139/155/155 135/120/120 143/119/119
f 106/133/133 134/151/151 140/154/154 109/134/134
f 109/134/134 140/154/154 136/113/113 107/116/116
f 141/124/124 114/123/123 116/138/138 144/156/156
f 144/156/156 116/138/138 113/115/115 142/114/114
f 120/142/142 148/160/160 134/151/151 106/133/133
f 176/169/169 178/170/170 165/171/171 163/172/172
f 182/173/173 184/174/174 179/175/175 175/176/176
f 183/177/177 171/178/178 166/179/179 177/180/180
f 164/181/181 167/182/182 173/183/183 169/184/184
f 170/185/185 172/186/186 185/187/187 181/188/188
f 162/189/189 163/172/172 164/181/181
f 165/171/171 166/179/179 167/182/182
f 168/190/190 169/184/184 170/185/185
f 171/178/178 172/186/186 173/183/183
f 174/191/191 175/176/176 176/169/169
f 177/180/180 178/170/170 179/175/175
f 180/192/192 181/188/188 182/173/173
f 183/177/177 184/174/174 185/187/187
f 168/190/190 162/189/189 164/181/181 169/184/184
f 163/172/172 165/171/171 167/182/182 164/181/181
f 166/179/179 171/178/178 173/183/183 167/182/182
f 172/186/186 170/185/185 169/184/184 173/183/183
f 180/192/192 168/190/190 170/185/185 181/188/188
f 171/178/178 183/177/177 185/187/187 172/186/186
f 184/174/174 182/173/173 181/188/188 185/187/187
f 174/191/191 180/192/192 182/173/173 175/176/176
f 183/177/177 177/180/180 179/175/175 184/174/174
f 178/170/170 176/169/169 175/176/176 179/175/175
f 162/189/189 174/191/191 176/169/169 163/172/172
f 177/180/180 166/179/179 165/171/171 178/170/170
f 168/190/190 180/192/192 174/191/191 162/189/189
f 25/193/193 186/32/32 187/31/31
f 25/193/193 187/31/31 188/30/30
f 25/193/193 188/30/30 189/26/26
f 25/193/193 189/26/26 190/25/25
f 25/193/193 190/25/25 191/29/29
f 25/193/193 191/29/29 192/28/28
f 25/193/193 192/28/28 193/27/27
f 25/193/193 193/27/27 186/32/32
