{
    "asset" : {
        "generator" : "Khronos glTF Blender I/O v3.4.50",
        "version" : "2.0"
    },
    "scene" : 0,
    "scenes" : [
        {
            "name" : "Scene",
            "nodes" : [
                0
            ]
        }
    ],
    "nodes" : [
        {
            "mesh" : 0,
            "name" : "bow_withString"
        }
    ],
    "materials" : [
        {
            "doubleSided" : true,
            "name" : "ranger",
            "pbrMetallicRoughness" : {
                "baseColorTexture" : {
                    "index" : 0
                },
                "metallicFactor" : 0,
                "roughnessFactor" : 0.5
            }
        }
    ],
    "meshes" : [
        {
            "extras" : {
                "targetNames" : [
                    "Draw"
                ]
            },
            "name" : "bow_withString",
            "primitives" : [
                {
                    "attributes" : {
                        "POSITION" : 0,
                        "TEXCOORD_0" : 1,
                        "NORMAL" : 2
                    },
                    "indices" : 3,
                    "material" : 0,
                    "targets" : [
                        {
                            "POSITION" : 4,
                            "NORMAL" : 5
                        }
                    ]
                }
            ],
            "weights" : [
                0
            ]
        }
    ],
    "textures" : [
        {
            "sampler" : 0,
            "source" : 0
        }
    ],
    "images" : [
        {
            "mimeType" : "image/png",
            "name" : "ranger_texture",
            "uri" : "ranger_texture.png"
        }
    ],
    "accessors" : [
        {
            "bufferView" : 0,
            "componentType" : 5126,
            "count" : 802,
            "max" : [
                0.12819603085517883,
                0.07779941707849503,
                0.9918521642684937
            ],
            "min" : [
                -0.36619606614112854,
                -0.07779943197965622,
                -0.9918521642684937
            ],
            "type" : "VEC3"
        },
        {
            "bufferView" : 1,
            "componentType" : 5126,
            "count" : 802,
            "type" : "VEC2"
        },
        {
            "bufferView" : 2,
            "componentType" : 5126,
            "count" : 802,
            "type" : "VEC3"
        },
        {
            "bufferView" : 3,
            "componentType" : 5123,
            "count" : 2052,
            "type" : "SCALAR"
        },
        {
            "bufferView" : 4,
            "componentType" : 5126,
            "count" : 802,
            "max" : [
                -0.0004337318241596222,
                0.001040344126522541,
                0.14671479165554047
            ],
            "min" : [
                -0.5072237253189087,
                -0.0010403292253613472,
                -0.14671340584754944
            ],
            "type" : "VEC3"
        },
        {
            "bufferView" : 5,
            "componentType" : 5126,
            "count" : 802,
            "type" : "VEC3"
        }
    ],
    "bufferViews" : [
        {
            "buffer" : 0,
            "byteLength" : 9624,
            "byteOffset" : 0,
            "target" : 34962
        },
        {
            "buffer" : 0,
            "byteLength" : 6416,
            "byteOffset" : 9624,
            "target" : 34962
        },
        {
            "buffer" : 0,
            "byteLength" : 9624,
            "byteOffset" : 16040,
            "target" : 34962
        },
        {
            "buffer" : 0,
            "byteLength" : 4104,
            "byteOffset" : 25664,
            "target" : 34963
        },
        {
            "buffer" : 0,
            "byteLength" : 9624,
            "byteOffset" : 29768,
            "target" : 34962
        },
        {
            "buffer" : 0,
            "byteLength" : 9624,
            "byteOffset" : 39392,
            "target" : 34962
        }
    ],
    "samplers" : [
        {
            "magFilter" : 9729,
            "minFilter" : 9987
        }
    ],
    "buffers" : [
        {
            "byteLength" : 49016,
            "uri" : "bow_withString.bin"
        }
    ]
}
