# Blender v3.4.1 OBJ File: 'Resource_Bits_Export.blend'
# www.blender.org
mtllib Gold_Bar.mtl
o Gold_Bar
v 0.173687 0.000000 -0.374230
v 0.164255 0.030317 -0.400000
v 0.200000 0.030317 -0.364993
v 0.170716 0.008880 -0.396074
v 0.189969 0.012813 -0.390177
v 0.189322 0.030317 -0.389542
v 0.195992 0.008880 -0.371321
v 0.111630 0.219683 -0.348461
v 0.104212 0.250000 -0.306188
v 0.147375 0.219683 -0.313453
v 0.106177 0.241120 -0.332866
v 0.127616 0.237187 -0.329109
v 0.131452 0.241120 -0.308112
v 0.136697 0.219683 -0.338003
v 0.173688 0.000000 0.374230
v 0.200000 0.030317 0.364993
v 0.164255 0.030317 0.400000
v 0.195992 0.008880 0.371321
v 0.189970 0.012813 0.390177
v 0.189322 0.030317 0.389542
v 0.170716 0.008880 0.396074
v 0.104213 0.250000 0.306188
v 0.111631 0.219683 0.348461
v 0.147375 0.219683 0.313453
v 0.106177 0.241120 0.332866
v 0.127616 0.237187 0.329109
v 0.136697 0.219683 0.338003
v 0.131452 0.241120 0.308112
v -0.173688 0.000000 -0.374230
v -0.200000 0.030317 -0.364993
v -0.164255 0.030317 -0.400000
v -0.195992 0.008880 -0.371321
v -0.189970 0.012813 -0.390177
v -0.189322 0.030317 -0.389542
v -0.170716 0.008880 -0.396074
v -0.104213 0.250000 -0.306188
v -0.111631 0.219683 -0.348461
v -0.147375 0.219683 -0.313453
v -0.106177 0.241120 -0.332866
v -0.127616 0.237187 -0.329109
v -0.136697 0.219683 -0.338003
v -0.131452 0.241120 -0.308112
v -0.173687 0.000000 0.374230
v -0.164255 0.030317 0.400000
v -0.200000 0.030317 0.364993
v -0.170716 0.008880 0.396074
v -0.189969 0.012813 0.390177
v -0.189322 0.030317 0.389542
v -0.195992 0.008880 0.371321
v -0.104212 0.250000 0.306188
v -0.147375 0.219683 0.313453
v -0.111630 0.219683 0.348461
v -0.131452 0.241120 0.308112
v -0.127616 0.237187 0.329109
v -0.136697 0.219683 0.338003
v -0.106177 0.241120 0.332866
vt 0.343398 0.601200
vt 0.333499 0.641187
vt 0.291501 0.641187
vt 0.281602 0.601200
vt 0.350122 0.601200
vt 0.340223 0.641187
vt 0.340223 0.641187
vt 0.350122 0.601200
vt 0.332103 0.647589
vt 0.292897 0.647589
vt 0.292897 0.647589
vt 0.332103 0.647589
vt 0.274878 0.601200
vt 0.284777 0.641187
vt 0.284777 0.641187
vt 0.274878 0.601200
vt 0.281602 0.601200
vt 0.291501 0.641187
vt 0.333499 0.641187
vt 0.343398 0.601200
vt 0.279828 0.618192
vt 0.280387 0.666854
vt 0.276765 0.667685
vt 0.275632 0.666854
vt 0.281602 0.624594
vt 0.276887 0.671381
vt 0.274878 0.624594
vt 0.292527 0.692501
vt 0.288494 0.691671
vt 0.286786 0.687975
vt 0.287773 0.692501
vt 0.279828 0.594798
vt 0.275632 0.643461
vt 0.276765 0.644291
vt 0.280387 0.643461
vt 0.276887 0.647987
vt 0.292897 0.670983
vt 0.292527 0.715895
vt 0.288494 0.715064
vt 0.287773 0.715895
vt 0.291501 0.664581
vt 0.286786 0.711368
vt 0.284777 0.664581
vt 0.345172 0.594798
vt 0.349368 0.643461
vt 0.348235 0.644291
vt 0.344613 0.643461
vt 0.348113 0.647987
vt 0.332103 0.670983
vt 0.332473 0.715895
vt 0.336506 0.715064
vt 0.337227 0.715895
vt 0.333499 0.664581
vt 0.338214 0.711368
vt 0.340223 0.664581
vt 0.345172 0.618192
vt 0.344613 0.666854
vt 0.348235 0.667685
vt 0.349368 0.666854
vt 0.343398 0.624594
vt 0.348113 0.671381
vt 0.350122 0.624594
vt 0.337227 0.692501
vt 0.336506 0.691671
vt 0.332473 0.692501
vt 0.338214 0.687975
vt 0.275632 0.666854
vt 0.287773 0.715895
vt 0.345172 0.594798
vt 0.338214 0.711368
vt 0.349368 0.666854
vt 0.337227 0.715895
vt 0.279828 0.594798
vt 0.292527 0.715895
vt 0.348113 0.671381
vt 0.332473 0.715895
vt 0.276887 0.671381
vt 0.286786 0.711368
vt 0.344613 0.666854
vt 0.280387 0.666854
vn -0.1792 0.0967 -0.9791
vn -0.1586 0.4445 -0.8816
vn 0.1586 0.4445 -0.8816
vn 0.1792 0.0967 -0.9791
vn -0.9777 0.0980 0.1856
vn -0.8775 0.4507 0.1641
vn -0.8775 0.4507 -0.1641
vn -0.9777 0.0980 -0.1856
vn -0.1403 0.9797 0.1432
vn 0.1403 0.9797 0.1432
vn 0.1403 0.9797 -0.1432
vn -0.1403 0.9797 -0.1432
vn 0.9777 0.0980 -0.1856
vn 0.8775 0.4507 -0.1641
vn 0.8775 0.4507 0.1641
vn 0.9777 0.0980 0.1856
vn 0.1792 0.0967 0.9791
vn 0.1586 0.4445 0.8816
vn -0.1586 0.4445 0.8816
vn -0.1792 0.0967 0.9791
vn 0.1868 -0.9638 -0.1902
vn 0.1481 -0.9168 -0.3709
vn 0.3430 -0.8716 -0.3502
vn 0.3641 -0.9190 -0.1511
vn 0.6923 0.1684 -0.7016
vn 0.3474 -0.0158 -0.9376
vn 0.2021 -0.0880 -0.9754
vn 0.9737 -0.0902 -0.2091
vn 0.9327 -0.0161 -0.3603
vn 0.1325 0.8080 -0.5741
vn 0.4668 0.7454 -0.4759
vn 0.6145 0.4831 -0.6237
vn 0.5678 0.8118 -0.1360
vn 0.1868 -0.9638 0.1902
vn 0.3641 -0.9190 0.1511
vn 0.3430 -0.8716 0.3502
vn 0.1481 -0.9168 0.3709
vn 0.6923 0.1684 0.7016
vn 0.9327 -0.0161 0.3603
vn 0.9737 -0.0902 0.2091
vn 0.2021 -0.0880 0.9754
vn 0.3474 -0.0158 0.9376
vn 0.1325 0.8080 0.5741
vn 0.4668 0.7454 0.4759
vn 0.5678 0.8118 0.1360
vn 0.6145 0.4831 0.6237
vn -0.1868 -0.9638 -0.1902
vn -0.3641 -0.9190 -0.1511
vn -0.3430 -0.8716 -0.3502
vn -0.1481 -0.9168 -0.3709
vn -0.6923 0.1684 -0.7016
vn -0.9327 -0.0161 -0.3603
vn -0.9737 -0.0902 -0.2091
vn -0.2021 -0.0880 -0.9754
vn -0.3474 -0.0158 -0.9376
vn -0.1325 0.8080 -0.5741
vn -0.4668 0.7454 -0.4759
vn -0.5678 0.8118 -0.1360
vn -0.6145 0.4831 -0.6237
vn -0.1868 -0.9638 0.1902
vn -0.1481 -0.9168 0.3709
vn -0.3430 -0.8716 0.3502
vn -0.3641 -0.9190 0.1511
vn -0.6923 0.1684 0.7016
vn -0.3474 -0.0158 0.9376
vn -0.2021 -0.0880 0.9754
vn -0.9737 -0.0902 0.2091
vn -0.9327 -0.0161 0.3603
vn -0.5678 0.8118 0.1360
vn -0.4668 0.7454 0.4759
vn -0.1325 0.8080 0.5741
vn -0.6145 0.4831 0.6237
usemtl resource
s 1
f 31/1/1 37/2/2 8/3/3 2/4/4
f 45/5/5 51/6/6 38/7/7 30/8/8
f 50/9/9 22/10/10 9/11/11 36/12/12
f 3/13/13 10/14/14 24/15/15 16/16/16
f 17/17/17 23/18/18 52/19/19 44/20/20
f 1/21/21 4/22/22 5/23/23 7/24/24
f 2/25/4 6/26/25 5/23/26 4/22/27
f 3/27/13 7/24/28 5/23/29 6/26/25
f 8/3/3 11/28/30 12/29/31 14/30/32
f 9/11/11 13/31/33 12/29/31 11/28/30
f 10/14/14 14/30/32 12/29/31 13/31/33
f 15/32/34 18/33/35 19/34/36 21/35/37
f 16/16/16 20/36/38 19/34/39 18/33/40
f 17/17/17 21/35/41 19/34/42 20/36/38
f 22/37/10 25/38/43 26/39/44 28/40/45
f 23/41/18 27/42/46 26/39/44 25/38/43
f 24/43/15 28/40/45 26/39/44 27/42/46
f 29/44/47 32/45/48 33/46/49 35/47/50
f 30/8/8 34/48/51 33/46/52 32/45/53
f 31/1/1 35/47/54 33/46/55 34/48/51
f 36/49/12 39/50/56 40/51/57 42/52/58
f 37/53/2 41/54/59 40/51/57 39/50/56
f 38/55/7 42/52/58 40/51/57 41/54/59
f 43/56/60 46/57/61 47/58/62 49/59/63
f 44/60/20 48/61/64 47/58/65 46/57/66
f 45/62/5 49/59/67 47/58/68 48/61/64
f 50/9/9 53/63/69 54/64/70 56/65/71
f 51/6/6 55/66/72 54/64/70 53/63/69
f 52/19/19 56/65/71 54/64/70 55/66/72
f 1/21/21 7/24/24 18/67/35
f 18/67/40 7/24/28 3/27/13
f 2/4/4 8/3/3 14/30/32
f 14/30/32 10/14/14 3/13/13
f 22/37/10 28/40/45 13/68/33
f 13/68/33 28/40/45 24/43/15
f 23/18/18 17/17/17 20/36/38
f 20/36/38 16/16/16 24/15/15
f 43/69/60 15/32/34 21/35/37
f 21/35/41 17/17/17 44/20/20
f 22/10/10 50/9/9 56/65/71
f 56/65/71 52/19/19 23/18/18
f 45/62/5 48/61/64 55/70/72
f 55/70/72 48/61/64 44/60/20
f 43/56/60 49/59/63 32/71/48
f 32/71/53 49/59/67 45/62/5
f 36/49/12 42/52/58 53/72/69
f 53/72/69 42/52/58 38/55/7
f 37/2/2 31/1/1 34/48/51
f 34/48/51 30/8/8 38/7/7
f 1/73/21 29/44/47 35/47/50
f 35/47/54 31/1/1 2/4/4
f 36/12/12 9/11/11 11/28/30
f 11/28/30 8/3/3 37/2/2
f 15/32/34 43/69/60 29/44/47 1/73/21
f 39/50/56 11/74/30 37/53/2
f 41/54/59 37/53/2 34/75/51
f 41/54/59 34/75/51 38/55/7
f 51/6/6 53/63/69 38/7/7
f 50/9/9 36/12/12 53/63/69
f 39/50/56 36/49/12 11/74/30
f 25/38/43 22/37/10 56/76/71
f 9/11/11 22/10/10 13/31/33
f 10/14/14 13/31/33 24/15/15
f 27/42/46 20/77/38 24/43/15
f 27/42/46 23/41/18 20/77/38
f 25/38/43 56/76/71 23/41/18
f 6/26/25 14/78/32 3/27/13
f 16/16/16 18/33/40 3/13/13
f 15/32/34 1/73/21 18/33/35
f 4/22/22 1/21/21 35/79/50
f 4/22/27 35/79/54 2/25/4
f 6/26/25 2/25/4 14/78/32
f 51/6/6 45/5/5 55/66/72
f 52/19/19 55/66/72 44/20/20
f 46/57/66 21/80/41 44/60/20
f 46/57/61 43/56/60 21/80/37
f 29/44/47 43/69/60 32/45/48
f 30/8/8 32/45/53 45/5/5
