# Blender v3.4.1 OBJ File: 'Resource_Bits_Export.blend'
# www.blender.org
mtllib Iron_Nugget_Medium.mtl
o Iron_Nugget_Medium
v -0.039818 -0.139450 -0.019087
v -0.096798 -0.097179 -0.148006
v 0.079465 -0.135769 0.045685
v 0.068168 -0.097046 -0.125213
v -0.056952 -0.104807 0.133944
v -0.146639 -0.079600 0.002333
v -0.070502 0.011655 0.091490
v -0.094575 0.041515 -0.058609
v -0.076167 0.035017 0.057703
v -0.043198 0.049639 0.083737
v -0.036785 0.101680 0.064539
v 0.065819 0.073221 0.098309
v 0.038808 0.138638 0.012233
v -0.062077 0.101791 -0.037380
v 0.016189 0.106747 -0.070211
v 0.012739 0.073633 -0.099376
v 0.051487 0.082648 -0.088815
v 0.022045 0.017587 -0.117465
v 0.112251 0.037743 -0.017798
v 0.058759 -0.000129 0.102335
v 0.094995 -0.110206 0.067500
v 0.102786 -0.107329 0.022148
vt 0.849082 0.604260
vt 0.818352 0.597936
vt 0.846042 0.607165
vt 0.808039 0.606232
vt 0.782743 0.603125
vt 0.805631 0.603391
vt 0.808445 0.604865
vt 0.841089 0.606022
vt 0.824024 0.676234
vt 0.839289 0.646858
vt 0.817661 0.671549
vt 0.839289 0.607150
vt 0.805447 0.608859
vt 0.817661 0.631842
vt 0.845110 0.612468
vt 0.842856 0.636196
vt 0.824024 0.636526
vt 0.813699 0.680787
vt 0.821704 0.691641
vt 0.821704 0.651933
vt 0.839294 0.646640
vt 0.812124 0.651615
vt 0.787410 0.649867
vt 0.808439 0.663377
vt 0.813699 0.641080
vt 0.785915 0.638966
vt 0.834033 0.651644
vt 0.815812 0.654512
vt 0.812864 0.662892
vt 0.831585 0.694029
vt 0.820962 0.693763
vt 0.824091 0.685967
vt 0.820962 0.654056
vt 0.831585 0.654321
vt 0.825884 0.635738
vt 0.824091 0.646259
vt 0.825884 0.675445
vt 0.814108 0.689287
vt 0.792277 0.641277
vt 0.816293 0.636806
vt 0.814108 0.649580
vt 0.808591 0.612237
vt 0.789335 0.637696
vt 0.811467 0.607416
vt 0.819925 0.631285
vt 0.825945 0.631600
vt 0.792278 0.643771
vt 0.802943 0.661748
vt 0.789845 0.646009
vt 0.802846 0.662893
vt 0.785461 0.635218
vt 0.786869 0.643563
vt 0.777417 0.609535
vt 0.786482 0.640786
vt 0.783824 0.629555
vt 0.781286 0.609946
vt 0.803325 0.612654
vt 0.786482 0.680494
vt 0.777417 0.649242
vt 0.781286 0.649653
vt 0.803325 0.652362
vt 0.782743 0.642832
vt 0.805631 0.643098
vt 0.799888 0.609784
vt 0.787870 0.629575
vt 0.785915 0.678674
vt 0.802943 0.701456
vn -0.2045 -0.9533 -0.2222
vn -0.1792 -0.9822 -0.0572
vn -0.4813 -0.8754 0.0455
vn 0.5527 -0.4353 -0.7106
vn 0.4344 -0.9005 -0.0172
vn -0.0845 -0.9738 0.2110
vn -0.4610 -0.8752 0.1465
vn -0.8222 0.4441 0.3560
vn -0.8723 0.3055 0.3819
vn -0.8013 0.3376 0.4939
vn -0.8105 0.1151 0.5743
vn -0.9160 0.2276 -0.3303
vn -0.8728 0.4550 0.1766
vn -0.3744 0.3205 0.8701
vn -0.4812 0.6582 0.5790
vn -0.6382 0.7145 -0.2866
vn -0.1112 0.4314 0.8953
vn 0.0243 0.7996 0.6001
vn 0.0612 0.1211 0.9908
vn -0.3041 0.9487 -0.0863
vn -0.0206 0.8305 -0.5566
vn -0.1547 0.4803 -0.8634
vn 0.1997 0.3203 -0.9260
vn -0.3691 0.4368 -0.8203
vn 0.4521 0.4111 -0.7916
vn 0.9578 0.2573 -0.1283
vn 0.1358 0.1211 -0.9833
vn -0.2971 0.5207 -0.8004
vn 0.7465 0.6173 -0.2484
vn 0.8059 0.5918 -0.0173
vn 0.9271 0.2201 0.3035
vn 0.9060 0.0528 0.4200
vn 0.9524 -0.1826 0.2440
vn 0.9214 -0.3848 -0.0553
vn 0.2594 -0.7133 0.6511
vn 0.1591 0.1200 0.9799
vn 0.3909 -0.1583 0.9067
vn -0.0532 0.2949 0.9541
vn 0.3503 0.8372 -0.4200
usemtl resource
s 1
f 2/1/1 1/2/2 6/3/3
f 1/2/2 2/1/1 4/4/4
f 1/2/2 4/4/4 3/5/5
f 1/2/2 3/5/5 5/6/6
f 1/2/2 5/7/7 6/8/3
f 9/9/8 6/10/9 7/11/10
f 6/12/9 5/13/11 7/14/10
f 2/1/12 6/15/12 8/16/12
f 6/15/9 9/17/8 8/16/13
f 7/11/10 10/18/14 9/9/8
f 10/18/14 11/19/15 9/9/8
f 8/16/13 9/17/8 11/20/15 14/21/16
f 11/22/15 12/23/17 13/24/18
f 10/25/14 20/26/19 12/23/17 11/22/15
f 14/27/16 11/28/15 13/29/20
f 14/30/16 15/31/21 16/32/22
f 15/33/21 14/34/16 13/29/20
f 18/35/23 8/16/24 14/21/16 16/36/22
f 18/37/23 16/32/22 17/38/25
f 16/32/22 15/31/21 17/38/25
f 19/39/26 18/40/23 17/41/25
f 4/42/4 18/40/23 19/43/26
f 4/44/4 2/1/27 18/45/23
f 2/1/28 8/16/24 18/46/23
f 19/47/26 17/41/29 13/48/30
f 12/23/31 19/49/26 13/50/30
f 20/51/32 19/52/26 12/23/31
f 21/53/33 19/54/26 20/55/32
f 22/56/34 4/57/4 19/43/26
f 19/58/26 21/59/33 22/60/34
f 4/61/4 22/60/34 3/62/5
f 22/60/34 21/59/33 3/62/5
f 21/59/35 5/63/35 3/62/35
f 5/64/36 21/53/37 20/65/19
f 20/66/19 10/18/14 7/11/38
f 5/64/36 20/65/19 7/14/38
f 13/67/39 17/38/25 15/31/21
