# Blender v3.4.1 OBJ File: 'Resource_Bits_Export.blend'
# www.blender.org
mtllib Pallet_Wood.mtl
o Pallet_Wood
v 0.742632 0.150000 0.217486
v -0.742204 0.150000 0.217873
v 0.768408 0.150000 -0.217908
v -0.742204 0.150000 -0.217873
v -0.717161 0.150000 0.000000
v 0.741168 0.150000 -0.000534
v 0.724914 0.300000 0.199500
v 0.749998 0.275000 0.225000
v -0.722112 0.300000 0.199500
v -0.749998 0.275000 0.225000
v 0.748173 0.300000 -0.199500
v 0.776237 0.275000 -0.225000
v -0.722112 0.300000 -0.199500
v -0.749998 0.275000 -0.225000
v -0.725848 0.275000 0.000000
v -0.700698 0.300000 0.000000
v 0.749998 0.275000 -0.000000
v 0.724911 0.300000 -0.000000
v 0.743064 0.150000 0.742740
v -0.742632 0.150000 0.743086
v 0.742632 0.150000 0.308113
v -0.742632 0.150000 0.308113
v 0.741637 0.150000 0.479713
v 0.760560 0.150000 0.571289
v 0.638229 0.150000 0.525653
v -0.741724 0.150000 0.574405
v -0.741724 0.150000 0.476794
v -0.616238 0.150000 0.525599
v 0.749998 0.275000 0.750599
v 0.734137 0.300000 0.718031
v -0.730942 0.300000 0.718030
v -0.749998 0.275000 0.750599
v 0.733814 0.300000 0.333832
v 0.749998 0.275000 0.300599
v -0.749998 0.275000 0.300599
v -0.730578 0.300000 0.333791
v 0.747634 0.300000 0.585455
v 0.769162 0.275000 0.565473
v 0.733474 0.300000 0.464665
v 0.749998 0.275000 0.485726
v 0.640420 0.275000 0.525599
v 0.560663 0.300000 0.527547
v -0.730363 0.300000 0.462573
v -0.749998 0.275000 0.482969
v -0.730713 0.300000 0.588739
v -0.749998 0.275000 0.568230
v -0.618348 0.275000 0.525599
v -0.535727 0.300000 0.525599
v -0.742632 0.150000 -0.743085
v 0.742992 0.150000 -0.742795
v -0.743215 0.150000 -0.308569
v 0.742992 0.150000 -0.308405
v 0.760205 0.150000 -0.525600
v -0.767066 0.150000 -0.479992
v -0.741637 0.150000 -0.571485
v -0.638278 0.150000 -0.525532
v -0.749998 0.275000 -0.750598
v -0.735089 0.300000 -0.719985
v 0.727533 0.300000 -0.720183
v 0.749998 0.275000 -0.750599
v -0.735517 0.300000 -0.330334
v -0.749998 0.275000 -0.300599
v 0.727460 0.300000 -0.330172
v 0.749998 0.275000 -0.300600
v 0.769467 0.275000 -0.525600
v 0.744369 0.300000 -0.525600
v -0.734701 0.300000 -0.586980
v -0.749998 0.275000 -0.565472
v -0.754075 0.300000 -0.465570
v -0.775753 0.275000 -0.485725
v -0.640420 0.275000 -0.525599
v -0.558999 0.300000 -0.523045
v 0.136878 -0.000000 -0.673919
v 0.150000 0.150000 -0.700000
v 0.136878 -0.000000 0.673919
v 0.150000 0.150000 0.700000
v -0.136878 -0.000000 -0.673919
v -0.150000 0.150000 -0.700000
v -0.136878 -0.000000 0.673919
v -0.150000 0.150000 0.700000
v 0.000000 -0.000000 0.645037
v 0.000000 0.150000 0.670000
v -0.000000 -0.000000 -0.645037
v -0.000000 0.150000 -0.670000
v 0.686879 -0.000000 -0.673919
v 0.700001 0.150000 -0.700000
v 0.686879 -0.000000 0.673919
v 0.700001 0.150000 0.700000
v 0.413123 -0.000000 -0.645036
v 0.400001 0.150000 -0.670000
v 0.413123 -0.000000 0.645037
v 0.400001 0.150000 0.670000
v 0.550001 -0.000000 0.673919
v 0.550001 0.150000 0.700000
v 0.550001 -0.000000 -0.673919
v 0.550001 0.150000 -0.700000
v -0.413123 -0.000000 -0.645037
v -0.400001 0.150000 -0.670000
v -0.413123 -0.000000 0.645036
v -0.400001 0.150000 0.670000
v -0.686879 -0.000000 -0.673919
v -0.700001 0.150000 -0.700000
v -0.686879 -0.000000 0.673919
v -0.700001 0.150000 0.700000
v -0.550001 -0.000000 0.673919
v -0.550001 0.150000 0.700000
v -0.550001 -0.000000 -0.673919
v -0.550001 0.150000 -0.700000
vt 0.735075 0.912802
vt 0.735075 0.925193
vt 0.693773 0.925193
vt 0.693773 0.912802
vt 0.710969 0.809877
vt 0.686506 0.809877
vt 0.686506 0.809877
vt 0.710969 0.809877
vt 0.742016 0.944052
vt 0.742016 0.956443
vt 0.700714 0.956443
vt 0.700714 0.944052
vt 0.683379 0.793356
vt 0.683379 0.805746
vt 0.683379 0.805746
vt 0.683379 0.793356
vt 0.686970 0.824606
vt 0.714559 0.824606
vt 0.714559 0.824606
vt 0.686970 0.824606
vt 0.687427 0.912802
vt 0.687427 0.925193
vt 0.728729 0.925193
vt 0.728729 0.912802
vt 0.714559 0.836996
vt 0.714559 0.836996
vt 0.710969 0.793356
vt 0.710969 0.793356
vt 0.694367 0.944052
vt 0.694367 0.956443
vt 0.735669 0.956443
vt 0.735669 0.944052
vt 0.711433 0.841126
vt 0.686970 0.841127
vt 0.686970 0.841127
vt 0.711433 0.841127
vt 0.694367 0.960573
vt 0.730479 0.960573
vt 0.683379 0.809877
vt 0.710969 0.809877
vt 0.710969 0.809877
vt 0.683379 0.809877
vt 0.686970 0.841127
vt 0.714559 0.841127
vt 0.709122 0.809877
vt 0.685765 0.809877
vt 0.702021 0.809876
vt 0.725349 0.881552
vt 0.732668 0.881552
vt 0.732668 0.893943
vt 0.725349 0.893943
vt 0.739609 0.944052
vt 0.739609 0.956443
vt 0.705626 0.956443
vt 0.705626 0.944052
vt 0.709361 0.809877
vt 0.685765 0.809877
vt 0.681772 0.793356
vt 0.681772 0.805746
vt 0.681772 0.805746
vt 0.681772 0.793356
vt 0.704869 0.944052
vt 0.704869 0.956443
vt 0.733262 0.956443
vt 0.733262 0.944052
vt 0.685362 0.824606
vt 0.712952 0.824606
vt 0.690252 0.824606
vt 0.709361 0.793356
vt 0.704472 0.793356
vt 0.685362 0.824606
vt 0.693985 0.824606
vt 0.712952 0.824606
vt 0.732668 0.912802
vt 0.739988 0.912802
vt 0.739988 0.925193
vt 0.732668 0.925193
vt 0.739230 0.912802
vt 0.726322 0.912802
vt 0.726322 0.925193
vt 0.739230 0.925193
vt 0.708877 0.841127
vt 0.685124 0.841127
vt 0.692834 0.841127
vt 0.708882 0.841127
vt 0.685363 0.841127
vt 0.695482 0.841127
vt 0.682733 0.841126
vt 0.711990 0.809877
vt 0.699219 0.809877
vt 0.726322 0.881552
vt 0.713413 0.881552
vt 0.713413 0.893943
vt 0.726322 0.893943
vt 0.700738 0.793356
vt 0.709361 0.793356
vt 0.685020 0.912802
vt 0.685020 0.925193
vt 0.713413 0.925193
vt 0.713413 0.912802
vt 0.712952 0.836996
vt 0.712952 0.836996
vt 0.704472 0.809877
vt 0.709361 0.809877
vt 0.685362 0.841127
vt 0.690252 0.841127
vt 0.712952 0.841127
vt 0.681772 0.809877
vt 0.693985 0.841127
vt 0.685362 0.841127
vt 0.709361 0.809877
vt 0.700738 0.809877
vt 0.681772 0.809877
vt 0.712952 0.841127
vt 0.725349 0.912802
vt 0.725349 0.925193
vt 0.691366 0.925193
vt 0.691366 0.912802
vt 0.726723 0.912802
vt 0.726723 0.925193
vt 0.692740 0.925193
vt 0.692740 0.912802
vt 0.710592 0.809876
vt 0.686443 0.809877
vt 0.702752 0.809877
vt 0.726723 0.881552
vt 0.734042 0.881552
vt 0.734042 0.893943
vt 0.726723 0.893943
vt 0.740983 0.944052
vt 0.740983 0.956443
vt 0.707000 0.956443
vt 0.707000 0.944052
vt 0.710279 0.809877
vt 0.686419 0.809876
vt 0.682690 0.793356
vt 0.682690 0.805746
vt 0.682690 0.805746
vt 0.682690 0.793356
vt 0.693335 0.944052
vt 0.693335 0.956443
vt 0.734637 0.956443
vt 0.734637 0.944052
vt 0.686280 0.824606
vt 0.713870 0.824606
vt 0.691170 0.824606
vt 0.710279 0.793356
vt 0.705390 0.793356
vt 0.710243 0.841127
vt 0.686280 0.841127
vt 0.686593 0.841126
vt 0.710223 0.841127
vt 0.734042 0.912802
vt 0.741362 0.912802
vt 0.741362 0.925193
vt 0.734042 0.925193
vt 0.693641 0.841127
vt 0.686394 0.912802
vt 0.686394 0.925193
vt 0.727696 0.925193
vt 0.727696 0.912802
vt 0.713870 0.824606
vt 0.713870 0.836996
vt 0.713870 0.836996
vt 0.686280 0.824606
vt 0.710279 0.793356
vt 0.693746 0.960573
vt 0.729620 0.960573
vt 0.710279 0.809877
vt 0.682690 0.809877
vt 0.705390 0.809877
vt 0.710279 0.809877
vt 0.686280 0.841127
vt 0.691170 0.841127
vt 0.713870 0.841127
vt 0.682690 0.809877
vt 0.683379 0.793356
vt 0.683379 0.809877
vt 0.683379 0.809877
vt 0.683379 0.793356
vt 0.694367 0.944052
vt 0.694367 0.960573
vt 0.735669 0.960573
vt 0.735669 0.944052
vt 0.714559 0.824606
vt 0.714559 0.841127
vt 0.714559 0.841127
vt 0.714559 0.824606
vt 0.735075 0.912802
vt 0.735075 0.929323
vt 0.693773 0.929323
vt 0.693773 0.912802
vt 0.686970 0.824606
vt 0.686970 0.824606
vt 0.710969 0.809877
vt 0.710969 0.809877
vt 0.686970 0.841127
vt 0.686970 0.841127
vt 0.710969 0.793356
vt 0.710969 0.793356
vt 0.742016 0.944052
vt 0.742016 0.960573
vt 0.700714 0.960573
vt 0.700714 0.944052
vt 0.687427 0.912802
vt 0.687427 0.929323
vt 0.728729 0.929323
vt 0.728729 0.912802
vt 0.683379 0.793356
vt 0.683379 0.809877
vt 0.683379 0.809877
vt 0.683379 0.793356
vt 0.694367 0.944052
vt 0.694367 0.960573
vt 0.735669 0.960573
vt 0.735669 0.944052
vt 0.714559 0.824606
vt 0.714559 0.841127
vt 0.714559 0.841127
vt 0.714559 0.824606
vt 0.735075 0.912802
vt 0.735075 0.929323
vt 0.693773 0.929323
vt 0.693773 0.912802
vt 0.686970 0.824606
vt 0.686970 0.824606
vt 0.710969 0.809877
vt 0.710969 0.809877
vt 0.686970 0.841127
vt 0.686970 0.841127
vt 0.710969 0.793356
vt 0.710969 0.793356
vt 0.742016 0.944052
vt 0.742016 0.960573
vt 0.700714 0.960573
vt 0.700714 0.944052
vt 0.687427 0.912802
vt 0.687427 0.929323
vt 0.728729 0.929323
vt 0.728729 0.912802
vt 0.683379 0.793356
vt 0.683379 0.809877
vt 0.683379 0.809877
vt 0.683379 0.793356
vt 0.694367 0.944052
vt 0.694367 0.960573
vt 0.735669 0.960573
vt 0.735669 0.944052
vt 0.714559 0.824606
vt 0.714559 0.841127
vt 0.714559 0.841127
vt 0.714559 0.824606
vt 0.735075 0.912802
vt 0.735075 0.929323
vt 0.693773 0.929323
vt 0.693773 0.912802
vt 0.686970 0.824606
vt 0.686970 0.824606
vt 0.710969 0.809877
vt 0.710969 0.809877
vt 0.686970 0.841127
vt 0.686970 0.841127
vt 0.710969 0.793356
vt 0.710969 0.793356
vt 0.742016 0.944052
vt 0.742016 0.960573
vt 0.700714 0.960573
vt 0.700714 0.944052
vt 0.687427 0.912802
vt 0.687427 0.929323
vt 0.728729 0.929323
vt 0.728729 0.912802
vn 0.9963 -0.0638 0.0584
vn 0.9963 -0.0638 0.0583
vn 0.9979 -0.0645 -0.0033
vn 0.0000 1.0000 -0.0000
vn 0.9908 -0.0629 0.1198
vn 0.0001 -0.0585 0.9983
vn 0.0000 -1.0000 -0.0000
vn -0.9920 -0.0623 -0.1102
vn -0.9980 -0.0626 0.0000
vn -0.0000 -0.0568 -0.9984
vn -0.9920 -0.0623 0.1102
vn 0.0000 0.7141 0.7001
vn -0.7050 0.7092 -0.0000
vn -0.7030 0.7072 0.0755
vn -0.0000 0.7141 -0.7001
vn 0.7053 0.7078 0.0399
vn 0.7059 0.7083 -0.0000
vn 0.7052 0.7077 0.0421
vn -0.7030 0.7072 -0.0755
vn 0.7035 0.7060 0.0820
vn 0.3222 -0.0361 -0.9460
vn 0.9980 -0.0628 0.0028
vn 0.0001 -0.0614 0.9981
vn -0.9980 -0.0624 0.0026
vn 0.3734 -0.0379 0.9269
vn -0.3348 -0.0372 0.9416
vn -0.3348 -0.0372 -0.9416
vn -0.9980 -0.0624 -0.0026
vn 0.0000 -0.0600 -0.9982
vn -0.0000 0.7932 0.6089
vn 0.0000 0.7989 -0.6014
vn 0.2073 0.7135 -0.6693
vn 0.2397 0.7133 0.6586
vn 0.8369 0.5473 0.0009
vn 0.7883 0.6099 0.0810
vn -0.2159 0.7134 0.6666
vn -0.2159 0.7134 -0.6666
vn -0.7936 0.6084 -0.0006
vn -0.7881 0.6155 0.0005
vn 0.9928 -0.0625 0.1021
vn -0.9980 -0.0628 0.0028
vn -0.3736 -0.0377 0.9268
vn -0.9885 -0.0624 0.1375
vn 0.0001 -0.0612 -0.9981
vn 0.9977 -0.0675 -0.0000
vn 0.9943 -0.0673 0.0825
vn -0.3075 -0.0354 -0.9509
vn 0.9943 -0.0673 -0.0825
vn -0.0001 -0.0630 0.9980
vn -0.0000 0.7735 -0.6337
vn 0.7057 0.7085 -0.0000
vn 0.7044 0.7072 0.0610
vn -0.0000 0.7645 0.6446
vn 0.7044 0.7072 -0.0610
vn -0.2397 0.7133 0.6586
vn -0.1980 0.7135 -0.6721
vn -0.7953 0.5962 0.1100
vn -0.8560 0.5169 0.0010
vn 0.9962 -0.0871 -0.0000
vn 0.0000 -0.1591 0.9873
vn 0.1986 -0.1559 0.9676
vn -0.9962 -0.0871 0.0000
vn -0.0000 -0.1591 -0.9873
vn -0.1986 -0.1559 -0.9676
vn 0.1986 -0.1559 -0.9676
vn -0.1986 -0.1559 0.9676
vn -0.1006 -0.1729 0.9798
vn -0.0984 -0.1729 0.9800
vn -0.1980 -0.1728 0.9648
vn -0.1006 -0.1729 -0.9798
vn -0.0984 -0.1729 -0.9800
vn -0.0000 -0.1713 -0.9852
vn -0.1980 -0.1728 -0.9648
vn 0.0000 -0.1713 0.9852
vn 0.1006 -0.1729 0.9798
vn 0.0984 -0.1729 0.9800
vn 0.1006 -0.1729 -0.9798
vn 0.0984 -0.1729 -0.9800
vn 0.1980 -0.1728 -0.9648
vn 0.1980 -0.1728 0.9648
usemtl resource
s 1
f 6/1/1 17/2/2 8/3/3 1/4/3
f 16/5/4 9/6/4 7/7/4 18/8/4
f 3/9/5 12/10/5 17/11/2 6/12/1
f 1/13/6 8/14/6 10/15/6 2/16/6
f 5/17/7 4/18/7 3/19/7 6/20/7
f 2/21/8 10/22/8 15/23/9 5/24/9
f 4/18/10 14/25/10 12/26/10 3/19/10
f 2/16/7 5/27/7 6/28/7 1/13/7
f 5/29/9 15/30/9 14/31/11 4/32/11
f 13/33/4 16/34/4 18/35/4 11/36/4
f 7/7/12 9/6/12 10/15/12 8/14/12
f 16/37/13 13/38/14 14/31/14 15/30/13
f 13/33/15 11/36/15 12/26/15 14/25/15
f 18/8/16 7/7/17 8/39/17 17/40/18
f 9/6/19 16/5/13 15/41/13 10/42/19
f 11/36/20 18/35/16 17/43/18 12/44/20
f 42/45/4 30/46/4 37/47/4
f 24/48/21 25/49/21 41/50/21 38/51/21
f 21/52/22 34/53/22 40/54/22 23/55/22
f 42/45/4 48/56/4 31/57/4 30/46/4
f 19/58/23 29/59/23 32/60/23 20/61/23
f 27/62/24 44/63/24 35/64/24 22/65/24
f 25/66/7 21/67/7 23/68/7
f 19/58/7 25/69/7 24/70/7
f 28/71/7 27/72/7 22/73/7
f 25/74/25 23/75/25 40/76/25 41/77/25
f 27/78/26 28/79/26 47/80/26 44/81/26
f 33/82/4 42/83/4 39/84/4
f 33/82/4 36/85/4 48/86/4 42/83/4
f 36/85/4 43/87/4 48/88/4
f 48/89/4 45/90/4 31/57/4
f 28/91/27 26/92/27 46/93/27 47/94/27
f 20/61/7 26/95/7 28/96/7
f 20/97/28 32/98/28 46/99/28 26/100/28
f 22/73/29 35/101/29 34/102/29 21/67/29
f 25/66/7 28/71/7 22/73/7 21/67/7
f 19/58/7 20/61/7 28/96/7 25/69/7
f 30/46/30 31/57/30 32/60/30 29/59/30
f 36/85/31 33/82/31 34/102/31 35/101/31
f 42/45/32 37/47/32 38/103/32 41/104/32
f 39/84/33 42/83/33 41/105/33 40/106/33
f 33/82/34 39/84/34 40/106/34 34/107/34
f 37/47/35 30/46/35 29/108/35 38/103/35
f 48/88/36 43/87/36 44/109/36 47/110/36
f 45/90/37 48/89/37 47/111/37 46/112/37
f 31/57/38 45/90/38 46/112/38 32/113/38
f 43/87/39 36/85/39 35/114/39 44/109/39
f 24/115/40 38/116/40 29/117/40 19/118/40
f 55/119/41 68/120/41 57/121/41 49/122/41
f 72/123/4 58/124/4 67/125/4
f 55/126/42 56/127/42 71/128/42 68/129/42
f 51/130/43 62/131/43 70/132/43 54/133/43
f 66/134/4 59/135/4 58/124/4 72/123/4
f 49/136/44 57/137/44 60/138/44 50/139/44
f 53/140/45 65/141/45 64/142/46 52/143/46
f 56/144/7 51/145/7 54/146/7
f 49/136/7 56/147/7 55/148/7
f 63/149/4 66/150/4 72/151/4 61/152/4
f 56/153/47 54/154/47 70/155/47 71/156/47
f 61/152/4 72/151/4 69/157/4
f 50/158/48 60/159/48 65/160/45 53/161/45
f 52/162/49 64/163/49 62/164/49 51/145/49
f 53/165/7 52/162/7 51/145/7 56/144/7
f 50/139/7 53/166/7 56/147/7 49/136/7
f 58/124/50 59/135/50 60/138/50 57/137/50
f 66/167/51 63/168/52 64/142/52 65/141/51
f 63/149/53 61/152/53 62/164/53 64/163/53
f 59/135/54 66/134/51 65/169/51 60/170/54
f 72/123/55 67/125/55 68/171/55 71/172/55
f 69/157/56 72/151/56 71/173/56 70/174/56
f 61/152/57 69/157/57 70/174/57 62/175/57
f 67/125/58 58/124/58 57/176/58 68/171/58
f 73/177/59 74/178/59 76/179/59 75/180/59
f 81/181/60 82/182/60 80/183/61 79/184/61
f 79/185/62 80/186/62 78/187/62 77/188/62
f 83/189/63 84/190/63 74/191/64 73/192/64
f 81/193/7 79/185/7 77/188/7 83/194/7
f 82/195/4 76/179/4 74/178/4 84/196/4
f 80/186/4 82/197/4 84/198/4 78/187/4
f 75/180/7 81/199/7 83/200/7 73/177/7
f 77/201/65 78/202/65 84/203/63 83/204/63
f 75/205/66 76/206/66 82/207/60 81/208/60
f 85/209/59 86/210/59 88/211/59 87/212/59
f 93/213/67 94/214/68 92/215/69 91/216/69
f 91/217/62 92/218/62 90/219/62 89/220/62
f 95/221/70 96/222/71 86/223/72 85/224/72
f 93/225/7 91/217/7 89/220/7 95/226/7
f 94/227/4 88/211/4 86/210/4 96/228/4
f 92/218/4 94/229/4 96/230/4 90/219/4
f 87/212/7 93/231/7 95/232/7 85/209/7
f 89/233/73 90/234/73 96/235/71 95/236/70
f 87/237/74 88/238/74 94/239/68 93/240/67
f 97/241/59 98/242/59 100/243/59 99/244/59
f 105/245/75 106/246/76 104/247/74 103/248/74
f 103/249/62 104/250/62 102/251/62 101/252/62
f 107/253/77 108/254/78 98/255/79 97/256/79
f 105/257/7 103/249/7 101/252/7 107/258/7
f 106/259/4 100/243/4 98/242/4 108/260/4
f 104/250/4 106/261/4 108/262/4 102/251/4
f 99/244/7 105/263/7 107/264/7 97/241/7
f 101/265/72 102/266/72 108/267/78 107/268/77
f 99/269/80 100/270/80 106/271/76 105/272/75
