# Blender v3.4.1 OBJ File: 'Resource_Bits_Export.blend'
# www.blender.org
mtllib Stone_Bricks_Stack_Small.mtl
o Stone_Bricks_Stack_Small
v 0.095586 0.000000 0.383935
v 0.045659 0.050000 0.386646
v 0.042949 0.000000 0.336719
v 0.095586 0.300000 0.383935
v 0.042949 0.300000 0.336719
v 0.045659 0.250000 0.386646
v 0.007713 0.000000 -0.312325
v 0.005003 0.050000 -0.362252
v 0.054929 0.000000 -0.364962
v 0.054929 0.300000 -0.364962
v 0.005003 0.250000 -0.362252
v 0.007713 0.300000 -0.312325
v 0.492287 0.000000 0.312325
v 0.494998 0.050000 0.362252
v 0.445071 0.000000 0.364962
v 0.445071 0.300000 0.364962
v 0.494998 0.250000 0.362252
v 0.492287 0.300000 0.312325
v 0.404414 0.000000 -0.383935
v 0.454341 0.050000 -0.386646
v 0.457051 0.000000 -0.336719
v 0.457051 0.300000 -0.336719
v 0.454341 0.250000 -0.386646
v 0.404414 0.300000 -0.383935
v 0.051451 0.300000 0.404172
v 0.001453 0.350000 0.403735
v 0.001890 0.300000 0.353736
v 0.051451 0.600000 0.404172
v 0.001890 0.600000 0.353736
v 0.001453 0.550000 0.403735
v 0.007574 0.300000 -0.296239
v 0.008011 0.350000 -0.346237
v 0.058009 0.300000 -0.345800
v 0.058009 0.600000 -0.345800
v 0.008011 0.550000 -0.346237
v 0.007574 0.600000 -0.296239
v 0.451873 0.300000 0.357671
v 0.451436 0.350000 0.407670
v 0.401437 0.300000 0.407232
v 0.401437 0.600000 0.407232
v 0.451436 0.550000 0.407670
v 0.451873 0.600000 0.357671
v 0.407996 0.300000 -0.342739
v 0.457994 0.350000 -0.342302
v 0.457557 0.300000 -0.292304
v 0.457557 0.600000 -0.292304
v 0.457994 0.550000 -0.342302
v 0.407996 0.600000 -0.342739
v 0.004732 0.300000 0.028749
v 0.454715 0.300000 0.032684
v 0.004732 0.600000 0.028749
v 0.384503 0.600000 0.134538
v 0.453213 0.600000 0.204460
v 0.453819 0.530682 0.135145
v 0.454141 0.600000 0.098259
v -0.456546 0.300000 0.336881
v -0.506505 0.350000 0.334854
v -0.504478 0.300000 0.284895
v -0.456546 0.600000 0.336881
v -0.504478 0.600000 0.284895
v -0.506505 0.550000 0.334854
v -0.478128 0.300000 -0.364570
v -0.476101 0.350000 -0.414529
v -0.426142 0.300000 -0.412502
v -0.426142 0.600000 -0.412502
v -0.476101 0.550000 -0.414529
v -0.478128 0.600000 -0.364570
v -0.054848 0.300000 0.303138
v -0.056875 0.350000 0.353097
v -0.106834 0.300000 0.351070
v -0.106834 0.600000 0.351070
v -0.056875 0.550000 0.353097
v -0.054848 0.600000 0.303138
v -0.076430 0.300000 -0.398314
v -0.026471 0.350000 -0.396287
v -0.028498 0.300000 -0.346328
v -0.028498 0.600000 -0.346328
v -0.026471 0.550000 -0.396287
v -0.076430 0.600000 -0.398314
v -0.487198 0.300000 -0.141028
v -0.037568 0.300000 -0.122785
v -0.037568 0.600000 -0.122785
v -0.482943 0.600000 -0.245901
v -0.487198 0.548343 -0.141028
v -0.489292 0.600000 -0.089413
v -0.435583 0.600000 -0.138934
v -0.430585 0.000000 0.372342
v -0.480580 0.050000 0.371595
v -0.479832 0.000000 0.321601
v -0.430585 0.300000 0.372342
v -0.479832 0.300000 0.321601
v -0.480580 0.250000 0.371595
v -0.470117 0.000000 -0.328327
v -0.469370 0.050000 -0.378321
v -0.419375 0.000000 -0.377574
v -0.419375 0.300000 -0.377574
v -0.469370 0.250000 -0.378321
v -0.470117 0.300000 -0.328327
v -0.029883 0.000000 0.328327
v -0.030630 0.050000 0.378321
v -0.080624 0.000000 0.377574
v -0.080624 0.300000 0.377574
v -0.030630 0.250000 0.378321
v -0.029883 0.300000 0.328327
v -0.069414 0.000000 -0.372342
v -0.019420 0.050000 -0.371595
v -0.020167 0.000000 -0.321601
v -0.020167 0.300000 -0.321601
v -0.019420 0.250000 -0.371595
v -0.069414 0.300000 -0.372342
v -0.027662 0.000000 0.179738
v -0.477611 0.300000 0.173012
v -0.027662 0.300000 0.179738
v -0.421075 0.000000 0.173857
v -0.478456 0.000000 0.229548
v -0.477611 0.074253 0.173012
v -0.476766 0.000000 0.116476
v -0.480448 0.018988 0.074144
v -0.480448 0.018988 -0.074144
v 0.460448 0.018988 0.074144
v 0.460448 0.018988 -0.074144
v -0.528065 -0.006596 -0.053304
v -0.528065 -0.006596 0.053304
v 0.508065 -0.006596 -0.053304
v 0.508065 -0.006596 0.053304
v -0.442843 0.581012 0.074144
v -0.480448 0.543818 0.074144
v -0.469433 0.570118 0.074144
v -0.480448 0.543818 -0.074144
v -0.442843 0.581012 -0.074144
v -0.469433 0.570118 -0.074144
v 0.460448 0.543818 0.074144
v 0.422843 0.581012 0.074144
v 0.449434 0.570118 0.074144
v 0.422843 0.581012 -0.074144
v 0.460448 0.543818 -0.074144
v 0.449434 0.570118 -0.074144
v -0.528065 0.589402 0.053304
v -0.490460 0.626596 0.053304
v -0.517051 0.615702 0.053304
v -0.490460 0.626596 -0.053304
v -0.528065 0.589402 -0.053304
v -0.517051 0.615702 -0.053304
v 0.508065 0.589402 -0.053304
v 0.470460 0.626596 -0.053304
v 0.497051 0.615702 -0.053304
v 0.470460 0.626596 0.053304
v 0.508065 0.589402 0.053304
v 0.497051 0.615702 0.053304
vt 0.282353 0.905602
vt 0.346663 0.905602
vt 0.339517 0.912747
vt 0.289499 0.912747
vt 0.282353 0.838624
vt 0.282353 0.845770
vt 0.282353 0.874352
vt 0.282353 0.881497
vt 0.346663 0.943997
vt 0.282353 0.943997
vt 0.289499 0.943997
vt 0.339517 0.943997
vt 0.282353 0.807374
vt 0.346663 0.807374
vt 0.339517 0.807374
vt 0.289499 0.807374
vt 0.346663 0.905602
vt 0.282353 0.905602
vt 0.289499 0.912747
vt 0.339517 0.912747
vt 0.289499 0.794131
vt 0.282353 0.794131
vt 0.282353 0.794131
vt 0.289499 0.972865
vt 0.282353 0.972865
vt 0.282353 0.972865
vt 0.282353 0.794131
vt 0.282353 0.794131
vt 0.289499 0.794131
vt 0.289499 0.972865
vt 0.282353 0.972865
vt 0.282353 0.972865
vt 0.346663 0.794131
vt 0.346663 0.794131
vt 0.339517 0.794131
vt 0.339517 0.972865
vt 0.346663 0.972865
vt 0.346663 0.972865
vt 0.339517 0.794131
vt 0.346663 0.794131
vt 0.346663 0.794131
vt 0.346663 0.972865
vt 0.346663 0.972865
vt 0.339517 0.972865
vt 0.282353 0.877020
vt 0.346663 0.877020
vt 0.346663 0.943997
vt 0.282353 0.943997
vt 0.346663 0.877020
vt 0.282353 0.877020
vt 0.339517 0.869874
vt 0.289499 0.869874
vt 0.289499 0.869874
vt 0.339517 0.869874
vt 0.282353 0.807374
vt 0.346663 0.807374
vt 0.346663 0.838624
vt 0.346663 0.881497
vt 0.346663 0.881497
vt 0.346663 0.838624
vt 0.346663 0.874352
vt 0.346663 0.845770
vt 0.282353 0.838624
vt 0.282353 0.881497
vt 0.339517 0.943997
vt 0.289499 0.943997
vt 0.346663 0.845770
vt 0.346663 0.874352
vt 0.289499 0.807374
vt 0.339517 0.807374
vt 0.282353 0.845770
vt 0.282353 0.874352
vt 0.282353 0.905602
vt 0.346663 0.905602
vt 0.339517 0.912747
vt 0.289499 0.912747
vt 0.282353 0.838624
vt 0.282353 0.845770
vt 0.282353 0.874352
vt 0.282353 0.881497
vt 0.346663 0.943997
vt 0.282353 0.943997
vt 0.289499 0.943997
vt 0.339517 0.943997
vt 0.282353 0.807374
vt 0.346663 0.807374
vt 0.339517 0.807374
vt 0.289499 0.807374
vt 0.346663 0.905602
vt 0.282353 0.905602
vt 0.289499 0.912747
vt 0.339517 0.912747
vt 0.289499 0.794131
vt 0.282353 0.794131
vt 0.282353 0.794131
vt 0.289499 0.972865
vt 0.282353 0.972865
vt 0.282353 0.972865
vt 0.282353 0.794131
vt 0.282353 0.794131
vt 0.289499 0.794131
vt 0.289499 0.972865
vt 0.282353 0.972865
vt 0.282353 0.972865
vt 0.346663 0.794131
vt 0.346663 0.794131
vt 0.339517 0.794131
vt 0.339517 0.972865
vt 0.346663 0.972865
vt 0.346663 0.972865
vt 0.339517 0.794131
vt 0.346663 0.794131
vt 0.346663 0.794131
vt 0.346663 0.972865
vt 0.346663 0.972865
vt 0.339517 0.972865
vt 0.282353 0.877020
vt 0.346663 0.877020
vt 0.346663 0.834622
vt 0.336757 0.850247
vt 0.346663 0.777841
vt 0.346663 0.877020
vt 0.282353 0.877020
vt 0.339517 0.869874
vt 0.289499 0.869874
vt 0.289499 0.869874
vt 0.339517 0.869874
vt 0.282353 0.807374
vt 0.346663 0.807374
vt 0.346663 0.881497
vt 0.346663 0.881497
vt 0.346663 0.871591
vt 0.346663 0.838624
vt 0.346663 0.881497
vt 0.346663 0.874352
vt 0.346663 0.845770
vt 0.282353 0.838624
vt 0.282353 0.881497
vt 0.339517 0.943997
vt 0.289499 0.943997
vt 0.282353 0.943997
vt 0.346663 0.943997
vt 0.346663 0.845770
vt 0.346663 0.874352
vt 0.346663 0.838624
vt 0.289499 0.807374
vt 0.339517 0.807374
vt 0.346663 0.807374
vt 0.282353 0.807374
vt 0.282353 0.845770
vt 0.282353 0.838624
vt 0.282353 0.881497
vt 0.282353 0.874352
vt 0.336757 0.943997
vt 0.282353 0.943997
vt 0.346663 0.881497
vt 0.336757 0.897122
vt 0.346663 0.897122
vt 0.346663 0.824716
vt 0.346663 0.943997
vt 0.346663 0.943997
vt 0.346663 0.838624
vt 0.282353 0.905602
vt 0.346663 0.905602
vt 0.339517 0.912747
vt 0.289499 0.912747
vt 0.282353 0.838624
vt 0.282353 0.845770
vt 0.282353 0.874352
vt 0.282353 0.881497
vt 0.346663 0.943997
vt 0.282353 0.943997
vt 0.289499 0.943997
vt 0.339517 0.943997
vt 0.282353 0.807374
vt 0.346663 0.807374
vt 0.339517 0.807374
vt 0.289499 0.807374
vt 0.346663 0.905602
vt 0.282353 0.905602
vt 0.289499 0.912747
vt 0.339517 0.912747
vt 0.289499 0.794131
vt 0.282353 0.794131
vt 0.282353 0.794131
vt 0.289499 0.972865
vt 0.282353 0.972865
vt 0.282353 0.972865
vt 0.282353 0.794131
vt 0.282353 0.794131
vt 0.289499 0.794131
vt 0.289499 0.972865
vt 0.282353 0.972865
vt 0.282353 0.972865
vt 0.346663 0.794131
vt 0.346663 0.794131
vt 0.339517 0.794131
vt 0.339517 0.972865
vt 0.346663 0.972865
vt 0.346663 0.972865
vt 0.339517 0.794131
vt 0.346663 0.794131
vt 0.346663 0.794131
vt 0.346663 0.972865
vt 0.346663 0.972865
vt 0.339517 0.972865
vt 0.282353 0.877020
vt 0.346663 0.877020
vt 0.282353 0.874115
vt 0.282353 0.881497
vt 0.346663 0.877020
vt 0.282353 0.877020
vt 0.339517 0.869874
vt 0.289499 0.869874
vt 0.289499 0.869874
vt 0.339517 0.869874
vt 0.282353 0.807374
vt 0.346663 0.807374
vt 0.346663 0.838624
vt 0.346663 0.881497
vt 0.346663 0.881497
vt 0.346663 0.838624
vt 0.346663 0.874352
vt 0.346663 0.845770
vt 0.282353 0.897122
vt 0.282353 0.780365
vt 0.289736 0.850247
vt 0.339517 0.943997
vt 0.289499 0.943997
vt 0.282353 0.943997
vt 0.346663 0.943997
vt 0.346663 0.845770
vt 0.346663 0.874352
vt 0.346663 0.881497
vt 0.346663 0.838624
vt 0.289499 0.807374
vt 0.339517 0.807374
vt 0.346663 0.807374
vt 0.282353 0.807374
vt 0.282353 0.845770
vt 0.282353 0.838624
vt 0.282353 0.881497
vt 0.282353 0.874352
vt 0.289736 0.943997
vt 0.282353 0.943997
vt 0.282353 0.881497
vt 0.282353 0.827240
vt 0.282353 0.834622
vt 0.289736 0.897122
vt 0.282353 0.943997
vt 0.346663 0.943997
vt 0.282353 0.838624
vt 0.282353 0.905602
vt 0.346663 0.905602
vt 0.339517 0.912747
vt 0.289499 0.912747
vt 0.282353 0.838624
vt 0.282353 0.845770
vt 0.282353 0.874352
vt 0.282353 0.881497
vt 0.346663 0.943997
vt 0.282353 0.943997
vt 0.289499 0.943997
vt 0.339517 0.943997
vt 0.282353 0.807374
vt 0.346663 0.807374
vt 0.339517 0.807374
vt 0.289499 0.807374
vt 0.346663 0.905602
vt 0.282353 0.905602
vt 0.289499 0.912747
vt 0.339517 0.912747
vt 0.289499 0.794131
vt 0.282353 0.794131
vt 0.282353 0.794131
vt 0.289499 0.972865
vt 0.282353 0.972865
vt 0.282353 0.972865
vt 0.282353 0.794131
vt 0.282353 0.794131
vt 0.289499 0.794131
vt 0.289499 0.972865
vt 0.282353 0.972865
vt 0.282353 0.972865
vt 0.346663 0.794131
vt 0.346663 0.794131
vt 0.339517 0.794131
vt 0.339517 0.972865
vt 0.346663 0.972865
vt 0.346663 0.972865
vt 0.339517 0.794131
vt 0.346663 0.794131
vt 0.346663 0.794131
vt 0.346663 0.972865
vt 0.346663 0.972865
vt 0.339517 0.972865
vt 0.282353 0.877020
vt 0.346663 0.877020
vt 0.346663 0.943997
vt 0.282353 0.943997
vt 0.346663 0.877020
vt 0.282353 0.877020
vt 0.339517 0.869874
vt 0.289499 0.869874
vt 0.289499 0.869874
vt 0.339517 0.869874
vt 0.346663 0.838624
vt 0.346663 0.881497
vt 0.346663 0.881497
vt 0.346663 0.838624
vt 0.346663 0.874352
vt 0.346663 0.845770
vt 0.282353 0.838624
vt 0.282353 0.838624
vt 0.282353 0.846705
vt 0.339517 0.943997
vt 0.289499 0.943997
vt 0.282353 0.943997
vt 0.346663 0.943997
vt 0.346663 0.845770
vt 0.346663 0.874352
vt 0.346663 0.881497
vt 0.346663 0.838624
vt 0.289499 0.807374
vt 0.339517 0.807374
vt 0.346663 0.807374
vt 0.282353 0.807374
vt 0.282353 0.845770
vt 0.282353 0.881497
vt 0.282353 0.874352
vt 0.290434 0.807374
vt 0.346663 0.807374
vt 0.282353 0.838624
vt 0.290434 0.760499
vt 0.282353 0.760499
vt 0.282353 0.799830
vt 0.282353 0.791749
vt 0.282353 0.752955
vt 0.282353 0.881497
vt 0.282353 0.807374
vt 0.282353 0.807374
vt 0.318944 0.638312
vt 0.318944 0.638312
vt 0.293990 0.638312
vt 0.293990 0.638312
vt 0.326118 0.675402
vt 0.326118 0.598466
vt 0.335201 0.591784
vt 0.335201 0.682084
vt 0.286816 0.555924
vt 0.286816 0.555924
vt 0.326118 0.555924
vt 0.326118 0.555924
vt 0.293990 0.680854
vt 0.318944 0.680854
vt 0.328028 0.687537
vt 0.284907 0.687537
vt 0.328028 0.708808
vt 0.284907 0.708808
vt 0.284907 0.708808
vt 0.328028 0.708808
vt 0.277733 0.613055
vt 0.335201 0.613055
vt 0.335201 0.613055
vt 0.277733 0.613055
vt 0.335201 0.703356
vt 0.335201 0.703356
vt 0.277733 0.703356
vt 0.277733 0.703356
vt 0.286816 0.598466
vt 0.326118 0.598466
vt 0.335201 0.591784
vt 0.277733 0.591784
vt 0.286816 0.675402
vt 0.277733 0.682084
vt 0.326118 0.675402
vt 0.335201 0.682084
vt 0.326118 0.632860
vt 0.326118 0.632860
vt 0.318944 0.680854
vt 0.293990 0.680854
vt 0.284907 0.687537
vt 0.328028 0.687537
vt 0.286816 0.632860
vt 0.286816 0.632860
vt 0.286816 0.598466
vt 0.277733 0.591784
vt 0.288917 0.636715
vt 0.288917 0.636715
vt 0.324017 0.636715
vt 0.324017 0.636715
vt 0.279834 0.707211
vt 0.279834 0.707211
vt 0.333100 0.707211
vt 0.333100 0.707211
vt 0.333100 0.685940
vt 0.324017 0.679257
vt 0.333100 0.685940
vt 0.324017 0.679257
vt 0.277733 0.682084
vt 0.286816 0.675402
vt 0.288917 0.679257
vt 0.279834 0.685940
vt 0.279834 0.685940
vt 0.288917 0.679257
vn 0.0542 0.0000 0.9985
vn -0.9985 0.0000 0.0542
vn 0.0000 1.0000 0.0000
vn 0.0000 -1.0000 -0.0000
vn -0.0542 -0.0000 -0.9985
vn -0.5452 -0.5774 0.6078
vn -0.5452 0.5774 0.6078
vn -0.6078 -0.5774 -0.5452
vn -0.6078 0.5774 -0.5452
vn 0.6078 -0.5774 0.5452
vn 0.6078 0.5774 0.5452
vn 0.5452 -0.5773 -0.6078
vn 0.5452 0.5773 -0.6078
vn 0.9985 0.0000 -0.0542
vn -0.0087 0.0000 1.0000
vn -1.0000 0.0000 -0.0087
vn 0.0087 0.0000 -1.0000
vn -0.5824 -0.5773 0.5723
vn -0.5824 0.5774 0.5723
vn -0.5723 -0.5774 -0.5824
vn -0.5723 0.5774 -0.5824
vn 0.5723 -0.5773 0.5824
vn 0.5723 0.5774 0.5824
vn 0.5824 -0.5774 -0.5723
vn 0.5824 0.5774 -0.5723
vn 0.4182 0.4252 0.8027
vn 1.0000 0.0000 0.0087
vn -0.0405 0.0000 0.9992
vn -0.9992 0.0000 -0.0405
vn 0.0405 0.0000 -0.9992
vn -0.6003 -0.5774 0.5535
vn -0.6003 0.5774 0.5535
vn -0.5535 -0.5774 -0.6003
vn -0.5535 0.5774 -0.6003
vn 0.5535 -0.5774 0.6003
vn 0.5535 0.5774 0.6003
vn 0.6003 -0.5773 -0.5535
vn 0.6003 0.5774 -0.5535
vn 0.9992 0.0000 0.0405
vn -0.6806 0.6678 0.3013
vn -0.5535 0.5773 -0.6003
vn -0.0149 -0.0000 0.9999
vn -0.9999 0.0000 -0.0149
vn 0.0149 -0.0000 -0.9999
vn -0.5859 -0.5774 0.5687
vn -0.5859 0.5774 0.5687
vn -0.5687 -0.5774 -0.5859
vn -0.5687 0.5774 -0.5859
vn 0.5687 -0.5774 0.5859
vn 0.5687 0.5774 0.5859
vn 0.5859 -0.5774 -0.5687
vn 0.5859 0.5774 -0.5687
vn 0.9999 0.0000 0.0149
vn -0.6132 -0.4741 -0.6318
vn -0.6318 -0.4741 0.6132
vn -0.1932 -0.9812 -0.0000
vn 0.1932 -0.9812 -0.0000
vn 0.3655 0.0432 0.9298
vn 0.4009 0.0000 0.9161
vn 0.3291 0.0861 0.9404
vn -0.0416 0.3791 0.9244
vn 0.0416 0.3791 0.9244
vn 0.0881 0.3366 0.9375
vn -0.0881 0.3366 0.9375
vn 0.1932 0.9812 0.0000
vn -0.1932 0.9812 0.0000
vn 1.0000 0.0000 0.0000
vn 0.9804 0.1970 0.0000
vn -1.0000 0.0000 0.0000
vn -0.9804 0.1970 0.0000
vn 0.0000 -0.6316 -0.7753
vn -0.3655 0.0432 -0.9298
vn -0.4009 0.0000 -0.9161
vn -0.3291 0.0861 -0.9404
vn 0.4009 0.0000 -0.9161
vn 0.3655 0.0432 -0.9298
vn 0.3291 0.0861 -0.9404
vn -0.9804 -0.1970 -0.0000
vn 0.0416 0.3791 -0.9244
vn -0.0416 0.3791 -0.9244
vn -0.0881 0.3366 -0.9375
vn 0.0881 0.3366 -0.9375
vn 0.9804 -0.1970 0.0000
vn 0.0000 -0.6316 0.7753
vn 0.9224 -0.3863 0.0000
vn 0.3791 -0.9254 0.0000
vn -0.9224 -0.3863 0.0000
vn -0.3791 -0.9254 0.0000
vn -0.3791 0.9254 0.0000
vn -0.9224 0.3863 0.0000
vn 0.3791 0.9254 0.0000
vn 0.9224 0.3863 0.0000
vn 0.2133 0.2131 -0.9535
vn 0.2105 0.2160 -0.9534
vn 0.2133 0.2131 0.9535
vn 0.2105 0.2160 0.9534
vn -0.3291 0.0861 0.9404
vn -0.3655 0.0432 0.9298
vn -0.2105 0.2160 0.9534
vn -0.2133 0.2131 0.9535
vn -0.2133 0.2131 -0.9535
vn -0.2105 0.2160 -0.9534
vn -0.4009 0.0000 0.9161
usemtl resource
s 1
f 6/1/1 17/2/1 16/3/1 4/4/1
f 3/5/2 2/6/2 6/7/2 5/8/2
f 18/9/3 5/10/3 4/11/3 16/12/3
f 3/13/4 13/14/4 15/15/4 1/16/4
f 23/17/5 11/18/5 10/19/5 24/20/5
f 1/21/6 2/22/6 3/23/6
f 4/24/7 5/25/7 6/26/7
f 7/27/8 8/28/8 9/29/8
f 10/30/9 11/31/9 12/32/9
f 13/33/10 14/34/10 15/35/10
f 16/36/11 17/37/11 18/38/11
f 19/39/12 20/40/12 21/41/12
f 22/42/13 23/43/13 24/44/13
f 8/45/5 11/18/5 23/17/5 20/46/5
f 22/47/3 12/48/3 5/10/3 18/9/3
f 14/49/1 17/2/1 6/1/1 2/50/1
f 15/51/1 14/49/1 2/50/1 1/52/1
f 9/53/5 8/45/5 20/46/5 19/54/5
f 7/55/4 21/56/4 13/14/4 3/13/4
f 21/57/14 22/58/14 18/59/14 13/60/14
f 13/60/14 18/59/14 17/61/14 14/62/14
f 7/63/2 3/5/2 5/8/2 12/64/2
f 24/65/3 10/66/3 12/48/3 22/47/3
f 20/67/14 23/68/14 22/58/14 21/57/14
f 9/69/4 19/70/4 21/56/4 7/55/4
f 8/71/2 7/63/2 12/64/2 11/72/2
f 30/73/15 41/74/15 40/75/15 28/76/15
f 27/77/16 26/78/16 30/79/16 29/80/16
f 42/81/3 29/82/3 28/83/3 40/84/3
f 27/85/4 37/86/4 39/87/4 25/88/4
f 47/89/17 35/90/17 34/91/17 48/92/17
f 25/93/18 26/94/18 27/95/18
f 28/96/19 29/97/19 30/98/19
f 31/99/20 32/100/20 33/101/20
f 34/102/21 35/103/21 36/104/21
f 37/105/22 38/106/22 39/107/22
f 40/108/23 41/109/23 42/110/23
f 43/111/24 44/112/24 45/113/24
f 46/114/25 47/115/25 48/116/25
f 32/117/17 35/90/17 47/89/17 44/118/17
f 55/119/26 52/120/26 54/121/26
f 38/122/15 41/74/15 30/73/15 26/123/15
f 39/124/15 38/122/15 26/123/15 25/125/15
f 33/126/17 32/117/17 44/118/17 43/127/17
f 49/128/4 50/129/4 37/86/4 27/85/4
f 46/130/27 55/131/27 54/132/27
f 37/133/27 42/134/27 41/135/27 38/136/27
f 49/137/16 27/77/16 29/80/16 51/138/16
f 48/139/3 34/140/3 36/141/3 46/142/3
f 44/143/27 47/144/27 46/130/27 45/145/27
f 33/146/4 43/147/4 45/148/4 31/149/4
f 32/150/16 31/151/16 36/152/16 35/153/16
f 31/151/16 49/137/16 51/138/16 36/152/16
f 52/154/3 51/155/3 29/82/3 42/81/3
f 31/149/4 45/148/4 50/129/4 49/128/4
f 54/132/27 53/156/27 42/134/27
f 52/157/25 53/158/25 54/159/25
f 46/142/3 36/141/3 51/155/3 52/154/3
f 55/160/3 46/142/3 52/154/3
f 53/161/3 52/154/3 42/81/3
f 50/162/27 54/132/27 42/134/27 37/133/27
f 45/145/27 46/130/27 54/132/27 50/162/27
f 61/163/28 72/164/28 71/165/28 59/166/28
f 58/167/29 57/168/29 61/169/29 60/170/29
f 73/171/3 60/172/3 59/173/3 71/174/3
f 58/175/4 68/176/4 70/177/4 56/178/4
f 78/179/30 66/180/30 65/181/30 79/182/30
f 56/183/31 57/184/31 58/185/31
f 59/186/32 60/187/32 61/188/32
f 62/189/33 63/190/33 64/191/33
f 65/192/34 66/193/34 67/194/34
f 68/195/35 69/196/35 70/197/35
f 71/198/36 72/199/36 73/200/36
f 74/201/37 75/202/37 76/203/37
f 77/204/38 78/205/38 79/206/38
f 63/207/30 66/180/30 78/179/30 75/208/30
f 84/209/29 60/170/29 85/210/29
f 69/211/28 72/164/28 61/163/28 57/212/28
f 70/213/28 69/211/28 57/212/28 56/214/28
f 64/215/30 63/207/30 75/208/30 74/216/30
f 80/217/4 81/218/4 68/176/4 58/175/4
f 81/219/39 82/220/39 73/221/39 68/222/39
f 68/222/39 73/221/39 72/223/39 69/224/39
f 83/225/40 84/226/40 86/227/40
f 79/228/3 65/229/3 67/230/3 77/231/3
f 75/232/39 78/233/39 77/234/39 76/235/39
f 64/236/4 74/237/4 76/238/4 62/239/4
f 63/240/29 62/241/29 67/242/29 66/243/29
f 86/244/3 85/245/3 60/172/3
f 76/235/39 77/234/39 82/220/39 81/219/39
f 62/239/4 76/238/4 81/218/4 80/217/4
f 67/242/29 84/209/29 83/246/29
f 84/247/41 85/248/41 86/249/41
f 67/230/3 83/250/3 86/244/3
f 77/231/3 67/230/3 86/244/3 82/251/3
f 82/251/3 86/244/3 60/172/3 73/171/3
f 80/252/29 58/167/29 60/170/29 84/209/29
f 62/241/29 80/252/29 84/209/29 67/242/29
f 92/253/42 103/254/42 102/255/42 90/256/42
f 89/257/43 88/258/43 92/259/43 91/260/43
f 104/261/3 91/262/3 90/263/3 102/264/3
f 89/265/4 99/266/4 101/267/4 87/268/4
f 109/269/44 97/270/44 96/271/44 110/272/44
f 87/273/45 88/274/45 89/275/45
f 90/276/46 91/277/46 92/278/46
f 93/279/47 94/280/47 95/281/47
f 96/282/48 97/283/48 98/284/48
f 99/285/49 100/286/49 101/287/49
f 102/288/50 103/289/50 104/290/50
f 105/291/51 106/292/51 107/293/51
f 108/294/52 109/295/52 110/296/52
f 94/297/44 97/270/44 109/269/44 106/298/44
f 113/299/3 112/300/3 91/262/3 104/261/3
f 100/301/42 103/254/42 92/253/42 88/302/42
f 101/303/42 100/301/42 88/302/42 87/304/42
f 95/305/44 94/297/44 106/298/44 105/306/44
f 111/307/53 113/308/53 104/309/53 99/310/53
f 99/310/53 104/309/53 103/311/53 100/312/53
f 93/313/43 117/314/43 116/315/43
f 110/316/3 96/317/3 98/318/3 108/319/3
f 106/320/53 109/321/53 108/322/53 107/323/53
f 95/324/4 105/325/4 107/326/4 93/327/4
f 94/328/43 93/313/43 98/329/43 97/330/43
f 114/331/4 111/332/4 99/266/4 89/265/4
f 107/323/53 108/322/53 113/308/53 111/307/53
f 116/315/43 115/333/43 89/257/43
f 108/319/3 98/318/3 112/300/3 113/299/3
f 114/334/54 115/335/54 116/336/54
f 93/327/4 107/326/4 111/332/4 114/331/4
f 117/337/55 114/334/55 116/338/55
f 112/339/43 116/315/43 89/257/43 91/260/43
f 98/329/43 93/313/43 116/315/43 112/339/43
f 117/340/4 93/327/4 114/331/4
f 115/341/4 114/331/4 89/265/4
f 135/342/56 133/343/56 126/344/57 130/345/57
f 132/346/58 120/347/59 125/348/59 148/349/60
f 119/350/3 118/351/3 120/352/3 121/353/3
f 126/354/61 133/355/62 147/356/63 139/357/64
f 145/358/65 141/359/66 139/360/66 147/361/65
f 122/362/4 124/363/4 125/364/4 123/365/4
f 124/363/67 144/366/68 148/367/68 125/364/67
f 123/365/69 138/368/70 142/369/70 122/362/69
f 119/370/71 121/371/71 124/372/71 122/373/71
f 129/374/72 119/370/73 122/373/73 142/375/74
f 121/371/75 136/376/76 144/377/77 124/372/75
f 121/353/69 120/352/69 132/378/78 136/379/78
f 135/380/79 130/381/80 141/382/81 145/383/82
f 118/351/67 119/350/67 129/384/83 127/385/83
f 120/347/84 118/386/84 123/387/84 125/348/84
f 127/385/83 129/384/83 131/388/85 128/389/85
f 128/389/86 131/388/86 130/345/57 126/344/57
f 136/379/78 132/378/78 134/390/87 137/391/87
f 137/391/88 134/390/88 133/343/56 135/342/56
f 139/360/66 141/359/66 143/392/89 140/393/89
f 140/393/90 143/392/90 142/369/70 138/368/70
f 145/358/65 147/361/65 149/394/91 146/395/91
f 146/395/92 149/394/92 148/367/68 144/366/68
f 135/380/79 145/383/82 146/396/93 137/397/94
f 137/397/94 146/396/93 144/377/77 136/376/76
f 132/346/58 148/349/60 149/398/95 134/399/96
f 134/399/96 149/398/95 147/356/63 133/355/62
f 138/400/97 127/401/98 128/402/99 140/403/100
f 140/403/100 128/402/99 126/354/61 139/357/64
f 129/374/72 142/375/74 143/404/101 131/405/102
f 131/405/102 143/404/101 141/382/81 130/381/80
f 118/386/103 127/401/98 138/400/97 123/387/103
