# Blender v3.4.1 OBJ File: 'Resource_Bits_Export.blend'
# www.blender.org
mtllib Wood_Plank_B.mtl
o Wood_Plank_B
v -0.190000 0.000000 0.740000
v -0.200000 0.010000 0.750000
v -0.190000 0.150000 0.740000
v -0.200000 0.140000 0.750000
v -0.190000 0.000000 -0.740000
v -0.200000 0.010000 -0.750000
v -0.190000 0.150000 -0.740000
v -0.200000 0.140000 -0.750000
v 0.190000 0.000000 0.740000
v 0.200000 0.010000 0.750000
v 0.190000 0.150000 0.740000
v 0.200000 0.140000 0.750000
v 0.190000 0.000000 -0.740000
v 0.200000 0.010000 -0.750000
v 0.190000 0.150000 -0.740000
v 0.200000 0.140000 -0.750000
v 0.050382 0.000000 0.740000
v -0.050382 0.000000 0.740000
v 0.000000 0.000000 0.609809
v 0.040382 0.010000 0.750000
v -0.040382 0.010000 0.750000
v 0.000000 0.010000 0.630000
v -0.050382 0.150000 0.740000
v 0.050382 0.150000 0.740000
v 0.000000 0.150000 0.609809
v -0.040382 0.140000 0.750000
v 0.040382 0.140000 0.750000
v 0.000000 0.140000 0.630000
vt 0.983177 0.862553
vt 0.983178 0.887447
vt 0.958362 0.887447
vt 0.958362 0.862553
vt 0.983177 0.862553
vt 0.983178 0.887447
vt 0.900195 0.862553
vt 0.900195 0.887447
vt 0.900195 0.887447
vt 0.900195 0.862553
vt 0.902270 0.812566
vt 0.981103 0.812566
vt 0.941687 0.812566
vt 0.900195 0.890691
vt 0.900195 0.890691
vt 0.900195 0.893803
vt 0.900195 0.893803
vt 0.900195 0.921809
vt 0.900195 0.921809
vt 0.900195 0.918697
vt 0.900195 0.918697
vt 0.981103 0.890691
vt 0.902270 0.890691
vt 0.983178 0.893803
vt 0.983177 0.890691
vt 0.983177 0.890691
vt 0.983178 0.893803
vt 0.983177 0.921809
vt 0.983177 0.921809
vt 0.983177 0.918697
vt 0.983178 0.918697
vt 0.981103 0.937434
vt 0.902270 0.937434
vt 0.941686 0.937434
vt 0.902270 0.890691
vt 0.925011 0.890691
vt 0.925011 0.893803
vt 0.925011 0.862553
vt 0.925011 0.887447
vt 0.902270 0.937434
vt 0.925011 0.937434
vt 0.958362 0.890691
vt 0.981103 0.890691
vt 0.958362 0.893803
vt 0.981103 0.921809
vt 0.958362 0.921809
vt 0.958362 0.918697
vt 0.925011 0.921809
vt 0.902270 0.921809
vt 0.925011 0.918697
vt 0.941687 0.918697
vt 0.941687 0.921809
vt 0.941687 0.893803
vt 0.941687 0.890691
vt 0.941687 0.862553
vt 0.941687 0.887447
vt 0.981103 0.812566
vt 0.958362 0.812566
vt 0.902270 0.812566
vt 0.925011 0.812566
vt 0.981103 0.937434
vt 0.958362 0.937434
vt 0.902270 0.921809
vt 0.981103 0.921809
vn 0.0000 -0.2880 0.9576
vn 0.0000 0.2880 0.9576
vn 0.9576 -0.2880 0.0000
vn 0.9576 0.2880 0.0000
vn -0.9576 -0.2880 0.0000
vn -0.9576 0.2880 0.0000
vn -0.4444 -0.8959 0.0000
vn 0.4444 -0.8959 0.0000
vn 0.0000 -1.0000 0.0000
vn -0.7071 0.7071 0.0000
vn 0.0000 -0.2880 -0.9576
vn 0.0000 0.2880 -0.9576
vn 0.0000 -0.7071 -0.7071
vn 0.7071 0.7071 0.0000
vn 0.0000 1.0000 -0.0000
vn 0.0000 -0.7071 0.7071
vn 0.0000 0.7071 0.7071
vn 0.6698 0.7017 0.2430
vn 0.8929 0.3278 0.3087
vn 0.8333 0.4694 0.2922
vn -0.6698 0.7017 0.2430
vn -0.8333 0.4694 0.2922
vn -0.8929 0.3278 0.3087
vn -0.6698 -0.7017 0.2430
vn -0.8929 -0.3278 0.3087
vn -0.8333 -0.4694 0.2922
vn 0.6698 -0.7017 0.2430
vn 0.8333 -0.4694 0.2922
vn 0.8929 -0.3278 0.3087
vn 0.0000 0.7071 -0.7071
usemtl resource
s 1
f 10/1/1 12/2/2 27/3/2 20/4/1
f 14/5/3 16/6/4 12/2/4 10/1/3
f 2/7/5 4/8/6 8/9/6 6/10/5
f 5/11/7 13/12/8 19/13/9
f 5/14/7 1/15/7 2/16/5 6/17/5
f 3/18/10 7/19/10 8/20/6 4/21/6
f 6/10/11 8/9/12 16/6/12 14/5/11
f 13/22/13 5/23/13 6/17/11 14/24/11
f 9/25/8 13/26/8 14/24/3 10/27/3
f 15/28/14 11/29/14 12/30/4 16/31/4
f 15/32/15 7/33/15 25/34/15
f 1/35/16 18/36/16 21/37/1 2/16/1
f 21/38/1 26/39/2 4/8/2 2/7/1
f 7/33/15 3/40/15 23/41/15 25/34/15
f 17/42/16 9/43/16 10/27/1 20/44/1
f 11/45/17 24/46/17 27/47/2 12/30/2
f 23/48/17 3/49/17 4/21/2 26/50/2
f 23/48/18 26/50/19 28/51/20 25/52/18
f 25/52/21 28/51/22 27/47/23 24/46/21
f 17/42/24 20/44/25 22/53/26 19/54/24
f 19/54/27 22/53/28 21/37/29 18/36/27
f 26/39/19 21/38/29 22/55/28 28/56/20
f 28/56/22 22/55/26 20/4/25 27/3/23
f 13/12/8 9/57/8 17/58/9 19/13/9
f 1/59/7 5/11/7 19/13/9 18/60/9
f 11/61/15 15/32/15 25/34/15 24/62/15
f 7/63/30 15/64/30 16/31/12 8/20/12
