# Blender v3.4.1 OBJ File: 'Resource_Bits_Export.blend'
# www.blender.org
mtllib Wood_Plank_A.mtl
o Wood_Plank_A
v -0.190000 0.000000 0.740000
v -0.200000 0.010000 0.750000
v -0.190000 0.150000 0.740000
v -0.200000 0.140000 0.750000
v -0.190000 0.000000 -0.740000
v -0.200000 0.010000 -0.750000
v -0.190000 0.150000 -0.740000
v -0.200000 0.140000 -0.750000
v 0.190000 0.000000 0.740000
v 0.200000 0.010000 0.750000
v 0.190000 0.150000 0.740000
v 0.200000 0.140000 0.750000
v 0.190000 0.000000 -0.740000
v 0.200000 0.010000 -0.750000
v 0.190000 0.150000 -0.740000
v 0.200000 0.140000 -0.750000
vt 0.983177 0.862553
vt 0.983178 0.887447
vt 0.900195 0.887447
vt 0.900195 0.862553
vt 0.983177 0.862553
vt 0.983178 0.887447
vt 0.981103 0.937434
vt 0.902270 0.937434
vt 0.902270 0.937434
vt 0.981103 0.937434
vt 0.900195 0.887447
vt 0.900195 0.862553
vt 0.900195 0.890691
vt 0.900195 0.890691
vt 0.900195 0.893803
vt 0.900195 0.893803
vt 0.900195 0.921809
vt 0.900195 0.921809
vt 0.900195 0.918697
vt 0.900195 0.918697
vt 0.981103 0.890691
vt 0.902270 0.890691
vt 0.983178 0.893803
vt 0.902270 0.921809
vt 0.981103 0.921809
vt 0.983177 0.918697
vt 0.983177 0.890691
vt 0.983177 0.890691
vt 0.983178 0.893803
vt 0.983177 0.921809
vt 0.983177 0.921809
vt 0.983177 0.918697
vt 0.902270 0.890691
vt 0.981103 0.890691
vt 0.981103 0.921809
vt 0.902270 0.921809
vt 0.902270 0.812566
vt 0.981103 0.812566
vt 0.981103 0.812566
vt 0.902270 0.812566
vn 0.0000 -0.2880 0.9576
vn 0.0000 0.2880 0.9576
vn 0.9576 -0.2880 0.0000
vn 0.9576 0.2880 0.0000
vn 0.0000 1.0000 0.0000
vn -0.9576 -0.2880 0.0000
vn -0.9576 0.2880 0.0000
vn 0.0000 -0.2880 -0.9576
vn 0.0000 0.2880 -0.9576
vn -0.4444 -0.8959 0.0000
vn -0.7071 0.7071 0.0000
vn 0.0000 -0.7071 -0.7071
vn 0.0000 0.7071 -0.7071
vn 0.4444 -0.8959 0.0000
vn 0.7071 0.7071 0.0000
vn 0.0000 -0.7071 0.7071
vn 0.0000 0.7071 0.7071
usemtl resource
s 1
f 10/1/1 12/2/2 4/3/2 2/4/1
f 14/5/3 16/6/4 12/2/4 10/1/3
f 15/7/5 7/8/5 3/9/5 11/10/5
f 2/4/6 4/3/7 8/11/7 6/12/6
f 6/12/8 8/11/9 16/6/9 14/5/8
f 5/13/10 1/14/10 2/15/6 6/16/6
f 3/17/11 7/18/11 8/19/7 4/20/7
f 13/21/12 5/22/12 6/16/8 14/23/8
f 7/24/13 15/25/13 16/26/9 8/19/9
f 9/27/14 13/28/14 14/23/3 10/29/3
f 15/30/15 11/31/15 12/32/4 16/26/4
f 1/33/16 9/34/16 10/29/1 2/15/1
f 11/35/17 3/36/17 4/20/2 12/32/2
f 5/37/10 13/38/14 9/39/14 1/40/10
