# Blender v3.4.1 OBJ File: 'Platformer_Pack_Export_FREE.blend'
# www.blender.org
mtllib barrier_2x1x4_red.mtl
o barrier_2x1x4_red
v 0.800000 1.800000 0.500000
v -0.941421 1.941421 0.300000
v -0.800000 1.941421 0.441421
v -0.915470 1.915470 0.415470
v -0.941421 1.800000 0.441421
v -0.800000 1.800000 0.500000
v -1.000000 1.800000 0.300000
v -1.000000 3.800000 0.300000
v -0.800000 3.800000 0.500000
v -0.800000 4.000000 0.300000
v -0.941422 3.800000 0.441421
v -0.915470 3.915470 0.415470
v -0.800000 3.941422 0.441421
v -0.941422 3.941422 0.300000
v 0.800000 3.800000 0.500000
v 1.000000 3.800000 0.300000
v 0.800000 4.000000 0.300000
v 0.941421 3.800000 0.441421
v 0.915470 3.915470 0.415470
v 0.941421 3.941422 0.300000
v 0.800000 3.941422 0.441421
v -1.000000 3.800000 -0.300000
v -0.800000 4.000000 -0.300000
v -0.800000 3.800000 -0.500000
v -0.941422 3.941422 -0.300000
v -0.915470 3.915470 -0.415470
v -0.800000 3.941422 -0.441421
v -0.941422 3.800000 -0.441421
v 1.000000 3.800000 -0.300000
v 0.800000 3.800000 -0.500000
v 0.800000 4.000000 -0.300000
v 0.941421 3.800000 -0.441422
v 0.915470 3.915470 -0.415470
v 0.799999 3.941422 -0.441422
v 0.941421 3.941422 -0.300000
v -1.000000 2.200000 0.300000
v -0.800000 2.000000 0.300000
v -0.800000 2.200000 0.500000
v -0.941421 2.058578 0.300000
v -0.915470 2.084530 0.415470
v -0.800000 2.058579 0.441421
v -0.941421 2.200000 0.441421
v 1.000000 2.200000 0.300000
v 0.800000 2.200000 0.500000
v 0.941421 2.200000 0.441421
v 0.915470 2.084530 0.415470
v 0.800000 2.058579 0.441421
v 0.941421 2.058579 0.300000
v -1.000000 2.200000 -0.300000
v -0.800000 2.200000 -0.500000
v -0.941422 2.200000 -0.441421
v -0.915470 2.084530 -0.415470
v -0.800000 2.058579 -0.441421
v -0.941421 2.058578 -0.300000
v 1.000000 2.200000 -0.300000
v 0.800000 2.000000 -0.300000
v 0.800000 2.200000 -0.500000
v 0.941421 2.058579 -0.300000
v 0.915470 2.084530 -0.415470
v 0.800000 2.058579 -0.441422
v 0.941421 2.200000 -0.441422
v 1.000000 1.800000 0.300000
v 0.800000 2.000000 0.300000
v 0.941422 1.800000 0.441421
v 0.915470 1.915470 0.415470
v 0.941421 1.941422 0.300000
v 0.800000 1.941422 0.441421
v -1.000000 1.800000 -0.300000
v -0.800000 2.000000 -0.300000
v -0.800000 1.800000 -0.500000
v -0.941421 1.941421 -0.300000
v -0.915470 1.915470 -0.415470
v -0.800000 1.941421 -0.441421
v -0.941421 1.800000 -0.441421
v 1.000000 1.800000 -0.300000
v 0.800000 1.800000 -0.500000
v 0.941421 1.800000 -0.441422
v 0.915470 1.915470 -0.415470
v 0.800000 1.941422 -0.441422
v 0.941421 1.941422 -0.300000
v -1.000000 0.200000 0.300000
v -0.800000 0.200000 0.500000
v -0.941421 0.058579 0.300000
v -0.915470 0.084530 0.415470
v -0.800000 0.058579 0.441421
v -0.941421 0.200000 0.441421
v 1.000000 0.200000 0.300000
v 0.800000 0.200000 0.500000
v 0.941422 0.200000 0.441421
v 0.915470 0.084530 0.415470
v 0.800000 0.058579 0.441421
v 0.941422 0.058579 0.300000
v -1.000000 0.200000 -0.300000
v -0.800000 0.200000 -0.500000
v -0.941421 0.200000 -0.441421
v -0.915470 0.084530 -0.415470
v -0.800000 0.058579 -0.441421
v -0.941421 0.058579 -0.300000
v 1.000000 0.200000 -0.300000
v 0.800000 0.200000 -0.500000
v 0.941422 0.058579 -0.300000
v 0.915470 0.084530 -0.415470
v 0.800000 0.058579 -0.441422
v 0.941422 0.200000 -0.441422
v -0.800000 0.000000 0.300000
v 0.800000 0.000000 0.300000
v -0.800000 0.000000 -0.300000
v 0.800000 0.000000 -0.300000
vt 0.153943 0.169997
vt 0.221057 0.169997
vt 0.221057 0.176870
vt 0.153943 0.176870
vt 0.153943 0.135630
vt 0.221057 0.135630
vt 0.221057 0.142503
vt 0.153943 0.142503
vt 0.224786 0.169997
vt 0.224786 0.176870
vt 0.224786 0.176870
vt 0.224786 0.169997
vt 0.153943 0.228918
vt 0.221057 0.228918
vt 0.221057 0.228918
vt 0.153943 0.228918
vt 0.153943 0.176870
vt 0.221057 0.176870
vt 0.221057 0.169997
vt 0.153943 0.169997
vt 0.150214 0.176870
vt 0.151307 0.176870
vt 0.151790 0.210341
vt 0.151307 0.212125
vt 0.153943 0.212125
vt 0.151307 0.224892
vt 0.151790 0.223108
vt 0.153943 0.224892
vt 0.223694 0.176870
vt 0.223210 0.210341
vt 0.221057 0.212125
vt 0.223694 0.212125
vt 0.221057 0.224892
vt 0.223210 0.223108
vt 0.223694 0.224892
vt 0.150214 0.176870
vt 0.151307 0.212125
vt 0.151790 0.210341
vt 0.151307 0.176870
vt 0.153943 0.224892
vt 0.151790 0.223108
vt 0.151307 0.224892
vt 0.153943 0.212125
vt 0.223694 0.176870
vt 0.223210 0.210341
vt 0.223694 0.212125
vt 0.221057 0.212125
vt 0.223694 0.224892
vt 0.223210 0.223108
vt 0.221057 0.224892
vt 0.150214 0.169997
vt 0.151307 0.134742
vt 0.151790 0.136526
vt 0.151307 0.169997
vt 0.153943 0.117949
vt 0.153943 0.121975
vt 0.151790 0.123759
vt 0.151307 0.121975
vt 0.153943 0.134742
vt 0.223694 0.169997
vt 0.223210 0.136526
vt 0.223694 0.134742
vt 0.221057 0.134742
vt 0.221057 0.117949
vt 0.223694 0.121975
vt 0.223210 0.123759
vt 0.221057 0.121975
vt 0.150214 0.169997
vt 0.151307 0.169997
vt 0.151790 0.136526
vt 0.151307 0.134742
vt 0.153943 0.134742
vt 0.153943 0.117949
vt 0.151307 0.121975
vt 0.151790 0.123759
vt 0.153943 0.121975
vt 0.223694 0.134742
vt 0.223210 0.136526
vt 0.223694 0.169997
vt 0.221057 0.117949
vt 0.221057 0.121975
vt 0.223210 0.123759
vt 0.223694 0.121975
vt 0.221057 0.134742
vt 0.224786 0.135630
vt 0.224786 0.142503
vt 0.224786 0.142503
vt 0.224786 0.135630
vt 0.153943 0.142503
vt 0.221057 0.142503
vt 0.221057 0.135630
vt 0.153943 0.135630
vt 0.150214 0.142503
vt 0.151307 0.142503
vt 0.151790 0.175974
vt 0.151307 0.177758
vt 0.153943 0.177758
vt 0.153943 0.194551
vt 0.151307 0.190525
vt 0.151790 0.188741
vt 0.153943 0.190525
vt 0.223694 0.142503
vt 0.223210 0.175974
vt 0.221057 0.177758
vt 0.223694 0.177758
vt 0.221057 0.194551
vt 0.221057 0.190525
vt 0.223210 0.188741
vt 0.223694 0.190525
vt 0.150214 0.142503
vt 0.151307 0.177758
vt 0.151790 0.175974
vt 0.151307 0.142503
vt 0.153943 0.194551
vt 0.153943 0.190525
vt 0.151790 0.188741
vt 0.151307 0.190525
vt 0.153943 0.177758
vt 0.223694 0.142503
vt 0.223210 0.175974
vt 0.223694 0.177758
vt 0.221057 0.177758
vt 0.221057 0.194551
vt 0.223694 0.190525
vt 0.223210 0.188741
vt 0.221057 0.190525
vt 0.150214 0.135630
vt 0.151307 0.100375
vt 0.151790 0.102159
vt 0.151307 0.135630
vt 0.153943 0.083582
vt 0.153943 0.087608
vt 0.151790 0.089392
vt 0.151307 0.087608
vt 0.153943 0.100375
vt 0.223694 0.135630
vt 0.223210 0.102159
vt 0.223694 0.100375
vt 0.221057 0.100375
vt 0.221057 0.083582
vt 0.223694 0.087608
vt 0.223210 0.089392
vt 0.221057 0.087608
vt 0.150214 0.135630
vt 0.151307 0.135630
vt 0.151790 0.102159
vt 0.151307 0.100375
vt 0.153943 0.100375
vt 0.153943 0.083582
vt 0.151307 0.087608
vt 0.151790 0.089392
vt 0.153943 0.087608
vt 0.223694 0.100375
vt 0.223210 0.102159
vt 0.223694 0.135630
vt 0.221057 0.083582
vt 0.221057 0.087608
vt 0.223210 0.089392
vt 0.223694 0.087608
vt 0.221057 0.100375
vn -0.1794 -0.1794 0.9673
vn 0.1794 -0.1794 0.9673
vn 0.1794 0.1794 0.9673
vn -0.1794 0.1794 0.9673
vn 0.9673 -0.1794 -0.1794
vn 0.9673 0.1794 -0.1794
vn 0.9673 0.1794 0.1794
vn 0.9673 -0.1794 0.1794
vn -0.1794 0.9673 0.1794
vn 0.1794 0.9673 0.1794
vn 0.1794 0.9673 -0.1794
vn -0.1794 0.9673 -0.1794
vn -0.1794 0.1794 -0.9673
vn 0.1794 0.1794 -0.9673
vn 0.1794 -0.1794 -0.9673
vn -0.1794 -0.1794 -0.9673
vn -0.9673 0.1794 0.1794
vn -0.9194 0.1585 0.3600
vn -0.8881 0.3251 0.3251
vn -0.9194 0.3600 0.1585
vn -0.1585 0.3600 0.9194
vn -0.3251 0.3251 0.8881
vn -0.3600 0.1585 0.9194
vn -0.3600 0.9194 0.1585
vn -0.3251 0.8881 0.3251
vn -0.1585 0.9194 0.3600
vn 0.6965 0.1726 0.6965
vn 0.3251 0.3251 0.8881
vn 0.1585 0.3600 0.9194
vn 0.9194 0.3600 0.1585
vn 0.8881 0.3251 0.3251
vn 0.1585 0.9194 0.3600
vn 0.3251 0.8881 0.3251
vn 0.3600 0.9194 0.1585
vn -0.9673 0.1794 -0.1794
vn -0.9194 0.3600 -0.1585
vn -0.8881 0.3251 -0.3251
vn -0.9194 0.1585 -0.3600
vn -0.1585 0.9194 -0.3600
vn -0.3251 0.8881 -0.3251
vn -0.3600 0.9194 -0.1585
vn -0.3600 0.1585 -0.9194
vn -0.3251 0.3251 -0.8881
vn -0.1585 0.3600 -0.9194
vn 0.9194 0.1585 -0.3600
vn 0.8881 0.3251 -0.3251
vn 0.9194 0.3600 -0.1585
vn 0.1585 0.3600 -0.9194
vn 0.3251 0.3251 -0.8881
vn 0.3600 0.1585 -0.9194
vn 0.3600 0.9194 -0.1585
vn 0.3251 0.8881 -0.3251
vn 0.1585 0.9194 -0.3600
vn -0.9673 -0.1794 0.1794
vn -0.9194 -0.3600 0.1585
vn -0.8881 -0.3251 0.3251
vn -0.9194 -0.1585 0.3600
vn -0.2402 -0.9406 0.2402
vn -0.1585 -0.9194 0.3600
vn -0.3251 -0.8881 0.3251
vn -0.3600 -0.9194 0.1585
vn -0.3600 -0.1585 0.9194
vn -0.3251 -0.3251 0.8881
vn -0.1585 -0.3600 0.9194
vn 0.6965 -0.1726 0.6965
vn 0.8881 -0.3251 0.3251
vn 0.9194 -0.3600 0.1585
vn 0.1585 -0.3600 0.9194
vn 0.3251 -0.3251 0.8881
vn 0.2402 -0.9406 0.2402
vn 0.3600 -0.9194 0.1585
vn 0.3251 -0.8881 0.3251
vn 0.1585 -0.9194 0.3600
vn -0.9673 -0.1794 -0.1794
vn -0.9194 -0.1585 -0.3600
vn -0.8881 -0.3251 -0.3251
vn -0.9194 -0.3600 -0.1585
vn -0.1585 -0.3600 -0.9194
vn -0.3251 -0.3251 -0.8881
vn -0.3600 -0.1585 -0.9194
vn -0.2402 -0.9406 -0.2402
vn -0.3600 -0.9194 -0.1585
vn -0.3251 -0.8881 -0.3251
vn -0.1585 -0.9194 -0.3600
vn 0.9194 -0.3600 -0.1585
vn 0.8881 -0.3251 -0.3251
vn 0.9194 -0.1585 -0.3600
vn 0.2402 -0.9406 -0.2402
vn 0.1585 -0.9194 -0.3600
vn 0.3251 -0.8881 -0.3251
vn 0.3600 -0.9194 -0.1585
vn 0.3600 -0.1585 -0.9194
vn 0.3251 -0.3251 -0.8881
vn 0.1585 -0.3600 -0.9194
vn -0.6965 0.1726 0.6965
vn -0.2402 0.9406 0.2402
vn 0.3600 0.1585 0.9194
vn 0.6965 0.6965 0.1726
vn 0.9194 0.1585 0.3600
vn 0.2402 0.9406 0.2402
vn -0.6965 0.1726 -0.6965
vn -0.2402 0.9406 -0.2402
vn 0.6965 0.1726 -0.6965
vn 0.6965 0.6965 -0.1726
vn 0.2402 0.9406 -0.2402
vn -0.6965 -0.6965 0.1726
vn -0.6965 -0.1726 0.6965
vn -0.1794 -0.9673 0.1794
vn 0.9194 -0.1585 0.3600
vn 0.6965 -0.6965 0.1726
vn 0.3600 -0.1585 0.9194
vn 0.1794 -0.9673 0.1794
vn -0.6965 -0.1726 -0.6965
vn -0.6965 -0.6965 -0.1726
vn -0.1794 -0.9673 -0.1794
vn 0.6965 -0.6965 -0.1726
vn 0.6965 -0.1726 -0.6965
vn 0.1794 -0.9673 -0.1794
usemtl platformer
s 1
f 38/1/1 44/2/2 15/3/3 9/4/4
f 82/5/1 88/6/2 1/7/3 6/8/4
f 55/9/5 29/10/6 16/11/7 43/12/8
f 10/13/9 17/14/10 31/15/11 23/16/12
f 24/17/13 30/18/14 57/19/15 50/20/16
f 8/21/17 11/22/18 12/23/19 14/24/20
f 9/4/4 13/25/21 12/23/22 11/22/23
f 10/13/9 14/26/24 12/27/25 13/28/26
f 15/3/3 18/29/27 19/30/28 21/31/29
f 16/11/7 20/32/30 19/30/31 18/29/27
f 17/14/10 21/33/32 19/34/33 20/35/34
f 22/36/35 25/37/36 26/38/37 28/39/38
f 23/16/12 27/40/39 26/41/40 25/42/41
f 24/17/13 28/39/42 26/38/43 27/43/44
f 29/10/6 32/44/45 33/45/46 35/46/47
f 30/18/14 34/47/48 33/45/49 32/44/50
f 31/15/11 35/48/51 33/49/52 34/50/53
f 36/51/54 39/52/55 40/53/56 42/54/57
f 37/55/58 41/56/59 40/57/60 39/58/61
f 38/1/1 42/54/62 40/53/63 41/59/64
f 43/12/8 45/60/65 46/61/66 48/62/67
f 44/2/2 47/63/68 46/61/69 45/60/65
f 63/64/70 48/65/71 46/66/72 47/67/73
f 49/68/74 51/69/75 52/70/76 54/71/77
f 50/20/16 53/72/78 52/70/79 51/69/80
f 69/73/81 54/74/82 52/75/83 53/76/84
f 55/9/5 58/77/85 59/78/86 61/79/87
f 56/80/88 60/81/89 59/82/90 58/83/91
f 57/19/15 61/79/92 59/78/93 60/84/94
f 22/36/35 8/21/17 14/24/20 25/37/36
f 25/42/41 14/26/24 10/13/9 23/16/12
f 9/4/4 15/3/3 21/31/29 13/25/21
f 13/28/26 21/33/32 17/14/10 10/13/9
f 16/11/7 29/10/6 35/46/47 20/32/30
f 20/35/34 35/48/51 31/15/11 17/14/10
f 30/18/14 24/17/13 27/43/44 34/47/48
f 34/50/53 27/40/39 23/16/12 31/15/11
f 49/68/74 22/36/35 28/39/38 51/69/75
f 51/69/80 28/39/42 24/17/13 50/20/16
f 29/10/6 55/9/5 61/79/87 32/44/45
f 32/44/50 61/79/92 57/19/15 30/18/14
f 56/80/88 69/73/81 53/76/84 60/81/89
f 60/84/94 53/72/78 50/20/16 57/19/15
f 36/51/54 49/68/74 54/71/77 39/52/55
f 39/58/61 54/74/82 69/73/81 37/55/58
f 55/9/5 43/12/8 48/62/67 58/77/85
f 58/83/91 48/65/71 63/64/70 56/80/88
f 44/2/2 38/1/1 41/59/64 47/63/68
f 47/67/73 41/56/59 37/55/58 63/64/70
f 8/21/17 36/51/54 42/54/57 11/22/18
f 11/22/23 42/54/62 38/1/1 9/4/4
f 43/12/8 16/11/7 18/29/27 45/60/65
f 45/60/65 18/29/27 15/3/3 44/2/2
f 22/36/35 49/68/74 36/51/54 8/21/17
f 99/85/5 75/86/6 62/87/7 87/88/8
f 70/89/13 76/90/14 100/91/15 94/92/16
f 7/93/17 5/94/95 4/95/19 2/96/20
f 6/8/4 3/97/21 4/95/22 5/94/95
f 37/98/96 2/99/24 4/100/25 3/101/26
f 1/7/3 64/102/97 65/103/28 67/104/29
f 62/87/7 66/105/98 65/103/31 64/102/99
f 63/106/100 67/107/32 65/108/33 66/109/98
f 68/110/35 71/111/36 72/112/37 74/113/101
f 69/114/102 73/115/39 72/116/40 71/117/41
f 70/89/13 74/113/101 72/112/43 73/118/44
f 75/86/6 77/119/103 78/120/46 80/121/104
f 76/90/14 79/122/48 78/120/49 77/119/103
f 56/123/105 80/124/104 78/125/52 79/126/53
f 81/127/54 83/128/106 84/129/56 86/130/107
f 105/131/108 85/132/59 84/133/60 83/134/106
f 82/5/1 86/130/107 84/129/63 85/135/64
f 87/88/8 89/136/109 90/137/66 92/138/110
f 88/6/2 91/139/68 90/137/69 89/136/111
f 106/140/112 92/141/110 90/142/72 91/143/73
f 93/144/74 95/145/113 96/146/76 98/147/114
f 94/92/16 97/148/78 96/146/79 95/145/113
f 107/149/115 98/150/114 96/151/83 97/152/84
f 99/85/5 101/153/116 102/154/86 104/155/117
f 108/156/118 103/157/89 102/158/90 101/159/116
f 100/91/15 104/155/117 102/154/93 103/160/94
f 68/110/35 7/93/17 2/96/20 71/111/36
f 71/117/41 2/99/24 37/98/96 69/114/102
f 6/8/4 1/7/3 67/104/29 3/97/21
f 3/101/26 67/107/32 63/106/100 37/98/96
f 62/87/7 75/86/6 80/121/104 66/105/98
f 66/109/98 80/124/104 56/123/105 63/106/100
f 76/90/14 70/89/13 73/118/44 79/122/48
f 79/126/53 73/115/39 69/114/102 56/123/105
f 93/144/74 68/110/35 74/113/101 95/145/113
f 95/145/113 74/113/101 70/89/13 94/92/16
f 75/86/6 99/85/5 104/155/117 77/119/103
f 77/119/103 104/155/117 100/91/15 76/90/14
f 108/156/118 107/149/115 97/152/84 103/157/89
f 103/160/94 97/148/78 94/92/16 100/91/15
f 81/127/54 93/144/74 98/147/114 83/128/106
f 83/134/106 98/150/114 107/149/115 105/131/108
f 99/85/5 87/88/8 92/138/110 101/153/116
f 101/159/116 92/141/110 106/140/112 108/156/118
f 88/6/2 82/5/1 85/135/64 91/139/68
f 91/143/73 85/132/59 105/131/108 106/140/112
f 7/93/17 81/127/54 86/130/107 5/94/95
f 5/94/95 86/130/107 82/5/1 6/8/4
f 87/88/8 62/87/7 64/102/99 89/136/109
f 89/136/111 64/102/97 1/7/3 88/6/2
f 68/110/35 93/144/74 81/127/54 7/93/17
f 105/131/108 107/149/115 108/156/118 106/140/112
