# Blender v3.4.1 OBJ File: 'Platformer_Pack_Export_FREE.blend'
# www.blender.org
mtllib pipe_straight_A_red.mtl
o pipe_straight_A_red
v 0.796082 0.000000 0.000000
v 0.796082 2.000000 0.000000
v 0.735484 0.000000 0.304647
v 0.735484 2.000000 0.304647
v 0.562915 0.000000 0.562915
v 0.562915 2.000000 0.562915
v 0.304647 0.000000 0.735484
v 0.304647 2.000000 0.735484
v -0.000000 0.000000 0.796082
v -0.000000 2.000000 0.796082
v -0.304647 0.000000 0.735484
v -0.304647 2.000000 0.735484
v -0.562915 0.000000 0.562915
v -0.562915 2.000000 0.562915
v -0.735484 0.000000 0.304647
v -0.735484 2.000000 0.304647
v -0.796082 0.000000 -0.000000
v -0.796082 2.000000 -0.000000
v -0.735484 0.000000 -0.304647
v -0.735484 2.000000 -0.304647
v -0.562915 0.000000 -0.562915
v -0.562915 2.000000 -0.562915
v -0.304647 0.000000 -0.735484
v -0.304647 2.000000 -0.735484
v 0.000000 0.000000 -0.796082
v 0.000000 2.000000 -0.796082
v 0.304648 0.000000 -0.735484
v 0.304648 2.000000 -0.735484
v 0.562915 0.000000 -0.562915
v 0.562915 2.000000 -0.562915
v 0.735484 0.000000 -0.304647
v 0.735484 2.000000 -0.304647
v 1.000000 0.000000 0.000000
v 0.923880 0.000000 0.382683
v 0.923880 2.000000 0.382683
v 1.000000 2.000000 0.000000
v 0.707107 0.000000 0.707107
v 0.707107 2.000000 0.707107
v 0.382683 0.000000 0.923880
v 0.382683 2.000000 0.923880
v -0.000000 0.000000 1.000000
v -0.000000 2.000000 1.000000
v -0.382683 0.000000 0.923880
v -0.382683 2.000000 0.923880
v -0.707107 0.000000 0.707107
v -0.707107 2.000000 0.707107
v -0.923880 0.000000 0.382683
v -0.923880 2.000000 0.382683
v -1.000000 0.000000 -0.000000
v -1.000000 2.000000 -0.000000
v -0.923880 0.000000 -0.382683
v -0.923880 2.000000 -0.382683
v -0.707107 0.000000 -0.707107
v -0.707107 2.000000 -0.707107
v -0.382684 0.000000 -0.923880
v -0.382684 2.000000 -0.923880
v 0.000000 0.000000 -1.000000
v 0.000000 2.000000 -1.000000
v 0.382684 0.000000 -0.923879
v 0.382684 2.000000 -0.923879
v 0.707107 0.000000 -0.707107
v 0.707107 2.000000 -0.707107
v 0.923880 0.000000 -0.382683
v 0.923880 2.000000 -0.382683
vt 0.164154 0.120605
vt 0.164154 0.120605
vt 0.168781 0.120605
vt 0.168781 0.120605
vt 0.172703 0.120605
vt 0.172703 0.120605
vt 0.175324 0.120605
vt 0.175324 0.120605
vt 0.176244 0.120605
vt 0.176244 0.120605
vt 0.175324 0.120605
vt 0.175324 0.120605
vt 0.172703 0.120605
vt 0.172703 0.120605
vt 0.168781 0.120605
vt 0.168781 0.120605
vt 0.164154 0.120605
vt 0.164154 0.120605
vt 0.159527 0.120605
vt 0.159527 0.120605
vt 0.155605 0.120605
vt 0.155605 0.120605
vt 0.152984 0.120605
vt 0.152984 0.120605
vt 0.152064 0.120605
vt 0.152064 0.120605
vt 0.152984 0.120605
vt 0.152984 0.120605
vt 0.155605 0.120605
vt 0.155605 0.120605
vt 0.160471 0.089355
vt 0.157348 0.089355
vt 0.157348 0.089355
vt 0.160471 0.089355
vt 0.159527 0.120605
vt 0.159527 0.120605
vt 0.164154 0.089355
vt 0.164154 0.089355
vt 0.167837 0.120605
vt 0.164154 0.120605
vt 0.164154 0.120605
vt 0.167837 0.120605
vt 0.170960 0.120605
vt 0.170960 0.120605
vt 0.173046 0.120605
vt 0.173046 0.120605
vt 0.173778 0.120605
vt 0.173778 0.120605
vt 0.173046 0.120605
vt 0.173046 0.120605
vt 0.170960 0.120605
vt 0.170960 0.120605
vt 0.167837 0.120605
vt 0.167837 0.120605
vt 0.164154 0.120605
vt 0.164154 0.120605
vt 0.160471 0.120605
vt 0.160471 0.120605
vt 0.157348 0.120605
vt 0.157348 0.120605
vt 0.155262 0.120605
vt 0.155262 0.120605
vt 0.154529 0.120605
vt 0.154529 0.120605
vt 0.155262 0.120605
vt 0.155262 0.120605
vt 0.157348 0.120605
vt 0.157348 0.120605
vt 0.160471 0.120605
vt 0.160471 0.120605
vt 0.155262 0.089355
vt 0.155262 0.089355
vt 0.154529 0.089355
vt 0.154529 0.089355
vt 0.155262 0.089355
vt 0.155262 0.089355
vt 0.157348 0.089355
vt 0.157348 0.089355
vt 0.160471 0.089355
vt 0.160471 0.089355
vt 0.164154 0.089355
vt 0.164154 0.089355
vt 0.167837 0.089355
vt 0.167837 0.089355
vt 0.170960 0.089355
vt 0.170960 0.089355
vt 0.173046 0.089355
vt 0.173046 0.089355
vt 0.173778 0.089355
vt 0.173778 0.089355
vt 0.173046 0.089355
vt 0.173046 0.089355
vt 0.170960 0.089355
vt 0.170960 0.089355
vt 0.167837 0.089355
vt 0.167837 0.089355
vn 1.0000 0.0000 0.0000
vn 0.9239 0.0000 0.3827
vn 0.7071 0.0000 0.7071
vn 0.3827 0.0000 0.9239
vn 0.0000 0.0000 1.0000
vn -0.3827 0.0000 0.9239
vn -0.7071 0.0000 0.7071
vn -0.9239 0.0000 0.3827
vn -1.0000 0.0000 -0.0000
vn -0.9239 0.0000 -0.3827
vn -0.7071 0.0000 -0.7071
vn -0.3827 0.0000 -0.9239
vn 0.0000 0.0000 -1.0000
vn 0.3827 0.0000 -0.9239
vn 0.7071 0.0000 -0.7071
vn 0.9239 0.0000 -0.3827
vn 0.0000 -1.0000 0.0000
vn 0.0000 1.0000 0.0000
usemtl platformer
s 1
f 33/1/1 36/2/1 35/3/2 34/4/2
f 34/4/2 35/3/2 38/5/3 37/6/3
f 37/6/3 38/5/3 40/7/4 39/8/4
f 39/8/4 40/7/4 42/9/5 41/10/5
f 41/10/5 42/9/5 44/11/6 43/12/6
f 43/12/6 44/11/6 46/13/7 45/14/7
f 45/14/7 46/13/7 48/15/8 47/16/8
f 47/16/8 48/15/8 50/17/9 49/18/9
f 49/18/9 50/17/9 52/19/10 51/20/10
f 51/20/10 52/19/10 54/21/11 53/22/11
f 53/22/11 54/21/11 56/23/12 55/24/12
f 55/24/12 56/23/12 58/25/13 57/26/13
f 57/26/13 58/25/13 60/27/14 59/28/14
f 59/28/14 60/27/14 62/29/15 61/30/15
f 32/31/8 30/32/7 29/33/7 31/34/8
f 61/30/15 62/29/15 64/35/16 63/36/16
f 63/36/16 64/35/16 36/2/1 33/1/1
f 2/37/9 32/31/8 31/34/8 1/38/9
f 3/39/17 1/40/17 33/1/17 34/4/17
f 2/41/18 4/42/18 35/3/18 36/2/18
f 5/43/17 3/39/17 34/4/17 37/6/17
f 4/42/18 6/44/18 38/5/18 35/3/18
f 7/45/17 5/43/17 37/6/17 39/8/17
f 6/44/18 8/46/18 40/7/18 38/5/18
f 9/47/17 7/45/17 39/8/17 41/10/17
f 8/46/18 10/48/18 42/9/18 40/7/18
f 11/49/17 9/47/17 41/10/17 43/12/17
f 10/48/18 12/50/18 44/11/18 42/9/18
f 13/51/17 11/49/17 43/12/17 45/14/17
f 12/50/18 14/52/18 46/13/18 44/11/18
f 15/53/17 13/51/17 45/14/17 47/16/17
f 14/52/18 16/54/18 48/15/18 46/13/18
f 17/55/17 15/53/17 47/16/17 49/18/17
f 16/54/18 18/56/18 50/17/18 48/15/18
f 19/57/17 17/55/17 49/18/17 51/20/17
f 18/56/18 20/58/18 52/19/18 50/17/18
f 21/59/17 19/57/17 51/20/17 53/22/17
f 20/58/18 22/60/18 54/21/18 52/19/18
f 23/61/17 21/59/17 53/22/17 55/24/17
f 22/60/18 24/62/18 56/23/18 54/21/18
f 25/63/17 23/61/17 55/24/17 57/26/17
f 24/62/18 26/64/18 58/25/18 56/23/18
f 27/65/17 25/63/17 57/26/17 59/28/17
f 26/64/18 28/66/18 60/27/18 58/25/18
f 29/67/17 27/65/17 59/28/17 61/30/17
f 28/66/18 30/68/18 62/29/18 60/27/18
f 31/69/17 29/67/17 61/30/17 63/36/17
f 30/68/18 32/70/18 64/35/18 62/29/18
f 1/40/17 31/69/17 63/36/17 33/1/17
f 32/70/18 2/41/18 36/2/18 64/35/18
f 30/32/7 28/71/6 27/72/6 29/33/7
f 28/71/6 26/73/5 25/74/5 27/72/6
f 26/73/5 24/75/4 23/76/4 25/74/5
f 24/75/4 22/77/3 21/78/3 23/76/4
f 22/77/3 20/79/2 19/80/2 21/78/3
f 20/79/2 18/81/1 17/82/1 19/80/2
f 18/81/1 16/83/16 15/84/16 17/82/1
f 16/83/16 14/85/15 13/86/15 15/84/16
f 14/85/15 12/87/14 11/88/14 13/86/15
f 12/87/14 10/89/13 9/90/13 11/88/14
f 10/89/13 8/91/12 7/92/12 9/90/13
f 8/91/12 6/93/11 5/94/11 7/92/12
f 6/93/11 4/95/10 3/96/10 5/94/11
f 4/95/10 2/37/9 1/38/9 3/96/10
