# Blender v3.4.1 OBJ File: 'Platformer_Pack_Export_FREE.blend'
# www.blender.org
mtllib platform_slope_4x6x4_red.mtl
o platform_slope_4x6x4_red
v -2.000000 3.550000 -2.950000
v -1.950000 3.550000 -3.000000
v -2.000000 3.950000 -2.950000
v -1.950000 4.000000 -2.950000
v -1.950000 3.950000 -3.000000
v 1.950000 3.500000 -2.950000
v 1.950000 3.550000 -3.000000
v 2.000000 3.550000 -2.950000
v 1.950000 4.000000 -2.950000
v 2.000000 3.950000 -2.950000
v 1.950000 3.950000 -3.000000
v -1.950000 0.550000 3.000000
v -2.000000 0.550000 2.950000
v -1.950000 1.000000 2.950000
v -2.000000 0.950000 2.950000
v -1.950000 0.950000 3.000000
v 2.000000 0.550000 2.950000
v 1.950000 0.550000 3.000000
v 1.950000 1.000000 2.950000
v 1.950000 0.950000 3.000000
v 2.000000 0.950000 2.950000
v -1.950000 0.000000 -2.950000
v -2.000000 0.050000 -2.950000
v -1.950000 0.050000 -3.000000
v -2.000000 3.450000 -2.950000
v -1.950000 3.500000 -2.950000
v -1.950000 3.450000 -3.000000
v 1.950000 0.000000 -2.950000
v 1.950000 0.050000 -3.000000
v 2.000000 0.050000 -2.950000
v 2.000000 3.450000 -2.950000
v 1.950000 3.450000 -3.000000
v -1.950000 0.000000 2.950000
v -1.950000 0.050000 3.000000
v -2.000000 0.050000 2.950000
v -1.950000 0.500000 2.950000
v -2.000000 0.450000 2.950000
v -1.950000 0.450000 3.000000
v 1.950000 0.000000 2.950000
v 2.000000 0.050000 2.950000
v 1.950000 0.050000 3.000000
v 1.950000 0.500000 2.950000
v 1.950000 0.450000 3.000000
v 2.000000 0.450000 2.950000
vt 0.224403 0.130196
vt 0.224403 0.171760
vt 0.150597 0.171760
vt 0.150597 0.130196
vt 0.226345 0.130196
vt 0.226345 0.171760
vt 0.226345 0.171760
vt 0.226345 0.130196
vt 0.224403 0.208206
vt 0.150597 0.208206
vt 0.150597 0.208206
vt 0.224403 0.208206
vt 0.148655 0.130196
vt 0.148655 0.171760
vt 0.148655 0.171760
vt 0.148655 0.130196
vt 0.150597 0.130196
vt 0.150597 0.171760
vt 0.224403 0.171760
vt 0.224403 0.130196
vt 0.150597 0.109375
vt 0.150597 0.114571
vt 0.148655 0.114571
vt 0.150597 0.218635
vt 0.150597 0.223831
vt 0.148655 0.218635
vt 0.150597 0.109375
vt 0.148655 0.114571
vt 0.150597 0.114571
vt 0.150597 0.223831
vt 0.150597 0.218635
vt 0.148655 0.218635
vt 0.224403 0.109375
vt 0.226345 0.114571
vt 0.224403 0.114571
vt 0.224403 0.223831
vt 0.224403 0.218635
vt 0.226345 0.218635
vt 0.224403 0.109375
vt 0.224403 0.114571
vt 0.226345 0.114571
vt 0.224403 0.223831
vt 0.226345 0.218635
vt 0.224403 0.218635
vt 0.150597 0.145821
vt 0.150597 0.187385
vt 0.148655 0.187385
vt 0.148655 0.145821
vt 0.150597 0.187385
vt 0.150597 0.145821
vt 0.148655 0.145821
vt 0.148655 0.187385
vt 0.226345 0.187385
vt 0.226345 0.145821
vt 0.224403 0.145821
vt 0.224403 0.187385
vt 0.224403 0.187385
vt 0.224403 0.145821
vt 0.226345 0.145821
vt 0.226345 0.187385
vt 0.349403 0.890740
vt 0.349403 0.932304
vt 0.275597 0.932304
vt 0.275597 0.890740
vt 0.351345 0.890740
vt 0.351345 0.932304
vt 0.351345 0.932304
vt 0.351345 0.890740
vt 0.273655 0.890740
vt 0.273655 0.932304
vt 0.273655 0.932304
vt 0.273655 0.890740
vt 0.275597 0.890740
vt 0.275597 0.932304
vt 0.349403 0.932304
vt 0.349403 0.890740
vt 0.275597 0.869919
vt 0.275597 0.875115
vt 0.273655 0.875115
vt 0.275597 0.979179
vt 0.275597 0.984375
vt 0.273655 0.979179
vt 0.275597 0.869919
vt 0.273655 0.875115
vt 0.275597 0.875115
vt 0.275597 0.984375
vt 0.275597 0.979179
vt 0.273655 0.979179
vt 0.349403 0.869919
vt 0.351345 0.875115
vt 0.349403 0.875115
vt 0.349403 0.984375
vt 0.349403 0.979179
vt 0.351345 0.979179
vt 0.349403 0.869919
vt 0.349403 0.875115
vt 0.351345 0.875115
vt 0.349403 0.984375
vt 0.351345 0.979179
vt 0.349403 0.979179
vt 0.275597 0.906365
vt 0.275597 0.947929
vt 0.273655 0.947929
vt 0.273655 0.906365
vt 0.275597 0.947929
vt 0.275597 0.906365
vt 0.273655 0.906365
vt 0.273655 0.947929
vt 0.351345 0.947929
vt 0.351345 0.906365
vt 0.349403 0.906365
vt 0.349403 0.947929
vt 0.349403 0.947929
vt 0.349403 0.906365
vt 0.351345 0.906365
vt 0.351345 0.947929
vt 0.275597 0.854294
vt 0.349403 0.854294
vt 0.349403 0.854294
vt 0.275597 0.854294
vn -1.0000 0.0000 -0.0000
vn 0.0000 0.0000 1.0000
vn 0.0000 0.8093 0.5874
vn 0.0000 0.8914 0.4532
vn 0.0000 0.0000 -1.0000
vn 1.0000 0.0000 0.0000
vn -0.6394 -0.6394 -0.4269
vn -0.6309 -0.6309 -0.4516
vn -0.5773 -0.5773 -0.5774
vn -0.5773 0.5773 -0.5774
vn 0.6394 -0.6394 -0.4269
vn 0.5774 -0.5774 -0.5774
vn 0.6309 -0.6309 -0.4516
vn 0.5774 0.5774 -0.5774
vn -0.5773 -0.5773 0.5774
vn -0.6394 0.6394 0.4269
vn -0.6309 0.6309 0.4516
vn -0.5773 0.5773 0.5774
vn 0.5774 -0.5773 0.5774
vn 0.6394 0.6394 0.4269
vn 0.5774 0.5773 0.5774
vn 0.6309 0.6309 0.4516
vn 0.0000 -0.7071 -0.7071
vn -0.7071 0.0000 -0.7071
vn 0.0000 0.7071 -0.7071
vn 0.7071 0.0000 -0.7071
vn 0.6654 -0.6654 -0.3383
vn 0.6654 0.6654 0.3383
vn 0.7071 0.0000 0.7071
vn 0.0000 -0.7071 0.7071
vn 0.0000 0.7071 0.7071
vn -0.7071 0.0000 0.7071
vn -0.6654 -0.6654 -0.3383
vn -0.6654 0.6654 0.3383
vn -0.5774 -0.5773 -0.5774
vn -0.5774 0.5773 -0.5774
vn 0.5773 -0.5773 -0.5774
vn 0.5774 0.5774 -0.5773
vn 0.7071 -0.7071 0.0000
vn -0.7071 -0.7071 -0.0000
vn 0.0000 -1.0000 0.0000
usemtl platformer
s 1
f 13/1/1 15/2/1 3/3/1 1/4/1
f 18/5/2 20/6/2 16/7/2 12/8/2
f 19/9/3 9/10/4 4/11/4 14/12/3
f 2/13/5 5/14/5 11/15/5 7/16/5
f 8/17/6 10/18/6 21/19/6 17/20/6
f 26/21/7 1/22/8 2/23/9
f 3/24/10 4/25/10 5/26/10
f 6/27/11 7/28/12 8/29/13
f 9/30/14 10/31/14 11/32/14
f 36/33/15 12/34/15 13/35/15
f 14/36/16 15/37/17 16/38/18
f 42/39/19 17/40/19 18/41/19
f 19/42/20 20/43/21 21/44/22
f 6/27/23 26/21/23 2/23/23 7/28/23
f 1/45/24 3/46/24 5/47/24 2/48/24
f 4/25/25 9/30/25 11/32/25 5/26/25
f 10/49/26 8/50/26 7/51/26 11/52/26
f 42/39/27 6/27/11 8/29/13 17/40/27
f 9/30/28 19/42/20 21/44/22 10/31/28
f 20/53/29 18/54/29 17/55/29 21/56/29
f 36/33/30 42/39/30 18/41/30 12/34/30
f 19/42/3 14/36/3 16/38/31 20/43/31
f 15/57/32 13/58/32 12/59/32 16/60/32
f 26/21/7 36/33/33 13/35/33 1/22/8
f 14/36/16 4/25/34 3/24/34 15/37/17
f 35/61/1 37/62/1 25/63/1 23/64/1
f 41/65/2 43/66/2 38/67/2 34/68/2
f 24/69/5 27/70/5 32/71/5 29/72/5
f 30/73/6 31/74/6 44/75/6 40/76/6
f 22/77/35 23/78/35 24/79/35
f 25/80/36 26/81/36 27/82/36
f 28/83/37 29/84/37 30/85/37
f 6/86/38 31/87/38 32/88/38
f 33/89/15 34/90/15 35/91/15
f 36/92/16 37/93/17 38/94/18
f 39/95/19 40/96/19 41/97/19
f 42/98/20 43/99/21 44/100/22
f 28/83/23 22/77/23 24/79/23 29/84/23
f 23/101/24 25/102/24 27/103/24 24/104/24
f 26/81/25 6/86/25 32/88/25 27/82/25
f 31/105/26 30/106/26 29/107/26 32/108/26
f 39/95/39 28/83/39 30/85/39 40/96/39
f 6/86/28 42/98/20 44/100/22 31/87/28
f 43/109/29 41/110/29 40/111/29 44/112/29
f 33/89/30 39/95/30 41/97/30 34/90/30
f 42/98/31 36/92/31 38/94/31 43/99/31
f 37/113/32 35/114/32 34/115/32 38/116/32
f 22/77/40 33/89/40 35/91/40 23/78/40
f 36/92/16 26/81/34 25/80/34 37/93/17
f 28/117/41 39/118/41 33/119/41 22/120/41
