# Blender v3.4.1 OBJ File: 'Platformer_Pack_Export_FREE.blend'
# www.blender.org
mtllib railing_straight_double_red.mtl
o railing_straight_double_red
v 0.841421 0.000000 -0.899999
v 0.841421 1.000000 -0.899999
v 0.899999 0.000000 -0.841421
v 0.899999 1.000000 -0.841421
v 0.899999 0.000000 -0.758578
v 0.899999 1.000000 -0.758578
v 0.841421 0.000000 -0.699999
v 0.841421 1.000000 -0.699999
v 0.758578 0.000000 -0.699999
v 0.758578 1.000000 -0.699999
v 0.699999 0.000000 -0.758578
v 0.699999 1.000000 -0.758578
v 0.699999 0.000000 -0.841421
v 0.699999 1.000000 -0.841421
v 0.758578 0.000000 -0.899999
v 0.758578 1.000000 -0.899999
v -0.758580 0.000000 -0.899999
v -0.758580 1.000000 -0.899999
v -0.700001 0.000000 -0.841421
v -0.700001 1.000000 -0.841421
v -0.700001 0.000000 -0.758578
v -0.700001 1.000000 -0.758578
v -0.758580 0.000000 -0.699999
v -0.758580 1.000000 -0.699999
v -0.841423 0.000000 -0.699999
v -0.841423 1.000000 -0.699999
v -0.900001 0.000000 -0.758578
v -0.900001 1.000000 -0.758578
v -0.900001 0.000000 -0.841421
v -0.900001 1.000000 -0.841421
v -0.841423 0.000000 -0.899999
v -0.841423 1.000000 -0.899999
v 0.999999 1.050000 -0.599999
v 0.999999 1.000000 -0.649999
v 0.999999 1.200000 -0.649999
v 0.999999 1.150000 -0.599999
v 0.999999 1.000000 -0.949999
v 0.999999 1.050000 -0.999999
v 0.999999 1.150000 -0.999999
v 0.999999 1.200000 -0.949999
v -1.000001 1.050000 -0.999999
v -1.000001 1.000000 -0.949999
v -1.000001 1.000000 -0.649999
v -1.000001 1.050000 -0.599999
v -1.000001 1.150000 -0.599999
v -1.000001 1.200000 -0.649999
v -1.000001 1.200000 -0.949999
v -1.000001 1.150000 -0.999999
v 0.999999 0.450000 -0.599999
v 0.999999 0.400000 -0.649999
v 0.999999 0.600000 -0.649999
v 0.999999 0.550000 -0.599999
v 0.999999 0.400000 -0.949999
v 0.999999 0.450000 -0.999999
v 0.999999 0.550000 -0.999999
v 0.999999 0.600000 -0.949999
v -1.000001 0.450000 -0.999999
v -1.000001 0.400000 -0.949999
v -1.000001 0.400000 -0.649999
v -1.000001 0.450000 -0.599999
v -1.000001 0.550000 -0.599999
v -1.000001 0.600000 -0.649999
v -1.000001 0.600000 -0.949999
v -1.000001 0.550000 -0.999999
vt 0.320240 0.898486
vt 0.320240 0.974724
vt 0.322445 0.974724
vt 0.322445 0.898486
vt 0.322445 0.974725
vt 0.322445 0.898486
vt 0.320240 0.974725
vt 0.320240 0.898486
vt 0.317121 0.974725
vt 0.317121 0.898486
vt 0.314916 0.974725
vt 0.314916 0.898486
vt 0.314916 0.974724
vt 0.314916 0.898486
vt 0.317121 0.974724
vt 0.317121 0.898486
vt 0.291257 0.898486
vt 0.291257 0.974724
vt 0.293462 0.974724
vt 0.293462 0.898486
vt 0.293462 0.974725
vt 0.293462 0.898486
vt 0.291257 0.974725
vt 0.291257 0.898486
vt 0.288138 0.974725
vt 0.288138 0.898486
vt 0.285933 0.974725
vt 0.285933 0.898486
vt 0.285933 0.974724
vt 0.285933 0.898486
vt 0.288138 0.974724
vt 0.288138 0.898486
vt 0.224586 0.164028
vt 0.224586 0.149997
vt 0.149295 0.149997
vt 0.149295 0.164028
vt 0.224586 0.202294
vt 0.224586 0.202294
vt 0.149295 0.202294
vt 0.149295 0.202294
vt 0.149295 0.195278
vt 0.149295 0.195278
vt 0.224586 0.111732
vt 0.224586 0.111732
vt 0.149295 0.111732
vt 0.149295 0.111732
vt 0.224586 0.149997
vt 0.224586 0.164028
vt 0.149295 0.164028
vt 0.149295 0.149997
vt 0.224586 0.195278
vt 0.224586 0.195278
vt 0.224586 0.118747
vt 0.149295 0.118747
vt 0.149295 0.118747
vt 0.224586 0.118747
vt 0.224586 0.164028
vt 0.224586 0.149997
vt 0.149295 0.149997
vt 0.149295 0.164028
vt 0.224586 0.202294
vt 0.224586 0.202294
vt 0.149295 0.202294
vt 0.149295 0.202294
vt 0.149295 0.195278
vt 0.149295 0.195278
vt 0.224586 0.111732
vt 0.224586 0.111732
vt 0.149295 0.111732
vt 0.149295 0.111732
vt 0.224586 0.149997
vt 0.224586 0.164028
vt 0.149295 0.164028
vt 0.149295 0.149997
vt 0.224586 0.195278
vt 0.224586 0.195278
vt 0.224586 0.118747
vt 0.149295 0.118747
vt 0.149295 0.118747
vt 0.224586 0.118747
vn 0.3827 0.0000 -0.9239
vn 0.9239 0.0000 -0.3827
vn 0.9239 0.0000 0.3827
vn 0.3827 0.0000 0.9239
vn -0.3827 0.0000 0.9239
vn -0.9239 0.0000 0.3827
vn -0.9239 0.0000 -0.3827
vn -0.3827 0.0000 -0.9239
vn 0.0000 -1.0000 0.0000
vn 0.0000 0.3827 -0.9239
vn 0.0000 -0.3827 -0.9239
vn 0.0000 0.9239 0.3827
vn 0.0000 0.9239 -0.3827
vn -1.0000 0.0000 0.0000
vn 0.0000 -0.9239 -0.3827
vn 0.0000 -0.9239 0.3827
vn 0.0000 -0.3827 0.9239
vn 0.0000 0.3827 0.9239
vn 1.0000 0.0000 0.0000
usemtl platformer
s 1
f 1/1/1 2/2/1 4/3/2 3/4/2
f 3/4/2 4/3/2 6/5/3 5/6/3
f 5/6/3 6/5/3 8/7/4 7/8/4
f 7/8/4 8/7/4 10/9/5 9/10/5
f 9/10/5 10/9/5 12/11/6 11/12/6
f 11/12/6 12/11/6 14/13/7 13/14/7
f 13/14/7 14/13/7 16/15/8 15/16/8
f 15/16/8 16/15/8 2/2/1 1/1/1
f 1/1/9 3/4/9 5/6/9 7/8/9 9/10/9 11/12/9 13/14/9 15/16/9
f 17/17/1 18/18/1 20/19/2 19/20/2
f 19/20/2 20/19/2 22/21/3 21/22/3
f 21/22/3 22/21/3 24/23/4 23/24/4
f 23/24/4 24/23/4 26/25/5 25/26/5
f 25/26/5 26/25/5 28/27/6 27/28/6
f 27/28/6 28/27/6 30/29/7 29/30/7
f 29/30/7 30/29/7 32/31/8 31/32/8
f 31/32/8 32/31/8 18/18/1 17/17/1
f 17/17/9 19/20/9 21/22/9 23/24/9 25/26/9 27/28/9 29/30/9 31/32/9
f 39/33/10 38/34/11 41/35/11 48/36/10
f 35/37/12 40/38/13 47/39/13 46/40/12
f 48/41/14 45/42/14 46/40/14 47/39/14
f 37/43/15 34/44/16 43/45/16 42/46/15
f 33/47/17 36/48/18 45/49/18 44/50/17
f 39/51/10 48/41/10 47/39/13 40/38/13
f 45/42/18 36/52/18 35/37/12 46/40/12
f 33/53/17 44/54/17 43/45/16 34/44/16
f 41/55/11 38/56/11 37/43/15 42/46/15
f 36/52/19 39/51/19 40/38/19 35/37/19
f 38/34/19 39/33/19 36/48/19 33/47/19
f 37/43/19 38/56/19 33/53/19 34/44/19
f 44/50/14 45/49/14 48/36/14 41/35/14
f 43/45/14 44/54/14 41/55/14 42/46/14
f 55/57/10 54/58/11 57/59/11 64/60/10
f 51/61/12 56/62/13 63/63/13 62/64/12
f 64/65/14 61/66/14 62/64/14 63/63/14
f 53/67/15 50/68/16 59/69/16 58/70/15
f 49/71/17 52/72/18 61/73/18 60/74/17
f 55/75/10 64/65/10 63/63/13 56/62/13
f 61/66/18 52/76/18 51/61/12 62/64/12
f 49/77/17 60/78/17 59/69/16 50/68/16
f 57/79/11 54/80/11 53/67/15 58/70/15
f 52/76/19 55/75/19 56/62/19 51/61/19
f 54/58/19 55/57/19 52/72/19 49/71/19
f 53/67/19 54/80/19 49/77/19 50/68/19
f 60/74/14 61/73/14 64/60/14 57/59/14
f 59/69/14 60/78/14 57/79/14 58/70/14
