# Blender v3.4.1 OBJ File: 'Platformer_Pack_Export_FREE.blend'
# www.blender.org
mtllib barrier_3x1x2.mtl
o barrier_3x1x2
v 1.300000 0.800000 0.500000
v -1.441421 0.941421 0.300000
v -1.300000 0.941421 0.441421
v -1.415470 0.915470 0.415470
v -1.441421 0.800000 0.441421
v -1.300000 0.800000 0.500000
v -1.500000 0.800000 0.300000
v -1.500000 1.800000 0.300000
v -1.300000 1.800000 0.500000
v -1.300000 2.000000 0.300000
v -1.441422 1.800000 0.441421
v -1.415470 1.915470 0.415470
v -1.300000 1.941421 0.441421
v -1.441422 1.941421 0.300000
v 1.300000 1.800000 0.500000
v 1.500000 1.800000 0.300000
v 1.300000 2.000000 0.300000
v 1.441421 1.800000 0.441421
v 1.415470 1.915470 0.415470
v 1.441421 1.941422 0.300000
v 1.300000 1.941422 0.441421
v -1.500000 1.800000 -0.300000
v -1.300000 2.000000 -0.300000
v -1.300000 1.800000 -0.500000
v -1.441422 1.941421 -0.300000
v -1.415470 1.915470 -0.415470
v -1.300000 1.941421 -0.441421
v -1.441422 1.800000 -0.441421
v 1.500000 1.800000 -0.300000
v 1.300000 1.800000 -0.500000
v 1.300000 2.000000 -0.300000
v 1.441421 1.800000 -0.441422
v 1.415470 1.915470 -0.415470
v 1.299999 1.941422 -0.441422
v 1.441421 1.941422 -0.300000
v -1.500000 1.200000 0.300000
v -1.300000 1.000000 0.300000
v -1.300000 1.200000 0.500000
v -1.441421 1.058579 0.300000
v -1.415470 1.084530 0.415470
v -1.300000 1.058579 0.441421
v -1.441421 1.200000 0.441421
v 1.500000 1.200000 0.300000
v 1.300000 1.200000 0.500000
v 1.441421 1.200000 0.441421
v 1.415470 1.084530 0.415470
v 1.300000 1.058579 0.441421
v 1.441421 1.058579 0.300000
v -1.500000 1.200000 -0.300000
v -1.300000 1.200000 -0.500000
v -1.441422 1.200000 -0.441421
v -1.415470 1.084530 -0.415470
v -1.300000 1.058579 -0.441421
v -1.441421 1.058579 -0.300000
v 1.500000 1.200000 -0.300000
v 1.300000 1.000000 -0.300000
v 1.300000 1.200000 -0.500000
v 1.441421 1.058579 -0.300000
v 1.415470 1.084530 -0.415470
v 1.300000 1.058579 -0.441422
v 1.441421 1.200000 -0.441422
v 1.500000 0.800000 0.300000
v 1.300000 1.000000 0.300000
v 1.441422 0.800000 0.441421
v 1.415470 0.915470 0.415470
v 1.441421 0.941422 0.300000
v 1.300000 0.941422 0.441421
v -1.500000 0.800000 -0.300000
v -1.300000 1.000000 -0.300000
v -1.300000 0.800000 -0.500000
v -1.441421 0.941421 -0.300000
v -1.415470 0.915470 -0.415470
v -1.300000 0.941421 -0.441421
v -1.441421 0.800000 -0.441421
v 1.500000 0.800000 -0.300000
v 1.300000 0.800000 -0.500000
v 1.441421 0.800000 -0.441422
v 1.415470 0.915470 -0.415470
v 1.300000 0.941422 -0.441422
v 1.441421 0.941422 -0.300000
v -1.500000 0.200000 0.300000
v -1.300000 0.200000 0.500000
v -1.441421 0.058579 0.300000
v -1.415470 0.084530 0.415470
v -1.300000 0.058579 0.441421
v -1.441421 0.200000 0.441421
v 1.500000 0.200000 0.300000
v 1.300000 0.200000 0.500000
v 1.441422 0.200000 0.441421
v 1.415470 0.084530 0.415470
v 1.300000 0.058579 0.441421
v 1.441422 0.058579 0.300000
v -1.500000 0.200000 -0.300000
v -1.300000 0.200000 -0.500000
v -1.441421 0.200000 -0.441421
v -1.415470 0.084530 -0.415470
v -1.300000 0.058579 -0.441421
v -1.441421 0.058579 -0.300000
v 1.500000 0.200000 -0.300000
v 1.300000 0.200000 -0.500000
v 1.441422 0.058579 -0.300000
v 1.415470 0.084530 -0.415470
v 1.300000 0.058579 -0.441422
v 1.441422 0.200000 -0.441422
v -1.300000 0.000000 0.300000
v 1.300000 0.000000 0.300000
v -1.300000 0.000000 -0.300000
v 1.300000 0.000000 -0.300000
vt 0.153943 0.919997
vt 0.221057 0.919997
vt 0.221057 0.926870
vt 0.153943 0.926870
vt 0.153943 0.885630
vt 0.221057 0.885630
vt 0.221057 0.892503
vt 0.153943 0.892503
vt 0.224786 0.919997
vt 0.224786 0.926870
vt 0.224786 0.926870
vt 0.224786 0.919997
vt 0.153943 0.978918
vt 0.221057 0.978918
vt 0.221057 0.978918
vt 0.153943 0.978918
vt 0.153943 0.926870
vt 0.221057 0.926870
vt 0.221057 0.919997
vt 0.153943 0.919997
vt 0.150214 0.926870
vt 0.151307 0.926870
vt 0.151790 0.960341
vt 0.151307 0.962125
vt 0.153943 0.962125
vt 0.151307 0.974892
vt 0.151790 0.973108
vt 0.153943 0.974892
vt 0.223694 0.926870
vt 0.223210 0.960341
vt 0.221057 0.962125
vt 0.223694 0.962125
vt 0.221057 0.974892
vt 0.223210 0.973108
vt 0.223694 0.974892
vt 0.150214 0.926870
vt 0.151307 0.962125
vt 0.151790 0.960341
vt 0.151307 0.926870
vt 0.153943 0.974892
vt 0.151790 0.973108
vt 0.151307 0.974892
vt 0.153943 0.962125
vt 0.223694 0.926870
vt 0.223210 0.960341
vt 0.223694 0.962125
vt 0.221057 0.962125
vt 0.223694 0.974892
vt 0.223210 0.973108
vt 0.221057 0.974892
vt 0.150214 0.919997
vt 0.151307 0.884742
vt 0.151790 0.886526
vt 0.151307 0.919997
vt 0.153943 0.867949
vt 0.153943 0.871975
vt 0.151790 0.873759
vt 0.151307 0.871975
vt 0.153943 0.884742
vt 0.223694 0.919997
vt 0.223210 0.886526
vt 0.223694 0.884742
vt 0.221057 0.884742
vt 0.221057 0.867949
vt 0.223694 0.871975
vt 0.223210 0.873759
vt 0.221057 0.871975
vt 0.150214 0.919997
vt 0.151307 0.919997
vt 0.151790 0.886526
vt 0.151307 0.884742
vt 0.153943 0.884742
vt 0.153943 0.867949
vt 0.151307 0.871975
vt 0.151790 0.873759
vt 0.153943 0.871975
vt 0.223694 0.884742
vt 0.223210 0.886526
vt 0.223694 0.919997
vt 0.221057 0.867949
vt 0.221057 0.871975
vt 0.223210 0.873759
vt 0.223694 0.871975
vt 0.221057 0.884742
vt 0.224786 0.885630
vt 0.224786 0.892503
vt 0.224786 0.892503
vt 0.224786 0.885630
vt 0.153943 0.892503
vt 0.221057 0.892503
vt 0.221057 0.885630
vt 0.153943 0.885630
vt 0.150214 0.892503
vt 0.151307 0.892503
vt 0.151790 0.925974
vt 0.151307 0.927758
vt 0.153943 0.927758
vt 0.153943 0.944551
vt 0.151307 0.940525
vt 0.151790 0.938741
vt 0.153943 0.940525
vt 0.223694 0.892503
vt 0.223210 0.925974
vt 0.221057 0.927758
vt 0.223694 0.927758
vt 0.221057 0.944551
vt 0.221057 0.940525
vt 0.223210 0.938741
vt 0.223694 0.940525
vt 0.150214 0.892503
vt 0.151307 0.927758
vt 0.151790 0.925974
vt 0.151307 0.892503
vt 0.153943 0.944551
vt 0.153943 0.940525
vt 0.151790 0.938741
vt 0.151307 0.940525
vt 0.153943 0.927758
vt 0.223694 0.892503
vt 0.223210 0.925974
vt 0.223694 0.927758
vt 0.221057 0.927758
vt 0.221057 0.944551
vt 0.223694 0.940525
vt 0.223210 0.938741
vt 0.221057 0.940525
vt 0.150214 0.885630
vt 0.151307 0.850375
vt 0.151790 0.852159
vt 0.151307 0.885630
vt 0.153943 0.833582
vt 0.153943 0.837608
vt 0.151790 0.839392
vt 0.151307 0.837608
vt 0.153943 0.850375
vt 0.223694 0.885630
vt 0.223210 0.852159
vt 0.223694 0.850375
vt 0.221057 0.850375
vt 0.221057 0.833582
vt 0.223694 0.837608
vt 0.223210 0.839392
vt 0.221057 0.837608
vt 0.150214 0.885630
vt 0.151307 0.885630
vt 0.151790 0.852159
vt 0.151307 0.850375
vt 0.153943 0.850375
vt 0.153943 0.833582
vt 0.151307 0.837608
vt 0.151790 0.839392
vt 0.153943 0.837608
vt 0.223694 0.850375
vt 0.223210 0.852159
vt 0.223694 0.885630
vt 0.221057 0.833582
vt 0.221057 0.837608
vt 0.223210 0.839392
vt 0.223694 0.837608
vt 0.221057 0.850375
vn -0.1794 -0.1794 0.9673
vn 0.1794 -0.1794 0.9673
vn 0.1794 0.1794 0.9673
vn -0.1794 0.1794 0.9673
vn 0.9673 -0.1794 -0.1794
vn 0.9673 0.1794 -0.1794
vn 0.9673 0.1794 0.1794
vn 0.9673 -0.1794 0.1794
vn -0.1794 0.9673 0.1794
vn 0.1794 0.9673 0.1794
vn 0.1794 0.9673 -0.1794
vn -0.1794 0.9673 -0.1794
vn -0.1794 0.1794 -0.9673
vn 0.1794 0.1794 -0.9673
vn 0.1794 -0.1794 -0.9673
vn -0.1794 -0.1794 -0.9673
vn -0.9673 0.1794 0.1794
vn -0.9194 0.1585 0.3600
vn -0.8881 0.3251 0.3251
vn -0.9194 0.3600 0.1585
vn -0.1585 0.3600 0.9194
vn -0.3251 0.3251 0.8881
vn -0.3600 0.1585 0.9194
vn -0.3600 0.9194 0.1585
vn -0.3251 0.8881 0.3251
vn -0.1585 0.9194 0.3600
vn 0.6965 0.1726 0.6965
vn 0.3251 0.3251 0.8881
vn 0.1585 0.3600 0.9194
vn 0.9194 0.3600 0.1585
vn 0.8881 0.3251 0.3251
vn 0.1585 0.9194 0.3600
vn 0.3251 0.8881 0.3251
vn 0.3600 0.9194 0.1585
vn -0.9673 0.1794 -0.1794
vn -0.9194 0.3600 -0.1585
vn -0.8881 0.3251 -0.3251
vn -0.9194 0.1585 -0.3600
vn -0.1585 0.9194 -0.3600
vn -0.3251 0.8881 -0.3251
vn -0.3600 0.9194 -0.1585
vn -0.3600 0.1585 -0.9194
vn -0.3251 0.3251 -0.8881
vn -0.1585 0.3600 -0.9194
vn 0.6965 0.1726 -0.6965
vn 0.8881 0.3251 -0.3251
vn 0.9194 0.3600 -0.1585
vn 0.1585 0.3600 -0.9194
vn 0.3251 0.3251 -0.8881
vn 0.3600 0.9194 -0.1585
vn 0.3251 0.8881 -0.3251
vn 0.1585 0.9194 -0.3600
vn -0.9673 -0.1794 0.1794
vn -0.6965 -0.6965 0.1726
vn -0.8881 -0.3251 0.3251
vn -0.9194 -0.1585 0.3600
vn -0.2402 -0.9406 0.2402
vn -0.1726 -0.6965 0.6965
vn -0.3251 -0.8881 0.3251
vn -0.3600 -0.1585 0.9194
vn -0.3251 -0.3251 0.8881
vn 0.6965 -0.1726 0.6965
vn 0.8881 -0.3251 0.3251
vn 0.9194 -0.3600 0.1585
vn 0.1726 -0.6965 0.6965
vn 0.3251 -0.3251 0.8881
vn 0.2402 -0.9406 0.2402
vn 0.3600 -0.9194 0.1585
vn 0.3251 -0.8881 0.3251
vn -0.9673 -0.1794 -0.1794
vn -0.9194 -0.1585 -0.3600
vn -0.8881 -0.3251 -0.3251
vn -0.6965 -0.6965 -0.1726
vn -0.1585 -0.3600 -0.9194
vn -0.3251 -0.3251 -0.8881
vn -0.3600 -0.1585 -0.9194
vn -0.2402 -0.9406 -0.2402
vn -0.3251 -0.8881 -0.3251
vn -0.1585 -0.9194 -0.3600
vn 0.9194 -0.3600 -0.1585
vn 0.8881 -0.3251 -0.3251
vn 0.6965 -0.1726 -0.6965
vn 0.2402 -0.9406 -0.2402
vn 0.1585 -0.9194 -0.3600
vn 0.3251 -0.8881 -0.3251
vn 0.3600 -0.9194 -0.1585
vn 0.3251 -0.3251 -0.8881
vn 0.1585 -0.3600 -0.9194
vn -0.6965 0.1726 0.6965
vn -0.6965 0.6965 0.1726
vn -0.2402 0.9406 0.2402
vn 0.3600 0.1585 0.9194
vn 0.6965 0.6965 0.1726
vn 0.9194 0.1585 0.3600
vn 0.2402 0.9406 0.2402
vn -0.6965 0.6965 -0.1726
vn -0.6965 0.1726 -0.6965
vn -0.2402 0.9406 -0.2402
vn 0.6965 0.6965 -0.1726
vn 0.2402 0.9406 -0.2402
vn -0.6965 -0.1726 0.6965
vn -0.1794 -0.9673 0.1794
vn -0.1585 -0.9194 0.3600
vn -0.1585 -0.3600 0.9194
vn 0.9194 -0.1585 0.3600
vn 0.6965 -0.6965 0.1726
vn 0.1585 -0.3600 0.9194
vn 0.3600 -0.1585 0.9194
vn 0.1794 -0.9673 0.1794
vn 0.1585 -0.9194 0.3600
vn -0.6965 -0.1726 -0.6965
vn -0.1794 -0.9673 -0.1794
vn 0.6965 -0.6965 -0.1726
vn 0.1794 -0.9673 -0.1794
usemtl platformer
s 1
f 38/1/1 44/2/2 15/3/3 9/4/4
f 82/5/1 88/6/2 1/7/3 6/8/4
f 55/9/5 29/10/6 16/11/7 43/12/8
f 10/13/9 17/14/10 31/15/11 23/16/12
f 24/17/13 30/18/14 57/19/15 50/20/16
f 8/21/17 11/22/18 12/23/19 14/24/20
f 9/4/4 13/25/21 12/23/22 11/22/23
f 10/13/9 14/26/24 12/27/25 13/28/26
f 15/3/3 18/29/27 19/30/28 21/31/29
f 16/11/7 20/32/30 19/30/31 18/29/27
f 17/14/10 21/33/32 19/34/33 20/35/34
f 22/36/35 25/37/36 26/38/37 28/39/38
f 23/16/12 27/40/39 26/41/40 25/42/41
f 24/17/13 28/39/42 26/38/43 27/43/44
f 29/10/6 32/44/45 33/45/46 35/46/47
f 30/18/14 34/47/48 33/45/49 32/44/45
f 31/15/11 35/48/50 33/49/51 34/50/52
f 36/51/53 39/52/54 40/53/55 42/54/56
f 37/55/57 41/56/58 40/57/59 39/58/54
f 38/1/1 42/54/60 40/53/61 41/59/58
f 43/12/8 45/60/62 46/61/63 48/62/64
f 44/2/2 47/63/65 46/61/66 45/60/62
f 63/64/67 48/65/68 46/66/69 47/67/65
f 49/68/70 51/69/71 52/70/72 54/71/73
f 50/20/16 53/72/74 52/70/75 51/69/76
f 69/73/77 54/74/73 52/75/78 53/76/79
f 55/9/5 58/77/80 59/78/81 61/79/82
f 56/80/83 60/81/84 59/82/85 58/83/86
f 57/19/15 61/79/82 59/78/87 60/84/88
f 22/36/35 8/21/17 14/24/20 25/37/36
f 25/42/41 14/26/24 10/13/9 23/16/12
f 9/4/4 15/3/3 21/31/29 13/25/21
f 13/28/26 21/33/32 17/14/10 10/13/9
f 16/11/7 29/10/6 35/46/47 20/32/30
f 20/35/34 35/48/50 31/15/11 17/14/10
f 30/18/14 24/17/13 27/43/44 34/47/48
f 34/50/52 27/40/39 23/16/12 31/15/11
f 49/68/70 22/36/35 28/39/38 51/69/71
f 51/69/76 28/39/42 24/17/13 50/20/16
f 29/10/6 55/9/5 61/79/82 32/44/45
f 32/44/45 61/79/82 57/19/15 30/18/14
f 56/80/83 69/73/77 53/76/79 60/81/84
f 60/84/88 53/72/74 50/20/16 57/19/15
f 36/51/53 49/68/70 54/71/73 39/52/54
f 39/58/54 54/74/73 69/73/77 37/55/57
f 55/9/5 43/12/8 48/62/64 58/77/80
f 58/83/86 48/65/68 63/64/67 56/80/83
f 44/2/2 38/1/1 41/59/58 47/63/65
f 47/67/65 41/56/58 37/55/57 63/64/67
f 8/21/17 36/51/53 42/54/56 11/22/18
f 11/22/23 42/54/60 38/1/1 9/4/4
f 43/12/8 16/11/7 18/29/27 45/60/62
f 45/60/62 18/29/27 15/3/3 44/2/2
f 22/36/35 49/68/70 36/51/53 8/21/17
f 99/85/5 75/86/6 62/87/7 87/88/8
f 70/89/13 76/90/14 100/91/15 94/92/16
f 7/93/17 5/94/89 4/95/19 2/96/90
f 6/8/4 3/97/21 4/95/22 5/94/89
f 37/98/91 2/99/90 4/100/25 3/101/26
f 1/7/3 64/102/92 65/103/28 67/104/29
f 62/87/7 66/105/93 65/103/31 64/102/94
f 63/106/95 67/107/32 65/108/33 66/109/93
f 68/110/35 71/111/96 72/112/37 74/113/97
f 69/114/98 73/115/39 72/116/40 71/117/96
f 70/89/13 74/113/97 72/112/43 73/118/44
f 75/86/6 77/119/45 78/120/46 80/121/99
f 76/90/14 79/122/48 78/120/49 77/119/45
f 56/123/100 80/124/99 78/125/51 79/126/52
f 81/127/53 83/128/54 84/129/55 86/130/101
f 105/131/102 85/132/103 84/133/59 83/134/54
f 82/5/1 86/130/101 84/129/61 85/135/104
f 87/88/8 89/136/105 90/137/63 92/138/106
f 88/6/2 91/139/107 90/137/66 89/136/108
f 106/140/109 92/141/106 90/142/69 91/143/110
f 93/144/70 95/145/111 96/146/72 98/147/73
f 94/92/16 97/148/74 96/146/75 95/145/111
f 107/149/112 98/150/73 96/151/78 97/152/79
f 99/85/5 101/153/113 102/154/81 104/155/82
f 108/156/114 103/157/84 102/158/85 101/159/113
f 100/91/15 104/155/82 102/154/87 103/160/88
f 68/110/35 7/93/17 2/96/90 71/111/96
f 71/117/96 2/99/90 37/98/91 69/114/98
f 6/8/4 1/7/3 67/104/29 3/97/21
f 3/101/26 67/107/32 63/106/95 37/98/91
f 62/87/7 75/86/6 80/121/99 66/105/93
f 66/109/93 80/124/99 56/123/100 63/106/95
f 76/90/14 70/89/13 73/118/44 79/122/48
f 79/126/52 73/115/39 69/114/98 56/123/100
f 93/144/70 68/110/35 74/113/97 95/145/111
f 95/145/111 74/113/97 70/89/13 94/92/16
f 75/86/6 99/85/5 104/155/82 77/119/45
f 77/119/45 104/155/82 100/91/15 76/90/14
f 108/156/114 107/149/112 97/152/79 103/157/84
f 103/160/88 97/148/74 94/92/16 100/91/15
f 81/127/53 93/144/70 98/147/73 83/128/54
f 83/134/54 98/150/73 107/149/112 105/131/102
f 99/85/5 87/88/8 92/138/106 101/153/113
f 101/159/113 92/141/106 106/140/109 108/156/114
f 88/6/2 82/5/1 85/135/104 91/139/107
f 91/143/110 85/132/103 105/131/102 106/140/109
f 7/93/17 81/127/53 86/130/101 5/94/89
f 5/94/89 86/130/101 82/5/1 6/8/4
f 87/88/8 62/87/7 64/102/94 89/136/105
f 89/136/108 64/102/92 1/7/3 88/6/2
f 68/110/35 93/144/70 81/127/53 7/93/17
f 105/131/102 107/149/112 108/156/114 106/140/109
