# Blender v3.4.1 OBJ File: 'Platformer_Pack_Export_FREE.blend'
# www.blender.org
mtllib barrier_1x1x4.mtl
o barrier_1x1x4
v 0.300000 1.800000 0.500000
v -0.441421 1.941421 0.300000
v -0.300000 1.941421 0.441421
v -0.415470 1.915470 0.415470
v -0.441421 1.800000 0.441421
v -0.300000 1.800000 0.500000
v -0.500000 1.800000 0.300000
v -0.500000 3.800000 0.300000
v -0.300000 3.800000 0.500000
v -0.300000 4.000000 0.300000
v -0.441422 3.800000 0.441421
v -0.415470 3.915470 0.415470
v -0.300000 3.941422 0.441421
v -0.441422 3.941422 0.300000
v 0.300000 3.800000 0.500000
v 0.500000 3.800000 0.300000
v 0.300000 4.000000 0.300000
v 0.441421 3.800000 0.441421
v 0.415470 3.915470 0.415470
v 0.441421 3.941422 0.300000
v 0.300000 3.941422 0.441421
v -0.500000 3.800000 -0.300000
v -0.300000 4.000000 -0.300000
v -0.300000 3.800000 -0.500000
v -0.441422 3.941422 -0.300000
v -0.415470 3.915470 -0.415470
v -0.300000 3.941422 -0.441421
v -0.441422 3.800000 -0.441421
v 0.500000 3.800000 -0.300000
v 0.300000 3.800000 -0.500000
v 0.300000 4.000000 -0.300000
v 0.441421 3.800000 -0.441422
v 0.415470 3.915470 -0.415470
v 0.299999 3.941422 -0.441422
v 0.441421 3.941422 -0.300000
v -0.500000 2.200000 0.300000
v -0.300000 2.000000 0.300000
v -0.300000 2.200000 0.500000
v -0.441421 2.058578 0.300000
v -0.415470 2.084530 0.415470
v -0.300000 2.058579 0.441421
v -0.441421 2.200000 0.441421
v 0.500000 2.200000 0.300000
v 0.300000 2.200000 0.500000
v 0.441421 2.200000 0.441421
v 0.415470 2.084530 0.415470
v 0.300000 2.058579 0.441421
v 0.441421 2.058579 0.300000
v -0.500000 2.200000 -0.300000
v -0.300000 2.200000 -0.500000
v -0.441422 2.200000 -0.441421
v -0.415470 2.084530 -0.415470
v -0.300000 2.058579 -0.441421
v -0.441421 2.058578 -0.300000
v 0.500000 2.200000 -0.300000
v 0.300000 2.000000 -0.300000
v 0.300000 2.200000 -0.500000
v 0.441421 2.058579 -0.300000
v 0.415470 2.084530 -0.415470
v 0.300000 2.058579 -0.441422
v 0.441421 2.200000 -0.441422
v 0.500000 1.800000 0.300000
v 0.300000 2.000000 0.300000
v 0.441422 1.800000 0.441421
v 0.415470 1.915470 0.415470
v 0.441421 1.941422 0.300000
v 0.300000 1.941422 0.441421
v -0.500000 1.800000 -0.300000
v -0.300000 2.000000 -0.300000
v -0.300000 1.800000 -0.500000
v -0.441421 1.941421 -0.300000
v -0.415470 1.915470 -0.415470
v -0.300000 1.941421 -0.441421
v -0.441421 1.800000 -0.441421
v 0.500000 1.800000 -0.300000
v 0.300000 1.800000 -0.500000
v 0.441421 1.800000 -0.441422
v 0.415470 1.915470 -0.415470
v 0.300000 1.941422 -0.441422
v 0.441421 1.941422 -0.300000
v -0.500000 0.200000 0.300000
v -0.300000 0.200000 0.500000
v -0.441421 0.058579 0.300000
v -0.415470 0.084530 0.415470
v -0.300000 0.058579 0.441421
v -0.441421 0.200000 0.441421
v 0.500000 0.200000 0.300000
v 0.300000 0.200000 0.500000
v 0.441422 0.200000 0.441421
v 0.415470 0.084530 0.415470
v 0.300000 0.058579 0.441421
v 0.441422 0.058579 0.300000
v -0.500000 0.200000 -0.300000
v -0.300000 0.200000 -0.500000
v -0.441421 0.200000 -0.441421
v -0.415470 0.084530 -0.415470
v -0.300000 0.058579 -0.441421
v -0.441421 0.058579 -0.300000
v 0.500000 0.200000 -0.300000
v 0.300000 0.200000 -0.500000
v 0.441422 0.058579 -0.300000
v 0.415470 0.084530 -0.415470
v 0.300000 0.058579 -0.441422
v 0.441422 0.200000 -0.441422
v -0.300000 0.000000 0.300000
v 0.300000 0.000000 0.300000
v -0.300000 0.000000 -0.300000
v 0.300000 0.000000 -0.300000
vt 0.153943 0.919997
vt 0.221057 0.919997
vt 0.221057 0.926870
vt 0.153943 0.926870
vt 0.153943 0.885630
vt 0.221057 0.885630
vt 0.221057 0.892503
vt 0.153943 0.892503
vt 0.224786 0.919997
vt 0.224786 0.926870
vt 0.224786 0.926870
vt 0.224786 0.919997
vt 0.153943 0.978918
vt 0.221057 0.978918
vt 0.221057 0.978918
vt 0.153943 0.978918
vt 0.153943 0.926870
vt 0.221057 0.926870
vt 0.221057 0.919997
vt 0.153943 0.919997
vt 0.150214 0.926870
vt 0.151307 0.926870
vt 0.151790 0.960341
vt 0.151307 0.962125
vt 0.153943 0.962125
vt 0.151307 0.974892
vt 0.151790 0.973108
vt 0.153943 0.974892
vt 0.223694 0.926870
vt 0.223210 0.960341
vt 0.221057 0.962125
vt 0.223694 0.962125
vt 0.221057 0.974892
vt 0.223210 0.973108
vt 0.223694 0.974892
vt 0.150214 0.926870
vt 0.151307 0.962125
vt 0.151790 0.960341
vt 0.151307 0.926870
vt 0.153943 0.974892
vt 0.151790 0.973108
vt 0.151307 0.974892
vt 0.153943 0.962125
vt 0.223694 0.926870
vt 0.223210 0.960341
vt 0.223694 0.962125
vt 0.221057 0.962125
vt 0.223694 0.974892
vt 0.223210 0.973108
vt 0.221057 0.974892
vt 0.150214 0.919997
vt 0.151307 0.884742
vt 0.151790 0.886526
vt 0.151307 0.919997
vt 0.153943 0.867949
vt 0.153943 0.871975
vt 0.151790 0.873759
vt 0.151307 0.871975
vt 0.153943 0.884742
vt 0.223694 0.919997
vt 0.223210 0.886526
vt 0.223694 0.884742
vt 0.221057 0.884742
vt 0.221057 0.867949
vt 0.223694 0.871975
vt 0.223210 0.873759
vt 0.221057 0.871975
vt 0.150214 0.919997
vt 0.151307 0.919997
vt 0.151790 0.886526
vt 0.151307 0.884742
vt 0.153943 0.884742
vt 0.153943 0.867949
vt 0.151307 0.871975
vt 0.151790 0.873759
vt 0.153943 0.871975
vt 0.223694 0.884742
vt 0.223210 0.886526
vt 0.223694 0.919997
vt 0.221057 0.867949
vt 0.221057 0.871975
vt 0.223210 0.873759
vt 0.223694 0.871975
vt 0.221057 0.884742
vt 0.224786 0.885630
vt 0.224786 0.892503
vt 0.224786 0.892503
vt 0.224786 0.885630
vt 0.153943 0.892503
vt 0.221057 0.892503
vt 0.221057 0.885630
vt 0.153943 0.885630
vt 0.150214 0.892503
vt 0.151307 0.892503
vt 0.151790 0.925974
vt 0.151307 0.927758
vt 0.153943 0.927758
vt 0.153943 0.944551
vt 0.151307 0.940525
vt 0.151790 0.938741
vt 0.153943 0.940525
vt 0.223694 0.892503
vt 0.223210 0.925974
vt 0.221057 0.927758
vt 0.223694 0.927758
vt 0.221057 0.944551
vt 0.221057 0.940525
vt 0.223210 0.938741
vt 0.223694 0.940525
vt 0.150214 0.892503
vt 0.151307 0.927758
vt 0.151790 0.925974
vt 0.151307 0.892503
vt 0.153943 0.944551
vt 0.153943 0.940525
vt 0.151790 0.938741
vt 0.151307 0.940525
vt 0.153943 0.927758
vt 0.223694 0.892503
vt 0.223210 0.925974
vt 0.223694 0.927758
vt 0.221057 0.927758
vt 0.221057 0.944551
vt 0.223694 0.940525
vt 0.223210 0.938741
vt 0.221057 0.940525
vt 0.150214 0.885630
vt 0.151307 0.850375
vt 0.151790 0.852159
vt 0.151307 0.885630
vt 0.153943 0.833582
vt 0.153943 0.837608
vt 0.151790 0.839392
vt 0.151307 0.837608
vt 0.153943 0.850375
vt 0.223694 0.885630
vt 0.223210 0.852159
vt 0.223694 0.850375
vt 0.221057 0.850375
vt 0.221057 0.833582
vt 0.223694 0.837608
vt 0.223210 0.839392
vt 0.221057 0.837608
vt 0.150214 0.885630
vt 0.151307 0.885630
vt 0.151790 0.852159
vt 0.151307 0.850375
vt 0.153943 0.850375
vt 0.153943 0.833582
vt 0.151307 0.837608
vt 0.151790 0.839392
vt 0.153943 0.837608
vt 0.223694 0.850375
vt 0.223210 0.852159
vt 0.223694 0.885630
vt 0.221057 0.833582
vt 0.221057 0.837608
vt 0.223210 0.839392
vt 0.223694 0.837608
vt 0.221057 0.850375
vn -0.1794 -0.1794 0.9673
vn 0.1794 -0.1794 0.9673
vn 0.1794 0.1794 0.9673
vn -0.1794 0.1794 0.9673
vn 0.9673 -0.1794 -0.1794
vn 0.9673 0.1794 -0.1794
vn 0.9673 0.1794 0.1794
vn 0.9673 -0.1794 0.1794
vn -0.1794 0.9673 0.1794
vn 0.1794 0.9673 0.1794
vn 0.1794 0.9673 -0.1794
vn -0.1794 0.9673 -0.1794
vn -0.1794 0.1794 -0.9673
vn 0.1794 0.1794 -0.9673
vn 0.1794 -0.1794 -0.9673
vn -0.1794 -0.1794 -0.9673
vn -0.9673 0.1794 0.1794
vn -0.9194 0.1585 0.3600
vn -0.8881 0.3251 0.3251
vn -0.9194 0.3600 0.1585
vn -0.1726 0.6965 0.6965
vn -0.3251 0.3251 0.8881
vn -0.3600 0.1585 0.9194
vn -0.3600 0.9194 0.1585
vn -0.3251 0.8881 0.3251
vn 0.6965 0.1726 0.6965
vn 0.3251 0.3251 0.8881
vn 0.1726 0.6965 0.6965
vn 0.9194 0.3600 0.1585
vn 0.8881 0.3251 0.3251
vn 0.3251 0.8881 0.3251
vn 0.3600 0.9194 0.1585
vn -0.9673 0.1794 -0.1794
vn -0.9194 0.3600 -0.1585
vn -0.8881 0.3251 -0.3251
vn -0.9194 0.1585 -0.3600
vn -0.1726 0.6965 -0.6965
vn -0.3251 0.8881 -0.3251
vn -0.3600 0.9194 -0.1585
vn -0.3600 0.1585 -0.9194
vn -0.3251 0.3251 -0.8881
vn 0.9194 0.1585 -0.3600
vn 0.8881 0.3251 -0.3251
vn 0.9194 0.3600 -0.1585
vn 0.1726 0.6965 -0.6965
vn 0.3251 0.3251 -0.8881
vn 0.3600 0.1585 -0.9194
vn 0.3600 0.9194 -0.1585
vn 0.3251 0.8881 -0.3251
vn -0.9673 -0.1794 0.1794
vn -0.9194 -0.3600 0.1585
vn -0.8881 -0.3251 0.3251
vn -0.9194 -0.1585 0.3600
vn -0.2402 -0.9406 0.2402
vn -0.1585 -0.9194 0.3600
vn -0.3251 -0.8881 0.3251
vn -0.3600 -0.9194 0.1585
vn -0.3600 -0.1585 0.9194
vn -0.3251 -0.3251 0.8881
vn -0.1585 -0.3600 0.9194
vn 0.6965 -0.1726 0.6965
vn 0.8881 -0.3251 0.3251
vn 0.9194 -0.3600 0.1585
vn 0.1585 -0.3600 0.9194
vn 0.3251 -0.3251 0.8881
vn 0.2402 -0.9406 0.2402
vn 0.3600 -0.9194 0.1585
vn 0.3251 -0.8881 0.3251
vn 0.1585 -0.9194 0.3600
vn -0.9673 -0.1794 -0.1794
vn -0.9194 -0.1585 -0.3600
vn -0.8881 -0.3251 -0.3251
vn -0.9194 -0.3600 -0.1585
vn -0.1585 -0.3600 -0.9194
vn -0.3251 -0.3251 -0.8881
vn -0.3600 -0.1585 -0.9194
vn -0.2402 -0.9406 -0.2402
vn -0.3600 -0.9194 -0.1585
vn -0.3251 -0.8881 -0.3251
vn -0.1585 -0.9194 -0.3600
vn 0.9194 -0.3600 -0.1585
vn 0.8881 -0.3251 -0.3251
vn 0.9194 -0.1585 -0.3600
vn 0.2402 -0.9406 -0.2402
vn 0.1585 -0.9194 -0.3600
vn 0.3251 -0.8881 -0.3251
vn 0.3600 -0.9194 -0.1585
vn 0.3600 -0.1585 -0.9194
vn 0.3251 -0.3251 -0.8881
vn 0.1585 -0.3600 -0.9194
vn -0.6965 0.1726 0.6965
vn -0.1585 0.3600 0.9194
vn -0.2402 0.9406 0.2402
vn -0.1585 0.9194 0.3600
vn 0.3600 0.1585 0.9194
vn 0.1585 0.3600 0.9194
vn 0.6965 0.6965 0.1726
vn 0.9194 0.1585 0.3600
vn 0.2402 0.9406 0.2402
vn 0.1585 0.9194 0.3600
vn -0.6965 0.1726 -0.6965
vn -0.2402 0.9406 -0.2402
vn -0.1585 0.9194 -0.3600
vn -0.1585 0.3600 -0.9194
vn 0.6965 0.1726 -0.6965
vn 0.6965 0.6965 -0.1726
vn 0.1585 0.3600 -0.9194
vn 0.2402 0.9406 -0.2402
vn 0.1585 0.9194 -0.3600
vn -0.6965 -0.6965 0.1726
vn -0.6965 -0.1726 0.6965
vn -0.1794 -0.9673 0.1794
vn 0.9194 -0.1585 0.3600
vn 0.6965 -0.6965 0.1726
vn 0.3600 -0.1585 0.9194
vn 0.1794 -0.9673 0.1794
vn -0.6965 -0.1726 -0.6965
vn -0.6965 -0.6965 -0.1726
vn -0.1794 -0.9673 -0.1794
vn 0.6965 -0.6965 -0.1726
vn 0.6965 -0.1726 -0.6965
vn 0.1794 -0.9673 -0.1794
usemtl platformer
s 1
f 38/1/1 44/2/2 15/3/3 9/4/4
f 82/5/1 88/6/2 1/7/3 6/8/4
f 55/9/5 29/10/6 16/11/7 43/12/8
f 10/13/9 17/14/10 31/15/11 23/16/12
f 24/17/13 30/18/14 57/19/15 50/20/16
f 8/21/17 11/22/18 12/23/19 14/24/20
f 9/4/4 13/25/21 12/23/22 11/22/23
f 10/13/9 14/26/24 12/27/25 13/28/21
f 15/3/3 18/29/26 19/30/27 21/31/28
f 16/11/7 20/32/29 19/30/30 18/29/26
f 17/14/10 21/33/28 19/34/31 20/35/32
f 22/36/33 25/37/34 26/38/35 28/39/36
f 23/16/12 27/40/37 26/41/38 25/42/39
f 24/17/13 28/39/40 26/38/41 27/43/37
f 29/10/6 32/44/42 33/45/43 35/46/44
f 30/18/14 34/47/45 33/45/46 32/44/47
f 31/15/11 35/48/48 33/49/49 34/50/45
f 36/51/50 39/52/51 40/53/52 42/54/53
f 37/55/54 41/56/55 40/57/56 39/58/57
f 38/1/1 42/54/58 40/53/59 41/59/60
f 43/12/8 45/60/61 46/61/62 48/62/63
f 44/2/2 47/63/64 46/61/65 45/60/61
f 63/64/66 48/65/67 46/66/68 47/67/69
f 49/68/70 51/69/71 52/70/72 54/71/73
f 50/20/16 53/72/74 52/70/75 51/69/76
f 69/73/77 54/74/78 52/75/79 53/76/80
f 55/9/5 58/77/81 59/78/82 61/79/83
f 56/80/84 60/81/85 59/82/86 58/83/87
f 57/19/15 61/79/88 59/78/89 60/84/90
f 22/36/33 8/21/17 14/24/20 25/37/34
f 25/42/39 14/26/24 10/13/9 23/16/12
f 9/4/4 15/3/3 21/31/28 13/25/21
f 13/28/21 21/33/28 17/14/10 10/13/9
f 16/11/7 29/10/6 35/46/44 20/32/29
f 20/35/32 35/48/48 31/15/11 17/14/10
f 30/18/14 24/17/13 27/43/37 34/47/45
f 34/50/45 27/40/37 23/16/12 31/15/11
f 49/68/70 22/36/33 28/39/36 51/69/71
f 51/69/76 28/39/40 24/17/13 50/20/16
f 29/10/6 55/9/5 61/79/83 32/44/42
f 32/44/47 61/79/88 57/19/15 30/18/14
f 56/80/84 69/73/77 53/76/80 60/81/85
f 60/84/90 53/72/74 50/20/16 57/19/15
f 36/51/50 49/68/70 54/71/73 39/52/51
f 39/58/57 54/74/78 69/73/77 37/55/54
f 55/9/5 43/12/8 48/62/63 58/77/81
f 58/83/87 48/65/67 63/64/66 56/80/84
f 44/2/2 38/1/1 41/59/60 47/63/64
f 47/67/69 41/56/55 37/55/54 63/64/66
f 8/21/17 36/51/50 42/54/53 11/22/18
f 11/22/23 42/54/58 38/1/1 9/4/4
f 43/12/8 16/11/7 18/29/26 45/60/61
f 45/60/61 18/29/26 15/3/3 44/2/2
f 22/36/33 49/68/70 36/51/50 8/21/17
f 99/85/5 75/86/6 62/87/7 87/88/8
f 70/89/13 76/90/14 100/91/15 94/92/16
f 7/93/17 5/94/91 4/95/19 2/96/20
f 6/8/4 3/97/92 4/95/22 5/94/91
f 37/98/93 2/99/24 4/100/25 3/101/94
f 1/7/3 64/102/95 65/103/27 67/104/96
f 62/87/7 66/105/97 65/103/30 64/102/98
f 63/106/99 67/107/100 65/108/31 66/109/97
f 68/110/33 71/111/34 72/112/35 74/113/101
f 69/114/102 73/115/103 72/116/38 71/117/39
f 70/89/13 74/113/101 72/112/41 73/118/104
f 75/86/6 77/119/105 78/120/43 80/121/106
f 76/90/14 79/122/107 78/120/46 77/119/105
f 56/123/108 80/124/106 78/125/49 79/126/109
f 81/127/50 83/128/110 84/129/52 86/130/111
f 105/131/112 85/132/55 84/133/56 83/134/110
f 82/5/1 86/130/111 84/129/59 85/135/60
f 87/88/8 89/136/113 90/137/62 92/138/114
f 88/6/2 91/139/64 90/137/65 89/136/115
f 106/140/116 92/141/114 90/142/68 91/143/69
f 93/144/70 95/145/117 96/146/72 98/147/118
f 94/92/16 97/148/74 96/146/75 95/145/117
f 107/149/119 98/150/118 96/151/79 97/152/80
f 99/85/5 101/153/120 102/154/82 104/155/121
f 108/156/122 103/157/85 102/158/86 101/159/120
f 100/91/15 104/155/121 102/154/89 103/160/90
f 68/110/33 7/93/17 2/96/20 71/111/34
f 71/117/39 2/99/24 37/98/93 69/114/102
f 6/8/4 1/7/3 67/104/96 3/97/92
f 3/101/94 67/107/100 63/106/99 37/98/93
f 62/87/7 75/86/6 80/121/106 66/105/97
f 66/109/97 80/124/106 56/123/108 63/106/99
f 76/90/14 70/89/13 73/118/104 79/122/107
f 79/126/109 73/115/103 69/114/102 56/123/108
f 93/144/70 68/110/33 74/113/101 95/145/117
f 95/145/117 74/113/101 70/89/13 94/92/16
f 75/86/6 99/85/5 104/155/121 77/119/105
f 77/119/105 104/155/121 100/91/15 76/90/14
f 108/156/122 107/149/119 97/152/80 103/157/85
f 103/160/90 97/148/74 94/92/16 100/91/15
f 81/127/50 93/144/70 98/147/118 83/128/110
f 83/134/110 98/150/118 107/149/119 105/131/112
f 99/85/5 87/88/8 92/138/114 101/153/120
f 101/159/120 92/141/114 106/140/116 108/156/122
f 88/6/2 82/5/1 85/135/60 91/139/64
f 91/143/69 85/132/55 105/131/112 106/140/116
f 7/93/17 81/127/50 86/130/111 5/94/91
f 5/94/91 86/130/111 82/5/1 6/8/4
f 87/88/8 62/87/7 64/102/98 89/136/113
f 89/136/115 64/102/95 1/7/3 88/6/2
f 68/110/33 93/144/70 81/127/50 7/93/17
f 105/131/112 107/149/119 108/156/122 106/140/116
