# Blender v3.4.1 OBJ File: 'Platformer_Pack_Export_FREE.blend'
# www.blender.org
mtllib barrier_1x1x2.mtl
o barrier_1x1x2
v 0.300000 0.800000 0.500000
v -0.441421 0.941421 0.300000
v -0.300000 0.941421 0.441421
v -0.415470 0.915470 0.415470
v -0.441421 0.800000 0.441421
v -0.300000 0.800000 0.500000
v -0.500000 0.800000 0.300000
v -0.500000 1.800000 0.300000
v -0.300000 1.800000 0.500000
v -0.300000 2.000000 0.300000
v -0.441422 1.800000 0.441421
v -0.415470 1.915470 0.415470
v -0.300000 1.941421 0.441421
v -0.441422 1.941421 0.300000
v 0.300000 1.800000 0.500000
v 0.500000 1.800000 0.300000
v 0.300000 2.000000 0.300000
v 0.441421 1.800000 0.441421
v 0.415470 1.915470 0.415470
v 0.441421 1.941422 0.300000
v 0.300000 1.941422 0.441421
v -0.500000 1.800000 -0.300000
v -0.300000 2.000000 -0.300000
v -0.300000 1.800000 -0.500000
v -0.441422 1.941421 -0.300000
v -0.415470 1.915470 -0.415470
v -0.300000 1.941421 -0.441421
v -0.441422 1.800000 -0.441421
v 0.500000 1.800000 -0.300000
v 0.300000 1.800000 -0.500000
v 0.300000 2.000000 -0.300000
v 0.441421 1.800000 -0.441422
v 0.415470 1.915470 -0.415470
v 0.299999 1.941422 -0.441422
v 0.441421 1.941422 -0.300000
v -0.500000 1.200000 0.300000
v -0.300000 1.000000 0.300000
v -0.300000 1.200000 0.500000
v -0.441421 1.058579 0.300000
v -0.415470 1.084530 0.415470
v -0.300000 1.058579 0.441421
v -0.441421 1.200000 0.441421
v 0.500000 1.200000 0.300000
v 0.300000 1.200000 0.500000
v 0.441421 1.200000 0.441421
v 0.415470 1.084530 0.415470
v 0.300000 1.058579 0.441421
v 0.441421 1.058579 0.300000
v -0.500000 1.200000 -0.300000
v -0.300000 1.200000 -0.500000
v -0.441422 1.200000 -0.441421
v -0.415470 1.084530 -0.415470
v -0.300000 1.058579 -0.441421
v -0.441421 1.058579 -0.300000
v 0.500000 1.200000 -0.300000
v 0.300000 1.000000 -0.300000
v 0.300000 1.200000 -0.500000
v 0.441421 1.058579 -0.300000
v 0.415470 1.084530 -0.415470
v 0.300000 1.058579 -0.441422
v 0.441421 1.200000 -0.441422
v 0.500000 0.800000 0.300000
v 0.300000 1.000000 0.300000
v 0.441422 0.800000 0.441421
v 0.415470 0.915470 0.415470
v 0.441421 0.941422 0.300000
v 0.300000 0.941422 0.441421
v -0.500000 0.800000 -0.300000
v -0.300000 1.000000 -0.300000
v -0.300000 0.800000 -0.500000
v -0.441421 0.941421 -0.300000
v -0.415470 0.915470 -0.415470
v -0.300000 0.941421 -0.441421
v -0.441421 0.800000 -0.441421
v 0.500000 0.800000 -0.300000
v 0.300000 0.800000 -0.500000
v 0.441421 0.800000 -0.441422
v 0.415470 0.915470 -0.415470
v 0.300000 0.941422 -0.441422
v 0.441421 0.941422 -0.300000
v -0.500000 0.200000 0.300000
v -0.300000 0.200000 0.500000
v -0.441421 0.058579 0.300000
v -0.415470 0.084530 0.415470
v -0.300000 0.058579 0.441421
v -0.441421 0.200000 0.441421
v 0.500000 0.200000 0.300000
v 0.300000 0.200000 0.500000
v 0.441422 0.200000 0.441421
v 0.415470 0.084530 0.415470
v 0.300000 0.058579 0.441421
v 0.441422 0.058579 0.300000
v -0.500000 0.200000 -0.300000
v -0.300000 0.200000 -0.500000
v -0.441421 0.200000 -0.441421
v -0.415470 0.084530 -0.415470
v -0.300000 0.058579 -0.441421
v -0.441421 0.058579 -0.300000
v 0.500000 0.200000 -0.300000
v 0.300000 0.200000 -0.500000
v 0.441422 0.058579 -0.300000
v 0.415470 0.084530 -0.415470
v 0.300000 0.058579 -0.441422
v 0.441422 0.200000 -0.441422
v -0.300000 0.000000 0.300000
v 0.300000 0.000000 0.300000
v -0.300000 0.000000 -0.300000
v 0.300000 0.000000 -0.300000
vt 0.153943 0.919997
vt 0.221057 0.919997
vt 0.221057 0.926870
vt 0.153943 0.926870
vt 0.153943 0.885630
vt 0.221057 0.885630
vt 0.221057 0.892503
vt 0.153943 0.892503
vt 0.224786 0.919997
vt 0.224786 0.926870
vt 0.224786 0.926870
vt 0.224786 0.919997
vt 0.153943 0.978918
vt 0.221057 0.978918
vt 0.221057 0.978918
vt 0.153943 0.978918
vt 0.153943 0.926870
vt 0.221057 0.926870
vt 0.221057 0.919997
vt 0.153943 0.919997
vt 0.150214 0.926870
vt 0.151307 0.926870
vt 0.151790 0.960341
vt 0.151307 0.962125
vt 0.153943 0.962125
vt 0.151307 0.974892
vt 0.151790 0.973108
vt 0.153943 0.974892
vt 0.223694 0.926870
vt 0.223210 0.960341
vt 0.221057 0.962125
vt 0.223694 0.962125
vt 0.221057 0.974892
vt 0.223210 0.973108
vt 0.223694 0.974892
vt 0.150214 0.926870
vt 0.151307 0.962125
vt 0.151790 0.960341
vt 0.151307 0.926870
vt 0.153943 0.974892
vt 0.151790 0.973108
vt 0.151307 0.974892
vt 0.153943 0.962125
vt 0.223694 0.926870
vt 0.223210 0.960341
vt 0.223694 0.962125
vt 0.221057 0.962125
vt 0.223694 0.974892
vt 0.223210 0.973108
vt 0.221057 0.974892
vt 0.150214 0.919997
vt 0.151307 0.884742
vt 0.151790 0.886526
vt 0.151307 0.919997
vt 0.153943 0.867949
vt 0.153943 0.871975
vt 0.151790 0.873759
vt 0.151307 0.871975
vt 0.153943 0.884742
vt 0.223694 0.919997
vt 0.223210 0.886526
vt 0.223694 0.884742
vt 0.221057 0.884742
vt 0.221057 0.867949
vt 0.223694 0.871975
vt 0.223210 0.873759
vt 0.221057 0.871975
vt 0.150214 0.919997
vt 0.151307 0.919997
vt 0.151790 0.886526
vt 0.151307 0.884742
vt 0.153943 0.884742
vt 0.153943 0.867949
vt 0.151307 0.871975
vt 0.151790 0.873759
vt 0.153943 0.871975
vt 0.223694 0.884742
vt 0.223210 0.886526
vt 0.223694 0.919997
vt 0.221057 0.867949
vt 0.221057 0.871975
vt 0.223210 0.873759
vt 0.223694 0.871975
vt 0.221057 0.884742
vt 0.224786 0.885630
vt 0.224786 0.892503
vt 0.224786 0.892503
vt 0.224786 0.885630
vt 0.153943 0.892503
vt 0.221057 0.892503
vt 0.221057 0.885630
vt 0.153943 0.885630
vt 0.150214 0.892503
vt 0.151307 0.892503
vt 0.151790 0.925974
vt 0.151307 0.927758
vt 0.153943 0.927758
vt 0.153943 0.944551
vt 0.151307 0.940525
vt 0.151790 0.938741
vt 0.153943 0.940525
vt 0.223694 0.892503
vt 0.223210 0.925974
vt 0.221057 0.927758
vt 0.223694 0.927758
vt 0.221057 0.944551
vt 0.221057 0.940525
vt 0.223210 0.938741
vt 0.223694 0.940525
vt 0.150214 0.892503
vt 0.151307 0.927758
vt 0.151790 0.925974
vt 0.151307 0.892503
vt 0.153943 0.944551
vt 0.153943 0.940525
vt 0.151790 0.938741
vt 0.151307 0.940525
vt 0.153943 0.927758
vt 0.223694 0.892503
vt 0.223210 0.925974
vt 0.223694 0.927758
vt 0.221057 0.927758
vt 0.221057 0.944551
vt 0.223694 0.940525
vt 0.223210 0.938741
vt 0.221057 0.940525
vt 0.150214 0.885630
vt 0.151307 0.850375
vt 0.151790 0.852159
vt 0.151307 0.885630
vt 0.153943 0.833582
vt 0.153943 0.837608
vt 0.151790 0.839392
vt 0.151307 0.837608
vt 0.153943 0.850375
vt 0.223694 0.885630
vt 0.223210 0.852159
vt 0.223694 0.850375
vt 0.221057 0.850375
vt 0.221057 0.833582
vt 0.223694 0.837608
vt 0.223210 0.839392
vt 0.221057 0.837608
vt 0.150214 0.885630
vt 0.151307 0.885630
vt 0.151790 0.852159
vt 0.151307 0.850375
vt 0.153943 0.850375
vt 0.153943 0.833582
vt 0.151307 0.837608
vt 0.151790 0.839392
vt 0.153943 0.837608
vt 0.223694 0.850375
vt 0.223210 0.852159
vt 0.223694 0.885630
vt 0.221057 0.833582
vt 0.221057 0.837608
vt 0.223210 0.839392
vt 0.223694 0.837608
vt 0.221057 0.850375
vn -0.1794 -0.1794 0.9673
vn 0.1794 -0.1794 0.9673
vn 0.1794 0.1794 0.9673
vn -0.1794 0.1794 0.9673
vn 0.9673 -0.1794 -0.1794
vn 0.9673 0.1794 -0.1794
vn 0.9673 0.1794 0.1794
vn 0.9673 -0.1794 0.1794
vn -0.1794 0.9673 0.1794
vn 0.1794 0.9673 0.1794
vn 0.1794 0.9673 -0.1794
vn -0.1794 0.9673 -0.1794
vn -0.1794 0.1794 -0.9673
vn 0.1794 0.1794 -0.9673
vn 0.1794 -0.1794 -0.9673
vn -0.1794 -0.1794 -0.9673
vn -0.9673 0.1794 0.1794
vn -0.9194 0.1585 0.3600
vn -0.8881 0.3251 0.3251
vn -0.9194 0.3600 0.1585
vn -0.1585 0.3600 0.9194
vn -0.3251 0.3251 0.8881
vn -0.3600 0.1585 0.9194
vn -0.3600 0.9194 0.1585
vn -0.3251 0.8881 0.3251
vn -0.1585 0.9194 0.3600
vn 0.6965 0.1726 0.6965
vn 0.3251 0.3251 0.8881
vn 0.1585 0.3600 0.9194
vn 0.6965 0.6965 0.1726
vn 0.8881 0.3251 0.3251
vn 0.1585 0.9194 0.3600
vn 0.3251 0.8881 0.3251
vn -0.9673 0.1794 -0.1794
vn -0.9194 0.3600 -0.1585
vn -0.8881 0.3251 -0.3251
vn -0.9194 0.1585 -0.3600
vn -0.1585 0.9194 -0.3600
vn -0.3251 0.8881 -0.3251
vn -0.3600 0.9194 -0.1585
vn -0.3600 0.1585 -0.9194
vn -0.3251 0.3251 -0.8881
vn -0.1585 0.3600 -0.9194
vn 0.6965 0.1726 -0.6965
vn 0.8881 0.3251 -0.3251
vn 0.6965 0.6965 -0.1726
vn 0.1585 0.3600 -0.9194
vn 0.3251 0.3251 -0.8881
vn 0.3251 0.8881 -0.3251
vn 0.1585 0.9194 -0.3600
vn -0.9673 -0.1794 0.1794
vn -0.9194 -0.3600 0.1585
vn -0.8881 -0.3251 0.3251
vn -0.9194 -0.1585 0.3600
vn -0.2402 -0.9406 0.2402
vn -0.1726 -0.6965 0.6965
vn -0.3251 -0.8881 0.3251
vn -0.3600 -0.9194 0.1585
vn -0.3600 -0.1585 0.9194
vn -0.3251 -0.3251 0.8881
vn 0.6965 -0.1726 0.6965
vn 0.8881 -0.3251 0.3251
vn 0.9194 -0.3600 0.1585
vn 0.1726 -0.6965 0.6965
vn 0.3251 -0.3251 0.8881
vn 0.2402 -0.9406 0.2402
vn 0.3600 -0.9194 0.1585
vn 0.3251 -0.8881 0.3251
vn -0.9673 -0.1794 -0.1794
vn -0.9194 -0.1585 -0.3600
vn -0.8881 -0.3251 -0.3251
vn -0.9194 -0.3600 -0.1585
vn -0.1726 -0.6965 -0.6965
vn -0.3251 -0.3251 -0.8881
vn -0.3600 -0.1585 -0.9194
vn -0.2402 -0.9406 -0.2402
vn -0.3600 -0.9194 -0.1585
vn -0.3251 -0.8881 -0.3251
vn 0.9194 -0.3600 -0.1585
vn 0.8881 -0.3251 -0.3251
vn 0.6965 -0.1726 -0.6965
vn 0.2402 -0.9406 -0.2402
vn 0.1726 -0.6965 -0.6965
vn 0.3251 -0.8881 -0.3251
vn 0.3600 -0.9194 -0.1585
vn 0.3251 -0.3251 -0.8881
vn -0.6965 0.1726 0.6965
vn -0.2402 0.9406 0.2402
vn 0.3600 0.1585 0.9194
vn 0.9194 0.1585 0.3600
vn 0.2402 0.9406 0.2402
vn -0.6965 0.1726 -0.6965
vn -0.2402 0.9406 -0.2402
vn 0.2402 0.9406 -0.2402
vn -0.6965 -0.6965 0.1726
vn -0.6965 -0.1726 0.6965
vn -0.1794 -0.9673 0.1794
vn -0.1585 -0.9194 0.3600
vn -0.1585 -0.3600 0.9194
vn 0.9194 -0.1585 0.3600
vn 0.6965 -0.6965 0.1726
vn 0.1585 -0.3600 0.9194
vn 0.3600 -0.1585 0.9194
vn 0.1794 -0.9673 0.1794
vn 0.1585 -0.9194 0.3600
vn -0.6965 -0.1726 -0.6965
vn -0.6965 -0.6965 -0.1726
vn -0.1585 -0.3600 -0.9194
vn -0.1794 -0.9673 -0.1794
vn -0.1585 -0.9194 -0.3600
vn 0.6965 -0.6965 -0.1726
vn 0.1794 -0.9673 -0.1794
vn 0.1585 -0.9194 -0.3600
vn 0.1585 -0.3600 -0.9194
usemtl platformer
s 1
f 38/1/1 44/2/2 15/3/3 9/4/4
f 82/5/1 88/6/2 1/7/3 6/8/4
f 55/9/5 29/10/6 16/11/7 43/12/8
f 10/13/9 17/14/10 31/15/11 23/16/12
f 24/17/13 30/18/14 57/19/15 50/20/16
f 8/21/17 11/22/18 12/23/19 14/24/20
f 9/4/4 13/25/21 12/23/22 11/22/23
f 10/13/9 14/26/24 12/27/25 13/28/26
f 15/3/3 18/29/27 19/30/28 21/31/29
f 16/11/7 20/32/30 19/30/31 18/29/27
f 17/14/10 21/33/32 19/34/33 20/35/30
f 22/36/34 25/37/35 26/38/36 28/39/37
f 23/16/12 27/40/38 26/41/39 25/42/40
f 24/17/13 28/39/41 26/38/42 27/43/43
f 29/10/6 32/44/44 33/45/45 35/46/46
f 30/18/14 34/47/47 33/45/48 32/44/44
f 31/15/11 35/48/46 33/49/49 34/50/50
f 36/51/51 39/52/52 40/53/53 42/54/54
f 37/55/55 41/56/56 40/57/57 39/58/58
f 38/1/1 42/54/59 40/53/60 41/59/56
f 43/12/8 45/60/61 46/61/62 48/62/63
f 44/2/2 47/63/64 46/61/65 45/60/61
f 63/64/66 48/65/67 46/66/68 47/67/64
f 49/68/69 51/69/70 52/70/71 54/71/72
f 50/20/16 53/72/73 52/70/74 51/69/75
f 69/73/76 54/74/77 52/75/78 53/76/73
f 55/9/5 58/77/79 59/78/80 61/79/81
f 56/80/82 60/81/83 59/82/84 58/83/85
f 57/19/15 61/79/81 59/78/86 60/84/83
f 22/36/34 8/21/17 14/24/20 25/37/35
f 25/42/40 14/26/24 10/13/9 23/16/12
f 9/4/4 15/3/3 21/31/29 13/25/21
f 13/28/26 21/33/32 17/14/10 10/13/9
f 16/11/7 29/10/6 35/46/46 20/32/30
f 20/35/30 35/48/46 31/15/11 17/14/10
f 30/18/14 24/17/13 27/43/43 34/47/47
f 34/50/50 27/40/38 23/16/12 31/15/11
f 49/68/69 22/36/34 28/39/37 51/69/70
f 51/69/75 28/39/41 24/17/13 50/20/16
f 29/10/6 55/9/5 61/79/81 32/44/44
f 32/44/44 61/79/81 57/19/15 30/18/14
f 56/80/82 69/73/76 53/76/73 60/81/83
f 60/84/83 53/72/73 50/20/16 57/19/15
f 36/51/51 49/68/69 54/71/72 39/52/52
f 39/58/58 54/74/77 69/73/76 37/55/55
f 55/9/5 43/12/8 48/62/63 58/77/79
f 58/83/85 48/65/67 63/64/66 56/80/82
f 44/2/2 38/1/1 41/59/56 47/63/64
f 47/67/64 41/56/56 37/55/55 63/64/66
f 8/21/17 36/51/51 42/54/54 11/22/18
f 11/22/23 42/54/59 38/1/1 9/4/4
f 43/12/8 16/11/7 18/29/27 45/60/61
f 45/60/61 18/29/27 15/3/3 44/2/2
f 22/36/34 49/68/69 36/51/51 8/21/17
f 99/85/5 75/86/6 62/87/7 87/88/8
f 70/89/13 76/90/14 100/91/15 94/92/16
f 7/93/17 5/94/87 4/95/19 2/96/20
f 6/8/4 3/97/21 4/95/22 5/94/87
f 37/98/88 2/99/24 4/100/25 3/101/26
f 1/7/3 64/102/89 65/103/28 67/104/29
f 62/87/7 66/105/30 65/103/31 64/102/90
f 63/106/91 67/107/32 65/108/33 66/109/30
f 68/110/34 71/111/35 72/112/36 74/113/92
f 69/114/93 73/115/38 72/116/39 71/117/40
f 70/89/13 74/113/92 72/112/42 73/118/43
f 75/86/6 77/119/44 78/120/45 80/121/46
f 76/90/14 79/122/47 78/120/48 77/119/44
f 56/123/94 80/124/46 78/125/49 79/126/50
f 81/127/51 83/128/95 84/129/53 86/130/96
f 105/131/97 85/132/98 84/133/57 83/134/95
f 82/5/1 86/130/96 84/129/60 85/135/99
f 87/88/8 89/136/100 90/137/62 92/138/101
f 88/6/2 91/139/102 90/137/65 89/136/103
f 106/140/104 92/141/101 90/142/68 91/143/105
f 93/144/69 95/145/106 96/146/71 98/147/107
f 94/92/16 97/148/108 96/146/74 95/145/106
f 107/149/109 98/150/107 96/151/78 97/152/110
f 99/85/5 101/153/111 102/154/80 104/155/81
f 108/156/112 103/157/113 102/158/84 101/159/111
f 100/91/15 104/155/81 102/154/86 103/160/114
f 68/110/34 7/93/17 2/96/20 71/111/35
f 71/117/40 2/99/24 37/98/88 69/114/93
f 6/8/4 1/7/3 67/104/29 3/97/21
f 3/101/26 67/107/32 63/106/91 37/98/88
f 62/87/7 75/86/6 80/121/46 66/105/30
f 66/109/30 80/124/46 56/123/94 63/106/91
f 76/90/14 70/89/13 73/118/43 79/122/47
f 79/126/50 73/115/38 69/114/93 56/123/94
f 93/144/69 68/110/34 74/113/92 95/145/106
f 95/145/106 74/113/92 70/89/13 94/92/16
f 75/86/6 99/85/5 104/155/81 77/119/44
f 77/119/44 104/155/81 100/91/15 76/90/14
f 108/156/112 107/149/109 97/152/110 103/157/113
f 103/160/114 97/148/108 94/92/16 100/91/15
f 81/127/51 93/144/69 98/147/107 83/128/95
f 83/134/95 98/150/107 107/149/109 105/131/97
f 99/85/5 87/88/8 92/138/101 101/153/111
f 101/159/111 92/141/101 106/140/104 108/156/112
f 88/6/2 82/5/1 85/135/99 91/139/102
f 91/143/105 85/132/98 105/131/97 106/140/104
f 7/93/17 81/127/51 86/130/96 5/94/87
f 5/94/87 86/130/96 82/5/1 6/8/4
f 87/88/8 62/87/7 64/102/90 89/136/100
f 89/136/103 64/102/89 1/7/3 88/6/2
f 68/110/34 93/144/69 81/127/51 7/93/17
f 105/131/97 107/149/109 108/156/112 106/140/104
