# Blender v3.4.1 OBJ File: 'Platformer_Pack_Export_FREE.blend'
# www.blender.org
mtllib cone.mtl
o cone
v 0.000000 0.000000 -0.000000
v -0.200000 0.100000 0.250000
v -0.120692 0.150000 0.120692
v -0.250000 0.100000 0.200000
v -0.120692 0.150000 -0.120692
v -0.200000 0.100000 -0.250000
v -0.250000 0.100000 -0.200000
v 0.120692 0.150000 0.120692
v 0.200000 0.100000 0.250000
v 0.250000 0.100000 0.200000
v 0.120692 0.150000 -0.120692
v 0.250000 0.100000 -0.200000
v 0.200000 0.100000 -0.250000
v -0.200000 0.150000 0.200000
v -0.200000 0.150000 -0.200000
v 0.200000 0.150000 -0.200000
v 0.200000 0.150000 0.200000
v -0.170684 0.150000 0.000000
v 0.000000 0.150000 -0.170684
v 0.170684 0.150000 0.000000
v 0.000000 0.150000 0.170684
v 0.000000 0.650000 -0.000000
v -0.035767 0.625452 0.035767
v -0.035767 0.625452 -0.035767
v 0.035767 0.625452 0.035767
v 0.035767 0.625452 -0.035767
v -0.050582 0.625452 0.000000
v 0.000000 0.625452 -0.050582
v 0.050582 0.625452 0.000000
v 0.000000 0.625452 0.050582
v -0.018399 0.650000 -0.000000
v -0.013010 0.650000 -0.013010
v 0.000000 0.650000 -0.018399
v 0.013010 0.650000 -0.013010
v 0.018399 0.650000 0.000000
v 0.013010 0.650000 0.013010
v -0.000000 0.650000 0.018399
v -0.013010 0.650000 0.013010
v -0.110633 0.387726 0.000000
v -0.140658 0.268863 0.000000
v -0.099461 0.268863 0.099461
v -0.078229 0.387726 0.078229
v 0.000000 0.268863 0.140658
v 0.000000 0.387726 0.110633
v -0.078229 0.387726 -0.078229
v -0.099461 0.268863 -0.099461
v 0.000000 0.387726 -0.110633
v 0.000000 0.268863 -0.140658
v 0.078229 0.387726 0.078229
v 0.099461 0.268863 0.099461
v 0.140658 0.268863 0.000000
v 0.110633 0.387726 0.000000
v 0.078229 0.387726 -0.078229
v 0.099461 0.268863 -0.099461
v -0.250000 0.000000 0.200000
v -0.200000 0.000000 0.250000
v -0.200000 0.000000 -0.250000
v -0.250000 0.000000 -0.200000
v 0.250000 0.000000 -0.200000
v 0.200000 0.000000 -0.250000
v 0.200000 0.000000 0.250000
v 0.250000 0.000000 0.200000
vt 0.219184 0.583178
vt 0.219184 0.599241
vt 0.154933 0.599241
vt 0.154933 0.583178
vt 0.227215 0.583178
vt 0.227215 0.599241
vt 0.227215 0.599241
vt 0.227215 0.583178
vt 0.146901 0.583178
vt 0.146901 0.599241
vt 0.146901 0.599241
vt 0.146901 0.583178
vt 0.154933 0.583178
vt 0.154933 0.599241
vt 0.219184 0.599241
vt 0.219184 0.583178
vt 0.154933 0.614866
vt 0.154933 0.622897
vt 0.146901 0.614866
vt 0.154933 0.622897
vt 0.154933 0.614866
vt 0.146901 0.614866
vt 0.219184 0.622897
vt 0.219184 0.614866
vt 0.227215 0.614866
vt 0.219184 0.622897
vt 0.227215 0.614866
vt 0.219184 0.614866
vt 0.154933 0.598803
vt 0.146901 0.598803
vt 0.154933 0.598803
vt 0.146901 0.598803
vt 0.227215 0.598803
vt 0.219184 0.598803
vt 0.219184 0.598803
vt 0.227215 0.598803
vt 0.159642 0.654147
vt 0.167672 0.654147
vt 0.154933 0.654147
vt 0.187058 0.654147
vt 0.206445 0.654147
vt 0.219184 0.654147
vt 0.214475 0.654147
vt 0.206445 0.654147
vt 0.219184 0.654147
vt 0.187058 0.654147
vt 0.167672 0.654147
vt 0.154933 0.654147
vt 0.199624 0.645458
vt 0.204829 0.645458
vt 0.195183 0.683643
vt 0.192804 0.683643
vt 0.174493 0.645458
vt 0.169288 0.645458
vt 0.178934 0.683643
vt 0.181313 0.683643
vt 0.199624 0.645458
vt 0.192804 0.683643
vt 0.174493 0.645458
vt 0.187058 0.645458
vt 0.187058 0.683643
vt 0.181313 0.683643
vt 0.187058 0.645458
vt 0.187058 0.683643
vt 0.184103 0.718836
vt 0.184969 0.718836
vt 0.181313 0.714893
vt 0.178934 0.714893
vt 0.187058 0.718836
vt 0.189148 0.718836
vt 0.192804 0.714893
vt 0.187058 0.714893
vt 0.190014 0.718836
vt 0.189148 0.718836
vt 0.192804 0.714893
vt 0.195183 0.714893
vt 0.187058 0.718836
vt 0.184969 0.718836
vt 0.181313 0.714893
vt 0.187058 0.714893
vt 0.187058 0.718836
vt 0.159642 0.607272
vt 0.167672 0.607272
vt 0.171082 0.626365
vt 0.164465 0.626365
vt 0.164465 0.704490
vt 0.171082 0.704490
vt 0.174493 0.723583
vt 0.169288 0.723583
vt 0.187058 0.607272
vt 0.167672 0.607272
vt 0.171082 0.626365
vt 0.187058 0.626365
vt 0.187058 0.704490
vt 0.171082 0.704490
vt 0.174493 0.723583
vt 0.187058 0.723583
vt 0.206445 0.607272
vt 0.203035 0.626365
vt 0.203035 0.704490
vt 0.199624 0.723583
vt 0.187058 0.607272
vt 0.206445 0.607272
vt 0.203035 0.626365
vt 0.187058 0.626365
vt 0.187058 0.704490
vt 0.203035 0.704490
vt 0.199624 0.723583
vt 0.187058 0.723583
vt 0.214475 0.607272
vt 0.209652 0.626365
vt 0.209652 0.704490
vt 0.204829 0.723583
vt 0.156551 0.583178
vt 0.150809 0.583178
vt 0.217566 0.583178
vt 0.223308 0.583178
vn 0.3827 0.0000 0.9239
vn 0.3416 0.3416 0.8756
vn -0.3416 0.3416 0.8756
vn -0.3827 0.0000 0.9239
vn 0.9239 0.0000 -0.3827
vn 0.8756 0.3416 -0.3416
vn 0.8756 0.3416 0.3416
vn 0.9239 0.0000 0.3827
vn -0.9239 0.0000 0.3827
vn -0.8756 0.3416 0.3416
vn -0.8756 0.3416 -0.3416
vn -0.9239 0.0000 -0.3827
vn -0.3827 0.0000 -0.9239
vn -0.3416 0.3416 -0.8756
vn 0.3416 0.3416 -0.8756
vn 0.3827 0.0000 -0.9239
vn -0.3416 0.8756 0.3416
vn -0.3416 0.8756 -0.3416
vn 0.3416 0.8756 0.3416
vn 0.3416 0.8756 -0.3416
vn 0.0000 1.0000 0.0000
vn 0.6856 0.2449 0.6856
vn 0.9695 0.2449 -0.0000
vn 0.8562 0.5166 0.0000
vn 0.6055 0.5166 0.6055
vn -0.6856 0.2449 -0.6856
vn -0.9695 0.2449 0.0000
vn -0.8562 0.5166 -0.0000
vn -0.6055 0.5166 -0.6055
vn 0.6856 0.2449 -0.6856
vn 0.6055 0.5166 -0.6055
vn -0.6856 0.2449 0.6856
vn -0.0000 0.2449 0.9695
vn 0.0000 0.5166 0.8562
vn -0.6055 0.5166 0.6055
vn 0.0000 0.2449 -0.9695
vn -0.0000 0.5166 -0.8562
vn -0.3879 0.9217 -0.0000
vn -0.2743 0.9217 -0.2743
vn -0.0000 0.9217 -0.3879
vn 0.2743 0.9217 -0.2743
vn 0.3879 0.9217 0.0000
vn 0.2743 0.9217 0.2743
vn 0.0000 0.9217 0.3879
vn -0.2743 0.9217 0.2743
vn 0.0000 -1.0000 0.0000
usemtl platformer
s 1
f 61/1/1 9/2/2 2/3/3 56/4/4
f 59/5/5 12/6/6 10/7/7 62/8/8
f 55/9/9 4/10/10 7/11/11 58/12/12
f 57/13/13 6/14/14 13/15/15 60/16/16
f 2/17/3 14/18/17 4/19/10
f 15/20/18 6/21/14 7/22/11
f 17/23/19 9/24/2 10/25/7
f 16/26/20 12/27/6 13/28/15
f 56/29/4 2/17/3 4/19/10 55/30/9
f 14/18/17 15/20/18 7/22/11 4/19/10
f 6/21/14 57/31/13 58/32/12 7/22/11
f 15/20/18 16/26/20 13/28/15 6/21/14
f 12/27/6 59/33/5 60/34/16 13/28/15
f 16/26/20 17/23/19 10/25/7 12/27/6
f 9/24/2 61/35/1 62/36/8 10/25/7
f 17/23/19 14/18/17 2/17/3 9/24/2
f 18/37/21 5/38/21 15/39/18
f 19/40/21 11/41/21 16/42/20
f 20/43/21 8/44/21 17/45/19
f 21/46/21 3/47/21 14/48/17
f 21/46/21 14/48/17 17/45/19
f 8/44/21 21/46/21 17/45/19
f 20/43/21 17/45/19 16/42/20
f 11/41/21 20/43/21 16/42/20
f 19/40/21 16/42/20 15/39/18
f 5/38/21 19/40/21 15/39/18
f 18/37/21 15/39/18 14/48/17
f 3/47/21 18/37/21 14/48/17
f 49/49/22 52/50/23 29/51/24 25/52/25
f 45/53/26 39/54/27 27/55/28 24/56/29
f 52/50/23 53/57/30 26/58/31 29/51/24
f 42/59/32 44/60/33 30/61/34 23/62/35
f 44/60/33 49/49/22 25/52/25 30/61/34
f 53/57/30 47/63/36 28/64/37 26/58/31
f 47/63/36 45/53/26 24/56/29 28/64/37
f 31/65/38 32/66/39 24/67/29 27/68/28
f 33/69/40 34/70/41 26/71/31 28/72/37
f 35/73/42 36/74/43 25/75/25 29/76/24
f 37/77/44 38/78/45 23/79/35 30/80/34
f 38/78/45 31/65/38 27/68/28 23/79/35
f 32/66/39 33/69/40 28/72/37 24/67/29
f 34/70/41 35/73/42 29/76/24 26/71/31
f 36/74/43 37/77/44 30/80/34 25/75/25
f 22/81/21 32/66/39 31/65/38
f 22/81/21 34/70/41 33/69/40
f 22/81/21 36/74/43 35/73/42
f 22/81/21 38/78/45 37/77/44
f 22/81/21 31/65/38 38/78/45
f 22/81/21 33/69/40 32/66/39
f 22/81/21 35/73/42 34/70/41
f 22/81/21 37/77/44 36/74/43
f 18/82/27 3/83/32 41/84/32 40/85/27
f 40/86/27 41/87/32 42/88/32 39/89/27
f 19/90/36 5/91/26 46/92/26 48/93/36
f 48/94/36 46/95/26 45/96/26 47/97/36
f 11/98/30 19/90/36 48/93/36 54/99/30
f 54/100/30 48/94/36 47/97/36 53/101/30
f 21/102/33 8/103/22 50/104/22 43/105/33
f 43/106/33 50/107/22 49/108/22 44/109/33
f 3/83/32 21/102/33 43/105/33 41/84/32
f 41/87/32 43/106/33 44/109/33 42/88/32
f 20/110/23 11/98/30 54/99/30 51/111/23
f 51/112/23 54/100/30 53/101/30 52/113/23
f 5/91/26 18/82/27 40/85/27 46/92/26
f 46/95/26 40/86/27 39/89/27 45/96/26
f 8/103/22 20/110/23 51/111/23 50/104/22
f 50/107/22 51/112/23 52/113/23 49/108/22
f 39/54/27 42/59/32 23/62/35 27/55/28
f 1/114/46 56/4/46 55/9/46
f 1/115/46 58/12/46 57/13/46
f 1/116/46 60/16/46 59/5/46
f 1/117/46 62/8/46 61/1/46
f 1/115/46 55/9/46 58/12/46
f 1/114/46 57/13/46 60/16/46
f 1/117/46 59/5/46 62/8/46
f 1/116/46 61/1/46 56/4/46
