# Blender v3.4.1 OBJ File: 'Platformer_Pack_Export_FREE.blend'
# www.blender.org
mtllib floor_wood_4x4.mtl
o floor_wood_4x4
v -1.800125 0.175054 1.924946
v -1.800125 0.324946 1.924946
v 1.800124 0.175054 1.924946
v 1.800124 0.324946 1.924946
v 1.800124 0.175054 -1.924946
v 1.800124 0.324946 -1.924946
v -1.800124 0.175054 -1.924946
v -1.800124 0.324946 -1.924946
v 1.924946 0.175054 1.800125
v 1.924946 0.324946 1.800125
v 1.924946 0.175054 -1.800124
v 1.924946 0.324946 -1.800124
v -1.924946 0.175054 -1.800124
v -1.924946 0.324946 -1.800124
v -1.924946 0.175054 1.800124
v -1.924946 0.324946 1.800124
v -0.020000 0.175054 1.924946
v -0.020000 0.324946 1.924946
v 0.020000 0.175054 1.924946
v -0.000000 0.175054 1.904946
v -0.000000 0.324946 1.904946
v 0.020000 0.324946 1.924946
v 1.797644 0.100000 1.966343
v 1.777644 0.100000 1.946343
v 1.777644 0.400000 1.946343
v 1.797644 0.400000 1.966343
v 1.777644 0.100000 1.797644
v 1.797644 0.100000 1.777644
v 1.797644 0.400000 1.777644
v 1.777644 0.400000 1.797644
v 1.966342 0.100000 1.946343
v 1.946342 0.100000 1.966343
v 1.946342 0.400000 1.966343
v 1.966342 0.400000 1.946343
v 1.946342 0.100000 1.777644
v 1.966342 0.100000 1.797644
v 1.966342 0.400000 1.797644
v 1.946342 0.400000 1.777644
v 1.797644 0.100000 -1.777644
v 1.777644 0.100000 -1.797644
v 1.777644 0.400000 -1.797644
v 1.797644 0.400000 -1.777644
v 1.777644 0.100000 -1.946343
v 1.797644 0.100000 -1.966343
v 1.797644 0.400000 -1.966343
v 1.777644 0.400000 -1.946343
v 1.966342 0.100000 -1.797644
v 1.946342 0.100000 -1.777644
v 1.946342 0.400000 -1.777644
v 1.966342 0.400000 -1.797644
v 1.946342 0.100000 -1.966343
v 1.966342 0.100000 -1.946343
v 1.966342 0.400000 -1.946343
v 1.946342 0.400000 -1.966343
v -1.946343 0.100000 -1.777644
v -1.966343 0.100000 -1.797644
v -1.966343 0.400000 -1.797644
v -1.946343 0.400000 -1.777644
v -1.966343 0.100000 -1.946343
v -1.946343 0.100000 -1.966343
v -1.946343 0.400000 -1.966343
v -1.966343 0.400000 -1.946343
v -1.777644 0.100000 -1.797644
v -1.797644 0.100000 -1.777644
v -1.797644 0.400000 -1.777644
v -1.777644 0.400000 -1.797644
v -1.797644 0.100000 -1.966343
v -1.777644 0.100000 -1.946343
v -1.777644 0.400000 -1.946343
v -1.797644 0.400000 -1.966343
v -1.946343 0.100000 1.966343
v -1.966343 0.100000 1.946343
v -1.966343 0.400000 1.946343
v -1.946343 0.400000 1.966343
v -1.966343 0.100000 1.797644
v -1.946343 0.100000 1.777644
v -1.946343 0.400000 1.777644
v -1.966343 0.400000 1.797644
v -1.777644 0.100000 1.946343
v -1.797644 0.100000 1.966343
v -1.797644 0.400000 1.966343
v -1.777644 0.400000 1.946343
v -1.797644 0.100000 1.777644
v -1.777644 0.100000 1.797644
v -1.777644 0.400000 1.797644
v -1.797644 0.400000 1.777644
v -1.980000 0.300000 1.980000
v -1.980000 0.320000 2.000000
v -2.000000 0.320000 1.980000
v -1.980000 0.480000 2.000000
v -1.980000 0.500000 1.980000
v -2.000000 0.480000 1.980000
v -1.980000 0.300000 0.770000
v -2.000000 0.320000 0.770000
v -1.980000 0.500000 0.770000
v -1.980000 0.480000 0.750000
v -2.000000 0.480000 0.770000
v 1.980000 0.300000 1.980000
v 2.000000 0.320000 1.980000
v 1.980000 0.320000 2.000000
v 1.980000 0.500000 1.980000
v 1.980000 0.480000 2.000000
v 2.000000 0.480000 1.980000
v 1.980000 0.300000 0.770000
v 1.980000 0.320000 0.750000
v 2.000000 0.320000 0.770000
v 1.980000 0.500000 0.770000
v 2.000000 0.480000 0.770000
v -1.980000 0.300000 0.730000
v -1.980000 0.320000 0.750000
v -2.000000 0.320000 0.730000
v -1.980000 0.500000 0.730000
v -2.000000 0.480000 0.730000
v -1.980000 0.300000 -0.730000
v -2.000000 0.320000 -0.730000
v -1.980000 0.500000 -0.730000
v -2.000000 0.480000 -0.730000
v 1.980000 0.300000 0.730000
v 2.000000 0.320000 0.730000
v 1.980000 0.500000 0.730000
v 1.980000 0.480000 0.750000
v 2.000000 0.480000 0.730000
v 1.980000 0.300000 -0.730000
v 2.000000 0.320000 -0.730000
v 1.980000 0.500000 -0.730000
v 2.000000 0.480000 -0.730000
v -1.980000 0.300000 -0.770000
v -1.980000 0.320000 -0.750000
v -2.000000 0.320000 -0.770000
v -1.980000 0.480000 -0.750000
v -1.980000 0.500000 -0.770000
v -2.000000 0.480000 -0.770000
v -1.980000 0.300000 -1.980000
v -2.000000 0.320000 -1.980000
v -1.980000 0.320000 -2.000000
v -1.980000 0.500000 -1.980000
v -1.980000 0.480000 -2.000000
v -2.000000 0.480000 -1.980000
v 1.980000 0.300000 -0.770000
v 2.000000 0.320000 -0.770000
v 1.980000 0.320000 -0.750000
v 1.980000 0.500000 -0.770000
v 1.980000 0.480000 -0.750000
v 2.000000 0.480000 -0.770000
v 1.980000 0.300000 -1.980000
v 1.980000 0.320000 -2.000000
v 2.000000 0.320000 -1.980000
v 1.980000 0.500000 -1.980000
v 2.000000 0.480000 -1.980000
v 1.980000 0.480000 -2.000000
v -1.980000 0.000000 1.980000
v -1.980000 0.020000 2.000000
v -2.000000 0.020000 1.980000
v -1.980000 0.180000 2.000000
v -1.980000 0.200000 1.980000
v -2.000000 0.180000 1.980000
v -1.980000 0.000000 0.770000
v -2.000000 0.020000 0.770000
v -1.980000 0.200000 0.770000
v -2.000000 0.180000 0.770000
v 1.980000 0.000000 1.980000
v 2.000000 0.020000 1.980000
v 1.980000 0.020000 2.000000
v 1.980000 0.200000 1.980000
v 1.980000 0.180000 2.000000
v 2.000000 0.180000 1.980000
v 1.980000 0.000000 0.770000
v 2.000000 0.020000 0.770000
v 1.980000 0.200000 0.770000
v 2.000000 0.180000 0.770000
v 1.980000 0.180000 0.750000
v -1.980000 0.000000 0.730000
v -1.980000 0.020000 0.750000
v -2.000000 0.020000 0.730000
v -1.980000 0.180000 0.750000
v -1.980000 0.200000 0.730000
v -2.000000 0.180000 0.730000
v -1.980000 0.000000 -0.730000
v -2.000000 0.020000 -0.730000
v -1.980000 0.200000 -0.730000
v -2.000000 0.180000 -0.730000
v 1.980000 0.000000 0.730000
v 2.000000 0.020000 0.730000
v 1.980000 0.020000 0.750000
v 1.980000 0.200000 0.730000
v 2.000000 0.180000 0.730000
v 1.980000 0.000000 -0.730000
v 1.980000 0.020000 -0.750000
v 2.000000 0.020000 -0.730000
v 1.980000 0.200000 -0.730000
v 2.000000 0.180000 -0.730000
v -1.980000 0.000000 -0.770000
v -1.980000 0.020000 -0.750000
v -2.000000 0.020000 -0.770000
v -1.980000 0.180000 -0.750000
v -1.980000 0.200000 -0.770000
v -2.000000 0.180000 -0.770000
v -1.980000 0.000000 -1.980000
v -2.000000 0.020000 -1.980000
v -1.980000 0.020000 -2.000000
v -1.980000 0.200000 -1.980000
v -1.980000 0.180000 -2.000000
v -2.000000 0.180000 -1.980000
v 1.980000 0.000000 -0.770000
v 2.000000 0.020000 -0.770000
v 1.980000 0.200000 -0.770000
v 1.980000 0.180000 -0.750000
v 2.000000 0.180000 -0.770000
v 1.980000 0.000000 -1.980000
v 1.980000 0.020000 -2.000000
v 2.000000 0.020000 -1.980000
v 1.980000 0.200000 -1.980000
v 2.000000 0.180000 -1.980000
v 1.980000 0.180000 -2.000000
v 0.020000 0.175054 -1.924946
v 0.020000 0.324946 -1.924946
v -0.020000 0.175054 -1.924946
v 0.000000 0.175054 -1.904946
v 0.000000 0.324946 -1.904946
v -0.020000 0.324946 -1.924946
v 1.924946 0.175054 0.020000
v 1.924946 0.324946 0.020000
v 1.924946 0.175054 -0.020000
v 1.904946 0.175054 0.000000
v 1.904946 0.324946 0.000000
v 1.924946 0.324946 -0.020000
v -1.924946 0.175054 -0.020000
v -1.924946 0.324946 -0.020000
v -1.924946 0.175054 0.020000
v -1.904946 0.175054 -0.000000
v -1.904946 0.324946 -0.000000
v -1.924946 0.324946 0.020000
vt 0.707336 0.824387
vt 0.707336 0.894364
vt 0.707336 0.894364
vt 0.707336 0.824387
vt 0.708942 0.830952
vt 0.708942 0.887799
vt 0.688929 0.887799
vt 0.688929 0.830952
vt 0.719389 0.824387
vt 0.719389 0.894364
vt 0.708765 0.894364
vt 0.708765 0.824387
vt 0.720818 0.824387
vt 0.720818 0.894364
vt 0.720818 0.894364
vt 0.720818 0.824387
vt 0.707336 0.824387
vt 0.707336 0.894364
vt 0.707336 0.894364
vt 0.707336 0.824387
vt 0.708765 0.824387
vt 0.708765 0.894364
vt 0.719389 0.894364
vt 0.719389 0.824387
vt 0.719389 0.824387
vt 0.719389 0.894364
vt 0.708765 0.894364
vt 0.708765 0.824387
vt 0.720818 0.824387
vt 0.720818 0.894364
vt 0.720818 0.894364
vt 0.720818 0.824387
vt 0.654181 0.824387
vt 0.654181 0.894364
vt 0.654181 0.894364
vt 0.654181 0.824387
vt 0.708765 0.824387
vt 0.708765 0.894364
vt 0.719389 0.894364
vt 0.719389 0.824387
vt 0.666234 0.824387
vt 0.666234 0.894364
vt 0.655610 0.894364
vt 0.655610 0.824387
vt 0.667663 0.824387
vt 0.667663 0.894364
vt 0.667663 0.894364
vt 0.667663 0.824387
vt 0.654181 0.824387
vt 0.654181 0.894364
vt 0.654181 0.894364
vt 0.654181 0.824387
vt 0.655610 0.824387
vt 0.655610 0.894364
vt 0.666234 0.894364
vt 0.666234 0.824387
vt 0.666234 0.824387
vt 0.666234 0.894364
vt 0.655610 0.894364
vt 0.655610 0.824387
vt 0.667663 0.824387
vt 0.667663 0.894364
vt 0.667663 0.894364
vt 0.667663 0.824387
vt 0.653205 0.885617
vt 0.721794 0.885617
vt 0.721794 0.885617
vt 0.653205 0.885617
vt 0.655610 0.824387
vt 0.655610 0.894364
vt 0.666234 0.894364
vt 0.666234 0.824387
vt 0.721794 0.887366
vt 0.721794 0.901361
vt 0.653205 0.901361
vt 0.653205 0.887366
vt 0.723223 0.887366
vt 0.723223 0.901361
vt 0.723223 0.901361
vt 0.723223 0.887366
vt 0.653205 0.885617
vt 0.721794 0.885617
vt 0.721794 0.885617
vt 0.653205 0.885617
vt 0.721794 0.903111
vt 0.653205 0.903111
vt 0.653205 0.903111
vt 0.721794 0.903111
vt 0.651776 0.887366
vt 0.651776 0.901361
vt 0.651776 0.901361
vt 0.651776 0.887366
vt 0.723223 0.887366
vt 0.723223 0.901361
vt 0.723223 0.901361
vt 0.723223 0.887366
vt 0.653205 0.885617
vt 0.721794 0.885616
vt 0.721794 0.885617
vt 0.653205 0.885617
vt 0.721794 0.903111
vt 0.653205 0.903111
vt 0.653205 0.903111
vt 0.721794 0.903111
vt 0.651776 0.887366
vt 0.651776 0.901361
vt 0.651776 0.901361
vt 0.651776 0.887366
vt 0.723223 0.887366
vt 0.723223 0.901361
vt 0.723223 0.901361
vt 0.723223 0.887366
vt 0.653205 0.815640
vt 0.721794 0.815640
vt 0.721794 0.815640
vt 0.653205 0.815640
vt 0.721794 0.903111
vt 0.653205 0.903111
vt 0.653205 0.903111
vt 0.721794 0.903111
vt 0.651776 0.887366
vt 0.651776 0.901361
vt 0.651776 0.901361
vt 0.651776 0.887366
vt 0.653205 0.887366
vt 0.653205 0.901361
vt 0.721794 0.901361
vt 0.721794 0.887366
vt 0.721794 0.817390
vt 0.721794 0.831385
vt 0.653205 0.831385
vt 0.653205 0.817390
vt 0.723223 0.817390
vt 0.723223 0.831385
vt 0.723223 0.831385
vt 0.723223 0.817390
vt 0.653205 0.815640
vt 0.721794 0.815640
vt 0.721794 0.815640
vt 0.653205 0.815640
vt 0.721794 0.833134
vt 0.653205 0.833134
vt 0.653205 0.833134
vt 0.721794 0.833134
vt 0.651776 0.817390
vt 0.651776 0.831385
vt 0.651776 0.831385
vt 0.651776 0.817390
vt 0.723223 0.817390
vt 0.723223 0.831385
vt 0.723223 0.831385
vt 0.723223 0.817390
vt 0.653205 0.815640
vt 0.721794 0.815640
vt 0.721794 0.815640
vt 0.653205 0.815640
vt 0.721794 0.833134
vt 0.653205 0.833134
vt 0.653205 0.833134
vt 0.721794 0.833134
vt 0.651776 0.817390
vt 0.651776 0.831385
vt 0.651776 0.831385
vt 0.651776 0.817390
vt 0.723223 0.817390
vt 0.723223 0.831385
vt 0.723223 0.831385
vt 0.723223 0.817390
vt 0.688929 0.830952
vt 0.688929 0.887799
vt 0.708942 0.887799
vt 0.708942 0.830952
vt 0.721794 0.833134
vt 0.653205 0.833134
vt 0.653205 0.833134
vt 0.721794 0.833134
vt 0.651776 0.817390
vt 0.651776 0.831385
vt 0.651776 0.831385
vt 0.651776 0.817390
vt 0.653205 0.817390
vt 0.653205 0.831385
vt 0.721794 0.831385
vt 0.721794 0.817390
vt 0.717861 0.830952
vt 0.717860 0.887799
vt 0.717861 0.887799
vt 0.717861 0.830952
vt 0.666057 0.830952
vt 0.666057 0.887799
vt 0.686071 0.887799
vt 0.686071 0.830952
vt 0.657139 0.830952
vt 0.657139 0.887799
vt 0.657139 0.887799
vt 0.657139 0.830952
vt 0.717861 0.830952
vt 0.717861 0.887799
vt 0.717861 0.887799
vt 0.717861 0.830952
vt 0.657139 0.830952
vt 0.657139 0.887799
vt 0.657139 0.887799
vt 0.657139 0.830952
vt 0.653205 0.932492
vt 0.653205 0.934241
vt 0.651776 0.934241
vt 0.653205 0.948236
vt 0.653205 0.949986
vt 0.651776 0.948236
vt 0.653205 0.932492
vt 0.651776 0.934241
vt 0.653205 0.934241
vt 0.653205 0.949986
vt 0.653205 0.948236
vt 0.651776 0.948236
vt 0.721794 0.932492
vt 0.723223 0.934241
vt 0.721794 0.934241
vt 0.721794 0.949986
vt 0.721794 0.948236
vt 0.723223 0.948236
vt 0.721794 0.932492
vt 0.721794 0.934241
vt 0.723223 0.934241
vt 0.721794 0.949986
vt 0.723223 0.948236
vt 0.721794 0.948236
vt 0.653205 0.932492
vt 0.651776 0.934241
vt 0.653205 0.949986
vt 0.651776 0.948236
vt 0.653205 0.932492
vt 0.651776 0.934241
vt 0.653205 0.934241
vt 0.653205 0.949986
vt 0.653205 0.948236
vt 0.651776 0.948236
vt 0.721794 0.932492
vt 0.723223 0.934241
vt 0.721794 0.949986
vt 0.723223 0.948236
vt 0.721794 0.932492
vt 0.721794 0.934241
vt 0.723223 0.934241
vt 0.721794 0.949986
vt 0.723223 0.948236
vt 0.721794 0.948236
vt 0.653205 0.932492
vt 0.651776 0.934241
vt 0.653205 0.949986
vt 0.651776 0.948236
vt 0.653205 0.932492
vt 0.651776 0.934241
vt 0.653205 0.934241
vt 0.653205 0.949986
vt 0.653205 0.948236
vt 0.651776 0.948236
vt 0.721794 0.932492
vt 0.723223 0.934241
vt 0.721794 0.949986
vt 0.723223 0.948236
vt 0.721794 0.932491
vt 0.721794 0.934241
vt 0.723223 0.934241
vt 0.721794 0.949986
vt 0.723223 0.948236
vt 0.721794 0.948236
vt 0.653205 0.862515
vt 0.653205 0.864265
vt 0.651776 0.864265
vt 0.653205 0.878260
vt 0.653205 0.880009
vt 0.651776 0.878260
vt 0.653205 0.862515
vt 0.651776 0.864265
vt 0.653205 0.864265
vt 0.653205 0.880009
vt 0.653205 0.878260
vt 0.651776 0.878260
vt 0.721794 0.862515
vt 0.723223 0.864265
vt 0.721794 0.864265
vt 0.721794 0.880009
vt 0.721794 0.878260
vt 0.723223 0.878260
vt 0.721794 0.862515
vt 0.721794 0.864265
vt 0.723223 0.864265
vt 0.721794 0.880009
vt 0.723223 0.878260
vt 0.721794 0.878260
vt 0.653205 0.862515
vt 0.651776 0.864265
vt 0.653205 0.880009
vt 0.651776 0.878260
vt 0.653205 0.862515
vt 0.651776 0.864265
vt 0.653205 0.864265
vt 0.653205 0.880009
vt 0.653205 0.878260
vt 0.651776 0.878260
vt 0.721794 0.862515
vt 0.723223 0.864265
vt 0.721794 0.880009
vt 0.723223 0.878260
vt 0.721794 0.862515
vt 0.721794 0.864265
vt 0.723223 0.864265
vt 0.721794 0.880009
vt 0.723223 0.878260
vt 0.721794 0.878260
vt 0.653205 0.862515
vt 0.651776 0.864265
vt 0.653205 0.880009
vt 0.651776 0.878260
vt 0.653205 0.862515
vt 0.651776 0.864265
vt 0.653205 0.864265
vt 0.653205 0.880009
vt 0.653205 0.878260
vt 0.651776 0.878260
vt 0.721794 0.862515
vt 0.723223 0.864265
vt 0.721794 0.880009
vt 0.723223 0.878260
vt 0.721794 0.862515
vt 0.721794 0.864265
vt 0.723223 0.864265
vt 0.721794 0.880009
vt 0.723223 0.878260
vt 0.721794 0.878260
vt 0.686071 0.934674
vt 0.686071 0.877827
vt 0.687500 0.877827
vt 0.687500 0.934674
vt 0.688929 0.877827
vt 0.688929 0.934674
vt 0.708765 0.871262
vt 0.708765 0.941239
vt 0.707336 0.941239
vt 0.707336 0.871262
vt 0.708765 0.941239
vt 0.708765 0.871262
vt 0.707336 0.871262
vt 0.707336 0.941239
vt 0.720818 0.941239
vt 0.720818 0.871262
vt 0.719389 0.871262
vt 0.719389 0.941239
vt 0.719389 0.941239
vt 0.719389 0.871262
vt 0.720818 0.871262
vt 0.720818 0.941239
vt 0.708765 0.871262
vt 0.708765 0.941239
vt 0.707336 0.941239
vt 0.707336 0.871262
vt 0.708765 0.941239
vt 0.708765 0.871262
vt 0.707336 0.871262
vt 0.707336 0.941239
vt 0.720818 0.941239
vt 0.720818 0.871262
vt 0.719389 0.871262
vt 0.719389 0.941239
vt 0.719389 0.941239
vt 0.719389 0.871262
vt 0.720818 0.871262
vt 0.720818 0.941239
vt 0.655610 0.871262
vt 0.655610 0.941239
vt 0.654181 0.941239
vt 0.654181 0.871262
vt 0.655610 0.941239
vt 0.655610 0.871262
vt 0.654181 0.871262
vt 0.654181 0.941239
vt 0.667663 0.941239
vt 0.667663 0.871262
vt 0.666234 0.871262
vt 0.666234 0.941239
vt 0.666234 0.941239
vt 0.666234 0.871262
vt 0.667663 0.871262
vt 0.667663 0.941239
vt 0.655610 0.871262
vt 0.655610 0.941239
vt 0.654181 0.941239
vt 0.654181 0.871262
vt 0.655610 0.941239
vt 0.655610 0.871262
vt 0.654181 0.871262
vt 0.654181 0.941239
vt 0.667663 0.941239
vt 0.667663 0.871262
vt 0.666234 0.871262
vt 0.666234 0.941239
vt 0.666234 0.941239
vt 0.666234 0.871262
vt 0.667663 0.871262
vt 0.667663 0.941239
vt 0.688929 0.934674
vt 0.688929 0.877827
vt 0.687500 0.877827
vt 0.687500 0.934674
vt 0.686071 0.877827
vt 0.686071 0.934674
vt 0.717860 0.934674
vt 0.717861 0.877827
vt 0.716432 0.877827
vt 0.716432 0.934674
vt 0.717861 0.877827
vt 0.717861 0.934674
vt 0.657139 0.934674
vt 0.657139 0.877827
vt 0.658568 0.877827
vt 0.658568 0.934674
vt 0.657139 0.877827
vt 0.657139 0.934674
vt 0.686071 0.830952
vt 0.686071 0.887799
vt 0.666057 0.887799
vt 0.666057 0.830952
vn -1.0000 0.0000 0.0000
vn 0.0000 0.0000 1.0000
vn 1.0000 0.0000 0.0000
vn 0.0000 0.0000 -1.0000
vn 0.0000 -1.0000 0.0000
vn 0.0000 1.0000 0.0000
vn -0.5774 -0.5773 0.5774
vn -0.5774 0.5773 0.5774
vn -0.5774 -0.5773 -0.5774
vn -0.5774 0.5773 -0.5774
vn 0.5774 -0.5774 0.5773
vn 0.5773 0.5773 0.5774
vn 0.5774 -0.5774 -0.5773
vn 0.5773 0.5773 -0.5774
vn -0.5774 -0.5774 0.5773
vn -0.5774 0.5774 0.5773
vn -0.5774 -0.5773 -0.5773
vn -0.5774 0.5773 -0.5773
vn 0.5774 -0.5773 0.5773
vn 0.5774 0.5773 0.5774
vn 0.5774 -0.5773 -0.5773
vn 0.5774 0.5773 -0.5774
vn 0.5774 -0.5774 0.5774
vn 0.5774 0.5774 0.5774
vn 0.5774 -0.5774 -0.5774
vn 0.5774 0.5774 -0.5774
vn 0.5774 0.5773 0.5773
vn 0.5774 0.5773 -0.5773
vn 0.7071 0.0000 0.7071
vn -0.7071 -0.0000 0.7071
vn -0.7071 0.0000 -0.7071
vn 0.7071 0.0000 -0.7071
vn -0.7071 -0.7071 0.0000
vn -0.7071 0.7071 0.0000
vn 0.0000 -0.7071 -0.7071
vn 0.0000 0.7071 -0.7071
vn 0.7071 -0.7071 0.0000
vn 0.7071 0.7071 0.0000
vn 0.0000 -0.7071 0.7071
vn 0.0000 0.7071 0.7071
usemtl platformer
s off
f 24/1/1 25/2/1 30/3/1 27/4/1
f 3/5/2 4/6/2 22/7/2 19/8/2
f 32/9/2 33/10/2 26/11/2 23/12/2
f 36/13/3 37/14/3 34/15/3 31/16/3
f 40/17/1 41/18/1 46/19/1 43/20/1
f 28/21/4 29/22/4 38/23/4 35/24/4
f 48/25/2 49/26/2 42/27/2 39/28/2
f 52/29/3 53/30/3 50/31/3 47/32/3
f 56/33/1 57/34/1 62/35/1 59/36/1
f 44/37/4 45/38/4 54/39/4 51/40/4
f 64/41/2 65/42/2 58/43/2 55/44/2
f 68/45/3 69/46/3 66/47/3 63/48/3
f 72/49/1 73/50/1 78/51/1 75/52/1
f 60/53/4 61/54/4 70/55/4 67/56/4
f 80/57/2 81/58/2 74/59/2 71/60/2
f 84/61/3 85/62/3 82/63/3 79/64/3
f 93/65/5 104/66/5 98/67/5 87/68/5
f 76/69/4 77/70/4 86/71/4 83/72/4
f 100/73/2 102/74/2 90/75/2 88/76/2
f 106/77/3 108/78/3 103/79/3 99/80/3
f 114/81/5 123/82/5 118/83/5 109/84/5
f 107/85/6 95/86/6 91/87/6 101/88/6
f 89/89/1 92/90/1 97/91/1 94/92/1
f 124/93/3 126/94/3 122/95/3 119/96/3
f 133/97/5 145/98/5 139/99/5 127/100/5
f 125/101/6 116/102/6 112/103/6 120/104/6
f 111/105/1 113/106/1 117/107/1 115/108/1
f 147/109/3 149/110/3 144/111/3 140/112/3
f 157/113/5 167/114/5 161/115/5 151/116/5
f 148/117/6 136/118/6 131/119/6 142/120/6
f 129/121/1 132/122/1 138/123/1 134/124/1
f 135/125/4 137/126/4 150/127/4 146/128/4
f 163/129/2 165/130/2 154/131/2 152/132/2
f 168/133/3 170/134/3 166/135/3 162/136/3
f 178/137/5 187/138/5 182/139/5 172/140/5
f 169/141/6 159/142/6 155/143/6 164/144/6
f 153/145/1 156/146/1 160/147/1 158/148/1
f 189/149/3 191/150/3 186/151/3 183/152/3
f 198/153/5 209/154/5 204/155/5 192/156/5
f 190/157/6 180/158/6 176/159/6 185/160/6
f 174/161/1 177/162/1 181/163/1 179/164/1
f 211/165/3 213/166/3 208/167/3 205/168/3
f 215/169/4 216/170/4 6/171/4 5/172/4
f 212/173/6 201/174/6 196/175/6 206/176/6
f 194/177/1 197/178/1 203/179/1 199/180/1
f 200/181/4 202/182/4 214/183/4 210/184/4
f 221/185/3 222/186/3 10/187/3 9/188/3
f 7/189/4 8/190/4 220/191/4 217/192/4
f 227/193/1 228/194/1 14/195/1 13/196/1
f 11/197/3 12/198/3 226/199/3 223/200/3
f 15/201/1 16/202/1 232/203/1 229/204/1
f 87/205/7 88/206/7 89/207/7
f 90/208/8 91/209/8 92/210/8
f 93/211/9 94/212/9 110/213/9
f 95/214/10 96/215/10 97/216/10
f 98/217/11 99/218/11 100/219/11
f 101/220/12 102/221/12 103/222/12
f 104/223/13 105/224/13 106/225/13
f 107/226/14 108/227/14 121/228/14
f 109/229/15 110/213/15 111/230/15
f 96/215/16 112/231/16 113/232/16
f 114/233/17 115/234/17 128/235/17
f 116/236/18 130/237/18 117/238/18
f 118/239/19 119/240/19 105/224/19
f 120/241/20 121/228/20 122/242/20
f 123/243/21 141/244/21 124/245/21
f 125/246/22 126/247/22 143/248/22
f 127/249/7 128/235/7 129/250/7
f 130/237/8 131/251/8 132/252/8
f 133/253/9 134/254/9 135/255/9
f 136/256/10 137/257/10 138/258/10
f 139/259/19 140/260/19 141/244/19
f 142/261/20 143/248/20 144/262/20
f 145/263/13 146/264/13 147/265/13
f 148/266/14 149/267/14 150/268/14
f 151/269/7 152/270/7 153/271/7
f 154/272/8 155/273/8 156/274/8
f 157/275/9 158/276/9 173/277/9
f 159/278/10 175/279/10 160/280/10
f 161/281/23 162/282/23 163/283/23
f 164/284/24 165/285/24 166/286/24
f 167/287/25 184/288/25 168/289/25
f 169/290/26 170/291/26 171/292/26
f 172/293/15 173/277/15 174/294/15
f 175/279/16 176/295/16 177/296/16
f 178/297/17 179/298/17 193/299/17
f 180/300/18 195/301/18 181/302/18
f 182/303/19 183/304/19 184/288/19
f 185/305/27 171/292/27 186/306/27
f 187/307/21 188/308/21 189/309/21
f 190/310/28 191/311/28 207/312/28
f 192/313/7 193/299/7 194/314/7
f 195/301/8 196/315/8 197/316/8
f 198/317/9 199/318/9 200/319/9
f 201/320/10 202/321/10 203/322/10
f 204/323/19 205/324/19 188/308/19
f 206/325/27 207/312/27 208/326/27
f 209/327/25 210/328/25 211/329/25
f 212/330/26 213/331/26 214/332/26
f 18/333/29 17/334/29 20/335/29 21/336/29
f 21/336/30 20/335/30 19/337/30 22/338/30
f 23/339/30 26/340/30 25/341/30 24/342/30
f 29/343/31 28/344/31 27/345/31 30/346/31
f 37/347/32 36/348/32 35/349/32 38/350/32
f 33/351/29 32/352/29 31/353/29 34/354/29
f 39/355/30 42/356/30 41/357/30 40/358/30
f 45/359/31 44/360/31 43/361/31 46/362/31
f 53/363/32 52/364/32 51/365/32 54/366/32
f 49/367/29 48/368/29 47/369/29 50/370/29
f 55/371/30 58/372/30 57/373/30 56/374/30
f 61/375/31 60/376/31 59/377/31 62/378/31
f 69/379/32 68/380/32 67/381/32 70/382/32
f 65/383/29 64/384/29 63/385/29 66/386/29
f 71/387/30 74/388/30 73/389/30 72/390/30
f 77/391/31 76/392/31 75/393/31 78/394/31
f 85/395/32 84/396/32 83/397/32 86/398/32
f 81/399/29 80/400/29 79/401/29 82/402/29
f 93/211/33 87/205/33 89/207/33 94/212/33
f 88/206/30 90/208/30 92/210/30 89/207/30
f 91/209/34 95/214/34 97/216/34 92/210/34
f 96/215/31 110/213/31 94/212/31 97/216/31
f 104/223/35 93/211/35 110/213/35 105/224/35
f 95/214/36 107/226/36 121/228/36 96/215/36
f 108/227/32 106/225/32 105/224/32 121/228/32
f 98/217/37 104/223/37 106/225/37 99/218/37
f 107/226/38 101/220/38 103/222/38 108/227/38
f 102/221/29 100/219/29 99/218/29 103/222/29
f 87/205/39 98/217/39 100/219/39 88/206/39
f 101/220/40 91/209/40 90/208/40 102/221/40
f 114/233/33 109/229/33 111/230/33 115/234/33
f 110/213/30 96/215/30 113/232/30 111/230/30
f 112/231/34 116/236/34 117/238/34 113/232/34
f 130/237/31 128/235/31 115/234/31 117/238/31
f 123/243/35 114/233/35 128/235/35 141/244/35
f 116/236/36 125/246/36 143/248/36 130/237/36
f 126/247/32 124/245/32 141/244/32 143/248/32
f 118/239/37 123/243/37 124/245/37 119/240/37
f 125/246/38 120/241/38 122/242/38 126/247/38
f 121/228/29 105/224/29 119/240/29 122/242/29
f 109/229/39 118/239/39 105/224/39 110/213/39
f 120/241/40 112/231/40 96/215/40 121/228/40
f 133/253/33 127/249/33 129/250/33 134/254/33
f 128/235/30 130/237/30 132/252/30 129/250/30
f 131/251/34 136/256/34 138/258/34 132/252/34
f 137/257/31 135/255/31 134/254/31 138/258/31
f 145/263/35 133/253/35 135/255/35 146/264/35
f 136/256/36 148/266/36 150/268/36 137/257/36
f 149/267/32 147/265/32 146/264/32 150/268/32
f 139/259/37 145/263/37 147/265/37 140/260/37
f 148/266/38 142/261/38 144/262/38 149/267/38
f 143/248/29 141/244/29 140/260/29 144/262/29
f 127/249/39 139/259/39 141/244/39 128/235/39
f 142/261/40 131/251/40 130/237/40 143/248/40
f 157/275/33 151/269/33 153/271/33 158/276/33
f 152/270/30 154/272/30 156/274/30 153/271/30
f 155/273/34 159/278/34 160/280/34 156/274/34
f 175/279/31 173/277/31 158/276/31 160/280/31
f 167/287/35 157/275/35 173/277/35 184/288/35
f 159/278/36 169/290/36 171/292/36 175/279/36
f 170/291/32 168/289/32 184/288/32 171/292/32
f 161/281/37 167/287/37 168/289/37 162/282/37
f 169/290/38 164/284/38 166/286/38 170/291/38
f 165/285/29 163/283/29 162/282/29 166/286/29
f 151/269/39 161/281/39 163/283/39 152/270/39
f 164/284/40 155/273/40 154/272/40 165/285/40
f 178/297/33 172/293/33 174/294/33 179/298/33
f 173/277/30 175/279/30 177/296/30 174/294/30
f 176/295/34 180/300/34 181/302/34 177/296/34
f 195/301/31 193/299/31 179/298/31 181/302/31
f 187/307/35 178/297/35 193/299/35 188/308/35
f 180/300/36 190/310/36 207/312/36 195/301/36
f 191/311/32 189/309/32 188/308/32 207/312/32
f 182/303/37 187/307/37 189/309/37 183/304/37
f 190/310/38 185/305/38 186/306/38 191/311/38
f 171/292/29 184/288/29 183/304/29 186/306/29
f 172/293/39 182/303/39 184/288/39 173/277/39
f 185/305/40 176/295/40 175/279/40 171/292/40
f 198/317/33 192/313/33 194/314/33 199/318/33
f 193/299/30 195/301/30 197/316/30 194/314/30
f 196/315/34 201/320/34 203/322/34 197/316/34
f 202/321/31 200/319/31 199/318/31 203/322/31
f 209/327/35 198/317/35 200/319/35 210/328/35
f 201/320/36 212/330/36 214/332/36 202/321/36
f 213/331/32 211/329/32 210/328/32 214/332/32
f 204/323/37 209/327/37 211/329/37 205/324/37
f 212/330/38 206/325/38 208/326/38 213/331/38
f 207/312/29 188/308/29 205/324/29 208/326/29
f 192/313/39 204/323/39 188/308/39 193/299/39
f 206/325/40 196/315/40 195/301/40 207/312/40
f 216/403/31 215/404/31 218/405/31 219/406/31
f 219/406/32 218/405/32 217/407/32 220/408/32
f 222/409/32 221/410/32 224/411/32 225/412/32
f 225/412/29 224/411/29 223/413/29 226/414/29
f 228/415/30 227/416/30 230/417/30 231/418/30
f 231/418/31 230/417/31 229/419/31 232/420/31
f 17/421/2 18/422/2 2/423/2 1/424/2
