# Blender v3.4.1 OBJ File: 'Platformer_Pack_Export_FREE.blend'
# www.blender.org
mtllib pillar_1x1x1.mtl
o pillar_1x1x1
v -0.400000 0.180000 0.380000
v -0.380000 0.180000 0.400000
v -0.380000 0.200000 0.380000
v -0.400000 0.180000 -0.380000
v -0.380000 0.200000 -0.380000
v -0.380000 0.180000 -0.400000
v -0.400000 0.020000 0.380000
v -0.380000 -0.000000 0.380000
v -0.380000 0.020000 0.400000
v -0.400000 0.020000 -0.380000
v -0.380000 0.020000 -0.400000
v -0.380000 -0.000000 -0.380000
v 0.400000 0.180000 0.380000
v 0.380000 0.200000 0.380000
v 0.380000 0.180000 0.400000
v 0.400000 0.180000 -0.380000
v 0.380000 0.180000 -0.400000
v 0.380000 0.200000 -0.380000
v 0.380000 -0.000000 0.380000
v 0.400000 0.020000 0.380000
v 0.380000 0.020000 0.400000
v 0.380000 -0.000000 -0.380000
v 0.380000 0.020000 -0.400000
v 0.400000 0.020000 -0.380000
v 0.300000 0.173518 -0.346652
v 0.300000 0.219389 -0.300000
v 0.340402 0.173518 -0.323326
v 0.340402 0.173518 -0.276674
v 0.300000 0.173518 -0.253348
v 0.259599 0.173518 -0.276674
v 0.259599 0.173518 -0.323326
v 0.344826 0.214804 -0.325880
v 0.300000 0.214804 -0.351761
v 0.344826 0.214804 -0.274120
v 0.300000 0.214804 -0.248239
v 0.255174 0.214804 -0.274120
v 0.255174 0.214804 -0.325880
v 0.300000 0.173518 0.346652
v 0.300000 0.219389 0.300000
v 0.259598 0.173518 0.323326
v 0.259598 0.173518 0.276674
v 0.300000 0.173518 0.253348
v 0.340402 0.173518 0.276674
v 0.340402 0.173518 0.323326
v 0.255174 0.214804 0.325881
v 0.300000 0.214804 0.351761
v 0.255174 0.214804 0.274120
v 0.300000 0.214804 0.248240
v 0.344826 0.214804 0.274120
v 0.344826 0.214804 0.325881
v -0.300000 0.173518 0.346652
v -0.300000 0.219389 0.300000
v -0.340402 0.173518 0.323326
v -0.340402 0.173518 0.276674
v -0.300000 0.173518 0.253348
v -0.259599 0.173518 0.276674
v -0.259599 0.173518 0.323326
v -0.344827 0.214804 0.325880
v -0.300000 0.214804 0.351761
v -0.344827 0.214804 0.274119
v -0.300000 0.214804 0.248239
v -0.255174 0.214804 0.274119
v -0.255174 0.214804 0.325880
v -0.300000 0.173518 -0.346653
v -0.300000 0.219389 -0.300001
v -0.259598 0.173518 -0.323327
v -0.259598 0.173518 -0.276675
v -0.300000 0.173518 -0.253349
v -0.340402 0.173518 -0.276675
v -0.340402 0.173518 -0.323327
v -0.255174 0.214804 -0.325881
v -0.300000 0.214804 -0.351761
v -0.255174 0.214804 -0.274120
v -0.300000 0.214804 -0.248240
v -0.344826 0.214804 -0.274120
v -0.344826 0.214804 -0.325881
v -0.103546 0.800008 -0.250000
v -0.103546 0.200008 -0.250000
v -0.249992 0.800007 -0.103553
v -0.249992 0.200008 -0.103554
v -0.249992 0.800007 0.103554
v -0.249992 0.200008 0.103553
v -0.103546 0.800007 0.250000
v -0.103546 0.200008 0.250000
v 0.103561 0.800007 0.250000
v 0.103561 0.200008 0.250000
v 0.250008 0.800007 0.103554
v 0.250008 0.200008 0.103553
v 0.250008 0.800008 -0.103553
v 0.250008 0.200008 -0.103554
v 0.103561 0.800008 -0.250000
v 0.103561 0.200008 -0.250000
v -0.300000 0.826482 -0.346652
v -0.300000 0.780611 -0.300000
v -0.340402 0.826482 -0.323326
v -0.340402 0.826482 -0.276674
v -0.300000 0.826482 -0.253348
v -0.259599 0.826482 -0.276674
v -0.259599 0.826482 -0.323326
v -0.344827 0.785196 -0.325880
v -0.300000 0.785196 -0.351761
v -0.344827 0.785196 -0.274120
v -0.300000 0.785196 -0.248239
v -0.255174 0.785196 -0.274120
v -0.255174 0.785196 -0.325880
v -0.300000 0.826482 0.346652
v -0.300000 0.780611 0.300000
v -0.259598 0.826482 0.323326
v -0.259598 0.826482 0.276674
v -0.300000 0.826482 0.253348
v -0.340402 0.826482 0.276674
v -0.340402 0.826482 0.323326
v -0.255174 0.785196 0.325881
v -0.300000 0.785196 0.351761
v -0.255174 0.785196 0.274120
v -0.300000 0.785196 0.248240
v -0.344826 0.785196 0.274120
v -0.344826 0.785196 0.325881
v 0.300000 0.826481 0.346652
v 0.300000 0.780611 0.300000
v 0.340402 0.826481 0.323326
v 0.340402 0.826481 0.276674
v 0.300000 0.826481 0.253348
v 0.259599 0.826481 0.276674
v 0.259599 0.826481 0.323326
v 0.344826 0.785196 0.325880
v 0.300000 0.785196 0.351760
v 0.344826 0.785196 0.274119
v 0.300000 0.785196 0.248239
v 0.255174 0.785196 0.274119
v 0.255174 0.785196 0.325880
v 0.300000 0.826482 -0.346653
v 0.300000 0.780611 -0.300001
v 0.259598 0.826482 -0.323327
v 0.259598 0.826482 -0.276675
v 0.300000 0.826482 -0.253349
v 0.340402 0.826482 -0.276675
v 0.340402 0.826482 -0.323327
v 0.255174 0.785196 -0.325881
v 0.300000 0.785196 -0.351761
v 0.255174 0.785196 -0.274120
v 0.300000 0.785196 -0.248240
v 0.344826 0.785196 -0.274120
v 0.344826 0.785196 -0.325881
v -0.400000 0.980000 0.380000
v -0.380000 0.980000 0.400000
v -0.380000 1.000000 0.380000
v -0.400000 0.980000 -0.380000
v -0.380000 1.000000 -0.380000
v -0.380000 0.980000 -0.400000
v -0.400000 0.820000 0.380000
v -0.380000 0.800000 0.380000
v -0.380000 0.820000 0.400000
v -0.400000 0.820000 -0.380000
v -0.380000 0.820000 -0.400000
v -0.380000 0.800000 -0.380000
v 0.400000 0.980000 0.380000
v 0.380000 1.000000 0.380000
v 0.380000 0.980000 0.400000
v 0.400000 0.980000 -0.380000
v 0.380000 0.980000 -0.400000
v 0.380000 1.000000 -0.380000
v 0.380000 0.800000 0.380000
v 0.400000 0.820000 0.380000
v 0.380000 0.820000 0.400000
v 0.380000 0.800000 -0.380000
v 0.380000 0.820000 -0.400000
v 0.400000 0.820000 -0.380000
vt 0.352692 0.828032
vt 0.266611 0.828032
vt 0.266611 0.841892
vt 0.352692 0.841892
vt 0.352692 0.844413
vt 0.352692 0.844413
vt 0.266611 0.844413
vt 0.266611 0.844413
vt 0.266611 0.825512
vt 0.266611 0.825512
vt 0.352692 0.825512
vt 0.352692 0.825512
vt 0.266611 0.828032
vt 0.352692 0.828032
vt 0.352692 0.841892
vt 0.266611 0.841892
vt 0.355766 0.828032
vt 0.355766 0.828032
vt 0.355766 0.841892
vt 0.355766 0.841892
vt 0.263537 0.873142
vt 0.266611 0.873142
vt 0.266611 0.875663
vt 0.263537 0.873142
vt 0.266611 0.875663
vt 0.266611 0.873142
vt 0.263537 0.859282
vt 0.266611 0.856762
vt 0.266611 0.859282
vt 0.263537 0.859282
vt 0.266611 0.859282
vt 0.266611 0.856762
vt 0.355766 0.873142
vt 0.352692 0.875663
vt 0.352692 0.873142
vt 0.355766 0.873142
vt 0.352692 0.873142
vt 0.352692 0.875663
vt 0.352692 0.856762
vt 0.355766 0.859282
vt 0.352692 0.859282
vt 0.352692 0.856762
vt 0.352692 0.859282
vt 0.355766 0.859282
vt 0.263537 0.841892
vt 0.263537 0.841892
vt 0.263537 0.828032
vt 0.263537 0.828032
vt 0.312500 0.823675
vt 0.312500 0.877819
vt 0.335604 0.877819
vt 0.335604 0.823675
vt 0.335604 0.877819
vt 0.335604 0.823675
vt 0.312500 0.877819
vt 0.312500 0.823675
vt 0.289396 0.877819
vt 0.289396 0.823675
vt 0.289396 0.877819
vt 0.289396 0.823675
vt 0.312500 0.930267
vt 0.335604 0.906906
vt 0.312500 0.906906
vt 0.335604 0.906906
vt 0.312500 0.906906
vt 0.289396 0.906906
vt 0.289396 0.906906
vt 0.312500 0.823675
vt 0.312500 0.877819
vt 0.335604 0.877819
vt 0.335604 0.823675
vt 0.335604 0.877819
vt 0.335604 0.823675
vt 0.312500 0.877819
vt 0.312500 0.823675
vt 0.289396 0.877819
vt 0.289396 0.823675
vt 0.289396 0.877819
vt 0.289396 0.823675
vt 0.312500 0.930267
vt 0.335604 0.906906
vt 0.312500 0.906906
vt 0.335604 0.906906
vt 0.312500 0.906906
vt 0.289396 0.906906
vt 0.289396 0.906906
vt 0.312500 0.823675
vt 0.312500 0.877819
vt 0.335604 0.877819
vt 0.335604 0.823675
vt 0.335604 0.877819
vt 0.335604 0.823675
vt 0.312500 0.877819
vt 0.312500 0.823675
vt 0.289396 0.877819
vt 0.289396 0.823675
vt 0.289396 0.877819
vt 0.289396 0.823675
vt 0.312500 0.930267
vt 0.335604 0.906906
vt 0.312500 0.906906
vt 0.335604 0.906906
vt 0.312500 0.906906
vt 0.289396 0.906906
vt 0.289396 0.906906
vt 0.312500 0.823675
vt 0.312500 0.877819
vt 0.335604 0.877819
vt 0.335604 0.823675
vt 0.335604 0.877819
vt 0.335604 0.823675
vt 0.312500 0.877819
vt 0.312500 0.823675
vt 0.289396 0.877819
vt 0.289396 0.823675
vt 0.289396 0.877819
vt 0.289396 0.823675
vt 0.312500 0.930267
vt 0.335604 0.906906
vt 0.312500 0.906906
vt 0.335604 0.906906
vt 0.312500 0.906906
vt 0.289396 0.906906
vt 0.289396 0.906906
vt 0.302929 0.928046
vt 0.302929 0.844194
vt 0.265539 0.844194
vt 0.265539 0.928046
vt 0.265539 0.844194
vt 0.265539 0.928046
vt 0.302929 0.844194
vt 0.302929 0.928046
vt 0.311612 0.844194
vt 0.311612 0.928046
vt 0.349002 0.844194
vt 0.349002 0.928046
vt 0.349002 0.844194
vt 0.349002 0.928046
vt 0.311612 0.844194
vt 0.311612 0.928046
vt 0.312500 0.823675
vt 0.312500 0.877819
vt 0.335604 0.877819
vt 0.335604 0.823675
vt 0.335604 0.877819
vt 0.335604 0.823675
vt 0.312500 0.877819
vt 0.312500 0.823675
vt 0.289396 0.877819
vt 0.289396 0.823675
vt 0.289396 0.877819
vt 0.289396 0.823675
vt 0.312500 0.930267
vt 0.335604 0.906906
vt 0.312500 0.906906
vt 0.335604 0.906906
vt 0.312500 0.906906
vt 0.289396 0.906906
vt 0.289396 0.906906
vt 0.312500 0.823675
vt 0.312500 0.877819
vt 0.335604 0.877819
vt 0.335604 0.823675
vt 0.335604 0.877819
vt 0.335604 0.823675
vt 0.312500 0.877819
vt 0.312500 0.823675
vt 0.289396 0.877819
vt 0.289396 0.823675
vt 0.289396 0.877819
vt 0.289396 0.823675
vt 0.312500 0.930267
vt 0.335604 0.906906
vt 0.312500 0.906906
vt 0.335604 0.906906
vt 0.312500 0.906906
vt 0.289396 0.906906
vt 0.289396 0.906906
vt 0.312500 0.823675
vt 0.312500 0.877819
vt 0.335604 0.877819
vt 0.335604 0.823675
vt 0.335604 0.877819
vt 0.335604 0.823675
vt 0.312500 0.877819
vt 0.312500 0.823675
vt 0.289396 0.877819
vt 0.289396 0.823675
vt 0.289396 0.877819
vt 0.289396 0.823675
vt 0.312500 0.930267
vt 0.335604 0.906906
vt 0.312500 0.906906
vt 0.335604 0.906906
vt 0.312500 0.906906
vt 0.289396 0.906906
vt 0.289396 0.906906
vt 0.312500 0.823675
vt 0.312500 0.877819
vt 0.335604 0.877819
vt 0.335604 0.823675
vt 0.335604 0.877819
vt 0.335604 0.823675
vt 0.312500 0.877819
vt 0.312500 0.823675
vt 0.289396 0.877819
vt 0.289396 0.823675
vt 0.289396 0.877819
vt 0.289396 0.823675
vt 0.312500 0.930267
vt 0.335604 0.906906
vt 0.312500 0.906906
vt 0.335604 0.906906
vt 0.312500 0.906906
vt 0.289396 0.906906
vt 0.289396 0.906906
vt 0.352692 0.906157
vt 0.266611 0.906157
vt 0.266611 0.920017
vt 0.352692 0.920017
vt 0.352692 0.922538
vt 0.352692 0.922538
vt 0.266611 0.922538
vt 0.266611 0.922538
vt 0.266611 0.903637
vt 0.266611 0.903637
vt 0.352692 0.903637
vt 0.352692 0.903637
vt 0.266611 0.906157
vt 0.352692 0.906157
vt 0.352692 0.920017
vt 0.266611 0.920017
vt 0.355766 0.906157
vt 0.355766 0.906157
vt 0.355766 0.920017
vt 0.355766 0.920017
vt 0.263537 0.951267
vt 0.266611 0.951267
vt 0.266611 0.953788
vt 0.263537 0.951267
vt 0.266611 0.953788
vt 0.266611 0.951267
vt 0.263537 0.937407
vt 0.266611 0.934887
vt 0.266611 0.937407
vt 0.263537 0.937407
vt 0.266611 0.937407
vt 0.266611 0.934887
vt 0.355766 0.951267
vt 0.352692 0.953788
vt 0.352692 0.951267
vt 0.355766 0.951267
vt 0.352692 0.951267
vt 0.352692 0.953788
vt 0.352692 0.934887
vt 0.355766 0.937407
vt 0.352692 0.937407
vt 0.352692 0.934887
vt 0.352692 0.937407
vt 0.355766 0.937407
vt 0.263537 0.920017
vt 0.263537 0.920017
vt 0.263537 0.906157
vt 0.263537 0.906157
vn 0.0000 0.0000 -1.0000
vn -0.3416 0.3416 -0.8756
vn 0.3416 0.3416 -0.8756
vn 0.3416 0.8756 0.3416
vn 0.0000 1.0000 0.0000
vn -0.3416 0.8756 0.3416
vn -0.3416 -0.8756 0.3416
vn -0.3416 -0.8756 -0.3416
vn 0.3416 -0.8756 -0.3416
vn 0.3416 -0.8756 0.3416
vn 0.0000 0.0000 1.0000
vn 0.8756 -0.3416 0.3416
vn 0.8756 -0.3416 -0.3416
vn 0.8756 0.3416 -0.3416
vn 0.8756 0.3416 0.3416
vn -0.8756 0.3416 0.3416
vn -0.4606 0.4606 0.7588
vn -0.8756 0.3416 -0.3416
vn -0.4606 0.7588 -0.4606
vn -0.8756 -0.3416 0.3416
vn -0.4606 -0.4606 0.7588
vn -0.8756 -0.3416 -0.3416
vn -0.4606 -0.4606 -0.7588
vn 0.4606 0.4606 0.7588
vn 0.4606 0.7588 -0.4606
vn 0.4606 -0.4606 0.7588
vn 0.4606 -0.4606 -0.7588
vn 0.4972 -0.1066 -0.8611
vn 0.9943 -0.1066 0.0000
vn 0.4972 -0.1066 0.8611
vn -0.4972 -0.1066 0.8611
vn -0.9943 -0.1066 0.0000
vn -0.4972 -0.1066 -0.8611
vn 0.0764 0.9961 -0.0441
vn -0.0000 0.9961 -0.0882
vn 0.0764 0.9961 0.0441
vn -0.0000 0.9961 0.0882
vn -0.0764 0.9961 0.0441
vn -0.0764 0.9961 -0.0441
vn -0.3827 0.0000 -0.9239
vn -0.9239 0.0000 -0.3827
vn -0.9239 -0.0000 0.3827
vn -0.7071 -0.0000 0.7071
vn 0.3827 -0.0000 0.9239
vn 0.9239 -0.0000 0.3827
vn 0.9239 0.0000 -0.3827
vn 0.7071 0.0000 -0.7071
vn -0.4972 0.1066 -0.8611
vn -0.9943 0.1066 0.0000
vn -0.4972 0.1066 0.8611
vn 0.4972 0.1066 0.8611
vn 0.9943 0.1066 0.0000
vn 0.4972 0.1066 -0.8611
vn 0.0000 -1.0000 -0.0000
vn -0.0764 -0.9961 -0.0441
vn 0.0000 -0.9961 -0.0882
vn -0.0764 -0.9961 0.0441
vn 0.0000 -0.9961 0.0882
vn 0.0764 -0.9961 0.0441
vn 0.0764 -0.9961 -0.0441
vn 0.3416 -0.3416 -0.8756
vn -0.3416 -0.3416 -0.8756
vn -0.3416 -0.3416 0.8756
vn 0.3416 -0.3416 0.8756
usemtl platformer
s 1
f 23/1/1 11/2/1 6/3/2 17/4/3
f 14/5/4 18/6/5 5/7/5 3/8/6
f 8/9/7 12/10/8 22/11/9 19/12/10
f 9/13/11 21/14/11 15/15/11 2/16/11
f 20/17/12 24/18/13 16/19/14 13/20/15
f 1/21/16 2/22/17 3/23/6
f 4/24/18 5/25/19 6/26/2
f 7/27/20 8/28/7 9/29/21
f 10/30/22 11/31/23 12/32/8
f 13/33/15 14/34/4 15/35/24
f 16/36/14 17/37/3 18/38/25
f 19/39/10 20/40/12 21/41/26
f 22/42/9 23/43/27 24/44/13
f 9/29/21 2/22/17 1/21/16 7/27/20
f 6/26/2 11/31/23 10/30/22 4/24/18
f 21/41/26 9/29/21 8/28/7 19/39/10
f 11/31/23 23/43/27 22/42/9 12/32/8
f 15/35/24 21/41/26 20/40/12 13/33/15
f 23/43/27 17/37/3 16/36/14 24/44/13
f 2/22/17 15/35/24 14/34/4 3/23/6
f 17/37/3 6/26/2 5/25/19 18/38/25
f 12/32/8 8/28/7 7/27/20 10/30/22
f 24/44/13 20/40/12 19/39/10 22/42/9
f 13/33/15 16/36/14 18/38/25 14/34/4
f 3/23/6 5/25/19 4/24/18 1/21/16
f 1/45/16 4/46/18 10/47/22 7/48/20
f 25/49/28 33/50/28 32/51/28 27/52/28
f 27/52/29 32/51/29 34/53/29 28/54/29
f 28/54/30 34/53/30 35/55/30 29/56/30
f 29/56/31 35/55/31 36/57/31 30/58/31
f 30/58/32 36/57/32 37/59/32 31/60/32
f 31/60/33 37/59/33 33/50/33 25/49/33
f 26/61/5 32/62/34 33/63/35
f 26/61/5 34/64/36 32/62/34
f 26/61/5 35/65/37 34/64/36
f 26/61/5 36/66/38 35/65/37
f 26/61/5 37/67/39 36/66/38
f 26/61/5 33/63/35 37/67/39
f 38/68/31 46/69/31 45/70/31 40/71/31
f 40/71/32 45/70/32 47/72/32 41/73/32
f 41/73/33 47/72/33 48/74/33 42/75/33
f 42/75/28 48/74/28 49/76/28 43/77/28
f 43/77/29 49/76/29 50/78/29 44/79/29
f 44/79/30 50/78/30 46/69/30 38/68/30
f 39/80/5 45/81/38 46/82/37
f 39/80/5 47/83/39 45/81/38
f 39/80/5 48/84/35 47/83/39
f 39/80/5 49/85/34 48/84/35
f 39/80/5 50/86/36 49/85/34
f 39/80/5 46/82/37 50/86/36
f 51/87/31 59/88/31 58/89/31 53/90/31
f 53/90/32 58/89/32 60/91/32 54/92/32
f 54/92/33 60/91/33 61/93/33 55/94/33
f 55/94/28 61/93/28 62/95/28 56/96/28
f 56/96/29 62/95/29 63/97/29 57/98/29
f 57/98/30 63/97/30 59/88/30 51/87/30
f 52/99/5 58/100/38 59/101/37
f 52/99/5 60/102/39 58/100/38
f 52/99/5 61/103/35 60/102/39
f 52/99/5 62/104/34 61/103/35
f 52/99/5 63/105/36 62/104/34
f 52/99/5 59/101/37 63/105/36
f 64/106/28 72/107/28 71/108/28 66/109/28
f 66/109/29 71/108/29 73/110/29 67/111/29
f 67/111/30 73/110/30 74/112/30 68/113/30
f 68/113/31 74/112/31 75/114/31 69/115/31
f 69/115/32 75/114/32 76/116/32 70/117/32
f 70/117/33 76/116/33 72/107/33 64/106/33
f 65/118/5 71/119/34 72/120/35
f 65/118/5 73/121/36 71/119/34
f 65/118/5 74/122/37 73/121/36
f 65/118/5 75/123/38 74/122/37
f 65/118/5 76/124/39 75/123/38
f 65/118/5 72/120/35 76/124/39
f 77/125/40 78/126/40 80/127/41 79/128/41
f 79/128/41 80/127/41 82/129/42 81/130/42
f 81/130/42 82/129/42 84/131/43 83/132/43
f 83/132/11 84/131/11 86/133/44 85/134/44
f 85/134/44 86/133/44 88/135/45 87/136/45
f 87/136/45 88/135/45 90/137/46 89/138/46
f 89/138/46 90/137/46 92/139/47 91/140/47
f 91/140/1 92/139/1 78/126/40 77/125/40
f 93/141/48 101/142/48 100/143/48 95/144/48
f 95/144/49 100/143/49 102/145/49 96/146/49
f 96/146/50 102/145/50 103/147/50 97/148/50
f 97/148/51 103/147/51 104/149/51 98/150/51
f 98/150/52 104/149/52 105/151/52 99/152/52
f 99/152/53 105/151/53 101/142/53 93/141/53
f 94/153/54 100/154/55 101/155/56
f 94/153/54 102/156/57 100/154/55
f 94/153/54 103/157/58 102/156/57
f 94/153/54 104/158/59 103/157/58
f 94/153/54 105/159/60 104/158/59
f 94/153/54 101/155/56 105/159/60
f 106/160/51 114/161/51 113/162/51 108/163/51
f 108/163/52 113/162/52 115/164/52 109/165/52
f 109/165/53 115/164/53 116/166/53 110/167/53
f 110/167/48 116/166/48 117/168/48 111/169/48
f 111/169/49 117/168/49 118/170/49 112/171/49
f 112/171/50 118/170/50 114/161/50 106/160/50
f 107/172/54 113/173/59 114/174/58
f 107/172/54 115/175/60 113/173/59
f 107/172/54 116/176/56 115/175/60
f 107/172/54 117/177/55 116/176/56
f 107/172/54 118/178/57 117/177/55
f 107/172/54 114/174/58 118/178/57
f 119/179/51 127/180/51 126/181/51 121/182/51
f 121/182/52 126/181/52 128/183/52 122/184/52
f 122/184/53 128/183/53 129/185/53 123/186/53
f 123/186/48 129/185/48 130/187/48 124/188/48
f 124/188/49 130/187/49 131/189/49 125/190/49
f 125/190/50 131/189/50 127/180/50 119/179/50
f 120/191/54 126/192/59 127/193/58
f 120/191/54 128/194/60 126/192/59
f 120/191/54 129/195/56 128/194/60
f 120/191/54 130/196/55 129/195/56
f 120/191/54 131/197/57 130/196/55
f 120/191/54 127/193/58 131/197/57
f 132/198/48 140/199/48 139/200/48 134/201/48
f 134/201/49 139/200/49 141/202/49 135/203/49
f 135/203/50 141/202/50 142/204/50 136/205/50
f 136/205/51 142/204/51 143/206/51 137/207/51
f 137/207/52 143/206/52 144/208/52 138/209/52
f 138/209/53 144/208/53 140/199/53 132/198/53
f 133/210/54 139/211/55 140/212/56
f 133/210/54 141/213/57 139/211/55
f 133/210/54 142/214/58 141/213/57
f 133/210/54 143/215/59 142/214/58
f 133/210/54 144/216/60 143/215/59
f 133/210/54 140/212/56 144/216/60
f 167/217/61 155/218/62 150/219/2 161/220/3
f 158/221/4 162/222/5 149/223/5 147/224/6
f 152/225/7 156/226/8 166/227/9 163/228/10
f 153/229/63 165/230/64 159/231/11 146/232/11
f 164/233/12 168/234/13 160/235/14 157/236/15
f 145/237/16 146/238/17 147/239/6
f 148/240/18 149/241/19 150/242/2
f 151/243/20 152/244/7 153/245/63
f 154/246/22 155/247/62 156/248/8
f 157/249/15 158/250/4 159/251/24
f 160/252/14 161/253/3 162/254/25
f 163/255/10 164/256/12 165/257/64
f 166/258/9 167/259/61 168/260/13
f 153/245/63 146/238/17 145/237/16 151/243/20
f 150/242/2 155/247/62 154/246/22 148/240/18
f 165/257/64 153/245/63 152/244/7 163/255/10
f 155/247/62 167/259/61 166/258/9 156/248/8
f 159/251/24 165/257/64 164/256/12 157/249/15
f 167/259/61 161/253/3 160/252/14 168/260/13
f 146/238/17 159/251/24 158/250/4 147/239/6
f 161/253/3 150/242/2 149/241/19 162/254/25
f 156/248/8 152/244/7 151/243/20 154/246/22
f 168/260/13 164/256/12 163/255/10 166/258/9
f 157/249/15 160/252/14 162/254/25 158/250/4
f 147/239/6 149/241/19 148/240/18 145/237/16
f 145/261/16 148/262/18 154/263/22 151/264/20
