# Blender v3.4.1 OBJ File: 'Platformer_Pack_Export_FREE.blend'
# www.blender.org
mtllib pillar_2x2x8.mtl
o pillar_2x2x8
v -0.800000 0.360000 0.760000
v -0.760000 0.360000 0.800000
v -0.760000 0.400000 0.760000
v -0.800000 0.360000 -0.760000
v -0.760000 0.400000 -0.760000
v -0.760000 0.360000 -0.800000
v -0.800000 0.040000 0.760000
v -0.760000 -0.000000 0.760000
v -0.760000 0.040000 0.800000
v -0.800000 0.040000 -0.760000
v -0.760000 0.040000 -0.800000
v -0.760000 -0.000000 -0.760000
v 0.800000 0.360000 0.760000
v 0.760000 0.400000 0.760000
v 0.760000 0.360000 0.800000
v 0.800000 0.360000 -0.760000
v 0.760000 0.360000 -0.800000
v 0.760000 0.400000 -0.760000
v 0.760000 -0.000000 0.760000
v 0.800000 0.040000 0.760000
v 0.760000 0.040000 0.800000
v 0.760000 -0.000000 -0.760000
v 0.760000 0.040000 -0.800000
v 0.800000 0.040000 -0.760000
v 0.600001 0.347037 -0.693304
v 0.600001 0.438778 -0.600000
v 0.680804 0.347037 -0.646652
v 0.680804 0.347037 -0.553348
v 0.600001 0.347037 -0.506696
v 0.519197 0.347037 -0.553348
v 0.519197 0.347037 -0.646652
v 0.689653 0.429608 -0.651761
v 0.600001 0.429608 -0.703521
v 0.689653 0.429608 -0.548239
v 0.600001 0.429608 -0.496478
v 0.510349 0.429608 -0.548239
v 0.510349 0.429608 -0.651760
v 0.600000 0.347037 0.693305
v 0.600000 0.438778 0.600001
v 0.519196 0.347037 0.646653
v 0.519196 0.347037 0.553349
v 0.600000 0.347037 0.506697
v 0.680803 0.347037 0.553349
v 0.680803 0.347037 0.646653
v 0.510347 0.429608 0.651761
v 0.600000 0.429608 0.703522
v 0.510347 0.429608 0.548240
v 0.600000 0.429608 0.496479
v 0.689652 0.429608 0.548240
v 0.689652 0.429608 0.651761
v -0.600001 0.347037 0.693304
v -0.600001 0.438778 0.600000
v -0.680804 0.347037 0.646652
v -0.680804 0.347037 0.553348
v -0.600001 0.347037 0.506696
v -0.519197 0.347037 0.553348
v -0.519197 0.347037 0.646652
v -0.689653 0.429608 0.651760
v -0.600001 0.429608 0.703521
v -0.689653 0.429608 0.548239
v -0.600001 0.429608 0.496478
v -0.510349 0.429608 0.548239
v -0.510349 0.429608 0.651760
v -0.600000 0.347037 -0.693305
v -0.600000 0.438778 -0.600001
v -0.519196 0.347037 -0.646653
v -0.519196 0.347037 -0.553349
v -0.600000 0.347037 -0.506697
v -0.680803 0.347037 -0.553349
v -0.680803 0.347037 -0.646653
v -0.510348 0.429608 -0.651762
v -0.600000 0.429608 -0.703523
v -0.510348 0.429608 -0.548240
v -0.600000 0.429608 -0.496480
v -0.689652 0.429608 -0.548241
v -0.689652 0.429608 -0.651762
v -0.207092 7.600016 -0.499999
v -0.207092 0.400016 -0.500000
v -0.499985 7.600015 -0.207106
v -0.499985 0.400016 -0.207107
v -0.499985 7.600015 0.207107
v -0.499985 0.400015 0.207106
v -0.207091 7.600015 0.500000
v -0.207092 0.400015 0.499999
v 0.207122 7.600015 0.500000
v 0.207122 0.400015 0.499999
v 0.500015 7.600015 0.207107
v 0.500015 0.400016 0.207106
v 0.500015 7.600016 -0.207106
v 0.500015 0.400016 -0.207107
v 0.207122 7.600016 -0.499999
v 0.207122 0.400016 -0.500000
v -0.600001 7.652964 -0.693304
v -0.600001 7.561222 -0.600000
v -0.680804 7.652964 -0.646652
v -0.680804 7.652964 -0.553348
v -0.600001 7.652964 -0.506696
v -0.519197 7.652964 -0.553348
v -0.519197 7.652964 -0.646652
v -0.689653 7.570393 -0.651761
v -0.600001 7.570393 -0.703521
v -0.689653 7.570393 -0.548239
v -0.600001 7.570393 -0.496479
v -0.510349 7.570393 -0.548239
v -0.510349 7.570393 -0.651761
v -0.600000 7.652964 0.693304
v -0.600000 7.561222 0.600001
v -0.519196 7.652964 0.646652
v -0.519196 7.652964 0.553349
v -0.600000 7.652964 0.506697
v -0.680803 7.652964 0.553349
v -0.680803 7.652964 0.646652
v -0.510347 7.570393 0.651761
v -0.600000 7.570393 0.703522
v -0.510347 7.570393 0.548240
v -0.600000 7.570393 0.496479
v -0.689652 7.570393 0.548240
v -0.689652 7.570393 0.651761
v 0.600001 7.652963 0.693303
v 0.600001 7.561221 0.600000
v 0.680804 7.652963 0.646652
v 0.680804 7.652963 0.553348
v 0.600001 7.652963 0.506696
v 0.519197 7.652963 0.553348
v 0.519197 7.652963 0.646652
v 0.689653 7.570392 0.651760
v 0.600001 7.570392 0.703521
v 0.689653 7.570392 0.548239
v 0.600001 7.570393 0.496478
v 0.510349 7.570393 0.548239
v 0.510349 7.570393 0.651760
v 0.600000 7.652964 -0.693305
v 0.600000 7.561222 -0.600001
v 0.519196 7.652964 -0.646653
v 0.519196 7.652964 -0.553349
v 0.600000 7.652964 -0.506698
v 0.680803 7.652964 -0.553349
v 0.680803 7.652964 -0.646653
v 0.510348 7.570393 -0.651762
v 0.600000 7.570393 -0.703523
v 0.510348 7.570393 -0.548241
v 0.600000 7.570393 -0.496480
v 0.689652 7.570393 -0.548241
v 0.689652 7.570393 -0.651762
v -0.800000 7.960001 0.760000
v -0.760000 7.960001 0.800000
v -0.760000 8.000000 0.760000
v -0.800000 7.960000 -0.760000
v -0.760000 8.000000 -0.760000
v -0.760000 7.960000 -0.800000
v -0.800000 7.640000 0.760000
v -0.760000 7.600000 0.760000
v -0.760000 7.640000 0.800000
v -0.800000 7.640000 -0.760000
v -0.760000 7.640000 -0.800000
v -0.760000 7.600000 -0.760000
v 0.800000 7.960001 0.760000
v 0.760000 8.000000 0.760000
v 0.760000 7.960001 0.800000
v 0.800000 7.960000 -0.760000
v 0.760000 7.960000 -0.800000
v 0.760000 8.000000 -0.760000
v 0.760000 7.600000 0.760000
v 0.800000 7.640000 0.760000
v 0.760000 7.640000 0.800000
v 0.760000 7.600000 -0.760000
v 0.760000 7.640000 -0.800000
v 0.800000 7.640000 -0.760000
v -0.207092 5.816683 -0.500000
v -0.207092 5.916682 -0.500000
v -0.186381 5.866683 -0.450000
v -0.207092 2.083349 -0.500000
v -0.207092 2.183349 -0.500000
v -0.186381 2.133349 -0.450000
v -0.499985 2.183349 -0.207107
v -0.499985 2.083349 -0.207107
v -0.449985 2.133349 -0.186396
v -0.499985 5.916681 -0.207106
v -0.499985 5.816682 -0.207107
v -0.449985 5.866682 -0.186396
v -0.499985 2.183348 0.207107
v -0.499985 2.083349 0.207107
v -0.449985 2.133348 0.186396
v -0.499985 5.916681 0.207107
v -0.499985 5.816682 0.207107
v -0.449985 5.866682 0.186396
v -0.207092 2.183348 0.500000
v -0.207092 2.083348 0.500000
v -0.186381 2.133348 0.450000
v -0.207091 5.916681 0.500000
v -0.207091 5.816682 0.500000
v -0.186381 5.866682 0.450000
v 0.207122 2.183348 0.500000
v 0.207122 2.083349 0.500000
v 0.186411 2.133348 0.450000
v 0.207122 5.916681 0.500000
v 0.207122 5.816682 0.500000
v 0.186411 5.866682 0.450000
v 0.500015 2.183349 0.207107
v 0.500015 2.083349 0.207107
v 0.450015 2.133349 0.186396
v 0.500015 5.916681 0.207107
v 0.500015 5.816682 0.207107
v 0.450015 5.866682 0.186396
v 0.500015 2.183349 -0.207107
v 0.500015 2.083349 -0.207107
v 0.450015 2.133349 -0.186396
v 0.500015 5.916682 -0.207107
v 0.500015 5.816683 -0.207107
v 0.450015 5.866683 -0.186396
v 0.207122 2.183350 -0.500000
v 0.207122 2.083350 -0.500000
v 0.186411 2.133350 -0.450000
v 0.207122 5.916682 -0.500000
v 0.207122 5.816683 -0.500000
v 0.186411 5.866683 -0.450000
vt 0.352692 0.828032
vt 0.266611 0.828032
vt 0.266611 0.841892
vt 0.352692 0.841892
vt 0.352692 0.844413
vt 0.352692 0.844413
vt 0.266611 0.844413
vt 0.266611 0.844413
vt 0.266611 0.825512
vt 0.266611 0.825512
vt 0.352692 0.825512
vt 0.352692 0.825512
vt 0.266611 0.828032
vt 0.352692 0.828032
vt 0.352692 0.841892
vt 0.266611 0.841892
vt 0.355766 0.828032
vt 0.355766 0.828032
vt 0.355766 0.841892
vt 0.355766 0.841892
vt 0.263537 0.873142
vt 0.266611 0.873142
vt 0.266611 0.875663
vt 0.263537 0.873142
vt 0.266611 0.875663
vt 0.266611 0.873142
vt 0.263537 0.859282
vt 0.266611 0.856762
vt 0.266611 0.859282
vt 0.263537 0.859282
vt 0.266611 0.859282
vt 0.266611 0.856762
vt 0.355766 0.873142
vt 0.352692 0.875663
vt 0.352692 0.873142
vt 0.355766 0.873142
vt 0.352692 0.873142
vt 0.352692 0.875663
vt 0.352692 0.856762
vt 0.355766 0.859282
vt 0.352692 0.859282
vt 0.352692 0.856762
vt 0.352692 0.859282
vt 0.355766 0.859282
vt 0.263537 0.841892
vt 0.263537 0.841892
vt 0.263537 0.828032
vt 0.263537 0.828032
vt 0.312500 0.823675
vt 0.312500 0.877819
vt 0.335604 0.877819
vt 0.335604 0.823675
vt 0.335604 0.877819
vt 0.335604 0.823675
vt 0.312500 0.877819
vt 0.312500 0.823675
vt 0.289396 0.877819
vt 0.289396 0.823675
vt 0.289396 0.877819
vt 0.289396 0.823675
vt 0.312500 0.930267
vt 0.335604 0.906906
vt 0.312500 0.906906
vt 0.335604 0.906906
vt 0.312500 0.906906
vt 0.289396 0.906906
vt 0.289396 0.906906
vt 0.312500 0.823675
vt 0.312500 0.877819
vt 0.335604 0.877819
vt 0.335604 0.823675
vt 0.335604 0.877819
vt 0.335604 0.823675
vt 0.312500 0.877819
vt 0.312500 0.823675
vt 0.289396 0.877819
vt 0.289396 0.823675
vt 0.289396 0.877819
vt 0.289396 0.823675
vt 0.312500 0.930267
vt 0.335604 0.906906
vt 0.312500 0.906906
vt 0.335604 0.906906
vt 0.312500 0.906906
vt 0.289396 0.906906
vt 0.289396 0.906906
vt 0.312500 0.823675
vt 0.312500 0.877819
vt 0.335604 0.877819
vt 0.335604 0.823675
vt 0.335604 0.877819
vt 0.335604 0.823675
vt 0.312500 0.877819
vt 0.312500 0.823675
vt 0.289396 0.877819
vt 0.289396 0.823675
vt 0.289396 0.877819
vt 0.289396 0.823675
vt 0.312500 0.930267
vt 0.335604 0.906906
vt 0.312500 0.906906
vt 0.335604 0.906906
vt 0.312500 0.906906
vt 0.289396 0.906906
vt 0.289396 0.906906
vt 0.312500 0.823675
vt 0.312500 0.877819
vt 0.335604 0.877819
vt 0.335604 0.823675
vt 0.335604 0.877819
vt 0.335604 0.823675
vt 0.312500 0.877819
vt 0.312500 0.823675
vt 0.289396 0.877819
vt 0.289396 0.823675
vt 0.289396 0.877819
vt 0.289396 0.823675
vt 0.312500 0.930267
vt 0.335604 0.906906
vt 0.312500 0.906906
vt 0.335604 0.906906
vt 0.312500 0.906906
vt 0.289396 0.906906
vt 0.289396 0.906906
vt 0.265539 0.871338
vt 0.265539 0.844194
vt 0.265539 0.844194
vt 0.265539 0.871338
vt 0.265539 0.899289
vt 0.265539 0.872951
vt 0.265539 0.872951
vt 0.265539 0.899289
vt 0.302929 0.872951
vt 0.302929 0.899289
vt 0.311612 0.872951
vt 0.311612 0.899289
vt 0.349002 0.872951
vt 0.349002 0.899289
vt 0.349002 0.872951
vt 0.349002 0.899289
vt 0.311612 0.872951
vt 0.311612 0.899289
vt 0.302929 0.871338
vt 0.302929 0.844194
vt 0.312500 0.823675
vt 0.312500 0.877819
vt 0.335604 0.877819
vt 0.335604 0.823675
vt 0.335604 0.877819
vt 0.335604 0.823675
vt 0.312500 0.877819
vt 0.312500 0.823675
vt 0.289396 0.877819
vt 0.289396 0.823675
vt 0.289396 0.877819
vt 0.289396 0.823675
vt 0.312500 0.930267
vt 0.335604 0.906906
vt 0.312500 0.906906
vt 0.335604 0.906906
vt 0.312500 0.906906
vt 0.289396 0.906906
vt 0.289396 0.906906
vt 0.312500 0.823675
vt 0.312500 0.877819
vt 0.335604 0.877819
vt 0.335604 0.823675
vt 0.335604 0.877819
vt 0.335604 0.823675
vt 0.312500 0.877819
vt 0.312500 0.823675
vt 0.289396 0.877819
vt 0.289396 0.823675
vt 0.289396 0.877819
vt 0.289396 0.823675
vt 0.312500 0.930267
vt 0.335604 0.906906
vt 0.312500 0.906906
vt 0.335604 0.906906
vt 0.312500 0.906906
vt 0.289396 0.906906
vt 0.289396 0.906906
vt 0.312500 0.823675
vt 0.312500 0.877819
vt 0.335604 0.877819
vt 0.335604 0.823675
vt 0.335604 0.877819
vt 0.335604 0.823675
vt 0.312500 0.877819
vt 0.312500 0.823675
vt 0.289396 0.877819
vt 0.289396 0.823675
vt 0.289396 0.877819
vt 0.289396 0.823675
vt 0.312500 0.930267
vt 0.335604 0.906906
vt 0.312500 0.906906
vt 0.335604 0.906906
vt 0.312500 0.906906
vt 0.289396 0.906906
vt 0.289396 0.906906
vt 0.312500 0.823675
vt 0.312500 0.877819
vt 0.335604 0.877819
vt 0.335604 0.823675
vt 0.335604 0.877819
vt 0.335604 0.823675
vt 0.312500 0.877819
vt 0.312500 0.823675
vt 0.289396 0.877819
vt 0.289396 0.823675
vt 0.289396 0.877819
vt 0.289396 0.823675
vt 0.312500 0.930267
vt 0.335604 0.906906
vt 0.312500 0.906906
vt 0.335604 0.906906
vt 0.312500 0.906906
vt 0.289396 0.906906
vt 0.289396 0.906906
vt 0.352692 0.906157
vt 0.266611 0.906157
vt 0.266611 0.920017
vt 0.352692 0.920017
vt 0.352692 0.922538
vt 0.352692 0.922538
vt 0.266611 0.922538
vt 0.266611 0.922538
vt 0.266611 0.903637
vt 0.266611 0.903637
vt 0.352692 0.903637
vt 0.352692 0.903637
vt 0.266611 0.906157
vt 0.352692 0.906157
vt 0.352692 0.920017
vt 0.266611 0.920017
vt 0.355766 0.906157
vt 0.355766 0.906157
vt 0.355766 0.920017
vt 0.355766 0.920017
vt 0.263537 0.951267
vt 0.266611 0.951267
vt 0.266611 0.953788
vt 0.263537 0.951267
vt 0.266611 0.953788
vt 0.266611 0.951267
vt 0.263537 0.937407
vt 0.266611 0.934887
vt 0.266611 0.937407
vt 0.263537 0.937407
vt 0.266611 0.937407
vt 0.266611 0.934887
vt 0.355766 0.951267
vt 0.352692 0.953788
vt 0.352692 0.951267
vt 0.355766 0.951267
vt 0.352692 0.951267
vt 0.352692 0.953788
vt 0.352692 0.934887
vt 0.355766 0.937407
vt 0.352692 0.937407
vt 0.352692 0.934887
vt 0.352692 0.937407
vt 0.355766 0.937407
vt 0.263537 0.920017
vt 0.263537 0.920017
vt 0.263537 0.906157
vt 0.263537 0.906157
vt 0.302929 0.899289
vt 0.302929 0.872951
vt 0.311612 0.871338
vt 0.311612 0.844194
vt 0.349002 0.928046
vt 0.349002 0.900901
vt 0.311612 0.900901
vt 0.311612 0.928046
vt 0.349002 0.871338
vt 0.349002 0.844194
vt 0.349002 0.928046
vt 0.349002 0.900901
vt 0.349002 0.871338
vt 0.349002 0.844194
vt 0.311612 0.928046
vt 0.311612 0.900901
vt 0.311612 0.871338
vt 0.311612 0.844194
vt 0.302929 0.928046
vt 0.302929 0.900901
vt 0.302929 0.871338
vt 0.302929 0.844194
vt 0.265539 0.928046
vt 0.265539 0.900901
vt 0.265539 0.928046
vt 0.265539 0.900901
vt 0.302929 0.900901
vt 0.302929 0.928046
vt 0.311612 0.930539
vt 0.302929 0.930539
vt 0.302929 0.931345
vt 0.311612 0.931345
vt 0.311612 0.868845
vt 0.302929 0.868845
vt 0.302929 0.869651
vt 0.311612 0.869651
vt 0.311612 0.902588
vt 0.302929 0.902588
vt 0.302929 0.903394
vt 0.311612 0.903394
vt 0.311612 0.840894
vt 0.302929 0.840894
vt 0.302929 0.841701
vt 0.311612 0.841701
vt 0.349002 0.930539
vt 0.349002 0.931345
vt 0.349002 0.868845
vt 0.349002 0.869651
vt 0.349002 0.902588
vt 0.349002 0.903394
vt 0.349002 0.840894
vt 0.349002 0.841701
vt 0.349002 0.930539
vt 0.349002 0.931345
vt 0.349002 0.868845
vt 0.349002 0.869651
vt 0.349002 0.902588
vt 0.349002 0.903394
vt 0.349002 0.840894
vt 0.349002 0.841701
vt 0.311612 0.930539
vt 0.311612 0.931345
vt 0.311612 0.868845
vt 0.311612 0.869651
vt 0.311612 0.902588
vt 0.311612 0.903394
vt 0.311612 0.840894
vt 0.311612 0.841701
vt 0.302929 0.930539
vt 0.302929 0.931345
vt 0.302929 0.868845
vt 0.302929 0.869651
vt 0.302929 0.902588
vt 0.302929 0.903394
vt 0.302929 0.840894
vt 0.302929 0.841701
vt 0.265539 0.930539
vt 0.265539 0.931345
vt 0.265539 0.868845
vt 0.265539 0.869651
vt 0.265539 0.902588
vt 0.265539 0.903394
vt 0.265539 0.840894
vt 0.265539 0.841701
vt 0.265539 0.930539
vt 0.265539 0.931345
vt 0.265539 0.868845
vt 0.265539 0.869651
vt 0.265539 0.902588
vt 0.265539 0.903394
vt 0.265539 0.840894
vt 0.265539 0.841701
vn 0.0000 0.0000 -1.0000
vn -0.3416 0.3416 -0.8756
vn 0.3416 0.3416 -0.8756
vn 0.3416 0.8756 0.3416
vn 0.0000 1.0000 0.0000
vn -0.3416 0.8756 0.3416
vn -0.3416 -0.8756 0.3416
vn -0.3416 -0.8756 -0.3416
vn 0.3416 -0.8756 -0.3416
vn 0.3416 -0.8756 0.3416
vn 0.0000 0.0000 1.0000
vn 0.8756 -0.3416 0.3416
vn 0.8756 -0.3416 -0.3416
vn 0.8756 0.3416 -0.3416
vn 0.8756 0.3416 0.3416
vn -0.8756 0.3416 0.3416
vn -0.4606 0.4606 0.7588
vn -0.8756 0.3416 -0.3416
vn -0.4606 0.7588 -0.4606
vn -0.8756 -0.3416 0.3416
vn -0.4606 -0.4606 0.7588
vn -0.8756 -0.3416 -0.3416
vn -0.4606 -0.4606 -0.7588
vn 0.4606 0.4606 0.7588
vn 0.4606 0.7588 -0.4606
vn 0.4606 -0.4606 0.7588
vn 0.4606 -0.4606 -0.7588
vn 0.4972 -0.1066 -0.8611
vn 0.9943 -0.1066 0.0000
vn 0.4972 -0.1066 0.8611
vn -0.4972 -0.1066 0.8611
vn -0.9943 -0.1066 0.0000
vn -0.4972 -0.1066 -0.8611
vn 0.0764 0.9961 -0.0441
vn -0.0000 0.9961 -0.0882
vn 0.0764 0.9961 0.0441
vn -0.0000 0.9961 0.0882
vn -0.0764 0.9961 0.0441
vn -0.0764 0.9961 -0.0441
vn -0.9239 0.0000 -0.3827
vn -1.0000 -0.0000 0.0000
vn -0.8587 -0.3689 -0.3557
vn -0.7071 -0.0000 0.7071
vn -0.3827 -0.0000 0.9239
vn -0.3557 0.3689 0.8587
vn 0.3557 -0.3689 0.8587
vn 0.3557 0.3689 0.8587
vn 0.8587 -0.3689 0.3557
vn 0.9239 -0.0000 0.3827
vn 1.0000 -0.0000 -0.0000
vn 0.7071 0.0000 -0.7071
vn 0.7255 -0.4954 -0.4778
vn 0.3557 -0.3689 -0.8587
vn 0.3557 0.3689 -0.8587
vn -0.7071 0.0000 -0.7071
vn -0.4972 0.1066 -0.8611
vn -0.9943 0.1066 0.0000
vn -0.4972 0.1066 0.8611
vn 0.4972 0.1066 0.8611
vn 0.9943 0.1066 0.0000
vn 0.4972 0.1066 -0.8611
vn -0.0000 -1.0000 -0.0000
vn -0.0764 -0.9961 -0.0441
vn 0.0000 -0.9961 -0.0882
vn -0.0764 -0.9961 0.0441
vn 0.0000 -0.9961 0.0882
vn 0.0764 -0.9961 0.0441
vn 0.0764 -0.9961 -0.0441
vn 0.3416 -0.3416 -0.8756
vn -0.3416 -0.3416 -0.8756
vn 0.3416 0.8756 -0.3416
vn -0.3416 0.8756 -0.3416
vn -0.3416 -0.3416 0.8756
vn 0.3416 -0.3416 0.8756
vn 0.3416 0.3416 0.8756
vn -0.3416 0.3416 0.8756
vn -0.7588 0.4606 0.4606
vn -0.7588 -0.4606 0.4606
vn 0.7588 0.4606 0.4606
vn 0.7588 -0.4606 0.4606
vn -0.3557 -0.3689 -0.8587
vn 0.3827 0.0000 -0.9239
vn 0.9239 0.0000 -0.3827
vn 0.3827 -0.0000 0.9239
vn -0.7255 0.4954 0.4778
vn -0.3827 0.0000 -0.9239
vn -0.1752 0.4954 -0.8508
vn -0.2597 0.7345 -0.6269
vn 0.2597 0.7345 -0.6269
vn 0.2597 -0.7345 -0.6269
vn -0.2597 -0.7345 -0.6269
vn 0.6269 0.7345 -0.2597
vn 0.6269 -0.7345 -0.2597
vn 0.6269 0.7345 0.2597
vn 0.6269 -0.7345 0.2597
vn 0.2597 0.7345 0.6269
vn 0.2597 -0.7345 0.6269
vn -0.2597 0.7345 0.6269
vn -0.2597 -0.7345 0.6269
vn -0.6269 0.7345 0.2597
vn -0.6269 -0.7345 0.2597
vn -0.6269 0.7345 -0.2597
vn -0.6269 -0.7345 -0.2597
usemtl platformer
s 1
f 23/1/1 11/2/1 6/3/2 17/4/3
f 14/5/4 18/6/5 5/7/5 3/8/6
f 8/9/7 12/10/8 22/11/9 19/12/10
f 9/13/11 21/14/11 15/15/11 2/16/11
f 20/17/12 24/18/13 16/19/14 13/20/15
f 1/21/16 2/22/17 3/23/6
f 4/24/18 5/25/19 6/26/2
f 7/27/20 8/28/7 9/29/21
f 10/30/22 11/31/23 12/32/8
f 13/33/15 14/34/4 15/35/24
f 16/36/14 17/37/3 18/38/25
f 19/39/10 20/40/12 21/41/26
f 22/42/9 23/43/27 24/44/13
f 9/29/21 2/22/17 1/21/16 7/27/20
f 6/26/2 11/31/23 10/30/22 4/24/18
f 21/41/26 9/29/21 8/28/7 19/39/10
f 11/31/23 23/43/27 22/42/9 12/32/8
f 15/35/24 21/41/26 20/40/12 13/33/15
f 23/43/27 17/37/3 16/36/14 24/44/13
f 2/22/17 15/35/24 14/34/4 3/23/6
f 17/37/3 6/26/2 5/25/19 18/38/25
f 12/32/8 8/28/7 7/27/20 10/30/22
f 24/44/13 20/40/12 19/39/10 22/42/9
f 13/33/15 16/36/14 18/38/25 14/34/4
f 3/23/6 5/25/19 4/24/18 1/21/16
f 1/45/16 4/46/18 10/47/22 7/48/20
f 25/49/28 33/50/28 32/51/28 27/52/28
f 27/52/29 32/51/29 34/53/29 28/54/29
f 28/54/30 34/53/30 35/55/30 29/56/30
f 29/56/31 35/55/31 36/57/31 30/58/31
f 30/58/32 36/57/32 37/59/32 31/60/32
f 31/60/33 37/59/33 33/50/33 25/49/33
f 26/61/5 32/62/34 33/63/35
f 26/61/5 34/64/36 32/62/34
f 26/61/5 35/65/37 34/64/36
f 26/61/5 36/66/38 35/65/37
f 26/61/5 37/67/39 36/66/38
f 26/61/5 33/63/35 37/67/39
f 38/68/31 46/69/31 45/70/31 40/71/31
f 40/71/32 45/70/32 47/72/32 41/73/32
f 41/73/33 47/72/33 48/74/33 42/75/33
f 42/75/28 48/74/28 49/76/28 43/77/28
f 43/77/29 49/76/29 50/78/29 44/79/29
f 44/79/30 50/78/30 46/69/30 38/68/30
f 39/80/5 45/81/38 46/82/37
f 39/80/5 47/83/39 45/81/38
f 39/80/5 48/84/35 47/83/39
f 39/80/5 49/85/34 48/84/35
f 39/80/5 50/86/36 49/85/34
f 39/80/5 46/82/37 50/86/36
f 51/87/31 59/88/31 58/89/31 53/90/31
f 53/90/32 58/89/32 60/91/32 54/92/32
f 54/92/33 60/91/33 61/93/33 55/94/33
f 55/94/28 61/93/28 62/95/28 56/96/28
f 56/96/29 62/95/29 63/97/29 57/98/29
f 57/98/30 63/97/30 59/88/30 51/87/30
f 52/99/5 58/100/38 59/101/37
f 52/99/5 60/102/39 58/100/38
f 52/99/5 61/103/35 60/102/39
f 52/99/5 62/104/34 61/103/35
f 52/99/5 63/105/36 62/104/34
f 52/99/5 59/101/37 63/105/36
f 64/106/28 72/107/28 71/108/28 66/109/28
f 66/109/29 71/108/29 73/110/29 67/111/29
f 67/111/30 73/110/30 74/112/30 68/113/30
f 68/113/31 74/112/31 75/114/31 69/115/31
f 69/115/32 75/114/32 76/116/32 70/117/32
f 70/117/33 76/116/33 72/107/33 64/106/33
f 65/118/5 71/119/34 72/120/35
f 65/118/5 73/121/36 71/119/34
f 65/118/5 74/122/37 73/121/36
f 65/118/5 75/123/38 74/122/37
f 65/118/5 76/124/39 75/123/38
f 65/118/5 72/120/35 76/124/39
f 176/125/40 80/126/40 82/127/41 182/128/41
f 179/129/40 175/130/42 181/131/41 185/132/41
f 185/132/43 181/131/43 187/133/44 191/134/45
f 191/134/45 187/133/44 193/135/46 197/136/47
f 197/136/47 193/135/46 199/137/48 203/138/49
f 203/138/49 199/137/48 205/139/50 209/140/50
f 209/140/51 205/139/52 211/141/53 215/142/54
f 172/143/55 78/144/55 80/126/40 176/125/40
f 93/145/56 101/146/56 100/147/56 95/148/56
f 95/148/57 100/147/57 102/149/57 96/150/57
f 96/150/58 102/149/58 103/151/58 97/152/58
f 97/152/59 103/151/59 104/153/59 98/154/59
f 98/154/60 104/153/60 105/155/60 99/156/60
f 99/156/61 105/155/61 101/146/61 93/145/61
f 94/157/62 100/158/63 101/159/64
f 94/157/62 102/160/65 100/158/63
f 94/157/62 103/161/66 102/160/65
f 94/157/62 104/162/67 103/161/66
f 94/157/62 105/163/68 104/162/67
f 94/157/62 101/159/64 105/163/68
f 106/164/59 114/165/59 113/166/59 108/167/59
f 108/167/60 113/166/60 115/168/60 109/169/60
f 109/169/61 115/168/61 116/170/61 110/171/61
f 110/171/56 116/170/56 117/172/56 111/173/56
f 111/173/57 117/172/57 118/174/57 112/175/57
f 112/175/58 118/174/58 114/165/58 106/164/58
f 107/176/62 113/177/67 114/178/66
f 107/176/62 115/179/68 113/177/67
f 107/176/62 116/180/64 115/179/68
f 107/176/62 117/181/63 116/180/64
f 107/176/62 118/182/65 117/181/63
f 107/176/62 114/178/66 118/182/65
f 119/183/59 127/184/59 126/185/59 121/186/59
f 121/186/60 126/185/60 128/187/60 122/188/60
f 122/188/61 128/187/61 129/189/61 123/190/61
f 123/190/56 129/189/56 130/191/56 124/192/56
f 124/192/57 130/191/57 131/193/57 125/194/57
f 125/194/58 131/193/58 127/184/58 119/183/58
f 120/195/62 126/196/67 127/197/66
f 120/195/62 128/198/68 126/196/67
f 120/195/62 129/199/64 128/198/68
f 120/195/62 130/200/63 129/199/64
f 120/195/62 131/201/65 130/200/63
f 120/195/62 127/197/66 131/201/65
f 132/202/56 140/203/56 139/204/56 134/205/56
f 134/205/57 139/204/57 141/206/57 135/207/57
f 135/207/58 141/206/58 142/208/58 136/209/58
f 136/209/59 142/208/59 143/210/59 137/211/59
f 137/211/60 143/210/60 144/212/60 138/213/60
f 138/213/61 144/212/61 140/203/61 132/202/61
f 133/214/62 139/215/63 140/216/64
f 133/214/62 141/217/65 139/215/63
f 133/214/62 142/218/66 141/217/65
f 133/214/62 143/219/67 142/218/66
f 133/214/62 144/220/68 143/219/67
f 133/214/62 140/216/64 144/220/68
f 167/221/69 155/222/70 150/223/2 161/224/3
f 158/225/4 162/226/71 149/227/72 147/228/6
f 152/229/7 156/230/8 166/231/9 163/232/10
f 153/233/73 165/234/74 159/235/75 146/236/76
f 164/237/50 168/238/13 160/239/14 157/240/50
f 145/241/77 146/242/76 147/243/6
f 148/244/18 149/245/72 150/246/2
f 151/247/78 152/248/7 153/249/73
f 154/250/22 155/251/70 156/252/8
f 157/253/79 158/254/4 159/255/75
f 160/256/14 161/257/3 162/258/71
f 163/259/10 164/260/80 165/261/74
f 166/262/9 167/263/69 168/264/13
f 153/249/73 146/242/76 145/241/77 151/247/78
f 150/246/2 155/251/70 154/250/22 148/244/18
f 165/261/74 153/249/73 152/248/7 163/259/10
f 155/251/70 167/263/69 166/262/9 156/252/8
f 159/255/75 165/261/74 164/260/80 157/253/79
f 167/263/69 161/257/3 160/256/14 168/264/13
f 146/242/76 159/255/75 158/254/4 147/243/6
f 161/257/3 150/246/2 149/245/72 162/258/71
f 156/252/8 152/248/7 151/247/78 154/250/22
f 168/264/13 164/260/80 163/259/10 166/262/9
f 157/253/79 160/256/14 162/258/71 158/254/4
f 147/243/6 149/245/72 148/244/18 145/241/77
f 145/265/41 148/266/18 154/267/22 151/268/41
f 169/269/55 173/270/81 175/130/42 179/129/40
f 212/271/82 92/272/82 78/144/1 172/143/1
f 89/273/83 208/274/83 214/275/51 91/276/51
f 206/277/51 90/278/51 92/272/82 212/271/82
f 87/279/49 202/280/49 208/274/83 89/273/83
f 200/281/49 88/282/49 90/278/50 206/277/50
f 85/283/84 196/284/84 202/280/49 87/279/49
f 194/285/47 86/286/84 88/282/49 200/281/49
f 83/287/44 190/288/44 196/284/84 85/283/84
f 188/289/45 84/290/44 86/286/84 194/285/47
f 81/291/43 184/292/43 190/288/44 83/287/44
f 182/128/85 82/127/43 84/290/44 188/289/45
f 79/293/41 178/294/41 184/292/41 81/291/41
f 91/276/1 214/275/1 170/295/86 77/296/86
f 215/142/54 211/141/53 173/270/81 169/269/87
f 215/297/54 169/298/87 171/299/88 216/300/89
f 216/301/90 171/302/91 170/303/91 214/304/90
f 212/305/89 172/306/88 174/307/88 213/308/89
f 213/309/90 174/310/91 173/311/81 211/312/53
f 209/313/92 215/297/54 216/300/89 210/314/92
f 210/315/93 216/301/90 214/304/90 208/316/93
f 206/317/92 212/305/89 213/308/89 207/318/92
f 207/319/93 213/309/90 211/312/53 205/320/52
f 203/321/94 209/313/92 210/314/92 204/322/94
f 204/323/95 210/315/93 208/316/93 202/324/95
f 200/325/94 206/317/92 207/318/92 201/326/94
f 201/327/95 207/319/93 205/320/52 199/328/48
f 197/329/47 203/321/94 204/322/94 198/330/96
f 198/331/97 204/323/95 202/324/95 196/332/97
f 194/333/47 200/325/94 201/326/94 195/334/96
f 195/335/97 201/327/95 199/328/48 193/336/46
f 191/337/45 197/329/47 198/330/96 192/338/98
f 192/339/99 198/331/97 196/332/97 190/340/99
f 188/341/45 194/333/47 195/334/96 189/342/98
f 189/343/99 195/335/97 193/336/46 187/344/99
f 185/345/100 191/337/45 192/338/98 186/346/100
f 186/347/101 192/339/99 190/340/99 184/348/101
f 182/349/85 188/341/45 189/342/98 183/350/100
f 183/351/101 189/343/99 187/344/99 181/352/101
f 179/353/102 185/345/100 186/346/100 180/354/102
f 180/355/103 186/347/101 184/348/101 178/356/103
f 176/357/102 182/349/85 183/350/100 177/358/102
f 177/359/103 183/351/101 181/352/101 175/360/42
f 169/298/87 179/353/102 180/354/102 171/299/88
f 171/302/91 180/355/103 178/356/103 170/303/91
f 172/306/88 176/357/102 177/358/102 174/307/88
f 174/310/91 177/359/103 175/360/42 173/311/81
f 77/296/86 170/295/86 178/294/55 79/293/55
