# Blender v3.4.1 OBJ File: 'Platformer_Pack_Export_FREE.blend'
# www.blender.org
mtllib pillar_2x2x4.mtl
o pillar_2x2x4
v -0.800000 0.360000 0.760000
v -0.760000 0.360000 0.800000
v -0.760000 0.400000 0.760000
v -0.800000 0.360000 -0.760000
v -0.760000 0.400000 -0.760000
v -0.760000 0.360000 -0.800000
v -0.800000 0.040000 0.760000
v -0.760000 -0.000000 0.760000
v -0.760000 0.040000 0.800000
v -0.800000 0.040000 -0.760000
v -0.760000 0.040000 -0.800000
v -0.760000 -0.000000 -0.760000
v 0.800000 0.360000 0.760000
v 0.760000 0.400000 0.760000
v 0.760000 0.360000 0.800000
v 0.800000 0.360000 -0.760000
v 0.760000 0.360000 -0.800000
v 0.760000 0.400000 -0.760000
v 0.760000 -0.000000 0.760000
v 0.800000 0.040000 0.760000
v 0.760000 0.040000 0.800000
v 0.760000 -0.000000 -0.760000
v 0.760000 0.040000 -0.800000
v 0.800000 0.040000 -0.760000
v 0.600001 0.347037 -0.693304
v 0.600001 0.438778 -0.600000
v 0.680804 0.347037 -0.646652
v 0.680804 0.347037 -0.553348
v 0.600001 0.347037 -0.506696
v 0.519197 0.347037 -0.553348
v 0.519197 0.347037 -0.646652
v 0.689653 0.429608 -0.651761
v 0.600001 0.429608 -0.703521
v 0.689653 0.429608 -0.548239
v 0.600001 0.429608 -0.496478
v 0.510349 0.429608 -0.548239
v 0.510349 0.429608 -0.651760
v 0.600000 0.347037 0.693305
v 0.600000 0.438778 0.600001
v 0.519196 0.347037 0.646653
v 0.519196 0.347037 0.553349
v 0.600000 0.347037 0.506697
v 0.680803 0.347037 0.553349
v 0.680803 0.347037 0.646653
v 0.510347 0.429608 0.651761
v 0.600000 0.429608 0.703522
v 0.510347 0.429608 0.548240
v 0.600000 0.429608 0.496479
v 0.689652 0.429608 0.548240
v 0.689652 0.429608 0.651761
v -0.600001 0.347037 0.693304
v -0.600001 0.438778 0.600000
v -0.680804 0.347037 0.646652
v -0.680804 0.347037 0.553348
v -0.600001 0.347037 0.506696
v -0.519197 0.347037 0.553348
v -0.519197 0.347037 0.646652
v -0.689653 0.429608 0.651760
v -0.600001 0.429608 0.703521
v -0.689653 0.429608 0.548239
v -0.600001 0.429608 0.496478
v -0.510349 0.429608 0.548239
v -0.510349 0.429608 0.651760
v -0.600000 0.347037 -0.693305
v -0.600000 0.438778 -0.600001
v -0.519196 0.347037 -0.646653
v -0.519196 0.347037 -0.553349
v -0.600000 0.347037 -0.506697
v -0.680803 0.347037 -0.553349
v -0.680803 0.347037 -0.646653
v -0.510348 0.429608 -0.651762
v -0.600000 0.429608 -0.703523
v -0.510348 0.429608 -0.548240
v -0.600000 0.429608 -0.496480
v -0.689652 0.429608 -0.548241
v -0.689652 0.429608 -0.651762
v -0.207092 3.600016 -0.499999
v -0.207092 0.400016 -0.500000
v -0.499985 3.600015 -0.207106
v -0.499985 0.400016 -0.207107
v -0.499985 3.600015 0.207107
v -0.499985 0.400015 0.207106
v -0.207091 3.600015 0.500000
v -0.207092 0.400015 0.499999
v 0.207122 3.600015 0.500000
v 0.207122 0.400015 0.499999
v 0.500015 3.600015 0.207107
v 0.500015 0.400016 0.207106
v 0.500015 3.600016 -0.207106
v 0.500015 0.400016 -0.207107
v 0.207122 3.600016 -0.499999
v 0.207122 0.400016 -0.500000
v -0.600001 3.652964 -0.693304
v -0.600001 3.561222 -0.600000
v -0.680804 3.652964 -0.646652
v -0.680804 3.652964 -0.553348
v -0.600001 3.652964 -0.506696
v -0.519197 3.652964 -0.553348
v -0.519197 3.652964 -0.646652
v -0.689653 3.570393 -0.651761
v -0.600001 3.570393 -0.703521
v -0.689653 3.570393 -0.548239
v -0.600001 3.570393 -0.496479
v -0.510349 3.570393 -0.548239
v -0.510349 3.570393 -0.651761
v -0.600000 3.652964 0.693304
v -0.600000 3.561222 0.600001
v -0.519196 3.652964 0.646652
v -0.519196 3.652964 0.553349
v -0.600000 3.652964 0.506697
v -0.680803 3.652964 0.553349
v -0.680803 3.652964 0.646652
v -0.510347 3.570393 0.651761
v -0.600000 3.570393 0.703522
v -0.510347 3.570393 0.548240
v -0.600000 3.570393 0.496479
v -0.689652 3.570393 0.548240
v -0.689652 3.570393 0.651761
v 0.600001 3.652963 0.693303
v 0.600001 3.561221 0.600000
v 0.680804 3.652963 0.646652
v 0.680804 3.652963 0.553348
v 0.600001 3.652963 0.506696
v 0.519197 3.652963 0.553348
v 0.519197 3.652963 0.646652
v 0.689653 3.570392 0.651760
v 0.600001 3.570392 0.703521
v 0.689653 3.570392 0.548239
v 0.600001 3.570393 0.496478
v 0.510349 3.570393 0.548239
v 0.510349 3.570393 0.651760
v 0.600000 3.652964 -0.693305
v 0.600000 3.561222 -0.600001
v 0.519196 3.652964 -0.646653
v 0.519196 3.652964 -0.553349
v 0.600000 3.652964 -0.506698
v 0.680803 3.652964 -0.553349
v 0.680803 3.652964 -0.646653
v 0.510348 3.570393 -0.651762
v 0.600000 3.570393 -0.703523
v 0.510348 3.570393 -0.548241
v 0.600000 3.570393 -0.496480
v 0.689652 3.570393 -0.548241
v 0.689652 3.570393 -0.651762
v -0.800000 3.960001 0.760000
v -0.760000 3.960001 0.800000
v -0.760000 4.000000 0.760000
v -0.800000 3.960000 -0.760000
v -0.760000 4.000000 -0.760000
v -0.760000 3.960000 -0.800000
v -0.800000 3.640000 0.760000
v -0.760000 3.600000 0.760000
v -0.760000 3.640000 0.800000
v -0.800000 3.640000 -0.760000
v -0.760000 3.640000 -0.800000
v -0.760000 3.600000 -0.760000
v 0.800000 3.960001 0.760000
v 0.760000 4.000000 0.760000
v 0.760000 3.960001 0.800000
v 0.800000 3.960000 -0.760000
v 0.760000 3.960000 -0.800000
v 0.760000 4.000000 -0.760000
v 0.760000 3.600000 0.760000
v 0.800000 3.640000 0.760000
v 0.760000 3.640000 0.800000
v 0.760000 3.600000 -0.760000
v 0.760000 3.640000 -0.800000
v 0.800000 3.640000 -0.760000
v -0.207092 1.950016 -0.500000
v -0.207092 2.050016 -0.500000
v -0.186381 2.000016 -0.450000
v -0.499985 2.050015 -0.207107
v -0.499985 1.950015 -0.207107
v -0.449985 2.000015 -0.186396
v -0.499985 2.050015 0.207107
v -0.499985 1.950015 0.207107
v -0.449985 2.000015 0.186396
v -0.207092 2.050015 0.500000
v -0.207092 1.950015 0.500000
v -0.186381 2.000015 0.450000
v 0.207122 2.050015 0.500000
v 0.207122 1.950015 0.500000
v 0.186411 2.000015 0.450000
v 0.500015 2.050015 0.207107
v 0.500015 1.950015 0.207107
v 0.450015 2.000015 0.186396
v 0.500015 2.050016 -0.207107
v 0.500015 1.950016 -0.207107
v 0.450015 2.000016 -0.186396
v 0.207122 2.050016 -0.500000
v 0.207122 1.950016 -0.500000
v 0.186411 2.000016 -0.450000
vt 0.352692 0.828032
vt 0.266611 0.828032
vt 0.266611 0.841892
vt 0.352692 0.841892
vt 0.352692 0.844413
vt 0.352692 0.844413
vt 0.266611 0.844413
vt 0.266611 0.844413
vt 0.266611 0.825512
vt 0.266611 0.825512
vt 0.352692 0.825512
vt 0.352692 0.825512
vt 0.266611 0.828032
vt 0.352692 0.828032
vt 0.352692 0.841892
vt 0.266611 0.841892
vt 0.355766 0.828032
vt 0.355766 0.828032
vt 0.355766 0.841892
vt 0.355766 0.841892
vt 0.263537 0.873142
vt 0.266611 0.873142
vt 0.266611 0.875663
vt 0.263537 0.873142
vt 0.266611 0.875663
vt 0.266611 0.873142
vt 0.263537 0.859282
vt 0.266611 0.856762
vt 0.266611 0.859282
vt 0.263537 0.859282
vt 0.266611 0.859282
vt 0.266611 0.856762
vt 0.355766 0.873142
vt 0.352692 0.875663
vt 0.352692 0.873142
vt 0.355766 0.873142
vt 0.352692 0.873142
vt 0.352692 0.875663
vt 0.352692 0.856762
vt 0.355766 0.859282
vt 0.352692 0.859282
vt 0.352692 0.856762
vt 0.352692 0.859282
vt 0.355766 0.859282
vt 0.263537 0.841892
vt 0.263537 0.841892
vt 0.263537 0.828032
vt 0.263537 0.828032
vt 0.312500 0.823675
vt 0.312500 0.877819
vt 0.335604 0.877819
vt 0.335604 0.823675
vt 0.335604 0.877819
vt 0.335604 0.823675
vt 0.312500 0.877819
vt 0.312500 0.823675
vt 0.289396 0.877819
vt 0.289396 0.823675
vt 0.289396 0.877819
vt 0.289396 0.823675
vt 0.312500 0.930267
vt 0.335604 0.906906
vt 0.312500 0.906906
vt 0.335604 0.906906
vt 0.312500 0.906906
vt 0.289396 0.906906
vt 0.289396 0.906906
vt 0.312500 0.823675
vt 0.312500 0.877819
vt 0.335604 0.877819
vt 0.335604 0.823675
vt 0.335604 0.877819
vt 0.335604 0.823675
vt 0.312500 0.877819
vt 0.312500 0.823675
vt 0.289396 0.877819
vt 0.289396 0.823675
vt 0.289396 0.877819
vt 0.289396 0.823675
vt 0.312500 0.930267
vt 0.335604 0.906906
vt 0.312500 0.906906
vt 0.335604 0.906906
vt 0.312500 0.906906
vt 0.289396 0.906906
vt 0.289396 0.906906
vt 0.312500 0.823675
vt 0.312500 0.877819
vt 0.335604 0.877819
vt 0.335604 0.823675
vt 0.335604 0.877819
vt 0.335604 0.823675
vt 0.312500 0.877819
vt 0.312500 0.823675
vt 0.289396 0.877819
vt 0.289396 0.823675
vt 0.289396 0.877819
vt 0.289396 0.823675
vt 0.312500 0.930267
vt 0.335604 0.906906
vt 0.312500 0.906906
vt 0.335604 0.906906
vt 0.312500 0.906906
vt 0.289396 0.906906
vt 0.289396 0.906906
vt 0.312500 0.823675
vt 0.312500 0.877819
vt 0.335604 0.877819
vt 0.335604 0.823675
vt 0.335604 0.877819
vt 0.335604 0.823675
vt 0.312500 0.877819
vt 0.312500 0.823675
vt 0.289396 0.877819
vt 0.289396 0.823675
vt 0.289396 0.877819
vt 0.289396 0.823675
vt 0.312500 0.930267
vt 0.335604 0.906906
vt 0.312500 0.906906
vt 0.335604 0.906906
vt 0.312500 0.906906
vt 0.289396 0.906906
vt 0.289396 0.906906
vt 0.311612 0.928046
vt 0.311612 0.887430
vt 0.302929 0.887430
vt 0.302929 0.928046
vt 0.265539 0.928046
vt 0.265539 0.887430
vt 0.302929 0.887430
vt 0.302929 0.928046
vt 0.311612 0.887430
vt 0.311612 0.928046
vt 0.349002 0.887430
vt 0.349002 0.928046
vt 0.349002 0.887430
vt 0.349002 0.928046
vt 0.265539 0.887430
vt 0.265539 0.928046
vt 0.312500 0.823675
vt 0.312500 0.877819
vt 0.335604 0.877819
vt 0.335604 0.823675
vt 0.335604 0.877819
vt 0.335604 0.823675
vt 0.312500 0.877819
vt 0.312500 0.823675
vt 0.289396 0.877819
vt 0.289396 0.823675
vt 0.289396 0.877819
vt 0.289396 0.823675
vt 0.312500 0.930267
vt 0.335604 0.906906
vt 0.312500 0.906906
vt 0.335604 0.906906
vt 0.312500 0.906906
vt 0.289396 0.906906
vt 0.289396 0.906906
vt 0.312500 0.823675
vt 0.312500 0.877819
vt 0.335604 0.877819
vt 0.335604 0.823675
vt 0.335604 0.877819
vt 0.335604 0.823675
vt 0.312500 0.877819
vt 0.312500 0.823675
vt 0.289396 0.877819
vt 0.289396 0.823675
vt 0.289396 0.877819
vt 0.289396 0.823675
vt 0.312500 0.930267
vt 0.335604 0.906906
vt 0.312500 0.906906
vt 0.335604 0.906906
vt 0.312500 0.906906
vt 0.289396 0.906906
vt 0.289396 0.906906
vt 0.312500 0.823675
vt 0.312500 0.877819
vt 0.335604 0.877819
vt 0.335604 0.823675
vt 0.335604 0.877819
vt 0.335604 0.823675
vt 0.312500 0.877819
vt 0.312500 0.823675
vt 0.289396 0.877819
vt 0.289396 0.823675
vt 0.289396 0.877819
vt 0.289396 0.823675
vt 0.312500 0.930267
vt 0.335604 0.906906
vt 0.312500 0.906906
vt 0.335604 0.906906
vt 0.312500 0.906906
vt 0.289396 0.906906
vt 0.289396 0.906906
vt 0.312500 0.823675
vt 0.312500 0.877819
vt 0.335604 0.877819
vt 0.335604 0.823675
vt 0.335604 0.877819
vt 0.335604 0.823675
vt 0.312500 0.877819
vt 0.312500 0.823675
vt 0.289396 0.877819
vt 0.289396 0.823675
vt 0.289396 0.877819
vt 0.289396 0.823675
vt 0.312500 0.930267
vt 0.335604 0.906906
vt 0.312500 0.906906
vt 0.335604 0.906906
vt 0.312500 0.906906
vt 0.289396 0.906906
vt 0.289396 0.906906
vt 0.352692 0.906157
vt 0.266611 0.906157
vt 0.266611 0.920017
vt 0.352692 0.920017
vt 0.352692 0.922538
vt 0.352692 0.922538
vt 0.266611 0.922538
vt 0.266611 0.922538
vt 0.266611 0.903637
vt 0.266611 0.903637
vt 0.352692 0.903637
vt 0.352692 0.903637
vt 0.266611 0.906157
vt 0.352692 0.906157
vt 0.352692 0.920017
vt 0.266611 0.920017
vt 0.355766 0.906157
vt 0.355766 0.906157
vt 0.355766 0.920017
vt 0.355766 0.920017
vt 0.263537 0.951267
vt 0.266611 0.951267
vt 0.266611 0.953788
vt 0.263537 0.951267
vt 0.266611 0.953788
vt 0.266611 0.951267
vt 0.263537 0.937407
vt 0.266611 0.934887
vt 0.266611 0.937407
vt 0.263537 0.937407
vt 0.266611 0.937407
vt 0.266611 0.934887
vt 0.355766 0.951267
vt 0.352692 0.953788
vt 0.352692 0.951267
vt 0.355766 0.951267
vt 0.352692 0.951267
vt 0.352692 0.953788
vt 0.352692 0.934887
vt 0.355766 0.937407
vt 0.352692 0.937407
vt 0.352692 0.934887
vt 0.352692 0.937407
vt 0.355766 0.937407
vt 0.263537 0.920017
vt 0.263537 0.920017
vt 0.263537 0.906157
vt 0.263537 0.906157
vt 0.349002 0.884809
vt 0.349002 0.844194
vt 0.311612 0.844194
vt 0.311612 0.884810
vt 0.349002 0.884809
vt 0.349002 0.844194
vt 0.311612 0.884810
vt 0.311612 0.844194
vt 0.302929 0.884809
vt 0.302929 0.844194
vt 0.265539 0.884810
vt 0.265539 0.844194
vt 0.265539 0.884809
vt 0.265539 0.844194
vt 0.302929 0.884809
vt 0.302929 0.844194
vt 0.311612 0.916060
vt 0.302929 0.916060
vt 0.302929 0.917370
vt 0.311612 0.917370
vt 0.311612 0.854870
vt 0.302929 0.854870
vt 0.302929 0.856180
vt 0.311612 0.856180
vt 0.349002 0.916059
vt 0.349002 0.917370
vt 0.349002 0.854870
vt 0.349002 0.856180
vt 0.349002 0.916059
vt 0.349002 0.917370
vt 0.349002 0.854870
vt 0.349002 0.856180
vt 0.311612 0.916060
vt 0.311612 0.917370
vt 0.311612 0.854870
vt 0.311612 0.856180
vt 0.302929 0.916059
vt 0.302929 0.917370
vt 0.302929 0.854870
vt 0.302929 0.856180
vt 0.265539 0.916060
vt 0.265539 0.917370
vt 0.265539 0.854870
vt 0.265539 0.856180
vt 0.265539 0.916059
vt 0.265539 0.917370
vt 0.265539 0.854870
vt 0.265539 0.856180
vn 0.0000 0.0000 -1.0000
vn -0.3416 0.3416 -0.8756
vn 0.3416 0.3416 -0.8756
vn 0.3416 0.8756 0.3416
vn 0.0000 1.0000 0.0000
vn -0.3416 0.8756 0.3416
vn -0.3416 -0.8756 0.3416
vn -0.3416 -0.8756 -0.3416
vn 0.3416 -0.8756 -0.3416
vn 0.3416 -0.8756 0.3416
vn 0.0000 0.0000 1.0000
vn 0.8756 -0.3416 0.3416
vn 0.8756 -0.3416 -0.3416
vn 0.8756 0.3416 -0.3416
vn 0.8756 0.3416 0.3416
vn -0.8756 0.3416 0.3416
vn -0.4606 0.4606 0.7588
vn -0.8756 0.3416 -0.3416
vn -0.4606 0.7588 -0.4606
vn -0.8756 -0.3416 0.3416
vn -0.4606 -0.4606 0.7588
vn -0.8756 -0.3416 -0.3416
vn -0.4606 -0.4606 -0.7588
vn 0.4606 0.4606 0.7588
vn 0.4606 0.7588 -0.4606
vn 0.4606 -0.4606 0.7588
vn 0.4606 -0.4606 -0.7588
vn 0.4972 -0.1066 -0.8611
vn 0.9943 -0.1066 0.0000
vn 0.4972 -0.1066 0.8611
vn -0.4972 -0.1066 0.8611
vn -0.9943 -0.1066 0.0000
vn -0.4972 -0.1066 -0.8611
vn 0.0764 0.9961 -0.0441
vn -0.0000 0.9961 -0.0882
vn 0.0764 0.9961 0.0441
vn -0.0000 0.9961 0.0882
vn -0.0764 0.9961 0.0441
vn -0.0764 0.9961 -0.0441
vn 0.3827 0.0000 -0.9239
vn -0.3827 0.0000 -0.9239
vn -0.9239 -0.0000 0.3827
vn -0.3557 -0.3689 0.8587
vn -0.3827 -0.0000 0.9239
vn 0.3557 -0.3689 0.8587
vn 0.7071 -0.0000 0.7071
vn 0.8587 -0.3689 0.3557
vn 0.9239 -0.0000 0.3827
vn 1.0000 -0.0000 -0.0000
vn 0.7071 0.0000 -0.7071
vn -0.7071 0.0000 -0.7071
vn -0.4972 0.1066 -0.8611
vn -0.9943 0.1066 0.0000
vn -0.4972 0.1066 0.8611
vn 0.4972 0.1066 0.8611
vn 0.9943 0.1066 0.0000
vn 0.4972 0.1066 -0.8611
vn -0.0000 -1.0000 -0.0000
vn -0.0764 -0.9961 -0.0441
vn 0.0000 -0.9961 -0.0882
vn -0.0764 -0.9961 0.0441
vn 0.0000 -0.9961 0.0882
vn 0.0764 -0.9961 0.0441
vn 0.0764 -0.9961 -0.0441
vn -0.0000 -0.9961 -0.0883
vn 0.3416 -0.3416 -0.8756
vn -0.3416 -0.3416 -0.8756
vn 0.3416 0.8756 -0.3416
vn -0.3416 0.8756 -0.3416
vn -0.3416 -0.3416 0.8756
vn 0.3416 -0.3416 0.8756
vn 0.3416 0.3416 0.8756
vn -0.3416 0.3416 0.8756
vn -1.0000 0.0000 0.0000
vn 0.7255 0.4954 -0.4778
vn 0.3557 0.3689 -0.8587
vn 0.3827 -0.0000 0.9239
vn -0.7071 -0.0000 0.7071
vn -0.8587 0.3689 -0.3557
vn -0.9239 0.0000 -0.3827
vn -0.3557 0.3689 -0.8587
vn -0.2597 0.7345 -0.6269
vn 0.2597 0.7345 -0.6269
vn 0.2597 -0.7345 -0.6269
vn -0.2597 -0.7345 -0.6269
vn 0.6269 0.7345 -0.2597
vn 0.6269 -0.7345 -0.2597
vn 0.6269 0.7345 0.2597
vn 0.6269 -0.7345 0.2597
vn 0.2597 0.7345 0.6269
vn 0.2597 -0.7345 0.6269
vn -0.2597 0.7345 0.6269
vn -0.2597 -0.7345 0.6269
vn -0.6269 0.7345 0.2597
vn -0.6269 -0.7345 0.2597
vn -0.6269 0.7345 -0.2597
vn -0.6269 -0.7345 -0.2597
usemtl platformer
s 1
f 23/1/1 11/2/1 6/3/2 17/4/3
f 14/5/4 18/6/5 5/7/5 3/8/6
f 8/9/7 12/10/8 22/11/9 19/12/10
f 9/13/11 21/14/11 15/15/11 2/16/11
f 20/17/12 24/18/13 16/19/14 13/20/15
f 1/21/16 2/22/17 3/23/6
f 4/24/18 5/25/19 6/26/2
f 7/27/20 8/28/7 9/29/21
f 10/30/22 11/31/23 12/32/8
f 13/33/15 14/34/4 15/35/24
f 16/36/14 17/37/3 18/38/25
f 19/39/10 20/40/12 21/41/26
f 22/42/9 23/43/27 24/44/13
f 9/29/21 2/22/17 1/21/16 7/27/20
f 6/26/2 11/31/23 10/30/22 4/24/18
f 21/41/26 9/29/21 8/28/7 19/39/10
f 11/31/23 23/43/27 22/42/9 12/32/8
f 15/35/24 21/41/26 20/40/12 13/33/15
f 23/43/27 17/37/3 16/36/14 24/44/13
f 2/22/17 15/35/24 14/34/4 3/23/6
f 17/37/3 6/26/2 5/25/19 18/38/25
f 12/32/8 8/28/7 7/27/20 10/30/22
f 24/44/13 20/40/12 19/39/10 22/42/9
f 13/33/15 16/36/14 18/38/25 14/34/4
f 3/23/6 5/25/19 4/24/18 1/21/16
f 1/45/16 4/46/18 10/47/22 7/48/20
f 25/49/28 33/50/28 32/51/28 27/52/28
f 27/52/29 32/51/29 34/53/29 28/54/29
f 28/54/30 34/53/30 35/55/30 29/56/30
f 29/56/31 35/55/31 36/57/31 30/58/31
f 30/58/32 36/57/32 37/59/32 31/60/32
f 31/60/33 37/59/33 33/50/33 25/49/33
f 26/61/5 32/62/34 33/63/35
f 26/61/5 34/64/36 32/62/34
f 26/61/5 35/65/37 34/64/36
f 26/61/5 36/66/38 35/65/37
f 26/61/5 37/67/39 36/66/38
f 26/61/5 33/63/35 37/67/39
f 38/68/31 46/69/31 45/70/31 40/71/31
f 40/71/32 45/70/32 47/72/32 41/73/32
f 41/73/33 47/72/33 48/74/33 42/75/33
f 42/75/28 48/74/28 49/76/28 43/77/28
f 43/77/29 49/76/29 50/78/29 44/79/29
f 44/79/30 50/78/30 46/69/30 38/68/30
f 39/80/5 45/81/38 46/82/37
f 39/80/5 47/83/39 45/81/38
f 39/80/5 48/84/35 47/83/39
f 39/80/5 49/85/34 48/84/35
f 39/80/5 50/86/36 49/85/34
f 39/80/5 46/82/37 50/86/36
f 51/87/31 59/88/31 58/89/31 53/90/31
f 53/90/32 58/89/32 60/91/32 54/92/32
f 54/92/33 60/91/33 61/93/33 55/94/33
f 55/94/28 61/93/28 62/95/28 56/96/28
f 56/96/29 62/95/29 63/97/29 57/98/29
f 57/98/30 63/97/30 59/88/30 51/87/30
f 52/99/5 58/100/38 59/101/37
f 52/99/5 60/102/39 58/100/38
f 52/99/5 61/103/35 60/102/39
f 52/99/5 62/104/34 61/103/35
f 52/99/5 63/105/36 62/104/34
f 52/99/5 59/101/37 63/105/36
f 64/106/28 72/107/28 71/108/28 66/109/28
f 66/109/29 71/108/29 73/110/29 67/111/29
f 67/111/30 73/110/30 74/112/30 68/113/30
f 68/113/31 74/112/31 75/114/31 69/115/31
f 69/115/32 75/114/32 76/116/32 70/117/32
f 70/117/33 76/116/33 72/107/33 64/106/33
f 65/118/5 71/119/34 72/120/35
f 65/118/5 73/121/36 71/119/34
f 65/118/5 74/122/37 73/121/36
f 65/118/5 75/123/38 74/122/37
f 65/118/5 76/124/39 75/123/38
f 65/118/5 72/120/35 76/124/39
f 91/125/40 190/126/40 170/127/41 77/128/41
f 81/129/42 175/130/42 178/131/43 83/132/44
f 83/132/44 178/131/43 181/133/45 85/134/11
f 85/134/46 181/133/45 184/135/47 87/136/48
f 87/136/48 184/135/47 187/137/49 89/138/49
f 89/138/50 187/137/50 190/126/40 91/125/40
f 77/128/41 170/127/41 172/139/51 79/140/51
f 93/141/52 101/142/52 100/143/52 95/144/52
f 95/144/53 100/143/53 102/145/53 96/146/53
f 96/146/54 102/145/54 103/147/54 97/148/54
f 97/148/55 103/147/55 104/149/55 98/150/55
f 98/150/56 104/149/56 105/151/56 99/152/56
f 99/152/57 105/151/57 101/142/57 93/141/57
f 94/153/58 100/154/59 101/155/60
f 94/153/58 102/156/61 100/154/59
f 94/153/58 103/157/62 102/156/61
f 94/153/58 104/158/63 103/157/62
f 94/153/58 105/159/64 104/158/63
f 94/153/58 101/155/60 105/159/64
f 106/160/55 114/161/55 113/162/55 108/163/55
f 108/163/56 113/162/56 115/164/56 109/165/56
f 109/165/57 115/164/57 116/166/57 110/167/57
f 110/167/52 116/166/52 117/168/52 111/169/52
f 111/169/53 117/168/53 118/170/53 112/171/53
f 112/171/54 118/170/54 114/161/54 106/160/54
f 107/172/58 113/173/63 114/174/62
f 107/172/58 115/175/64 113/173/63
f 107/172/58 116/176/60 115/175/64
f 107/172/58 117/177/59 116/176/60
f 107/172/58 118/178/61 117/177/59
f 107/172/58 114/174/62 118/178/61
f 119/179/55 127/180/55 126/181/55 121/182/55
f 121/182/56 126/181/56 128/183/56 122/184/56
f 122/184/57 128/183/57 129/185/57 123/186/57
f 123/186/52 129/185/52 130/187/52 124/188/52
f 124/188/53 130/187/53 131/189/53 125/190/53
f 125/190/54 131/189/54 127/180/54 119/179/54
f 120/191/58 126/192/63 127/193/62
f 120/191/58 128/194/64 126/192/63
f 120/191/58 129/195/65 128/194/64
f 120/191/58 130/196/59 129/195/65
f 120/191/58 131/197/61 130/196/59
f 120/191/58 127/193/62 131/197/61
f 132/198/52 140/199/52 139/200/52 134/201/52
f 134/201/53 139/200/53 141/202/53 135/203/53
f 135/203/54 141/202/54 142/204/54 136/205/54
f 136/205/55 142/204/55 143/206/55 137/207/55
f 137/207/56 143/206/56 144/208/56 138/209/56
f 138/209/57 144/208/57 140/199/57 132/198/57
f 133/210/58 139/211/59 140/212/60
f 133/210/58 141/213/61 139/211/59
f 133/210/58 142/214/62 141/213/61
f 133/210/58 143/215/63 142/214/62
f 133/210/58 144/216/64 143/215/63
f 133/210/58 140/212/60 144/216/64
f 167/217/66 155/218/67 150/219/2 161/220/3
f 158/221/4 162/222/68 149/223/69 147/224/6
f 152/225/7 156/226/8 166/227/9 163/228/10
f 153/229/70 165/230/71 159/231/72 146/232/73
f 164/233/12 168/234/13 160/235/14 157/236/15
f 145/237/16 146/238/73 147/239/6
f 148/240/18 149/241/69 150/242/2
f 151/243/20 152/244/7 153/245/70
f 154/246/22 155/247/67 156/248/8
f 157/249/15 158/250/4 159/251/72
f 160/252/14 161/253/3 162/254/68
f 163/255/10 164/256/12 165/257/71
f 166/258/9 167/259/66 168/260/13
f 153/245/70 146/238/73 145/237/16 151/243/20
f 150/242/2 155/247/67 154/246/22 148/240/18
f 165/257/71 153/245/70 152/244/7 163/255/10
f 155/247/67 167/259/66 166/258/9 156/248/8
f 159/251/72 165/257/71 164/256/12 157/249/15
f 167/259/66 161/253/3 160/252/14 168/260/13
f 146/238/73 159/251/72 158/250/4 147/239/6
f 161/253/3 150/242/2 149/241/69 162/254/68
f 156/248/8 152/244/7 151/243/20 154/246/22
f 168/260/13 164/256/12 163/255/10 166/258/9
f 157/249/15 160/252/14 162/254/68 158/250/4
f 147/239/6 149/241/69 148/240/18 145/237/16
f 145/261/16 148/262/18 154/263/22 151/264/20
f 79/140/74 172/139/74 175/130/42 81/129/42
f 188/265/75 90/266/50 92/267/40 191/268/76
f 185/269/48 88/270/48 90/266/49 188/265/49
f 182/271/77 86/272/77 88/270/48 185/269/48
f 179/273/11 84/274/11 86/272/77 182/271/77
f 176/275/78 82/276/78 84/274/78 179/273/78
f 173/277/79 80/278/80 82/276/74 176/275/74
f 169/279/81 78/280/51 80/278/80 173/277/79
f 191/281/76 169/282/81 171/283/82 192/284/83
f 192/285/84 171/286/85 170/287/85 190/288/84
f 188/289/75 191/281/76 192/284/83 189/290/86
f 189/291/87 192/285/84 190/288/84 187/292/87
f 185/293/88 188/289/75 189/290/86 186/294/88
f 186/295/89 189/291/87 187/292/87 184/296/47
f 182/297/90 185/293/88 186/294/88 183/298/90
f 183/299/91 186/295/89 184/296/47 181/300/45
f 179/301/92 182/297/90 183/298/90 180/302/92
f 180/303/93 183/299/91 181/300/45 178/304/43
f 176/305/94 179/301/92 180/302/92 177/306/94
f 177/307/95 180/303/93 178/304/43 175/308/95
f 173/309/79 176/305/94 177/306/94 174/310/96
f 174/311/97 177/307/95 175/308/95 172/312/97
f 169/282/81 173/309/79 174/310/96 171/283/82
f 171/286/85 174/311/97 172/312/97 170/287/85
f 191/268/76 92/267/40 78/280/1 169/279/81
