# Blender v3.4.1 OBJ File: 'Platformer_Pack_Export_FREE.blend'
# www.blender.org
mtllib signage_finish_wide.mtl
o signage_finish_wide
v -4.641422 3.600000 0.141422
v -4.700000 3.600000 0.000000
v -4.641421 3.600000 -0.141421
v -4.500000 3.600000 -0.200000
v -4.358579 3.600000 -0.141421
v -4.300000 3.600000 0.000000
v -4.358579 3.600000 0.141422
v -4.500000 3.600000 0.200000
v -4.619615 3.900000 0.000001
v -4.568884 3.870711 -0.141421
v -4.446410 3.800000 -0.199999
v -4.323936 3.729290 -0.141421
v -4.273205 3.700001 0.000001
v -4.323936 3.729290 0.141422
v -4.446410 3.800000 0.200001
v -4.568884 3.870711 0.141422
v -4.400000 4.119615 0.000001
v -4.370710 4.068885 -0.141421
v -4.300000 3.946410 -0.199999
v -4.229289 3.823936 -0.141421
v -4.200000 3.773206 0.000001
v -4.229289 3.823936 0.141422
v -4.300000 3.946410 0.200001
v -4.370710 4.068885 0.141422
v -4.100000 4.141421 0.141422
v -4.100000 4.200000 0.000000
v -4.100000 4.141421 -0.141421
v -4.100000 4.000000 -0.200000
v -4.100000 3.858578 -0.141421
v -4.100000 3.800000 0.000000
v -4.100000 3.858578 0.141422
v -4.100000 4.000000 0.200000
v 4.641421 3.600002 0.141422
v 4.699999 3.600002 0.000000
v 4.641420 3.600002 -0.141421
v 4.499999 3.600002 -0.200000
v 4.358578 3.600002 -0.141421
v 4.299999 3.600002 0.000000
v 4.358578 3.600002 0.141422
v 4.499999 3.600002 0.200000
v 4.619614 3.900002 0.000001
v 4.568883 3.870713 -0.141421
v 4.446409 3.800002 -0.199999
v 4.323935 3.729291 -0.141421
v 4.273204 3.700002 0.000001
v 4.323935 3.729291 0.141422
v 4.446409 3.800002 0.200001
v 4.568883 3.870713 0.141422
v 4.399999 4.119617 0.000001
v 4.370709 4.068886 -0.141421
v 4.299999 3.946412 -0.199999
v 4.229288 3.823937 -0.141421
v 4.199999 3.773207 0.000001
v 4.229288 3.823937 0.141422
v 4.299999 3.946412 0.200001
v 4.370709 4.068886 0.141422
v 4.099998 4.141423 0.141422
v 4.099998 4.200001 0.000000
v 4.099998 4.141423 -0.141421
v 4.099998 4.000001 -0.200000
v 4.099998 3.858580 -0.141421
v 4.099998 3.800001 0.000000
v 4.099998 3.858580 0.141422
v 4.099998 4.000001 0.200000
v 4.699999 0.000000 0.000000
v 4.499999 0.000000 -0.200000
v 4.358578 0.000000 -0.141421
v 4.641421 0.000000 0.141421
v 4.641420 0.000000 -0.141421
v 4.299999 0.000000 0.000000
v 4.358578 0.000000 0.141421
v 4.499999 0.000000 0.200000
v -4.700000 -0.000000 0.000000
v -4.641421 -0.000000 -0.141421
v -4.500000 -0.000000 -0.200000
v -4.358579 -0.000000 -0.141421
v -4.641422 -0.000000 0.141421
v -4.300000 -0.000000 0.000000
v -4.358579 -0.000000 0.141421
v -4.500000 -0.000000 0.200000
v -4.000000 4.200000 0.000000
v 4.000000 4.200001 0.000000
v -4.000000 4.141422 -0.141421
v 4.000000 4.141422 -0.141421
v -4.000000 4.000000 -0.200000
v 4.000000 4.000000 -0.200000
v -4.000000 3.858579 -0.141421
v 4.000000 3.858579 -0.141421
v -4.000000 3.800000 0.000000
v 4.000000 3.800001 0.000000
v -4.000000 3.858579 0.141422
v 4.000000 3.858579 0.141422
v -4.000000 4.000000 0.200000
v 4.000000 4.000001 0.200000
v 4.000000 4.141422 0.141422
v -4.000000 4.141422 0.141422
v -4.000000 4.100000 0.000000
v 4.000000 4.100000 0.000000
v -4.000000 4.070711 -0.070710
v 4.000000 4.070711 -0.070710
v -4.000000 4.000000 -0.100000
v 4.000000 4.000000 -0.100000
v -4.000000 3.929290 -0.070710
v 4.000000 3.929290 -0.070710
v -4.000000 3.900001 0.000000
v 4.000000 3.900001 0.000000
v -4.000000 3.929290 0.070711
v 4.000000 3.929290 0.070711
v -4.000000 4.000000 0.100000
v 4.000000 4.000001 0.100000
v 4.000000 4.070711 0.070711
v -4.000000 4.070711 0.070711
vt 0.351977 0.875000
vt 0.351977 0.875000
vt 0.352574 0.875000
vt 0.352574 0.875000
vt 0.301607 0.875000
vt 0.301607 0.875000
vt 0.300165 0.875000
vt 0.300165 0.875000
vt 0.349094 0.875000
vt 0.349094 0.875000
vt 0.348497 0.875000
vt 0.348497 0.875000
vt 0.350536 0.875000
vt 0.350536 0.875000
vt 0.299568 0.875000
vt 0.299568 0.875000
vt 0.303645 0.875000
vt 0.303645 0.875000
vt 0.303048 0.875000
vt 0.303048 0.875000
vt 0.300387 0.875000
vt 0.300904 0.875000
vt 0.300165 0.875000
vt 0.302153 0.875000
vt 0.301607 0.875000
vt 0.303401 0.875000
vt 0.303048 0.875000
vt 0.303918 0.875000
vt 0.303401 0.875000
vt 0.302153 0.875000
vt 0.300904 0.875000
vt 0.302626 0.875000
vt 0.302925 0.875000
vt 0.303645 0.875000
vt 0.304366 0.875000
vt 0.304665 0.875000
vt 0.304366 0.875000
vt 0.303645 0.875000
vt 0.302925 0.875000
vt 0.305684 0.875000
vt 0.305684 0.875000
vt 0.305684 0.875000
vt 0.305684 0.875000
vt 0.305684 0.875000
vt 0.305684 0.875000
vt 0.305684 0.875000
vt 0.305684 0.875000
vt 0.319275 0.875000
vt 0.319275 0.875000
vt 0.319275 0.875000
vt 0.319275 0.875000
vt 0.319275 0.875000
vt 0.319275 0.875000
vt 0.319275 0.875000
vt 0.319275 0.875000
vt 0.349094 0.875000
vt 0.349094 0.875000
vt 0.351238 0.875000
vt 0.351755 0.875000
vt 0.350536 0.875000
vt 0.349989 0.875000
vt 0.348741 0.875000
vt 0.348224 0.875000
vt 0.348741 0.875000
vt 0.349989 0.875000
vt 0.351977 0.875000
vt 0.351238 0.875000
vt 0.349218 0.875000
vt 0.349516 0.875000
vt 0.348497 0.875000
vt 0.347776 0.875000
vt 0.347478 0.875000
vt 0.347776 0.875000
vt 0.348497 0.875000
vt 0.349218 0.875000
vt 0.346458 0.875000
vt 0.346458 0.875000
vt 0.346458 0.875000
vt 0.346458 0.875000
vt 0.346458 0.875000
vt 0.346458 0.875000
vt 0.346458 0.875000
vt 0.346458 0.875000
vt 0.351977 0.875000
vt 0.350536 0.875000
vt 0.301607 0.875000
vt 0.300165 0.875000
vt 0.303048 0.875000
vt 0.332867 0.875000
vt 0.332867 0.875000
vt 0.319275 0.875000
vt 0.319275 0.875000
vt 0.332867 0.875000
vt 0.332867 0.875000
vt 0.332867 0.875000
vt 0.332867 0.875000
vt 0.332867 0.875000
vt 0.332867 0.875000
vt 0.332867 0.875000
vt 0.332867 0.875000
vt 0.332867 0.875000
vt 0.319275 0.875000
vt 0.319275 0.875000
vt 0.332867 0.875000
vt 0.319275 0.875000
vt 0.332867 0.875000
vt 0.332867 0.875000
vt 0.319275 0.875000
vt 0.457867 0.875000
vt 0.457867 0.875000
vt 0.444275 0.875000
vt 0.444275 0.875000
vt 0.457867 0.875000
vt 0.444275 0.875000
vt 0.457867 0.875000
vt 0.444275 0.875000
vt 0.457867 0.875000
vt 0.444275 0.875000
vt 0.457867 0.875000
vt 0.444275 0.875000
vt 0.457867 0.875000
vt 0.444275 0.875000
vt 0.457867 0.875000
vt 0.444275 0.875000
vt 0.319275 0.875000
vt 0.332867 0.875000
vt 0.332867 0.875000
vt 0.319275 0.875000
vt 0.350536 0.843750
vt 0.349094 0.843750
vt 0.348497 0.843750
vt 0.349094 0.843750
vt 0.350536 0.843750
vt 0.351977 0.843750
vt 0.352574 0.843750
vt 0.351977 0.843750
vt 0.300165 0.843750
vt 0.301607 0.843750
vt 0.303048 0.843750
vt 0.303645 0.843750
vt 0.303048 0.843750
vt 0.301607 0.843750
vt 0.300165 0.843750
vt 0.299568 0.843750
vn 0.9239 0.0000 -0.3827
vn 0.7181 0.0951 -0.6895
vn 0.9920 0.1266 -0.0000
vn 1.0000 -0.0000 -0.0000
vn 0.0000 -0.0000 1.0000
vn -0.0317 0.0085 0.9995
vn -0.7181 0.0951 0.6895
vn -0.3827 -0.0000 0.9239
vn -0.7071 -0.0000 0.7071
vn -0.6868 -0.0911 0.7211
vn -0.9909 -0.1348 -0.0000
vn -0.9239 -0.0000 0.3827
vn 0.0317 0.0085 0.9995
vn -0.9920 0.1266 -0.0000
vn -1.0000 -0.0000 -0.0000
vn 0.9239 -0.0000 0.3827
vn 0.9909 -0.1348 -0.0000
vn 0.6868 -0.0911 0.7211
vn 0.7071 -0.0000 0.7071
vn -0.8660 0.5000 -0.0000
vn -0.6375 0.3681 -0.6768
vn -0.7181 0.0951 -0.6895
vn -0.3314 0.1913 -0.9239
vn -0.3821 0.0547 -0.9225
vn 0.3823 -0.0468 -0.9229
vn 0.3314 -0.1913 -0.9239
vn 0.5823 -0.3362 -0.7402
vn 0.6868 -0.0911 -0.7211
vn 0.8660 -0.5000 -0.0000
vn 0.5823 -0.3362 0.7402
vn 0.3314 -0.1913 0.9239
vn -0.3314 0.1913 0.9239
vn -0.6375 0.3681 0.6768
vn -0.5000 0.8660 0.0000
vn -0.3681 0.6375 -0.6768
vn -0.1913 0.3314 -0.9239
vn 0.1913 -0.3314 -0.9239
vn 0.3362 -0.5823 -0.7402
vn 0.5000 -0.8660 0.0000
vn 0.3362 -0.5823 0.7402
vn 0.1913 -0.3314 0.9239
vn -0.1913 0.3314 0.9239
vn -0.3681 0.6375 0.6768
vn -0.1266 0.9920 -0.0000
vn -0.0951 0.7181 -0.6895
vn -0.0085 0.0317 -0.9995
vn 0.0911 -0.6868 -0.7211
vn 0.1348 -0.9909 -0.0000
vn 0.0911 -0.6868 0.7211
vn -0.0085 0.0317 0.9995
vn -0.0951 0.7181 0.6895
vn -0.0000 1.0000 -0.0000
vn -0.0000 0.9239 -0.3827
vn -0.0000 0.3827 -0.9239
vn -0.0000 0.0000 -1.0000
vn 0.0000 -0.3827 -0.9239
vn 0.0000 -0.9239 -0.3827
vn 0.0000 -1.0000 -0.0000
vn 0.0000 -0.9239 0.3827
vn 0.0000 -0.3827 0.9239
vn -0.0000 0.3827 0.9239
vn -0.9239 0.0000 -0.3827
vn -0.6868 -0.0911 -0.7211
vn -0.7071 0.0000 -0.7071
vn 0.6375 0.3681 -0.6768
vn 0.8660 0.5000 -0.0000
vn 0.0317 0.0085 -0.9995
vn 0.3314 0.1913 -0.9239
vn -0.5823 -0.3362 -0.7402
vn -0.3314 -0.1913 -0.9239
vn -0.8660 -0.5000 0.0000
vn -0.5823 -0.3362 0.7402
vn -0.3314 -0.1913 0.9239
vn 0.7181 0.0951 0.6895
vn 0.6375 0.3681 0.6768
vn 0.3314 0.1913 0.9239
vn 0.3681 0.6375 -0.6768
vn 0.5000 0.8660 0.0000
vn 0.1913 0.3314 -0.9239
vn -0.3362 -0.5823 -0.7402
vn -0.1913 -0.3314 -0.9239
vn -0.5000 -0.8660 0.0000
vn -0.3362 -0.5823 0.7402
vn -0.1913 -0.3314 0.9239
vn 0.3681 0.6375 0.6768
vn 0.1913 0.3314 0.9239
vn 0.0950 0.7181 -0.6895
vn 0.1266 0.9920 0.0000
vn 0.0085 0.0317 -0.9995
vn -0.0910 -0.6868 -0.7211
vn -0.1348 -0.9909 -0.0000
vn -0.0910 -0.6868 0.7211
vn 0.0085 0.0317 0.9995
vn 0.0950 0.7181 0.6895
vn -0.0000 0.9239 0.3827
vn 0.3827 -0.0000 0.9239
vn 0.3827 0.0000 -0.9239
vn -0.3827 0.0000 -0.9239
vn 0.7071 0.0000 -0.7071
vn 0.0000 -0.7071 -0.7071
usemtl platformer
s 1
f 69/1/1 35/2/2 34/3/3 65/4/4
f 80/5/5 8/6/6 1/7/7 77/8/8
f 71/9/9 39/10/10 38/11/11 70/12/12
f 72/13/5 40/14/13 39/10/10 71/9/9
f 77/8/12 1/7/7 2/15/14 73/16/15
f 78/17/16 6/18/17 7/19/18 79/20/19
f 79/20/19 7/19/18 8/6/6 80/5/5
f 2/15/14 9/21/20 10/22/21 3/23/22
f 3/23/22 10/22/21 11/24/23 4/25/24
f 4/25/25 11/24/26 12/26/27 5/27/28
f 5/27/28 12/26/27 13/28/29 6/18/17
f 6/18/17 13/28/29 14/29/30 7/19/18
f 7/19/18 14/29/30 15/30/31 8/6/6
f 8/6/6 15/30/32 16/31/33 1/7/7
f 1/7/7 16/31/33 9/21/20 2/15/14
f 9/21/20 17/32/34 18/33/35 10/22/21
f 10/22/21 18/33/35 19/34/36 11/24/23
f 11/24/26 19/34/37 20/35/38 12/26/27
f 12/26/27 20/35/38 21/36/39 13/28/29
f 13/28/29 21/36/39 22/37/40 14/29/30
f 14/29/30 22/37/40 23/38/41 15/30/31
f 15/30/32 23/38/42 24/39/43 16/31/33
f 16/31/33 24/39/43 17/32/34 9/21/20
f 17/32/34 26/40/44 27/41/45 18/33/35
f 18/33/35 27/41/45 28/42/46 19/34/36
f 19/34/37 28/42/46 29/43/47 20/35/38
f 20/35/38 29/43/47 30/44/48 21/36/39
f 21/36/39 30/44/48 31/45/49 22/37/40
f 22/37/40 31/45/49 32/46/50 23/38/41
f 23/38/42 32/46/50 25/47/51 24/39/43
f 24/39/43 25/47/51 26/40/44 17/32/34
f 81/48/52 83/49/53 27/41/45 26/40/44
f 83/49/54 85/50/55 28/42/46 27/41/45
f 85/50/55 87/51/56 29/43/47 28/42/46
f 87/51/57 89/52/58 30/44/48 29/43/47
f 89/52/58 91/53/59 31/45/49 30/44/48
f 91/53/60 93/54/5 32/46/50 31/45/49
f 93/54/5 96/55/61 25/47/51 32/46/50
f 70/12/62 38/11/11 37/56/63 67/57/64
f 34/3/3 35/2/2 42/58/65 41/59/66
f 35/2/2 36/60/67 43/61/68 42/58/65
f 36/60/67 37/56/63 44/62/69 43/61/70
f 37/56/63 38/11/11 45/63/71 44/62/69
f 38/11/11 39/10/10 46/64/72 45/63/71
f 39/10/10 40/14/13 47/65/73 46/64/72
f 40/14/13 33/66/74 48/67/75 47/65/76
f 33/66/74 34/3/3 41/59/66 48/67/75
f 41/59/66 42/58/65 50/68/77 49/69/78
f 42/58/65 43/61/68 51/70/79 50/68/77
f 43/61/70 44/62/69 52/71/80 51/70/81
f 44/62/69 45/63/71 53/72/82 52/71/80
f 45/63/71 46/64/72 54/73/83 53/72/82
f 46/64/72 47/65/73 55/74/84 54/73/83
f 47/65/76 48/67/75 56/75/85 55/74/86
f 48/67/75 41/59/66 49/69/78 56/75/85
f 49/69/78 50/68/77 59/76/87 58/77/88
f 50/68/77 51/70/79 60/78/89 59/76/87
f 51/70/81 52/71/80 61/79/90 60/78/89
f 52/71/80 53/72/82 62/80/91 61/79/90
f 53/72/82 54/73/83 63/81/92 62/80/91
f 54/73/83 55/74/84 64/82/93 63/81/92
f 55/74/86 56/75/85 57/83/94 64/82/93
f 56/75/85 49/69/78 58/77/88 57/83/94
f 96/55/95 81/48/52 26/40/44 25/47/51
f 68/84/96 33/66/74 40/14/13 72/13/5
f 36/60/67 66/85/55 67/57/64 37/56/63
f 36/60/67 35/2/2 69/1/97 66/85/55
f 34/3/3 33/66/74 68/84/16 65/4/4
f 4/25/24 75/86/98 74/87/98 3/23/22
f 3/23/22 74/87/62 73/16/15 2/15/14
f 5/27/28 76/88/99 75/86/97 4/25/25
f 5/27/28 6/18/17 78/17/1 76/88/99
f 57/83/94 58/77/88 82/89/52 95/90/95
f 93/54/4 91/53/4 107/91/4 109/92/4
f 64/82/93 57/83/94 95/90/61 94/93/5
f 84/94/15 86/95/15 102/96/15 100/97/15
f 63/81/92 64/82/93 94/93/5 92/98/60
f 92/98/15 94/93/15 110/99/15 108/100/15
f 62/80/91 63/81/92 92/98/59 90/101/58
f 87/51/4 85/50/4 101/102/4 103/103/4
f 61/79/90 62/80/91 90/101/58 88/104/57
f 96/55/4 93/54/4 109/92/4 112/105/4
f 60/78/89 61/79/90 88/104/56 86/95/55
f 86/95/15 88/104/15 104/106/15 102/96/15
f 59/76/87 60/78/89 86/95/55 84/94/54
f 94/93/15 95/90/15 111/107/15 110/99/15
f 58/77/88 59/76/87 84/94/53 82/89/52
f 89/52/4 87/51/4 103/103/4 105/108/4
f 111/109/95 98/110/52 97/111/52 112/112/95
f 110/113/5 111/109/61 112/112/61 109/114/5
f 108/115/60 110/113/5 109/114/5 107/116/60
f 106/117/58 108/115/59 107/116/59 105/118/58
f 104/119/100 106/117/58 105/118/58 103/120/100
f 102/121/56 104/119/100 103/120/100 101/122/56
f 100/123/54 102/121/54 101/122/54 99/124/54
f 98/110/52 100/123/53 99/124/53 97/111/52
f 85/50/4 83/49/4 99/125/4 101/102/4
f 90/101/15 92/98/15 108/100/15 106/126/15
f 82/89/15 84/94/15 100/97/15 98/127/15
f 91/53/4 89/52/4 105/108/4 107/91/4
f 95/90/15 82/89/15 98/127/15 111/107/15
f 83/49/4 81/48/4 97/128/4 99/125/4
f 88/104/15 90/101/15 106/126/15 104/106/15
f 81/48/4 96/55/4 112/105/4 97/128/4
f 72/129/58 71/130/58 70/131/58 67/132/58 66/133/58 69/134/58 65/135/58 68/136/58
f 74/137/58 75/138/58 76/139/58 78/140/58 79/141/58 80/142/58 77/143/58 73/144/58
