# Blender v3.4.1 OBJ File: 'Platformer_Pack_Export_FREE.blend'
# www.blender.org
mtllib strut_horizontal.mtl
o strut_horizontal
v -1.000000 -0.103553 -0.250000
v 1.000000 -0.103553 -0.250000
v -1.000000 -0.250000 -0.103553
v 1.000000 -0.250000 -0.103553
v -1.000000 -0.250000 0.103553
v 1.000000 -0.250000 0.103553
v -0.999999 -0.103553 0.250000
v 1.000000 -0.103553 0.250000
v -1.000000 0.103553 0.250000
v 1.000000 0.103553 0.250000
v -1.000000 0.250000 0.103553
v 1.000000 0.250000 0.103553
v -1.000000 0.250000 -0.103553
v 1.000000 0.250000 -0.103553
v -1.000000 0.103553 -0.250000
v 0.999999 0.103553 -0.250000
vt 0.265345 0.913028
vt 0.349197 0.913028
vt 0.349197 0.875638
vt 0.265345 0.875638
vt 0.349197 0.875638
vt 0.265345 0.875638
vt 0.349197 0.913028
vt 0.265345 0.913028
vt 0.349197 0.921712
vt 0.265345 0.921712
vt 0.349197 0.959101
vt 0.265345 0.959101
vt 0.349197 0.959101
vt 0.265345 0.959101
vt 0.349197 0.921712
vt 0.265345 0.921712
vn -0.0000 -0.3827 -0.9239
vn 0.0000 -0.9239 -0.3827
vn 0.0000 -0.9239 0.3827
vn 0.0000 -0.3827 0.9239
vn 0.0000 0.3827 0.9239
vn -0.0000 0.9239 0.3827
vn -0.0000 0.9239 -0.3827
vn 1.0000 0.0000 -0.0000
vn -0.0000 0.3827 -0.9239
vn -1.0000 -0.0000 0.0000
usemtl platformer
s 1
f 1/1/1 2/2/1 4/3/2 3/4/2
f 3/4/2 4/3/2 6/5/3 5/6/3
f 5/6/3 6/5/3 8/7/4 7/8/4
f 7/8/4 8/7/4 10/9/5 9/10/5
f 9/10/5 10/9/5 12/11/6 11/12/6
f 11/12/6 12/11/6 14/13/7 13/14/7
f 10/9/8 16/15/8 14/13/8 12/11/8
f 13/14/7 14/13/7 16/15/9 15/16/9
f 15/16/9 16/15/9 2/2/1 1/1/1
f 15/16/10 9/10/10 11/12/10 13/14/10
f 1/1/10 3/4/10 5/6/10 7/8/10
f 15/16/10 1/1/10 7/8/10 9/10/10
f 2/2/8 16/15/8 10/9/8 8/7/8
f 4/3/8 2/2/8 8/7/8 6/5/8
