# Blender v3.4.1 OBJ File: 'Platformer_Pack_Export_FREE.blend'
# www.blender.org
mtllib structure_A.mtl
o structure_A
v 0.970711 0.070711 0.700000
v 0.999999 -0.000000 0.700000
v 0.970710 -0.070711 0.700000
v 0.899999 -0.100000 0.700000
v 0.829289 -0.070711 0.700000
v 0.799999 -0.000000 0.700000
v 0.829289 0.070711 0.700000
v 0.899999 0.100000 0.700000
v 0.959807 -0.000000 0.850001
v 0.934442 -0.070711 0.835356
v 0.873204 -0.100000 0.800001
v 0.811967 -0.070711 0.764645
v 0.786602 -0.000000 0.750001
v 0.811967 0.070711 0.764645
v 0.873204 0.100000 0.800001
v 0.934442 0.070711 0.835356
v 0.849999 -0.000000 0.959808
v 0.835355 -0.070711 0.934443
v 0.799999 -0.100000 0.873206
v 0.764644 -0.070711 0.811968
v 0.749999 -0.000000 0.786603
v 0.764644 0.070711 0.811968
v 0.799999 0.100000 0.873206
v 0.835355 0.070711 0.934443
v 0.699999 0.070711 0.970711
v 0.699999 -0.000000 1.000000
v 0.699999 -0.070711 0.970711
v 0.699999 -0.100000 0.900000
v 0.699999 -0.070711 0.829290
v 0.699999 -0.000000 0.800000
v 0.699999 0.070710 0.829290
v 0.699999 0.100000 0.900001
v -0.970711 0.070711 0.700000
v -1.000000 -0.000000 0.700000
v -0.970710 -0.070711 0.700000
v -0.900000 -0.100000 0.700000
v -0.829289 -0.070711 0.700000
v -0.800000 -0.000000 0.700000
v -0.829289 0.070711 0.700000
v -0.900000 0.100000 0.700000
v -0.959807 -0.000000 0.850001
v -0.934442 -0.070711 0.835356
v -0.873205 -0.100000 0.800001
v -0.811967 -0.070711 0.764645
v -0.786602 -0.000000 0.750001
v -0.811967 0.070711 0.764645
v -0.873205 0.100000 0.800001
v -0.934442 0.070711 0.835356
v -0.850000 -0.000000 0.959808
v -0.835355 -0.070711 0.934443
v -0.800000 -0.100000 0.873206
v -0.764644 -0.070711 0.811968
v -0.750000 -0.000000 0.786603
v -0.764644 0.070711 0.811968
v -0.800000 0.100000 0.873206
v -0.835355 0.070711 0.934443
v -0.700000 0.070711 0.970711
v -0.700000 -0.000000 1.000000
v -0.700000 -0.070711 0.970711
v -0.700000 -0.100000 0.900000
v -0.700000 -0.070711 0.829290
v -0.700000 -0.000000 0.800000
v -0.700000 0.070710 0.829290
v -0.700000 0.100000 0.900001
v -0.970711 0.070711 -0.700000
v -1.000000 0.000000 -0.700000
v -0.970711 -0.070710 -0.700000
v -0.900000 -0.100000 -0.700000
v -0.829289 -0.070710 -0.700000
v -0.800000 0.000000 -0.700000
v -0.829289 0.070711 -0.700000
v -0.900000 0.100000 -0.700000
v -0.959807 0.000000 -0.850000
v -0.934442 -0.070710 -0.835356
v -0.873205 -0.100000 -0.800000
v -0.811968 -0.070710 -0.764645
v -0.786602 0.000000 -0.750000
v -0.811968 0.070711 -0.764645
v -0.873205 0.100000 -0.800000
v -0.934442 0.070711 -0.835355
v -0.850000 0.000000 -0.959808
v -0.835355 -0.070710 -0.934443
v -0.800000 -0.100000 -0.873205
v -0.764645 -0.070710 -0.811968
v -0.750000 0.000000 -0.786603
v -0.764645 0.070711 -0.811968
v -0.800000 0.100000 -0.873205
v -0.835355 0.070711 -0.934443
v -0.700000 0.070711 -0.970711
v -0.700000 0.000000 -1.000000
v -0.700000 -0.070710 -0.970711
v -0.700000 -0.100000 -0.900000
v -0.700000 -0.070711 -0.829289
v -0.700000 0.000000 -0.800000
v -0.700000 0.070711 -0.829289
v -0.700000 0.100000 -0.900000
v 0.970711 0.070711 -0.700001
v 0.999999 0.000000 -0.700001
v 0.970710 -0.070710 -0.700001
v 0.899999 -0.100000 -0.700001
v 0.829289 -0.070710 -0.700001
v 0.799999 0.000000 -0.700001
v 0.829289 0.070711 -0.700001
v 0.899999 0.100000 -0.700001
v 0.959807 0.000000 -0.850001
v 0.934442 -0.070710 -0.835356
v 0.873204 -0.100000 -0.800001
v 0.811967 -0.070710 -0.764646
v 0.786602 0.000000 -0.750001
v 0.811967 0.070711 -0.764646
v 0.873204 0.100000 -0.800001
v 0.934442 0.070711 -0.835356
v 0.849999 0.000000 -0.959808
v 0.835355 -0.070710 -0.934443
v 0.799999 -0.100000 -0.873206
v 0.764644 -0.070710 -0.811969
v 0.749999 0.000000 -0.786604
v 0.764644 0.070711 -0.811969
v 0.799999 0.100000 -0.873206
v 0.835355 0.070711 -0.934443
v 0.699999 0.070711 -0.970712
v 0.699999 0.000000 -1.000001
v 0.699999 -0.070710 -0.970712
v 0.699999 -0.100000 -0.900001
v 0.699999 -0.070711 -0.829290
v 0.699999 0.000000 -0.800001
v 0.699999 0.070711 -0.829290
v 0.699999 0.100000 -0.900001
vt 0.303048 0.843750
vt 0.303645 0.875000
vt 0.303645 0.875000
vt 0.303048 0.843750
vt 0.352574 0.875000
vt 0.351977 0.906250
vt 0.351977 0.906250
vt 0.352574 0.875000
vt 0.351977 0.843750
vt 0.351977 0.843750
vt 0.350536 0.843750
vt 0.350536 0.843750
vt 0.301607 0.906250
vt 0.301607 0.906250
vt 0.300165 0.906250
vt 0.300165 0.906250
vt 0.349094 0.906250
vt 0.349094 0.906250
vt 0.348497 0.875000
vt 0.348497 0.875000
vt 0.350536 0.906250
vt 0.350536 0.906250
vt 0.351755 0.875000
vt 0.351238 0.843750
vt 0.349989 0.843750
vt 0.348741 0.843750
vt 0.349094 0.843750
vt 0.348224 0.875000
vt 0.348741 0.906250
vt 0.349989 0.906250
vt 0.351238 0.906250
vt 0.349516 0.875000
vt 0.349218 0.843750
vt 0.348497 0.843750
vt 0.347776 0.843750
vt 0.347478 0.875000
vt 0.347776 0.906250
vt 0.348497 0.906250
vt 0.349218 0.906250
vt 0.346458 0.875000
vt 0.346458 0.843750
vt 0.346458 0.843750
vt 0.346458 0.843750
vt 0.346458 0.875000
vt 0.346458 0.906250
vt 0.346458 0.906250
vt 0.346458 0.906250
vt 0.305684 0.875000
vt 0.305684 0.843750
vt 0.305684 0.843750
vt 0.305684 0.843750
vt 0.305684 0.875000
vt 0.305684 0.906250
vt 0.305684 0.906250
vt 0.305684 0.906250
vt 0.299568 0.875000
vt 0.299568 0.875000
vt 0.301607 0.843750
vt 0.301607 0.843750
vt 0.303048 0.906250
vt 0.303048 0.906250
vt 0.300165 0.843750
vt 0.300904 0.843750
vt 0.300387 0.875000
vt 0.302153 0.843750
vt 0.303401 0.843750
vt 0.303918 0.875000
vt 0.303401 0.906250
vt 0.302153 0.906250
vt 0.300904 0.906250
vt 0.302925 0.843750
vt 0.302626 0.875000
vt 0.303645 0.843750
vt 0.304366 0.843750
vt 0.304665 0.875000
vt 0.304366 0.906250
vt 0.303645 0.906250
vt 0.302925 0.906250
vt 0.349094 0.843750
vt 0.300165 0.843750
vt 0.300387 0.875000
vt 0.300904 0.843750
vt 0.302153 0.843750
vt 0.303401 0.843750
vt 0.303918 0.875000
vt 0.303401 0.906250
vt 0.302153 0.906250
vt 0.300904 0.906250
vt 0.302626 0.875000
vt 0.302925 0.843750
vt 0.303645 0.843750
vt 0.304366 0.843750
vt 0.304665 0.875000
vt 0.304366 0.906250
vt 0.303645 0.906250
vt 0.302925 0.906250
vt 0.305684 0.875000
vt 0.305684 0.843750
vt 0.305684 0.843750
vt 0.305684 0.843750
vt 0.305684 0.875000
vt 0.305684 0.906250
vt 0.305684 0.906250
vt 0.305684 0.906250
vt 0.346458 0.875000
vt 0.346458 0.843750
vt 0.346458 0.843750
vt 0.346458 0.843750
vt 0.346458 0.875000
vt 0.346458 0.906250
vt 0.346458 0.906250
vt 0.346458 0.906250
vt 0.351238 0.843750
vt 0.351755 0.875000
vt 0.349989 0.843750
vt 0.348741 0.843750
vt 0.348224 0.875000
vt 0.348741 0.906250
vt 0.349989 0.906250
vt 0.351238 0.906250
vt 0.349218 0.843750
vt 0.349516 0.875000
vt 0.348497 0.843750
vt 0.347776 0.843750
vt 0.347478 0.875000
vt 0.347776 0.906250
vt 0.348497 0.906250
vt 0.349218 0.906250
vn 0.6868 -0.7211 0.0911
vn 0.9909 0.0000 0.1348
vn 0.9909 -0.0000 -0.1348
vn 0.6868 -0.7211 -0.0911
vn 0.9920 -0.0000 -0.1266
vn 0.7181 0.6895 -0.0951
vn 0.7181 0.6895 0.0951
vn 0.9920 -0.0000 0.1266
vn 0.7181 -0.6895 0.0950
vn 0.7181 -0.6895 -0.0951
vn 0.3821 -0.9225 -0.0547
vn 0.3821 -0.9225 0.0547
vn -0.0317 0.9995 0.0085
vn -0.0317 0.9995 -0.0085
vn -0.7181 0.6895 -0.0951
vn -0.7181 0.6895 0.0951
vn -0.6868 0.7211 -0.0911
vn -0.6868 0.7211 0.0911
vn -0.9909 0.0000 0.1348
vn -0.9909 0.0000 -0.1348
vn 0.0317 0.9995 0.0085
vn 0.0317 0.9995 -0.0085
vn 0.8660 -0.0000 0.5000
vn 0.6375 -0.6768 0.3681
vn 0.3314 -0.9239 0.1913
vn -0.3823 -0.9229 -0.0468
vn -0.3314 -0.9239 -0.1913
vn -0.5823 -0.7402 -0.3362
vn -0.6868 -0.7211 -0.0911
vn -0.8660 0.0000 -0.5000
vn -0.5823 0.7402 -0.3362
vn -0.3314 0.9239 -0.1913
vn 0.3314 0.9239 0.1913
vn 0.6375 0.6768 0.3681
vn 0.5000 0.0000 0.8660
vn 0.3681 -0.6768 0.6375
vn 0.1913 -0.9239 0.3314
vn -0.1913 -0.9239 -0.3314
vn -0.3362 -0.7402 -0.5823
vn -0.5000 0.0000 -0.8660
vn -0.3362 0.7402 -0.5823
vn -0.1913 0.9239 -0.3314
vn 0.1913 0.9239 0.3314
vn 0.3681 0.6768 0.6375
vn 0.1266 -0.0000 0.9920
vn 0.0951 -0.6895 0.7181
vn 0.0085 -0.9995 0.0317
vn -0.0910 -0.7211 -0.6868
vn -0.1348 -0.0000 -0.9909
vn -0.0911 0.7211 -0.6868
vn 0.0085 0.9995 0.0317
vn 0.0950 0.6895 0.7181
vn -0.1266 -0.0000 0.9920
vn -0.0951 -0.6895 0.7181
vn -0.0085 -0.9995 0.0317
vn 0.0910 -0.7211 -0.6868
vn 0.1348 -0.0000 -0.9909
vn 0.0911 0.7211 -0.6868
vn -0.0085 0.9995 0.0317
vn -0.0950 0.6895 0.7181
vn -0.9920 -0.0000 -0.1266
vn -0.9920 -0.0000 0.1266
vn -0.0317 -0.9995 0.0085
vn -0.0317 -0.9995 -0.0085
vn 0.6868 0.7211 0.0911
vn 0.6868 0.7211 -0.0911
vn -0.7181 -0.6895 0.0950
vn -0.6375 -0.6768 0.3681
vn -0.8660 -0.0000 0.5000
vn -0.3314 -0.9239 0.1913
vn 0.5823 -0.7402 -0.3362
vn 0.3314 -0.9239 -0.1913
vn 0.8660 0.0000 -0.5000
vn 0.5823 0.7402 -0.3362
vn 0.3314 0.9239 -0.1913
vn -0.6375 0.6768 0.3681
vn -0.3314 0.9239 0.1913
vn -0.3681 -0.6768 0.6375
vn -0.5000 0.0000 0.8660
vn -0.1913 -0.9239 0.3314
vn 0.3362 -0.7402 -0.5823
vn 0.1913 -0.9239 -0.3314
vn 0.5000 0.0000 -0.8660
vn 0.3362 0.7402 -0.5823
vn 0.1913 0.9239 -0.3314
vn -0.3681 0.6768 0.6375
vn -0.1913 0.9239 0.3314
vn -0.3823 -0.9229 0.0468
vn -0.6868 -0.7211 0.0911
vn -0.7181 -0.6895 -0.0951
vn -0.6375 -0.6768 -0.3681
vn 0.5823 -0.7402 0.3362
vn 0.5823 0.7402 0.3362
vn -0.6375 0.6768 -0.3681
vn -0.3681 -0.6768 -0.6375
vn 0.3362 -0.7402 0.5823
vn 0.3362 0.7402 0.5823
vn -0.3681 0.6768 -0.6375
vn -0.1266 -0.0000 -0.9920
vn -0.0951 -0.6895 -0.7181
vn -0.0085 -0.9995 -0.0317
vn 0.0910 -0.7211 0.6868
vn 0.1348 -0.0000 0.9909
vn 0.0911 0.7211 0.6868
vn -0.0085 0.9995 -0.0317
vn -0.0950 0.6895 -0.7181
vn 0.1266 -0.0000 -0.9920
vn 0.0950 -0.6895 -0.7181
vn 0.0085 -0.9995 -0.0317
vn -0.0910 -0.7211 0.6868
vn -0.1348 -0.0000 0.9909
vn -0.0911 0.7211 0.6868
vn 0.0085 0.9995 -0.0317
vn 0.0950 0.6895 -0.7181
vn 0.6375 -0.6768 -0.3681
vn -0.5823 -0.7402 0.3362
vn -0.5823 0.7402 0.3362
vn 0.6375 0.6768 -0.3681
vn 0.3681 -0.6768 -0.6375
vn -0.3362 -0.7402 0.5823
vn -0.3362 0.7402 0.5823
vn 0.3681 0.6768 -0.6375
usemtl platformer
s 1
f 69/1/1 70/2/2 38/3/3 37/4/4
f 98/5/5 97/6/6 1/7/7 2/8/8
f 3/9/9 99/10/10 98/5/5 2/8/8
f 100/11/11 99/10/10 3/9/9 4/12/12
f 40/13/13 72/14/14 65/15/15 33/16/16
f 7/17/17 103/18/18 102/19/19 6/20/20
f 8/21/21 104/22/22 103/18/18 7/17/17
f 2/8/8 9/23/23 10/24/24 3/9/9
f 3/9/9 10/24/24 11/25/25 4/12/12
f 4/12/26 11/25/27 12/26/28 5/27/29
f 5/27/29 12/26/28 13/28/30 6/20/20
f 6/20/20 13/28/30 14/29/31 7/17/17
f 7/17/17 14/29/31 15/30/32 8/21/21
f 8/21/21 15/30/33 16/31/34 1/7/7
f 1/7/7 16/31/34 9/23/23 2/8/8
f 9/23/23 17/32/35 18/33/36 10/24/24
f 10/24/24 18/33/36 19/34/37 11/25/25
f 11/25/27 19/34/38 20/35/39 12/26/28
f 12/26/28 20/35/39 21/36/40 13/28/30
f 13/28/30 21/36/40 22/37/41 14/29/31
f 14/29/31 22/37/41 23/38/42 15/30/32
f 15/30/33 23/38/43 24/39/44 16/31/34
f 16/31/34 24/39/44 17/32/35 9/23/23
f 17/32/35 26/40/45 27/41/46 18/33/36
f 18/33/36 27/41/46 28/42/47 19/34/37
f 19/34/38 28/42/47 29/43/48 20/35/39
f 20/35/39 29/43/48 30/44/49 21/36/40
f 21/36/40 30/44/49 31/45/50 22/37/41
f 22/37/41 31/45/50 32/46/51 23/38/42
f 23/38/43 32/46/51 25/47/52 24/39/44
f 24/39/44 25/47/52 26/40/45 17/32/35
f 58/48/53 59/49/54 27/41/46 26/40/45
f 59/49/54 60/50/55 28/42/47 27/41/46
f 60/50/55 61/51/56 29/43/48 28/42/47
f 61/51/56 62/52/57 30/44/49 29/43/48
f 62/52/57 63/53/58 31/45/50 30/44/49
f 63/53/58 64/54/59 32/46/51 31/45/50
f 64/54/59 57/55/60 25/47/52 32/46/51
f 33/16/16 65/15/15 66/56/61 34/57/62
f 69/1/1 37/4/4 36/58/63 68/59/64
f 38/3/3 70/2/2 71/60/65 39/61/66
f 39/61/66 71/60/65 72/14/14 40/13/13
f 34/57/62 35/62/67 42/63/68 41/64/69
f 35/62/67 36/58/63 43/65/70 42/63/68
f 36/58/63 37/4/4 44/66/71 43/65/72
f 37/4/4 38/3/3 45/67/73 44/66/71
f 38/3/3 39/61/66 46/68/74 45/67/73
f 39/61/66 40/13/13 47/69/75 46/68/74
f 40/13/13 33/16/16 48/70/76 47/69/77
f 33/16/16 34/57/62 41/64/69 48/70/76
f 41/64/69 42/63/68 50/71/78 49/72/79
f 42/63/68 43/65/70 51/73/80 50/71/78
f 43/65/72 44/66/71 52/74/81 51/73/82
f 44/66/71 45/67/73 53/75/83 52/74/81
f 45/67/73 46/68/74 54/76/84 53/75/83
f 46/68/74 47/69/75 55/77/85 54/76/84
f 47/69/77 48/70/76 56/78/86 55/77/87
f 48/70/76 41/64/69 49/72/79 56/78/86
f 49/72/79 50/71/78 59/49/54 58/48/53
f 50/71/78 51/73/80 60/50/55 59/49/54
f 51/73/82 52/74/81 61/51/56 60/50/55
f 52/74/81 53/75/83 62/52/57 61/51/56
f 53/75/83 54/76/84 63/53/58 62/52/57
f 54/76/84 55/77/85 64/54/59 63/53/58
f 55/77/87 56/78/86 57/55/60 64/54/59
f 56/78/86 49/72/79 58/48/53 57/55/60
f 57/55/60 58/48/53 26/40/45 25/47/52
f 100/11/88 4/12/26 5/27/29 101/79/89
f 67/80/90 35/62/67 34/57/62 66/56/61
f 68/59/64 36/58/63 35/62/67 67/80/90
f 66/56/61 73/81/30 74/82/91 67/80/90
f 67/80/90 74/82/91 75/83/27 68/59/64
f 68/59/64 75/83/25 76/84/92 69/1/1
f 69/1/1 76/84/92 77/85/23 70/2/2
f 70/2/2 77/85/23 78/86/93 71/60/65
f 71/60/65 78/86/93 79/87/33 72/14/14
f 72/14/14 79/87/32 80/88/94 65/15/15
f 65/15/15 80/88/94 73/81/30 66/56/61
f 73/81/30 81/89/40 82/90/95 74/82/91
f 74/82/91 82/90/95 83/91/38 75/83/27
f 75/83/25 83/91/37 84/92/96 76/84/92
f 76/84/92 84/92/96 85/93/35 77/85/23
f 77/85/23 85/93/35 86/94/97 78/86/93
f 78/86/93 86/94/97 87/95/43 79/87/33
f 79/87/32 87/95/42 88/96/98 80/88/94
f 80/88/94 88/96/98 81/89/40 73/81/30
f 81/89/40 90/97/99 91/98/100 82/90/95
f 82/90/95 91/98/100 92/99/101 83/91/38
f 83/91/37 92/99/101 93/100/102 84/92/96
f 84/92/96 93/100/102 94/101/103 85/93/35
f 85/93/35 94/101/103 95/102/104 86/94/97
f 86/94/97 95/102/104 96/103/105 87/95/43
f 87/95/42 96/103/105 89/104/106 88/96/98
f 88/96/98 89/104/106 90/97/99 81/89/40
f 122/105/107 123/106/108 91/98/100 90/97/99
f 123/106/108 124/107/109 92/99/101 91/98/100
f 124/107/109 125/108/110 93/100/102 92/99/101
f 125/108/110 126/109/111 94/101/103 93/100/102
f 126/109/111 127/110/112 95/102/104 94/101/103
f 127/110/112 128/111/113 96/103/105 95/102/104
f 128/111/113 121/112/114 89/104/106 96/103/105
f 6/20/20 102/19/19 101/79/89 5/27/29
f 98/5/5 99/10/10 106/113/115 105/114/73
f 99/10/10 100/11/11 107/115/72 106/113/115
f 100/11/88 101/79/89 108/116/116 107/115/70
f 101/79/89 102/19/19 109/117/69 108/116/116
f 102/19/19 103/18/18 110/118/117 109/117/69
f 103/18/18 104/22/22 111/119/77 110/118/117
f 104/22/22 97/6/6 112/120/118 111/119/75
f 97/6/6 98/5/5 105/114/73 112/120/118
f 105/114/73 106/113/115 114/121/119 113/122/83
f 106/113/115 107/115/72 115/123/82 114/121/119
f 107/115/70 108/116/116 116/124/120 115/123/80
f 108/116/116 109/117/69 117/125/79 116/124/120
f 109/117/69 110/118/117 118/126/121 117/125/79
f 110/118/117 111/119/77 119/127/87 118/126/121
f 111/119/75 112/120/118 120/128/122 119/127/85
f 112/120/118 105/114/73 113/122/83 120/128/122
f 113/122/83 114/121/119 123/106/108 122/105/107
f 114/121/119 115/123/82 124/107/109 123/106/108
f 115/123/80 116/124/120 125/108/110 124/107/109
f 116/124/120 117/125/79 126/109/111 125/108/110
f 117/125/79 118/126/121 127/110/112 126/109/111
f 118/126/121 119/127/87 128/111/113 127/110/112
f 119/127/85 120/128/122 121/112/114 128/111/113
f 120/128/122 113/122/83 122/105/107 121/112/114
f 121/112/114 122/105/107 90/97/99 89/104/106
f 1/7/7 97/6/6 104/22/22 8/21/21
