{
    "asset" : {
        "generator" : "Khronos glTF Blender I/O v3.4.50",
        "version" : "2.0"
    },
    "scene" : 0,
    "scenes" : [
        {
            "name" : "Scene",
            "nodes" : [
                0
            ]
        }
    ],
    "nodes" : [
        {
            "mesh" : 0,
            "name" : "signage_arrows_right"
        }
    ],
    "materials" : [
        {
            "name" : "platformer",
            "pbrMetallicRoughness" : {
                "baseColorTexture" : {
                    "index" : 0
                },
                "metallicFactor" : 0,
                "roughnessFactor" : 0.30000001192092896
            }
        }
    ],
    "meshes" : [
        {
            "name" : "signage_arrows_right",
            "primitives" : [
                {
                    "attributes" : {
                        "POSITION" : 0,
                        "TEXCOORD_0" : 1,
                        "NORMAL" : 2
                    },
                    "indices" : 3,
                    "material" : 0
                }
            ]
        }
    ],
    "textures" : [
        {
            "sampler" : 0,
            "source" : 0
        }
    ],
    "images" : [
        {
            "mimeType" : "image/png",
            "name" : "platformer_texture",
            "uri" : "platformer_texture.png"
        }
    ],
    "accessors" : [
        {
            "bufferView" : 0,
            "componentType" : 5126,
            "count" : 1188,
            "max" : [
                2.699998617172241,
                1.5,
                0.40624672174453735
            ],
            "min" : [
                -2.6999995708465576,
                -4.855794486502418e-07,
                -0.2708309590816498
            ],
            "type" : "VEC3"
        },
        {
            "bufferView" : 1,
            "componentType" : 5126,
            "count" : 1188,
            "type" : "VEC2"
        },
        {
            "bufferView" : 2,
            "componentType" : 5126,
            "count" : 1188,
            "type" : "VEC3"
        },
        {
            "bufferView" : 3,
            "componentType" : 5123,
            "count" : 3468,
            "type" : "SCALAR"
        }
    ],
    "bufferViews" : [
        {
            "buffer" : 0,
            "byteLength" : 14256,
            "byteOffset" : 0,
            "target" : 34962
        },
        {
            "buffer" : 0,
            "byteLength" : 9504,
            "byteOffset" : 14256,
            "target" : 34962
        },
        {
            "buffer" : 0,
            "byteLength" : 14256,
            "byteOffset" : 23760,
            "target" : 34962
        },
        {
            "buffer" : 0,
            "byteLength" : 6936,
            "byteOffset" : 38016,
            "target" : 34963
        }
    ],
    "samplers" : [
        {
            "magFilter" : 9729,
            "minFilter" : 9987
        }
    ],
    "buffers" : [
        {
            "byteLength" : 44952,
            "uri" : "signage_arrows_right.bin"
        }
    ]
}
