# Blender v3.4.1 OBJ File: 'Platformer_Pack_Export_FREE.blend'
# www.blender.org
mtllib barrier_3x1x1_yellow.mtl
o barrier_3x1x1_yellow
v 1.300000 0.300000 0.500000
v -1.441421 0.441421 0.300000
v -1.300000 0.441421 0.441421
v -1.415470 0.415470 0.415470
v -1.441421 0.300000 0.441421
v -1.300000 0.300000 0.500000
v -1.500000 0.300000 0.300000
v -1.500000 0.800000 0.300000
v -1.300000 0.800000 0.500000
v -1.300000 1.000000 0.300000
v -1.441422 0.800000 0.441421
v -1.415470 0.915470 0.415470
v -1.300000 0.941421 0.441421
v -1.441422 0.941421 0.300000
v 1.300000 0.800000 0.500000
v 1.500000 0.800000 0.300000
v 1.300000 1.000000 0.300000
v 1.441421 0.800000 0.441421
v 1.415470 0.915470 0.415470
v 1.441421 0.941422 0.300000
v 1.300000 0.941422 0.441421
v -1.500000 0.800000 -0.300000
v -1.300000 1.000000 -0.300000
v -1.300000 0.800000 -0.500000
v -1.441422 0.941421 -0.300000
v -1.415470 0.915470 -0.415470
v -1.300000 0.941421 -0.441421
v -1.441422 0.800000 -0.441421
v 1.500000 0.800000 -0.300000
v 1.300000 0.800000 -0.500000
v 1.300000 1.000000 -0.300000
v 1.441421 0.800000 -0.441422
v 1.415470 0.915470 -0.415470
v 1.299999 0.941422 -0.441422
v 1.441421 0.941422 -0.300000
v -1.500000 0.700000 0.300000
v -1.300000 0.500000 0.300000
v -1.300000 0.700000 0.500000
v -1.441421 0.558579 0.300000
v -1.415470 0.584530 0.415470
v -1.300000 0.558579 0.441421
v -1.441421 0.700000 0.441421
v 1.500000 0.700000 0.300000
v 1.300000 0.700000 0.500000
v 1.441421 0.700000 0.441421
v 1.415470 0.584530 0.415470
v 1.300000 0.558579 0.441421
v 1.441421 0.558579 0.300000
v -1.500000 0.700000 -0.300000
v -1.300000 0.700000 -0.500000
v -1.441422 0.700000 -0.441421
v -1.415470 0.584530 -0.415470
v -1.300000 0.558579 -0.441421
v -1.441421 0.558579 -0.300000
v 1.500000 0.700000 -0.300000
v 1.300000 0.500000 -0.300000
v 1.300000 0.700000 -0.500000
v 1.441421 0.558579 -0.300000
v 1.415470 0.584530 -0.415470
v 1.300000 0.558579 -0.441422
v 1.441421 0.700000 -0.441422
v 1.500000 0.300000 0.300000
v 1.300000 0.500000 0.300000
v 1.441422 0.300000 0.441421
v 1.415470 0.415470 0.415470
v 1.441421 0.441422 0.300000
v 1.300000 0.441422 0.441421
v -1.500000 0.300000 -0.300000
v -1.300000 0.500000 -0.300000
v -1.300000 0.300000 -0.500000
v -1.441421 0.441421 -0.300000
v -1.415470 0.415470 -0.415470
v -1.300000 0.441421 -0.441421
v -1.441421 0.300000 -0.441421
v 1.500000 0.300000 -0.300000
v 1.300000 0.300000 -0.500000
v 1.441421 0.300000 -0.441422
v 1.415470 0.415470 -0.415470
v 1.300000 0.441422 -0.441422
v 1.441421 0.441422 -0.300000
v -1.500000 0.200000 0.300000
v -1.300000 0.200000 0.500000
v -1.441421 0.058579 0.300000
v -1.415470 0.084530 0.415470
v -1.300000 0.058579 0.441421
v -1.441421 0.200000 0.441421
v 1.500000 0.200000 0.300000
v 1.300000 0.200000 0.500000
v 1.441422 0.200000 0.441421
v 1.415470 0.084530 0.415470
v 1.300000 0.058579 0.441421
v 1.441422 0.058579 0.300000
v -1.500000 0.200000 -0.300000
v -1.300000 0.200000 -0.500000
v -1.441421 0.200000 -0.441421
v -1.415470 0.084530 -0.415470
v -1.300000 0.058579 -0.441421
v -1.441421 0.058579 -0.300000
v 1.500000 0.200000 -0.300000
v 1.300000 0.200000 -0.500000
v 1.441422 0.058579 -0.300000
v 1.415470 0.084530 -0.415470
v 1.300000 0.058579 -0.441422
v 1.441422 0.200000 -0.441422
v -1.300000 0.000000 0.300000
v 1.300000 0.000000 0.300000
v -1.300000 0.000000 -0.300000
v 1.300000 0.000000 -0.300000
vt 0.278943 0.169997
vt 0.346057 0.169997
vt 0.346057 0.176870
vt 0.278943 0.176870
vt 0.278943 0.135630
vt 0.346057 0.135630
vt 0.346057 0.142503
vt 0.278943 0.142503
vt 0.349786 0.169997
vt 0.349786 0.176870
vt 0.349786 0.176870
vt 0.349786 0.169997
vt 0.278943 0.228918
vt 0.346057 0.228918
vt 0.346057 0.228918
vt 0.278943 0.228918
vt 0.278943 0.176870
vt 0.346057 0.176870
vt 0.346057 0.169997
vt 0.278943 0.169997
vt 0.275214 0.176870
vt 0.276307 0.176870
vt 0.276790 0.210341
vt 0.276307 0.212125
vt 0.278943 0.212125
vt 0.276307 0.224892
vt 0.276790 0.223108
vt 0.278943 0.224892
vt 0.348694 0.176870
vt 0.348210 0.210341
vt 0.346057 0.212125
vt 0.348694 0.212125
vt 0.346057 0.224892
vt 0.348210 0.223108
vt 0.348694 0.224892
vt 0.275214 0.176870
vt 0.276307 0.212125
vt 0.276790 0.210341
vt 0.276307 0.176870
vt 0.278943 0.224892
vt 0.276790 0.223108
vt 0.276307 0.224892
vt 0.278943 0.212125
vt 0.348694 0.176870
vt 0.348210 0.210341
vt 0.348694 0.212125
vt 0.346057 0.212125
vt 0.348694 0.224892
vt 0.348210 0.223108
vt 0.346057 0.224892
vt 0.275214 0.169997
vt 0.276307 0.134742
vt 0.276790 0.136526
vt 0.276307 0.169997
vt 0.278943 0.117949
vt 0.278943 0.121975
vt 0.276790 0.123759
vt 0.276307 0.121975
vt 0.278943 0.134742
vt 0.348694 0.169997
vt 0.348210 0.136526
vt 0.348694 0.134742
vt 0.346057 0.134742
vt 0.346057 0.117949
vt 0.348694 0.121975
vt 0.348210 0.123759
vt 0.346057 0.121975
vt 0.275214 0.169997
vt 0.276307 0.169997
vt 0.276790 0.136526
vt 0.276307 0.134742
vt 0.278943 0.134742
vt 0.278943 0.117949
vt 0.276307 0.121975
vt 0.276790 0.123759
vt 0.278943 0.121975
vt 0.348694 0.134742
vt 0.348210 0.136526
vt 0.348694 0.169997
vt 0.346057 0.117949
vt 0.346057 0.121975
vt 0.348210 0.123759
vt 0.348694 0.121975
vt 0.346057 0.134742
vt 0.349786 0.135630
vt 0.349786 0.142503
vt 0.349786 0.142503
vt 0.349786 0.135630
vt 0.278943 0.142503
vt 0.346057 0.142503
vt 0.346057 0.135630
vt 0.278943 0.135630
vt 0.275214 0.142503
vt 0.276307 0.142503
vt 0.276790 0.175974
vt 0.276307 0.177758
vt 0.278943 0.177758
vt 0.278943 0.194551
vt 0.276307 0.190525
vt 0.276790 0.188741
vt 0.278943 0.190525
vt 0.348694 0.142503
vt 0.348210 0.175974
vt 0.346057 0.177758
vt 0.348694 0.177758
vt 0.346057 0.194551
vt 0.346057 0.190525
vt 0.348210 0.188741
vt 0.348694 0.190525
vt 0.275214 0.142503
vt 0.276307 0.177758
vt 0.276790 0.175974
vt 0.276307 0.142503
vt 0.278943 0.194551
vt 0.278943 0.190525
vt 0.276790 0.188741
vt 0.276307 0.190525
vt 0.278943 0.177758
vt 0.348694 0.142503
vt 0.348210 0.175974
vt 0.348694 0.177758
vt 0.346057 0.177758
vt 0.346057 0.194551
vt 0.348694 0.190525
vt 0.348210 0.188741
vt 0.346057 0.190525
vt 0.275214 0.135630
vt 0.276307 0.100375
vt 0.276790 0.102159
vt 0.276307 0.135630
vt 0.278943 0.083582
vt 0.278943 0.087608
vt 0.276790 0.089392
vt 0.276307 0.087608
vt 0.278943 0.100375
vt 0.348694 0.135630
vt 0.348210 0.102159
vt 0.348694 0.100375
vt 0.346057 0.100375
vt 0.346057 0.083582
vt 0.348694 0.087608
vt 0.348210 0.089392
vt 0.346057 0.087608
vt 0.275214 0.135630
vt 0.276307 0.135630
vt 0.276790 0.102159
vt 0.276307 0.100375
vt 0.278943 0.100375
vt 0.278943 0.083582
vt 0.276307 0.087608
vt 0.276790 0.089392
vt 0.278943 0.087608
vt 0.348694 0.100375
vt 0.348210 0.102159
vt 0.348694 0.135630
vt 0.346057 0.083582
vt 0.346057 0.087608
vt 0.348210 0.089392
vt 0.348694 0.087608
vt 0.346057 0.100375
vn -0.1794 -0.1794 0.9673
vn 0.1794 -0.1794 0.9673
vn 0.1794 0.1794 0.9673
vn -0.1794 0.1794 0.9673
vn 0.9673 -0.1794 -0.1794
vn 0.9673 0.1794 -0.1794
vn 0.9673 0.1794 0.1794
vn 0.9673 -0.1794 0.1794
vn -0.1794 0.9673 0.1794
vn 0.1794 0.9673 0.1794
vn 0.1794 0.9673 -0.1794
vn -0.1794 0.9673 -0.1794
vn -0.1794 0.1794 -0.9673
vn 0.1794 0.1794 -0.9673
vn 0.1794 -0.1794 -0.9673
vn -0.1794 -0.1794 -0.9673
vn -0.9673 0.1794 0.1794
vn -0.6965 0.1726 0.6965
vn -0.8881 0.3251 0.3251
vn -0.9194 0.3600 0.1585
vn -0.1585 0.3600 0.9194
vn -0.3251 0.3251 0.8881
vn -0.3600 0.9194 0.1585
vn -0.3251 0.8881 0.3251
vn -0.1585 0.9194 0.3600
vn 0.3600 0.1585 0.9194
vn 0.3251 0.3251 0.8881
vn 0.1585 0.3600 0.9194
vn 0.9194 0.3600 0.1585
vn 0.8881 0.3251 0.3251
vn 0.9194 0.1585 0.3600
vn 0.1585 0.9194 0.3600
vn 0.3251 0.8881 0.3251
vn 0.3600 0.9194 0.1585
vn -0.9673 0.1794 -0.1794
vn -0.9194 0.3600 -0.1585
vn -0.8881 0.3251 -0.3251
vn -0.9194 0.1585 -0.3600
vn -0.1585 0.9194 -0.3600
vn -0.3251 0.8881 -0.3251
vn -0.3600 0.9194 -0.1585
vn -0.3600 0.1585 -0.9194
vn -0.3251 0.3251 -0.8881
vn -0.1585 0.3600 -0.9194
vn 0.9194 0.1585 -0.3600
vn 0.8881 0.3251 -0.3251
vn 0.9194 0.3600 -0.1585
vn 0.1585 0.3600 -0.9194
vn 0.3251 0.3251 -0.8881
vn 0.3600 0.1585 -0.9194
vn 0.3600 0.9194 -0.1585
vn 0.3251 0.8881 -0.3251
vn 0.1585 0.9194 -0.3600
vn -0.9673 -0.1794 0.1794
vn -0.6965 -0.6965 0.1726
vn -0.8881 -0.3251 0.3251
vn -0.6965 -0.1726 0.6965
vn -0.2402 -0.9406 0.2402
vn -0.1585 -0.9194 0.3600
vn -0.3251 -0.8881 0.3251
vn -0.3251 -0.3251 0.8881
vn -0.1585 -0.3600 0.9194
vn 0.9194 -0.1585 0.3600
vn 0.8881 -0.3251 0.3251
vn 0.6965 -0.6965 0.1726
vn 0.1585 -0.3600 0.9194
vn 0.3251 -0.3251 0.8881
vn 0.3600 -0.1585 0.9194
vn 0.2402 -0.9406 0.2402
vn 0.3251 -0.8881 0.3251
vn 0.1585 -0.9194 0.3600
vn -0.9673 -0.1794 -0.1794
vn -0.9194 -0.1585 -0.3600
vn -0.8881 -0.3251 -0.3251
vn -0.6965 -0.6965 -0.1726
vn -0.1585 -0.3600 -0.9194
vn -0.3251 -0.3251 -0.8881
vn -0.3600 -0.1585 -0.9194
vn -0.2402 -0.9406 -0.2402
vn -0.3251 -0.8881 -0.3251
vn -0.1585 -0.9194 -0.3600
vn 0.6965 -0.6965 -0.1726
vn 0.8881 -0.3251 -0.3251
vn 0.9194 -0.1585 -0.3600
vn 0.2402 -0.9406 -0.2402
vn 0.1585 -0.9194 -0.3600
vn 0.3251 -0.8881 -0.3251
vn 0.3600 -0.1585 -0.9194
vn 0.3251 -0.3251 -0.8881
vn 0.1585 -0.3600 -0.9194
vn -0.9194 0.1585 0.3600
vn -0.6965 0.6965 0.1726
vn -0.3600 0.1585 0.9194
vn -0.2402 0.9406 0.2402
vn 0.6965 0.6965 0.1726
vn 0.2402 0.9406 0.2402
vn -0.6965 0.6965 -0.1726
vn -0.2402 0.9406 -0.2402
vn 0.6965 0.1726 -0.6965
vn 0.6965 0.6965 -0.1726
vn 0.2402 0.9406 -0.2402
vn -0.9194 -0.1585 0.3600
vn -0.1794 -0.9673 0.1794
vn -0.3600 -0.1585 0.9194
vn 0.1794 -0.9673 0.1794
vn -0.1794 -0.9673 -0.1794
vn 0.6965 -0.1726 -0.6965
vn 0.1794 -0.9673 -0.1794
usemtl platformer
s 1
f 38/1/1 44/2/2 15/3/3 9/4/4
f 82/5/1 88/6/2 1/7/3 6/8/4
f 55/9/5 29/10/6 16/11/7 43/12/8
f 10/13/9 17/14/10 31/15/11 23/16/12
f 24/17/13 30/18/14 57/19/15 50/20/16
f 8/21/17 11/22/18 12/23/19 14/24/20
f 9/4/4 13/25/21 12/23/22 11/22/18
f 10/13/9 14/26/23 12/27/24 13/28/25
f 15/3/3 18/29/26 19/30/27 21/31/28
f 16/11/7 20/32/29 19/30/30 18/29/31
f 17/14/10 21/33/32 19/34/33 20/35/34
f 22/36/35 25/37/36 26/38/37 28/39/38
f 23/16/12 27/40/39 26/41/40 25/42/41
f 24/17/13 28/39/42 26/38/43 27/43/44
f 29/10/6 32/44/45 33/45/46 35/46/47
f 30/18/14 34/47/48 33/45/49 32/44/50
f 31/15/11 35/48/51 33/49/52 34/50/53
f 36/51/54 39/52/55 40/53/56 42/54/57
f 37/55/58 41/56/59 40/57/60 39/58/55
f 38/1/1 42/54/57 40/53/61 41/59/62
f 43/12/8 45/60/63 46/61/64 48/62/65
f 44/2/2 47/63/66 46/61/67 45/60/68
f 63/64/69 48/65/65 46/66/70 47/67/71
f 49/68/72 51/69/73 52/70/74 54/71/75
f 50/20/16 53/72/76 52/70/77 51/69/78
f 69/73/79 54/74/75 52/75/80 53/76/81
f 55/9/5 58/77/82 59/78/83 61/79/84
f 56/80/85 60/81/86 59/82/87 58/83/82
f 57/19/15 61/79/88 59/78/89 60/84/90
f 22/36/35 8/21/17 14/24/20 25/37/36
f 25/42/41 14/26/23 10/13/9 23/16/12
f 9/4/4 15/3/3 21/31/28 13/25/21
f 13/28/25 21/33/32 17/14/10 10/13/9
f 16/11/7 29/10/6 35/46/47 20/32/29
f 20/35/34 35/48/51 31/15/11 17/14/10
f 30/18/14 24/17/13 27/43/44 34/47/48
f 34/50/53 27/40/39 23/16/12 31/15/11
f 49/68/72 22/36/35 28/39/38 51/69/73
f 51/69/78 28/39/42 24/17/13 50/20/16
f 29/10/6 55/9/5 61/79/84 32/44/45
f 32/44/50 61/79/88 57/19/15 30/18/14
f 56/80/85 69/73/79 53/76/81 60/81/86
f 60/84/90 53/72/76 50/20/16 57/19/15
f 36/51/54 49/68/72 54/71/75 39/52/55
f 39/58/55 54/74/75 69/73/79 37/55/58
f 55/9/5 43/12/8 48/62/65 58/77/82
f 58/83/82 48/65/65 63/64/69 56/80/85
f 44/2/2 38/1/1 41/59/62 47/63/66
f 47/67/71 41/56/59 37/55/58 63/64/69
f 8/21/17 36/51/54 42/54/57 11/22/18
f 11/22/18 42/54/57 38/1/1 9/4/4
f 43/12/8 16/11/7 18/29/31 45/60/63
f 45/60/68 18/29/26 15/3/3 44/2/2
f 22/36/35 49/68/72 36/51/54 8/21/17
f 99/85/5 75/86/6 62/87/7 87/88/8
f 70/89/13 76/90/14 100/91/15 94/92/16
f 7/93/17 5/94/91 4/95/19 2/96/92
f 6/8/4 3/97/21 4/95/22 5/94/93
f 37/98/94 2/99/92 4/100/24 3/101/25
f 1/7/3 64/102/26 65/103/27 67/104/28
f 62/87/7 66/105/95 65/103/30 64/102/31
f 63/106/96 67/107/32 65/108/33 66/109/95
f 68/110/35 71/111/97 72/112/37 74/113/38
f 69/114/98 73/115/39 72/116/40 71/117/97
f 70/89/13 74/113/42 72/112/43 73/118/44
f 75/86/6 77/119/99 78/120/46 80/121/100
f 76/90/14 79/122/48 78/120/49 77/119/99
f 56/123/101 80/124/100 78/125/52 79/126/53
f 81/127/54 83/128/55 84/129/56 86/130/102
f 105/131/103 85/132/59 84/133/60 83/134/55
f 82/5/1 86/130/104 84/129/61 85/135/62
f 87/88/8 89/136/63 90/137/64 92/138/65
f 88/6/2 91/139/66 90/137/67 89/136/68
f 106/140/105 92/141/65 90/142/70 91/143/71
f 93/144/72 95/145/73 96/146/74 98/147/75
f 94/92/16 97/148/76 96/146/77 95/145/78
f 107/149/106 98/150/75 96/151/80 97/152/81
f 99/85/5 101/153/82 102/154/83 104/155/107
f 108/156/108 103/157/86 102/158/87 101/159/82
f 100/91/15 104/155/107 102/154/89 103/160/90
f 68/110/35 7/93/17 2/96/92 71/111/97
f 71/117/97 2/99/92 37/98/94 69/114/98
f 6/8/4 1/7/3 67/104/28 3/97/21
f 3/101/25 67/107/32 63/106/96 37/98/94
f 62/87/7 75/86/6 80/121/100 66/105/95
f 66/109/95 80/124/100 56/123/101 63/106/96
f 76/90/14 70/89/13 73/118/44 79/122/48
f 79/126/53 73/115/39 69/114/98 56/123/101
f 93/144/72 68/110/35 74/113/38 95/145/73
f 95/145/78 74/113/42 70/89/13 94/92/16
f 75/86/6 99/85/5 104/155/107 77/119/99
f 77/119/99 104/155/107 100/91/15 76/90/14
f 108/156/108 107/149/106 97/152/81 103/157/86
f 103/160/90 97/148/76 94/92/16 100/91/15
f 81/127/54 93/144/72 98/147/75 83/128/55
f 83/134/55 98/150/75 107/149/106 105/131/103
f 99/85/5 87/88/8 92/138/65 101/153/82
f 101/159/82 92/141/65 106/140/105 108/156/108
f 88/6/2 82/5/1 85/135/62 91/139/66
f 91/143/71 85/132/59 105/131/103 106/140/105
f 7/93/17 81/127/54 86/130/102 5/94/91
f 5/94/93 86/130/104 82/5/1 6/8/4
f 87/88/8 62/87/7 64/102/31 89/136/63
f 89/136/68 64/102/26 1/7/3 88/6/2
f 68/110/35 93/144/72 81/127/54 7/93/17
f 105/131/103 107/149/106 108/156/108 106/140/105
