# Blender v3.4.1 OBJ File: 'Platformer_Pack_Export_FREE.blend'
# www.blender.org
mtllib pipe_end_yellow.mtl
o pipe_end_yellow
v 0.796082 0.000000 0.000000
v 0.735484 0.000000 0.304647
v 0.562915 0.000000 0.562915
v 0.304647 0.000000 0.735484
v -0.000000 0.000000 0.796082
v -0.304647 0.000000 0.735484
v -0.562915 0.000000 0.562915
v -0.735484 0.000000 0.304647
v -0.796082 0.000000 -0.000000
v -0.735484 0.000000 -0.304647
v -0.562915 0.000000 -0.562915
v -0.304647 0.000000 -0.735484
v 0.000000 0.000000 -0.796082
v 0.304648 0.000000 -0.735484
v 0.562915 0.000000 -0.562915
v 0.735484 0.000000 -0.304647
v 1.000000 0.500000 0.000000
v 0.923880 0.500000 0.382683
v 0.707107 0.500000 0.707107
v 0.382683 0.500000 0.923880
v -0.000000 0.500000 1.000000
v -0.382683 0.500000 0.923880
v -0.707107 0.500000 0.707107
v -0.923880 0.500000 0.382683
v -1.000000 0.500000 -0.000000
v -0.923880 0.500000 -0.382683
v -0.707107 0.500000 -0.707107
v -0.382684 0.500000 -0.923880
v 0.000000 0.500000 -1.000000
v 0.382684 0.500000 -0.923879
v 0.707107 0.500000 -0.707107
v 0.923880 0.500000 -0.382683
v 1.000000 0.000000 0.000000
v 0.923880 0.000000 0.382683
v 0.707107 0.000000 0.707107
v 0.382683 0.000000 0.923880
v -0.000000 0.000000 1.000000
v -0.382683 0.000000 0.923880
v -0.707107 0.000000 0.707107
v -0.923880 0.000000 0.382683
v -1.000000 0.000000 -0.000000
v -0.923880 0.000000 -0.382683
v -0.707107 0.000000 -0.707107
v -0.382684 0.000000 -0.923880
v 0.000000 0.000000 -1.000000
v 0.382684 0.000000 -0.923879
v 0.707107 0.000000 -0.707107
v 0.923880 0.000000 -0.382683
v 0.847061 1.000000 0.000000
v 0.796082 0.950000 0.000000
v 0.735484 0.950000 0.304647
v 0.782583 1.000000 0.324156
v 0.562915 0.950000 0.562915
v 0.598963 1.000000 0.598963
v 0.304647 0.950000 0.735484
v 0.324156 1.000000 0.782583
v -0.000000 0.950000 0.796082
v -0.000000 1.000000 0.847061
v -0.304647 0.950000 0.735484
v -0.324156 1.000000 0.782583
v -0.562915 0.950000 0.562915
v -0.598963 1.000000 0.598963
v -0.735484 0.950000 0.304647
v -0.782583 1.000000 0.324156
v -0.796082 0.950000 -0.000000
v -0.847061 1.000000 -0.000000
v -0.735484 0.950000 -0.304647
v -0.782583 1.000000 -0.324156
v -0.562915 0.950000 -0.562915
v -0.598963 1.000000 -0.598963
v -0.304647 0.950000 -0.735484
v -0.324156 1.000000 -0.782583
v 0.000000 0.950000 -0.796082
v 0.000000 1.000000 -0.847061
v 0.304648 0.950000 -0.735484
v 0.324157 1.000000 -0.782583
v 0.562915 0.950000 -0.562915
v 0.598963 1.000000 -0.598963
v 0.735484 0.950000 -0.304647
v 0.782583 1.000000 -0.324156
v 1.061556 1.000000 0.439711
v 1.108655 0.950000 0.459220
v 1.200000 0.950000 0.000000
v 1.149020 1.000000 0.000000
v 1.200000 0.550000 0.000000
v 1.149020 0.500000 0.000000
v 0.812480 1.000000 0.812480
v 0.848528 0.950000 0.848528
v 0.439711 1.000000 1.061556
v 0.459220 0.950000 1.108655
v -0.000000 1.000000 1.149020
v -0.000000 0.950000 1.200000
v -0.439711 1.000000 1.061557
v -0.459220 0.950000 1.108656
v -0.812480 1.000000 0.812480
v -0.848528 0.950000 0.848528
v -1.061556 1.000000 0.439711
v -1.108655 0.950000 0.459220
v -1.149020 1.000000 -0.000000
v -1.200000 0.950000 -0.000000
v -1.061556 1.000000 -0.439711
v -1.108655 0.950000 -0.459220
v -0.812480 1.000000 -0.812480
v -0.848528 0.950000 -0.848528
v -0.439711 1.000000 -1.061556
v -0.459220 0.950000 -1.108655
v 0.000000 1.000000 -1.149020
v 0.000000 0.950000 -1.200000
v 0.439711 1.000000 -1.061556
v 0.459220 0.950000 -1.108655
v 0.812480 1.000000 -0.812480
v 0.848528 0.950000 -0.848528
v 1.061557 1.000000 -0.439711
v 1.108656 0.950000 -0.459220
v 1.061556 0.500000 0.439711
v 1.108655 0.550000 0.459220
v 0.812480 0.500000 0.812480
v 0.848528 0.550000 0.848528
v 0.439711 0.500000 1.061556
v 0.459220 0.550000 1.108655
v -0.000000 0.500000 1.149020
v -0.000000 0.550000 1.200000
v -0.439711 0.500000 1.061557
v -0.459220 0.550000 1.108656
v -0.812480 0.500000 0.812480
v -0.848528 0.550000 0.848528
v -1.061556 0.500000 0.439711
v -1.108655 0.550000 0.459220
v -1.149020 0.500000 -0.000000
v -1.200000 0.550000 -0.000000
v -1.061556 0.500000 -0.439711
v -1.108655 0.550000 -0.459220
v -0.812480 0.500000 -0.812480
v -0.848528 0.550000 -0.848528
v -0.439711 0.500000 -1.061556
v -0.459220 0.550000 -1.108655
v 0.000000 0.500000 -1.149020
v 0.000000 0.550000 -1.200000
v 0.439711 0.500000 -1.061556
v 0.459220 0.550000 -1.108655
v 0.812480 0.500000 -0.812480
v 0.848528 0.550000 -0.848528
v 1.061557 0.500000 -0.439711
v 1.108656 0.550000 -0.459220
vt 0.300323 0.104765
vt 0.301244 0.104765
vt 0.303045 0.104765
vt 0.301988 0.104765
vt 0.282348 0.117876
vt 0.280262 0.117876
vt 0.280262 0.089355
vt 0.282348 0.089355
vt 0.298046 0.117876
vt 0.298778 0.117876
vt 0.298778 0.089355
vt 0.298046 0.089355
vt 0.297703 0.104765
vt 0.298977 0.104765
vt 0.293781 0.104765
vt 0.294470 0.104765
vt 0.285471 0.117876
vt 0.289154 0.117876
vt 0.289154 0.089355
vt 0.285471 0.089355
vt 0.289154 0.104765
vt 0.289154 0.104765
vt 0.279529 0.117876
vt 0.279529 0.089355
vt 0.298046 0.117876
vt 0.298046 0.089355
vt 0.284527 0.104765
vt 0.283838 0.104765
vt 0.280605 0.104765
vt 0.279331 0.104765
vt 0.292837 0.117876
vt 0.289154 0.117876
vt 0.289154 0.089355
vt 0.292837 0.089355
vt 0.292837 0.117876
vt 0.292837 0.089355
vt 0.289154 0.137471
vt 0.289154 0.149126
vt 0.294706 0.149126
vt 0.294706 0.137471
vt 0.277984 0.104765
vt 0.276320 0.104765
vt 0.280262 0.117876
vt 0.280262 0.089355
vt 0.285235 0.150583
vt 0.289154 0.150583
vt 0.289154 0.150583
vt 0.283838 0.150583
vt 0.284527 0.120605
vt 0.284527 0.136015
vt 0.289154 0.136015
vt 0.289154 0.120605
vt 0.280605 0.120605
vt 0.280605 0.136015
vt 0.277984 0.120605
vt 0.277984 0.136015
vt 0.277064 0.120605
vt 0.277064 0.136015
vt 0.277984 0.120605
vt 0.277984 0.136015
vt 0.280605 0.120605
vt 0.280605 0.136015
vt 0.284527 0.120605
vt 0.284527 0.136015
vt 0.289154 0.120605
vt 0.289154 0.136015
vt 0.293781 0.120605
vt 0.293781 0.136015
vt 0.297703 0.120605
vt 0.297703 0.136015
vt 0.300323 0.120605
vt 0.300323 0.136015
vt 0.301244 0.120605
vt 0.301244 0.136015
vt 0.300323 0.120605
vt 0.300323 0.136015
vt 0.297703 0.120605
vt 0.297703 0.136015
vt 0.293781 0.120605
vt 0.293781 0.136015
vt 0.292837 0.120605
vt 0.289154 0.120605
vt 0.295960 0.117876
vt 0.295960 0.089355
vt 0.295960 0.120605
vt 0.298046 0.120605
vt 0.298778 0.120605
vt 0.295960 0.117876
vt 0.295960 0.089355
vt 0.298046 0.120605
vt 0.295960 0.120605
vt 0.292837 0.120605
vt 0.289154 0.120605
vt 0.282348 0.117876
vt 0.282348 0.089355
vt 0.285471 0.120605
vt 0.282348 0.120605
vt 0.280262 0.120605
vt 0.279529 0.120605
vt 0.280262 0.120605
vt 0.281913 0.150583
vt 0.279331 0.150583
vt 0.282348 0.120605
vt 0.285471 0.117876
vt 0.285471 0.089355
vt 0.285471 0.120605
vt 0.276320 0.150583
vt 0.279693 0.150583
vt 0.275262 0.150583
vt 0.278913 0.150583
vt 0.279693 0.150583
vt 0.276320 0.150583
vt 0.281913 0.150583
vt 0.279331 0.150583
vt 0.285235 0.150583
vt 0.283838 0.150583
vt 0.289154 0.150583
vt 0.289154 0.150583
vt 0.294470 0.150583
vt 0.293073 0.150583
vt 0.296395 0.150583
vt 0.298977 0.150583
vt 0.298615 0.150583
vt 0.301988 0.150583
vt 0.303045 0.150583
vt 0.299395 0.150583
vt 0.301988 0.150583
vt 0.298615 0.150583
vt 0.296395 0.150583
vt 0.298977 0.150583
vt 0.293073 0.150583
vt 0.294470 0.150583
vt 0.299413 0.149126
vt 0.299413 0.137471
vt 0.283602 0.137471
vt 0.283602 0.149126
vt 0.302557 0.137471
vt 0.302557 0.149126
vt 0.303662 0.149126
vt 0.303662 0.137471
vt 0.302557 0.149126
vt 0.302557 0.137471
vt 0.299413 0.149126
vt 0.299413 0.137471
vt 0.294706 0.149126
vt 0.294706 0.137471
vt 0.289154 0.149126
vt 0.289154 0.137471
vt 0.283602 0.149126
vt 0.283602 0.137471
vt 0.278895 0.149126
vt 0.278895 0.137471
vt 0.275750 0.149126
vt 0.275750 0.137471
vt 0.274646 0.149126
vt 0.274646 0.137471
vt 0.275750 0.149126
vt 0.275750 0.137471
vt 0.278895 0.149126
vt 0.278895 0.137471
vt 0.297703 0.104765
vt 0.293781 0.104765
vt 0.294470 0.104765
vt 0.298977 0.104765
vt 0.289154 0.104765
vt 0.284527 0.104765
vt 0.283838 0.104765
vt 0.289154 0.104765
vt 0.300323 0.104765
vt 0.301988 0.104765
vt 0.280605 0.104765
vt 0.279331 0.104765
vt 0.277984 0.104765
vt 0.276320 0.104765
vt 0.277064 0.104765
vt 0.275262 0.104765
vt 0.293073 0.166208
vt 0.289154 0.166208
vt 0.289154 0.164751
vt 0.292837 0.164751
vt 0.296395 0.166208
vt 0.295960 0.164751
vt 0.298615 0.166208
vt 0.298046 0.164751
vt 0.299395 0.166208
vt 0.298778 0.164751
vt 0.298615 0.166208
vt 0.298046 0.164751
vt 0.296395 0.166208
vt 0.295960 0.164751
vt 0.293073 0.166208
vt 0.292837 0.164751
vt 0.289154 0.166208
vt 0.289154 0.164751
vt 0.285235 0.166208
vt 0.285471 0.164751
vt 0.281913 0.166208
vt 0.282348 0.164751
vt 0.279693 0.166208
vt 0.280262 0.164751
vt 0.278913 0.166208
vt 0.279529 0.164751
vt 0.279693 0.166208
vt 0.280262 0.164751
vt 0.281913 0.166208
vt 0.282348 0.164751
vt 0.285235 0.166208
vt 0.285471 0.164751
vt 0.294706 0.164751
vt 0.289154 0.164751
vt 0.289154 0.166208
vt 0.294470 0.166208
vt 0.299413 0.164751
vt 0.298977 0.166208
vt 0.302557 0.164751
vt 0.301988 0.166208
vt 0.303662 0.164751
vt 0.303045 0.166208
vt 0.302557 0.164751
vt 0.301988 0.166208
vt 0.299413 0.164751
vt 0.298977 0.166208
vt 0.294706 0.164751
vt 0.294470 0.166208
vt 0.289154 0.164751
vt 0.289154 0.166208
vt 0.283602 0.164751
vt 0.283838 0.166208
vt 0.278895 0.164751
vt 0.279331 0.166208
vt 0.275750 0.164751
vt 0.276320 0.166208
vt 0.274646 0.164751
vt 0.275262 0.166208
vt 0.275750 0.164751
vt 0.276320 0.166208
vt 0.278895 0.164751
vt 0.279331 0.166208
vt 0.283602 0.164751
vt 0.283838 0.166208
vt 0.283602 0.121846
vt 0.289154 0.121846
vt 0.289154 0.120390
vt 0.283838 0.120390
vt 0.278895 0.121846
vt 0.279331 0.120390
vt 0.275750 0.121846
vt 0.276320 0.120390
vt 0.274646 0.121846
vt 0.275262 0.120390
vt 0.275750 0.121846
vt 0.276320 0.120390
vt 0.278895 0.121846
vt 0.279331 0.120390
vt 0.283602 0.121846
vt 0.283838 0.120390
vt 0.289154 0.121846
vt 0.289154 0.120390
vt 0.294706 0.121846
vt 0.294470 0.120390
vt 0.299413 0.121846
vt 0.298977 0.120390
vt 0.302557 0.121846
vt 0.301988 0.120390
vt 0.303662 0.121846
vt 0.303045 0.120390
vt 0.302557 0.121846
vt 0.301988 0.120390
vt 0.299413 0.121846
vt 0.298977 0.120390
vt 0.294706 0.121846
vt 0.294470 0.120390
vn 0.0000 -1.0000 0.0000
vn 0.0000 -0.9088 0.4172
vn -0.1597 -0.9088 0.3855
vn -0.7071 0.0000 0.7071
vn -0.3827 0.0000 0.9239
vn 0.3827 0.0000 -0.9239
vn 0.0000 0.0000 -1.0000
vn -0.2950 -0.9088 0.2950
vn -0.3855 -0.9088 0.1597
vn 0.9239 0.0000 0.3827
vn 1.0000 0.0000 0.0000
vn -0.4172 -0.9088 -0.0000
vn -0.0000 0.0000 1.0000
vn -0.3827 0.0000 -0.9239
vn -0.3855 -0.9088 -0.1597
vn -0.2950 -0.9088 -0.2950
vn -0.9239 0.0000 -0.3827
vn -1.0000 0.0000 0.0000
vn 0.9239 0.0000 -0.3827
vn 0.9286 -0.3710 0.0000
vn 0.8580 -0.3710 0.3554
vn -0.1597 -0.9088 -0.3855
vn 0.3827 0.0000 0.9239
vn 0.0000 1.0000 0.0000
vn 0.7071 0.0000 -0.7071
vn -0.7071 0.0000 -0.7071
vn -0.9239 0.0000 0.3827
vn 0.7071 0.0000 0.7071
vn 0.8580 -0.3710 -0.3554
vn 0.3554 -0.3710 -0.8580
vn 0.6567 -0.3710 -0.6567
vn 0.3855 -0.9088 0.1597
vn 0.2950 -0.9088 0.2950
vn 0.3855 -0.9088 -0.1597
vn 0.4172 -0.9088 0.0000
vn 0.1597 -0.9088 0.3855
vn 0.1597 -0.9088 -0.3855
vn 0.0000 -0.9088 -0.4172
vn -0.6469 0.7139 -0.2680
vn -0.7002 0.7139 0.0000
vn -0.4951 0.7139 -0.4951
vn -0.2680 0.7139 -0.6469
vn 0.0000 0.7139 -0.7002
vn 0.2680 0.7139 -0.6469
vn 0.4951 0.7139 -0.4951
vn 0.6469 0.7139 -0.2680
vn 0.7002 0.7139 0.0000
vn 0.6469 0.7139 0.2680
vn 0.4951 0.7139 0.4951
vn 0.2680 0.7139 0.6469
vn -0.0000 0.7139 0.7002
vn -0.2680 0.7139 0.6469
vn -0.4951 0.7139 0.4951
vn -0.6469 0.7139 0.2680
vn 0.4951 -0.7139 -0.4951
vn 0.0000 -0.7139 -0.7002
vn -0.2680 -0.7139 -0.6469
vn -0.4951 -0.7139 -0.4951
vn -0.6469 -0.7139 -0.2680
vn -0.7002 -0.7139 -0.0000
vn -0.6469 -0.7139 0.2680
vn -0.4951 -0.7139 0.4951
vn -0.2680 -0.7139 0.6469
vn 0.0000 -0.7139 0.7002
vn 0.2680 -0.7139 0.6469
vn 0.4951 -0.7139 0.4951
usemtl platformer
s 1
f 22/1/1 21/2/1 121/3/2 123/4/3
f 77/5/4 75/6/5 14/7/5 15/8/4
f 59/9/6 57/10/7 5/11/7 6/12/6
f 23/13/1 22/1/1 123/4/3 125/14/8
f 24/15/1 23/13/1 125/14/8 127/16/9
f 67/17/10 65/18/11 9/19/11 10/20/10
f 25/21/1 24/15/1 127/16/9 129/22/12
f 75/6/5 73/23/13 13/24/13 14/7/5
f 57/10/7 55/25/14 4/26/14 5/11/7
f 26/27/1 25/21/1 129/22/12 131/28/15
f 27/29/1 26/27/1 131/28/15 133/30/16
f 51/31/17 50/32/18 1/33/18 2/34/17
f 65/18/11 63/35/19 8/36/19 9/19/11
f 85/37/20 83/38/11 82/39/10 116/40/21
f 28/41/1 27/29/1 133/30/16 135/42/22
f 73/23/13 71/43/23 12/44/23 13/24/13
f 80/45/24 49/46/24 84/47/24 113/48/24
f 48/49/19 32/50/19 17/51/11 33/52/11
f 47/53/25 31/54/25 32/50/19 48/49/19
f 46/55/6 30/56/6 31/54/25 47/53/25
f 45/57/7 29/58/7 30/56/6 46/55/6
f 44/59/14 28/60/14 29/58/7 45/57/7
f 43/61/26 27/62/26 28/60/14 44/59/14
f 42/63/17 26/64/17 27/62/26 43/61/26
f 41/65/18 25/66/18 26/64/17 42/63/17
f 40/67/27 24/68/27 25/66/18 41/65/18
f 39/69/4 23/70/4 24/68/27 40/67/27
f 38/71/5 22/72/5 23/70/4 39/69/4
f 37/73/13 21/74/13 22/72/5 38/71/5
f 36/75/23 20/76/23 21/74/13 37/73/13
f 35/77/28 19/78/28 20/76/23 36/75/23
f 34/79/10 18/80/10 19/78/28 35/77/28
f 33/52/11 17/51/11 18/80/10 34/79/10
f 2/81/1 1/82/1 33/52/1 34/79/1
f 55/25/14 53/83/26 3/84/26 4/26/14
f 3/85/1 2/81/1 34/79/1 35/77/1
f 4/86/1 3/85/1 35/77/1 36/75/1
f 5/87/1 4/86/1 36/75/1 37/73/1
f 61/88/25 59/9/6 6/12/6 7/89/25
f 6/90/1 5/87/1 37/73/1 38/71/1
f 63/35/19 61/88/25 7/89/25 8/36/19
f 7/91/1 6/90/1 38/71/1 39/69/1
f 8/92/1 7/91/1 39/69/1 40/67/1
f 9/93/1 8/92/1 40/67/1 41/65/1
f 69/94/28 67/17/10 10/20/10 11/95/28
f 10/96/1 9/93/1 41/65/1 42/63/1
f 71/43/23 69/94/28 11/95/28 12/44/23
f 11/97/1 10/96/1 42/63/1 43/61/1
f 12/98/1 11/97/1 43/61/1 44/59/1
f 13/99/1 12/98/1 44/59/1 45/57/1
f 14/100/1 13/99/1 45/57/1 46/55/1
f 78/101/24 80/45/24 113/48/24 111/102/24
f 15/103/1 14/100/1 46/55/1 47/53/1
f 79/104/27 77/5/4 15/8/4 16/105/27
f 16/106/1 15/103/1 47/53/1 48/49/1
f 1/82/1 16/106/1 48/49/1 33/52/1
f 111/102/24 109/107/24 76/108/24 78/101/24
f 76/108/24 109/107/24 107/109/24 74/110/24
f 72/111/24 74/110/24 107/109/24 105/112/24
f 70/113/24 72/111/24 105/112/24 103/114/24
f 68/115/24 70/113/24 103/114/24 101/116/24
f 101/116/24 99/117/24 66/118/24 68/115/24
f 66/118/24 99/117/24 97/119/24 64/120/24
f 62/121/24 64/120/24 97/119/24 95/122/24
f 60/123/24 62/121/24 95/122/24 93/124/24
f 93/124/24 91/125/24 58/126/24 60/123/24
f 58/126/24 91/125/24 89/127/24 56/128/24
f 54/129/24 56/128/24 89/127/24 87/130/24
f 52/131/24 54/129/24 87/130/24 81/132/24
f 53/83/26 51/31/17 2/34/17 3/84/26
f 116/40/21 82/39/10 88/133/28 118/134/28
f 144/135/29 114/136/19 83/38/11 85/37/20
f 120/137/23 90/138/23 92/139/13 122/140/13
f 122/140/13 92/139/13 94/141/5 124/142/5
f 124/142/5 94/141/5 96/143/4 126/144/4
f 126/144/4 96/143/4 98/145/27 128/146/27
f 128/146/27 98/145/27 100/147/18 130/148/18
f 130/148/18 100/147/18 102/149/17 132/150/17
f 132/150/17 102/149/17 104/151/26 134/152/26
f 134/152/26 104/151/26 106/153/14 136/154/14
f 136/154/14 106/153/14 108/155/7 138/156/7
f 138/156/7 108/155/7 110/157/6 140/158/30
f 140/158/30 110/157/6 112/159/25 142/160/31
f 142/160/31 112/159/25 114/136/19 144/135/29
f 19/161/1 18/162/1 115/163/32 117/164/33
f 17/165/1 32/166/1 143/167/34 86/168/35
f 21/2/1 20/169/1 119/170/36 121/3/2
f 18/162/1 17/165/1 86/168/35 115/163/32
f 20/169/1 19/161/1 117/164/33 119/170/36
f 118/134/28 88/133/28 90/138/23 120/137/23
f 32/166/1 31/171/1 141/172/1 143/167/34
f 31/171/1 30/173/1 139/174/37 141/172/1
f 30/173/1 29/175/1 137/176/38 139/174/37
f 29/175/1 28/41/1 135/42/22 137/176/38
f 50/32/18 79/104/27 16/105/27 1/33/18
f 52/177/39 49/178/40 50/179/40 51/180/39
f 54/181/41 52/177/39 51/180/39 53/182/41
f 56/183/42 54/181/41 53/182/41 55/184/42
f 58/185/43 56/183/42 55/184/42 57/186/43
f 60/187/44 58/185/43 57/186/43 59/188/44
f 62/189/45 60/187/44 59/188/44 61/190/45
f 64/191/46 62/189/45 61/190/45 63/192/46
f 66/193/47 64/191/46 63/192/46 65/194/47
f 68/195/48 66/193/47 65/194/47 67/196/48
f 70/197/49 68/195/48 67/196/48 69/198/49
f 72/199/50 70/197/49 69/198/49 71/200/50
f 74/201/51 72/199/50 71/200/50 73/202/51
f 76/203/52 74/201/51 73/202/51 75/204/52
f 78/205/53 76/203/52 75/204/52 77/206/53
f 80/207/54 78/205/53 77/206/53 79/208/54
f 49/178/40 80/207/54 79/208/54 50/179/40
f 82/209/48 83/210/47 84/211/47 81/212/48
f 88/213/49 82/209/48 81/212/48 87/214/49
f 90/215/50 88/213/49 87/214/49 89/216/50
f 92/217/51 90/215/50 89/216/50 91/218/51
f 94/219/52 92/217/51 91/218/51 93/220/52
f 96/221/53 94/219/52 93/220/52 95/222/53
f 98/223/54 96/221/53 95/222/53 97/224/54
f 100/225/40 98/223/54 97/224/54 99/226/40
f 102/227/39 100/225/40 99/226/40 101/228/39
f 104/229/41 102/227/39 101/228/39 103/230/41
f 106/231/42 104/229/41 103/230/41 105/232/42
f 108/233/43 106/231/42 105/232/42 107/234/43
f 110/235/44 108/233/43 107/234/43 109/236/44
f 112/237/45 110/235/44 109/236/44 111/238/45
f 114/239/46 112/237/45 111/238/45 113/240/46
f 83/210/47 114/239/46 113/240/46 84/211/47
f 144/241/29 85/242/20 86/243/35 143/244/34
f 142/245/31 144/241/29 143/244/34 141/246/55
f 140/247/30 142/245/31 141/246/55 139/248/37
f 138/249/56 140/247/30 139/248/37 137/250/38
f 136/251/57 138/249/56 137/250/38 135/252/22
f 134/253/58 136/251/57 135/252/22 133/254/16
f 132/255/59 134/253/58 133/254/16 131/256/15
f 130/257/60 132/255/59 131/256/15 129/258/12
f 128/259/61 130/257/60 129/258/12 127/260/9
f 126/261/62 128/259/61 127/260/9 125/262/8
f 124/263/63 126/261/62 125/262/8 123/264/3
f 122/265/64 124/263/63 123/264/3 121/266/2
f 120/267/65 122/265/64 121/266/2 119/268/36
f 118/269/66 120/267/65 119/268/36 117/270/33
f 116/271/21 118/269/66 117/270/33 115/272/32
f 85/242/20 116/271/21 115/272/32 86/243/35
f 81/132/24 84/47/24 49/46/24 52/131/24
